<svg id="10cf5b20-eea8-420e-8be7-8b2398cf8361" data-name="Layer 1" xmlns="http://www.w3.org/2000/svg" xmlns:xlink="http://www.w3.org/1999/xlink" viewBox="0 0 411.02 357.17">
  <defs>
    <clipPath id="2c2d7ddf-e49c-413a-a169-d7908a1c8f71">
      <rect x="21.13" y="201.5" width="36.85" height="36.85" fill="none"/>
    </clipPath>
    <clipPath id="4767dd74-c5ee-42cf-8c73-4ff635e100eb">
      <rect x="21.13" y="154.81" width="36.85" height="36.85" fill="none"/>
    </clipPath>
  </defs>
  <title>Ratikkapysakki_Osta lippu etukateen_145x126mm</title>
  <rect width="411.02" height="357.17" rx="25.42" ry="25.42" fill="#bee4f8"/>
  <text transform="translate(20.55 46.62)" font-size="24" fill="#007ac9" font-family="GothamRounded-Medium, Gotham Rounded" letter-spacing="-0.01em">O<tspan x="20.13" y="0" letter-spacing="-0.01em">s</tspan><tspan x="31.87" y="0" letter-spacing="-0.02em">t</tspan><tspan x="41.31" y="0" letter-spacing="-0.01em">a </tspan><tspan x="62.12" y="0" letter-spacing="-0.02em">l</tspan><tspan x="68.55" y="0" letter-spacing="-0.01em">i</tspan><tspan x="75.06" y="0" letter-spacing="-0.01em">p</tspan><tspan x="90.93" y="0" letter-spacing="-0.01em">p</tspan><tspan x="106.82" y="0" letter-spacing="-0.01em">u </tspan><tspan x="128.42" y="0" letter-spacing="-0.02em">et</tspan><tspan x="151.64" y="0" letter-spacing="-0.01em">u</tspan><tspan x="166.3" y="0" letter-spacing="-0.02em">k</tspan><tspan x="179.81" y="0" letter-spacing="-0.02em">ä</tspan><tspan x="193.43" y="0" letter-spacing="-0.04em">t</tspan><tspan x="202.42" y="0" letter-spacing="-0.02em">e</tspan><tspan x="216.55" y="0" letter-spacing="-0.01em">e</tspan><tspan x="230.77" y="0" letter-spacing="-0.01em">n </tspan><tspan font-size="15" font-family="GothamRounded-Book, Gotham Rounded" letter-spacing="-0.03em"><tspan x="0" y="24">K</tspan><tspan x="10.19" y="24" letter-spacing="-0.01em">ö</tspan><tspan x="19.77" y="24" letter-spacing="-0.01em">p </tspan><tspan x="34.08" y="24" letter-spacing="-0.01em">d</tspan><tspan x="43.87" y="24" letter-spacing="-0.01em">i</tspan><tspan x="47.62" y="24" letter-spacing="-0.01em">n </tspan><tspan x="61.21" y="24" letter-spacing="-0.01em">b</tspan><tspan x="70.98" y="24" letter-spacing="-0.02em">i</tspan><tspan x="74.68" y="24" letter-spacing="-0.02em">l</tspan><tspan x="78.4" y="24" letter-spacing="-0.01em">j</tspan><tspan x="82.15" y="24" letter-spacing="-0.02em">e</tspan><tspan x="90.73" y="24" letter-spacing="0.01em">t</tspan><tspan x="96.87" y="24" letter-spacing="-0.01em">t i </tspan><tspan x="115.57" y="24" letter-spacing="-0.02em">f</tspan><tspan x="120.71" y="24" letter-spacing="-0.01em">ö</tspan><tspan x="130.3" y="24" letter-spacing="0.01em">r</tspan><tspan x="136.52" y="24" letter-spacing="-0.02em">v</tspan><tspan x="144.94" y="24" letter-spacing="-0.01em">ä</tspan><tspan x="153.46" y="24" letter-spacing="-0.01em">g</tspan><tspan x="163.35" y="24" letter-spacing="-0.04em"> </tspan><tspan x="167.17" y="24" letter-spacing="-0.01em">/</tspan><tspan x="174.72" y="24" letter-spacing="-0.17em"> </tspan><tspan x="176.74" y="24" letter-spacing="0em">B</tspan><tspan x="187.62" y="24" letter-spacing="-0.02em">u</tspan><tspan x="196.55" y="24" letter-spacing="-0.01em">y </tspan><tspan x="209.71" y="24" letter-spacing="-0.03em">y</tspan><tspan x="218.01" y="24" letter-spacing="-0.01em">o</tspan><tspan x="227.6" y="24" letter-spacing="-0.01em">u</tspan><tspan x="236.71" y="24" letter-spacing="-0.01em">r </tspan><tspan x="247.14" y="24" letter-spacing="-0.02em">t</tspan><tspan x="252.86" y="24" letter-spacing="-0.02em">i</tspan><tspan x="256.58" y="24" letter-spacing="-0.01em">c</tspan><tspan x="265.02" y="24" letter-spacing="-0.03em">k</tspan><tspan x="273.07" y="24" letter-spacing="-0.02em">e</tspan><tspan x="281.65" y="24" letter-spacing="-0.01em">t </tspan><tspan x="292.06" y="24" letter-spacing="-0.01em">i</tspan><tspan x="295.81" y="24" letter-spacing="-0.01em">n </tspan><tspan x="309.4" y="24" letter-spacing="-0.01em">a</tspan><tspan x="317.98" y="24" letter-spacing="-0.02em">d</tspan><tspan x="327.65" y="24" letter-spacing="-0.02em">v</tspan><tspan x="336.07" y="24" letter-spacing="-0.01em">an</tspan><tspan x="353.83" y="24" letter-spacing="-0.01em">c</tspan><tspan x="362.17" y="24" letter-spacing="0em">e</tspan></tspan></text>
  <text transform="translate(20.55 101.33)" font-size="13.22" fill="#007ac9" font-family="GothamRounded-Medium, Gotham Rounded"><tspan letter-spacing="0em">R<tspan x="9.49" y="0" letter-spacing="-0.01em">a</tspan><tspan x="17.16" y="0" letter-spacing="-0.01em">i</tspan><tspan x="20.79" y="0" letter-spacing="-0.02em">t</tspan><tspan x="25.96" y="0" letter-spacing="-0.01em">i</tspan><tspan x="29.63" y="0" letter-spacing="-0.03em">o</tspan><tspan x="37.95" y="0" letter-spacing="-0.02em">v</tspan><tspan x="45.44" y="0" letter-spacing="0em">au</tspan><tspan x="61.37" y="0" letter-spacing="0em">n</tspan><tspan x="69.57" y="0" letter-spacing="0em">u</tspan><tspan x="77.75" y="0" letter-spacing="0em">n</tspan><tspan x="85.95" y="0" letter-spacing="-0.01em">k</tspan><tspan x="93.45" y="0" letter-spacing="0em">u</tspan><tspan x="101.58" y="0" letter-spacing="-0.01em">l</tspan><tspan x="105.24" y="0" letter-spacing="-0.01em">j</tspan><tspan x="108.93" y="0" letter-spacing="-0.01em">e</tspan><tspan x="116.72" y="0" letter-spacing="0.01em">t</tspan><tspan x="122.22" y="0" letter-spacing="-0.01em">t</tspan><tspan x="127.54" y="0">a</tspan><tspan x="135.23" y="0" letter-spacing="-0.01em">j</tspan><tspan x="138.93" y="0" letter-spacing="-0.01em">a</tspan><tspan x="146.55" y="0">t </tspan><tspan x="155.82" y="0" letter-spacing="-0.01em">e</tspan><tspan x="163.69" y="0" letter-spacing="-0.02em">i</tspan><tspan x="167.2" y="0" letter-spacing="-0.02em">v</tspan><tspan x="174.69" y="0" letter-spacing="-0.01em">ä</tspan><tspan x="182.31" y="0">t </tspan><tspan x="191.58" y="0" letter-spacing="-0.02em">m</tspan><tspan x="203.83" y="0" letter-spacing="0em">y</tspan><tspan x="211.62" y="0">y </tspan><tspan x="223.21" y="0" letter-spacing="-0.01em">l</tspan><tspan x="226.87" y="0" letter-spacing="-0.01em">i</tspan><tspan x="230.57" y="0" letter-spacing="0em">p</tspan><tspan x="239.42" y="0" letter-spacing="0em">p</tspan><tspan x="248.28" y="0">u</tspan><tspan x="256.41" y="0" letter-spacing="-0.01em">j</tspan><tspan x="260.11" y="0" letter-spacing="-0.01em">a </tspan><tspan x="271.7" y="0" letter-spacing="0.01em">1</tspan><tspan x="277.04" y="0" letter-spacing="0.03em">.</tspan><tspan x="280.96" y="0" letter-spacing="0.02em">2</tspan><tspan x="289.27" y="0" letter-spacing="0.03em">.</tspan><tspan x="293.18" y="0" letter-spacing="-0.01em">2</tspan><tspan x="301.13" y="0" letter-spacing="-0.02em">0</tspan><tspan x="310.41" y="0" letter-spacing="0em">1</tspan><tspan x="315.7" y="0" letter-spacing="-0.01em">8 </tspan><tspan x="327.86" y="0" letter-spacing="0em">a</tspan><tspan x="335.57" y="0">l</tspan><tspan x="339.28" y="0" letter-spacing="-0.01em">k</tspan><tspan x="346.83" y="0" letter-spacing="0em">a</tspan><tspan x="354.58" y="0" letter-spacing="0em">e</tspan><tspan x="362.51" y="0" letter-spacing="0.01em">n</tspan><tspan x="370.81" y="0">.</tspan><tspan x="374.3" y="0" font-family="GothamRounded-Book, Gotham Rounded" letter-spacing="0.01em"></tspan></tspan><tspan font-family="GothamRounded-Book, Gotham Rounded" letter-spacing="0.01em"><tspan x="0" y="16.02">S</tspan><tspan x="8.6" y="16.02" letter-spacing="0.01em">p</tspan><tspan x="17.47" y="16.02" letter-spacing="0.01em">å</tspan><tspan x="25.26" y="16.02" letter-spacing="0.03em">r</tspan><tspan x="30.95" y="16.02" letter-spacing="-0.01em">v</tspan><tspan x="38.57" y="16.02" letter-spacing="0em">a</tspan><tspan x="46.28" y="16.02" letter-spacing="0.01em">g</tspan><tspan x="55.17" y="16.02" letter-spacing="0.01em">n</tspan><tspan x="63.42" y="16.02" letter-spacing="0.01em">s</tspan><tspan x="70.09" y="16.02" letter-spacing="-0.01em">f</tspan><tspan x="74.83" y="16.02" letter-spacing="0.01em">ö</tspan><tspan x="83.48" y="16.02" letter-spacing="0em">r</tspan><tspan x="88.87" y="16.02" letter-spacing="0.01em">a</tspan><tspan x="96.66" y="16.02" letter-spacing="0.01em">r</tspan><tspan x="102.09" y="16.02" letter-spacing="0.01em">n</tspan><tspan x="110.32" y="16.02" letter-spacing="0.01em">a </tspan><tspan x="122.2" y="16.02" letter-spacing="0em">s</tspan><tspan x="128.82" y="16.02" letter-spacing="0.01em">l</tspan><tspan x="132.36" y="16.02" letter-spacing="0em">u</tspan><tspan x="140.51" y="16.02" letter-spacing="0em">t</tspan><tspan x="145.88" y="16.02" letter-spacing="0.01em">ar </tspan><tspan x="163.24" y="16.02">s</tspan><tspan x="169.96" y="16.02" letter-spacing="0.01em">ä</tspan><tspan x="177.7" y="16.02" letter-spacing="0em">l</tspan><tspan x="181.18" y="16.02" letter-spacing="0em">j</tspan><tspan x="184.68" y="16.02" letter-spacing="0.01em">a </tspan><tspan x="196.56" y="16.02" letter-spacing="0em">b</tspan><tspan x="205.38" y="16.02" letter-spacing="0em">i</tspan><tspan x="208.85" y="16.02" letter-spacing="0em">l</tspan><tspan x="212.33" y="16.02" letter-spacing="0em">j</tspan><tspan x="215.84" y="16.02" letter-spacing="0em">e</tspan><tspan x="223.61" y="16.02" letter-spacing="0.02em">t</tspan><tspan x="229.23" y="16.02" letter-spacing="-0.02em">t</tspan><tspan x="234.25" y="16.02" letter-spacing="0.01em">e</tspan><tspan x="242.2" y="16.02" letter-spacing="0.01em">r </tspan><tspan x="251.78" y="16.02" letter-spacing="0.02em">1</tspan><tspan x="256.83" y="16.02" letter-spacing="0.04em">.</tspan><tspan x="260.57" y="16.02" letter-spacing="0.01em">2</tspan><tspan x="268.62" y="16.02" letter-spacing="0.04em">.</tspan><tspan x="272.36" y="16.02" letter-spacing="0em">2</tspan><tspan x="280.33" y="16.02" letter-spacing="-0.01em">0</tspan><tspan x="289.72" y="16.02" letter-spacing="0.02em">1</tspan><tspan x="294.75" y="16.02" letter-spacing="0.03em">8</tspan><tspan x="303.43" y="16.02" letter-spacing="0.01em">.</tspan></tspan><tspan font-family="GothamRounded-Book, Gotham Rounded"><tspan x="0" y="32.04" letter-spacing="-0.09em">T</tspan><tspan x="7.39" y="32.04" letter-spacing="-0.01em">r</tspan><tspan x="12.65" y="32.04">am </tspan><tspan x="36.84" y="32.04" letter-spacing="0em">d</tspan><tspan x="45.59" y="32.04" letter-spacing="-0.01em">r</tspan><tspan x="50.84" y="32.04" letter-spacing="-0.02em">i</tspan><tspan x="54.07" y="32.04" letter-spacing="-0.03em">v</tspan><tspan x="61.42" y="32.04" letter-spacing="0em">e</tspan><tspan x="69.24" y="32.04" letter-spacing="-0.01em">r</tspan><tspan x="74.52" y="32.04">s no </tspan><tspan x="105.71" y="32.04" letter-spacing="-0.01em">l</tspan><tspan x="109.09" y="32.04" letter-spacing="0em">o</tspan><tspan x="117.61" y="32.04" letter-spacing="0em">n</tspan><tspan x="125.71" y="32.04">g</tspan><tspan x="134.48" y="32.04" letter-spacing="0em">e</tspan><tspan x="142.3" y="32.04">r </tspan><tspan x="151.62" y="32.04" letter-spacing="-0.01em">s</tspan><tspan x="158.1" y="32.04" letter-spacing="0em">e</tspan><tspan x="165.87" y="32.04" letter-spacing="-0.01em">l</tspan><tspan x="169.21" y="32.04">l </tspan><tspan x="176.65" y="32.04" letter-spacing="-0.02em">t</tspan><tspan x="181.76" y="32.04" letter-spacing="-0.01em">i</tspan><tspan x="185.11" y="32.04" letter-spacing="0em">c</tspan><tspan x="192.62" y="32.04" letter-spacing="-0.03em">k</tspan><tspan x="199.79" y="32.04" letter-spacing="-0.01em">e</tspan><tspan x="207.42" y="32.04" letter-spacing="0em">t</tspan><tspan x="212.81" y="32.04">s </tspan><tspan x="223.36" y="32.04" letter-spacing="0em">f</tspan><tspan x="228.27" y="32.04" letter-spacing="-0.03em">r</tspan><tspan x="233.27" y="32.04" letter-spacing="0em">o</tspan><tspan x="241.78" y="32.04">m 1 </tspan><tspan x="267.01" y="32.04" letter-spacing="-0.02em">F</tspan><tspan x="275.45" y="32.04" letter-spacing="0em">e</tspan><tspan x="283.27" y="32.04" letter-spacing="0em">b</tspan><tspan x="292.03" y="32.04">r</tspan><tspan x="297.38" y="32.04" letter-spacing="0em">u</tspan><tspan x="305.48" y="32.04">a</tspan><tspan x="313.13" y="32.04" letter-spacing="0.02em">r</tspan><tspan x="318.69" y="32.04">y </tspan><tspan x="330.41" y="32.04" letter-spacing="-0.01em">2</tspan><tspan x="338.25" y="32.04" letter-spacing="-0.02em">0</tspan><tspan x="347.5" y="32.04" letter-spacing="0.01em">1</tspan><tspan x="352.4" y="32.04" letter-spacing="0.02em">8</tspan><tspan x="360.95" y="32.04">.</tspan></tspan></text>
  <text transform="translate(67.66 163.18)" font-size="10.2" fill="#007ac9" font-family="GothamRounded-Medium, Gotham Rounded" letter-spacing="0.03em">H<tspan x="8.04" y="0" letter-spacing="0.03em">S</tspan><tspan x="14.83" y="0" letter-spacing="0.01em">L </tspan><tspan x="24.41" y="0" letter-spacing="0.02em">mo</tspan><tspan x="41.22" y="0" letter-spacing="0.02em">b</tspan><tspan x="48.24" y="0" letter-spacing="0.01em">ii</tspan><tspan x="54.35" y="0" letter-spacing="0.01em">lil</tspan><tspan x="63.53" y="0" letter-spacing="0.02em">i</tspan><tspan x="66.62" y="0" letter-spacing="0.02em">p</tspan><tspan x="73.68" y="0" letter-spacing="0.02em">p</tspan><tspan x="80.76" y="0" letter-spacing="0.01em">u </tspan><tspan x="90.35" y="0" letter-spacing="0.02em">-</tspan><tspan x="94.68" y="0" letter-spacing="0.01em">s</tspan><tspan x="99.93" y="0" letter-spacing="0em">ov</tspan><tspan x="112.55" y="0" letter-spacing="0.02em">e</tspan><tspan x="118.88" y="0" letter-spacing="0.01em">l</tspan><tspan x="121.94" y="0" letter-spacing="0.02em">l</tspan><tspan x="125.05" y="0" letter-spacing="0.03em">u</tspan><tspan x="131.64" y="0" letter-spacing="0.01em">s</tspan><tspan font-family="GothamRounded-Book, Gotham Rounded" letter-spacing="0.01em"><tspan x="0" y="13">A</tspan><tspan x="8.11" y="13" letter-spacing="0.02em">p</tspan><tspan x="15.06" y="13" letter-spacing="0.02em">p</tspan><tspan x="22.03" y="13" letter-spacing="0.02em">e</tspan><tspan x="28.25" y="13" letter-spacing="0.01em">n </tspan><tspan x="37.8" y="13" letter-spacing="0.03em">H</tspan><tspan x="45.85" y="13" letter-spacing="0em">R</tspan><tspan x="53.26" y="13" letter-spacing="0.01em">T </tspan><tspan x="63.13" y="13" letter-spacing="0.02em">M</tspan><tspan x="72.22" y="13" letter-spacing="0.02em">o</tspan><tspan x="78.99" y="13" letter-spacing="0.01em">b</tspan><tspan x="85.88" y="13" letter-spacing="0.01em">i</tspan><tspan x="88.65" y="13" letter-spacing="0.01em">lb</tspan><tspan x="98.36" y="13" letter-spacing="0.01em">i</tspan><tspan x="101.12" y="13" letter-spacing="0.01em">l</tspan><tspan x="103.9" y="13" letter-spacing="0.01em">j</tspan><tspan x="106.7" y="13" letter-spacing="0em">e</tspan><tspan x="112.79" y="13" letter-spacing="0.03em">t</tspan><tspan x="117.21" y="13" letter-spacing="0.01em">t</tspan></tspan><tspan font-family="GothamRounded-Book, Gotham Rounded" letter-spacing="0.03em"><tspan x="0" y="26">H</tspan><tspan x="8.01" y="26" letter-spacing="0.03em">S</tspan><tspan x="14.8" y="26" letter-spacing="0.01em">L </tspan><tspan x="24.38" y="26" letter-spacing="0.02em">M</tspan><tspan x="33.47" y="26" letter-spacing="0.02em">o</tspan><tspan x="40.24" y="26" letter-spacing="0.01em">b</tspan><tspan x="47.13" y="26" letter-spacing="0.01em">i</tspan><tspan x="49.9" y="26" letter-spacing="0.01em">l</tspan><tspan x="52.72" y="26" letter-spacing="0.01em">e </tspan><tspan x="62.03" y="26" letter-spacing="0em">t</tspan><tspan x="66.17" y="26" letter-spacing="0.01em">i</tspan><tspan x="68.95" y="26" letter-spacing="0.02em">c</tspan><tspan x="74.94" y="26" letter-spacing="-0.01em">k</tspan><tspan x="80.67" y="26" letter-spacing="0em">e</tspan><tspan x="86.76" y="26" letter-spacing="0.01em">t </tspan><tspan x="94.15" y="26" letter-spacing="0.02em">a</tspan><tspan x="100.24" y="26" letter-spacing="0.02em">p</tspan><tspan x="107.2" y="26" letter-spacing="0.01em">p</tspan></tspan><tspan letter-spacing="0.03em"><tspan x="0" y="47">M</tspan><tspan x="9.13" y="47" letter-spacing="0.01em">a</tspan><tspan x="15.25" y="47" letter-spacing="0.01em">t</tspan><tspan x="19.55" y="47" letter-spacing="0.01em">k</tspan><tspan x="25.62" y="47" letter-spacing="0.02em">a</tspan><tspan x="31.84" y="47" letter-spacing="0em">k</tspan><tspan x="37.78" y="47" letter-spacing="0.02em">o</tspan><tspan x="44.69" y="47" letter-spacing="0.04em">r</tspan><tspan x="49.29" y="47" letter-spacing="0.03em">t</tspan><tspan x="53.77" y="47" letter-spacing="0em">t</tspan><tspan x="58" y="47" letter-spacing="0.01em">i</tspan></tspan><tspan font-family="GothamRounded-Book, Gotham Rounded" letter-spacing="0.01em"><tspan x="0" y="60">R</tspan><tspan x="7.47" y="60" letter-spacing="0.02em">e</tspan><tspan x="13.67" y="60" letter-spacing="0.01em">s</tspan><tspan x="18.87" y="60" letter-spacing="0.02em">e</tspan><tspan x="25.09" y="60" letter-spacing="-0.01em">k</tspan><tspan x="30.82" y="60" letter-spacing="0.02em">o</tspan><tspan x="37.59" y="60" letter-spacing="0.04em">r</tspan><tspan x="42.11" y="60" letter-spacing="0.01em">t</tspan></tspan><tspan font-family="GothamRounded-Book, Gotham Rounded" letter-spacing="-0.07em"><tspan x="0" y="73">T</tspan><tspan x="5.93" y="73" letter-spacing="0.01em">r</tspan><tspan x="10.18" y="73" letter-spacing="-0.01em">a</tspan><tspan x="16.01" y="73" letter-spacing="-0.01em">v</tspan><tspan x="21.89" y="73" letter-spacing="0.01em">e</tspan><tspan x="28.08" y="73" letter-spacing="0.01em">l </tspan><tspan x="34.03" y="73" letter-spacing="0.03em">C</tspan><tspan x="41.88" y="73" letter-spacing="0.02em">a</tspan><tspan x="47.98" y="73" letter-spacing="0em">r</tspan><tspan x="52.06" y="73" letter-spacing="0.01em">d</tspan></tspan><tspan letter-spacing="0.01em"><tspan x="0" y="94">R</tspan><tspan x="7.47" y="94" letter-spacing="0.02em">-</tspan><tspan x="11.87" y="94" letter-spacing="0.01em">k</tspan><tspan x="17.88" y="94" letter-spacing="0.01em">i</tspan><tspan x="20.95" y="94" letter-spacing="0.02em">o</tspan><tspan x="27.81" y="94" letter-spacing="0.02em">s</tspan><tspan x="33.16" y="94" letter-spacing="0.01em">k</tspan><tspan x="39.17" y="94" letter-spacing="0.01em">i </tspan><tspan x="45.35" y="94" letter-spacing="0.01em">t</tspan><tspan x="49.69" y="94" letter-spacing="0.02em">a</tspan><tspan x="55.85" y="94" letter-spacing="0.01em">i </tspan><tspan x="62.03" y="94" letter-spacing="0.02em">mu</tspan><tspan x="78.53" y="94" letter-spacing="0.01em">u </tspan><tspan x="88.12" y="94" letter-spacing="0em">m</tspan><tspan x="97.82" y="94" letter-spacing="0.02em">y</tspan><tspan x="104.06" y="94" letter-spacing="0.01em">y</tspan><tspan x="110.12" y="94" letter-spacing="0.01em">n</tspan><tspan x="116.57" y="94" letter-spacing="0em">t</tspan><tspan x="120.8" y="94" letter-spacing="0.02em">ip</tspan><tspan x="130.91" y="94" letter-spacing="0.02em">is</tspan><tspan x="139.33" y="94" letter-spacing="0em">t</tspan><tspan x="143.49" y="94" letter-spacing="0.01em">e</tspan></tspan><tspan font-family="GothamRounded-Book, Gotham Rounded" letter-spacing="-0.01em"><tspan x="0" y="107">R</tspan><tspan x="7.29" y="107" letter-spacing="0.01em">-</tspan><tspan x="11.58" y="107" letter-spacing="0em">k</tspan><tspan x="17.38" y="107" letter-spacing="0.01em">i</tspan><tspan x="20.17" y="107" letter-spacing="0.01em">o</tspan><tspan x="26.89" y="107" letter-spacing="0.01em">s</tspan><tspan x="32.12" y="107" letter-spacing="0.01em">k </tspan><tspan x="41.18" y="107" letter-spacing="0.01em">e</tspan><tspan x="47.37" y="107" letter-spacing="0.01em">l</tspan><tspan x="50.14" y="107" letter-spacing="0.01em">l</tspan><tspan x="52.96" y="107" letter-spacing="0.02em">e</tspan><tspan x="59.19" y="107" letter-spacing="0.01em">r </tspan><tspan x="66.58" y="107" letter-spacing="0.02em">an</tspan><tspan x="79.15" y="107" letter-spacing="0.02em">n</tspan><tspan x="85.6" y="107" letter-spacing="0.01em">a</tspan><tspan x="91.56" y="107" letter-spacing="0.01em">t </tspan><tspan x="98.95" y="107" letter-spacing="0em">f</tspan><tspan x="102.7" y="107" letter-spacing="0.02em">ö</tspan><tspan x="109.47" y="107" letter-spacing="0.01em">r</tspan><tspan x="113.73" y="107" letter-spacing="0.02em">s</tspan><tspan x="119.01" y="107" letter-spacing="0.02em">ä</tspan><tspan x="125.07" y="107" letter-spacing="0.01em">l</tspan><tspan x="127.85" y="107" letter-spacing="0.01em">j</tspan><tspan x="130.65" y="107" letter-spacing="0.01em">n</tspan><tspan x="137.07" y="107" letter-spacing="0.01em">i</tspan><tspan x="139.87" y="107" letter-spacing="0.02em">n</tspan><tspan x="146.32" y="107" letter-spacing="0.02em">g</tspan><tspan x="153.27" y="107" letter-spacing="0.02em">s</tspan><tspan x="158.54" y="107" letter-spacing="0.02em">s</tspan><tspan x="163.8" y="107" letter-spacing="0.01em">t</tspan><tspan x="168.03" y="107" letter-spacing="0.02em">ä</tspan><tspan x="174.09" y="107" letter-spacing="0.01em">l</tspan><tspan x="176.87" y="107" letter-spacing="0.01em">l</tspan><tspan x="179.69" y="107" letter-spacing="0.01em">e</tspan><tspan x="0" y="120">R</tspan><tspan x="7.29" y="120" letter-spacing="0.01em">-</tspan><tspan x="11.58" y="120" letter-spacing="0em">k</tspan><tspan x="17.38" y="120" letter-spacing="0.01em">i</tspan><tspan x="20.17" y="120" letter-spacing="0.01em">o</tspan><tspan x="26.89" y="120" letter-spacing="0.01em">s</tspan><tspan x="32.12" y="120" letter-spacing="0.01em">k </tspan><tspan x="41.18" y="120" letter-spacing="0.02em">o</tspan><tspan x="47.94" y="120" letter-spacing="0.01em">r </tspan><tspan x="55.34" y="120" letter-spacing="0em">o</tspan><tspan x="61.97" y="120" letter-spacing="0.01em">t</tspan><tspan x="66.15" y="120" letter-spacing="0.02em">he</tspan><tspan x="78.84" y="120" letter-spacing="0.01em">r </tspan><tspan x="86.24" y="120" letter-spacing="0.02em">s</tspan><tspan x="91.51" y="120" letter-spacing="0.02em">a</tspan><tspan x="97.58" y="120" letter-spacing="0.01em">l</tspan><tspan x="100.4" y="120" letter-spacing="0.02em">e</tspan><tspan x="106.6" y="120" letter-spacing="0.01em">s </tspan><tspan x="114.95" y="120" letter-spacing="0.02em">p</tspan><tspan x="121.89" y="120" letter-spacing="0.01em">oi</tspan><tspan x="131.4" y="120" letter-spacing="0.01em">n</tspan><tspan x="137.75" y="120" letter-spacing="0.01em">t</tspan></tspan><tspan letter-spacing="0.01em"><tspan x="0" y="141">P</tspan><tspan x="6.93" y="141" letter-spacing="0.02em">a</tspan><tspan x="13.15" y="141" letter-spacing="0.01em">rk</tspan><tspan x="23.58" y="141" letter-spacing="0.01em">k</tspan><tspan x="29.59" y="141" letter-spacing="0.02em">i</tspan><tspan x="32.68" y="141" letter-spacing="0.02em">a</tspan><tspan x="38.9" y="141" letter-spacing="0.02em">u</tspan><tspan x="45.4" y="141" letter-spacing="-0.01em">t</tspan><tspan x="49.52" y="141" letter-spacing="0.02em">o</tspan><tspan x="56.43" y="141" letter-spacing="0.02em">m</tspan><tspan x="66.36" y="141" letter-spacing="0.02em">a</tspan><tspan x="72.56" y="141" letter-spacing="0.01em">a</tspan><tspan x="78.68" y="141" letter-spacing="0.03em">t</tspan><tspan x="83.16" y="141" letter-spacing="0em">t</tspan><tspan x="87.4" y="141" letter-spacing="0.01em">i </tspan><tspan x="93.58" y="141" letter-spacing="-0.04em">(</tspan><tspan x="97.71" y="141" letter-spacing="0em">v</tspan><tspan x="103.73" y="141" letter-spacing="0.02em">ai</tspan><tspan x="112.98" y="141" letter-spacing="0.01em">n </tspan><tspan x="122.57" y="141" letter-spacing="0em">k</tspan><tspan x="128.51" y="141" letter-spacing="0.02em">o</tspan><tspan x="135.43" y="141" letter-spacing="0.04em">r</tspan><tspan x="140.02" y="141" letter-spacing="0em">t</tspan><tspan x="144.25" y="141" letter-spacing="0.01em">i</tspan><tspan x="147.31" y="141" letter-spacing="0.01em">l</tspan><tspan x="150.37" y="141" letter-spacing="0.02em">l</tspan><tspan x="153.49" y="141" letter-spacing="-0.03em">a</tspan><tspan x="159.19" y="141" letter-spacing="0.01em">) </tspan><tspan x="166.95" y="141" letter-spacing="0.01em">t</tspan><tspan x="171.29" y="141" letter-spacing="0.02em">a</tspan><tspan x="177.45" y="141" letter-spacing="0.01em">i </tspan><tspan x="183.63" y="141" letter-spacing="0.01em">l</tspan><tspan x="186.69" y="141" letter-spacing="0.02em">i</tspan><tspan x="189.78" y="141" letter-spacing="0.02em">p</tspan><tspan x="196.84" y="141" letter-spacing="0.02em">p</tspan><tspan x="203.92" y="141" letter-spacing="0.02em">u</tspan><tspan x="210.47" y="141" letter-spacing="0.02em">a</tspan><tspan x="216.68" y="141" letter-spacing="0.02em">u</tspan><tspan x="223.18" y="141" letter-spacing="-0.01em">t</tspan><tspan x="227.3" y="141" letter-spacing="0.02em">o</tspan><tspan x="234.22" y="141" letter-spacing="0.02em">m</tspan><tspan x="244.14" y="141" letter-spacing="0.02em">a</tspan><tspan x="250.34" y="141" letter-spacing="0.01em">a</tspan><tspan x="256.46" y="141" letter-spacing="0.03em">t</tspan><tspan x="260.94" y="141" letter-spacing="0em">t</tspan><tspan x="265.18" y="141" letter-spacing="0.01em">i</tspan></tspan><tspan font-family="GothamRounded-Book, Gotham Rounded" letter-spacing="0.01em"><tspan x="0" y="154">P</tspan><tspan x="6.93" y="154" letter-spacing="0.02em">a</tspan><tspan x="13.03" y="154" letter-spacing="0.01em">r</tspan><tspan x="17.31" y="154" letter-spacing="-0.01em">k</tspan><tspan x="23.04" y="154" letter-spacing="0.02em">e</tspan><tspan x="29.27" y="154" letter-spacing="0.01em">ri</tspan><tspan x="36.31" y="154" letter-spacing="0.02em">n</tspan><tspan x="42.76" y="154" letter-spacing="0.02em">g</tspan><tspan x="49.71" y="154" letter-spacing="0.02em">s</tspan><tspan x="54.99" y="154" letter-spacing="0.02em">a</tspan><tspan x="61.08" y="154" letter-spacing="0.01em">u</tspan><tspan x="67.46" y="154" letter-spacing="-0.02em">t</tspan><tspan x="71.41" y="154" letter-spacing="0.02em">o</tspan><tspan x="78.18" y="154" letter-spacing="0.02em">m</tspan><tspan x="88.04" y="154" letter-spacing="0.01em">a</tspan><tspan x="94.01" y="154" letter-spacing="0.01em">t </tspan><tspan x="101.39" y="154" letter-spacing="-0.06em">(</tspan><tspan x="105.18" y="154" letter-spacing="0.02em">e</tspan><tspan x="111.4" y="154" letter-spacing="0.02em">n</tspan><tspan x="117.87" y="154" letter-spacing="0.02em">d</tspan><tspan x="124.81" y="154" letter-spacing="0.02em">as</tspan><tspan x="136.15" y="154" letter-spacing="0.01em">t </tspan><tspan x="143.53" y="154" letter-spacing="0.02em">me</tspan><tspan x="159.65" y="154" letter-spacing="0.01em">d </tspan><tspan x="169.68" y="154" letter-spacing="-0.01em">k</tspan><tspan x="175.42" y="154" letter-spacing="0.02em">o</tspan><tspan x="182.18" y="154" letter-spacing="0.04em">r</tspan><tspan x="186.71" y="154" letter-spacing="-0.03em">t</tspan><tspan x="190.52" y="154" letter-spacing="0.01em">) </tspan><tspan x="198.21" y="154" letter-spacing="0.01em">e</tspan><tspan x="204.4" y="154" letter-spacing="0.01em">l</tspan><tspan x="207.17" y="154" letter-spacing="0.01em">l</tspan><tspan x="209.99" y="154" letter-spacing="0.02em">e</tspan><tspan x="216.22" y="154" letter-spacing="0.01em">r </tspan><tspan x="223.61" y="154" letter-spacing="0.01em">b</tspan><tspan x="230.51" y="154" letter-spacing="0.01em">i</tspan><tspan x="233.28" y="154" letter-spacing="0.01em">l</tspan><tspan x="236.06" y="154" letter-spacing="0.01em">j</tspan><tspan x="238.86" y="154" letter-spacing="0em">e</tspan><tspan x="244.95" y="154" letter-spacing="0.03em">t</tspan><tspan x="249.37" y="154" letter-spacing="0.01em">t</tspan><tspan x="253.6" y="154" letter-spacing="0.02em">a</tspan><tspan x="259.69" y="154" letter-spacing="0.01em">u</tspan><tspan x="266.07" y="154" letter-spacing="-0.02em">t</tspan><tspan x="270.03" y="154" letter-spacing="0.02em">o</tspan><tspan x="276.79" y="154" letter-spacing="0.02em">m</tspan><tspan x="286.65" y="154" letter-spacing="0.01em">a</tspan><tspan x="292.62" y="154" letter-spacing="0.01em">t</tspan></tspan><tspan font-family="GothamRounded-Book, Gotham Rounded" letter-spacing="0em"><tspan x="0" y="167">P</tspan><tspan x="6.78" y="167" letter-spacing="0em">a</tspan><tspan x="12.72" y="167" letter-spacing="0em">r</tspan><tspan x="16.85" y="167" letter-spacing="-0.01em">k</tspan><tspan x="22.5" y="167" letter-spacing="0em">i</tspan><tspan x="25.15" y="167" letter-spacing="0em">n</tspan><tspan x="31.44" y="167" letter-spacing="0em">g </tspan><tspan x="41.17" y="167" letter-spacing="-0.01em">t</tspan><tspan x="45.16" y="167" letter-spacing="-0.01em">i</tspan><tspan x="47.79" y="167" letter-spacing="0em">c</tspan><tspan x="53.63" y="167" letter-spacing="-0.02em">k</tspan><tspan x="59.2" y="167" letter-spacing="-0.01em">e</tspan><tspan x="65.14" y="167" letter-spacing="-0.01em">t </tspan><tspan x="72.22" y="167" letter-spacing="0em">m</tspan><tspan x="81.93" y="167" letter-spacing="0em">a</tspan><tspan x="87.85" y="167" letter-spacing="0em">c</tspan><tspan x="93.68" y="167" letter-spacing="0em">h</tspan><tspan x="99.95" y="167" letter-spacing="0em">i</tspan><tspan x="102.6" y="167" letter-spacing="0em">n</tspan><tspan x="108.92" y="167" letter-spacing="-0.01em">e </tspan><tspan x="117.92" y="167" letter-spacing="-0.08em">(</tspan><tspan x="121.55" y="167" letter-spacing="0.01em">c</tspan><tspan x="127.45" y="167" letter-spacing="0em">a</tspan><tspan x="133.4" y="167" letter-spacing="-0.02em">r</tspan><tspan x="137.33" y="167" letter-spacing="0em">d </tspan><tspan x="147.06" y="167" letter-spacing="0em">p</tspan><tspan x="153.84" y="167" letter-spacing="-0.02em">a</tspan><tspan x="159.51" y="167" letter-spacing="-0.01em">y</tspan><tspan x="165.4" y="167" letter-spacing="0em">me</tspan><tspan x="181.21" y="167" letter-spacing="-0.01em">n</tspan><tspan x="187.4" y="167" letter-spacing="0em">t </tspan><tspan x="194.48" y="167" letter-spacing="0em">o</tspan><tspan x="201.09" y="167" letter-spacing="0em">n</tspan><tspan x="207.38" y="167" letter-spacing="-0.01em">l</tspan><tspan x="209.91" y="167" letter-spacing="-0.07em">y</tspan><tspan x="215.21" y="167" letter-spacing="0em">) </tspan><tspan x="222.59" y="167" letter-spacing="0em">o</tspan><tspan x="229.2" y="167" letter-spacing="0em">r </tspan><tspan x="236.29" y="167" letter-spacing="0.01em">H</tspan><tspan x="244.15" y="167" letter-spacing="0.01em">S</tspan><tspan x="250.79" y="167" letter-spacing="0em">L </tspan><tspan x="260.06" y="167" letter-spacing="-0.01em">t</tspan><tspan x="264.05" y="167" letter-spacing="0em">i</tspan><tspan x="266.68" y="167" letter-spacing="0em">c</tspan><tspan x="272.52" y="167" letter-spacing="-0.02em">k</tspan><tspan x="278.1" y="167" letter-spacing="-0.01em">e</tspan><tspan x="284.03" y="167" letter-spacing="-0.01em">t </tspan><tspan x="291.11" y="167" letter-spacing="0em">m</tspan><tspan x="300.82" y="167" letter-spacing="0em">ac</tspan><tspan x="312.58" y="167" letter-spacing="0em">h</tspan><tspan x="318.84" y="167" letter-spacing="0em">i</tspan><tspan x="321.49" y="167" letter-spacing="0em">n</tspan><tspan x="327.81" y="167" letter-spacing="-0.01em">e</tspan></tspan></text>
  <g>
    <rect x="21.13" y="248.19" width="36.85" height="36.85" rx="4.61" ry="4.61" fill="#007ec6"/>
    <path d="M31.88,259.39a3.47,3.47,0,1,0-3.43-3.46,3.4,3.4,0,0,0,3.43,3.46" fill="#fff"/>
    <path d="M47.64,259.49h0A3.35,3.35,0,0,0,51,256.1a3.38,3.38,0,0,0-3.35-3.43,3.42,3.42,0,0,0-3.43,3.43,3.38,3.38,0,0,0,3.39,3.39" fill="#fff"/>
    <path d="M44.29,280.32h3v-8.91a.34.34,0,0,1,.37-.33h0a.31.31,0,0,1,.34.33v8.91h3V269.4H44.29Z" fill="#fff"/>
    <path d="M43.58,268v1.77H25.49a.88.88,0,0,1-.87-.9.86.86,0,0,1,.87-.87Z" fill="#fff"/>
    <path d="M54.57,269.47l-1.64-7.11a2,2,0,0,0-2.27-1.72H45.22a2.54,2.54,0,0,0-1.86.9l-4,4.54a1.77,1.77,0,0,0-.52,1.15,1.09,1.09,0,0,0,0,.18h2.92L43.92,265h.37v3.77H51V265h.37l.67,5.37a1.25,1.25,0,0,0,1.27,1A1.35,1.35,0,0,0,54.65,270,3.14,3.14,0,0,0,54.57,269.47Z" fill="#fff"/>
    <path d="M28,267.41l.46-2.06h.34v2.06H35v-2.06h.38l.43,2.06h2.47l-1.36-5.11a2.17,2.17,0,0,0-2.3-1.74H29.13a2.19,2.19,0,0,0-2.3,1.77l-1.29,5.08Z" fill="#fff"/>
    <path d="M31.9,281.11c-.53,0-.91-.48-.91-1.13a1.44,1.44,0,0,1,.3-.84l-1.3-.53a1.37,1.37,0,0,1-.38.8,1.23,1.23,0,0,1-.86.4.81.81,0,0,1-.59-.24.82.82,0,0,1-.23-.69,1.31,1.31,0,0,1,.39-.75,1.42,1.42,0,0,1,.81-.38l-.53-1.3a1.44,1.44,0,0,1-.84.3c-.66,0-1.14-.38-1.14-.91s.48-.91,1.14-.91a1.44,1.44,0,0,1,.84.3l.53-1.3a1.42,1.42,0,0,1-.81-.38,1.31,1.31,0,0,1-.39-.75.82.82,0,0,1,.82-.94,1.27,1.27,0,0,1,.86.4,1.54,1.54,0,0,1,.38.81l1.3-.56a1.44,1.44,0,0,1-.3-.84c0-.66.38-1.13.91-1.13s.91.47.91,1.13a1.49,1.49,0,0,1-.31.84l1.31.56a1.47,1.47,0,0,1,.37-.81,1.3,1.3,0,0,1,.87-.4.83.83,0,0,1,.58.24,1,1,0,0,1-.16,1.45,1.37,1.37,0,0,1-.81.38l.54,1.3a1.42,1.42,0,0,1,.83-.3c.66,0,1.14.38,1.14.91s-.48.91-1.14.91a1.42,1.42,0,0,1-.83-.3l-.54,1.3a1.38,1.38,0,0,1,.81.38,1,1,0,0,1,.16,1.44.78.78,0,0,1-.58.24,1.25,1.25,0,0,1-.87-.4,1.38,1.38,0,0,1-.37-.8l-1.31.53a1.49,1.49,0,0,1,.31.84C32.81,280.63,32.43,281.11,31.9,281.11Zm0-1.71a.76.76,0,0,0-.3.58c0,.3.12.52.3.52s.3-.22.3-.52A.77.77,0,0,0,31.9,279.4Zm2.52-1a.8.8,0,0,0,.2.62.65.65,0,0,0,.42.21.21.21,0,0,0,.16-.06c.12-.12.06-.37-.16-.58a.76.76,0,0,0-.5-.21Zm-5.17,0a.79.79,0,0,0-.5.21c-.21.21-.28.46-.16.58a.23.23,0,0,0,.16.06.66.66,0,0,0,.43-.22.73.73,0,0,0,.19-.61Zm2.65.4L34,277.9l.85-2.06L34,273.78l-2.06-.85-2.06.85L29,275.84l.86,2.06Zm3.56-2.91a.77.77,0,0,0,.58.3c.3,0,.52-.13.52-.3s-.22-.3-.52-.3A.75.75,0,0,0,35.46,275.84Zm-7.7-.3c-.31,0-.53.13-.53.3s.23.3.53.3a.77.77,0,0,0,.57-.3A.73.73,0,0,0,27.76,275.54Zm6.66-2.23h.12a.8.8,0,0,0,.5-.2c.22-.22.28-.46.16-.58a.22.22,0,0,0-.16-.07.67.67,0,0,0-.42.22A.77.77,0,0,0,34.42,273.31Zm-5.67-.84a.24.24,0,0,0-.16.07c-.12.12-.05.37.16.58a.8.8,0,0,0,.5.2h.12a.76.76,0,0,0-.19-.62A.71.71,0,0,0,28.75,272.47Zm3.15-1.32c-.17,0-.3.22-.3.52a.73.73,0,0,0,.3.57.77.77,0,0,0,.3-.57C32.2,271.37,32.07,271.15,31.9,271.15Z" fill="#fff"/>
  </g>
  <g>
    <rect x="21.13" y="294.78" width="36.85" height="36.85" rx="4.61" ry="4.61" fill="#007ec6"/>
    <path d="M34.93,314.72c0-.52,0-1,.06-1.52a.72.72,0,0,1,.73-.68H42.2V299.43h-15v25.44H36.6A26.88,26.88,0,0,1,34.93,314.72ZM28.61,300.9H40.76V311H28.61Zm.63,17a.67.67,0,1,1,.67-.67A.67.67,0,0,1,29.24,317.94Zm0-2a.67.67,0,1,1,.67-.67A.67.67,0,0,1,29.24,316Zm0-2a.67.67,0,1,1,.67-.67A.67.67,0,0,1,29.24,314Zm1.93,3.95a.67.67,0,1,1,.67-.67A.67.67,0,0,1,31.17,317.94Zm0-2a.67.67,0,1,1,.67-.67A.67.67,0,0,1,31.17,316Zm0-2a.67.67,0,1,1,.67-.67A.67.67,0,0,1,31.17,314Zm1.93,3.95a.67.67,0,1,1,.66-.67A.67.67,0,0,1,33.1,317.94Zm0-2a.67.67,0,1,1,.66-.67A.67.67,0,0,1,33.1,316Zm0-2a.67.67,0,1,1,.66-.67A.67.67,0,0,1,33.1,314Zm5.82,5.46a.37.37,0,0,1,0,.15l0,.06a.19.19,0,0,1-.16.1l0,0a.07.07,0,0,1,0-.05.23.23,0,0,1,0-.19h0a.3.3,0,0,1,.17-.09h0s0,0,0,0h0m-.57-2.93h0a.27.27,0,0,0-.19-.1.06.06,0,0,0,0,0s0,0,0,.05a.38.38,0,0,0,.1.19h0l.05,0a.35.35,0,0,0,.14.06h0v0h0a.46.46,0,0,0-.08-.2m1.36-.33,0,0,0,0a.39.39,0,0,0,.09-.2h0a.31.31,0,0,0,0-.19s0,0-.06,0,0,0-.07,0a.35.35,0,0,0-.06.19h0v.06a.35.35,0,0,0,.06.14M37.77,318h0a.32.32,0,0,0-.18,0s0,0,0,.06a.1.1,0,0,0,.05.07.44.44,0,0,0,.2.05h.08a.29.29,0,0,0,.12-.07l0,0,0,0a.56.56,0,0,0-.21-.08m2.83,2.2a.09.09,0,0,0,0-.05.53.53,0,0,0-.12-.14l-.05,0,0,0a.31.31,0,0,0,0,.19v0a.51.51,0,0,0,.13.19s.06,0,.08,0,0,0,0,0a.39.39,0,0,0,0-.19l0,0M42.15,318a.44.44,0,0,0-.2,0h-.08a.21.21,0,0,0-.12.07l0,0s0,0,0,0a.5.5,0,0,0,.21.08h0a.32.32,0,0,0,.18-.05.07.07,0,0,0,0-.07.12.12,0,0,0-.05-.06m-.61,1.38h0s0,0,0,0h0a.65.65,0,0,0,.15.2h0a.48.48,0,0,0,.23.1s0,0,0,0,0,0,0-.05a.51.51,0,0,0-.17-.19h0l-.06,0-.16-.05h0m-.16-3s0,0-.05,0a.27.27,0,0,0-.19.1h0l0,.05a.53.53,0,0,0-.05.15h0a0,0,0,0,0,0,0h0a.37.37,0,0,0,.19-.09h0a.34.34,0,0,0,.1-.19.06.06,0,0,0,0-.05m-1.64.22-1,.42a8.83,8.83,0,0,0-.3,1c.24.41.38.62.66,1l1.15.42.85-.41a7.4,7.4,0,0,1,.18-1,10.05,10.05,0,0,1-.54-1l-1-.42m12.55,10.42H38.47c-1.79-3.17-2.8-6.89-2.8-12.36,0-.5,0-1,0-1.47H48.79c0,.48,0,1,0,1.47,0,4.58,1.34,9.37,3.55,12.35m-9.63-9a.69.69,0,0,0-.3-.43.82.82,0,0,0-.47-.14h0a1,1,0,0,0-.29.07l-.2-.39a.79.79,0,0,0,.25-.17.82.82,0,0,0,.23-.51.53.53,0,0,0-.53-.55.83.83,0,0,0-.54.24.9.9,0,0,0-.17.26l-.36-.16a1.15,1.15,0,0,0,.07-.28h0a.72.72,0,0,0-.09-.45.5.5,0,0,0-.43-.25.61.61,0,0,0-.46.23.72.72,0,0,0-.18.45h0a.73.73,0,0,0,0,.3l-.38.16a1,1,0,0,0-.15-.25h0a.74.74,0,0,0-.52-.24.55.55,0,0,0-.38.16.52.52,0,0,0-.17.39.71.71,0,0,0,.25.52.83.83,0,0,0,.26.17l-.11.37a1.36,1.36,0,0,0-.29-.06h0a.65.65,0,0,0-.44.15.49.49,0,0,0-.18.47.67.67,0,0,0,.31.43.9.9,0,0,0,.48.14h0a.68.68,0,0,0,.29-.06l.27.4a.61.61,0,0,0-.19.17.6.6,0,0,0-.07.55.78.78,0,0,0,.28.35.77.77,0,0,0,.42.15.55.55,0,0,0,.45-.26v0a.48.48,0,0,0,.07-.21l.46.17a.68.68,0,0,0,.06.33,1.13,1.13,0,0,0,.32.43.82.82,0,0,0,.51.21h0a.37.37,0,0,0,.38-.28.78.78,0,0,0-.06-.46v0a1.4,1.4,0,0,0-.16-.26l.28-.13a1,1,0,0,0,.26.26l0,0a1.14,1.14,0,0,0,.58.22.41.41,0,0,0,.35-.18.45.45,0,0,0,0-.41,1.15,1.15,0,0,0-.38-.49h0a1,1,0,0,0-.32-.16c0-.14,0-.24.06-.36a.92.92,0,0,0,.28.05h0a.7.7,0,0,0,.44-.14.5.5,0,0,0,.16-.47m.79-1.29a.32.32,0,0,0,.25.1h3.49a.36.36,0,0,0,.25-.61.37.37,0,0,0-.25-.1H43.71a.37.37,0,0,0-.37.36.36.36,0,0,0,.11.25m.44,1.67h3.48a.3.3,0,0,0,.24-.1.32.32,0,0,0,.06-.27.44.44,0,0,0-.4-.35H43.78a.35.35,0,0,0-.24.1.32.32,0,0,0-.06.27.42.42,0,0,0,.41.34m4.2,1.18a.53.53,0,0,0-.45-.34H44.15a.27.27,0,0,0-.23.11.29.29,0,0,0,0,.27.51.51,0,0,0,.46.33h3.48a.25.25,0,0,0,.22-.1.31.31,0,0,0,0-.27M32.24,302.93a.69.69,0,0,1,.69-.7h2.4c1.83,0,3,1,3,2.62v0c0,1.76-1.41,2.68-3.13,2.68H33.61v1.89a.69.69,0,0,1-1.37,0Zm3,3.38c1,0,1.69-.59,1.69-1.4v0c0-.92-.66-1.4-1.69-1.4h-1.6v2.82Z" fill="#fff"/>
  </g>
  <g>
    <g clip-path="url(#2c2d7ddf-e49c-413a-a169-d7908a1c8f71)">
      <rect x="21.13" y="201.5" width="36.85" height="36.85" rx="4.61" ry="4.61" fill="#007ec6"/>
    </g>
    <g clip-path="url(#2c2d7ddf-e49c-413a-a169-d7908a1c8f71)">
      <path d="M41.46,224.72a5.14,5.14,0,1,0-6.7-2.83,5.13,5.13,0,0,0,6.7,2.83m-3.39-8.38a3.9,3.9,0,1,1-2.16,5.08,3.9,3.9,0,0,1,2.16-5.08" fill="#fff"/>
      <path d="M38.61,221.53a.41.41,0,0,0,.55.23l2-.81a.42.42,0,0,0,.24-.55l-.81-2a.43.43,0,0,0-.56-.23L38,219a.43.43,0,0,0-.23.56Zm.48,0a.17.17,0,0,1-.23-.09.19.19,0,0,1,.1-.23.17.17,0,0,1,.22.1.16.16,0,0,1-.09.22m1.82-1.11a.19.19,0,0,1,.23.1.17.17,0,0,1-.1.22.17.17,0,0,1-.22-.09.18.18,0,0,1,.09-.23m-.8-2a.17.17,0,0,1,.22.09.18.18,0,0,1-.09.23.19.19,0,0,1-.23-.1.17.17,0,0,1,.1-.22m-1.63,1.34,1.78-.72a.19.19,0,0,1,.25.1l.32.79a.19.19,0,0,1-.11.25l-1.78.72a.19.19,0,0,1-.25-.1l-.32-.79a.19.19,0,0,1,.11-.25m-.28-.56a.17.17,0,0,1,.19.15.18.18,0,0,1-.15.19.17.17,0,0,1-.19-.15.16.16,0,0,1,.15-.19" fill="#fff"/>
      <path d="M54,221.21l-4.73-12a2,2,0,0,0-1.9-1.29,1.91,1.91,0,0,0-.74.14l-20.51,8.07a2,2,0,0,0-1.15,2.65l4.73,12a2,2,0,0,0,1.9,1.3,2.11,2.11,0,0,0,.74-.14l20.51-8.07A2,2,0,0,0,54,221.21m-3.72,2.47-1.6.63a10.09,10.09,0,0,0-5.43-13.75l1.59-.63a11.32,11.32,0,0,1,5.44,13.75M44,226.14a7.62,7.62,0,0,0-5.47-13.73l2.83-1.12A8.85,8.85,0,0,1,46.78,225Zm-6.3,2.48a8.86,8.86,0,0,1-5.39-13.77l2.85-1.12a7.62,7.62,0,0,0,5.34,13.79ZM31.56,231a1,1,0,0,1-.88-.59l-1-2.62a12.53,12.53,0,0,0,3.1,2.81l-.86.34a1,1,0,0,1-.34.06M29,224.21a11.25,11.25,0,0,1-.19-8l1.6-.63a10.08,10.08,0,0,0,5.4,13.76l-1.59.63A11.27,11.27,0,0,1,29,224.21m8.12-10.16a6.37,6.37,0,1,1-3.53,8.3,6.36,6.36,0,0,1,3.53-8.3m9.85-5a1,1,0,0,1,.34-.07,1,1,0,0,1,.88.6l.84,2.13a12.8,12.8,0,0,0-2.77-2.38Zm-19.63,7.72A12.52,12.52,0,0,0,27,221l-1-2.63a.93.93,0,0,1,.52-1.21Zm25,6-.71.27a12.43,12.43,0,0,0,.4-3.61l.83,2.12a.9.9,0,0,1,0,.72.93.93,0,0,1-.51.5" fill="#fff"/>
    </g>
  </g>
  <g>
    <g clip-path="url(#4767dd74-c5ee-42cf-8c73-4ff635e100eb)">
      <rect x="21.13" y="154.81" width="36.85" height="36.85" rx="4.61" ry="4.61" fill="#007ec6"/>
    </g>
    <g clip-path="url(#4767dd74-c5ee-42cf-8c73-4ff635e100eb)">
      <path d="M40,159.44H30.59a3,3,0,0,0-3,3v21.71a3,3,0,0,0,3,3H40a3,3,0,0,0,3-3V162.4a3,3,0,0,0-3-3m-3.38,25.67H34a.47.47,0,1,1,0-.94h2.66a.47.47,0,0,1,0,.94m4.6-3H29.37v-20.4H41.23Zm4.34-10.92a.76.76,0,0,1-.54-.23.75.75,0,0,1,0-1.07,3.35,3.35,0,0,0,0-4.74.76.76,0,1,1,1.07-1.07,4.86,4.86,0,0,1,0,6.88.74.74,0,0,1-.53.23m2,2a.75.75,0,0,1-.54-.22.78.78,0,0,1,0-1.08,6.23,6.23,0,0,0,0-8.82A.76.76,0,0,1,48.15,162a7.77,7.77,0,0,1,0,11,.76.76,0,0,1-.54.22m2,2a.76.76,0,0,1-.54-.22.78.78,0,0,1,0-1.08,9.1,9.1,0,0,0,0-12.9A.76.76,0,1,1,50.19,160a10.65,10.65,0,0,1,0,15.06.75.75,0,0,1-.54.22" fill="#fff"/>
    </g>
  </g>
  <rect x="262.9" y="154.79" width="133.39" height="133.39" fill="#fff"/>
</svg>
