<svg id="e3710c11-f749-4a7b-95d2-4d48b1362a64" data-name="79a58298-f43a-4cda-b311-59cac559353a" xmlns="http://www.w3.org/2000/svg" viewBox="0 0 552.75591 280.75653">
  <title>ad_feedback</title>
  <g>
    <path d="M519.24289,137.84285V270.9039a9.928,9.928,0,0,1-9.85263,9.85263H9.85261A9.86184,9.86184,0,0,1,0,270.9039V28.6515a9.92792,9.92792,0,0,1,9.85261-9.85261H427.62376" transform="translate(0 0)" fill="#65b32e"/>
    <path d="M519.24289,139.1633v-.91415A75.49889,75.49889,0,1,0,427.52218,18.69732h-.10158" transform="translate(0 0)" fill="#65b32e"/>
  </g>
  <path d="M477.29311,31.6987A43.7781,43.7781,0,1,0,521.0712,75.47683v0a43.78263,43.78263,0,0,0-43.77808-43.7781M493.4433,55.56844c2.64088,0,4.67235,2.43776,4.67235,7.00856s-2.133,7.00856-4.67235,7.00856c-2.64088,0-4.67235-2.43776-4.67235-7.00856s2.133-7.00856,4.67235-7.00856m-32.30031,0c2.64091,0,4.67238,2.43776,4.67238,7.00856s-2.133,7.00856-4.67238,7.00856c-2.64091,0-4.67238-2.43776-4.67238-7.00856s2.03147-7.00856,4.67238-7.00856m44.08285,30.8783a30.98691,30.98691,0,0,1-55.86534,0,2.6609,2.6609,0,0,1,1.50832-3.44757l.01528-.00593a2.62486,2.62486,0,0,1,3.42125,1.44048q.01683.04128.03224.08312c.20316.60944,5.89124,14.22027,22.95558,14.22027s22.75245-13.61083,22.95555-14.22027a2.74892,2.74892,0,0,1,3.45352-1.5236,2.69752,2.69752,0,0,1,1.5236,3.4535" transform="translate(0 0)" fill="#fff"/>
  <rect x="36.16011" y="43.5828" width="369.01594" height="54.03702" fill="none"/>
  <g style="isolation: isolate">
    <text transform="translate(36.10889 86.67425)" font-size="49.77094" fill="#fff" font-family="GothamXNarrow-Medium, Gotham XNarrow" style="isolation: isolate">HSL PI</text>
    <text transform="translate(151.17773 86.67425)" font-size="49.77094" fill="#fff" font-family="GothamXNarrow-Medium, Gotham XNarrow" letter-spacing="-0.014em" style="isolation: isolate">K</text>
    <text transform="translate(176.0127 86.67425)" font-size="49.77094" fill="#fff" font-family="GothamXNarrow-Medium, Gotham XNarrow" style="isolation: isolate">A</text>
    <text transform="translate(203.03857 86.67425)" font-size="49.77094" fill="#fff" font-family="GothamXNarrow-Medium, Gotham XNarrow" letter-spacing="-0.05101em" style="isolation: isolate">P</text>
    <text transform="translate(224.54053 86.67425)" font-size="49.77094" fill="#fff" font-family="GothamXNarrow-Medium, Gotham XNarrow" style="isolation: isolate">A</text>
    <text transform="translate(251.56543 86.67425)" font-size="49.77094" fill="#fff" font-family="GothamXNarrow-Medium, Gotham XNarrow" letter-spacing="-0.002em" style="isolation: isolate">L</text>
    <text transform="translate(271.97168 86.67425)" font-size="49.77094" fill="#fff" font-family="GothamXNarrow-Medium, Gotham XNarrow" letter-spacing="-0.015em" style="isolation: isolate">A</text>
    <text transform="translate(298.25049 86.67425)" font-size="49.77094" fill="#fff" font-family="GothamXNarrow-Medium, Gotham XNarrow" style="isolation: isolate">UTE</text>
  </g>
  <rect x="36.16011" y="92.43958" width="406.49652" height="26.3075" fill="none"/>
  <g style="isolation: isolate">
    <text transform="translate(36.10938 126.32855)" font-size="42.6608" fill="#fff" font-family="GothamXNarrow-Book, Gotham XNarrow" style="isolation: isolate">H</text>
    <text transform="translate(59.10303 126.32855)" font-size="42.6608" fill="#fff" font-family="GothamXNarrow-Book, Gotham XNarrow" letter-spacing="-0.008em" style="isolation: isolate">R</text>
    <text transform="translate(80.30566 126.32855)" font-size="42.6608" fill="#fff" font-family="GothamXNarrow-Book, Gotham XNarrow" style="isolation: isolate">T SNABB RESPONS</text>
  </g>
  <g style="isolation: isolate">
    <text transform="translate(36.10986 164.68109)" font-size="22.34613" fill="#fff" font-family="GothamXNarrow-Medium, Gotham XNarrow" style="isolation: isolate">Anna pi</text>
    <text transform="translate(97.94043 164.68109)" font-size="22.34613" fill="#fff" font-family="GothamXNarrow-Medium, Gotham XNarrow" letter-spacing="-0.00701em" style="isolation: isolate">k</text>
    <text transform="translate(107.30322 164.68109)" font-size="22.34613" fill="#fff" font-family="GothamXNarrow-Medium, Gotham XNarrow" style="isolation: isolate">apalau</text>
    <text transform="translate(161.69385 164.68109)" font-size="22.34613" fill="#fff" font-family="GothamXNarrow-Medium, Gotham XNarrow" letter-spacing="-0.012em" style="isolation: isolate">t</text>
    <text transform="translate(168.03906 164.68109)" font-size="22.34613" fill="#fff" font-family="GothamXNarrow-Medium, Gotham XNarrow" letter-spacing="-0.005em" style="isolation: isolate">e<tspan x="9.58643" y="0" letter-spacing="-0.00199em">t</tspan></text>
    <text transform="translate(184.21826 164.68109)" font-size="22.34613" fill="#fff" font-family="GothamXNarrow-Medium, Gotham XNarrow" style="isolation: isolate">ta tällä </text>
    <text transform="translate(244.19434 164.68109)" font-size="22.34613" fill="#fff" font-family="GothamXNarrow-Medium, Gotham XNarrow" letter-spacing="-0.01798em" style="isolation: isolate">p</text>
    <text transform="translate(254.45068 164.68109)" font-size="22.34613" fill="#fff" font-family="GothamXNarrow-Medium, Gotham XNarrow" letter-spacing="-0.00699em" style="isolation: isolate">y</text>
    <text transform="translate(264.01514 164.68109)" font-size="22.34613" fill="#fff" font-family="GothamXNarrow-Medium, Gotham XNarrow" style="isolation: isolate">säkillä Q</text>
    <text transform="translate(332.21387 164.68109)" font-size="22.34613" fill="#fff" font-family="GothamXNarrow-Medium, Gotham XNarrow" letter-spacing="-0.00297em" style="isolation: isolate">R</text>
    <text transform="translate(343.61035 164.68109)" font-size="22.34613" fill="#fff" font-family="GothamXNarrow-Medium, Gotham XNarrow" style="isolation: isolate">-</text>
    <text transform="translate(351.40918 164.68109)" font-size="22.34613" fill="#fff" font-family="GothamXNarrow-Medium, Gotham XNarrow" letter-spacing="-0.01403em" style="isolation: isolate">k</text>
    <text transform="translate(360.59375 164.68109)" font-size="22.34613" fill="#fff" font-family="GothamXNarrow-Medium, Gotham XNarrow" style="isolation: isolate">oodilla </text>
    <text transform="translate(36.10986 191.49652)" font-size="22.34613" fill="#fff" font-family="GothamXNarrow-Medium, Gotham XNarrow" style="isolation: isolate">tai </text>
    <text transform="translate(61.31543 191.49652)" font-size="22.34613" fill="#fff" font-family="GothamXNarrow-Medium, Gotham XNarrow" letter-spacing="-0.02301em" style="isolation: isolate">v</text>
    <text transform="translate(70.52197 191.49652)" font-size="22.34613" fill="#fff" font-family="GothamXNarrow-Medium, Gotham XNarrow" style="isolation: isolate">erk</text>
    <text transform="translate(96.46533 191.49652)" font-size="22.34613" fill="#fff" font-family="GothamXNarrow-Medium, Gotham XNarrow" letter-spacing="-0.01401em" style="isolation: isolate">k</text>
    <text transform="translate(105.6499 191.49652)" font-size="22.34613" fill="#fff" font-family="GothamXNarrow-Medium, Gotham XNarrow" style="isolation: isolate">osivulla.</text>
    <text transform="translate(36.10986 222.98382)" font-size="22.34613" fill="#fff" font-family="GothamXNarrow-Book, Gotham XNarrow" style="isolation: isolate">Ge </text>
    <text transform="translate(61.87451 222.98382)" font-size="22.34613" fill="#fff" font-family="GothamXNarrow-Book, Gotham XNarrow" letter-spacing="-0.01798em" style="isolation: isolate">r</text>
    <text transform="translate(67.90771 222.98382)" font-size="22.34613" fill="#fff" font-family="GothamXNarrow-Book, Gotham XNarrow" style="isolation: isolate">espons på denna hållpl</text>
    <text transform="translate(248.46143 222.98382)" font-size="22.34613" fill="#fff" font-family="GothamXNarrow-Book, Gotham XNarrow" letter-spacing="-0.005em" style="isolation: isolate">a</text>
    <text transform="translate(257.66748 222.98382)" font-size="22.34613" fill="#fff" font-family="GothamXNarrow-Book, Gotham XNarrow" style="isolation: isolate">ts med Q</text>
    <text transform="translate(328.66016 222.98382)" font-size="22.34613" fill="#fff" font-family="GothamXNarrow-Book, Gotham XNarrow" letter-spacing="-0.00197em" style="isolation: isolate">R</text>
    <text transform="translate(339.90039 222.98382)" font-size="22.34613" fill="#fff" font-family="GothamXNarrow-Book, Gotham XNarrow" style="isolation: isolate">-</text>
    <text transform="translate(347.25293 222.98382)" font-size="22.34613" fill="#fff" font-family="GothamXNarrow-Book, Gotham XNarrow" letter-spacing="-0.01801em" style="isolation: isolate">k</text>
    <text transform="translate(355.92285 222.98382)" font-size="22.34613" fill="#fff" font-family="GothamXNarrow-Book, Gotham XNarrow" style="isolation: isolate">oden </text>
    <text transform="translate(36.10986 249.79925)" font-size="22.34613" fill="#fff" font-family="GothamXNarrow-Book, Gotham XNarrow" style="isolation: isolate">eller på </text>
    <text transform="translate(98.7666 249.79925)" font-size="22.34613" fill="#fff" font-family="GothamXNarrow-Book, Gotham XNarrow" letter-spacing="-0.01901em" style="isolation: isolate">w</text>
    <text transform="translate(112.44238 249.79925)" font-size="22.34613" fill="#fff" font-family="GothamXNarrow-Book, Gotham XNarrow" style="isolation: isolate">ebbpl</text>
    <text transform="translate(157.53564 249.79925)" font-size="22.34613" fill="#fff" font-family="GothamXNarrow-Book, Gotham XNarrow" letter-spacing="-0.004em" style="isolation: isolate">a</text>
    <text transform="translate(166.74268 249.79925)" font-size="22.34613" fill="#fff" font-family="GothamXNarrow-Book, Gotham XNarrow" style="isolation: isolate"><tspan xml:space="preserve">tsen.   </tspan></text>
    <text transform="translate(217.84766 249.79925)" font-size="22.34613" fill="#fff" font-family="GothamXNarrow-Medium, Gotham XNarrow" style="isolation: isolate"><tspan xml:space="preserve">  </tspan></text>
  </g>
</svg>
