<svg id="d1e21def-446e-4b63-8f3c-9861105d9fb1" data-name="79a58298-f43a-4cda-b311-59cac559353a" xmlns="http://www.w3.org/2000/svg" viewBox="0 0 552.76 283.46">
  <title>Pikapalaute_195x100mm_outlines</title>
  <g>
    <path d="M519.24,137.84V270.9a9.93,9.93,0,0,1-9.85,9.86H9.85A9.87,9.87,0,0,1,0,270.9V28.65A9.93,9.93,0,0,1,9.85,18.8H427.62" fill="#65b32e"/>
    <path d="M519.24,139.16v-.91A75.5,75.5,0,1,0,427.52,18.7h-.1" fill="#65b32e"/>
  </g>
  <path d="M477.29,31.7a43.78,43.78,0,1,0,43.78,43.78h0A43.78,43.78,0,0,0,477.29,31.7m16.15,23.87c2.64,0,4.68,2.44,4.68,7s-2.14,7-4.68,7-4.67-2.44-4.67-7,2.13-7,4.67-7m-32.3,0c2.64,0,4.68,2.44,4.68,7s-2.14,7-4.68,7-4.67-2.44-4.67-7,2-7,4.67-7m44.09,30.88a31,31,0,0,1-55.87,0A2.66,2.66,0,0,1,450.87,83h0a2.64,2.64,0,0,1,3.43,1.44l0,.09c.2.61,5.89,14.22,23,14.22s22.76-13.61,23-14.22A2.75,2.75,0,0,1,503.7,83a2.71,2.71,0,0,1,1.53,3.46" fill="#fff"/>
  <rect x="36.16" y="43.58" width="369.02" height="54.04" fill="none"/>
  <g style="isolation: isolate">
    <g style="isolation: isolate">
      <path d="M39.1,51.83h5.37V66.62H54.82V51.83H60.2V86.67H54.82v-15H44.47v15H39.1Z" fill="#fff"/>
      <path d="M63.58,82.59l3.24-4.18c1.74,1.69,4.08,3.69,7,3.69a4.44,4.44,0,0,0,4.72-4.48v-.05c0-1.9-.89-3.39-5.32-6C67.51,68.21,65,65.47,65,60.94v-.1c0-5.47,4.08-9.41,10-9.41a12.61,12.61,0,0,1,9,3.84L80.75,59.4c-1.54-1.55-3.58-3-6-3-2.59,0-4.38,1.69-4.38,3.93v0c0,2.09.95,3.49,6,6.57C81.9,70.25,84,73,84,77.32v.1c0,5.62-4.38,9.65-10.1,9.65A14.19,14.19,0,0,1,63.58,82.59Z" fill="#fff"/>
      <path d="M88.37,51.83h5.37V81.7h11.15v5H88.37Z" fill="#fff"/>
      <path d="M118.33,51.83h8.21c7.12,0,11.75,4.08,11.75,11.55v.1c0,7.62-4.93,11.6-11.7,11.8h-2.88V86.67h-5.38Zm8,18.57c4.23,0,6.52-2.69,6.52-6.82v0c0-4.33-2.24-6.77-6.47-6.77h-2.68V70.4Z" fill="#fff"/>
      <path d="M142.67,51.83H148V86.67h-5.32Z" fill="#fff"/>
    </g>
    <g style="isolation: isolate">
      <path d="M154.16,51.83h5.38V68.51l10.05-16.68h6.23l-9.46,14.93,9.95,19.91h-6.17l-7.56-14.83-3,4.83v10h-5.38Z" fill="#fff"/>
    </g>
    <g style="isolation: isolate">
      <path d="M186.81,51.68h5.43l10,35h-5.52l-2.19-8h-10.2l-2.15,8h-5.32Zm6.42,22.2-3.78-14-3.83,14Z" fill="#fff"/>
    </g>
    <g style="isolation: isolate">
      <path d="M206,51.83h8.22c7.12,0,11.74,4.08,11.74,11.55v.1c0,7.62-4.92,11.6-11.69,11.8H211.4V86.67H206Zm8,18.57c4.23,0,6.52-2.69,6.52-6.82v0c0-4.33-2.24-6.77-6.47-6.77H211.4V70.4Z" fill="#fff"/>
    </g>
    <g style="isolation: isolate">
      <path d="M235.34,51.68h5.43l10,35h-5.52l-2.19-8H232.85l-2.14,8h-5.32Zm6.42,22.2L238,59.9l-3.83,14Z" fill="#fff"/>
    </g>
    <g style="isolation: isolate">
      <path d="M254.55,51.83h5.38V81.7h11.15v5H254.55Z" fill="#fff"/>
    </g>
    <g style="isolation: isolate">
      <path d="M282.77,51.68h5.43l10,35h-5.52l-2.19-8H280.28l-2.14,8h-5.32Zm6.42,22.2-3.78-14-3.83,14Z" fill="#fff"/>
    </g>
    <g style="isolation: isolate">
      <path d="M300.94,75V51.83h5.37V75.28c0,4.62,2.09,6.91,5.38,6.91s5.37-2.24,5.37-6.86V51.83h5.33V75c0,8.11-4.33,12.19-10.75,12.19S300.94,83.09,300.94,75Z" fill="#fff"/>
      <path d="M333.24,56.86h-7v-5h19.36v5h-7V86.67h-5.38Z" fill="#fff"/>
      <path d="M349.81,51.83h17.57v5H355.14v9.85H366v4.93h-10.9V81.7h12.44v5H349.81Z" fill="#fff"/>
    </g>
  </g>
  <rect x="36.16" y="92.44" width="406.5" height="26.31" fill="none"/>
  <g style="isolation: isolate">
    <g style="isolation: isolate">
      <path d="M39,96.46h3V109.9H53.22V96.46h3v29.87h-3V112.68H42v13.65H39Z" fill="#fff"/>
    </g>
    <g style="isolation: isolate">
      <path d="M62,96.46h7.21A9.88,9.88,0,0,1,76.34,99a8.89,8.89,0,0,1,2.35,6.4v.13A8.31,8.31,0,0,1,72.8,114l6.65,12.33H76l-6.23-11.65a11,11,0,0,1-1.15,0H65v11.61H62ZM68.32,112c5.29,0,7.42-2.64,7.42-6.4v0c0-4.18-2.6-6.31-6.74-6.31H65V112Z" fill="#fff"/>
    </g>
    <g style="isolation: isolate">
      <path d="M87.9,99.24H81.42V96.46h16v2.78H90.89v27.09h-3Z" fill="#fff"/>
      <path d="M107.61,123.13l1.88-2.39c1.83,1.79,3.92,3.2,6.44,3.2a4.9,4.9,0,0,0,5.16-5v-.08c0-2.1-.9-3.76-5.29-6.32-5.46-3.16-7-5.46-7-8.87v-.09c0-4.26,3.29-7.55,8-7.55a10.32,10.32,0,0,1,7.26,3l-1.84,2.34a8.22,8.22,0,0,0-5.54-2.56,4.56,4.56,0,0,0-4.87,4.53v0c0,2.34,1.07,3.8,5.68,6.53,5.41,3.2,6.61,5.58,6.61,8.87v.09a7.81,7.81,0,0,1-8.15,7.8A11.56,11.56,0,0,1,107.61,123.13Z" fill="#fff"/>
      <path d="M128.6,96.46h2.9l12,23v-23h2.9v29.87h-2.6L131.5,102.74v23.59h-2.9Z" fill="#fff"/>
      <path d="M159.31,96.29h3.12l8.87,30h-3.11l-2.26-7.81H155.69l-2.26,7.81h-3Zm5.85,19.54-4.31-15.1-4.4,15.1Z" fill="#fff"/>
      <path d="M175.35,96.46h7.09a9.63,9.63,0,0,1,6.95,2.44,7,7,0,0,1,2,5v.13a7,7,0,0,1-5,7c3.37,1,5.85,3.11,5.85,7.12v.17c0,5-3.93,8-9.9,8h-7Zm13,7.85c0-3.15-2.27-5.12-5.89-5.12h-4.14V110h3.75c3.93,0,6.28-2,6.28-5.55Zm-6,8.28h-4v11h4.14c4.09,0,6.74-2,6.74-5.42v-.09C189.22,114.6,186.74,112.59,182.39,112.59Z" fill="#fff"/>
      <path d="M196.68,96.46h7.09a9.63,9.63,0,0,1,6.95,2.44,7,7,0,0,1,2,5v.13a7,7,0,0,1-5,7c3.37,1,5.85,3.11,5.85,7.12v.17c0,5-3.93,8-9.9,8h-7Zm13,7.85c0-3.15-2.27-5.12-5.89-5.12h-4.14V110h3.75c3.93,0,6.28-2,6.28-5.55Zm-6,8.28h-4.05v11h4.14c4.09,0,6.74-2,6.74-5.42v-.09C210.55,114.6,208.07,112.59,203.72,112.59Z" fill="#fff"/>
      <path d="M226.38,96.46h7.21A9.87,9.87,0,0,1,240.71,99a8.89,8.89,0,0,1,2.35,6.4v.13c0,4.52-2.43,7.3-5.89,8.45l6.65,12.33h-3.41l-6.23-11.65a11,11,0,0,1-1.15,0h-3.67v11.61h-3ZM232.69,112c5.29,0,7.42-2.64,7.42-6.4v0c0-4.18-2.6-6.31-6.74-6.31h-4V112Z" fill="#fff"/>
      <path d="M248,96.46h14.42v2.78H251v10.62h10.28v2.77H251v10.93h11.6v2.77H248Z" fill="#fff"/>
      <path d="M265,123.13l1.88-2.39c1.83,1.79,3.93,3.2,6.44,3.2a4.9,4.9,0,0,0,5.16-5v-.08c0-2.1-.89-3.76-5.29-6.32-5.46-3.16-7-5.46-7-8.87v-.09c0-4.26,3.28-7.55,8-7.55a10.31,10.31,0,0,1,7.25,3l-1.83,2.34a8.22,8.22,0,0,0-5.55-2.56,4.56,4.56,0,0,0-4.86,4.53v0c0,2.34,1.06,3.8,5.67,6.53,5.42,3.2,6.61,5.58,6.61,8.87v.09a7.81,7.81,0,0,1-8.15,7.8A11.56,11.56,0,0,1,265,123.13Z" fill="#fff"/>
      <path d="M286,96.46h6.53c5.89,0,9.68,3.55,9.68,9.52v.08c0,6.15-4.05,9.65-9.85,9.73H289v10.54h-3Zm6.36,16.6c4.31,0,6.82-2.69,6.82-7v0c0-4.43-2.56-6.82-6.78-6.82H289v13.82Z" fill="#fff"/>
      <path d="M305.3,111.74v-.64c0-9.35,4.18-15.06,10.11-15.06s10.15,5.71,10.15,15v.63c0,9.35-4.22,15.07-10.15,15.07S305.3,121,305.3,111.74Zm17.19-.09v-.51c0-7.72-3.07-12.29-7.08-12.29s-7,4.57-7,12.29v.51c0,7.72,3,12.29,7,12.29S322.49,119.37,322.49,111.65Z" fill="#fff"/>
      <path d="M330.38,96.46h2.9l12,23v-23h2.9v29.87h-2.6l-12.29-23.59v23.59h-2.9Z" fill="#fff"/>
      <path d="M351.84,123.13l1.88-2.39c1.83,1.79,3.92,3.2,6.44,3.2a4.9,4.9,0,0,0,5.16-5v-.08c0-2.1-.9-3.76-5.29-6.32-5.46-3.16-7-5.46-7-8.87v-.09c0-4.26,3.29-7.55,8-7.55a10.32,10.32,0,0,1,7.26,3l-1.84,2.34a8.22,8.22,0,0,0-5.54-2.56,4.56,4.56,0,0,0-4.87,4.53v0c0,2.34,1.07,3.8,5.68,6.53,5.41,3.2,6.61,5.58,6.61,8.87v.09a7.81,7.81,0,0,1-8.15,7.8A11.56,11.56,0,0,1,351.84,123.13Z" fill="#fff"/>
    </g>
  </g>
  <g style="isolation: isolate">
    <g style="isolation: isolate">
      <path d="M41,149h2.43l4.49,15.7H45.4l-1-3.6H39.84l-1,3.6H36.49Zm2.88,10-1.7-6.28-1.72,6.28Z" fill="#fff"/>
      <path d="M49.38,152.8h2.33v1.63a3,3,0,0,1,2.72-1.83c1.88,0,3,1.38,3,3.68v8.4H55.1v-7.77c0-1.48-.6-2.24-1.63-2.24s-1.76.85-1.76,2.26v7.75H49.38Z" fill="#fff"/>
      <path d="M59.59,152.8h2.33v1.63a3,3,0,0,1,2.72-1.83c1.88,0,3,1.38,3,3.68v8.4H65.31v-7.77c0-1.48-.6-2.24-1.63-2.24s-1.76.85-1.76,2.26v7.75H59.59Z" fill="#fff"/>
      <path d="M69.25,161.31v-.23c0-2.52,1.38-3.79,3.48-3.79a5.59,5.59,0,0,1,2.19.47V157a2,2,0,0,0-2.14-2.24,4.29,4.29,0,0,0-2.24.72l-.73-1.92a6.8,6.8,0,0,1,3.3-.92,4.14,4.14,0,0,1,3,1.07,4.42,4.42,0,0,1,1.09,3.2v7.75H74.9v-1.43a2.91,2.91,0,0,1-2.66,1.63C70.57,164.88,69.25,163.52,69.25,161.31Zm5.67-.31v-1.64a4.18,4.18,0,0,0-1.65-.35c-1.12,0-1.77.76-1.77,2v.09c0,1.23.61,1.9,1.5,1.94A2,2,0,0,0,74.92,161Z" fill="#fff"/>
      <path d="M83.59,152.8h2.33v1.83a3.23,3.23,0,0,1,2.83-2c1.9,0,3.6,1.74,3.6,5.85V159c0,4.09-1.67,5.87-3.6,5.87a3.25,3.25,0,0,1-2.83-2v4.87H83.59ZM90,158.92v-.36c0-2.46-.82-3.84-2-3.84s-2.13,1.43-2.13,3.82v.4c0,2.39.94,3.82,2.13,3.82S90,161.37,90,158.92Z" fill="#fff"/>
      <path d="M94.32,148.78h2.41v2.39H94.32Zm0,4h2.33v11.88H94.36Z" fill="#fff"/>
    </g>
    <g style="isolation: isolate">
      <path d="M99.08,148.73h2.32V158l3.09-5.18h2.63l-3,4.82,3.11,7.06h-2.61l-2.15-5.05-1,1.61v3.44H99.08Z" fill="#fff"/>
    </g>
    <g style="isolation: isolate">
      <path d="M107.88,161.31v-.23c0-2.52,1.39-3.79,3.49-3.79a5.59,5.59,0,0,1,2.19.47V157a2,2,0,0,0-2.15-2.24,4.25,4.25,0,0,0-2.23.72l-.74-1.92a6.84,6.84,0,0,1,3.31-.92,4.12,4.12,0,0,1,3,1.07,4.38,4.38,0,0,1,1.1,3.2v7.75h-2.3v-1.43a2.92,2.92,0,0,1-2.66,1.63C109.2,164.88,107.88,163.52,107.88,161.31Zm5.68-.31v-1.64a4.22,4.22,0,0,0-1.65-.35c-1.12,0-1.77.76-1.77,2v.09c0,1.23.6,1.9,1.5,1.94A2,2,0,0,0,113.56,161Z" fill="#fff"/>
      <path d="M118,152.8h2.32v1.83a3.24,3.24,0,0,1,2.84-2c1.9,0,3.59,1.74,3.59,5.85V159c0,4.09-1.67,5.87-3.59,5.87a3.25,3.25,0,0,1-2.84-2v4.87H118Zm6.41,6.12v-.36c0-2.46-.83-3.84-2-3.84s-2.12,1.43-2.12,3.82v.4c0,2.39.94,3.82,2.12,3.82S124.42,161.37,124.42,158.92Z" fill="#fff"/>
      <path d="M128.13,161.31v-.23c0-2.52,1.38-3.79,3.48-3.79a5.59,5.59,0,0,1,2.19.47V157a2,2,0,0,0-2.14-2.24,4.29,4.29,0,0,0-2.24.72l-.73-1.92a6.8,6.8,0,0,1,3.3-.92,4.14,4.14,0,0,1,3,1.07,4.42,4.42,0,0,1,1.09,3.2v7.75h-2.3v-1.43a2.91,2.91,0,0,1-2.66,1.63C129.45,164.88,128.13,163.52,128.13,161.31Zm5.67-.31v-1.64a4.18,4.18,0,0,0-1.65-.35c-1.12,0-1.76.76-1.76,2v.09c0,1.23.6,1.9,1.49,1.94A2,2,0,0,0,133.8,161Z" fill="#fff"/>
      <path d="M138.34,148.73h2.32v16h-2.32Z" fill="#fff"/>
      <path d="M142.5,161.31v-.23c0-2.52,1.38-3.79,3.48-3.79a5.59,5.59,0,0,1,2.19.47V157a2,2,0,0,0-2.14-2.24,4.29,4.29,0,0,0-2.24.72l-.73-1.92a6.8,6.8,0,0,1,3.3-.92,4.14,4.14,0,0,1,3,1.07,4.42,4.42,0,0,1,1.09,3.2v7.75h-2.3v-1.43a2.91,2.91,0,0,1-2.66,1.63C143.82,164.88,142.5,163.52,142.5,161.31Zm5.67-.31v-1.64a4.22,4.22,0,0,0-1.65-.35c-1.12,0-1.77.76-1.77,2v.09c0,1.23.61,1.9,1.5,1.94A2,2,0,0,0,148.17,161Z" fill="#fff"/>
      <path d="M152.53,161.22V152.8h2.32v7.77c0,1.5.61,2.23,1.63,2.23s1.75-.82,1.75-2.23V152.8h2.32v11.88h-2.32v-1.63a3,3,0,0,1-2.71,1.85C153.65,164.9,152.53,163.5,152.53,161.22Z" fill="#fff"/>
    </g>
    <g style="isolation: isolate">
      <path d="M163.24,162.25v-7.49h-1.05v-2h1.05v-3.15h2.34v3.15h2.08v2h-2.08v6.91c0,.78.38,1.09,1,1.09a2.28,2.28,0,0,0,1-.25v1.9a3.56,3.56,0,0,1-1.7.43C164.42,164.84,163.24,164.26,163.24,162.25Z" fill="#fff"/>
    </g>
    <g style="isolation: isolate">
      <path d="M168.75,158.94v-.31c0-3.73,1.86-6,4.25-6,2.61,0,4.09,2.36,4.09,6.07,0,.09,0,.58,0,1.05h-6c.18,2.06,1.23,3.13,2.57,3.13a3.07,3.07,0,0,0,2.17-1.1l1.05,1.75a4.94,4.94,0,0,1-3.39,1.4C170.83,164.9,168.75,162.74,168.75,158.94Zm6.1-.94c-.06-2-.71-3.39-1.85-3.39s-1.86,1.2-2,3.39Z" fill="#fff"/>
      <path d="M179.17,162.25v-7.49h-1v-2h1v-3.15h2.34v3.15h2.08v2h-2.08v6.91c0,.78.38,1.09,1.05,1.09a2.28,2.28,0,0,0,1-.25v1.9a3.56,3.56,0,0,1-1.7.43C180.35,164.84,179.17,164.26,179.17,162.25Z" fill="#fff"/>
    </g>
    <g style="isolation: isolate">
      <path d="M185.76,162.25v-7.49h-1v-2h1v-3.15h2.35v3.15h2.07v2h-2.07v6.91c0,.78.37,1.09,1,1.09a2.24,2.24,0,0,0,1-.25v1.9a3.56,3.56,0,0,1-1.7.43C186.94,164.84,185.76,164.26,185.76,162.25Z" fill="#fff"/>
      <path d="M191.41,161.31v-.23c0-2.52,1.39-3.79,3.49-3.79a5.59,5.59,0,0,1,2.19.47V157a2,2,0,0,0-2.15-2.24,4.21,4.21,0,0,0-2.23.72l-.74-1.92a6.81,6.81,0,0,1,3.31-.92,4.12,4.12,0,0,1,3,1.07,4.38,4.38,0,0,1,1.1,3.2v7.75h-2.31v-1.43a2.91,2.91,0,0,1-2.65,1.63C192.73,164.88,191.41,163.52,191.41,161.31Zm5.68-.31v-1.64a4.23,4.23,0,0,0-1.66-.35c-1.11,0-1.76.76-1.76,2v.09c0,1.23.6,1.9,1.5,1.94A2,2,0,0,0,197.09,161Z" fill="#fff"/>
      <path d="M206.16,162.25v-7.49h-1v-2h1v-3.15h2.35v3.15h2.07v2h-2.07v6.91c0,.78.38,1.09,1.05,1.09a2.24,2.24,0,0,0,1-.25v1.9a3.53,3.53,0,0,1-1.7.43C207.34,164.84,206.16,164.26,206.16,162.25Z" fill="#fff"/>
      <path d="M211.81,161.31v-.23c0-2.52,1.39-3.79,3.49-3.79a5.59,5.59,0,0,1,2.19.47V157a2,2,0,0,0-2.15-2.24,4.25,4.25,0,0,0-2.23.72l-.74-1.92a6.84,6.84,0,0,1,3.31-.92,4.12,4.12,0,0,1,3,1.07,4.38,4.38,0,0,1,1.1,3.2v7.75h-2.3v-1.43a2.92,2.92,0,0,1-2.66,1.63C213.13,164.88,211.81,163.52,211.81,161.31Zm1.39-12h2.23v2.28H213.2ZM217.49,161v-1.64a4.22,4.22,0,0,0-1.65-.35c-1.12,0-1.77.76-1.77,2v.09c0,1.23.6,1.9,1.5,1.94A2,2,0,0,0,217.49,161Zm-.89-11.69h2.23v2.28H216.6Z" fill="#fff"/>
      <path d="M222,148.73h2.32v16H222Z" fill="#fff"/>
      <path d="M226.83,148.73h2.32v16h-2.32Z" fill="#fff"/>
      <path d="M231,161.31v-.23c0-2.52,1.38-3.79,3.48-3.79a5.59,5.59,0,0,1,2.19.47V157a2,2,0,0,0-2.14-2.24,4.29,4.29,0,0,0-2.24.72l-.73-1.92a6.8,6.8,0,0,1,3.3-.92,4.14,4.14,0,0,1,3,1.07,4.42,4.42,0,0,1,1.09,3.2v7.75h-2.3v-1.43a2.91,2.91,0,0,1-2.66,1.63C232.31,164.88,231,163.52,231,161.31Zm1.38-12h2.24v2.28h-2.24ZM236.66,161v-1.64A4.22,4.22,0,0,0,235,159c-1.12,0-1.77.76-1.77,2v.09c0,1.23.61,1.9,1.5,1.94A2,2,0,0,0,236.66,161Zm-.89-11.69H238v2.28h-2.23Z" fill="#fff"/>
    </g>
    <g style="isolation: isolate">
      <path d="M245.33,152.8h2.33v1.83a3.23,3.23,0,0,1,2.83-2c1.9,0,3.6,1.74,3.6,5.85V159c0,4.09-1.67,5.87-3.6,5.87a3.25,3.25,0,0,1-2.83-2v4.87h-2.33Zm6.42,6.12v-.36c0-2.46-.83-3.84-2-3.84s-2.13,1.43-2.13,3.82v.4c0,2.39.94,3.82,2.13,3.82S251.75,161.37,251.75,158.92Z" fill="#fff"/>
    </g>
    <g style="isolation: isolate">
      <path d="M261.4,152.8h2.37l-3.27,11.88c-.67,2.39-1.54,3.22-3.08,3.22a4.09,4.09,0,0,1-1.92-.54l.51-1.85a2.24,2.24,0,0,0,1.12.35c.54,0,.92-.26,1.16-1.16l-3.41-11.9h2.39l2.12,8.44Z" fill="#fff"/>
    </g>
    <g style="isolation: isolate">
      <path d="M264.15,163.36l1.14-1.76a4,4,0,0,0,2.59,1.27,1.28,1.28,0,0,0,1.43-1.29v0c0-.73-.56-1.2-2-2-1.81-1-2.7-1.94-2.7-3.55v0a3.28,3.28,0,0,1,3.57-3.31,5.33,5.33,0,0,1,3.29,1.21l-1.07,1.78a3.49,3.49,0,0,0-2.24-1,1.19,1.19,0,0,0-1.34,1.14v.05c0,.69.56,1.13,2,2,1.94,1.16,2.72,2.1,2.72,3.62v0a3.38,3.38,0,0,1-3.66,3.44A5.53,5.53,0,0,1,264.15,163.36Z" fill="#fff"/>
      <path d="M272.62,161.31v-.23c0-2.52,1.38-3.79,3.48-3.79a5.59,5.59,0,0,1,2.19.47V157a2,2,0,0,0-2.14-2.24,4.29,4.29,0,0,0-2.24.72l-.73-1.92a6.8,6.8,0,0,1,3.3-.92,4.14,4.14,0,0,1,3,1.07,4.42,4.42,0,0,1,1.09,3.2v7.75h-2.3v-1.43a2.91,2.91,0,0,1-2.66,1.63C273.94,164.88,272.62,163.52,272.62,161.31Zm1.38-12h2.24v2.28H274ZM278.29,161v-1.64a4.18,4.18,0,0,0-1.65-.35c-1.12,0-1.77.76-1.77,2v.09c0,1.23.61,1.9,1.5,1.94A2,2,0,0,0,278.29,161Zm-.89-11.69h2.23v2.28H277.4Z" fill="#fff"/>
      <path d="M282.74,148.73h2.32V158l3.09-5.18h2.63l-3,4.82,3.11,7.06h-2.61l-2.15-5.05-1,1.61v3.44h-2.32Z" fill="#fff"/>
      <path d="M292.3,148.78h2.42v2.39H292.3Zm.05,4h2.32v11.88h-2.32Z" fill="#fff"/>
      <path d="M297.15,148.73h2.33v16h-2.33Z" fill="#fff"/>
      <path d="M302,148.73h2.32v16H302Z" fill="#fff"/>
      <path d="M306.11,161.31v-.23c0-2.52,1.39-3.79,3.49-3.79a5.59,5.59,0,0,1,2.19.47V157a2,2,0,0,0-2.15-2.24,4.25,4.25,0,0,0-2.23.72l-.74-1.92a6.84,6.84,0,0,1,3.31-.92,4.12,4.12,0,0,1,3,1.07,4.38,4.38,0,0,1,1.1,3.2v7.75h-2.3v-1.43a2.92,2.92,0,0,1-2.66,1.63C307.43,164.88,306.11,163.52,306.11,161.31Zm1.39-12h2.23v2.28H307.5ZM311.79,161v-1.64a4.23,4.23,0,0,0-1.66-.35c-1.11,0-1.76.76-1.76,2v.09c0,1.23.6,1.9,1.5,1.94A2,2,0,0,0,311.79,161Zm-.9-11.69h2.24v2.28h-2.24Z" fill="#fff"/>
      <path d="M330.24,165.11l-1.38-1.39a4.67,4.67,0,0,1-3.11,1.18c-3.3,0-5.54-2.9-5.54-7.81v-.45c0-4.92,2.26-7.82,5.52-7.82s5.52,2.9,5.52,7.82v.42a10.28,10.28,0,0,1-1.18,5.14l1.56,1.43Zm-2.92-2.91-1.88-1.79,1.34-1.47,1.57,1.56a10.89,10.89,0,0,0,.44-3.44v-.38c0-3.73-1.32-5.65-3.06-5.65s-3.06,1.9-3.06,5.63V157c0,3.89,1.32,5.68,3.17,5.68A2.25,2.25,0,0,0,327.32,162.2Z" fill="#fff"/>
    </g>
    <g style="isolation: isolate">
      <path d="M333.55,149h4.16a5.27,5.27,0,0,1,3.84,1.37,4.83,4.83,0,0,1,1.28,3.53v.11a4.48,4.48,0,0,1-2.69,4.4l3,6.23h-2.7l-2.7-5.63a1.57,1.57,0,0,1-.29,0H336v5.61h-2.42Zm3.82,7.87c2.1,0,3-1.14,3-2.84,0-1.88-1.07-2.81-2.92-2.81H336v5.65Z" fill="#fff"/>
    </g>
    <g style="isolation: isolate">
      <path d="M344.62,156.68h5.78V159h-5.78Z" fill="#fff"/>
    </g>
    <g style="isolation: isolate">
      <path d="M352.55,148.73h2.32V158L358,152.8h2.64l-3,4.82,3.11,7.06H358l-2.14-5.05-1,1.61v3.44h-2.32Z" fill="#fff"/>
    </g>
    <g style="isolation: isolate">
      <path d="M361.33,159v-.38c0-3.64,1.9-6,4.49-6s4.49,2.32,4.49,6v.38c0,3.64-1.9,6-4.49,6S361.33,162.6,361.33,159Zm6.66-.09v-.22c0-2.39-.87-4-2.17-4s-2.17,1.57-2.17,4v.22c0,2.39.88,4,2.17,4S368,161.26,368,158.87Z" fill="#fff"/>
      <path d="M371.79,159v-.38c0-3.64,1.9-6,4.49-6s4.49,2.32,4.49,6v.38c0,3.64-1.9,6-4.49,6S371.79,162.6,371.79,159Zm6.66-.09v-.22c0-2.39-.88-4-2.17-4s-2.17,1.57-2.17,4v.22c0,2.39.87,4,2.17,4S378.45,161.26,378.45,158.87Z" fill="#fff"/>
      <path d="M382.29,159.05v-.6c0-4.09,1.68-5.85,3.6-5.85a3.3,3.3,0,0,1,2.84,2v-5.83h2.32v16h-2.32v-1.81a3.25,3.25,0,0,1-2.84,2C384,164.9,382.29,163.14,382.29,159.05Zm6.46-.11v-.4c0-2.37-.94-3.82-2.12-3.82s-2,1.38-2,3.84v.36c0,2.45.82,3.84,2,3.84S388.75,161.33,388.75,158.94Z" fill="#fff"/>
      <path d="M393.38,148.78h2.41v2.39h-2.41Zm0,4h2.32v11.88h-2.32Z" fill="#fff"/>
      <path d="M398.22,148.73h2.33v16h-2.33Z" fill="#fff"/>
      <path d="M403,148.73h2.32v16H403Z" fill="#fff"/>
      <path d="M407.19,161.31v-.23c0-2.52,1.38-3.79,3.48-3.79a5.59,5.59,0,0,1,2.19.47V157a2,2,0,0,0-2.14-2.24,4.29,4.29,0,0,0-2.24.72l-.73-1.92a6.8,6.8,0,0,1,3.3-.92,4.12,4.12,0,0,1,3,1.07,4.38,4.38,0,0,1,1.1,3.2v7.75h-2.3v-1.43a2.91,2.91,0,0,1-2.66,1.63C408.5,164.88,407.19,163.52,407.19,161.31Zm5.67-.31v-1.64a4.22,4.22,0,0,0-1.65-.35c-1.12,0-1.77.76-1.77,2v.09c0,1.23.61,1.9,1.5,1.94A2,2,0,0,0,412.86,161Z" fill="#fff"/>
    </g>
    <g style="isolation: isolate">
      <path d="M37.65,189.06v-7.48h-1v-2h1v-3.15H40v3.15h2.07v2H40v6.9c0,.78.38,1.1,1,1.1a2.24,2.24,0,0,0,1-.25v1.9a3.65,3.65,0,0,1-1.7.42C38.83,191.65,37.65,191.07,37.65,189.06Z" fill="#fff"/>
      <path d="M43.3,188.12v-.22c0-2.52,1.39-3.8,3.49-3.8a5.59,5.59,0,0,1,2.19.47v-.74a2,2,0,0,0-2.15-2.23,4.25,4.25,0,0,0-2.23.71l-.74-1.92a6.94,6.94,0,0,1,3.31-.91,4.12,4.12,0,0,1,3,1.07,4.38,4.38,0,0,1,1.1,3.19v7.76H49v-1.43a2.94,2.94,0,0,1-2.66,1.63C44.62,191.7,43.3,190.34,43.3,188.12Zm5.68-.31v-1.63a4.22,4.22,0,0,0-1.65-.36c-1.12,0-1.77.76-1.77,2v.09c0,1.23.6,1.9,1.5,2A2,2,0,0,0,49,187.81Z" fill="#fff"/>
      <path d="M53.47,175.59h2.41V178H53.47Zm.05,4h2.32V191.5H53.52Z" fill="#fff"/>
    </g>
    <g style="isolation: isolate">
      <path d="M61.74,179.61h2.39l2.08,8.56,2.1-8.56h2.34L67.3,191.56H65.09Z" fill="#fff"/>
    </g>
    <g style="isolation: isolate">
      <path d="M71.24,185.76v-.32c0-3.73,1.85-6,4.24-6,2.61,0,4.09,2.37,4.09,6.08,0,.09,0,.58,0,1h-6c.18,2.05,1.23,3.12,2.57,3.12a3.09,3.09,0,0,0,2.16-1.09l1,1.74a4.89,4.89,0,0,1-3.39,1.41C73.31,191.72,71.24,189.55,71.24,185.76Zm6.1-.94c-.07-2-.72-3.4-1.86-3.4s-1.85,1.21-2,3.4Z" fill="#fff"/>
      <path d="M81.36,179.61h2.32v1.92a2.79,2.79,0,0,1,2.84-2.05v2.61h-.07c-1.67,0-2.77,1.1-2.77,3.33v6.08H81.36Z" fill="#fff"/>
      <path d="M88.08,175.55h2.33v9.24l3.08-5.18h2.64l-3,4.83,3.1,7.06H93.58l-2.14-5.05-1,1.61v3.44H88.08Z" fill="#fff"/>
    </g>
    <g style="isolation: isolate">
      <path d="M97.6,175.55h2.33v9.24l3.08-5.18h2.64l-3,4.83,3.1,7.06H103.1L101,186.45l-1,1.61v3.44H97.6Z" fill="#fff"/>
    </g>
    <g style="isolation: isolate">
      <path d="M106.39,185.78v-.38c0-3.64,1.9-6,4.49-6s4.49,2.32,4.49,6v.38c0,3.64-1.9,6-4.49,6S106.39,189.42,106.39,185.78Zm6.65-.09v-.22c0-2.4-.87-4-2.16-4s-2.17,1.56-2.17,4v.22c0,2.39.87,4,2.17,4S113,188.08,113,185.69Z" fill="#fff"/>
      <path d="M116.24,190.18l1.14-1.77a4,4,0,0,0,2.59,1.28,1.28,1.28,0,0,0,1.43-1.3v0c0-.74-.56-1.21-2-2-1.81-1.05-2.71-1.94-2.71-3.55v-.05a3.28,3.28,0,0,1,3.58-3.3,5.37,5.37,0,0,1,3.28,1.2l-1.07,1.79a3.4,3.4,0,0,0-2.24-1,1.19,1.19,0,0,0-1.34,1.14v0c0,.69.56,1.14,2,2,1.94,1.16,2.73,2.1,2.73,3.61v0A3.4,3.4,0,0,1,120,191.7,5.53,5.53,0,0,1,116.24,190.18Z" fill="#fff"/>
      <path d="M125.31,175.59h2.42V178h-2.42Zm0,4h2.32V191.5h-2.32Z" fill="#fff"/>
      <path d="M129.36,179.61h2.39l2.08,8.56,2.1-8.56h2.34l-3.35,11.95h-2.21Z" fill="#fff"/>
      <path d="M139.73,188v-8.42h2.32v7.78c0,1.49.6,2.23,1.63,2.23s1.74-.83,1.74-2.23v-7.78h2.33V191.5h-2.33v-1.63a3,3,0,0,1-2.7,1.85C140.84,191.72,139.73,190.31,139.73,188Z" fill="#fff"/>
      <path d="M150.12,175.55h2.32V191.5h-2.32Z" fill="#fff"/>
      <path d="M154.92,175.55h2.32V191.5h-2.32Z" fill="#fff"/>
      <path d="M159.08,188.12v-.22c0-2.52,1.38-3.8,3.48-3.8a5.59,5.59,0,0,1,2.19.47v-.74a2,2,0,0,0-2.14-2.23,4.29,4.29,0,0,0-2.24.71l-.73-1.92a6.9,6.9,0,0,1,3.3-.91,4.14,4.14,0,0,1,3,1.07,4.41,4.41,0,0,1,1.09,3.19v7.76h-2.3v-1.43a2.93,2.93,0,0,1-2.66,1.63C160.4,191.7,159.08,190.34,159.08,188.12Zm5.67-.31v-1.63a4.22,4.22,0,0,0-1.65-.36c-1.12,0-1.77.76-1.77,2v.09c0,1.23.61,1.9,1.5,2A2,2,0,0,0,164.75,187.81Z" fill="#fff"/>
      <path d="M169.2,188.64h2.73v2.86H169.2Z" fill="#fff"/>
    </g>
    <g style="isolation: isolate">
      <path d="M37.14,215.32V215c0-4.82,2.5-7.84,5.92-7.84a5.23,5.23,0,0,1,3.55,1.23l-.89,1.32a3.7,3.7,0,0,0-2.64-1.08c-2.44,0-4.36,2.4-4.36,6.39v.2c0,4.18,1.86,6.46,4.43,6.46a3.91,3.91,0,0,0,2.1-.6v-5h-3V214.7h4.49v7.23a6.43,6.43,0,0,1-3.7,1.21C39.51,223.14,37.14,220.28,37.14,215.32Z" fill="#fff"/>
      <path d="M48.87,217.31v-.22c0-3.8,1.79-6,4-6,2.37,0,3.84,2.27,3.84,5.92v.78H50.37c.11,2.65,1.47,4.08,3.1,4.08a3.37,3.37,0,0,0,2.3-1l.72,1.14a4.59,4.59,0,0,1-3.15,1.25C50.86,223.21,48.87,221.11,48.87,217.31Zm6.37-.76c-.05-2.37-.92-4.16-2.37-4.16s-2.39,1.52-2.53,4.16Z" fill="#fff"/>
    </g>
    <g style="isolation: isolate">
      <path d="M63.21,211.26h1.5v2.07a3.21,3.21,0,0,1,3.2-2.21v1.65h-.07c-1.77,0-3.13,1.19-3.13,3.6V223h-1.5Z" fill="#fff"/>
    </g>
    <g style="isolation: isolate">
      <path d="M68.73,217.31v-.22c0-3.8,1.79-6,4-6,2.37,0,3.85,2.27,3.85,5.92v.78H70.23c.11,2.65,1.48,4.08,3.11,4.08a3.39,3.39,0,0,0,2.3-1l.71,1.14a4.57,4.57,0,0,1-3.15,1.25C70.72,223.21,68.73,221.11,68.73,217.31Zm6.37-.76c0-2.37-.91-4.16-2.37-4.16s-2.39,1.52-2.52,4.16Z" fill="#fff"/>
      <path d="M77.54,221.62l.85-1.16a3.83,3.83,0,0,0,2.72,1.36A1.79,1.79,0,0,0,83,220v0c0-.85-.51-1.47-2.16-2.41-1.9-1.07-2.75-2-2.75-3.44v0a3,3,0,0,1,3.28-3,4.76,4.76,0,0,1,3.11,1.21l-.81,1.16a3.36,3.36,0,0,0-2.34-1A1.62,1.62,0,0,0,79.57,214V214c0,.84.56,1.4,2.15,2.32,2.07,1.21,2.77,2.12,2.77,3.57v0a3.19,3.19,0,0,1-3.4,3.21A5.24,5.24,0,0,1,77.54,221.62Z" fill="#fff"/>
      <path d="M86.48,211.26H88v2.14A3.43,3.43,0,0,1,91,211.06c1.9,0,3.64,1.87,3.64,5.85v.42c0,3.93-1.74,5.85-3.64,5.85a3.4,3.4,0,0,1-3.06-2.3v5.23H86.48Zm6.68,6V217c0-3-1.1-4.56-2.48-4.56s-2.77,1.7-2.77,4.51v.4c0,2.82,1.29,4.49,2.77,4.49S93.16,220.26,93.16,217.29Z" fill="#fff"/>
      <path d="M96.38,217.24V217c0-3.53,1.81-5.94,4.24-5.94s4.2,2.38,4.2,5.94v.24c0,3.55-1.79,6-4.22,6S96.38,220.82,96.38,217.24Zm6.92,0V217c0-2.75-1.18-4.62-2.7-4.62s-2.7,1.85-2.7,4.62v.18c0,2.75,1.18,4.62,2.72,4.62S103.3,220,103.3,217.22Z" fill="#fff"/>
      <path d="M107,211.26h1.5V213a3.09,3.09,0,0,1,2.86-2c1.87,0,3.1,1.33,3.1,3.79V223H113v-7.66c0-2-.78-2.93-2.12-2.93s-2.34,1.17-2.34,3V223H107Z" fill="#fff"/>
      <path d="M115.84,221.62l.85-1.16a3.83,3.83,0,0,0,2.72,1.36,1.79,1.79,0,0,0,1.92-1.79v0c0-.85-.51-1.47-2.16-2.41-1.9-1.07-2.75-2-2.75-3.44v0a3,3,0,0,1,3.28-3,4.74,4.74,0,0,1,3.11,1.21l-.8,1.16a3.38,3.38,0,0,0-2.35-1,1.62,1.62,0,0,0-1.79,1.54V214c0,.84.56,1.4,2.15,2.32,2.07,1.21,2.77,2.12,2.77,3.57v0a3.19,3.19,0,0,1-3.4,3.21A5.24,5.24,0,0,1,115.84,221.62Z" fill="#fff"/>
      <path d="M129.16,211.26h1.49v2.14a3.44,3.44,0,0,1,3.06-2.34c1.9,0,3.65,1.87,3.65,5.85v.42c0,3.93-1.75,5.85-3.65,5.85a3.41,3.41,0,0,1-3.06-2.3v5.23h-1.49Zm6.68,6V217c0-3-1.1-4.56-2.48-4.56s-2.77,1.7-2.77,4.51v.4c0,2.82,1.29,4.49,2.77,4.49S135.84,220.26,135.84,217.29Z" fill="#fff"/>
      <path d="M138.92,219.59v-.16a3.41,3.41,0,0,1,3.58-3.75,6.74,6.74,0,0,1,2.39.45v-1a2.3,2.3,0,0,0-2.46-2.61,4.66,4.66,0,0,0-2.39.73l-.49-1.27a6.33,6.33,0,0,1,3.06-.85,3.76,3.76,0,0,1,2.75,1,4,4,0,0,1,1,2.9V223h-1.49v-1.63a3.05,3.05,0,0,1-2.84,1.86C140.33,223.21,138.92,221.78,138.92,219.59Zm6-.38v-1.88a5.39,5.39,0,0,0-2.15-.44,2.23,2.23,0,0,0-2.32,2.5v.11c0,1.45.78,2.43,2,2.43A2.55,2.55,0,0,0,144.89,219.21Zm-4-11.19a2,2,0,0,1,2-2,2,2,0,0,1,2,2,2,2,0,0,1-2,2A2,2,0,0,1,140.89,208Zm3.22,0a1.21,1.21,0,1,0-1.21,1.27A1.21,1.21,0,0,0,144.11,208Z" fill="#fff"/>
      <path d="M152.8,217.33v-.42c0-3.93,1.74-5.85,3.66-5.85a3.4,3.4,0,0,1,3,2.3V207H161V223H159.5v-2.14a3.43,3.43,0,0,1-3,2.34C154.56,223.18,152.8,221.31,152.8,217.33Zm6.77,0v-.4c0-2.82-1.3-4.49-2.77-4.49s-2.48,1.56-2.48,4.53v.32c0,3,1.12,4.55,2.48,4.55S159.57,220.12,159.57,217.31Z" fill="#fff"/>
      <path d="M163.17,217.31v-.22c0-3.8,1.79-6,4-6,2.37,0,3.84,2.27,3.84,5.92v.78h-6.34c.11,2.65,1.47,4.08,3.1,4.08a3.37,3.37,0,0,0,2.3-1l.72,1.14a4.59,4.59,0,0,1-3.15,1.25C165.16,223.21,163.17,221.11,163.17,217.31Zm6.37-.76c0-2.37-.92-4.16-2.37-4.16s-2.39,1.52-2.53,4.16Z" fill="#fff"/>
      <path d="M173.13,211.26h1.5V213a3.1,3.1,0,0,1,2.86-2c1.88,0,3.11,1.33,3.11,3.79V223h-1.5v-7.66c0-2-.78-2.93-2.12-2.93s-2.35,1.17-2.35,3V223h-1.5Z" fill="#fff"/>
      <path d="M183.15,211.26h1.49V213a3.11,3.11,0,0,1,2.86-2c1.88,0,3.11,1.33,3.11,3.79V223h-1.5v-7.66c0-2-.78-2.93-2.12-2.93s-2.35,1.17-2.35,3V223h-1.49Z" fill="#fff"/>
      <path d="M192.51,219.59v-.16a3.4,3.4,0,0,1,3.57-3.75,6.69,6.69,0,0,1,2.39.45v-1a2.3,2.3,0,0,0-2.45-2.61,4.63,4.63,0,0,0-2.39.73l-.5-1.27a6.4,6.4,0,0,1,3.06-.85,3.76,3.76,0,0,1,2.75,1,4,4,0,0,1,1,2.9V223h-1.5v-1.63a3,3,0,0,1-2.84,1.86C193.92,223.21,192.51,221.78,192.51,219.59Zm6-.38v-1.88a5.34,5.34,0,0,0-2.14-.44,2.23,2.23,0,0,0-2.32,2.5v.11c0,1.45.78,2.43,2,2.43A2.55,2.55,0,0,0,198.47,219.21Z" fill="#fff"/>
      <path d="M206.85,207h1.5v6a3.11,3.11,0,0,1,2.86-2c1.88,0,3.11,1.33,3.11,3.79V223h-1.5v-7.66c0-2-.78-2.93-2.12-2.93s-2.35,1.17-2.35,3V223h-1.5Z" fill="#fff"/>
      <path d="M216.22,219.59v-.16a3.4,3.4,0,0,1,3.57-3.75,6.69,6.69,0,0,1,2.39.45v-1a2.3,2.3,0,0,0-2.45-2.61,4.63,4.63,0,0,0-2.39.73l-.5-1.27a6.4,6.4,0,0,1,3.06-.85,3.76,3.76,0,0,1,2.75,1,4,4,0,0,1,1,2.9V223h-1.5v-1.63a3,3,0,0,1-2.84,1.86C217.63,223.21,216.22,221.78,216.22,219.59Zm6-.38v-1.88a5.34,5.34,0,0,0-2.14-.44,2.23,2.23,0,0,0-2.33,2.5v.11c0,1.45.79,2.43,2,2.43A2.55,2.55,0,0,0,222.18,219.21Zm-4-11.19a2,2,0,0,1,2-2,2,2,0,0,1,2,2,2,2,0,0,1-2,2A2,2,0,0,1,218.18,208Zm3.22,0a1.21,1.21,0,1,0-1.21,1.27A1.2,1.2,0,0,0,221.4,208Z" fill="#fff"/>
      <path d="M226.3,207h1.49V223H226.3Z" fill="#fff"/>
      <path d="M230.7,207h1.49V223H230.7Z" fill="#fff"/>
      <path d="M235,211.26h1.49v2.14a3.45,3.45,0,0,1,3.07-2.34c1.89,0,3.64,1.87,3.64,5.85v.42c0,3.93-1.75,5.85-3.64,5.85a3.41,3.41,0,0,1-3.07-2.3v5.23H235Zm6.68,6V217c0-3-1.1-4.56-2.48-4.56s-2.77,1.7-2.77,4.51v.4c0,2.82,1.29,4.49,2.77,4.49S241.67,220.26,241.67,217.29Z" fill="#fff"/>
      <path d="M245.51,207H247V223h-1.5Z" fill="#fff"/>
    </g>
    <g style="isolation: isolate">
      <path d="M249.15,219.59v-.16a3.41,3.41,0,0,1,3.58-3.75,6.69,6.69,0,0,1,2.39.45v-1a2.3,2.3,0,0,0-2.46-2.61,4.66,4.66,0,0,0-2.39.73l-.49-1.27a6.33,6.33,0,0,1,3.06-.85,3.76,3.76,0,0,1,2.75,1,4,4,0,0,1,1,2.9V223H255.1v-1.63a3.05,3.05,0,0,1-2.84,1.86C250.56,223.21,249.15,221.78,249.15,219.59Zm6-.38v-1.88a5.39,5.39,0,0,0-2.15-.44,2.23,2.23,0,0,0-2.32,2.5v.11c0,1.45.78,2.43,2,2.43A2.55,2.55,0,0,0,255.12,219.21Z" fill="#fff"/>
    </g>
    <g style="isolation: isolate">
      <path d="M259.41,220.66v-8.09h-1.18v-1.31h1.18V208h1.52v3.31h2.32v1.31h-2.32v7.8c0,1,.51,1.39,1.34,1.39a2.52,2.52,0,0,0,1-.23v1.3a3.27,3.27,0,0,1-1.36.29A2.22,2.22,0,0,1,259.41,220.66Z" fill="#fff"/>
      <path d="M264.19,221.62l.85-1.16a3.83,3.83,0,0,0,2.73,1.36,1.79,1.79,0,0,0,1.92-1.79v0c0-.85-.52-1.47-2.17-2.41-1.9-1.07-2.75-2-2.75-3.44v0a3,3,0,0,1,3.29-3,4.71,4.71,0,0,1,3.1,1.21l-.8,1.16a3.37,3.37,0,0,0-2.35-1,1.61,1.61,0,0,0-1.78,1.54V214c0,.84.55,1.4,2.14,2.32,2.08,1.21,2.77,2.12,2.77,3.57v0a3.19,3.19,0,0,1-3.4,3.21A5.24,5.24,0,0,1,264.19,221.62Z" fill="#fff"/>
      <path d="M277.51,211.26H279V213a3,3,0,0,1,2.74-2,2.75,2.75,0,0,1,2.66,1.92,3.37,3.37,0,0,1,3-1.92c1.81,0,3.08,1.29,3.08,3.79V223H289v-7.66c0-2-.73-2.93-2-2.93s-2.23,1.1-2.23,3V223h-1.5v-7.66c0-2-.74-2.93-2-2.93s-2.23,1.19-2.23,3V223h-1.5Z" fill="#fff"/>
      <path d="M292.57,217.31v-.22c0-3.8,1.79-6,4-6,2.37,0,3.84,2.27,3.84,5.92v.78h-6.34c.11,2.65,1.47,4.08,3.1,4.08a3.37,3.37,0,0,0,2.3-1l.72,1.14a4.59,4.59,0,0,1-3.15,1.25C294.56,223.21,292.57,221.11,292.57,217.31Zm6.37-.76c-.05-2.37-.92-4.16-2.37-4.16s-2.39,1.52-2.52,4.16Z" fill="#fff"/>
      <path d="M302.07,217.33v-.42c0-3.93,1.74-5.85,3.66-5.85a3.4,3.4,0,0,1,3,2.3V207h1.52V223h-1.52v-2.14a3.43,3.43,0,0,1-3,2.34C303.83,223.18,302.07,221.31,302.07,217.33Zm6.77,0v-.4c0-2.82-1.3-4.49-2.77-4.49s-2.48,1.56-2.48,4.53v.32c0,3,1.11,4.55,2.48,4.55S308.84,220.12,308.84,217.31Z" fill="#fff"/>
      <path d="M326.89,223.41l-1.45-1.52a4.36,4.36,0,0,1-3.11,1.32c-3.12,0-5.31-3-5.31-7.87V215c0-4.89,2.19-7.89,5.29-7.89s5.32,3,5.32,7.87v.33a10.37,10.37,0,0,1-1.36,5.52l1.63,1.59Zm-2.48-2.55-2-2,1-1,1.78,1.87a10.19,10.19,0,0,0,.83-4.42V215c0-4-1.61-6.41-3.71-6.41s-3.68,2.37-3.68,6.41v.31c0,4.09,1.58,6.41,3.73,6.41A2.78,2.78,0,0,0,324.41,220.86Z" fill="#fff"/>
    </g>
    <g style="isolation: isolate">
      <path d="M330.18,207.35H334a5.18,5.18,0,0,1,3.74,1.34,4.63,4.63,0,0,1,1.22,3.35v.06a4.34,4.34,0,0,1-3.08,4.43l3.49,6.45h-1.79l-3.26-6.09c-.2,0-.4,0-.61,0h-1.92V223h-1.56Zm3.31,8.13c2.77,0,3.88-1.39,3.88-3.35v0c0-2.18-1.36-3.3-3.53-3.3h-2.1v6.68Z" fill="#fff"/>
    </g>
    <g style="isolation: isolate">
      <path d="M341,215.52h5.18V217H341Z" fill="#fff"/>
    </g>
    <g style="isolation: isolate">
      <path d="M348.59,207h1.5V217.4l4-6.14h1.7l-3.21,4.82,3.37,6.9h-1.72l-2.68-5.56-1.41,2.1V223h-1.5Z" fill="#fff"/>
    </g>
    <g style="isolation: isolate">
      <path d="M356.75,217.24V217c0-3.53,1.81-5.94,4.24-5.94s4.2,2.38,4.2,5.94v.24c0,3.55-1.78,6-4.22,6S356.75,220.82,356.75,217.24Zm6.92,0V217c0-2.75-1.18-4.62-2.7-4.62s-2.7,1.85-2.7,4.62v.18c0,2.75,1.18,4.62,2.72,4.62S363.67,220,363.67,217.22Z" fill="#fff"/>
      <path d="M366.89,217.33v-.42c0-3.93,1.75-5.85,3.67-5.85a3.4,3.4,0,0,1,3,2.3V207h1.52V223H373.6v-2.14a3.43,3.43,0,0,1-3,2.34C368.66,223.18,366.89,221.31,366.89,217.33Zm6.77,0v-.4c0-2.82-1.29-4.49-2.77-4.49s-2.48,1.56-2.48,4.53v.32c0,3,1.12,4.55,2.48,4.55S373.66,220.12,373.66,217.31Z" fill="#fff"/>
      <path d="M377.26,217.31v-.22c0-3.8,1.79-6,4-6,2.37,0,3.84,2.27,3.84,5.92v.78h-6.34c.11,2.65,1.47,4.08,3.11,4.08a3.39,3.39,0,0,0,2.3-1l.71,1.14a4.59,4.59,0,0,1-3.15,1.25C379.25,223.21,377.26,221.11,377.26,217.31Zm6.37-.76c-.05-2.37-.92-4.16-2.37-4.16s-2.39,1.52-2.52,4.16Z" fill="#fff"/>
      <path d="M387.23,211.26h1.5V213a3.09,3.09,0,0,1,2.85-2c1.88,0,3.11,1.33,3.11,3.79V223h-1.5v-7.66c0-2-.78-2.93-2.12-2.93s-2.34,1.17-2.34,3V223h-1.5Z" fill="#fff"/>
    </g>
    <g style="isolation: isolate">
      <path d="M36.94,244.13v-.23c0-3.8,1.78-6,4-6s3.84,2.28,3.84,5.92v.78H38.43c.11,2.66,1.48,4.09,3.11,4.09a3.36,3.36,0,0,0,2.3-1l.71,1.14A4.51,4.51,0,0,1,41.4,250C38.92,250,36.94,247.92,36.94,244.13Zm6.36-.76c0-2.37-.91-4.16-2.36-4.16s-2.4,1.52-2.53,4.16Z" fill="#fff"/>
      <path d="M47,233.85h1.5v16H47Z" fill="#fff"/>
      <path d="M51.42,233.85h1.49v16H51.42Z" fill="#fff"/>
      <path d="M55.19,244.13v-.23c0-3.8,1.79-6,4-6,2.37,0,3.84,2.28,3.84,5.92v.78H56.69c.11,2.66,1.47,4.09,3.1,4.09a3.34,3.34,0,0,0,2.3-1l.72,1.14A4.54,4.54,0,0,1,59.66,250C57.18,250,55.19,247.92,55.19,244.13Zm6.37-.76c-.05-2.37-.92-4.16-2.37-4.16s-2.39,1.52-2.52,4.16Z" fill="#fff"/>
      <path d="M65.16,238.07h1.49v2.08a3.2,3.2,0,0,1,3.2-2.21v1.65h-.07c-1.76,0-3.13,1.18-3.13,3.6v6.61H65.16Z" fill="#fff"/>
      <path d="M76,238.07h1.49v2.15a3.44,3.44,0,0,1,3.06-2.35c1.9,0,3.64,1.88,3.64,5.85v.43c0,3.93-1.74,5.85-3.64,5.85a3.4,3.4,0,0,1-3.06-2.3v5.23H76Zm6.67,6v-.31c0-3-1.09-4.56-2.47-4.56s-2.77,1.7-2.77,4.52v.4c0,2.81,1.29,4.49,2.77,4.49S82.67,247.07,82.67,244.1Z" fill="#fff"/>
      <path d="M85.76,246.4v-.15a3.41,3.41,0,0,1,3.57-3.76,7,7,0,0,1,2.4.45v-1a2.31,2.31,0,0,0-2.46-2.62,4.54,4.54,0,0,0-2.39.74l-.49-1.27a6.23,6.23,0,0,1,3.06-.85,3.73,3.73,0,0,1,2.74,1,4,4,0,0,1,1,2.91v8H91.7v-1.63A3,3,0,0,1,88.87,250C87.17,250,85.76,248.59,85.76,246.4Zm6-.38v-1.87a5.43,5.43,0,0,0-2.15-.45,2.23,2.23,0,0,0-2.32,2.5v.11c0,1.46.78,2.44,2,2.44A2.57,2.57,0,0,0,91.73,246Zm-4-11.19a2,2,0,0,1,2-2,2,2,0,0,1,2,2,2,2,0,0,1-2,2A2,2,0,0,1,87.73,234.83Zm3.21,0a1.21,1.21,0,1,0-1.2,1.28A1.21,1.21,0,0,0,90.94,234.83Z" fill="#fff"/>
    </g>
    <g style="isolation: isolate">
      <path d="M99.46,238.07H101l2,9.25,2.14-9.25h1.3l2.12,9.25,2.08-9.25h1.49l-2.83,11.8H108l-2.12-9-2.13,9h-1.38Z" fill="#fff"/>
    </g>
    <g style="isolation: isolate">
      <path d="M113.27,244.13v-.23c0-3.8,1.79-6,4-6,2.37,0,3.84,2.28,3.84,5.92v.78h-6.34c.11,2.66,1.47,4.09,3.1,4.09a3.34,3.34,0,0,0,2.3-1l.72,1.14a4.54,4.54,0,0,1-3.15,1.25C115.26,250,113.27,247.92,113.27,244.13Zm6.37-.76c0-2.37-.92-4.16-2.37-4.16s-2.39,1.52-2.53,4.16Z" fill="#fff"/>
      <path d="M124.73,247.7v2.1h-1.5v-16h1.5v6.37a3.44,3.44,0,0,1,3.06-2.35c1.9,0,3.64,1.88,3.64,5.85v.43c0,3.93-1.74,5.85-3.64,5.85A3.4,3.4,0,0,1,124.73,247.7Zm5.18-3.6v-.31c0-3-1.09-4.56-2.48-4.56s-2.77,1.7-2.77,4.52v.4c0,2.81,1.3,4.49,2.77,4.49S129.91,247.07,129.91,244.1Z" fill="#fff"/>
      <path d="M135.14,247.7v2.1h-1.49v-16h1.49v6.37a3.46,3.46,0,0,1,3.07-2.35c1.89,0,3.64,1.88,3.64,5.85v.43c0,3.93-1.75,5.85-3.64,5.85A3.41,3.41,0,0,1,135.14,247.7Zm5.19-3.6v-.31c0-3-1.1-4.56-2.48-4.56s-2.77,1.7-2.77,4.52v.4c0,2.81,1.29,4.49,2.77,4.49S140.33,247.07,140.33,244.1Z" fill="#fff"/>
      <path d="M144.06,238.07h1.5v2.15a3.44,3.44,0,0,1,3.06-2.35c1.9,0,3.64,1.88,3.64,5.85v.43c0,3.93-1.74,5.85-3.64,5.85a3.39,3.39,0,0,1-3.06-2.3v5.23h-1.5Zm6.68,6v-.31c0-3-1.09-4.56-2.48-4.56s-2.77,1.7-2.77,4.52v.4c0,2.81,1.3,4.49,2.77,4.49S150.74,247.07,150.74,244.1Z" fill="#fff"/>
      <path d="M154.59,233.85h1.49v16h-1.49Z" fill="#fff"/>
    </g>
    <g style="isolation: isolate">
      <path d="M158.23,246.4v-.15c0-2.33,1.38-3.76,3.57-3.76a6.92,6.92,0,0,1,2.39.45v-1a2.3,2.3,0,0,0-2.45-2.62,4.54,4.54,0,0,0-2.39.74l-.5-1.27a6.26,6.26,0,0,1,3.06-.85,3.75,3.75,0,0,1,2.75,1,4,4,0,0,1,1,2.91v8h-1.5v-1.63a3,3,0,0,1-2.84,1.85C159.64,250,158.23,248.59,158.23,246.4Zm6-.38v-1.87a5.34,5.34,0,0,0-2.14-.45,2.24,2.24,0,0,0-2.33,2.5v.11c0,1.46.79,2.44,2,2.44A2.57,2.57,0,0,0,164.19,246Z" fill="#fff"/>
    </g>
    <g style="isolation: isolate">
      <path d="M168.49,247.48v-8.09H167.3v-1.32h1.19v-3.3H170v3.3h2.33v1.32H170v7.8c0,1.05.52,1.38,1.34,1.38a2.69,2.69,0,0,0,1-.22v1.29a3.27,3.27,0,0,1-1.36.29A2.21,2.21,0,0,1,168.49,247.48Z" fill="#fff"/>
      <path d="M173.27,248.44l.85-1.17a3.85,3.85,0,0,0,2.72,1.37,1.79,1.79,0,0,0,1.92-1.79v0c0-.85-.51-1.48-2.16-2.42-1.9-1.07-2.75-1.94-2.75-3.44v0a3,3,0,0,1,3.28-3,4.8,4.8,0,0,1,3.11,1.2l-.81,1.16a3.39,3.39,0,0,0-2.34-1,1.62,1.62,0,0,0-1.79,1.54v0c0,.85.56,1.41,2.14,2.32,2.08,1.21,2.77,2.13,2.77,3.58v0a3.19,3.19,0,0,1-3.39,3.22A5.24,5.24,0,0,1,173.27,248.44Z" fill="#fff"/>
      <path d="M181.69,244.13v-.23c0-3.8,1.79-6,4-6,2.37,0,3.84,2.28,3.84,5.92v.78h-6.34c.11,2.66,1.47,4.09,3.1,4.09a3.34,3.34,0,0,0,2.3-1l.72,1.14a4.54,4.54,0,0,1-3.15,1.25C183.68,250,181.69,247.92,181.69,244.13Zm6.37-.76c-.05-2.37-.92-4.16-2.37-4.16s-2.39,1.52-2.52,4.16Z" fill="#fff"/>
      <path d="M191.66,238.07h1.49v1.77a3.12,3.12,0,0,1,2.86-2c1.88,0,3.11,1.34,3.11,3.8v8.13h-1.5v-7.66c0-2-.78-2.93-2.12-2.93s-2.35,1.16-2.35,2.95v7.64h-1.49Z" fill="#fff"/>
      <path d="M201.56,247.57h1.92v2.23h-1.92Z" fill="#fff"/>
    </g>
  </g>
</svg>
