<svg xmlns="http://www.w3.org/2000/svg" xmlns:xlink="http://www.w3.org/1999/xlink" viewBox="0 0 556.07692 184.25544">
  <defs>
    <clipPath id="928ff9c9-1a4f-4009-b808-95af5e30bc76" transform="translate(0.00139 0.00156)">
      <rect x="-0.00013" width="184.25197" height="184.25197" fill="none"/>
    </clipPath>
  </defs>
  <g id="056d55be-662b-42b6-950e-3a35d2586a95" data-name="d8431598-a240-4c6f-a796-2ec5a1312c13">
    <text transform="translate(190.35356 89.29864)" font-size="30" fill="#fff" font-family="GothamRounded-Bold, Gotham Rounded" style="isolation: isolate">Suosit<tspan x="94.37842" y="0" letter-spacing="-0.01501em">t</tspan><tspan x="106.37793" y="0">elemm</tspan><tspan x="209.2168" y="0" letter-spacing="-0.00999em">e</tspan><tspan x="227.30664" y="0">,</tspan><tspan x="0" y="36">ei tupa</tspan><tspan x="105.59717" y="36" letter-spacing="-0.00999em">k</tspan><tspan x="122.9375" y="36">ointia </tspan><tspan x="218.87451" y="36" letter-spacing="-0.00999em">py</tspan><tspan x="256.10449" y="36">säkillä!</tspan></text>
  </g>
  <g id="9b64881a-bd28-417c-bb56-818d1cb7315d" data-name="Layer 2">
    <g clip-path="url(#928ff9c9-1a4f-4009-b808-95af5e30bc76)">
      <g>
        <path d="M23.03264,1H161.22356a22.03174,22.03174,0,0,1,22.03174,22.03174V161.22366a22.03223,22.03223,0,0,1-22.03223,22.03223H23.03313a22.0332,22.0332,0,0,1-22.0332-22.0332V23.03274A22.03271,22.03271,0,0,1,23.03264,1Z" fill="#007ac9"/>
        <path d="M161.2215,1.99844a21.05588,21.05588,0,0,1,21.03223,21.03188V161.221a21.05635,21.05635,0,0,1-21.03223,21.03283H23.03111A21.05648,21.05648,0,0,1,1.99861,161.221V23.03032A21.056,21.056,0,0,1,23.03111,1.99844H161.2215m0-2H23.03111A23.09986,23.09986,0,0,0-.00139,23.03032V161.221a23.10052,23.10052,0,0,0,23.0325,23.03283H161.2215A23.10066,23.10066,0,0,0,184.25372,161.221V23.03032A23.1,23.1,0,0,0,161.2215-.00156Z" transform="translate(0.00139 0.00156)" fill="#fff"/>
      </g>
    </g>
    <rect x="34.63779" y="87.08807" width="5.87486" height="19.56473" fill="#fff"/>
    <path d="M159.4657,87.08684H45.69581v19.5644H159.4657a2.624,2.624,0,0,0,2.52386-2.71431V89.80115a2.624,2.624,0,0,0-2.52386-2.71431" transform="translate(0.00139 0.00156)" fill="#fff"/>
    <path d="M29.45217,87.08684H25.81874a2.62453,2.62453,0,0,0-2.52419,2.71431v14.13578a2.62453,2.62453,0,0,0,2.52419,2.71431h3.63343Z" transform="translate(0.00139 0.00156)" fill="#fff"/>
    <path d="M25.55783,79.8885s8.547-26.32607,31.06407-25.93412c21.87084.38026,25.05075-18.10351,20.34071-35.41445C70.82722,34.54962,61.34429,36.0083,49.05376,36.5666c-12.29053.55764-36.2765,14.17614-23.49593,43.3219" transform="translate(0.00139 0.00156)" fill="#fff"/>
    <path d="M169.9338,1.72474,1.72392,169.934a23.24475,23.24475,0,0,0,12.59393,12.59329L182.52775,14.318a23.24528,23.24528,0,0,0-12.594-12.5933" transform="translate(0.00139 0.00156)" fill="#e51457"/>
    <rect x="0.00126" y="0.00155" width="184.25197" height="184.25197" fill="none"/>
  </g>
</svg>
