<?xml version="1.0" encoding="utf-8"?>
<!-- Generator: Adobe Illustrator 22.1.0, SVG Export Plug-In . SVG Version: 6.00 Build 0)  -->
<svg version="1.1" xmlns="http://www.w3.org/2000/svg" xmlns:xlink="http://www.w3.org/1999/xlink" x="0px" y="0px" width="581.1px"
	 height="113.4px" viewBox="0 0 581.1 113.4" enable-background="new 0 0 581.1 113.4" xml:space="preserve">
<g id="tausta" display="none">
	<rect y="0" fill="#007EC0" width="581.1" height="113.4"/>
</g>
<g id="Layer_1">
	<g id="d53377c5-34f9-4c63-baef-889dcdd5911e">
		<g>
			<defs>
				<rect id="SVGID_1_" x="-4.3" y="-8.3" width="120.3" height="124.7"/>
			</defs>
			<clipPath id="SVGID_2_">
				<use xlink:href="#SVGID_1_"  overflow="visible"/>
			</clipPath>
			<g clip-path="url(#SVGID_2_)">
				<g>
					<g>
						<path fill="#007EC6" d="M14.2,111.4C7.5,111.4,2,105.9,2,99.2v-85C2,7.5,7.5,2,14.2,2h85c6.7,0,12.1,5.4,12.1,12.1v85
							c0,6.7-5.4,12.1-12.1,12.1H14.2z"/>
						<path fill="#FFFFFF" d="M99.2,3.5c5.9,0,10.7,4.8,10.7,10.7v85c0,5.9-4.8,10.7-10.7,10.7h-85c-5.9,0-10.7-4.8-10.7-10.7v-85
							c0-5.9,4.8-10.7,10.7-10.7H99.2 M99.2,0.6h-85C6.7,0.6,0.6,6.7,0.6,14.2v85c0,7.5,6.1,13.6,13.6,13.6h85
							c7.5,0,13.6-6.1,13.6-13.6v-85C112.8,6.7,106.7,0.6,99.2,0.6L99.2,0.6z"/>
					</g>
					<path fill="#FFFFFF" d="M99.2,1.2c7.1,0,12.9,5.8,12.9,12.9v85.1c0,7.1-5.8,12.9-12.9,12.9H14.2c-7.1,0-12.9-5.8-12.9-12.9
						V14.2C1.2,7,7,1.2,14.2,1.2H99.2 M99.2,0H14.2C6.3,0,0,6.3,0,14.2v85.1c0,7.8,6.3,14.1,14.2,14.2h85.1
						c7.8,0,14.1-6.3,14.2-14.2V14.2C113.3,6.3,107,0,99.2,0z"/>
				</g>
			</g>
		</g>
		<rect x="21.3" y="53.6" fill="#FFFFFF" width="3.6" height="12"/>
		<path fill="#FFFFFF" d="M98.1,53.6h-70v12h70c0.9,0,1.6-0.8,1.6-1.7v-8.7C99.7,54.4,99,53.6,98.1,53.6"/>
		<path fill="#FFFFFF" d="M18.1,53.6h-2.2c-0.9,0-1.6,0.8-1.6,1.7V64c0,0.9,0.7,1.6,1.6,1.7h2.2V53.6z"/>
		<path fill="#FFFFFF" d="M15.7,49.2c0,0,5.3-16.2,19.1-15.9c13.5,0.2,15.4-11.1,12.5-21.8c-3.8,9.8-9.6,10.8-17.2,11.1
			S7.9,31.2,15.7,49.2"/>
		<path fill="#E51457" d="M104.6,1.1L1.1,104.6c1.5,3.5,4.2,6.3,7.8,7.8L112.3,8.8C110.9,5.3,108.1,2.5,104.6,1.1"/>
		<rect x="0" y="0" fill="none" width="113.4" height="113.4"/>
	</g>
	<g>
		<path fill="#FFFFFF" d="M142.5,70.2l-5.4-12.4c-0.1-0.1-0.1-0.2-0.1-0.4c0-0.4,0.4-0.8,0.8-0.8c0.4,0,0.7,0.3,0.8,0.6l4.8,11.5
			l4.8-11.5c0.1-0.3,0.4-0.6,0.8-0.6c0.4,0,0.8,0.4,0.8,0.8c0,0.1,0,0.2-0.1,0.3l-5.4,12.4c-0.2,0.4-0.5,0.7-0.9,0.7h-0.1
			C142.9,70.9,142.6,70.6,142.5,70.2z"/>
		<path fill="#FFFFFF" d="M152.1,57.3c0-0.5,0.4-0.8,0.9-0.8c0.5,0,0.9,0.3,0.9,0.8v0.3c0,0.5-0.4,0.8-0.9,0.8
			c-0.5,0-0.9-0.3-0.9-0.8V57.3z M152.3,61.1c0-0.4,0.3-0.8,0.8-0.8c0.4,0,0.8,0.3,0.8,0.8V70c0,0.4-0.3,0.8-0.8,0.8
			c-0.4,0-0.8-0.3-0.8-0.8V61.1z"/>
		<path fill="#FFFFFF" d="M163.3,61.1c0-0.4,0.3-0.8,0.8-0.8c0.4,0,0.8,0.3,0.8,0.8v1.9c0.8-1.7,2.2-2.7,3.5-2.7
			c0.5,0,0.8,0.3,0.8,0.8c0,0.4-0.3,0.7-0.7,0.8c-2,0.2-3.6,1.7-3.6,4.7V70c0,0.4-0.3,0.8-0.8,0.8s-0.8-0.3-0.8-0.8V61.1z"/>
		<path fill="#FFFFFF" d="M175.4,71c-2.8,0-5.1-2.2-5.1-5.3v0c0-3,2.1-5.3,4.9-5.3c3,0,4.8,2.5,4.8,5.2c0,0.4-0.3,0.7-0.7,0.7h-7.4
			c0.2,2.2,1.8,3.5,3.6,3.5c1.3,0,2.2-0.5,3-1.2c0.1-0.1,0.3-0.2,0.4-0.2c0.4,0,0.7,0.3,0.7,0.7c0,0.2-0.1,0.4-0.2,0.5
			C178.3,70.3,177.1,71,175.4,71z M178.4,65c-0.2-1.9-1.2-3.5-3.3-3.5c-1.8,0-3.1,1.5-3.3,3.5H178.4z"/>
		<path fill="#FFFFFF" d="M182.6,56.9c0-0.4,0.3-0.8,0.8-0.8c0.4,0,0.8,0.4,0.8,0.8v9.4l5.6-5.7c0.2-0.2,0.4-0.3,0.6-0.3
			c0.4,0,0.7,0.3,0.7,0.7c0,0.2-0.1,0.4-0.3,0.6l-3.4,3.3l3.7,4.6c0.1,0.2,0.2,0.3,0.2,0.5c0,0.4-0.3,0.7-0.7,0.7
			c-0.3,0-0.5-0.1-0.7-0.4l-3.6-4.5l-2.1,2.1v2c0,0.4-0.3,0.8-0.8,0.8s-0.8-0.3-0.8-0.8V56.9z"/>
		<path fill="#FFFFFF" d="M192.9,65.6L192.9,65.6c0-2.9,2.3-5.4,5.4-5.4c3.1,0,5.3,2.4,5.3,5.3v0c0,2.9-2.3,5.4-5.4,5.4
			C195.1,71,192.9,68.5,192.9,65.6z M202,65.6L202,65.6c0-2.2-1.6-4-3.8-4c-2.2,0-3.7,1.8-3.7,4v0c0,2.2,1.6,4,3.8,4
			C200.4,69.6,202,67.8,202,65.6z"/>
		<path fill="#FFFFFF" d="M206.3,61.1c0-0.4,0.3-0.8,0.8-0.8c0.4,0,0.8,0.3,0.8,0.8v1.1c0.7-1,1.6-1.9,3.3-1.9c1.7,0,2.7,0.9,3.3,2
			c0.7-1.1,1.8-2,3.6-2c2.4,0,3.8,1.6,3.8,4.1V70c0,0.4-0.3,0.8-0.8,0.8c-0.4,0-0.8-0.3-0.8-0.8v-5.3c0-2-1-3.1-2.7-3.1
			c-1.5,0-2.8,1.2-2.8,3.2V70c0,0.4-0.3,0.8-0.8,0.8c-0.4,0-0.8-0.3-0.8-0.8v-5.4c0-1.9-1-3.1-2.6-3.1s-2.9,1.3-2.9,3.2V70
			c0,0.4-0.3,0.8-0.8,0.8s-0.8-0.3-0.8-0.8V61.1z"/>
		<path fill="#FFFFFF" d="M225.2,61.1c0-0.4,0.3-0.8,0.8-0.8c0.4,0,0.8,0.3,0.8,0.8v1.1c0.7-1,1.6-1.9,3.3-1.9c1.7,0,2.7,0.9,3.3,2
			c0.7-1.1,1.8-2,3.6-2c2.4,0,3.8,1.6,3.8,4.1V70c0,0.4-0.3,0.8-0.8,0.8c-0.4,0-0.8-0.3-0.8-0.8v-5.3c0-2-1-3.1-2.7-3.1
			c-1.5,0-2.8,1.2-2.8,3.2V70c0,0.4-0.3,0.8-0.8,0.8c-0.4,0-0.8-0.3-0.8-0.8v-5.4c0-1.9-1-3.1-2.6-3.1s-2.9,1.3-2.9,3.2V70
			c0,0.4-0.3,0.8-0.8,0.8s-0.8-0.3-0.8-0.8V61.1z"/>
		<path fill="#FFFFFF" d="M248.5,71c-2.8,0-5.1-2.2-5.1-5.3v0c0-3,2.1-5.3,4.9-5.3c3,0,4.8,2.5,4.8,5.2c0,0.4-0.3,0.7-0.7,0.7H245
			c0.2,2.2,1.8,3.5,3.6,3.5c1.3,0,2.2-0.5,3-1.2c0.1-0.1,0.3-0.2,0.4-0.2c0.4,0,0.7,0.3,0.7,0.7c0,0.2-0.1,0.4-0.2,0.5
			C251.4,70.3,250.3,71,248.5,71z M251.6,65c-0.2-1.9-1.2-3.5-3.3-3.5c-1.8,0-3.1,1.5-3.3,3.5H251.6z"/>
		<path fill="#FFFFFF" d="M255.8,61.1c0-0.4,0.3-0.8,0.8-0.8c0.4,0,0.8,0.3,0.8,0.8v1.1c0.7-1.1,1.7-2,3.5-2c2.5,0,3.9,1.7,3.9,4.1
			V70c0,0.4-0.3,0.8-0.8,0.8c-0.4,0-0.8-0.3-0.8-0.8v-5.3c0-1.9-1-3.1-2.8-3.1c-1.8,0-3.1,1.3-3.1,3.2V70c0,0.4-0.3,0.8-0.8,0.8
			s-0.8-0.3-0.8-0.8V61.1z"/>
		<path fill="#FFFFFF" d="M277.8,70c0,0.4-0.3,0.8-0.8,0.8c-0.4,0-0.8-0.3-0.8-0.8v-1.4c-0.8,1.2-2,2.3-3.9,2.3
			c-2.5,0-4.9-1.9-4.9-5.3v0c0-3.4,2.4-5.3,4.9-5.3c1.9,0,3.1,1,3.9,2.2v-5.5c0-0.4,0.3-0.8,0.8-0.8c0.4,0,0.8,0.3,0.8,0.8V70z
			 M269,65.6L269,65.6c0,2.5,1.7,4,3.6,4c1.9,0,3.7-1.6,3.7-4v0c0-2.4-1.8-3.9-3.7-3.9C270.6,61.6,269,63.1,269,65.6z"/>
		<path fill="#FFFFFF" d="M285.7,71c-2.8,0-5.1-2.2-5.1-5.3v0c0-3,2.1-5.3,4.9-5.3c3,0,4.8,2.5,4.8,5.2c0,0.4-0.3,0.7-0.7,0.7h-7.4
			c0.2,2.2,1.8,3.5,3.6,3.5c1.3,0,2.2-0.5,3-1.2c0.1-0.1,0.3-0.2,0.4-0.2c0.4,0,0.7,0.3,0.7,0.7c0,0.2-0.1,0.4-0.2,0.5
			C288.6,70.3,287.4,71,285.7,71z M288.7,65c-0.2-1.9-1.2-3.5-3.3-3.5c-1.8,0-3.1,1.5-3.3,3.5H288.7z"/>
		<path fill="#FFFFFF" d="M292.9,61.1c0-0.4,0.3-0.8,0.8-0.8c0.4,0,0.8,0.3,0.8,0.8v1.9c0.8-1.7,2.2-2.7,3.5-2.7
			c0.5,0,0.8,0.3,0.8,0.8c0,0.4-0.3,0.7-0.7,0.8c-2,0.2-3.6,1.7-3.6,4.7V70c0,0.4-0.3,0.8-0.8,0.8s-0.8-0.3-0.8-0.8V61.1z"/>
		<path fill="#FFFFFF" d="M299.7,67.7L299.7,67.7c0-2.2,1.8-3.4,4.4-3.4c1.3,0,2.2,0.2,3.2,0.4v-0.4c0-1.8-1.1-2.8-3.1-2.8
			c-1,0-1.9,0.2-2.7,0.6c-0.1,0-0.2,0.1-0.3,0.1c-0.4,0-0.7-0.3-0.7-0.7c0-0.3,0.2-0.6,0.4-0.6c1-0.4,2-0.7,3.4-0.7
			c1.4,0,2.6,0.4,3.3,1.1c0.7,0.7,1.1,1.7,1.1,3v5.6c0,0.4-0.3,0.8-0.7,0.8c-0.4,0-0.7-0.3-0.7-0.7v-0.9c-0.7,0.9-1.9,1.8-3.7,1.8
			C301.6,70.9,299.7,69.8,299.7,67.7z M307.3,67v-1c-0.8-0.2-1.8-0.4-3-0.4c-1.9,0-3,0.8-3,2.1v0c0,1.3,1.2,2,2.6,2
			C305.7,69.7,307.3,68.6,307.3,67z"/>
		<path fill="#FFFFFF" d="M312,61.1c0-0.4,0.3-0.8,0.8-0.8c0.4,0,0.8,0.3,0.8,0.8v1.9c0.8-1.7,2.2-2.7,3.5-2.7
			c0.5,0,0.8,0.3,0.8,0.8c0,0.4-0.3,0.7-0.7,0.8c-2,0.2-3.6,1.7-3.6,4.7V70c0,0.4-0.3,0.8-0.8,0.8S312,70.5,312,70V61.1z"/>
		<path fill="#FFFFFF" d="M325.2,67.7L325.2,67.7c0-2.2,1.8-3.4,4.4-3.4c1.3,0,2.2,0.2,3.2,0.4v-0.4c0-1.8-1.1-2.8-3.1-2.8
			c-1,0-1.9,0.2-2.7,0.6c-0.1,0-0.2,0.1-0.3,0.1c-0.4,0-0.7-0.3-0.7-0.7c0-0.3,0.2-0.6,0.4-0.6c1-0.4,2-0.7,3.4-0.7
			c1.4,0,2.6,0.4,3.3,1.1c0.7,0.7,1.1,1.7,1.1,3v5.6c0,0.4-0.3,0.8-0.7,0.8c-0.4,0-0.7-0.3-0.7-0.7v-0.9c-0.7,0.9-1.9,1.8-3.7,1.8
			C327.1,70.9,325.2,69.8,325.2,67.7z M332.7,67v-1c-0.8-0.2-1.8-0.4-3-0.4c-1.9,0-3,0.8-3,2.1v0c0,1.3,1.2,2,2.6,2
			C331.2,69.7,332.7,68.6,332.7,67z"/>
		<path fill="#FFFFFF" d="M337.9,68v-6.2h-0.8c-0.4,0-0.7-0.3-0.7-0.7c0-0.4,0.3-0.7,0.7-0.7h0.8V58c0-0.4,0.3-0.8,0.8-0.8
			c0.4,0,0.8,0.4,0.8,0.8v2.4h2.7c0.4,0,0.7,0.3,0.7,0.7c0,0.4-0.3,0.7-0.7,0.7h-2.7v6c0,1.3,0.7,1.7,1.7,1.7c0.5,0,0.8-0.1,0.9-0.1
			c0.4,0,0.7,0.3,0.7,0.7c0,0.3-0.2,0.5-0.4,0.6c-0.4,0.2-0.9,0.3-1.5,0.3C339.1,70.9,337.9,70.1,337.9,68z"/>
		<path fill="#FFFFFF" d="M345.9,68v-6.2h-0.8c-0.4,0-0.7-0.3-0.7-0.7c0-0.4,0.3-0.7,0.7-0.7h0.8V58c0-0.4,0.3-0.8,0.8-0.8
			c0.4,0,0.8,0.4,0.8,0.8v2.4h2.7c0.4,0,0.7,0.3,0.7,0.7c0,0.4-0.3,0.7-0.7,0.7h-2.7v6c0,1.3,0.7,1.7,1.7,1.7c0.5,0,0.8-0.1,0.9-0.1
			c0.4,0,0.7,0.3,0.7,0.7c0,0.3-0.2,0.5-0.4,0.6c-0.4,0.2-0.9,0.3-1.5,0.3C347.2,70.9,345.9,70.1,345.9,68z"/>
		<path fill="#FFFFFF" d="M369.1,70c0,0.4-0.3,0.8-0.8,0.8c-0.4,0-0.8-0.3-0.8-0.8v-1.4c-0.8,1.2-2,2.3-3.9,2.3
			c-2.5,0-4.9-1.9-4.9-5.3v0c0-3.4,2.4-5.3,4.9-5.3c1.9,0,3.1,1,3.9,2.2v-5.5c0-0.4,0.3-0.8,0.8-0.8c0.4,0,0.8,0.3,0.8,0.8V70z
			 M360.3,65.6L360.3,65.6c0,2.5,1.7,4,3.6,4c1.9,0,3.7-1.6,3.7-4v0c0-2.4-1.8-3.9-3.7-3.9C361.9,61.6,360.3,63.1,360.3,65.6z"/>
		<path fill="#FFFFFF" d="M381.3,70c0,0.4-0.3,0.8-0.8,0.8c-0.4,0-0.8-0.3-0.8-0.8v-1.1c-0.7,1.1-1.7,2-3.5,2
			c-2.5,0-3.9-1.7-3.9-4.1v-5.7c0-0.4,0.3-0.8,0.8-0.8c0.4,0,0.8,0.3,0.8,0.8v5.3c0,1.9,1,3.1,2.8,3.1c1.7,0,3.1-1.3,3.1-3.2v-5.2
			c0-0.4,0.3-0.8,0.8-0.8c0.4,0,0.8,0.3,0.8,0.8V70z"/>
		<path fill="#FFFFFF" d="M390.7,57.3c0-0.5,0.4-0.8,0.9-0.8c0.5,0,0.9,0.3,0.9,0.8v0.3c0,0.5-0.4,0.8-0.9,0.8
			c-0.5,0-0.9-0.3-0.9-0.8V57.3z M390.8,61.1c0-0.4,0.3-0.8,0.8-0.8c0.4,0,0.8,0.3,0.8,0.8V70c0,0.4-0.3,0.8-0.8,0.8
			s-0.8-0.3-0.8-0.8V61.1z"/>
		<path fill="#FFFFFF" d="M395.9,61.1c0-0.4,0.3-0.8,0.8-0.8c0.4,0,0.8,0.3,0.8,0.8v1.1c0.7-1.1,1.7-2,3.5-2c2.5,0,3.9,1.7,3.9,4.1
			V70c0,0.4-0.3,0.8-0.8,0.8c-0.4,0-0.8-0.3-0.8-0.8v-5.3c0-1.9-1-3.1-2.8-3.1c-1.8,0-3.1,1.3-3.1,3.2V70c0,0.4-0.3,0.8-0.8,0.8
			s-0.8-0.3-0.8-0.8V61.1z"/>
		<path fill="#FFFFFF" d="M408.7,68v-6.2h-0.8c-0.4,0-0.7-0.3-0.7-0.7c0-0.4,0.3-0.7,0.7-0.7h0.8V58c0-0.4,0.3-0.8,0.8-0.8
			c0.4,0,0.8,0.4,0.8,0.8v2.4h2.7c0.4,0,0.7,0.3,0.7,0.7c0,0.4-0.3,0.7-0.7,0.7h-2.7v6c0,1.3,0.7,1.7,1.7,1.7c0.5,0,0.8-0.1,0.9-0.1
			c0.4,0,0.7,0.3,0.7,0.7c0,0.3-0.2,0.5-0.4,0.6c-0.4,0.2-0.9,0.3-1.5,0.3C409.9,70.9,408.7,70.1,408.7,68z"/>
		<path fill="#FFFFFF" d="M420.3,71c-2.8,0-5.1-2.2-5.1-5.3v0c0-3,2.1-5.3,4.9-5.3c3,0,4.8,2.5,4.8,5.2c0,0.4-0.3,0.7-0.7,0.7h-7.4
			c0.2,2.2,1.8,3.5,3.6,3.5c1.3,0,2.2-0.5,3-1.2c0.1-0.1,0.3-0.2,0.4-0.2c0.4,0,0.7,0.3,0.7,0.7c0,0.2-0.1,0.4-0.2,0.5
			C423.2,70.3,422.1,71,420.3,71z M423.4,65c-0.2-1.9-1.2-3.5-3.3-3.5c-1.8,0-3.1,1.5-3.3,3.5H423.4z"/>
		<path fill="#FFFFFF" d="M433.5,61.1c0-0.4,0.3-0.8,0.8-0.8c0.4,0,0.8,0.3,0.8,0.8v1.9c0.8-1.7,2.2-2.7,3.5-2.7
			c0.5,0,0.8,0.3,0.8,0.8c0,0.4-0.3,0.7-0.7,0.8c-2,0.2-3.6,1.7-3.6,4.7V70c0,0.4-0.3,0.8-0.8,0.8s-0.8-0.3-0.8-0.8V61.1z"/>
		<path fill="#FFFFFF" d="M440.5,65.6L440.5,65.6c0-2.9,2.3-5.4,5.4-5.4c3.1,0,5.3,2.4,5.3,5.3v0c0,2.9-2.3,5.4-5.4,5.4
			C442.8,71,440.5,68.5,440.5,65.6z M449.6,65.6L449.6,65.6c0-2.2-1.6-4-3.8-4c-2.2,0-3.7,1.8-3.7,4v0c0,2.2,1.6,4,3.8,4
			C448.1,69.6,449.6,67.8,449.6,65.6z M445,57.8v0.3c0,0.5-0.4,0.9-0.9,0.9s-0.9-0.4-0.9-0.9v-0.3c0-0.5,0.4-0.9,0.9-0.9
			S445,57.3,445,57.8z M448.5,57.8v0.3c0,0.5-0.4,0.9-0.9,0.9s-0.9-0.4-0.9-0.9v-0.3c0-0.5,0.4-0.9,0.9-0.9S448.5,57.3,448.5,57.8z"
			/>
		<path fill="#FFFFFF" d="M454,56.9c0-0.4,0.3-0.8,0.8-0.8c0.4,0,0.8,0.4,0.8,0.8v9.4l5.6-5.7c0.2-0.2,0.4-0.3,0.6-0.3
			c0.4,0,0.7,0.3,0.7,0.7c0,0.2-0.1,0.4-0.3,0.6l-3.4,3.3l3.7,4.6c0.1,0.2,0.2,0.3,0.2,0.5c0,0.4-0.3,0.7-0.7,0.7
			c-0.3,0-0.5-0.1-0.7-0.4l-3.6-4.5l-2.1,2.1v2c0,0.4-0.3,0.8-0.8,0.8S454,70.5,454,70V56.9z"/>
		<path fill="#FFFFFF" d="M469.3,71c-2.8,0-5.1-2.2-5.1-5.3v0c0-3,2.1-5.3,4.9-5.3c3,0,4.8,2.5,4.8,5.2c0,0.4-0.3,0.7-0.7,0.7h-7.4
			c0.2,2.2,1.8,3.5,3.6,3.5c1.3,0,2.2-0.5,3-1.2c0.1-0.1,0.3-0.2,0.4-0.2c0.4,0,0.7,0.3,0.7,0.7c0,0.2-0.1,0.4-0.2,0.5
			C472.2,70.3,471,71,469.3,71z M472.3,65c-0.2-1.9-1.2-3.5-3.3-3.5c-1.8,0-3.1,1.5-3.3,3.5H472.3z"/>
		<path fill="#FFFFFF" d="M476.6,61.1c0-0.4,0.3-0.8,0.8-0.8c0.4,0,0.8,0.3,0.8,0.8v1.9c0.8-1.7,2.2-2.7,3.5-2.7
			c0.5,0,0.8,0.3,0.8,0.8c0,0.4-0.3,0.7-0.7,0.8c-2,0.2-3.6,1.7-3.6,4.7V70c0,0.4-0.3,0.8-0.8,0.8s-0.8-0.3-0.8-0.8V61.1z"/>
		<path fill="#FFFFFF" d="M137.8,83.8c0-0.4,0.3-0.8,0.8-0.8c0.4,0,0.8,0.3,0.8,0.8v1.4c0.8-1.2,2-2.3,3.9-2.3
			c2.5,0,4.9,1.9,4.9,5.3v0c0,3.4-2.4,5.3-4.9,5.3c-1.9,0-3.1-1-3.9-2.2v4.5c0,0.4-0.3,0.8-0.8,0.8s-0.8-0.3-0.8-0.8V83.8z
			 M146.5,88.3L146.5,88.3c0-2.5-1.7-4-3.6-4c-1.9,0-3.7,1.6-3.7,3.9v0c0,2.4,1.8,4,3.7,4C144.9,92.2,146.5,90.8,146.5,88.3z"/>
		<path fill="#FFFFFF" d="M150.2,90.4L150.2,90.4c0-2.2,1.8-3.4,4.4-3.4c1.3,0,2.2,0.2,3.2,0.4v-0.4c0-1.8-1.1-2.8-3.1-2.8
			c-1,0-1.9,0.2-2.7,0.6c-0.1,0-0.2,0.1-0.3,0.1c-0.4,0-0.7-0.3-0.7-0.7c0-0.3,0.2-0.6,0.4-0.6c1-0.4,2-0.7,3.4-0.7
			c1.4,0,2.6,0.4,3.3,1.1c0.7,0.7,1.1,1.7,1.1,3v5.6c0,0.4-0.3,0.8-0.7,0.8c-0.4,0-0.7-0.3-0.7-0.7v-0.9c-0.7,0.9-1.9,1.8-3.7,1.8
			C152.1,93.6,150.2,92.5,150.2,90.4z M157.7,89.6v-1c-0.8-0.2-1.8-0.4-3-0.4c-1.9,0-3,0.8-3,2.1v0c0,1.3,1.2,2,2.6,2
			C156.2,92.4,157.7,91.3,157.7,89.6z M152.9,79.7L152.9,79.7c0-1.1,1-2,2.1-2c1.1,0,2.1,0.9,2.1,2v0c0,1.1-1,2-2.1,2
			C153.9,81.6,152.9,80.7,152.9,79.7z M156.2,79.7L156.2,79.7c0-0.7-0.6-1.3-1.2-1.3c-0.7,0-1.2,0.6-1.2,1.2v0
			c0,0.7,0.6,1.2,1.2,1.2C155.6,80.9,156.2,80.3,156.2,79.7z"/>
		<path fill="#FFFFFF" d="M168.4,79.6c0-0.4,0.3-0.8,0.8-0.8c0.4,0,0.8,0.4,0.8,0.8v5.3c0.7-1.1,1.7-2,3.5-2c2.5,0,3.9,1.7,3.9,4.1
			v5.7c0,0.4-0.3,0.8-0.8,0.8c-0.4,0-0.8-0.3-0.8-0.8v-5.3c0-1.9-1-3.1-2.8-3.1c-1.8,0-3.1,1.3-3.1,3.2v5.2c0,0.4-0.3,0.8-0.8,0.8
			s-0.8-0.3-0.8-0.8V79.6z"/>
		<path fill="#FFFFFF" d="M179.8,90.4L179.8,90.4c0-2.2,1.8-3.4,4.4-3.4c1.3,0,2.2,0.2,3.2,0.4v-0.4c0-1.8-1.1-2.8-3.1-2.8
			c-1,0-1.9,0.2-2.7,0.6c-0.1,0-0.2,0.1-0.3,0.1c-0.4,0-0.7-0.3-0.7-0.7c0-0.3,0.2-0.6,0.4-0.6c1-0.4,2-0.7,3.4-0.7
			c1.4,0,2.6,0.4,3.3,1.1c0.7,0.7,1.1,1.7,1.1,3v5.6c0,0.4-0.3,0.8-0.7,0.8c-0.4,0-0.7-0.3-0.7-0.7v-0.9c-0.7,0.9-1.9,1.8-3.7,1.8
			C181.7,93.6,179.8,92.5,179.8,90.4z M187.4,89.6v-1c-0.8-0.2-1.8-0.4-3-0.4c-1.9,0-3,0.8-3,2.1v0c0,1.3,1.2,2,2.6,2
			C185.8,92.4,187.4,91.3,187.4,89.6z M182.6,79.7L182.6,79.7c0-1.1,1-2,2.1-2c1.1,0,2.1,0.9,2.1,2v0c0,1.1-1,2-2.1,2
			C183.5,81.6,182.6,80.7,182.6,79.7z M185.9,79.7L185.9,79.7c0-0.7-0.6-1.3-1.2-1.3c-0.7,0-1.2,0.6-1.2,1.2v0
			c0,0.7,0.6,1.2,1.2,1.2C185.3,80.9,185.9,80.3,185.9,79.7z"/>
		<path fill="#FFFFFF" d="M192.2,79.6c0-0.4,0.3-0.8,0.8-0.8c0.4,0,0.8,0.4,0.8,0.8v13.1c0,0.4-0.3,0.8-0.8,0.8
			c-0.4,0-0.8-0.3-0.8-0.8V79.6z"/>
		<path fill="#FFFFFF" d="M197.4,79.6c0-0.4,0.3-0.8,0.8-0.8c0.4,0,0.8,0.4,0.8,0.8v13.1c0,0.4-0.3,0.8-0.8,0.8
			c-0.4,0-0.8-0.3-0.8-0.8V79.6z"/>
		<path fill="#FFFFFF" d="M202.5,83.8c0-0.4,0.3-0.8,0.8-0.8c0.4,0,0.8,0.3,0.8,0.8v1.4c0.8-1.2,2-2.3,3.9-2.3
			c2.5,0,4.9,1.9,4.9,5.3v0c0,3.4-2.4,5.3-4.9,5.3c-1.9,0-3.1-1-3.9-2.2v4.5c0,0.4-0.3,0.8-0.8,0.8s-0.8-0.3-0.8-0.8V83.8z
			 M211.3,88.3L211.3,88.3c0-2.5-1.7-4-3.6-4c-1.9,0-3.7,1.6-3.7,3.9v0c0,2.4,1.8,4,3.7,4C209.7,92.2,211.3,90.8,211.3,88.3z"/>
		<path fill="#FFFFFF" d="M215.8,79.6c0-0.4,0.3-0.8,0.8-0.8c0.4,0,0.8,0.4,0.8,0.8v13.1c0,0.4-0.3,0.8-0.8,0.8
			c-0.4,0-0.8-0.3-0.8-0.8V79.6z"/>
		<path fill="#FFFFFF" d="M220.1,90.4L220.1,90.4c0-2.2,1.8-3.4,4.4-3.4c1.3,0,2.2,0.2,3.2,0.4v-0.4c0-1.8-1.1-2.8-3.1-2.8
			c-1,0-1.9,0.2-2.7,0.6c-0.1,0-0.2,0.1-0.3,0.1c-0.4,0-0.7-0.3-0.7-0.7c0-0.3,0.2-0.6,0.4-0.6c1-0.4,2-0.7,3.4-0.7
			c1.4,0,2.6,0.4,3.3,1.1c0.7,0.7,1.1,1.7,1.1,3v5.6c0,0.4-0.3,0.8-0.7,0.8c-0.4,0-0.7-0.3-0.7-0.7v-0.9c-0.7,0.9-1.9,1.8-3.7,1.8
			C222.1,93.6,220.1,92.5,220.1,90.4z M227.7,89.6v-1c-0.8-0.2-1.8-0.4-3-0.4c-1.9,0-3,0.8-3,2.1v0c0,1.3,1.2,2,2.6,2
			C226.2,92.4,227.7,91.3,227.7,89.6z"/>
		<path fill="#FFFFFF" d="M232.8,90.7v-6.2H232c-0.4,0-0.7-0.3-0.7-0.7c0-0.4,0.3-0.7,0.7-0.7h0.8v-2.4c0-0.4,0.3-0.8,0.8-0.8
			c0.4,0,0.8,0.4,0.8,0.8v2.4h2.7c0.4,0,0.7,0.3,0.7,0.7c0,0.4-0.3,0.7-0.7,0.7h-2.7v6c0,1.3,0.7,1.7,1.7,1.7c0.5,0,0.8-0.1,0.9-0.1
			c0.4,0,0.7,0.3,0.7,0.7c0,0.3-0.2,0.5-0.4,0.6c-0.4,0.2-0.9,0.3-1.5,0.3C234.1,93.6,232.8,92.8,232.8,90.7z"/>
		<path fill="#FFFFFF" d="M239.8,92.3c-0.1-0.1-0.3-0.3-0.3-0.6c0-0.4,0.3-0.7,0.7-0.7c0.1,0,0.3,0,0.4,0.1c1.1,0.7,2.1,1.1,3.3,1.1
			c1.2,0,2.1-0.6,2.1-1.6v0c0-1-1.2-1.4-2.6-1.8c-1.6-0.5-3.4-1-3.4-2.9v0c0-1.8,1.5-2.9,3.5-2.9c1.1,0,2.3,0.3,3.3,0.9
			c0.2,0.1,0.4,0.3,0.4,0.6c0,0.4-0.3,0.7-0.7,0.7c-0.1,0-0.3,0-0.3-0.1c-0.9-0.5-1.8-0.8-2.7-0.8c-1.2,0-2,0.6-2,1.5v0
			c0,1,1.3,1.3,2.6,1.8c1.6,0.5,3.3,1.1,3.3,2.9v0c0,1.9-1.6,3.1-3.6,3.1C242.4,93.6,240.9,93.1,239.8,92.3z"/>
		<path fill="#FFFFFF" d="M254.7,93.6c-2.8,0-5.1-2.2-5.1-5.3v0c0-3,2.1-5.3,4.9-5.3c3,0,4.8,2.5,4.8,5.2c0,0.4-0.3,0.7-0.7,0.7
			h-7.4c0.2,2.2,1.8,3.5,3.6,3.5c1.3,0,2.2-0.5,3-1.2c0.1-0.1,0.3-0.2,0.4-0.2c0.4,0,0.7,0.3,0.7,0.7c0,0.2-0.1,0.4-0.2,0.5
			C257.6,93,256.4,93.6,254.7,93.6z M257.7,87.7c-0.2-1.9-1.2-3.5-3.3-3.5c-1.8,0-3.1,1.5-3.3,3.5H257.7z"/>
		<path fill="#FFFFFF" d="M261.9,83.8c0-0.4,0.3-0.8,0.8-0.8c0.4,0,0.8,0.3,0.8,0.8v1.1c0.7-1.1,1.7-2,3.5-2c2.5,0,3.9,1.7,3.9,4.1
			v5.7c0,0.4-0.3,0.8-0.8,0.8c-0.4,0-0.8-0.3-0.8-0.8v-5.3c0-1.9-1-3.1-2.8-3.1c-1.8,0-3.1,1.3-3.1,3.2v5.2c0,0.4-0.3,0.8-0.8,0.8
			s-0.8-0.3-0.8-0.8V83.8z"/>
		<path fill="#FFFFFF" d="M275.2,91.2c0.5,0,0.9,0.4,0.9,0.9v0.4c0,0.5-0.4,1-0.9,1c-0.6,0-1-0.4-1-1v-0.4
			C274.2,91.6,274.6,91.2,275.2,91.2z M274.2,80.1c0-0.4,0.2-0.6,0.6-0.6h0.7c0.4,0,0.6,0.3,0.6,0.6l-0.5,9c0,0.3-0.2,0.5-0.5,0.5
			c-0.3,0-0.5-0.2-0.5-0.5L274.2,80.1z"/>
	</g>
	<g id="_x34_ede05e5-943f-462a-af36-588ff228473f">
		<g>
			<g>
				<g enable-background="new    ">
					<path fill="#FFFFFF" d="M137.6,17.4c-0.4-0.3-0.7-0.8-0.7-1.3c0-0.9,0.7-1.6,1.6-1.6c0.5,0,0.8,0.2,1,0.3
						c1.2,0.9,2.5,1.4,4.1,1.4c1.4,0,2.3-0.6,2.3-1.5v0c0-0.9-0.5-1.3-3.2-2c-3.2-0.8-5.3-1.7-5.3-4.8v0c0-2.9,2.3-4.8,5.6-4.8
						c1.9,0,3.6,0.5,5,1.4c0.4,0.2,0.8,0.7,0.8,1.4c0,0.9-0.7,1.6-1.6,1.6c-0.3,0-0.6-0.1-0.9-0.2C145.2,6.4,144.1,6,143,6
						c-1.3,0-2,0.6-2,1.4v0c0,1,0.7,1.4,3.4,2.1c3.2,0.8,5,2,5,4.8v0c0,3.2-2.4,4.9-5.8,4.9C141.5,19.3,139.4,18.6,137.6,17.4z"/>
					<path fill="#FFFFFF" d="M163.3,17.4c0,1-0.8,1.7-1.7,1.7c-1,0-1.7-0.8-1.7-1.7v-0.1c-0.8,1-1.8,2-3.6,2c-2.6,0-4.1-1.7-4.1-4.5
						l0-6.3c0-1,0.8-1.7,1.7-1.7c1,0,1.7,0.8,1.7,1.7l0,5.2c0,1.6,0.8,2.5,2.1,2.5c1.3,0,2.2-0.8,2.2-2.5l0-5.2c0-1,0.8-1.7,1.7-1.7
						c1,0,1.7,0.8,1.7,1.7L163.3,17.4z"/>
					<path fill="#FFFFFF" d="M165.7,13L165.7,13c0-3.5,2.8-6.4,6.6-6.4c3.8,0,6.6,2.8,6.6,6.3v0c0,3.5-2.8,6.3-6.6,6.3
						C168.5,19.3,165.7,16.5,165.7,13z M175.5,13L175.5,13c0-1.8-1.3-3.4-3.2-3.4c-2,0-3.2,1.5-3.2,3.3v0c0,1.8,1.3,3.4,3.2,3.4
						C174.3,16.3,175.5,14.8,175.5,13z"/>
					<path fill="#FFFFFF" d="M181,17.9c-0.4-0.2-0.7-0.6-0.7-1.2c0-0.8,0.6-1.4,1.4-1.4c0.2,0,0.5,0.1,0.7,0.2
						c1.2,0.7,2.3,1.1,3.3,1.1c1,0,1.5-0.4,1.5-0.9v0c0-0.7-1.2-1-2.5-1.4c-1.7-0.5-3.6-1.3-3.6-3.6v0c0-2.5,2-3.9,4.4-3.9
						c1.3,0,2.6,0.3,3.8,0.9c0.5,0.2,0.8,0.7,0.8,1.3c0,0.8-0.6,1.4-1.4,1.4c-0.2,0-0.4,0-0.6-0.2c-1-0.5-1.9-0.8-2.6-0.8
						c-0.8,0-1.3,0.4-1.3,0.8v0c0,0.7,1.2,1,2.5,1.5c1.7,0.6,3.7,1.4,3.7,3.6v0c0,2.7-2,3.9-4.6,3.9C184.1,19.2,182.4,18.8,181,17.9
						z"/>
					<path fill="#FFFFFF" d="M192.6,3.9c0-1,0.8-1.6,1.9-1.6c1.1,0,1.9,0.6,1.9,1.6v0c0,1-0.8,1.6-1.9,1.6
						C193.4,5.6,192.6,5,192.6,3.9L192.6,3.9z M192.8,8.4c0-1,0.8-1.7,1.7-1.7c1,0,1.7,0.8,1.7,1.7l0,9c0,1-0.8,1.7-1.7,1.7
						c-1,0-1.7-0.8-1.7-1.7L192.8,8.4z"/>
					<path fill="#FFFFFF" d="M199.9,15.6l0-5.8h-0.1c-0.8,0-1.5-0.7-1.5-1.5s0.7-1.5,1.5-1.5h0.1l0-1.5c0-1,0.8-1.7,1.7-1.7
						c1,0,1.7,0.8,1.7,1.7l0,1.5h1.5c0.8,0,1.5,0.7,1.5,1.5s-0.7,1.5-1.5,1.5h-1.5l0,5.2c0,0.8,0.3,1.2,1.1,1.2c0.1,0,0.3,0,0.4,0
						c0.8,0,1.4,0.6,1.4,1.4c0,0.6-0.4,1.1-0.9,1.3c-0.6,0.3-1.2,0.3-2,0.3C201.4,19.2,199.9,18.4,199.9,15.6z"/>
					<path fill="#FFFFFF" d="M209.5,15.6l0-5.8h-0.1c-0.8,0-1.5-0.7-1.5-1.5s0.7-1.5,1.5-1.5h0.1l0-1.5c0-1,0.8-1.7,1.7-1.7
						c1,0,1.7,0.8,1.7,1.7l0,1.5l1.5,0c0.8,0,1.5,0.7,1.5,1.5s-0.7,1.5-1.5,1.5l-1.5,0l0,5.2c0,0.8,0.3,1.2,1.1,1.2
						c0.1,0,0.3,0,0.4,0c0.8,0,1.4,0.6,1.4,1.4c0,0.6-0.4,1.1-0.9,1.3c-0.6,0.2-1.2,0.3-2,0.3C210.9,19.2,209.5,18.4,209.5,15.6z"/>
					<path fill="#FFFFFF" d="M223.7,19.3c-3.7,0-6.4-2.6-6.4-6.3v0c0-3.5,2.5-6.3,6-6.3c4.1,0,5.9,3.3,5.9,5.8c0,1-0.7,1.7-1.6,1.7
						l-6.8,0c0.3,1.6,1.4,2.4,3,2.4c1,0,1.7-0.3,2.4-0.8c0.2-0.2,0.5-0.3,0.8-0.3c0.8,0,1.3,0.6,1.3,1.4c0,0.5-0.2,0.8-0.5,1
						C226.9,18.7,225.5,19.3,223.7,19.3z M226,12c-0.2-1.5-1.1-2.6-2.6-2.6c-1.4,0-2.4,1-2.6,2.6L226,12z"/>
					<path fill="#FFFFFF" d="M231.9,4c0-1,0.8-1.7,1.7-1.7c1,0,1.7,0.8,1.7,1.7l0,13.4c0,1-0.8,1.7-1.7,1.7c-1,0-1.7-0.8-1.7-1.7
						L231.9,4z"/>
					<path fill="#FFFFFF" d="M244.2,19.3c-3.7,0-6.4-2.6-6.4-6.3v0c0-3.5,2.5-6.3,6-6.3c4.1,0,5.9,3.3,5.9,5.8c0,1-0.7,1.7-1.6,1.7
						l-6.8,0c0.3,1.6,1.4,2.4,3,2.4c1,0,1.7-0.3,2.4-0.8c0.2-0.2,0.5-0.3,0.8-0.3c0.8,0,1.3,0.6,1.3,1.4c0,0.5-0.2,0.8-0.5,1
						C247.4,18.7,246,19.3,244.2,19.3z M246.4,12c-0.2-1.5-1.1-2.6-2.6-2.6c-1.4,0-2.4,1-2.6,2.6L246.4,12z"/>
					<path fill="#FFFFFF" d="M252.3,8.4c0-1,0.8-1.7,1.7-1.7s1.7,0.8,1.7,1.7v0.1c0.8-1,1.8-2,3.6-2c1.6,0,2.8,0.7,3.4,1.9
						c1.1-1.2,2.3-1.9,4-1.9c2.6,0,4.1,1.5,4.1,4.5l0,6.3c0,1-0.8,1.7-1.7,1.7c-1,0-1.7-0.8-1.7-1.7l0-5.2c0-1.6-0.7-2.5-2-2.5
						c-1.3,0-2.1,0.8-2.1,2.5l0,5.2c0,1-0.8,1.7-1.7,1.7c-1,0-1.7-0.8-1.7-1.7l0-5.2c0-1.6-0.7-2.5-2-2.5c-1.3,0-2.1,0.8-2.1,2.5
						l0,5.2c0,1-0.8,1.7-1.7,1.7s-1.7-0.8-1.7-1.7L252.3,8.4z"/>
					<path fill="#FFFFFF" d="M273.9,8.4c0-1,0.8-1.7,1.7-1.7c1,0,1.7,0.8,1.7,1.7v0.1c0.8-1,1.8-2,3.6-2c1.6,0,2.8,0.7,3.4,1.9
						c1.1-1.2,2.3-1.9,4-1.9c2.6,0,4.1,1.5,4.1,4.5l0,6.3c0,1-0.8,1.7-1.7,1.7c-1,0-1.7-0.8-1.7-1.7l0-5.2c0-1.6-0.7-2.5-2-2.5
						c-1.3,0-2.1,0.8-2.1,2.5l0,5.2c0,1-0.8,1.7-1.7,1.7c-1,0-1.7-0.8-1.7-1.7l0-5.2c0-1.6-0.7-2.5-2-2.5c-1.3,0-2.1,0.8-2.1,2.5
						l0,5.2c0,1-0.8,1.7-1.7,1.7c-1,0-1.7-0.8-1.7-1.7L273.9,8.4z"/>
					<path fill="#FFFFFF" d="M301.3,19.2c-3.7,0-6.4-2.6-6.4-6.3v0c0-3.5,2.5-6.3,6-6.3c4.1,0,5.9,3.3,5.9,5.8c0,1-0.7,1.7-1.6,1.7
						l-6.8,0c0.3,1.6,1.4,2.4,3,2.4c1,0,1.7-0.3,2.4-0.8c0.3-0.2,0.5-0.3,0.8-0.3c0.8,0,1.3,0.6,1.3,1.4c0,0.5-0.2,0.8-0.5,1
						C304.4,18.7,303.1,19.2,301.3,19.2z M303.5,11.9c-0.2-1.5-1.1-2.6-2.6-2.6c-1.4,0-2.4,1-2.6,2.6L303.5,11.9z"/>
					<path fill="#FFFFFF" d="M308.8,21.1c1.2-0.3,1.8-1.1,1.7-2.2c-0.8-0.2-1.6-0.9-1.6-1.9v0c0-1.1,0.7-1.9,1.9-1.9
						c1.3,0,2,1,2,2.5v0.1c0,1.7-0.5,2.9-1.3,3.7c-0.7,0.7-1.7,1.1-2.5,1.1c-0.6,0-0.9-0.4-0.9-0.8S308.4,21.2,308.8,21.1z"/>
					<path fill="#FFFFFF" d="M328.2,19.2c-3.7,0-6.3-2.6-6.4-6.3v0c0-3.5,2.5-6.3,6-6.3c4.1,0,5.9,3.3,5.9,5.8c0,1-0.7,1.7-1.6,1.7
						l-6.8,0c0.3,1.6,1.4,2.4,3,2.4c1,0,1.7-0.3,2.4-0.8c0.3-0.2,0.5-0.3,0.8-0.3c0.8,0,1.3,0.6,1.3,1.4c0,0.5-0.2,0.8-0.5,1
						C331.4,18.6,330,19.2,328.2,19.2z M330.5,11.9c-0.2-1.5-1.1-2.6-2.6-2.6c-1.4,0-2.4,1-2.6,2.6L330.5,11.9z"/>
					<path fill="#FFFFFF" d="M336.1,3.9c0-1,0.8-1.6,1.9-1.6c1.1,0,1.9,0.6,1.9,1.6v0c0,1-0.8,1.6-1.9,1.6
						C337,5.6,336.1,4.9,336.1,3.9L336.1,3.9z M336.3,8.4c0-1,0.8-1.7,1.7-1.7c1,0,1.7,0.8,1.7,1.7l0,9c0,1-0.8,1.7-1.7,1.7
						c-1,0-1.7-0.8-1.7-1.7L336.3,8.4z"/>
					<path fill="#FFFFFF" d="M350.4,15.5l0-5.8h-0.1c-0.8,0-1.5-0.7-1.5-1.5c0-0.8,0.7-1.5,1.5-1.5h0.1l0-1.5c0-1,0.8-1.7,1.7-1.7
						c1,0,1.7,0.8,1.7,1.7l0,1.5l1.5,0c0.8,0,1.5,0.7,1.5,1.5c0,0.8-0.7,1.5-1.5,1.5l-1.5,0l0,5.2c0,0.8,0.3,1.2,1.1,1.2
						c0.1,0,0.3,0,0.4,0c0.8,0,1.4,0.6,1.4,1.4c0,0.6-0.4,1.1-0.9,1.3c-0.6,0.2-1.2,0.3-2,0.3C351.8,19.1,350.4,18.3,350.4,15.5z"/>
					<path fill="#FFFFFF" d="M370.1,17.3c0,1-0.8,1.7-1.7,1.7c-1,0-1.7-0.8-1.7-1.7v-0.1c-0.8,1-1.8,2-3.6,2c-2.6,0-4.1-1.7-4.1-4.5
						l0-6.3c0-1,0.8-1.7,1.7-1.7c1,0,1.7,0.8,1.7,1.7l0,5.2c0,1.6,0.8,2.5,2.1,2.5c1.3,0,2.2-0.8,2.2-2.5l0-5.2c0-1,0.8-1.7,1.7-1.7
						c1,0,1.7,0.8,1.7,1.7L370.1,17.3z"/>
					<path fill="#FFFFFF" d="M373.3,8.4c0-1,0.8-1.7,1.7-1.7c1,0,1.7,0.8,1.7,1.7v0.2c0.8-1.1,2-2,3.8-2c2.8,0,5.5,2.2,5.5,6.3v0
						c0,4.1-2.6,6.3-5.5,6.3c-1.8,0-3-0.8-3.8-1.8l0,3.6c0,1-0.8,1.7-1.7,1.7c-1,0-1.7-0.8-1.7-1.7L373.3,8.4z M382.6,12.9
						L382.6,12.9c0-2.1-1.4-3.4-3-3.4c-1.6,0-2.9,1.3-2.9,3.4v0c0,2,1.3,3.4,2.9,3.4C381.3,16.2,382.6,14.9,382.6,12.9z"/>
					<path fill="#FFFFFF" d="M387.8,15.4L387.8,15.4c0-2.7,2-3.9,4.9-3.9c1.2,0,2.1,0.2,3,0.5v-0.2c0-1.4-0.9-2.2-2.6-2.2
						c-1,0-1.7,0.1-2.4,0.3c-0.2,0.1-0.3,0.1-0.5,0.1c-0.8,0-1.4-0.6-1.4-1.4c0-0.6,0.4-1.1,0.9-1.3c1.1-0.4,2.3-0.6,3.9-0.6
						c1.9,0,3.2,0.5,4.1,1.4c0.9,0.9,1.3,2.2,1.3,3.9l0,5.5c0,0.9-0.7,1.7-1.7,1.7c-1,0-1.7-0.7-1.7-1.4v0c-0.8,0.9-2,1.5-3.7,1.5
						C389.7,19.1,387.8,17.8,387.8,15.4z M395.7,14.6V14c-0.6-0.3-1.4-0.5-2.2-0.5c-1.5,0-2.4,0.6-2.4,1.7v0c0,0.9,0.8,1.5,1.9,1.5
						C394.6,16.8,395.7,15.9,395.7,14.6z"/>
					<path fill="#FFFFFF" d="M402,3.9c0-1,0.8-1.7,1.7-1.7s1.7,0.8,1.7,1.7l0,7.5l4.3-4.1c0.5-0.5,0.9-0.8,1.5-0.8
						c0.9,0,1.5,0.7,1.5,1.5c0,0.6-0.3,1-0.8,1.5l-2.7,2.3l3.2,4.4c0.3,0.4,0.4,0.7,0.4,1.1c0,0.9-0.7,1.6-1.6,1.6
						c-0.7,0-1.1-0.2-1.5-0.8l-3-4.1l-1.4,1.2l0,2c0,1-0.8,1.7-1.7,1.7s-1.7-0.8-1.7-1.7L402,3.9z"/>
					<path fill="#FFFFFF" d="M414.4,12.9L414.4,12.9c0-3.5,2.8-6.4,6.6-6.4c3.8,0,6.6,2.8,6.6,6.3v0c0,3.5-2.8,6.3-6.6,6.3
						C417.2,19.2,414.4,16.4,414.4,12.9z M424.1,12.9L424.1,12.9c0-1.8-1.3-3.4-3.2-3.4c-2,0-3.2,1.5-3.2,3.3v0
						c0,1.8,1.3,3.4,3.2,3.4C423,16.2,424.2,14.7,424.1,12.9z"/>
					<path fill="#FFFFFF" d="M429.9,3.8c0-1,0.8-1.6,1.9-1.6c1.1,0,1.9,0.6,1.9,1.6v0c0,1-0.8,1.6-1.9,1.6
						C430.7,5.5,429.9,4.9,429.9,3.8L429.9,3.8z M430.1,8.3c0-1,0.8-1.7,1.7-1.7c1,0,1.7,0.8,1.7,1.7l0,9c0,1-0.8,1.7-1.7,1.7
						c-1,0-1.7-0.8-1.7-1.7L430.1,8.3z"/>
					<path fill="#FFFFFF" d="M436.7,8.3c0-1,0.8-1.7,1.7-1.7c1,0,1.7,0.8,1.7,1.7v0.1c0.8-1,1.8-2,3.6-2c2.6,0,4.1,1.7,4.1,4.5
						l0,6.3c0,1-0.8,1.7-1.7,1.7c-1,0-1.7-0.8-1.7-1.7l0-5.2c0-1.6-0.8-2.5-2.1-2.5c-1.3,0-2.2,0.8-2.2,2.5l0,5.2
						c0,1-0.8,1.7-1.7,1.7c-1,0-1.7-0.8-1.7-1.7L436.7,8.3z"/>
					<path fill="#FFFFFF" d="M451.3,15.4l0-5.8h-0.1c-0.8,0-1.5-0.7-1.5-1.5c0-0.8,0.7-1.5,1.5-1.5h0.1l0-1.5c0-1,0.8-1.7,1.7-1.7
						c1,0,1.7,0.8,1.7,1.7l0,1.5l1.5,0c0.8,0,1.5,0.7,1.5,1.5c0,0.8-0.7,1.5-1.5,1.5l-1.5,0l0,5.2c0,0.8,0.3,1.2,1.1,1.2
						c0.1,0,0.3,0,0.4,0c0.8,0,1.4,0.6,1.4,1.4c0,0.6-0.4,1.1-0.9,1.3c-0.6,0.2-1.2,0.3-2,0.3C452.7,19.1,451.3,18.3,451.3,15.4z"/>
					<path fill="#FFFFFF" d="M459.9,3.8c0-1,0.8-1.6,1.9-1.6c1.1,0,1.9,0.6,1.9,1.6v0c0,1-0.8,1.6-1.9,1.6
						C460.8,5.5,459.9,4.9,459.9,3.8L459.9,3.8z M460.1,8.3c0-1,0.8-1.7,1.7-1.7c1,0,1.7,0.8,1.7,1.7l0,9c0,1-0.8,1.7-1.7,1.7
						c-1,0-1.7-0.8-1.7-1.7L460.1,8.3z"/>
					<path fill="#FFFFFF" d="M466,15.4L466,15.4c0-2.7,2-3.9,4.9-3.9c1.2,0,2.1,0.2,3,0.5v-0.2c0-1.4-0.9-2.2-2.6-2.2
						c-1,0-1.7,0.1-2.4,0.3c-0.2,0.1-0.3,0.1-0.5,0.1c-0.8,0-1.4-0.6-1.4-1.4c0-0.6,0.4-1.1,0.9-1.3c1.1-0.4,2.3-0.6,3.9-0.6
						c1.9,0,3.2,0.5,4.1,1.4c0.9,0.9,1.3,2.2,1.3,3.9l0,5.5c0,0.9-0.7,1.7-1.7,1.7c-1,0-1.7-0.7-1.7-1.4v0c-0.8,0.9-2,1.5-3.7,1.5
						C467.9,19.1,466,17.8,466,15.4z M473.9,14.6l0-0.6c-0.6-0.3-1.4-0.5-2.2-0.5c-1.5,0-2.4,0.6-2.4,1.7v0c0,0.9,0.8,1.5,1.9,1.5
						C472.8,16.7,473.9,15.8,473.9,14.6z"/>
					<path fill="#FFFFFF" d="M137.6,34c0-1,0.8-1.7,1.7-1.7c1,0,1.7,0.8,1.7,1.7v0.2c0.8-1.1,2-2,3.8-2c2.8,0,5.5,2.2,5.5,6.3v0
						c0,4.1-2.7,6.3-5.5,6.3c-1.8,0-3-0.8-3.8-1.8l0,3.6c0,1-0.8,1.7-1.7,1.7c-1,0-1.7-0.8-1.7-1.7L137.6,34z M146.9,38.5
						L146.9,38.5c0-2.1-1.4-3.4-3-3.4s-2.9,1.3-2.9,3.4v0c0,2,1.3,3.4,2.9,3.4S146.9,40.5,146.9,38.5z"/>
					<path fill="#FFFFFF" d="M153.1,47.9c-0.5-0.2-1.1-0.6-1.1-1.4s0.7-1.4,1.4-1.4c0.3,0,0.4,0,0.6,0.1c0.3,0.1,0.5,0.1,0.7,0.1
						c0.6,0,0.9-0.1,1.2-0.7l0.1-0.3l-4.2-9.6c-0.1-0.2-0.2-0.6-0.2-0.8c0-1,0.7-1.7,1.7-1.7c0.9,0,1.4,0.5,1.7,1.3l2.6,7.1l2.5-7.1
						c0.3-0.7,0.8-1.3,1.7-1.3c0.9,0,1.6,0.7,1.6,1.6c0,0.3-0.1,0.7-0.2,0.8l-4.2,10.2c-1,2.5-2,3.4-4.1,3.4
						C154.2,48.2,153.7,48.1,153.1,47.9z"/>
					<path fill="#FFFFFF" d="M165.2,43.4c-0.4-0.2-0.7-0.6-0.7-1.2c0-0.8,0.6-1.4,1.4-1.4c0.2,0,0.5,0.1,0.7,0.2
						c1.2,0.7,2.3,1.1,3.3,1.1c1,0,1.5-0.4,1.5-0.9v0c0-0.7-1.2-1-2.5-1.4c-1.7-0.5-3.6-1.3-3.6-3.6l0,0c0-2.5,2-3.9,4.4-3.9
						c1.3,0,2.6,0.3,3.8,0.9c0.5,0.2,0.8,0.7,0.8,1.3c0,0.8-0.6,1.4-1.4,1.4c-0.2,0-0.4,0-0.6-0.2c-1-0.5-1.9-0.8-2.6-0.8
						c-0.8,0-1.3,0.4-1.3,0.8v0c0,0.7,1.2,1,2.5,1.4c1.7,0.6,3.7,1.4,3.7,3.6v0c0,2.7-2,3.9-4.6,3.9
						C168.3,44.8,166.7,44.3,165.2,43.4z"/>
					<path fill="#FFFFFF" d="M176.3,41L176.3,41c0-2.7,2-3.9,4.9-3.9c1.2,0,2.1,0.2,3,0.5v-0.2c0-1.4-0.9-2.2-2.6-2.2
						c-1,0-1.7,0.1-2.4,0.3c-0.2,0.1-0.3,0.1-0.5,0.1c-0.8,0-1.4-0.6-1.4-1.4c0-0.6,0.4-1.1,0.9-1.3c1.1-0.4,2.3-0.6,3.9-0.6
						c1.9,0,3.2,0.5,4.1,1.4c0.9,0.9,1.3,2.2,1.3,3.9l0,5.5c0,0.9-0.7,1.7-1.7,1.7c-1,0-1.7-0.7-1.7-1.4v0c-0.8,0.9-2,1.5-3.7,1.5
						C178.2,44.8,176.3,43.4,176.3,41z M181.6,29.5L181.6,29.5c0,1-0.8,1.7-1.8,1.7c-1,0-1.8-0.7-1.8-1.7v0c0-1,0.8-1.7,1.8-1.7
						C180.8,27.8,181.6,28.5,181.6,29.5z M184.2,40.2v-0.6c-0.6-0.3-1.4-0.5-2.2-0.5c-1.5,0-2.4,0.6-2.4,1.7v0
						c0,0.9,0.8,1.5,1.9,1.5C183.1,42.4,184.2,41.5,184.2,40.2z M186.4,29.5L186.4,29.5c0,1-0.8,1.7-1.8,1.7s-1.8-0.7-1.8-1.7v0
						c0-1,0.8-1.7,1.8-1.7S186.4,28.5,186.4,29.5z"/>
					<path fill="#FFFFFF" d="M190.5,29.6c0-1,0.8-1.7,1.7-1.7c1,0,1.7,0.8,1.7,1.7l0,7.5l4.3-4.1c0.5-0.5,0.9-0.8,1.5-0.8
						c0.9,0,1.5,0.7,1.5,1.5c0,0.6-0.3,1-0.8,1.5l-2.7,2.3L201,42c0.3,0.4,0.4,0.7,0.4,1.1c0,0.9-0.7,1.6-1.6,1.6
						c-0.7,0-1.1-0.2-1.5-0.8l-3-4.1L194,41l0,2c0,1-0.8,1.7-1.7,1.7c-1,0-1.7-0.8-1.7-1.7L190.5,29.6z"/>
					<path fill="#FFFFFF" d="M203.7,29.5c0-1,0.8-1.6,1.9-1.6c1.1,0,1.9,0.6,1.9,1.6v0c0,1-0.8,1.6-1.9,1.6
						C204.5,31.1,203.7,30.5,203.7,29.5L203.7,29.5z M203.9,33.9c0-1,0.8-1.7,1.7-1.7c1,0,1.7,0.8,1.7,1.7l0,9c0,1-0.8,1.7-1.7,1.7
						c-1,0-1.7-0.8-1.7-1.7L203.9,33.9z"/>
					<path fill="#FFFFFF" d="M210.6,29.5c0-1,0.8-1.7,1.7-1.7c1,0,1.7,0.8,1.7,1.7l0,13.4c0,1-0.8,1.7-1.7,1.7c-1,0-1.7-0.8-1.7-1.7
						L210.6,29.5z"/>
					<path fill="#FFFFFF" d="M217.3,29.5c0-1,0.8-1.7,1.7-1.7c1,0,1.7,0.8,1.7,1.7l0,13.4c0,1-0.8,1.7-1.7,1.7c-1,0-1.7-0.8-1.7-1.7
						L217.3,29.5z"/>
					<path fill="#FFFFFF" d="M223.3,41L223.3,41c0-2.7,2-3.9,4.9-3.9c1.2,0,2.1,0.2,3,0.5v-0.2c0-1.4-0.9-2.2-2.6-2.2
						c-1,0-1.7,0.1-2.4,0.3c-0.2,0.1-0.3,0.1-0.5,0.1c-0.8,0-1.4-0.6-1.4-1.4c0-0.6,0.4-1.1,0.9-1.3c1.1-0.4,2.3-0.6,3.9-0.6
						c1.9,0,3.2,0.5,4.1,1.4c0.9,0.9,1.3,2.2,1.3,3.9l0,5.5c0,0.9-0.7,1.7-1.7,1.7c-1,0-1.7-0.7-1.7-1.4v0c-0.8,0.9-2,1.5-3.7,1.5
						C225.2,44.7,223.3,43.4,223.3,41z M228.6,29.4L228.6,29.4c0,1-0.8,1.7-1.8,1.7c-1,0-1.8-0.7-1.8-1.7v0c0-1,0.8-1.7,1.8-1.7
						C227.8,27.8,228.6,28.5,228.6,29.4z M231.2,40.2v-0.6c-0.6-0.3-1.4-0.5-2.2-0.5c-1.5,0-2.4,0.6-2.4,1.7v0
						c0,0.9,0.8,1.5,1.9,1.5C230.1,42.3,231.2,41.5,231.2,40.2z M233.4,29.4L233.4,29.4c0,1-0.8,1.7-1.8,1.7c-1,0-1.8-0.7-1.8-1.7v0
						c0-1,0.8-1.7,1.8-1.7C232.6,27.8,233.4,28.5,233.4,29.4z"/>
					<path fill="#FFFFFF" d="M237.4,29.7c-0.1-0.7,0.3-1.2,0.9-1.2l2.2,0c0.6,0,1,0.5,0.9,1.2l-1,8.5c-0.1,0.6-0.5,1-1,1s-1-0.4-1-1
						L237.4,29.7z M239.4,40.7c1.1,0,2,0.8,2,1.9v0c0,1.1-0.8,1.9-2,1.9c-1.1,0-2-0.8-2-1.9v0C237.4,41.6,238.3,40.7,239.4,40.7z"/>
				</g>
			</g>
		</g>
	</g>
</g>
</svg>
