<svg xmlns="http://www.w3.org/2000/svg" viewBox="0 0 130.32401 150.962">
  <path d="M130.324 12.72v112.322c0 3.84-2.4 6-5.04 6.72l-7.2 1.2v15.12c0 1.68-1.44 2.88-3.36 2.88h-11.52c-1.44 0-3.12-1.2-3.12-2.88v-13.44c-9.12 1.2-22.32 1.68-35.282 1.68-12.72 0-25.44-.48-34.8-1.68v13.44c0 1.68-1.44 2.88-2.88 2.88H15.6c-1.92 0-3.36-1.2-3.36-2.88v-15.12l-7.2-1.2c-2.4-.72-5.04-3.12-5.04-6.72V12.72c0-5.04 3.36-8.4 9.12-9.12C28.08.96 45.36 0 65.28 0c19.202 0 36.722 1.2 55.922 3.6 5.762.72 9.122 4.08 9.122 9.12zm-10.32 7.68c0-3.12-1.2-5.28-5.04-5.28l-99.122-.48c-3.84 0-5.28 2.16-5.28 5.28v70.082c0 3.12 1.44 4.56 5.28 5.28 13.92 3.12 31.44 5.28 49.92 5.28 17.522 0 35.522-2.4 49.202-4.8 3.84-.48 5.04-2.16 5.04-5.28V20.4zm-92.882 94.562c0-3.12-2.88-6-6.24-6-3.36 0-6.24 2.88-6.48 6 0 3.36 2.88 6.24 6.48 6.48 3.36 0 6.24-2.88 6.24-6.48zm87.602 0c0-3.12-2.88-6-6.24-6-3.12 0-6 2.88-6.24 6 0 3.36 2.88 6.24 6.24 6.48 3.36 0 6.24-2.88 6.24-6.48z" fill="#fff"/>
</svg>
