<?xml version="1.0" encoding="UTF-8"?>
<svg id="Layer_1" xmlns="http://www.w3.org/2000/svg" version="1.1" viewBox="0 0 141.73 141.73">
  <!-- Generator: Adobe Illustrator 29.8.1, SVG Export Plug-In . SVG Version: 2.1.1 Build 2)  -->
  <defs>
    <style>
      .st0 {
        stroke-width: 4.64px;
      }

      .st0, .st1 {
        stroke: #fff;
      }

      .st0, .st1, .st2, .st3 {
        stroke-linecap: round;
        stroke-linejoin: round;
      }

      .st0, .st3 {
        fill: none;
      }

      .st1 {
        fill: #fff;
        stroke-width: .65px;
      }

      .st2 {
        stroke-width: 7.44px;
      }

      .st2, .st4 {
        fill: #0c7dc1;
      }

      .st2, .st3 {
        stroke: #0c7dc1;
      }

      .st3 {
        stroke-width: 6.39px;
      }
    </style>
  </defs>
  <circle class="st1" cx="71.06" cy="71" r="58.15"/>
  <g>
    <path class="st4" d="M95.43,105.34c-.7-1.21-2.01-1.97-3.41-1.97-.69,0-1.36.18-1.96.53-.91.53-1.56,1.38-1.83,2.39-.27,1.02-.13,2.08.4,2.98l2.99,5.19c.7,1.21,2.01,1.97,3.41,1.97.69,0,1.37-.18,1.96-.53.91-.53,1.56-1.37,1.84-2.39.27-1.01.13-2.07-.39-2.98l-3-5.19Z"/>
    <path class="st4" d="M52.06,103.9c-.6-.34-1.28-.53-1.96-.53-1.4,0-2.71.75-3.41,1.97l-3,5.19c-.52.91-.66,1.97-.39,2.98.27,1.02.92,1.86,1.83,2.39.6.35,1.28.53,1.96.53,1.4,0,2.71-.75,3.41-1.97l2.99-5.19c.53-.91.67-1.97.4-2.99-.27-1.01-.92-1.86-1.83-2.39Z"/>
    <path class="st4" d="M34.75,88.02c-.69,0-1.37.18-1.96.53l-5.19,2.99c-.91.52-1.56,1.37-1.84,2.38-.27,1.02-.13,2.08.39,2.99.7,1.21,2.01,1.97,3.41,1.97.69,0,1.37-.18,1.96-.53l5.19-3c.91-.52,1.56-1.37,1.83-2.39.27-1.01.13-2.07-.39-2.99-.7-1.21-2.01-1.96-3.41-1.96Z"/>
    <path class="st4" d="M27.6,50.45l5.19,3c.6.35,1.27.53,1.96.53,1.4,0,2.71-.75,3.41-1.97,1.08-1.88.43-4.29-1.44-5.37l-5.19-2.99c-.6-.34-1.28-.53-1.96-.53-1.4,0-2.71.75-3.41,1.97-.52.91-.66,1.97-.39,2.98.27,1.01.92,1.86,1.83,2.39Z"/>
    <path class="st4" d="M33.06,71c0-2.17-1.76-3.93-3.93-3.93h-5.99c-2.17,0-3.93,1.76-3.93,3.93s1.76,3.93,3.93,3.93h5.99c2.17,0,3.93-1.76,3.93-3.93Z"/>
    <path class="st4" d="M71.06,108.99c-2.17,0-3.93,1.76-3.93,3.93v5.99c0,2.17,1.76,3.93,3.93,3.93s3.93-1.76,3.93-3.93v-5.99c0-2.17-1.76-3.93-3.93-3.93Z"/>
    <path class="st4" d="M114.52,91.55l-5.19-3c-.6-.34-1.27-.52-1.96-.52-1.4,0-2.71.75-3.41,1.97-1.08,1.88-.43,4.29,1.45,5.37l5.19,2.99c.6.35,1.28.53,1.96.53,1.4,0,2.71-.75,3.41-1.97.53-.91.67-1.97.39-2.99-.27-1.01-.92-1.86-1.83-2.38Z"/>
    <path class="st4" d="M109.07,70.98c0,2.17,1.76,3.93,3.93,3.93h5.99c2.17,0,3.93-1.76,3.93-3.93s-1.76-3.93-3.93-3.93h-5.99c-2.17,0-3.93,1.76-3.93,3.93Z"/>
    <path class="st4" d="M50.51,27.54c-.7-1.21-2.01-1.97-3.41-1.97-.69,0-1.37.18-1.96.53-.91.52-1.56,1.37-1.83,2.38-.27,1.02-.14,2.08.39,2.99l3,5.18c.7,1.22,2,1.97,3.41,1.97.68,0,1.36-.18,1.96-.53.91-.52,1.56-1.37,1.83-2.39.27-1.02.13-2.07-.39-2.98l-3-5.19Z"/>
    <path class="st4" d="M95.42,36.63c-.7,1.21-2.01,1.97-3.41,1.97-.69,0-1.36-.18-1.96-.53-.91-.53-1.56-1.38-1.83-2.39-.27-1.02-.13-2.08.4-2.98l2.99-5.19c.7-1.21,2.01-1.97,3.41-1.97.69,0,1.37.18,1.96.53.91.53,1.56,1.37,1.84,2.39.27,1.01.13,2.07-.39,2.98l-3,5.19Z"/>
  </g>
  <g>
    <line class="st2" x1="71.06" y1="71" x2="112.59" y2="47.12"/>
    <line class="st2" x1="71.06" y1="22.95" x2="71.06" y2="71"/>
  </g>
  <circle class="st0" cx="71.06" cy="71" r="58.15"/>
  <circle class="st3" cx="71.06" cy="71" r="63.78"/>
</svg>