<svg id="79a58298-f43a-4cda-b311-59cac559353a" data-name="Layer 2" xmlns="http://www.w3.org/2000/svg" viewBox="0.5 0 637.79999 283.5">
  <title>pikapalaute_mainospala_13102017</title>
  <g>
    <path d="M564.3,137.8v131a9.77418,9.77418,0,0,1-9.7,9.7H62.8a9.7091,9.7091,0,0,1-9.7-9.7V30.3a9.77414,9.77414,0,0,1,9.7-9.7H474.1" fill="#65b32e"/>
    <path d="M564.3,139.1v-.9A74.32944,74.32944,0,1,0,474,20.5h-.1" fill="#65b32e"/>
  </g>
  <path d="M523,33.3a43.1,43.1,0,1,0,43.1,43.1A43.10446,43.10446,0,0,0,523,33.3m15.9,23.5c2.6,0,4.6,2.4,4.6,6.9s-2.1,6.9-4.6,6.9c-2.6,0-4.6-2.4-4.6-6.9s2.1-6.9,4.6-6.9m-31.8,0c2.6,0,4.6,2.4,4.6,6.9s-2.1,6.9-4.6,6.9c-2.6,0-4.6-2.4-4.6-6.9s2-6.9,4.6-6.9m43.4,30.4a30.50693,30.50693,0,0,1-55,0,2.61968,2.61968,0,0,1,1.5-3.4,2.58422,2.58422,0,0,1,3.4,1.5c.2.6,5.8,14,22.6,14s22.4-13.4,22.6-14a2.70633,2.70633,0,0,1,3.4-1.5,2.65571,2.65571,0,0,1,1.5,3.4" fill="#fff"/>
  <rect x="88.7" y="45.00001" width="363.3" height="53.2" fill="none"/>
  <text transform="translate(88.64969 87.42463)" font-size="49" fill="#fff" font-family="GothamXNarrow-Medium, Gotham XNarrow" style="isolation: isolate">HSL PI<tspan x="113.28613" y="0" letter-spacing="-0.015em">K</tspan><tspan x="137.73682" y="0">A</tspan><tspan x="164.34375" y="0" letter-spacing="-0.05198em">P</tspan><tspan x="185.5127" y="0" letter-spacing="-0.00002em">A</tspan><tspan x="212.11914" y="0" letter-spacing="-0.00299em">L</tspan><tspan x="232.20898" y="0" letter-spacing="-0.01501em">A</tspan><tspan x="258.08105" y="0" letter-spacing="0.00002em">UTE</tspan></text>
  <rect x="88.7" y="93.10001" width="400.20003" height="25.9" fill="none"/>
  <text transform="translate(88.65021 126.46467)" font-size="42" fill="#fff" font-family="GothamXNarrow-Book, Gotham XNarrow" style="isolation: isolate">H<tspan x="22.63721" y="0" letter-spacing="-0.00899em">R</tspan><tspan x="43.51172" y="0" letter-spacing="0.00001em">T SNABB RESPONS </tspan></text>
  <rect x="88.7" y="129.9" width="438.70003" height="151.60001" fill="none"/>
  <text transform="translate(88.65039 164.2227)" font-size="22" fill="#fff" font-family="GothamXNarrow-Medium, Gotham XNarrow" style="isolation: isolate">Anna pi<tspan x="60.87305" y="0" letter-spacing="-0.00701em">k</tspan><tspan x="70.09082" y="0">apalau</tspan><tspan x="123.63867" y="0" letter-spacing="-0.01203em">t</tspan><tspan x="129.88574" y="0" letter-spacing="-0.00297em">et</tspan><tspan x="145.81445" y="0">ta tällä </tspan><tspan x="204.86133" y="0" letter-spacing="-0.019em">p</tspan><tspan x="214.95898" y="0" letter-spacing="-0.00799em">y</tspan><tspan x="224.375" y="0">säkillä Q</tspan><tspan x="291.51758" y="0" letter-spacing="-0.00302em">R</tspan><tspan x="302.7373" y="0" letter-spacing="0.00004em">-</tspan><tspan x="310.41602" y="0" letter-spacing="-0.015em">k</tspan><tspan x="319.45801" y="0" letter-spacing="-0.00004em">oodilla </tspan><tspan x="0" y="26.40039">tai </tspan><tspan x="24.81543" y="26.40039" letter-spacing="-0.02399em">v</tspan><tspan x="33.87939" y="26.40039">erk</tspan><tspan x="59.4209" y="26.40039" letter-spacing="-0.015em">k</tspan><tspan x="68.46289" y="26.40039">osivulla.</tspan><tspan font-family="GothamXNarrow-Book, Gotham XNarrow"><tspan x="0" y="57.40039">Ge </tspan><tspan x="25.36572" y="57.40039" letter-spacing="-0.019em">r</tspan><tspan x="31.30566" y="57.40039">espons på denna hållpl</tspan><tspan x="209.0625" y="57.40039" letter-spacing="-0.00502em">a</tspan><tspan x="218.12598" y="57.40039">ts med Q</tspan><tspan x="288.01855" y="57.40039" letter-spacing="-0.00297em">R</tspan><tspan x="299.08496" y="57.40039">-</tspan><tspan x="306.32324" y="57.40039" letter-spacing="-0.019em">k</tspan><tspan x="314.85938" y="57.40039" letter-spacing="-0.00004em">oden </tspan><tspan x="0" y="83.7998">eller på </tspan><tspan x="61.68652" y="83.7998" letter-spacing="-0.01998em">w</tspan><tspan x="75.15039" y="83.7998">ebbpl</tspan><tspan x="119.54492" y="83.7998" letter-spacing="-0.00497em">a</tspan><tspan x="128.60938" y="83.7998" xml:space="preserve">tsen.   </tspan><tspan x="178.92285" y="83.7998" xml:space="preserve" font-family="GothamXNarrow-Medium, Gotham XNarrow" letter-spacing="-0.00004em">  </tspan></tspan></text>
</svg>
