<svg id="6db62430-bd7a-4b43-ac12-f6362d001613" data-name="Infoalue" xmlns="http://www.w3.org/2000/svg" xmlns:xlink="http://www.w3.org/1999/xlink" viewBox="0 0 2194.01 418.09">
  <defs>
    <clipPath id="28868659-29b0-4678-b9f5-ba4967656ea2" transform="translate(-1.42 -11.05)">
      <rect x="1508.92" y="270.87" width="15.6" height="29.58" rx="3.97" ry="3.97" fill="none" stroke="#007ac9" stroke-miterlimit="10" stroke-width="0.75"/>
    </clipPath>
    <clipPath id="71f9b261-60de-45d4-a467-9d94d815e5f3" transform="translate(-1.42 -11.05)">
      <rect x="1508.61" y="308.01" width="15.6" height="29.58" rx="3.97" ry="3.97" fill="none" stroke="#007ac9" stroke-miterlimit="10" stroke-width="0.75"/>
    </clipPath>
    <clipPath id="8268a893-bd1a-4498-9cf8-74c8472210b9" transform="translate(-1.42 -11.05)">
      <rect x="1508.39" y="344.86" width="15.6" height="38.66" rx="3.97" ry="3.97" fill="none" stroke="#007ac9" stroke-miterlimit="10" stroke-width="0.75"/>
    </clipPath>
  </defs>
  <g id="7d9fb1a6-f793-416c-bdb0-d325e0f36777" data-name="HSL www">
    <g>
      <path d="M251.84,154.46a2.89,2.89,0,1,1,5.78,0v20.16h29.57V154.46a2.89,2.89,0,1,1,5.78,0v46a2.89,2.89,0,1,1-5.78,0V180H257.62v20.46a2.89,2.89,0,1,1-5.78,0Z" transform="translate(-1.42 -11.05)" fill="#fff"/>
      <path d="M322.69,178c7.68,0,13.17-3.94,13.17-10.52v-.15c0-6.28-4.83-10.08-13.1-10.08H307V178Zm-21.52-23.16A2.92,2.92,0,0,1,304,151.9H323.2c6.29,0,11.34,1.9,14.57,5.11a14.17,14.17,0,0,1,4,10.09v.14c0,8.41-5.71,13.3-13.69,14.83l12.73,16.37a3.14,3.14,0,0,1,1,2.12,3,3,0,0,1-2.93,2.85,3.37,3.37,0,0,1-2.71-1.54l-14.41-18.7H307v17.32a2.9,2.9,0,1,1-5.79,0Z" transform="translate(-1.42 -11.05)" fill="#fff"/>
      <path d="M361.53,157.23H346.68A2.68,2.68,0,0,1,344,154.6a2.74,2.74,0,0,1,2.71-2.7h35.56a2.75,2.75,0,0,1,2.71,2.7,2.69,2.69,0,0,1-2.71,2.63H367.39v43.26a2.93,2.93,0,0,1-5.86,0Z" transform="translate(-1.42 -11.05)" fill="#fff"/>
      <path d="M250.75,97.75a5.64,5.64,0,0,1,11.27,0v15H282.8v-15a5.64,5.64,0,0,1,11.27,0v40.77a5.64,5.64,0,0,1-11.27,0V123.17H262v15.35a5.64,5.64,0,0,1-11.27,0Z" transform="translate(-1.42 -11.05)" fill="#fff"/>
      <path d="M302.93,138.3a5.26,5.26,0,0,1-2.12-4.24,5.18,5.18,0,0,1,5.27-5.19,5.42,5.42,0,0,1,3.22,1,21.59,21.59,0,0,0,13.1,4.6c4.61,0,7.38-1.82,7.38-4.81v-.15c0-2.85-1.75-4.31-10.31-6.5-10.32-2.64-17-5.48-17-15.64v-.14c0-9.28,7.47-15.42,17.93-15.42a29.81,29.81,0,0,1,16.25,4.53,5.13,5.13,0,0,1,2.49,4.46,5.19,5.19,0,0,1-5.27,5.19,5.45,5.45,0,0,1-2.86-.81c-3.73-2.19-7.24-3.43-10.75-3.43-4.32,0-6.59,2-6.59,4.45v.15c0,3.36,2.19,4.46,11.05,6.72,10.39,2.71,16.24,6.43,16.24,15.34v.15c0,10.16-7.75,15.85-18.8,15.85a33.13,33.13,0,0,1-19.25-6.13" transform="translate(-1.42 -11.05)" fill="#fff"/>
      <path d="M347.7,97.75a5.64,5.64,0,0,1,11.27,0v35.73h20.86a5.11,5.11,0,1,1,0,10.22h-26.5a5.58,5.58,0,0,1-5.63-5.63Z" transform="translate(-1.42 -11.05)" fill="#fff"/>
      <path d="M146.75,152.16c-.23,0-5.2-.11-7.64-4.34,2.49-4.11,7.38-4.26,7.66-4.27,4,0,7,1.82,7,4.3s-2.95,4.31-7,4.31M135.65,191c-1.77,1.76-5.14,1-8-1.91-.16-.16-3.61-3.74-2.33-8.46,4.67-1.14,8.23,2.2,8.44,2.4,2.85,2.86,3.65,6.21,1.89,8m-43.4,17.75c-2.49,0-4.31-2.95-4.31-7,0-.23.11-5.19,4.35-7.63,4.12,2.49,4.27,7.37,4.27,7.65,0,4-1.81,7-4.31,7M57,188.81c-2.86,2.85-6.22,3.65-8,1.89s-1-5.12,1.89-8c.17-.16,3.76-3.61,8.5-2.32,1.13,4.66-2.21,8.19-2.41,8.4M38.2,151.68c-4,0-7-1.81-7-4.29s3-4.31,7-4.31c.22,0,5.2.1,7.64,4.34-2.5,4.11-7.38,4.25-7.67,4.26M49.32,104.2c1.78-1.76,5.14-1,8,1.9.16.16,3.6,3.75,2.33,8.47-4.67,1.14-8.24-2.2-8.44-2.4-2.86-2.86-3.65-6.21-1.9-8M92.73,86.44c2.49,0,4.3,3,4.3,7,0,.23-.1,5.18-4.35,7.62-4.11-2.48-4.26-7.36-4.26-7.64,0-4,1.81-7,4.31-7m35.25,20c2.86-2.86,6.22-3.65,8-1.89s1,5.11-1.9,8c-.16.16-3.76,3.6-8.5,2.31-1.12-4.65,2.22-8.19,2.41-8.39m-7.16,69.68L92.34,187.77,64,175.93l-11.7-28.46,11.88-28.34,28.48-11.66L121,119.31l11.69,28.46Zm25.94-38.38a16.33,16.33,0,0,0-10.21,4.05L128,121a16,16,0,0,0,10.23-4.35c5.24-5.24,6-12,1.88-16.19s-11-3.35-16.24,1.9a16.17,16.17,0,0,0-4.35,10l-20.78-8.67a15.89,15.89,0,0,0,4.14-10.26c0-7.42-4.26-12.81-10.13-12.81S82.58,86,82.58,93.43a16.26,16.26,0,0,0,4.07,10.2L65.8,112.16A15.89,15.89,0,0,0,61.44,102c-5.25-5.25-12.08-6-16.24-1.9s-3.35,11,1.9,16.21a16.25,16.25,0,0,0,10.1,4.35l-8.7,20.75a16,16,0,0,0-10.29-4.13c-7.43,0-12.82,4.26-12.82,10.13s5.39,10.12,12.82,10.12a16.32,16.32,0,0,0,10.22-4.06L57,174.28a16,16,0,0,0-10.22,4.34c-5.24,5.25-6,12-1.89,16.2s11,3.35,16.24-1.9a16.13,16.13,0,0,0,4.36-10l20.77,8.67a15.92,15.92,0,0,0-4.14,10.27c0,7.42,4.26,12.81,10.14,12.81s10.14-5.39,10.14-12.81a16.2,16.2,0,0,0-4.06-10.2l20.85-8.54a15.91,15.91,0,0,0,4.35,10.19c5.26,5.25,12.09,6,16.25,1.9s3.35-11-1.91-16.22a16.27,16.27,0,0,0-10.09-4.35l8.69-20.74A16.06,16.06,0,0,0,146.76,158c7.43,0,12.83-4.26,12.83-10.13s-5.4-10.12-12.83-10.12" transform="translate(-1.42 -11.05)" fill="#fff"/>
      <path d="M195.86,83.54a2.89,2.89,0,1,0-5.78,0V211.69a2.89,2.89,0,1,0,5.78,0Z" transform="translate(-1.42 -11.05)" fill="#fff"/>
      <path d="M207.42,83.54a2.89,2.89,0,1,0-5.78,0V211.69a2.89,2.89,0,1,0,5.78,0Z" transform="translate(-1.42 -11.05)" fill="#fff"/>
    </g>
  </g>
  <g id="1f4c2d1c-2e33-4c77-bf8e-4e859e0bf6d7" data-name="Asiakaspalvelu">
    <text transform="translate(1858.92 176.94)" font-size="24" fill="#fff" font-family="GothamRounded-Medium, Gotham Rounded"><tspan letter-spacing="0.01em">H</tspan><tspan x="18.36" y="0" letter-spacing="0em">S</tspan><tspan x="33.81" y="0">L </tspan><tspan x="55.87" y="0" letter-spacing="0.01em">A</tspan><tspan x="74.65" y="0" letter-spacing="0em">s</tspan><tspan x="86.56" y="0" letter-spacing="0em">i</tspan><tspan x="93.33" y="0" letter-spacing="0em">a</tspan><tspan x="107.45" y="0" letter-spacing="-0.01em">k</tspan><tspan x="121.2" y="0" letter-spacing="0em">a</tspan><tspan x="135.31" y="0" letter-spacing="0em">s</tspan><tspan x="147.38" y="0" letter-spacing="0em">p</tspan><tspan x="163.37" y="0" letter-spacing="0em">a</tspan><tspan x="177.4" y="0" letter-spacing="-0.02em">l</tspan><tspan x="183.82" y="0" letter-spacing="-0.03em">v</tspan><tspan x="197.27" y="0" letter-spacing="-0.01em">e</tspan><tspan x="211.64" y="0" letter-spacing="0em">l</tspan><tspan x="218.44" y="0">u</tspan><tspan font-size="18" font-family="GothamRounded-Book, Gotham Rounded"><tspan x="0" y="21.6" letter-spacing="0.01em">H</tspan><tspan x="13.83" y="21.6" letter-spacing="-0.02em">R</tspan><tspan x="26.49" y="21.6">T </tspan><tspan x="43.56" y="21.6" letter-spacing="-0.03em">K</tspan><tspan x="55.96" y="21.6" letter-spacing="0em">u</tspan><tspan x="66.96" y="21.6" letter-spacing="0em">n</tspan><tspan x="78" y="21.6" letter-spacing="0em">d</tspan><tspan x="89.91" y="21.6" letter-spacing="-0.01em">s</tspan><tspan x="98.71" y="21.6" letter-spacing="0em">e</tspan><tspan x="109.32" y="21.6" letter-spacing="0.01em">r</tspan><tspan x="116.87" y="21.6" letter-spacing="-0.02em">v</tspan><tspan x="127.02" y="21.6" letter-spacing="-0.01em">i</tspan><tspan x="131.56" y="21.6" letter-spacing="-0.01em">c</tspan><tspan x="141.64" y="21.6">e</tspan><tspan x="0" y="43.2" letter-spacing="0em">H</tspan><tspan x="13.75" y="43.2" letter-spacing="0em">S</tspan><tspan x="25.35" y="43.2" letter-spacing="0em">L </tspan><tspan x="41.89" y="43.2" letter-spacing="-0.01em">C</tspan><tspan x="55.06" y="43.2" letter-spacing="0em">us</tspan><tspan x="74.99" y="43.2" letter-spacing="-0.04em">t</tspan><tspan x="81.57" y="43.2" letter-spacing="0em">o</tspan><tspan x="93.15" y="43.2" letter-spacing="0em">me</tspan><tspan x="120.85" y="43.2">r </tspan><tspan x="133.54" y="43.2" letter-spacing="0em">S</tspan><tspan x="145.04" y="43.2" letter-spacing="0em">e</tspan><tspan x="155.66" y="43.2" letter-spacing="0.01em">r</tspan><tspan x="163.2" y="43.2" letter-spacing="-0.02em">v</tspan><tspan x="173.36" y="43.2" letter-spacing="-0.01em">i</tspan><tspan x="177.89" y="43.2" letter-spacing="-0.01em">c</tspan><tspan x="187.98" y="43.2">e</tspan></tspan><tspan x="0" y="78.25" letter-spacing="0em">0</tspan><tspan x="17.28" y="78.25" letter-spacing="0em">9 </tspan><tspan x="40.22" y="78.25" letter-spacing="-0.06em">4</tspan><tspan x="55.27" y="78.25" letter-spacing="-0.03em">7</tspan><tspan x="69.11" y="78.25" letter-spacing="0em">6</tspan><tspan x="84.83" y="78.25" letter-spacing="0em">6 </tspan><tspan x="107.78" y="78.25" letter-spacing="-0.01em">4</tspan><tspan x="124.02" y="78.25" letter-spacing="0em">00</tspan><tspan x="158.9" y="78.25">0</tspan><tspan font-size="18"><tspan x="0" y="108.85" letter-spacing="0.01em">M</tspan><tspan x="15.76" y="108.85" letter-spacing="0.01em">a</tspan><tspan x="26.46" y="108.85" letter-spacing="0em">-</tspan><tspan x="33.88" y="108.85" letter-spacing="0em">p</tspan><tspan x="45.99" y="108.85">e </tspan><tspan x="62.26" y="108.85" letter-spacing="-0.06em">7</tspan><tspan x="72.24" y="108.85" letter-spacing="-0.04em">-</tspan><tspan x="78.85" y="108.85" letter-spacing="0em">1</tspan><tspan x="86.02" y="108.85" letter-spacing="-0.01em">9</tspan><tspan x="97.57" y="108.85" letter-spacing="0em">, </tspan><tspan x="107.82" y="108.85" letter-spacing="0em">l</tspan><tspan x="112.96" y="108.85" letter-spacing="0.01em">a</tspan><tspan x="123.67" y="108.85" letter-spacing="0em">-</tspan><tspan x="130.94" y="108.85" letter-spacing="0em">s</tspan><tspan x="139.99" y="108.85">u </tspan><tspan x="156.54" y="108.85" letter-spacing="0.02em">9</tspan><tspan x="168.8" y="108.85" letter-spacing="-0.04em">-</tspan><tspan x="175.41" y="108.85" letter-spacing="-0.02em">1</tspan><tspan x="182.1" y="108.85">7</tspan></tspan><tspan font-size="18" font-family="GothamRounded-Book, Gotham Rounded"><tspan x="0" y="130.45" letter-spacing="0em">M</tspan><tspan x="15.67" y="130.45" letter-spacing="0em">å</tspan><tspan x="26.06" y="130.45" letter-spacing="0em">n</tspan><tspan x="37.07" y="130.45" letter-spacing="-0.03em">-</tspan><tspan x="43.93" y="130.45" letter-spacing="0em">f</tspan><tspan x="50.6" y="130.45" letter-spacing="-0.03em">r</tspan><tspan x="57.43" y="130.45">e </tspan><tspan x="73.49" y="130.45" letter-spacing="-0.06em">7</tspan><tspan x="83.08" y="130.45" letter-spacing="-0.05em">-</tspan><tspan x="89.61" y="130.45" letter-spacing="0.01em">1</tspan><tspan x="96.15" y="130.45" letter-spacing="-0.01em">9</tspan><tspan x="107.54" y="130.45" letter-spacing="0em">, </tspan><tspan x="117.35" y="130.45" letter-spacing="-0.01em">l</tspan><tspan x="121.92" y="130.45" letter-spacing="0em">ö</tspan><tspan x="133.5" y="130.45" letter-spacing="-0.08em">r</tspan><tspan x="139.34" y="130.45" letter-spacing="-0.01em">-</tspan><tspan x="146.47" y="130.45" letter-spacing="-0.01em">s</tspan><tspan x="155.25" y="130.45" letter-spacing="0em">ö</tspan><tspan x="166.83" y="130.45">n </tspan><tspan x="183.31" y="130.45" letter-spacing="0.02em">9</tspan><tspan x="195.28" y="130.45" letter-spacing="-0.05em">-</tspan><tspan x="201.81" y="130.45" letter-spacing="-0.02em">1</tspan><tspan x="207.92" y="130.45">7</tspan><tspan x="0" y="152.05" letter-spacing="0em">M</tspan><tspan x="15.67" y="152.05" letter-spacing="0em">o</tspan><tspan x="27.25" y="152.05" letter-spacing="0em">n</tspan><tspan x="38.25" y="152.05" letter-spacing="0em">-</tspan><tspan x="45.64" y="152.05" letter-spacing="-0.03em">F</tspan><tspan x="56.86" y="152.05" letter-spacing="-0.01em">r</tspan><tspan x="63.99" y="152.05" letter-spacing="0em">i </tspan><tspan x="74.12" y="152.05" letter-spacing="-0.05em">7</tspan><tspan x="83.87" y="152.05" letter-spacing="0em">a</tspan><tspan x="94.26" y="152.05" letter-spacing="0em">m</tspan><tspan x="111.3" y="152.05" letter-spacing="-0.1em">-</tspan><tspan x="116.9" y="152.05" letter-spacing="-0.04em">7</tspan><tspan x="126.83" y="152.05" letter-spacing="0em">p</tspan><tspan x="138.73" y="152.05" letter-spacing="0em">m</tspan><tspan x="155.9" y="152.05">, </tspan><tspan x="165.71" y="152.05" letter-spacing="0em">S</tspan><tspan x="177.29" y="152.05" letter-spacing="-0.01em">a</tspan><tspan x="187.45" y="152.05" letter-spacing="-0.08em">t</tspan><tspan x="193.28" y="152.05" letter-spacing="-0.03em">-</tspan><tspan x="200.08" y="152.05" letter-spacing="0em">S</tspan><tspan x="211.58" y="152.05" letter-spacing="0em">u</tspan><tspan x="222.58" y="152.05">n </tspan><tspan x="239.07" y="152.05" letter-spacing="0em">9</tspan><tspan x="250.75" y="152.05" letter-spacing="0em">a</tspan><tspan x="261.14" y="152.05" letter-spacing="0em">m</tspan><tspan x="278.18" y="152.05" letter-spacing="-0.02em">-</tspan><tspan x="285.18" y="152.05" letter-spacing="0em">5</tspan><tspan x="296.23" y="152.05" letter-spacing="0em">p</tspan><tspan x="308.13" y="152.05" letter-spacing="0em">m</tspan></tspan><tspan font-size="18"><tspan x="0" y="208.15" letter-spacing="0em">h</tspan><tspan x="11.25" y="208.15">s</tspan><tspan x="20.27" y="208.15" letter-spacing="0em">l</tspan><tspan x="25.48" y="208.15" letter-spacing="-0.01em">.</tspan><tspan x="30.14" y="208.15">fi</tspan><tspan x="0" y="236.2"> </tspan></tspan></text>
    <text transform="translate(1858.92 60.95)" font-size="24" fill="#fff" font-family="GothamRounded-Medium, Gotham Rounded"><tspan letter-spacing="-0.01em">Re</tspan><tspan x="31.51" y="0" letter-spacing="-0.01em">i</tspan><tspan x="38.13" y="0" letter-spacing="-0.02em">t</tspan><tspan x="47.55" y="0" letter-spacing="-0.01em">i</tspan><tspan x="54.17" y="0">t </tspan><tspan x="71.24" y="0" letter-spacing="0em">j</tspan><tspan x="78" y="0">a </tspan><tspan x="99.28" y="0" letter-spacing="-0.01em">a</tspan><tspan x="113.25" y="0" letter-spacing="0em">i</tspan><tspan x="120" y="0" letter-spacing="-0.01em">k</tspan><tspan x="133.75" y="0" letter-spacing="-0.01em">a</tspan><tspan x="147.61" y="0" letter-spacing="-0.01em">t</tspan><tspan x="157.3" y="0" letter-spacing="0em">a</tspan><tspan x="171.4" y="0" letter-spacing="0em">u</tspan><tspan x="186.21" y="0" letter-spacing="0em">l</tspan><tspan x="193.02" y="0" letter-spacing="0em">u</tspan><tspan x="207.79" y="0" letter-spacing="0em">t</tspan><tspan font-size="18"><tspan x="0" y="21.6" letter-spacing="0em">R</tspan><tspan x="13.07" y="21.6" letter-spacing="0em">u</tspan><tspan x="24.19" y="21.6" letter-spacing="0.01em">t</tspan><tspan x="31.75" y="21.6" letter-spacing="-0.02em">t</tspan><tspan x="38.71" y="21.6" letter-spacing="0em">er </tspan><tspan x="62.41" y="21.6" letter-spacing="0em">o</tspan><tspan x="74.2" y="21.6" letter-spacing="0em">c</tspan><tspan x="84.54" y="21.6" letter-spacing="0em">h </tspan><tspan x="101.1" y="21.6" letter-spacing="-0.02em">t</tspan><tspan x="108.2" y="21.6" letter-spacing="0em">i</tspan><tspan x="113.27" y="21.6">d</tspan><tspan x="125.35" y="21.6" letter-spacing="-0.01em">t</tspan><tspan x="132.65" y="21.6" letter-spacing="0em">a</tspan><tspan x="143.28" y="21.6" letter-spacing="0em">b</tspan><tspan x="155.39" y="21.6" letter-spacing="0em">e</tspan><tspan x="166.2" y="21.6" letter-spacing="-0.01em">l</tspan><tspan x="171.26" y="21.6" letter-spacing="0em">l</tspan><tspan x="176.37" y="21.6">er</tspan><tspan x="0" y="49.65" letter-spacing="-0.02em">r</tspan><tspan x="7.11" y="49.65" letter-spacing="0em">e</tspan><tspan x="17.89" y="49.65" letter-spacing="-0.01em">i</tspan><tspan x="22.9" y="49.65" letter-spacing="0.01em">t</tspan><tspan x="30.46" y="49.65" letter-spacing="-0.02em">t</tspan><tspan x="37.56" y="49.65" letter-spacing="-0.01em">i</tspan><tspan x="42.62" y="49.65" letter-spacing="0em">o</tspan><tspan x="54.47" y="49.65" letter-spacing="0em">p</tspan><tspan x="66.5" y="49.65" letter-spacing="0em">a</tspan><tspan x="77.12" y="49.65" letter-spacing="0.01em">s</tspan><tspan x="86.32" y="49.65" letter-spacing="-0.01em">.</tspan><tspan x="90.97" y="49.65">fi</tspan></tspan></text>
    <path d="M1780.05,193.23h-3.33a3.66,3.66,0,0,1-3.65-3.65v-7.92a3.66,3.66,0,0,1,3.65-3.65h4.48a22,22,0,0,0-1.15,15.22m21.59,13.7a4,4,0,1,0,4,4,4,4,0,0,0-4-4M1825.76,178h-4.49a22,22,0,0,1,1.15,15.22h1.36a23.5,23.5,0,0,1-15.57,16,6.91,6.91,0,0,1,.22,1.71,7.1,7.1,0,0,1-.13,1.31,26.45,26.45,0,0,0,18.54-19.22,3.65,3.65,0,0,0,2.56-3.48v-7.92a3.66,3.66,0,0,0-3.64-3.65m-5.4,9.16A19.13,19.13,0,0,1,1806,205.7a6.86,6.86,0,0,0-8.91.13,19.12,19.12,0,0,1-11.76-29.2,11.71,11.71,0,0,0,8.65-7.1c3,3.59,11.23,7.49,21.61,7.19a4.6,4.6,0,0,0,1.53-.26,19.06,19.06,0,0,1,3.28,10.71m-24.54-3.95c0-2.15-1-3.3-2.22-3.3s-2.22,1.15-2.22,3.3,1,3.29,2.22,3.29,2.22-1.15,2.22-3.29m10.9,12.83a.91.91,0,0,0-1.29,0,6,6,0,0,1-8.42,0,.91.91,0,0,0-1.29,0,.92.92,0,0,0,0,1.29,7.77,7.77,0,0,0,11,0,.92.92,0,0,0,0-1.29m4.37-12.83c0-2.15-1-3.3-2.22-3.3s-2.22,1.15-2.22,3.3,1,3.29,2.22,3.29,2.22-1.15,2.22-3.29" transform="translate(-1.42 -11.05)" fill="#fff"/>
    <path d="M1786.46,62.34A14.31,14.31,0,0,0,1772,76.54c0,7.84,14.44,28.4,14.44,28.4s14.43-20.56,14.43-28.4a14.31,14.31,0,0,0-14.43-14.2m0,20.45a6.32,6.32,0,1,1,6.41-6.31,6.37,6.37,0,0,1-6.41,6.31m44.91-28.65a8.38,8.38,0,0,0-8.45,8.31c0,4.6,8.45,16.63,8.45,16.63s8.45-12,8.45-16.63a8.38,8.38,0,0,0-8.45-8.31m0,12a3.7,3.7,0,1,1,3.76-3.7,3.73,3.73,0,0,1-3.76,3.7M1825.28,83a6.87,6.87,0,0,0-5.23-1.42,8.49,8.49,0,0,0-1,.16l-.76-3.23a13.69,13.69,0,0,1,1.45-.23,10.23,10.23,0,0,1,7.58,2.08Zm-15.49,7a9.3,9.3,0,0,1,2.79-8.27l2.5,2.22a6.81,6.81,0,0,0-1.94,5.73Zm-13.24,21.4a15.28,15.28,0,0,1-7.19-2.83l2-2.66a11.85,11.85,0,0,0,5.58,2.2Zm5.5-.33-.81-3.22a11.78,11.78,0,0,0,5.79-3.36l2.47,2.26a15.17,15.17,0,0,1-7.45,4.32m10.4-8.89-3.12-1.24a11.44,11.44,0,0,0,.8-5.46l3.35-.32a14.74,14.74,0,0,1-1,7" transform="translate(-1.42 -11.05)" fill="#fff" fill-rule="evenodd"/>
  </g>
  <g id="0e008f41-a9ca-4894-ba97-9892a858aca0" data-name="Jakoviivat ala">
    <g>
      <line x1="2.5" y1="2.5" x2="2.5" y2="2.5" fill="none" stroke="#fff" stroke-linecap="round" stroke-miterlimit="10" stroke-width="4.99"/>
      <line x1="12.49" y1="2.5" x2="2186.52" y2="2.5" fill="none" stroke="#fff" stroke-linecap="round" stroke-miterlimit="10" stroke-width="4.99" stroke-dasharray="0 10"/>
      <line x1="2191.52" y1="2.5" x2="2191.52" y2="2.5" fill="none" stroke="#fff" stroke-linecap="round" stroke-miterlimit="10" stroke-width="4.99"/>
    </g>
    <g>
      <line x1="1732.34" y1="45.37" x2="1732.34" y2="45.37" fill="none" stroke="#fff" stroke-linecap="round" stroke-miterlimit="10" stroke-width="5.02"/>
      <line x1="1732.34" y1="55.31" x2="1732.34" y2="378.27" fill="none" stroke="#fff" stroke-linecap="round" stroke-miterlimit="10" stroke-width="5.02" stroke-dasharray="0 9.94"/>
      <line x1="1732.34" y1="383.24" x2="1732.34" y2="383.24" fill="none" stroke="#fff" stroke-linecap="round" stroke-miterlimit="10" stroke-width="5.02"/>
    </g>
  </g>
  <g id="67359cf8-2c47-4bfc-9c27-1416596e2851" data-name="Kartta">
    <rect x="1309.6" y="28.63" width="391.18" height="357.17" rx="24.8" ry="24.8" fill="#bee4f8"/>
    <g>
      <g clip-path="url(#28868659-29b0-4678-b9f5-ba4967656ea2)">
        <rect x="1507.24" y="269.51" width="16.1" height="10.5" fill="#00b9e4"/>
        <rect x="1507.54" y="260.05" width="15.88" height="9.71" fill="#87c3eb"/>
        <rect x="1507.54" y="279.59" width="15.88" height="9.71" fill="#007ac9"/>
      </g>
      <rect x="1507.5" y="259.82" width="15.6" height="29.58" rx="3.97" ry="3.97" fill="none" stroke="#007ac9" stroke-miterlimit="10" stroke-width="0.75"/>
    </g>
    <text transform="translate(1537.4 345.34)" font-size="9" fill="#007ac9" font-family="GothamRounded-Medium, Gotham Rounded">Lähiseutu 3<tspan x="52.07" y="0" letter-spacing="-0.03em"> </tspan><tspan x="54.55" y="0">-lippu</tspan><tspan font-family="GothamRounded-Book, Gotham Rounded"><tspan x="0" y="10">När</tspan><tspan x="15.97" y="10" letter-spacing="-0.02em">r</tspan><tspan x="19.41" y="10">egion 3</tspan><tspan x="52.66" y="10" letter-spacing="-0.03em"> </tspan><tspan x="55.13" y="10">-biljett</tspan><tspan x="0" y="20">3</tspan><tspan x="5.52" y="20" letter-spacing="-0.01em">-</tspan><tspan x="9.1" y="20" letter-spacing="-0.02em">z</tspan><tspan x="13.97" y="20">one </tspan><tspan x="33.35" y="20" letter-spacing="-0.03em">e</tspan><tspan x="38.45" y="20">x</tspan><tspan x="43.59" y="20" letter-spacing="-0.01em">t</tspan><tspan x="47.09" y="20">ended </tspan><tspan x="77.94" y="20" letter-spacing="-0.02em">r</tspan><tspan x="81.39" y="20">egional tic</tspan><tspan x="127.83" y="20" letter-spacing="-0.02em">k</tspan><tspan x="132.76" y="20">et</tspan></tspan></text>
    <text transform="translate(1537.4 305.9)" font-size="9" fill="#007ac9" font-family="GothamRounded-Medium, Gotham Rounded">Lähiseutu 2<tspan x="52.03" y="0" letter-spacing="-0.03em"> </tspan><tspan x="54.5" y="0">-lippu</tspan><tspan font-family="GothamRounded-Book, Gotham Rounded"><tspan x="0" y="10">När</tspan><tspan x="15.97" y="10" letter-spacing="-0.02em">r</tspan><tspan x="19.41" y="10">egion 2</tspan><tspan x="52.53" y="10" letter-spacing="-0.03em"> </tspan><tspan x="55.01" y="10">-biljett</tspan><tspan x="0" y="20">2</tspan><tspan x="5.39" y="20" letter-spacing="-0.01em">-</tspan><tspan x="8.97" y="20" letter-spacing="-0.02em">z</tspan><tspan x="13.84" y="20">one </tspan><tspan x="33.23" y="20" letter-spacing="-0.03em">e</tspan><tspan x="38.32" y="20">x</tspan><tspan x="43.46" y="20" letter-spacing="-0.01em">t</tspan><tspan x="46.96" y="20">ended </tspan><tspan x="77.81" y="20" letter-spacing="-0.02em">r</tspan><tspan x="81.26" y="20">egional tic</tspan><tspan x="127.71" y="20" letter-spacing="-0.02em">k</tspan><tspan x="132.63" y="20">et</tspan></tspan></text>
    <text transform="translate(1537.4 268.02)" font-size="9" fill="#007ac9" font-family="GothamRounded-Medium, Gotham Rounded">Seutulippu<tspan font-family="GothamRounded-Book, Gotham Rounded"><tspan x="0" y="10">Regionbiljett</tspan><tspan x="0" y="20">Regional ticket</tspan></tspan></text>
    <text transform="translate(1388.6 345.34)" font-size="9" fill="#007ac9" font-family="GothamRounded-Medium, Gotham Rounded">Sisäinen lippu<tspan font-family="GothamRounded-Book, Gotham Rounded"><tspan x="0" y="10">Intern biljett</tspan><tspan x="0" y="20">Internal ticket</tspan></tspan></text>
    <g>
      <rect x="1361.89" y="323.09" width="15.6" height="10.32" rx="3.97" ry="3.97" fill="#fff" stroke="#007ac9" stroke-miterlimit="10" stroke-width="0.75"/>
      <rect x="1361.89" y="349.16" width="15.6" height="10.32" rx="3.97" ry="3.97" fill="#00b9e4" stroke="#007ac9" stroke-miterlimit="10" stroke-width="0.75"/>
      <rect x="1361.89" y="362.14" width="15.6" height="10.32" rx="3.97" ry="3.97" fill="#007ac9" stroke="#007ac9" stroke-miterlimit="10" stroke-width="0.75"/>
      <rect x="1361.89" y="336.1" width="15.6" height="10.32" rx="3.97" ry="3.97" fill="#87c3eb" stroke="#007ac9" stroke-miterlimit="10" stroke-width="0.75"/>
    </g>
    <g>
      <g clip-path="url(#71f9b261-60de-45d4-a467-9d94d815e5f3)">
        <rect x="1506.93" y="306.65" width="16.1" height="10.5" fill="#87c3eb"/>
        <rect x="1507.23" y="297.19" width="15.88" height="9.71" fill="#fff"/>
        <rect x="1507.23" y="316.73" width="15.88" height="9.71" fill="#00b9e4"/>
      </g>
      <rect x="1507.19" y="296.96" width="15.6" height="29.58" rx="3.97" ry="3.97" fill="none" stroke="#007ac9" stroke-miterlimit="10" stroke-width="0.75"/>
    </g>
    <g>
      <g clip-path="url(#8268a893-bd1a-4498-9cf8-74c8472210b9)">
        <rect x="1506.78" y="352.86" width="15.88" height="9.71" fill="#00b9e4"/>
        <rect x="1506.87" y="334.02" width="15.88" height="9.71" fill="#fff"/>
        <rect x="1506.87" y="343.22" width="15.88" height="9.71" fill="#87c3eb"/>
        <rect x="1506.87" y="362.61" width="15.88" height="9.71" fill="#007ac9"/>
      </g>
      <rect x="1506.97" y="333.8" width="15.6" height="38.66" rx="3.97" ry="3.97" fill="none" stroke="#007ac9" stroke-miterlimit="10" stroke-width="0.75"/>
    </g>
    <g id="44b96c5e-a694-43be-87ad-a72e3e6feca9" data-name="Siuntio">
      <path d="M1326.5,230a.94.94,0,0,1,.27.14.1.1,0,0,0,.13,0s.21,0,.39.13.33.22.33.26a.06.06,0,0,0,.06.06h.39a.07.07,0,0,1,.07.07v.19c0,.08,0,.43.06.79s.07.83.07,1.05a8.2,8.2,0,0,1-.07.91c0,.29-.06.61-.06.72v.33a.27.27,0,0,1-.07.19.55.55,0,0,0-.06.26,4.14,4.14,0,0,1-.07.59,1.09,1.09,0,0,0,0,.46.63.63,0,0,1,.13.2l.33.65a2,2,0,0,1,.2.92c0,.21-.1.48-.13.58a3.74,3.74,0,0,0-.13.53,2.59,2.59,0,0,1-.14.46,1,1,0,0,0-.06.32,3.1,3.1,0,0,1-.07.53c0,.18-.15.62-.26,1a3.73,3.73,0,0,0-.17.72s0,.06,0,.06a1.14,1.14,0,0,0,.11.26,10.58,10.58,0,0,1,.39,1.31c.14.58.41,1.08.59,1.11l.39.07.33.06a3,3,0,0,0,.65.07c.22,0,.6,0,.85.06l1.37.2c.51.07,1,.13,1.18.13a1,1,0,0,1,.39.07,2,2,0,0,0,.53.06,1,1,0,0,1,.45.07,5.17,5.17,0,0,0,.53.26c.25.11.63.25.85.32a2.26,2.26,0,0,0,.52.14,3.22,3.22,0,0,1,.72.26,6.47,6.47,0,0,0,.65.26h.13a.71.71,0,0,1,.2.06,1.75,1.75,0,0,0,.33.13l.52.2.65.26a2,2,0,0,0,.46.13c.07,0,.75.18,1.51.4a9.25,9.25,0,0,1,1.37.45s.09.07.2.07a1.85,1.85,0,0,1,.39.06,1.34,1.34,0,0,0,.39.07,5.78,5.78,0,0,1,.78.13l1,.2a3.43,3.43,0,0,1,.58.13l.27.06h.19a.63.63,0,0,1,.26.07,2.35,2.35,0,0,1,.4.32c.14.15.61.59,1,1l.92.85.59.65a11.33,11.33,0,0,0,1,1,5.09,5.09,0,0,0,.91.65c.22.11.66.32,1,.46l1.24.59a7.88,7.88,0,0,1,.72.39.32.32,0,0,1,.07.2c0,.07.06.75.13,1.5a8.58,8.58,0,0,0,.2,1.44,1,1,0,0,1,.06.39v.4a1.28,1.28,0,0,0,.07.26.36.36,0,0,1-.07.32c-.07.08-.07.16,0,.2a.25.25,0,0,1,.13.2v.59s0,.27.07.52.06.54.06.65V262a.07.07,0,0,0,.07.07.06.06,0,0,1,.06.06v1.18a.07.07,0,0,0,.07.07s.06.23.06.52.12.43.27.33l.45-.33.4-.26.26-.2.85-.65c.43-.33.87-.65,1-.72a1.85,1.85,0,0,0,.26-.2l.59-.59a5.81,5.81,0,0,1,.65-.58,1.68,1.68,0,0,0,.33-.33,2.86,2.86,0,0,1,.46-.46,1,1,0,0,0,.32-.39l.13-.33c0-.07.22-.33.4-.59a7.15,7.15,0,0,1,.59-.72c.14-.14.73-.79,1.3-1.43a8.13,8.13,0,0,1,1.18-1.18h.2a.56.56,0,0,0,.19-.07l.39-.13a1.93,1.93,0,0,1,.72.07l.66.19.32.13a4.68,4.68,0,0,0,.66.2l1,.26a5.39,5.39,0,0,0,.66.13c.07,0,.07.15,0,.33a1.45,1.45,0,0,1-.2.39s0,.13.13.2a.59.59,0,0,0,.53-.07,1.51,1.51,0,0,1,.58-.19c.15,0,.27-.06.27-.13a.13.13,0,0,1,.13-.13.86.86,0,0,1,.39.32c.14.18.29.36.33.4l.13.13a.22.22,0,0,0,.13.06.07.07,0,0,1,.06.07v.13a4.36,4.36,0,0,0,.46.59c.25.28.55.64.65.78s.29.35.4.46l.26.26s.12.15.19.26.16.2.2.2.1.06.13.13l.26.46a3.79,3.79,0,0,0,.46.58l.39.4a1.55,1.55,0,0,1,.26.39l.2.33a.19.19,0,0,1,.07.13s.29.53.65,1.11.68,1.07.72,1.11l.13.13.13.13a1.47,1.47,0,0,1,.13.52,3,3,0,0,0,.33.92,3.47,3.47,0,0,0,.33.52,1.54,1.54,0,0,1,.13.26.4.4,0,0,1,0,.27.57.57,0,0,0-.13.19l-.2.39c-.07.15-.25.47-.39.72s-.35.64-.46.85a.83.83,0,0,0,0,.72c.11.18.23.36.26.4a3.56,3.56,0,0,1,.26.32c.11.15.29.35.39.46a.86.86,0,0,1,.2.26.07.07,0,0,0,.07.07s.09.06.13.13.09.13.13.13a1.36,1.36,0,0,1,.32.33c.15.18.33.38.4.45l.19.2.13.13a.21.21,0,0,1,.07.13.22.22,0,0,0,.06.13s0,.07,0,.07,0,0,0,.06l.14.13.13.13a.3.3,0,0,1,.06.13.23.23,0,0,0,.07.14l.19.19a1.13,1.13,0,0,1,.2.26,6.27,6.27,0,0,0,.52.66,9.74,9.74,0,0,1,.92,1.3c.25.44.51.88.59,1l.26.39a3.27,3.27,0,0,1,.19.32c0,.08.16.28.27.46s.25.42.32.53.16.25.2.32l.13.33a9.26,9.26,0,0,1,.13,1.18c0,.54.1,1.18.13,1.43a9.4,9.4,0,0,0,.2.92,3.82,3.82,0,0,1,.13.85.64.64,0,0,0,.13.46.44.44,0,0,1,.19.19c0,.08.28.72.53,1.44s.46,1.37.46,1.44a.24.24,0,0,0,.13.2c.07,0,.45.33.85.65s1.1.85,1.57,1.18a6.67,6.67,0,0,1,.85.65,3.38,3.38,0,0,0,.26.59,3,3,0,0,0,1.19,1,2.24,2.24,0,0,0,2-.19,5.44,5.44,0,0,1,1.84-.73,1.15,1.15,0,0,0,1-.88c.08-.44-.68-1.66-1.69-2.71a34.67,34.67,0,0,1-2.83-3.37c-.55-.8-.51-1.73.08-2.07a2.21,2.21,0,0,0,1.07-1.68,18.94,18.94,0,0,0-1.3-4.29l2.45,1.23,2.45,1.22c.84.55,1.56,1.22,1.6,1.49s-.23.62-.61.77a1.09,1.09,0,0,0-.46,1.26l1.46-.15c1.45-.16,2.06-.46,1.91-1.53l-.15-1.07a15.77,15.77,0,0,1,.57-2.33,3.45,3.45,0,0,0,0-1.54c-.1-.65.59-2.71,1.56-4.57a26,26,0,0,0,2.13-5.44c.22-1.13-.22-4.25-1-6.94l-3.92-14a43.29,43.29,0,0,0-4-9.2l-2-3.19a10.48,10.48,0,0,1-.49-8.9l8.93-18.85a25.49,25.49,0,0,1,2.91-5.13,1.41,1.41,0,0,0,.56-1.36c-.11-.45-.19-.85-.19-.89v-.2a.63.63,0,0,0-.07-.26,8.67,8.67,0,0,1-.26-.91c-.11-.43-.23-.94-.26-1.11a3,3,0,0,1-.07-.46,4.47,4.47,0,0,0-.06-.46,5.38,5.38,0,0,0-.2-.65,2,2,0,0,1-.13-.46.63.63,0,0,0-.07-.26.82.82,0,0,1-.06-.2v-.39a.53.53,0,0,0-.07-.2.78.78,0,0,1-.06-.19,7.84,7.84,0,0,0-.33-.79c-.18-.39-.41-.89-.52-1.11a7.26,7.26,0,0,1-.33-.78,2.83,2.83,0,0,0-.26-.59,2.49,2.49,0,0,1-.2-.4c0-.1-.12-.34-.19-.52a5,5,0,0,0-.33-.65,1.41,1.41,0,0,1-.2-.46,1,1,0,0,0-.13-.39l-.52-1c-.22-.43-.45-.93-.52-1.11a5,5,0,0,0-.2-.46l-.13-.26c0-.07-.24-.51-.46-1s-.39-.88-.39-.92-.26-.62-.59-1.3a15.73,15.73,0,0,1-.65-1.51,3.8,3.8,0,0,0-.33-.72c-.14-.25-.29-.4-.33-.32a.81.81,0,0,1-.32.26,4,4,0,0,0-.59.39l-.52.39a2.37,2.37,0,0,0-.33.26,2.39,2.39,0,0,1-.33.27c-.11.07-.22.16-.26.19l-.13.13a2.68,2.68,0,0,1-.33.26,1.24,1.24,0,0,1-.32.2,1.68,1.68,0,0,0-.4.26,4.61,4.61,0,0,0-.58.59,3.06,3.06,0,0,0-.33.46,4.06,4.06,0,0,1-.33.46c-.14.18-.29.35-.33.39l-.45.52-.85,1a3.18,3.18,0,0,0-.46.59.5.5,0,0,1-.13.2l-.33.32c-.11.11-.37.41-.59.66a3,3,0,0,0-.39.52.19.19,0,0,1-.07.13l-.13.2a.57.57,0,0,1-.13.19l-.13.13-.13.2a2.57,2.57,0,0,1-.26.39l-.39.53-.26.32s-.27.36-.53.72-.48.71-.52.79a3.68,3.68,0,0,1-.26.39c-.11.14-.26.35-.33.46s-.16.19-.19.19a.07.07,0,0,0-.07.07,1.24,1.24,0,0,1-.2.32,3.25,3.25,0,0,1-.32.4,1.51,1.51,0,0,0-.2.26.91.91,0,0,1-.2.26,1.07,1.07,0,0,0-.19.26l-.13.2-.13.13a.19.19,0,0,0-.07.13.5.5,0,0,1-.13.2,1.51,1.51,0,0,0-.2.26c0,.07-.09.13-.13.13a.06.06,0,0,0-.06.06.19.19,0,0,1-.07.13,2.55,2.55,0,0,1-.72.14l-1.5.13-1.7.13a4.14,4.14,0,0,1-.92,0,.19.19,0,0,0-.13-.07h-.45l-.66-.06-.65-.07h-.26a6.05,6.05,0,0,0-1.05,1.05c-.5.57-1.06,1.19-1.24,1.37a5.11,5.11,0,0,0-.52.59c-.11.14-.23.26-.27.26a3.35,3.35,0,0,0-.52.59c-.25.32-.63.79-.85,1a2,2,0,0,1-.46.46,2.78,2.78,0,0,0-.45.53c-.22.28-.54.67-.72.85a3.65,3.65,0,0,0-.4.45.52.52,0,0,1-.19.2.55.55,0,0,0-.2.2,1.31,1.31,0,0,1-.19.26,5.67,5.67,0,0,0-.4.45c-.14.18-.35.42-.45.53l-.53.52a3.25,3.25,0,0,0-.39.46.78.78,0,0,1-.13.19l-.07.08a2.66,2.66,0,0,1-.26.33c-.14.17-.38.43-.52.58a1.31,1.31,0,0,0-.26.32s-.09.13-.2.2a3.57,3.57,0,0,0-.52.52c-.18.22-.39.48-.46.59a1.39,1.39,0,0,1-.2.26l-.45.52-.46.53s-.07,0-.07,0v-1.7a3.05,3.05,0,0,0-.06-.33,1.9,1.9,0,0,1-.07-.39v-1a.07.07,0,0,1,.07-.07h.13a.25.25,0,0,0,.13-.06.21.21,0,0,1,.13-.07.07.07,0,0,0,.07-.06v-.27a.06.06,0,0,1,.06-.06.07.07,0,0,0,.07-.07V202a.07.07,0,0,0-.07-.07.06.06,0,0,1-.06-.06v-.13a.07.07,0,0,0-.07-.07.25.25,0,0,1-.13-.06.24.24,0,0,1-.07-.13s0-.07-.06-.07a.07.07,0,0,1-.07-.06.07.07,0,0,0-.06-.07.07.07,0,0,1-.07-.07.21.21,0,0,0-.19-.19,3.19,3.19,0,0,0-.53.59,6.48,6.48,0,0,0-.58.85,1.85,1.85,0,0,1-.2.32l-.2.2a3.93,3.93,0,0,0-.39.59,3.47,3.47,0,0,1-.33.52l-.39.52-.78,1.12-.59.85a2.74,2.74,0,0,1-.2.26.1.1,0,0,0,0,.13.3.3,0,0,0,.13.06h.13a.07.07,0,0,1,.07.07s.06.06.13.06h.2a.24.24,0,0,1,.13.07.19.19,0,0,0,.13.07.06.06,0,0,1,.06.06.07.07,0,0,0,.07.07h.13a.06.06,0,0,1,.06.06.07.07,0,0,0,.07.07,1.57,1.57,0,0,1,.33.13,1.57,1.57,0,0,0,.32.13.07.07,0,0,1,.07.06.07.07,0,0,0,.06.07h.14a.06.06,0,0,1,.06.06.07.07,0,0,0,.07.07.07.07,0,0,1,.06.07.07.07,0,0,0,.07.06.24.24,0,0,1,.13.07l.13.13a.22.22,0,0,0,.13.06h.13s0,0,0,.07l-.13.13a.3.3,0,0,1-.13.06.07.07,0,0,0-.07.07.06.06,0,0,1-.06.06h-.13a.19.19,0,0,0-.13.07.24.24,0,0,1-.13.07.22.22,0,0,0-.14.06.19.19,0,0,1-.13.07.3.3,0,0,0-.13.06.19.19,0,0,1-.13.07.06.06,0,0,0-.06.06v.11a.36.36,0,0,1-.06.13l-.07.08-.2.27c-.1.15-.23.29-.26.33s-.07,0-.07,0a.07.07,0,0,0-.06-.07h-.66a.07.07,0,0,0-.06.07.07.07,0,0,1-.07.06H1360a.07.07,0,0,0-.06.07.07.07,0,0,1-.07.06.07.07,0,0,0-.06.07s0,.06-.07.06a.05.05,0,0,1-.06-.06.07.07,0,0,0-.07-.07,1.07,1.07,0,0,1-.33-.26l-1-1c-.39-.44-1.07-1.14-1.5-1.57a9,9,0,0,0-.85-.79.07.07,0,0,1-.07-.06s-.06-.1-.13-.13a.56.56,0,0,0-.19-.07h-.27c-.1,0-.19,0-.19.07s-.15.09-.33.13l-1.11.19c-.43.08-1,.19-1.18.26a9.55,9.55,0,0,1-1.11.27c-.39.07-.92.19-1.18.26s-.81.19-1.24.26a2.37,2.37,0,0,0-.78.2,2.33,2.33,0,0,1-.59.32c-.32.15-.91.44-1.31.66a2.41,2.41,0,0,1-.72.32s0-.06,0-.06,0-.24-.06-.53a3.62,3.62,0,0,0-.12-.65.18.18,0,0,1,0-.2.1.1,0,0,0,0-.13.27.27,0,0,1-.07-.19c0-.07,0-.13-.06-.13a.23.23,0,0,1-.14-.07l-.19-.19c-.07-.08-.37,0-.66.19l-1,.66a1.8,1.8,0,0,0-.45.39,1.12,1.12,0,0,0,.13.32l.19.4.46.91c.22.43.28.88.13,1s-.44.38-.65.59l-.59.59a6.91,6.91,0,0,1-.65.52,5.91,5.91,0,0,0-.59.46c-.08.07-.25.22-.4.33a6.88,6.88,0,0,0-.52.46l-.46.45a3.35,3.35,0,0,1-.65.46l-.85.46-.92.46-1,.52a1.68,1.68,0,0,0-.58.52l-.2.39-.2.4a3.72,3.72,0,0,0-.19.45,2.48,2.48,0,0,1-.26.46,1.38,1.38,0,0,1-.53.39c-.18.08-.44.19-.59.27l-.52.26c-.14.07-.14.39,0,.72l.52,1.17c.15.33.32.71.4.85s.1.3.06.33a.39.39,0,0,0-.06.2.82.82,0,0,0,.06.26c0,.07.21.34.39.59a2.86,2.86,0,0,1,.33.52v.13a.07.07,0,0,1-.06.07.07.07,0,0,0-.07.06v.39a.07.07,0,0,1-.07.07.07.07,0,0,0-.06.07v.26a.24.24,0,0,1-.07.13.22.22,0,0,0-.06.13.24.24,0,0,1-.07.13.22.22,0,0,1-.13.06h-.13a.06.06,0,0,1-.06-.06.07.07,0,0,0-.07-.07.06.06,0,0,1-.06-.06.07.07,0,0,0-.07-.07h-.26a.07.07,0,0,0-.07.07.06.06,0,0,1-.06.06.07.07,0,0,0-.07.07.06.06,0,0,1-.06.06.07.07,0,0,1-.07-.06.07.07,0,0,0-.06-.07.07.07,0,0,0-.07.07.06.06,0,0,1-.06.06.07.07,0,0,0-.07.07.07.07,0,0,1-.07.07.06.06,0,0,0-.06.06.07.07,0,0,1-.07.07s0,0,0,.06,0,.07,0,.07h-.13a.06.06,0,0,0-.06.06.07.07,0,0,1-.07.07.06.06,0,0,0-.06.06v.13a.07.07,0,0,1-.07.07h-.13s-.06,0-.06-.07v-.13a.07.07,0,0,0-.14,0,.07.07,0,0,1-.06.07.07.07,0,0,1-.07-.07.06.06,0,0,0-.06-.06H1332a.07.07,0,0,1-.07-.07.06.06,0,0,0-.06-.06.07.07,0,0,0-.07.06.07.07,0,0,1-.06.07.07.07,0,0,0-.07.06.07.07,0,0,1-.06.07.07.07,0,0,1-.07-.07.07.07,0,0,0-.07-.06h-.13a.07.07,0,0,1-.06-.07.07.07,0,0,0-.07-.06.07.07,0,0,1-.06-.07.07.07,0,0,0-.07-.06.07.07,0,0,1-.06-.07s0-.06-.07-.06a.06.06,0,0,0-.06.06.07.07,0,0,1-.07.07h-.13a.07.07,0,0,1-.07-.07.06.06,0,0,0-.06-.06h-.13s-.07,0-.07.06a.07.07,0,0,1-.06.07.07.07,0,0,1-.07-.07.06.06,0,0,0-.06-.06s-.07,0-.07.06a.07.07,0,0,1-.06.07.07.07,0,0,1-.07-.07.06.06,0,0,0-.06-.06h-.14a.06.06,0,0,0-.06.06.07.07,0,0,1-.07.07h-.13a.06.06,0,0,0-.06.06.07.07,0,0,1-.07.07.06.06,0,0,0-.06.06.07.07,0,0,0,.06.07.07.07,0,0,1,.07.06.07.07,0,0,1-.07.07.06.06,0,0,0-.06.06.07.07,0,0,1-.07.07.06.06,0,0,0-.06.06.07.07,0,0,0,.06.07.07.07,0,0,1,.07.07.07.07,0,0,1-.07.06.07.07,0,0,0-.06.07.07.07,0,0,1-.07.06H1329a.07.07,0,0,1-.07-.06s0,0-.06,0a.3.3,0,0,1-.13.06h-.13s-.13.09-.2.2-.25.34-.39.52-.41.47-.59.65-.56.6-.85.92-.46.62-.39.65A1.93,1.93,0,0,0,1326.5,230Z" transform="translate(-1.42 -11.05)" fill="#fff"/>
    </g>
    <g id="4a00eb3e-e8c6-4d68-9836-40f8d0fb59c3" data-name="Knummi">
      <polygon points="1476.17 259.6 1475.73 263.16 1472.61 263.61 1472.61 264.5 1473.94 266.28 1472.16 268.51 1469.93 269.4 1469.04 267.62 1465.48 267.17 1465.48 265.39 1467.26 264.94 1469.04 262.27 1474.39 259.6 1476.17 259.6 1476.17 259.6" fill="#fff"/>
      <polygon points="1465.48 276.98 1468.15 276.53 1471.72 277.87 1472.16 278.76 1471.27 280.1 1470.38 280.1 1469.93 279.65 1469.04 279.65 1467.7 280.99 1466.37 281.44 1465.48 282.77 1462.8 282.33 1461.91 281.44 1461.91 280.54 1465.48 276.98 1465.48 276.98" fill="#fff"/>
      <polygon points="1459.24 281.88 1460.57 281.88 1462.36 282.77 1462.8 283.66 1464.59 284.11 1464.59 285 1463.25 285.89 1463.69 287.68 1463.25 288.57 1460.13 289.01 1459.24 287.23 1457.45 287.68 1457.01 288.57 1455.22 288.57 1455.67 286.78 1458.35 283.66 1459.24 281.88 1459.24 281.88" fill="#fff"/>
      <polygon points="1458.79 259.15 1457.45 260.49 1457.45 260.93 1458.79 260.49 1462.36 259.15 1464.14 257.37 1465.92 256.03 1467.26 254.69 1469.04 253.8 1470.38 253.8 1471.27 255.58 1473.05 255.14 1473.05 253.35 1473.94 252.91 1474.39 253.35 1475.28 255.58 1476.17 258.71 1472.16 259.15 1470.83 258.71 1469.49 259.6 1465.03 261.38 1462.36 264.06 1464.59 266.28 1465.48 268.51 1469.49 269.4 1469.49 272.07 1467.26 272.97 1466.81 275.19 1465.03 276.09 1463.25 276.98 1461.91 277.87 1461.46 277.87 1461.02 278.31 1460.57 278.76 1459.68 280.54 1457.45 281.88 1456.56 284.56 1455.67 285.89 1454.78 286.78 1453.89 287.68 1453 289.01 1450.77 289.46 1450.32 289.9 1449.43 291.69 1448.99 294.81 1450.77 295.7 1450.32 297.04 1448.54 297.93 1447.2 301.05 1445.87 301.05 1444.97 300.15 1445.42 298.37 1444.08 298.37 1443.19 300.15 1441.86 301.05 1441.86 302.38 1442.3 303.27 1442.3 305.95 1443.19 307.73 1441.86 308.62 1440.52 310.41 1440.07 312.19 1439.18 312.63 1438.29 316.2 1436.06 318.87 1434.28 318.87 1433.39 318.43 1432.94 316.64 1433.83 314.86 1433.83 314.42 1432.49 314.42 1430.27 314.42 1429.82 313.08 1430.71 310.41 1427.59 311.3 1425.81 310.85 1424.92 311.74 1426.7 313.08 1427.59 313.52 1428.48 313.97 1428.93 315.75 1427.59 317.09 1425.36 317.98 1423.14 317.98 1420.91 321.1 1419.57 321.55 1419.12 320.21 1420.46 317.54 1420.02 315.75 1419.12 315.75 1418.23 319.32 1416.9 319.77 1416.45 318.87 1415.56 319.77 1415.56 321.55 1416.45 321.99 1416.9 323.33 1414.22 327.34 1412.88 327.34 1412.44 326 1411.1 326.45 1410.21 326 1410.21 324.67 1410.66 323.33 1411.1 321.1 1411.55 318.87 1413.78 317.09 1415.11 316.2 1416.45 314.42 1418.68 313.52 1419.57 310.85 1420.02 309.96 1420.02 309.51 1420.02 309.07 1420.02 307.28 1420.02 305.95 1420.91 304.61 1422.24 303.27 1422.24 302.83 1423.14 301.49 1423.58 300.6 1424.03 300.15 1426.26 297.93 1427.59 297.04 1428.48 296.59 1429.38 296.14 1430.71 294.81 1432.05 293.02 1433.83 289.46 1432.49 289.9 1429.82 293.47 1428.04 294.81 1426.7 294.81 1425.36 295.25 1424.92 294.36 1424.92 293.92 1424.92 293.02 1425.81 290.79 1428.48 289.46 1429.38 288.12 1429.82 288.12 1430.71 287.23 1431.6 287.23 1432.49 286.78 1433.39 286.34 1433.83 286.34 1433.83 285.45 1432.94 285 1432.05 285 1431.6 283.22 1433.83 278.76 1433.39 276.09 1432.49 279.21 1432.05 278.76 1430.71 280.99 1430.27 283.22 1428.48 285 1428.93 287.68 1428.04 288.57 1425.81 289.46 1424.03 289.9 1422.24 290.35 1422.24 291.24 1421.8 293.02 1420.91 293.92 1418.23 293.47 1416.9 295.7 1416 296.14 1416 298.37 1415.11 299.71 1411.1 301.49 1410.21 301.05 1409.32 300.15 1408.43 297.93 1409.32 296.59 1408.87 294.81 1407.98 292.13 1407.09 291.69 1407.54 294.36 1407.54 295.7 1405.31 296.14 1403.53 296.59 1402.19 296.14 1401.3 297.04 1401.3 301.49 1400.41 303.27 1401.74 304.61 1399.96 306.39 1396.84 307.28 1394.16 307.28 1393.72 306.84 1393.28 304.17 1394.16 301.94 1395.5 299.26 1396.84 298.82 1398.62 295.7 1400.41 293.02 1401.74 292.58 1403.53 291.24 1403.53 289.9 1403.53 288.12 1403.53 285.89 1404.86 283.66 1407.09 281.88 1409.32 279.65 1407.98 280.1 1407.54 279.21 1407.98 276.98 1407.98 275.19 1407.98 272.97 1407.98 271.63 1408.43 270.29 1409.76 269.4 1412.44 268.51 1411.99 267.62 1411.55 267.17 1409.76 267.62 1408.87 268.51 1407.09 268.06 1406.64 268.06 1405.31 265.84 1404.86 264.94 1402.63 264.94 1401.3 264.94 1400.41 264.5 1400.41 263.61 1402.19 260.49 1403.53 256.92 1404.42 252.46 1397.73 228.4 1391.05 216.81 1403.53 189.18 1411.55 184.28 1414.67 176.7 1420.91 173.13 1422.24 170.01 1422.69 166.44 1429.82 165.11 1436.95 167.78 1437.84 171.79 1446.31 173.13 1446.31 173.58 1443.64 177.14 1443.64 185.61 1448.09 190.51 1447.65 198.09 1445.42 200.32 1442.3 207 1447.2 210.57 1449.88 210.57 1449.43 215.03 1445.87 215.03 1448.54 215.92 1457.01 226.17 1457.01 228.4 1456.56 229.29 1455.22 230.63 1454.33 231.96 1456.12 232.41 1458.35 231.96 1460.13 234.19 1461.91 233.75 1462.8 234.64 1465.03 235.53 1467.7 236.87 1468.6 237.76 1469.49 239.54 1469.93 240.88 1470.38 242.21 1471.72 244 1471.72 245.33 1472.61 246.67 1472.16 247.12 1470.38 247.56 1469.49 248.45 1469.49 249.79 1469.49 250.24 1469.49 250.68 1469.04 251.57 1468.15 252.46 1465.92 254.25 1463.69 255.14 1460.57 257.81 1458.79 259.15" fill="#fff" stroke="#bee4f8" stroke-miterlimit="10" stroke-width="1.73"/>
      <polyline points="1457.01 228.4 1456.56 229.29 1455.22 230.63 1454.33 231.96 1456.12 232.41 1458.35 231.96 1460.13 234.19 1461.91 233.75 1462.8 234.64 1465.03 235.53 1467.7 236.87 1468.6 237.76 1469.49 239.54 1469.93 240.88 1470.38 242.21 1471.72 244 1471.72 245.33 1472.61 246.67 1472.16 247.12 1470.38 247.56 1469.49 248.45 1469.49 249.79 1469.49 250.24 1469.49 250.68 1469.04 251.57 1468.15 252.46 1465.92 254.25 1463.69 255.14 1460.57 257.81 1458.79 259.15 1457.45 260.49 1457.45 260.93 1458.79 260.49 1462.36 259.15 1464.14 257.37 1465.92 256.03 1467.26 254.69 1469.04 253.8 1470.38 253.8 1471.27 255.58 1473.05 255.14 1473.05 253.35 1473.94 252.91 1474.39 253.35 1475.28 255.58 1476.17 258.71 1472.16 259.15 1470.83 258.71 1469.49 259.6 1465.03 261.38 1462.36 264.06 1464.59 266.28 1465.48 268.51 1469.49 269.4 1469.49 272.07 1467.26 272.97 1466.81 275.19 1465.03 276.09 1463.25 276.98 1461.91 277.87 1461.46 277.87 1461.02 278.31 1460.57 278.76 1459.68 280.54 1457.45 281.88 1456.56 284.56 1455.67 285.89 1454.78 286.78 1453.89 287.68 1453 289.01 1450.77 289.46 1450.32 289.9 1449.43 291.69 1448.99 294.81 1450.77 295.7 1450.32 297.04 1448.54 297.93 1447.2 301.05 1445.87 301.05 1444.97 300.15 1445.42 298.37 1444.08 298.37 1443.19 300.15 1441.86 301.05 1441.86 302.38 1442.3 303.27 1442.3 305.95 1443.19 307.73 1441.86 308.62 1440.52 310.41 1440.07 312.19 1439.18 312.63 1438.29 316.2 1436.06 318.87 1434.28 318.87 1433.39 318.43 1432.94 316.64 1433.83 314.86 1433.83 314.42 1432.49 314.42 1430.27 314.42 1429.82 313.08 1430.71 310.41 1427.59 311.3 1425.81 310.85 1424.92 311.74 1426.7 313.08 1427.59 313.52 1428.48 313.97 1428.93 315.75 1427.59 317.09 1425.36 317.98 1423.14 317.98 1420.91 321.1 1419.57 321.55 1419.12 320.21 1420.46 317.54 1420.02 315.75 1419.12 315.75 1418.23 319.32 1416.9 319.77 1416.45 318.87 1415.56 319.77 1415.56 321.55 1416.45 321.99 1416.9 323.33 1414.22 327.34 1412.88 327.34 1412.44 326 1411.1 326.45 1410.21 326 1410.21 324.67 1410.66 323.33 1411.1 321.1 1411.55 318.87 1413.78 317.09 1415.11 316.2 1416.45 314.42 1418.68 313.52 1419.57 310.85 1420.02 309.96 1420.02 309.51 1420.02 309.07 1420.02 307.28 1420.02 305.95 1420.91 304.61 1422.24 303.27 1422.24 302.83 1423.14 301.49 1423.58 300.6 1424.03 300.15 1426.26 297.93 1427.59 297.04 1428.48 296.59 1429.38 296.14 1430.71 294.81 1432.05 293.02 1433.83 289.46 1432.49 289.9 1429.82 293.47 1428.04 294.81 1426.7 294.81 1425.36 295.25 1424.92 294.36 1424.92 293.92 1424.92 293.02 1425.81 290.79 1428.48 289.46 1429.38 288.12 1429.82 288.12 1430.71 287.23 1431.6 287.23 1432.49 286.78 1433.39 286.34 1433.83 286.34 1433.83 285.45 1432.94 285 1432.05 285 1431.6 283.22 1433.83 278.76 1433.39 276.09 1432.49 279.21 1432.05 278.76 1430.71 280.99 1430.27 283.22 1428.48 285 1428.93 287.68 1428.04 288.57 1425.81 289.46 1424.03 289.9 1422.24 290.35 1422.24 291.24 1421.8 293.02 1420.91 293.92 1418.23 293.47 1416.9 295.7 1416 296.14 1416 298.37 1415.11 299.71 1411.1 301.49 1410.21 301.05 1409.32 300.15 1408.43 297.93 1409.32 296.59 1408.87 294.81 1407.98 292.13 1407.09 291.69 1407.54 294.36 1407.54 295.7 1405.31 296.14 1403.53 296.59 1402.19 296.14 1401.3 297.04 1401.3 301.49 1400.41 303.27 1401.74 304.61 1399.96 306.39 1396.84 307.28 1394.16 307.28 1393.72 306.84 1393.28 304.17 1394.16 301.94 1395.5 299.26 1396.84 298.82 1398.62 295.7 1400.41 293.02 1401.74 292.58 1403.53 291.24 1403.53 289.9 1403.53 288.12 1403.53 285.89 1404.86 283.66 1407.09 281.88 1409.32 279.65 1407.98 280.1 1407.54 279.21 1407.98 276.98 1407.98 275.19 1407.98 272.97 1407.98 271.63 1408.43 270.29 1409.76 269.4 1412.44 268.51 1411.99 267.62 1411.55 267.17 1409.76 267.62 1408.87 268.51 1407.09 268.06 1406.64 268.06 1405.31 265.84 1404.86 264.94 1402.63 264.94 1401.3 264.94 1400.41 264.5 1400.41 263.61" fill="#fff"/>
      <polyline points="1400.3 264.73 1402.19 260.49 1403.53 256.92 1404.42 252.46 1397.73 228.4 1391.05 216.81 1403.53 189.18 1411.55 184.28 1414.67 176.7 1420.91 173.13 1422.24 170.01 1422.69 166.44 1429.82 165.11 1436.95 167.78 1437.84 171.79 1446.31 173.13 1446.31 173.58 1443.64 177.14 1443.64 185.61 1448.09 190.51 1447.65 198.09 1445.42 200.32 1442.3 207 1447.2 210.57 1449.88 210.57 1449.43 215.03 1445.87 215.03 1448.54 215.92 1457.01 226.17 1457.01 227.04" fill="#fff" stroke="#bee4f8" stroke-miterlimit="10" stroke-width="1.73"/>
    </g>
    <text transform="translate(1353.56 216.36)" font-size="7.58" fill="#007ac9" font-family="GothamRounded-Medium, Gotham Rounded">Siuntio<tspan font-family="GothamRounded-Book, Gotham Rounded"><tspan x="0" y="7.87">Sjundeå</tspan></tspan></text>
    <text transform="translate(1411.93 247.52)" font-size="7.58" fill="#007ac9" font-family="GothamRounded-Medium, Gotham Rounded">Kirk<tspan x="15.11" y="0" letter-spacing="-0.02em">k</tspan><tspan x="19.39" y="0">onummi</tspan><tspan font-family="GothamRounded-Book, Gotham Rounded"><tspan x="0" y="7.87" letter-spacing="-0.04em">K</tspan><tspan x="5.1" y="7.87">yrksl</tspan><tspan x="22.7" y="7.87" letter-spacing="-0.01em">ä</tspan><tspan x="27.05" y="7.87" letter-spacing="0em">tt</tspan></tspan></text>
    <polygon points="1503.81 146.84 1502.91 156.2 1506.48 154.86 1509.15 168.23 1506.92 181.15 1507.82 182.49 1507.37 182.94 1507.37 184.28 1507.82 185.16 1508.26 186.06 1510.94 195.42 1522.53 189.62 1522.97 193.19 1523.42 195.86 1522.97 198.09 1522.53 200.32 1523.42 203.88 1524.75 206.11 1524.75 206.56 1525.2 211.02 1524.75 211.91 1523.86 212.8 1522.08 213.69 1520.74 215.92 1520.3 216.36 1519.4 216.81 1518.51 217.25 1518.07 220.82 1519.4 221.71 1522.08 221.71 1522.53 220.37 1522.97 219.93 1523.86 220.37 1523.86 223.05 1523.86 223.94 1523.86 224.83 1523.86 225.72 1523.86 227.95 1522.53 228.4 1522.08 230.63 1523.42 231.96 1523.86 232.41 1520.74 232.85 1519.4 231.96 1519.85 228.4 1519.4 228.4 1516.73 234.19 1515.39 235.97 1514.5 235.97 1512.72 237.31 1510.94 237.76 1508.26 238.2 1508.26 237.76 1506.92 237.76 1506.92 238.65 1506.03 239.99 1503.36 241.32 1502.91 242.66 1501.13 242.66 1499.8 242.21 1498.01 242.21 1498.01 240.43 1496.23 239.54 1494.89 237.76 1495.34 239.99 1494.45 240.43 1494 240.88 1492.66 243.1 1490.88 243.55 1486.42 244.44 1486.87 245.33 1489.1 245.78 1489.1 247.12 1488.65 247.56 1487.76 249.79 1487.32 250.24 1486.42 250.68 1485.53 251.57 1485.53 252.91 1486.42 254.25 1485.09 255.14 1483.3 255.58 1482.41 254.25 1481.52 250.68 1480.63 248.01 1478.4 247.12 1478.85 244 1477.96 244 1477.07 245.33 1475.73 245.33 1474.84 244 1474.84 241.77 1473.94 240.43 1473.5 238.65 1472.16 237.76 1471.72 235.97 1468.15 234.19 1468.15 232.85 1465.92 231.96 1464.59 232.41 1463.69 231.52 1462.8 230.63 1461.02 230.18 1461.02 228.4 1460.57 226.17 1460.13 225.28 1457.01 226.17 1454.78 223.5 1448.54 215.92 1445.87 215.03 1449.43 215.03 1449.88 210.57 1447.2 210.57 1442.3 207 1445.42 200.32 1447.65 198.09 1448.09 190.51 1443.64 185.61 1443.64 177.14 1446.31 173.58 1446.31 173.13 1443.64 151.74 1457.9 157.98 1466.37 153.97 1469.93 148.62 1473.94 137.48 1475.28 137.48 1483.75 135.69 1484.2 134.36 1485.98 135.69 1487.76 137.48 1489.99 138.81 1491.77 140.15 1492.66 140.15 1503.81 146.84 1503.81 146.84" fill="#87c3eb"/>
    <text transform="translate(1467.79 187.7)" font-size="7.58" fill="#fff" font-family="GothamRounded-Medium, Gotham Rounded">Espoo<tspan font-family="GothamRounded-Book, Gotham Rounded"><tspan x="0" y="7.87">Esbo</tspan></tspan></text>
    <g id="cbcbfd19-3dfd-45bc-8e99-e42df134cab7" data-name="Hki">
      <polygon points="1612.11 193.63 1615.23 193.19 1619.24 192.74 1621.02 195.42 1619.24 197.2 1615.68 197.2 1611.66 194.97 1612.11 193.63 1612.11 193.63" fill="#007ac9"/>
      <polygon points="1587.15 238.2 1588.04 236.87 1591.16 237.31 1592.05 238.2 1594.72 237.76 1597.4 238.2 1597.4 239.54 1596.51 240.43 1593.84 240.43 1592.5 241.77 1588.04 242.21 1586.26 240.88 1584.92 240.88 1584.03 240.43 1584.03 239.54 1584.92 238.65 1587.15 238.2 1587.15 238.2" fill="#007ac9"/>
      <polygon points="1527.87 231.52 1529.21 231.52 1529.66 233.3 1531.88 234.64 1532.78 233.75 1534.11 233.75 1536.79 235.08 1536.79 237.76 1535.45 237.76 1535.01 238.2 1535.45 239.99 1535.89 241.32 1535.45 243.55 1535.01 244 1531.88 244.44 1530.99 244 1531.88 242.21 1531.44 239.54 1527.87 240.43 1526.54 239.54 1527.87 236.87 1527.43 235.53 1526.09 234.64 1526.09 234.19 1527.43 233.3 1527.87 231.52 1527.87 231.52" fill="#007ac9"/>
      <polygon points="1564.42 223.05 1565.76 223.94 1566.2 228.4 1564.86 228.4 1563.08 226.62 1560.86 225.28 1560.86 224.38 1563.08 222.6 1564.42 223.05 1564.42 223.05" fill="#007ac9"/>
      <polygon points="1573.33 239.54 1578.24 241.32 1578.68 242.21 1580.02 242.66 1581.8 243.55 1581.8 244.89 1576.45 245.33 1575.56 245.78 1577.35 248.01 1576.9 249.35 1574.67 249.79 1572.89 249.35 1569.32 251.13 1568.43 251.13 1568.88 246.67 1567.54 245.78 1567.54 244.89 1569.32 243.1 1571.11 242.21 1573.33 239.54 1573.33 239.54" fill="#007ac9"/>
      <polygon points="1572.44 227.95 1572.89 227.06 1572 225.28 1572.44 224.83 1574.22 224.83 1575.12 224.83 1576.9 225.72 1577.79 227.06 1577.79 229.29 1576.9 229.73 1576.9 231.96 1578.24 232.85 1577.79 234.19 1575.12 234.19 1574.67 235.53 1577.35 235.08 1579.13 234.19 1580.91 231.96 1582.25 232.41 1582.69 234.64 1583.58 234.19 1584.92 235.08 1585.37 237.31 1579.58 239.54 1574.67 239.09 1571.55 237.31 1568.88 237.31 1567.1 236.42 1564.86 235.97 1563.98 232.41 1565.31 230.63 1569.32 227.5 1572.44 227.95 1572.44 227.95" fill="#007ac9"/>
      <polygon points="1619.24 171.35 1621.47 172.69 1625.03 171.35 1625.48 172.69 1623.25 173.58 1625.03 175.36 1622.81 177.59 1623.7 178.48 1623.25 180.71 1622.81 180.71 1624.59 182.05 1624.14 182.94 1622.36 183.83 1620.58 183.83 1619.69 186.06 1619.69 186.95 1619.69 188.28 1619.24 188.73 1618.35 189.18 1621.02 190.51 1621.91 190.51 1617.01 191.41 1614.78 192.29 1611.66 192.29 1610.33 195.42 1608.99 195.42 1608.99 196.31 1615.23 197.64 1616.12 198.53 1616.12 199.43 1611.66 199.43 1611.66 199.87 1613.44 200.32 1613.89 201.65 1613.44 202.99 1608.54 201.65 1608.31 204.06 1607.2 203.44 1601.41 201.21 1599.63 202.55 1607.65 207 1607.65 209.23 1605.87 208.79 1605.87 210.57 1607.65 212.8 1607.65 213.69 1605.87 215.03 1605.43 216.36 1607.65 218.15 1607.65 219.48 1604.98 222.6 1604.09 222.6 1602.75 221.27 1600.97 219.48 1600.97 218.15 1596.96 219.04 1596.51 221.27 1599.18 221.27 1598.74 224.38 1599.63 226.17 1599.18 227.5 1597.85 227.5 1596.51 226.17 1593.84 224.38 1593.84 220.37 1592.94 220.37 1590.27 221.71 1588.04 222.16 1584.92 224.38 1584.03 224.38 1583.58 223.5 1583.58 222.6 1584.48 221.27 1586.71 219.48 1587.15 218.59 1588.49 217.25 1590.72 214.58 1592.05 211.02 1592.05 210.13 1591.61 210.57 1590.27 212.35 1588.93 214.14 1586.71 215.03 1586.26 216.36 1586.26 217.7 1585.37 218.59 1582.25 218.59 1580.02 219.48 1578.24 219.04 1578.24 219.93 1579.58 220.37 1580.02 222.6 1578.68 224.83 1577.35 224.83 1576.9 224.38 1574.22 223.05 1574.67 221.71 1573.33 222.16 1572.44 223.94 1569.77 224.83 1565.76 222.6 1562.19 220.37 1562.64 219.04 1565.76 218.59 1567.54 219.04 1567.54 217.25 1566.65 216.81 1566.65 215.47 1567.54 215.03 1567.54 213.69 1566.65 213.24 1567.1 210.57 1564.86 211.02 1563.08 209.23 1562.25 208.2 1560.86 211.46 1559.07 212.35 1558.18 215.03 1555.95 216.81 1556.84 220.37 1558.63 222.16 1558.18 224.38 1557.73 226.17 1555.51 225.28 1553.72 225.72 1551.94 228.4 1549.71 227.95 1547.93 227.06 1546.59 226.17 1546.59 227.95 1548.37 229.29 1551.05 228.84 1552.39 229.73 1552.83 231.96 1556.4 232.85 1556.84 233.3 1556.84 234.19 1555.51 235.53 1554.61 235.97 1552.39 234.19 1551.94 234.64 1552.83 237.31 1552.83 239.09 1551.94 240.43 1551.05 240.43 1545.26 240.88 1543.92 242.66 1542.14 242.66 1542.58 241.32 1544.37 239.09 1544.81 237.31 1543.47 237.31 1543.03 239.54 1542.14 239.99 1539.46 239.54 1539.46 238.65 1539.91 237.76 1541.24 237.31 1541.24 236.42 1538.13 235.97 1537.68 235.53 1538.13 234.19 1540.8 233.3 1540.8 232.41 1539.01 231.52 1539.01 229.73 1540.35 229.29 1540.35 227.5 1539.91 225.28 1537.23 225.28 1536.34 223.94 1534.56 223.05 1534.56 220.82 1533.67 221.27 1532.33 223.05 1531.44 223.05 1530.55 219.04 1530.1 218.15 1528.76 218.15 1526.98 216.36 1527.43 213.24 1525.2 211.02 1524.75 206.56 1524.75 206.11 1523.42 203.88 1522.53 200.32 1522.97 198.53 1523.42 195.86 1522.97 193.19 1522.53 189.62 1522.97 189.62 1522.97 187.84 1528.76 190.07 1531.88 190.51 1537.23 183.38 1538.13 182.94 1543.92 180.71 1546.59 179.82 1548.82 178.93 1550.6 178.48 1552.83 179.82 1553.28 181.6 1553.72 183.38 1555.06 184.72 1555.95 185.61 1557.29 186.06 1558.63 182.05 1560.86 178.03 1562.19 176.7 1564.42 176.7 1565.31 175.36 1566.65 174.47 1567.99 174.47 1569.32 174.47 1570.66 175.8 1571.55 176.25 1572.44 175.36 1573.33 176.25 1572.89 177.14 1573.33 177.59 1573.33 180.26 1574.67 181.15 1576.01 181.6 1577.35 181.6 1580.02 182.05 1583.58 185.16 1584.03 186.5 1583.58 188.73 1584.03 191.41 1583.14 194.52 1583.58 195.86 1584.03 196.31 1594.28 199.43 1595.62 200.32 1596.96 197.64 1599.18 196.75 1601.86 194.52 1601.41 193.63 1600.52 190.96 1599.63 190.07 1599.18 190.07 1598.29 189.18 1598.29 188.73 1598.29 188.28 1597.85 187.84 1597.85 186.95 1597.85 184.28 1608.99 179.82 1609.88 176.7 1611.22 178.48 1611.22 178.03 1613.44 176.7 1612.56 175.8 1617.46 174.47 1618.35 173.13 1619.24 172.24 1618.8 171.79 1619.24 171.35 1619.24 171.35" fill="#007ac9"/>
    </g>
    <g id="a3a0ed15-2bf0-494e-b7d8-e7d0d9db5d8e" data-name="Vantaa">
      <polygon id="edaa81ae-66f3-49b3-8f7b-2c9a51b933d7" data-name="Vantaa" points="1549.27 147.72 1553.28 152.63 1565.31 152.18 1575.56 145.94 1575.56 145.5 1569.77 137.03 1571.55 134.36 1574.67 136.58 1577.79 133.91 1580.91 136.14 1582.25 134.8 1583.14 135.25 1584.03 134.36 1585.81 136.14 1585.37 137.03 1591.61 137.92 1595.17 140.15 1597.85 140.15 1597.85 141.04 1600.97 141.04 1597.4 145.5 1597.85 146.84 1600.97 148.17 1600.97 151.74 1599.63 153.07 1594.72 153.07 1594.72 151.74 1596.07 150.85 1596.07 150.4 1594.28 149.95 1593.84 149.51 1592.94 151.29 1588.49 150.85 1596.07 159.31 1604.53 164.66 1610.33 174.02 1609.88 176.7 1608.99 179.82 1597.85 184.28 1597.85 186.95 1597.85 187.84 1598.29 188.28 1598.29 188.73 1598.29 189.18 1599.18 190.07 1599.63 190.07 1600.52 190.96 1601.41 193.63 1601.86 194.52 1599.18 196.75 1596.96 197.64 1595.62 200.32 1594.28 199.43 1584.03 196.31 1583.58 195.86 1583.14 194.52 1584.03 191.41 1583.58 188.73 1584.03 186.5 1583.58 185.16 1580.02 182.05 1577.35 181.6 1576.01 181.6 1574.67 181.15 1573.33 180.26 1573.33 177.59 1572.89 177.14 1573.33 176.25 1572.44 175.36 1571.55 176.25 1570.66 175.8 1569.32 174.47 1567.99 174.47 1566.65 174.47 1565.31 175.36 1564.42 176.7 1562.19 176.7 1560.86 178.03 1558.63 182.05 1557.29 186.06 1555.95 185.61 1555.06 184.72 1553.72 183.38 1553.28 181.6 1552.83 179.82 1550.6 178.48 1548.82 178.93 1546.59 179.82 1543.92 180.71 1538.13 182.94 1537.23 183.38 1531.88 190.51 1528.76 190.07 1522.97 187.84 1522.97 189.62 1522.53 189.62 1510.94 195.42 1508.26 186.06 1507.82 185.16 1507.37 184.28 1507.37 182.94 1507.82 182.49 1506.92 181.15 1509.15 168.23 1506.48 154.86 1502.91 156.2 1503.81 146.84 1505.59 144.61 1523.86 121.88 1533.22 118.31 1534.11 122.32 1535.01 123.66 1535.45 126.78 1537.23 129.01 1549.27 147.72 1549.27 147.72" fill="#00b9e4" stroke="#fff" stroke-miterlimit="10"/>
      <text transform="translate(1534.22 164.46)" font-size="7.58" fill="#fff" font-family="GothamRounded-Medium, Gotham Rounded"><tspan letter-spacing="-0.05em">V</tspan><tspan x="5.16" y="0">antaa</tspan><tspan font-family="GothamRounded-Book, Gotham Rounded"><tspan x="0" y="7.87" letter-spacing="-0.06em">V</tspan><tspan x="5.17" y="7.87">anda</tspan></tspan></text>
    </g>
    <g id="3276b202-5c3c-44fe-96f0-fa8754687332" data-name="Kaunianen">
      <polygon points="1484.64 211.46 1483.75 210.57 1485.53 206.56 1490.88 204.78 1492.66 204.33 1492.22 202.1 1494.45 201.21 1495.34 203.88 1495.78 203.88 1496.67 204.33 1498.46 204.33 1498.9 205.67 1501.58 205.22 1502.91 206.56 1500.69 207 1499.35 211.91 1497.57 211.91 1496.67 212.35 1495.78 212.35 1494.89 213.24 1493.56 212.8 1494 211.46 1493.56 211.02 1492.66 211.46 1490.43 211.46 1489.54 211.02 1487.76 211.46 1485.53 211.91 1484.64 211.46 1484.64 211.46" fill="#007ac9"/>
      <polygon id="bf5578df-5c5e-4286-a912-5086eb4431d8" data-name="Kauniainei" points="1495.78 203.88 1496.67 204.33 1498.46 204.33 1498.9 205.67 1501.58 205.22 1502.91 206.56 1500.69 207 1499.35 211.91 1497.57 211.91 1496.67 212.35 1495.78 212.35 1494.89 213.24 1493.56 212.8 1494 211.46 1493.56 211.02 1492.66 211.46 1490.43 211.46 1489.54 211.02 1487.76 211.46 1485.53 211.91 1484.64 211.46 1483.75 210.57 1485.53 206.56 1490.88 204.78 1492.66 204.33 1492.22 202.1 1494.45 201.21 1495.34 203.88 1495.78 203.88 1495.78 203.88" fill="#87c3eb" stroke="#fff" stroke-miterlimit="10" stroke-width="1.22"/>
      <text transform="translate(1468.79 222.74)" font-size="7.58" fill="#fff" font-family="GothamRounded-Medium, Gotham Rounded"><tspan letter-spacing="-0.01em">K</tspan><tspan x="5.33" y="0">auniainen</tspan><tspan font-family="GothamRounded-Book, Gotham Rounded"><tspan x="0" y="7.87">G</tspan><tspan x="5.95" y="7.87" letter-spacing="-0.02em">r</tspan><tspan x="8.83" y="7.87" letter-spacing="0em">an</tspan><tspan x="17.89" y="7.87" letter-spacing="-0.01em">k</tspan><tspan x="22.13" y="7.87">ulla</tspan></tspan></text>
    </g>
    <g id="b7ced3f1-0953-4e2e-af75-eaa1c92f13d3" data-name="Tuusula">
      <polygon points="1576.86 32.88 1575.49 33.8 1575.27 33.65 1575.11 33.72 1574.89 33.72 1573.67 34.18 1573.29 38.05 1573.21 38.43 1572.53 38.58 1565.24 39.8 1565.16 39.8 1565.01 39.12 1562.12 38.51 1562.2 38.05 1561.97 37.98 1561.21 37.83 1561.06 37.9 1560.9 38.58 1560.9 38.66 1560.83 38.66 1560.6 38.81 1560.53 38.89 1560.07 38.89 1559.99 38.66 1559.77 38.66 1559.69 38.66 1559.38 37.45 1557.71 38.36 1557.26 38.58 1556.35 39.04 1554.75 39.88 1554.45 40.03 1552.32 41.17 1550.65 42.08 1546.62 44.21 1546.39 50.21 1546.77 50.36 1547.3 50.29 1547.76 50.74 1547.3 50.97 1549.43 53.17 1550.12 53.93 1550.65 54.01 1550.65 54.31 1550.72 55.38 1550.19 55.45 1550.34 58.34 1552.39 59.78 1552.7 61 1551.18 61.99 1553.23 63.74 1553.31 63.66 1555.36 62.37 1554.75 61.46 1555.66 60.16 1556.57 59.86 1557.26 61.3 1560.68 59.41 1560.75 60.09 1560.98 60.62 1560.6 61.38 1560.45 62.37 1560.22 63.51 1559.99 64.42 1559.77 65.41 1559.46 66.32 1559.23 66.93 1559.01 67.61 1558.93 68.22 1558.63 68.67 1558.32 69.13 1558.32 70.04 1558.32 70.12 1558.17 71.11 1558.4 72.78 1558.4 73.31 1558.55 73.92 1558.4 74.68 1557.94 75.06 1557.03 76.96 1553.23 84.86 1552.93 85.47 1552.62 86 1551.26 88.96 1550.65 90.18 1549.66 95.12 1542.06 101.73 1540.85 106.74 1540.16 109.4 1536.06 115.03 1534.83 116.81 1533.53 118.21 1534.41 122.06 1535.21 123.37 1535.7 126.53 1537.6 129 1542.18 136.18 1549.37 147.5 1553.39 152.38 1565.18 151.97 1572.84 147.31 1575.29 145.68 1570.85 138.97 1569.42 136.88 1571.5 133.84 1574.65 136.17 1577.77 133.56 1580.8 135.6 1581.93 134.71 1582.41 133.22 1582.75 130.41 1583.82 130.7 1583.87 129.58 1585.54 129.69 1584.79 123.09 1584.18 115.8 1585.24 107.8 1587.43 106.86 1601.66 101.12 1602.3 99.59 1601.33 90.86 1598.59 91.47 1596.16 92.16 1594.11 92.76 1594.95 97.85 1588.87 99.37 1580.59 97.78 1577.7 96.79 1577.09 94.71 1576.33 93.45 1577.77 91.85 1579.98 90.33 1577.62 86.68 1575.95 84.03 1575.87 83.72 1575.87 82.96 1575.87 82.35 1575.65 81.59 1576.1 80.76 1577.17 80.83 1578.08 80.38 1577.47 78.93 1579.45 77.79 1579.37 77.34 1579.75 77.11 1579.29 75.82 1579.07 75.36 1578.46 73.69 1576.41 67.92 1575.57 65.71 1578.76 66.17 1578.99 66.78 1583.47 67.23 1583.7 65.56 1588.26 66.47 1588.18 65.79 1588.79 65.71 1588.87 66.55 1590.69 66.7 1590.69 67.31 1590.24 67.16 1589.78 67.46 1590.16 67.84 1589.78 68.37 1590.24 68.75 1589.86 69.06 1589.93 69.21 1590.16 69.51 1590.31 70.27 1590.54 71.41 1590.99 72.47 1591.22 72.4 1591.53 72.4 1591.6 72.4 1591.91 72.4 1592.13 71.87 1592.52 71.49 1593.05 71.33 1593.73 71.18 1592.67 70.27 1593.81 69.28 1593.88 69.81 1594.64 69.74 1594.57 68.75 1599.28 69.51 1599.73 69.59 1599.66 70.27 1600.34 70.35 1600.19 69.59 1600.72 68.6 1601.03 68.37 1601.33 68.07 1601.56 67.84 1601.56 67.08 1602.55 64.57 1602.47 64.57 1601.86 63.74 1601.48 63.36 1601.03 62.75 1599.73 61.15 1599.58 60.92 1598.59 59.78 1596.92 57.66 1596.69 57.43 1595.02 55.38 1593.81 53.93 1593.73 53.78 1592.74 52.57 1592.13 51.81 1591.91 51.58 1586.28 44.66 1584.84 42.84 1584.54 42.46 1583.78 41.55 1578.46 35.01 1576.86 32.88" fill="#fff"/>
      <text transform="translate(1545.03 113.33)" font-size="7.58" fill="#007ac9" font-family="GothamRounded-Medium, Gotham Rounded"><tspan letter-spacing="-0.07em">T</tspan><tspan x="4.42" y="0">uusula</tspan><tspan font-family="GothamRounded-Book, Gotham Rounded"><tspan x="3.45" y="7.87" letter-spacing="-0.09em">T</tspan><tspan x="7.72" y="7.87">us</tspan><tspan x="16.17" y="7.87" letter-spacing="-0.02em">b</tspan><tspan x="21.04" y="7.87">y</tspan></tspan></text>
    </g>
    <g id="852905be-dd2e-45da-b9c7-75e6c80bccf8" data-name="Sipoo">
      <polygon points="1664.26 153.07 1664.26 153.97 1676.73 174.47 1680.3 177.59 1681.19 179.82 1682.98 181.6 1683.42 180.71 1687.43 184.72 1687.43 186.06 1687.88 187.84 1687.43 190.07 1684.76 194.08 1683.86 195.42 1682.98 197.2 1681.64 197.64 1680.3 195.42 1680.3 194.08 1682.53 192.74 1682.53 191.41 1678.96 193.63 1677.63 193.19 1676.29 191.85 1676.73 194.52 1672.72 195.86 1673.17 191.41 1670.94 191.41 1667.38 190.07 1670.05 192.29 1671.39 196.31 1666.93 196.31 1666.48 194.97 1666.48 193.19 1665.14 192.74 1664.26 194.08 1662.47 194.08 1661.58 194.08 1659.8 194.08 1656.68 194.97 1654 194.52 1654 193.19 1656.23 187.84 1654.45 187.84 1654.45 185.61 1653.11 186.5 1650.44 186.06 1651.33 188.28 1651.33 189.18 1648.65 189.62 1644.64 183.38 1642.86 178.93 1641.53 178.93 1643.75 184.28 1649.1 192.74 1648.65 193.63 1645.98 192.74 1644.64 190.96 1641.97 190.96 1640.63 193.19 1636.62 192.74 1634.39 193.19 1631.28 193.63 1628.6 194.97 1624.59 195.42 1621.47 194.08 1621.91 190.51 1621.02 190.51 1618.35 189.18 1619.24 188.73 1619.69 188.28 1619.69 186.95 1619.69 186.06 1620.58 183.83 1622.36 183.83 1624.14 182.94 1624.59 182.05 1622.81 180.71 1623.25 180.71 1623.7 178.48 1622.81 177.59 1625.03 175.36 1623.25 173.58 1625.48 172.69 1625.03 171.35 1621.47 172.69 1619.24 171.35 1618.8 171.79 1619.24 172.24 1618.35 173.13 1617.46 174.47 1612.56 175.8 1613.44 176.7 1611.22 178.03 1611.22 178.48 1609.88 176.7 1610.33 174.02 1604.53 164.66 1596.07 159.31 1588.49 150.85 1592.94 151.29 1593.84 149.51 1594.28 149.95 1596.07 150.4 1596.07 150.85 1594.72 151.74 1594.72 153.07 1599.63 153.07 1600.97 151.74 1600.97 148.17 1597.85 146.84 1597.4 145.5 1600.97 141.04 1601.41 140.15 1600.08 134.8 1602.3 124.11 1602.3 119.2 1602.3 114.3 1604.53 113.41 1603.64 111.18 1603.19 110.29 1603.19 109.4 1602.75 107.61 1603.19 106.28 1603.64 104.05 1602.75 103.16 1601.86 101.37 1600.97 100.04 1602.3 99.59 1601.41 90.68 1603.77 73.5 1618.43 74.15 1633.5 90.23 1640.63 98.25 1641.97 101.37 1646.87 107.61 1650.44 113.41 1653.56 119.2 1653.56 133.91 1664.26 153.07 1664.26 153.07" fill="#fff"/>
      <path d="M1633.58,98.6" transform="translate(-1.42 -11.05)" fill="none" stroke="#bee4f8" stroke-miterlimit="10" stroke-width="1.5"/>
      <polyline points="1618.35 189.18 1619.24 188.73 1619.69 188.28 1619.69 186.95 1619.69 186.06 1620.58 183.83 1622.36 183.83 1624.14 182.94 1624.59 182.05 1622.81 180.71 1623.25 180.71 1623.7 178.48 1622.81 177.59 1625.03 175.36 1623.25 173.58 1625.48 172.69 1625.03 171.35 1621.47 172.69 1619.24 171.35 1618.8 171.79 1619.24 172.24 1618.35 173.13 1617.46 174.47 1612.56 175.8 1613.44 176.7 1611.22 178.03 1611.22 178.48 1609.88 176.7 1610.33 174.02 1604.53 164.66 1596.07 159.31 1588.49 150.85 1592.94 151.29 1593.84 149.51 1594.28 149.95 1596.07 150.4 1596.07 150.85 1594.72 151.74 1594.72 153.07 1599.63 153.07 1600.97 151.74 1600.97 148.17 1597.85 146.84 1597.4 145.5 1600.97 141.04 1601.41 140.15 1600.08 134.8 1602.3 124.11 1602.3 119.2 1602.3 114.3 1604.53 113.41 1603.64 111.18 1603.19 110.29 1603.19 109.4 1602.75 107.61 1603.19 106.28 1603.64 104.05 1602.75 103.16 1601.86 101.37 1600.97 100.04 1602.3 99.59 1601.41 90.68 1602.25 87.35" fill="none" stroke="#bee4f8" stroke-miterlimit="10" stroke-width="1.5"/>
      <polygon points="1648.24 202.64 1651.15 200.82 1653.32 200.82 1654.05 201.19 1654.41 201.91 1655.13 202.27 1655.5 203 1655.5 204.09 1652.23 204.45 1651.51 204.81 1651.87 206.63 1650.78 208.08 1649.69 208.8 1648.6 208.8 1647.88 207.35 1647.52 205.54 1648.24 202.64 1648.24 202.64" fill="#fff"/>
      <polygon points="1639.53 200.1 1641.35 200.82 1641.71 203 1642.8 203.36 1643.53 201.91 1647.15 203 1647.15 204.09 1646.79 205.54 1646.79 206.99 1647.15 206.99 1647.52 209.53 1646.79 211.34 1644.25 211.71 1643.16 211.34 1642.08 212.43 1641.35 212.79 1640.99 212.07 1640.99 211.71 1641.35 209.89 1641.35 206.63 1639.9 205.18 1639.9 202.64 1637.72 201.55 1637.72 201.19 1637.72 200.46 1639.53 200.1 1639.53 200.1" fill="#fff"/>
      <polygon points="1613.89 209.23 1614.78 209.23 1615.68 211.02 1617.01 211.02 1622.36 210.13 1623.25 210.13 1623.25 211.02 1621.91 213.69 1618.8 214.58 1617.01 216.36 1616.12 215.92 1616.12 213.69 1614.78 212.8 1613.44 210.57 1613.89 209.23 1613.89 209.23" fill="#fff"/>
      <polygon points="1645.09 198.09 1645.98 198.98 1646.87 201.21 1648.21 200.76 1650.88 201.21 1653.11 203.88 1652.67 205.22 1649.99 204.78 1649.99 205.67 1649.99 207.9 1648.65 208.79 1647.32 208.79 1647.32 209.68 1644.64 209.23 1644.2 207.9 1645.54 207.45 1645.54 203.88 1641.97 203.44 1641.08 202.1 1641.53 200.32 1644.2 198.53 1645.09 198.09 1645.09 198.09" fill="#fff"/>
      <polygon points="1618.8 202.99 1621.91 203.44 1622.81 202.99 1624.14 203.88 1624.14 206.11 1622.36 208.79 1618.8 209.68 1617.9 209.68 1615.68 208.34 1614.78 207.9 1615.23 205.22 1615.68 203.88 1618.8 202.99 1618.8 202.99" fill="#fff"/>
      <polygon points="1629.94 200.76 1633.06 201.65 1634.84 202.99 1636.62 203.44 1637.07 204.33 1635.73 205.22 1634.84 207.9 1633.06 208.34 1631.72 207 1630.38 203.44 1629.04 201.65 1629.04 201.21 1629.94 200.76 1629.94 200.76" fill="#fff"/>
      <polygon points="1636.62 205.67 1638.85 206.11 1639.74 207.45 1641.97 207.45 1642.86 207.9 1642.42 209.23 1638.41 210.13 1637.07 210.13 1636.62 209.68 1636.62 208.34 1636.18 207.9 1636.18 206.11 1636.62 205.67 1636.62 205.67" fill="#fff"/>
      <polygon points="1635.29 196.31 1641.53 196.75 1641.97 197.2 1641.97 198.53 1640.63 199.43 1641.08 199.87 1638.41 201.21 1637.07 201.21 1634.84 198.53 1634.84 196.75 1635.29 196.31 1635.29 196.31" fill="#fff"/>
      <text transform="translate(1620.09 136.03)" font-size="7.58" fill="#007ac9" font-family="GothamRounded-Medium, Gotham Rounded">Sipoo<tspan font-family="GothamRounded-Book, Gotham Rounded"><tspan x="0" y="7.87">Sibbo</tspan></tspan></text>
    </g>
    <g id="380c0404-c0cf-4f7b-90fc-312bd6185344" data-name="Kerava">
      <polygon id="a773575f-4320-4629-8e84-73f8be294c76" data-name="Kerava" points="1602.3 124.11 1600.08 134.8 1601.41 140.15 1600.97 141.04 1597.85 141.04 1597.85 140.15 1595.17 140.15 1591.61 137.92 1585.37 137.03 1585.81 136.14 1584.03 134.36 1583.14 135.25 1582.25 134.8 1583.14 130.79 1584.03 131.24 1584.03 130.34 1585.81 130.34 1584.48 115.64 1585.37 108.06 1601.86 101.37 1602.75 103.16 1603.64 104.05 1603.19 106.28 1602.75 107.61 1603.19 109.4 1603.19 110.29 1603.64 111.18 1604.53 113.41 1602.3 114.3 1602.3 119.2 1602.3 124.11 1602.3 124.11" fill="#fff"/>
      <polygon id="25eff471-1dfc-4a59-9be4-d425163d8c30" data-name="Kerava" points="1602.3 124.11 1600.08 134.8 1601.41 140.15 1600.97 141.04 1597.85 141.04 1597.85 140.15 1595.17 140.15 1591.61 137.92 1585.37 137.03 1585.81 136.14 1584.03 134.36 1583.14 135.25 1582.25 134.8 1583.14 130.79 1584.03 131.24 1584.03 130.34 1585.81 130.34 1584.48 115.64 1585.37 108.06 1601.86 101.37 1602.75 103.16 1603.64 104.05 1603.19 106.28 1602.75 107.61 1603.19 109.4 1603.19 110.29 1603.64 111.18 1604.53 113.41 1602.3 114.3 1602.3 119.2 1602.3 124.11 1602.3 124.11" fill="none" stroke="#bee4f8" stroke-miterlimit="10" stroke-width="1.73"/>
      <text transform="translate(1585.57 118.8)" font-size="7.58" fill="#007ac9" font-family="GothamRounded-Medium, Gotham Rounded"><tspan letter-spacing="-0.03em">K</tspan><tspan x="5.18" y="0">e</tspan><tspan x="9.76" y="0" letter-spacing="-0.03em">r</tspan><tspan x="12.7" y="0" letter-spacing="-0.02em">a</tspan><tspan x="17.03" y="0" letter-spacing="-0.01em">v</tspan><tspan x="21.36" y="0">a</tspan><tspan font-family="GothamRounded-Book, Gotham Rounded"><tspan x="3.94" y="7.87" letter-spacing="-0.03em">K</tspan><tspan x="9.12" y="7.87">er</tspan><tspan x="16.69" y="7.87" letter-spacing="-0.03em">v</tspan><tspan x="20.91" y="7.87">o</tspan></tspan></text>
    </g>
    <text transform="translate(1540.85 196.79)" font-size="7.58" fill="#fff" font-family="GothamRounded-Medium, Gotham Rounded">Helsinki<tspan font-family="GothamRounded-Book, Gotham Rounded"><tspan x="0" y="7.87">Helsing</tspan><tspan x="27.73" y="7.87" letter-spacing="-0.01em">f</tspan><tspan x="30.44" y="7.87">ors</tspan></tspan></text>
    <path d="M1669.31,98.94" transform="translate(-1.42 -11.05)" fill="none" stroke="#fff" stroke-miterlimit="10" stroke-width="1.22"/>
    <path d="M1531.27,98.94" transform="translate(-1.42 -11.05)" fill="none" stroke="#fff" stroke-miterlimit="10" stroke-width="1.22"/>
    <text transform="translate(1329.34 75.44)" font-size="24" fill="#007ac9" font-family="GothamRounded-Medium, Gotham Rounded" letter-spacing="-0.02em">L<tspan x="14.38" y="0" letter-spacing="-0.01em">i</tspan><tspan x="20.89" y="0" letter-spacing="-0.01em">p</tspan><tspan x="36.76" y="0" letter-spacing="-0.01em">p</tspan><tspan x="52.65" y="0" letter-spacing="-0.02em">u</tspan><tspan x="66.95" y="0" letter-spacing="-0.01em">v</tspan><tspan x="80.87" y="0" letter-spacing="-0.03em">y</tspan><tspan x="94.12" y="0" letter-spacing="-0.01em">ö</tspan><tspan x="109.63" y="0" letter-spacing="-0.03em">h</tspan><tspan x="123.72" y="0" letter-spacing="-0.02em">y</tspan><tspan x="137.26" y="0" letter-spacing="-0.02em">k</tspan><tspan x="150.78" y="0" letter-spacing="-0.03em">k</tspan><tspan x="163.98" y="0" letter-spacing="-0.02em">e</tspan><tspan x="178.12" y="0" letter-spacing="-0.02em">e</tspan><tspan x="192.04" y="0" letter-spacing="-0.01em">t</tspan><tspan x="201.67" y="0" letter-spacing="0.09em"> </tspan><tspan font-family="GothamRounded-Book, Gotham Rounded" letter-spacing="-0.04em"><tspan x="0" y="26">R</tspan><tspan x="16.4" y="26" letter-spacing="-0.03em">e</tspan><tspan x="29.86" y="26" letter-spacing="-0.04em">s</tspan><tspan x="40.93" y="26" letter-spacing="-0.05em">e</tspan><tspan x="54.02" y="26" letter-spacing="-0.07em">z</tspan><tspan x="65.75" y="26" letter-spacing="-0.03em">o</tspan><tspan x="80.53" y="26" letter-spacing="-0.03em">ne</tspan><tspan x="108.13" y="26" letter-spacing="-0.03em">r</tspan></tspan></text>
  </g>
  <g id="67f4a602-b728-4bdd-bb09-487d46fd343f" data-name="Reaaliaikainfo">
    <rect x="464.88" y="28.63" width="411.02" height="357.17" rx="25.42" ry="25.42" fill="#bee4f8"/>
    <line x1="497.88" y1="346.83" x2="843.56" y2="346.83" fill="#fff" stroke="#fff" stroke-linecap="round" stroke-linejoin="round" stroke-width="25.45"/>
    <path d="M1080.82,367.65s8.63-8.62,8.7-8.7a1.28,1.28,0,0,0,.36-.87,1.24,1.24,0,0,0-.36-.86h0l-8.7-8.7a1.23,1.23,0,0,0-1.73,1.74l6.61,6.6h-14.44a1.23,1.23,0,0,0,0,2.45h14.44l-6.61,6.6a1.23,1.23,0,0,0,1.73,1.74" transform="translate(-1.42 -11.05)" fill="#007ac9"/>
    <rect x="732.75" y="119.75" width="133.39" height="133.39" fill="#fff"/>
    <text transform="translate(495.23 75.25)" font-size="24" fill="#007ac9" font-family="GothamRounded-Medium, Gotham Rounded" letter-spacing="-0.02em">R<tspan x="16.94" y="0" letter-spacing="-0.02em">e</tspan><tspan x="31.02" y="0" letter-spacing="-0.01em">a</tspan><tspan x="44.85" y="0" letter-spacing="-0.01em">a</tspan><tspan x="58.65" y="0" letter-spacing="-0.02em">l</tspan><tspan x="65.08" y="0" letter-spacing="-0.01em">i</tspan><tspan x="71.6" y="0" letter-spacing="-0.01em">a</tspan><tspan x="85.33" y="0" letter-spacing="-0.01em">i</tspan><tspan x="91.84" y="0" letter-spacing="-0.02em">k</tspan><tspan x="105.35" y="0" letter-spacing="-0.01em">a</tspan><tspan x="119.08" y="0" letter-spacing="-0.01em">i</tspan><tspan x="125.59" y="0" letter-spacing="-0.01em">n</tspan><tspan x="140.23" y="0" letter-spacing="-0.01em">e</tspan><tspan x="154.45" y="0" letter-spacing="-0.01em">n </tspan><tspan x="176.04" y="0" letter-spacing="-0.01em">i</tspan><tspan x="182.56" y="0" letter-spacing="-0.02em">n</tspan><tspan x="197" y="0" letter-spacing="-0.03em">f</tspan><tspan x="205.37" y="0" letter-spacing="-0.01em">o </tspan><tspan font-family="GothamRounded-Book, Gotham Rounded" letter-spacing="-0.02em"><tspan x="0" y="25">R</tspan><tspan x="16.76" y="25" letter-spacing="-0.02em">e</tspan><tspan x="30.47" y="25" letter-spacing="-0.02em">a</tspan><tspan x="43.95" y="25" letter-spacing="-0.03em">l</tspan><tspan x="49.6" y="25" letter-spacing="-0.03em">t</tspan><tspan x="58.55" y="25" letter-spacing="-0.02em">i</tspan><tspan x="64.33" y="25" letter-spacing="-0.01em">d</tspan><tspan x="79.92" y="25" letter-spacing="-0.02em">s</tspan><tspan x="91.3" y="25" letter-spacing="-0.02em">i</tspan><tspan x="97.1" y="25" letter-spacing="-0.03em">n</tspan><tspan x="111.27" y="25" letter-spacing="-0.03em">f</tspan><tspan x="119.29" y="25" letter-spacing="-0.02em">o</tspan><tspan x="134.43" y="25" letter-spacing="-0.02em">r</tspan><tspan x="143.72" y="25" letter-spacing="-0.02em">m</tspan><tspan x="166.15" y="25" letter-spacing="-0.03em">a</tspan><tspan x="179.39" y="25" letter-spacing="-0.03em">t</tspan><tspan x="188.34" y="25" letter-spacing="-0.02em">i</tspan><tspan x="194.1" y="25" letter-spacing="-0.02em">o</tspan><tspan x="209.24" y="25" letter-spacing="-0.01em">n</tspan></tspan></text>
    <text transform="translate(497.04 130.98)" font-size="13.22" fill="#007ac9" font-family="GothamRounded-Medium, Gotham Rounded" letter-spacing="-0.02em">T<tspan x="8.3" y="0" letter-spacing="0.01em">ä</tspan><tspan x="16.26" y="0" letter-spacing="0.02em">m</tspan><tspan x="29.02" y="0" letter-spacing="0.01em">ä</tspan><tspan x="36.97" y="0" letter-spacing="0.01em">n </tspan><tspan x="49.39" y="0" letter-spacing="-0.01em">p</tspan><tspan x="58.12" y="0" letter-spacing="0em">y</tspan><tspan x="65.88" y="0" letter-spacing="0.01em">s</tspan><tspan x="72.69" y="0" letter-spacing="0.01em">ä</tspan><tspan x="80.65" y="0" letter-spacing="0em">k</tspan><tspan x="88.32" y="0" letter-spacing="0.01em">i</tspan><tspan x="92.22" y="0" letter-spacing="0.01em">n </tspan><tspan x="104.64" y="0" letter-spacing="0.01em">l</tspan><tspan x="108.5" y="0" letter-spacing="0.01em">i</tspan><tspan x="112.34" y="0" letter-spacing="0.01em">i</tspan><tspan x="116.24" y="0" letter-spacing="-0.01em">k</tspan><tspan x="123.83" y="0" letter-spacing="0.01em">e</tspan><tspan x="131.97" y="0" letter-spacing="0.02em">n</tspan><tspan x="140.36" y="0" letter-spacing="0.01em">n</tspan><tspan x="148.73" y="0" letter-spacing="-0.01em">e</tspan><tspan x="156.59" y="0" letter-spacing="0em">v</tspan><tspan x="164.27" y="0" letter-spacing="0.01em">ä</tspan><tspan x="172.18" y="0" letter-spacing="0.01em">l</tspan><tspan x="176.04" y="0" letter-spacing="0.01em">i</tspan><tspan x="179.94" y="0" letter-spacing="0.01em">n</tspan><tspan x="188.31" y="0" letter-spacing="0.01em">e</tspan><tspan x="196.38" y="0" letter-spacing="0.01em">i</tspan><tspan x="200.26" y="0" letter-spacing="0.01em">d</tspan><tspan x="209.31" y="0" letter-spacing="0.01em">e</tspan><tspan x="217.45" y="0" letter-spacing="0.01em">n </tspan><tspan letter-spacing="-0.01em"><tspan x="0" y="16.02">r</tspan><tspan x="5.37" y="16.02" letter-spacing="0.01em">e</tspan><tspan x="13.44" y="16.02" letter-spacing="0.01em">a</tspan><tspan x="21.36" y="16.02" letter-spacing="0.01em">a</tspan><tspan x="29.27" y="16.02" letter-spacing="0.01em">l</tspan><tspan x="33.13" y="16.02" letter-spacing="0.01em">i</tspan><tspan x="37.03" y="16.02" letter-spacing="0.01em">a</tspan><tspan x="44.9" y="16.02" letter-spacing="0.01em">i</tspan><tspan x="48.8" y="16.02" letter-spacing="0.01em">k</tspan><tspan x="56.55" y="16.02" letter-spacing="0.01em">a</tspan><tspan x="64.42" y="16.02" letter-spacing="0.01em">i</tspan><tspan x="68.35" y="16.02" letter-spacing="0.01em">s</tspan><tspan x="75.08" y="16.02" letter-spacing="0em">e</tspan><tspan x="83.07" y="16.02" letter-spacing="0.01em">t </tspan><tspan x="92.73" y="16.02" letter-spacing="0em">k</tspan><tspan x="100.43" y="16.02" letter-spacing="0.01em">u</tspan><tspan x="108.76" y="16.02" letter-spacing="0.01em">l</tspan><tspan x="112.68" y="16.02" letter-spacing="0em">k</tspan><tspan x="120.38" y="16.02" letter-spacing="0.01em">u</tspan><tspan x="128.69" y="16.02" letter-spacing="0em">t</tspan><tspan x="134.06" y="16.02" letter-spacing="0.01em">i</tspan><tspan x="137.92" y="16.02" letter-spacing="0.01em">e</tspan><tspan x="146.04" y="16.02" letter-spacing="0.01em">d</tspan><tspan x="155.07" y="16.02" letter-spacing="0em">o</tspan><tspan x="163.77" y="16.02" letter-spacing="0.01em">t </tspan><tspan x="173.43" y="16.02" letter-spacing="0.01em">s</tspan><tspan x="180.24" y="16.02" letter-spacing="0.01em">a</tspan><tspan x="188.17" y="16.02" letter-spacing="0em">a</tspan><tspan x="195.98" y="16.02" letter-spacing="0.01em">t </tspan></tspan><tspan letter-spacing="0.01em"><tspan x="0" y="32.04">Re</tspan><tspan x="17.72" y="32.04" letter-spacing="0em">i</tspan><tspan x="21.54" y="32.04" letter-spacing="0.02em">t</tspan><tspan x="27.25" y="32.04" letter-spacing="0em">t</tspan><tspan x="32.62" y="32.04" letter-spacing="0.01em">i</tspan><tspan x="36.48" y="32.04" letter-spacing="0.01em">o</tspan><tspan x="45.33" y="32.04" letter-spacing="0.01em">p</tspan><tspan x="54.37" y="32.04" letter-spacing="0.01em">p</tspan><tspan x="63.36" y="32.04" letter-spacing="0.01em">a</tspan><tspan x="71.29" y="32.04" letter-spacing="0.01em">a</tspan><tspan x="79.24" y="32.04" letter-spacing="0.01em">s</tspan><tspan x="86.01" y="32.04" letter-spacing="0.01em">t</tspan><tspan x="91.53" y="32.04" letter-spacing="0.01em">a </tspan><tspan x="103.51" y="32.04" letter-spacing="-0.04em">(</tspan><tspan x="108.77" y="32.04" letter-spacing="-0.01em">r</tspan><tspan x="114.15" y="32.04">e</tspan><tspan x="122.22" y="32.04" letter-spacing="0em">i</tspan><tspan x="126.05" y="32.04" letter-spacing="0.02em">t</tspan><tspan x="131.75" y="32.04" letter-spacing="0em">t</tspan><tspan x="137.12" y="32.04" letter-spacing="0.01em">i</tspan><tspan x="140.98" y="32.04" letter-spacing="0.01em">o</tspan><tspan x="149.83" y="32.04" letter-spacing="0.01em">p</tspan><tspan x="158.82" y="32.04" letter-spacing="0.01em">a</tspan><tspan x="166.77" y="32.04" letter-spacing="0.02em">s</tspan><tspan x="173.67" y="32.04" letter-spacing="0em">.</tspan><tspan x="177.25" y="32.04" letter-spacing="0.01em">fi</tspan><tspan x="186.09" y="32.04" letter-spacing="0.01em">) </tspan></tspan><tspan letter-spacing="0em"><tspan x="0" y="48.06">v</tspan><tspan x="7.69" y="48.06" letter-spacing="0.01em">i</tspan><tspan x="11.55" y="48.06" letter-spacing="0.01em">e</tspan><tspan x="19.68" y="48.06" letter-spacing="-0.01em">r</tspan><tspan x="25.06" y="48.06" letter-spacing="0.01em">e</tspan><tspan x="33.17" y="48.06" letter-spacing="0.01em">s</tspan><tspan x="39.97" y="48.06" letter-spacing="0.01em">s</tspan><tspan x="46.78" y="48.06" letter-spacing="0.01em">ä </tspan><tspan x="58.77" y="48.06" letter-spacing="0.01em">o</tspan><tspan x="67.57" y="48.06" letter-spacing="0.01em">l</tspan><tspan x="71.48" y="48.06" letter-spacing="-0.01em">e</tspan><tspan x="79.34" y="48.06" letter-spacing="0em">v</tspan><tspan x="87.03" y="48.06" letter-spacing="0.01em">a</tspan><tspan x="94.98" y="48.06" letter-spacing="0.01em">n </tspan><tspan x="107.41" y="48.06" letter-spacing="0.02em">Q</tspan><tspan x="118.95" y="48.06" letter-spacing="0em">R</tspan><tspan x="128.49" y="48.06" letter-spacing="0.02em">-</tspan><tspan x="134.09" y="48.06" letter-spacing="-0.01em">k</tspan><tspan x="141.68" y="48.06" letter-spacing="0.01em">o</tspan><tspan x="150.49" y="48.06" letter-spacing="0.01em">o</tspan><tspan x="159.32" y="48.06" letter-spacing="0.01em">d</tspan><tspan x="168.32" y="48.06" letter-spacing="0.01em">i</tspan><tspan x="172.22" y="48.06" letter-spacing="0.01em">n </tspan><tspan x="184.64" y="48.06" letter-spacing="-0.01em">a</tspan><tspan x="192.28" y="48.06" letter-spacing="0em">v</tspan><tspan x="200.06" y="48.06" letter-spacing="0.01em">u</tspan><tspan x="208.39" y="48.06" letter-spacing="0.01em">l</tspan><tspan x="212.25" y="48.06" letter-spacing="0.01em">l</tspan><tspan x="216.18" y="48.06" letter-spacing="0.01em">a </tspan></tspan><tspan letter-spacing="0.01em"><tspan x="0" y="64.08">t</tspan><tspan x="5.51" y="64.08" letter-spacing="0.01em">a</tspan><tspan x="13.38" y="64.08" letter-spacing="0.01em">i </tspan><tspan x="21.39" y="64.08" letter-spacing="0.01em">m</tspan><tspan x="34.14" y="64.08" letter-spacing="0.01em">e</tspan><tspan x="42.27" y="64.08" letter-spacing="0.01em">n</tspan><tspan x="50.64" y="64.08" letter-spacing="0.01em">e</tspan><tspan x="58.78" y="64.08" letter-spacing="0.02em">m</tspan><tspan x="71.54" y="64.08" letter-spacing="0.01em">ä</tspan><tspan x="79.44" y="64.08" letter-spacing="0.01em">l</tspan><tspan x="83.31" y="64.08" letter-spacing="0.01em">l</tspan><tspan x="87.23" y="64.08" letter-spacing="0.01em">ä </tspan><tspan x="99.22" y="64.08" letter-spacing="-0.01em">v</tspan><tspan x="106.81" y="64.08" letter-spacing="0.01em">e</tspan><tspan x="114.95" y="64.08">r</tspan><tspan x="120.49" y="64.08" letter-spacing="0.01em">k</tspan><tspan x="128.24" y="64.08" letter-spacing="-0.01em">k</tspan><tspan x="135.83" y="64.08" letter-spacing="0.03em">o</tspan><tspan x="144.87" y="64.08" letter-spacing="0.03em">-</tspan><tspan x="150.61" y="64.08" letter-spacing="0.01em">o</tspan><tspan x="159.4" y="64.08" letter-spacing="0.01em">so</tspan><tspan x="174.86" y="64.08" letter-spacing="0em">i</tspan><tspan x="178.69" y="64.08" letter-spacing="0.02em">t</tspan><tspan x="184.39" y="64.08" letter-spacing="-0.01em">t</tspan><tspan x="189.66" y="64.08" letter-spacing="0.01em">e</tspan><tspan x="197.75" y="64.08" letter-spacing="0.02em">e</tspan><tspan x="206.05" y="64.08" letter-spacing="0.01em">-</tspan></tspan><tspan letter-spacing="0.01em"><tspan x="0" y="80.1">se</tspan><tspan x="14.83" y="80.1" letter-spacing="0.01em">e</tspan><tspan x="22.97" y="80.1" letter-spacing="0.02em">n</tspan><tspan x="31.46" y="80.1" letter-spacing="0.01em">.</tspan></tspan><tspan font-family="GothamRounded-Book, Gotham Rounded" letter-spacing="0em"><tspan x="0" y="102.13">R</tspan><tspan x="9.55" y="102.13" letter-spacing="0em">e</tspan><tspan x="17.41" y="102.13" letter-spacing="0.01em">a</tspan><tspan x="25.15" y="102.13" letter-spacing="0em">l</tspan><tspan x="28.58" y="102.13" letter-spacing="-0.01em">t</tspan><tspan x="33.82" y="102.13" letter-spacing="0em">i</tspan><tspan x="37.32" y="102.13" letter-spacing="0.01em">d</tspan><tspan x="46.22" y="102.13" letter-spacing="0em">s</tspan><tspan x="52.8" y="102.13" letter-spacing="0em">i</tspan><tspan x="56.31" y="102.13" letter-spacing="0em">n</tspan><tspan x="64.43" y="102.13" letter-spacing="-0.01em">f</tspan><tspan x="69.17" y="102.13" letter-spacing="0.01em">o</tspan><tspan x="77.82" y="102.13" letter-spacing="0.01em">r</tspan><tspan x="83.25" y="102.13" letter-spacing="0.01em">m</tspan><tspan x="95.91" y="102.13" letter-spacing="0em">a</tspan><tspan x="103.52" y="102.13" letter-spacing="-0.01em">t</tspan><tspan x="108.76" y="102.13" letter-spacing="0em">i</tspan><tspan x="112.25" y="102.13" letter-spacing="0.01em">o</tspan><tspan x="120.9" y="102.13" letter-spacing="0.01em">n </tspan><tspan x="133.27" y="102.13" letter-spacing="0.01em">o</tspan><tspan x="141.92" y="102.13" letter-spacing="0.01em">m de </tspan><tspan x="179.68" y="102.13" letter-spacing="0em">l</tspan><tspan x="183.14" y="102.13" letter-spacing="0em">i</tspan><tspan x="186.65" y="102.13" letter-spacing="0.01em">n</tspan><tspan x="194.87" y="102.13" letter-spacing="0em">j</tspan><tspan x="198.38" y="102.13" letter-spacing="0.01em">e</tspan><tspan x="206.33" y="102.13" letter-spacing="0.01em">r </tspan></tspan><tspan font-family="GothamRounded-Book, Gotham Rounded" letter-spacing="0em"><tspan x="0" y="118.15">s</tspan><tspan x="6.61" y="118.15" letter-spacing="0.01em">o</tspan><tspan x="15.26" y="118.15" letter-spacing="0.01em">m a</tspan><tspan x="39.84" y="118.15" letter-spacing="-0.02em">n</tspan><tspan x="47.76" y="118.15" letter-spacing="-0.01em">v</tspan><tspan x="55.38" y="118.15" letter-spacing="0.01em">ä</tspan><tspan x="63.17" y="118.15" letter-spacing="0.01em">n</tspan><tspan x="71.42" y="118.15" letter-spacing="0.01em">d</tspan><tspan x="80.33" y="118.15" letter-spacing="0.01em">e</tspan><tspan x="88.28" y="118.15" letter-spacing="0.01em">r d</tspan><tspan x="106.77" y="118.15" letter-spacing="0.01em">e</tspan><tspan x="114.72" y="118.15" letter-spacing="0.01em">n</tspan><tspan x="122.99" y="118.15" letter-spacing="0.01em">n</tspan><tspan x="131.22" y="118.15" letter-spacing="0.01em">a </tspan><tspan x="143.11" y="118.15" letter-spacing="0.01em">h</tspan><tspan x="151.34" y="118.15" letter-spacing="0.01em">å</tspan><tspan x="159.08" y="118.15" letter-spacing="0em">l</tspan><tspan x="162.55" y="118.15" letter-spacing="0em">l</tspan><tspan x="166.07" y="118.15" letter-spacing="0.01em">p</tspan><tspan x="174.91" y="118.15" letter-spacing="0em">l</tspan><tspan x="178.42" y="118.15" letter-spacing="0em">a</tspan><tspan x="186.03" y="118.15" letter-spacing="0.01em">t</tspan><tspan x="191.55" y="118.15" letter-spacing="0.01em">s </tspan></tspan><tspan font-family="GothamRounded-Book, Gotham Rounded" letter-spacing="0em"><tspan x="0" y="134.17">h</tspan><tspan x="8.2" y="134.17" letter-spacing="0em">i</tspan><tspan x="11.63" y="134.17" letter-spacing="0.02em">t</tspan><tspan x="17.25" y="134.17" letter-spacing="0em">t</tspan><tspan x="22.61" y="134.17" letter-spacing="0.01em">ar du i </tspan><tspan x="68.97" y="134.17" letter-spacing="0em">R</tspan><tspan x="78.51" y="134.17" letter-spacing="0.01em">e</tspan><tspan x="86.44" y="134.17" letter-spacing="0em">s</tspan><tspan x="93.05" y="134.17" letter-spacing="0.01em">e</tspan><tspan x="101" y="134.17" letter-spacing="0.01em">p</tspan><tspan x="109.84" y="134.17" letter-spacing="0em">l</tspan><tspan x="113.36" y="134.17" letter-spacing="0.01em">ane</tspan><tspan x="137.36" y="134.17" letter-spacing="0em">r</tspan><tspan x="142.75" y="134.17" letter-spacing="0.01em">a</tspan><tspan x="150.54" y="134.17" letter-spacing="-0.01em">r</tspan><tspan x="155.71" y="134.17" letter-spacing="0.01em">e</tspan><tspan x="163.66" y="134.17" letter-spacing="0.01em">n </tspan></tspan><tspan font-family="GothamRounded-Book, Gotham Rounded" letter-spacing="-0.06em"><tspan x="0" y="150.19">(</tspan><tspan x="4.98" y="150.19" letter-spacing="-0.01em">r</tspan><tspan x="10.15" y="150.19" letter-spacing="0.01em">e</tspan><tspan x="18.05" y="150.19" letter-spacing="0em">i</tspan><tspan x="21.48" y="150.19" letter-spacing="0.02em">t</tspan><tspan x="27.1" y="150.19" letter-spacing="-0.01em">t</tspan><tspan x="32.34" y="150.19" letter-spacing="0em">i</tspan><tspan x="35.83" y="150.19" letter-spacing="0.01em">o</tspan><tspan x="44.48" y="150.19" letter-spacing="0.01em">p</tspan><tspan x="53.35" y="150.19" letter-spacing="0.01em">a</tspan><tspan x="61.12" y="150.19" letter-spacing="0.02em">s</tspan><tspan x="67.92" y="150.19" letter-spacing="-0.01em">.</tspan><tspan x="70.99" y="150.19" letter-spacing="0.01em">fi</tspan><tspan x="79.42" y="150.19" letter-spacing="-0.05em">/</tspan><tspan x="85.43" y="150.19" letter-spacing="0em">s</tspan><tspan x="92.05" y="150.19" letter-spacing="-0.07em">v</tspan><tspan x="98.91" y="150.19" letter-spacing="0.01em">) </tspan><tspan x="108.87" y="150.19" letter-spacing="0.01em">me</tspan><tspan x="129.52" y="150.19" letter-spacing="0.01em">d </tspan><tspan x="142.52" y="150.19" letter-spacing="0.02em">Q</tspan><tspan x="154.04" y="150.19" letter-spacing="-0.02em">R</tspan><tspan x="163.35" y="150.19" letter-spacing="0em">-</tspan><tspan x="168.78" y="150.19" letter-spacing="-0.02em">k</tspan><tspan x="176.08" y="150.19" letter-spacing="0.01em">o</tspan><tspan x="184.73" y="150.19" letter-spacing="0.01em">d</tspan><tspan x="193.64" y="150.19" letter-spacing="0.01em">e</tspan><tspan x="201.59" y="150.19" letter-spacing="0.01em">n </tspan></tspan><tspan font-family="GothamRounded-Book, Gotham Rounded" letter-spacing="0em"><tspan x="0" y="166.21">s</tspan><tspan x="6.61" y="166.21" letter-spacing="0.01em">o</tspan><tspan x="15.26" y="166.21" letter-spacing="0.01em">m fin</tspan><tspan x="48.8" y="166.21" letter-spacing="0.01em">n</tspan><tspan x="57.05" y="166.21" letter-spacing="0.01em">s </tspan><tspan x="67.86" y="166.21" letter-spacing="0.01em">h</tspan><tspan x="76.1" y="166.21" letter-spacing="0.01em">är </tspan><tspan x="93.46" y="166.21" letter-spacing="0.01em">b</tspan><tspan x="102.35" y="166.21" letter-spacing="-0.01em">r</tspan><tspan x="107.53" y="166.21" letter-spacing="0.01em">e</tspan><tspan x="115.48" y="166.21" letter-spacing="0em">d</tspan><tspan x="124.2" y="166.21" letter-spacing="-0.01em">v</tspan><tspan x="131.81" y="166.21" letter-spacing="0em">i</tspan><tspan x="135.31" y="166.21" letter-spacing="0.01em">d </tspan><tspan x="148.32" y="166.21" letter-spacing="0.01em">e</tspan><tspan x="156.22" y="166.21" letter-spacing="0em">l</tspan><tspan x="159.69" y="166.21" letter-spacing="0em">l</tspan><tspan x="163.23" y="166.21" letter-spacing="0.01em">e</tspan><tspan x="171.18" y="166.21" letter-spacing="0.01em">r </tspan></tspan><tspan font-family="GothamRounded-Book, Gotham Rounded" letter-spacing="0.01em"><tspan x="0" y="182.23">g</tspan><tspan x="8.91" y="182.23" letter-spacing="0.01em">en</tspan><tspan x="25.12" y="182.23" letter-spacing="0.01em">o</tspan><tspan x="33.77" y="182.23">m </tspan><tspan x="50.57" y="182.23" letter-spacing="0em">a</tspan><tspan x="58.18" y="182.23" letter-spacing="0.02em">t</tspan><tspan x="63.8" y="182.23">t </tspan><tspan x="73.37" y="182.23" letter-spacing="0.01em">s</tspan><tspan x="80.03" y="182.23" letter-spacing="-0.01em">k</tspan><tspan x="87.47" y="182.23" letter-spacing="0em">r</tspan><tspan x="92.85" y="182.23" letter-spacing="-0.01em">i</tspan><tspan x="96.22" y="182.23" letter-spacing="-0.01em">v</tspan><tspan x="103.84" y="182.23">a </tspan><tspan x="115.72" y="182.23" letter-spacing="-0.01em">w</tspan><tspan x="126.91" y="182.23" letter-spacing="0.01em">e</tspan><tspan x="134.86" y="182.23" letter-spacing="0.01em">b</tspan><tspan x="143.75" y="182.23" letter-spacing="0.01em">b</tspan><tspan x="152.62" y="182.23" letter-spacing="0.01em">a</tspan><tspan x="160.39" y="182.23" letter-spacing="0.01em">d</tspan><tspan x="169.27" y="182.23" letter-spacing="-0.01em">r</tspan><tspan x="174.44" y="182.23" letter-spacing="0.01em">e</tspan><tspan x="182.37" y="182.23">s</tspan><tspan x="189.08" y="182.23" letter-spacing="0em">s</tspan><tspan x="195.69" y="182.23" letter-spacing="0.01em">e</tspan><tspan x="203.64" y="182.23" letter-spacing="0.02em">n</tspan><tspan x="212.02" y="182.23">.</tspan></tspan></text>
  </g>
  <g id="0cadbe31-4bfe-4304-a48a-f0728df8a77a" data-name="Pysäkkipalaute">
    <rect x="898.58" y="28.63" width="391.18" height="357.17" rx="24.8" ry="24.8" fill="#bee4f8"/>
    <rect x="1147.13" y="119.75" width="133.39" height="133.39" fill="#fff"/>
    <text transform="translate(931.97 75.25)" font-size="24" fill="#007ac9" font-family="GothamRounded-Medium, Gotham Rounded" letter-spacing="0em">P<tspan x="16.06" y="0" letter-spacing="-0.02em">y</tspan><tspan x="29.59" y="0" letter-spacing="-0.01em">s</tspan><tspan x="41.39" y="0" letter-spacing="-0.01em">ä</tspan><tspan x="55.28" y="0" letter-spacing="-0.02em">k</tspan><tspan x="68.79" y="0" letter-spacing="-0.02em">k</tspan><tspan x="82.15" y="0" letter-spacing="-0.01em">ip</tspan><tspan x="104.41" y="0" letter-spacing="-0.01em">al</tspan><tspan x="124.79" y="0" letter-spacing="-0.01em">a</tspan><tspan x="138.65" y="0" letter-spacing="-0.01em">u</tspan><tspan x="153.18" y="0" letter-spacing="-0.04em">t</tspan><tspan x="162.17" y="0" letter-spacing="-0.01em">e </tspan><tspan font-family="GothamRounded-Book, Gotham Rounded" letter-spacing="-0.01em"><tspan x="0" y="25">H</tspan><tspan x="17.99" y="25" letter-spacing="-0.02em">å</tspan><tspan x="31.47" y="25" letter-spacing="-0.02em">l</tspan><tspan x="37.2" y="25" letter-spacing="-0.02em">l</tspan><tspan x="43.02" y="25" letter-spacing="-0.02em">p</tspan><tspan x="58.51" y="25" letter-spacing="-0.02em">l</tspan><tspan x="64.31" y="25" letter-spacing="-0.03em">a</tspan><tspan x="77.56" y="25" letter-spacing="-0.01em">t</tspan><tspan x="87.01" y="25" letter-spacing="-0.02em">s</tspan><tspan x="98.5" y="25" letter-spacing="-0.04em">r</tspan><tspan x="107.31" y="25" letter-spacing="-0.02em">e</tspan><tspan x="121.13" y="25" letter-spacing="-0.02em">s</tspan><tspan x="132.65" y="25" letter-spacing="-0.02em">p</tspan><tspan x="148.21" y="25" letter-spacing="-0.02em">on</tspan><tspan x="177.77" y="25" letter-spacing="-0.01em">s</tspan></tspan></text>
    <text transform="translate(932.51 130.98)" font-size="13.22" fill="#007ac9" font-family="GothamRounded-Medium, Gotham Rounded"><tspan letter-spacing="0.01em">Anna palau<tspan x="76.01" y="0" letter-spacing="-0.01em">t</tspan><tspan x="81.37" y="0">etta tämän </tspan></tspan><tspan x="0" y="16.02" letter-spacing="0em">p</tspan><tspan x="8.8" y="16.02" letter-spacing="0em">y</tspan><tspan x="16.52" y="16.02" letter-spacing="0.01em">säkin </tspan><tspan x="55.3" y="16.02" letter-spacing="0em">k</tspan><tspan x="63" y="16.02" letter-spacing="0.01em">unno</tspan><tspan x="96.8" y="16.02">s</tspan><tspan x="103.42" y="16.02" letter-spacing="0.01em">ta. Mene </tspan><tspan letter-spacing="0.01em"><tspan x="0" y="32.04">palau</tspan><tspan x="37.02" y="32.04" letter-spacing="0em">t</tspan><tspan x="42.38" y="32.04">esivulle vie</tspan><tspan x="117.31" y="32.04" letter-spacing="-0.01em">r</tspan><tspan x="122.66" y="32.04" letter-spacing="0.01em">e</tspan><tspan x="130.77" y="32.04" letter-spacing="0em">s</tspan><tspan x="137.4" y="32.04">sä </tspan><tspan x="0" y="48.06">ol</tspan><tspan x="12.73" y="48.06" letter-spacing="-0.01em">e</tspan><tspan x="20.55" y="48.06" letter-spacing="0em">v</tspan><tspan x="28.23" y="48.06" letter-spacing="0.01em">an QR-</tspan><tspan x="75.12" y="48.06" letter-spacing="-0.01em">k</tspan><tspan x="82.72" y="48.06">oodin </tspan><tspan x="125.69" y="48.06" letter-spacing="-0.01em">a</tspan><tspan x="133.35" y="48.06">vulla </tspan><tspan x="0" y="64.08">tai mene alla ol</tspan><tspan x="103.23" y="64.08" letter-spacing="-0.01em">e</tspan><tspan x="111.06" y="64.08" letter-spacing="0em">v</tspan><tspan x="118.73" y="64.08">aan </tspan><tspan x="0" y="80.1">osoit</tspan><tspan x="33.86" y="80.1" letter-spacing="0em">t</tspan><tspan x="39.23" y="80.1">eeseen.</tspan></tspan><tspan font-family="GothamRounded-Book, Gotham Rounded" letter-spacing="0.01em"><tspan x="0" y="102.11">Ge </tspan><tspan x="22.55" y="102.11" letter-spacing="-0.01em">r</tspan><tspan x="27.74" y="102.11" letter-spacing="0.01em">espons angående </tspan><tspan x="0" y="118.13">denna hållpl</tspan><tspan x="81.08" y="118.13" letter-spacing="0.01em">a</tspan><tspan x="88.8" y="118.13" letter-spacing="0.01em">ts. </tspan><tspan x="108.45" y="118.13" letter-spacing="0.02em">G</tspan><tspan x="119.08" y="118.13">å till </tspan></tspan><tspan font-family="GothamRounded-Book, Gotham Rounded"><tspan x="0" y="134.15" letter-spacing="-0.01em">r</tspan><tspan x="5.19" y="134.15" letter-spacing="0.01em">espon</tspan><tspan x="45.71" y="134.15">s</tspan><tspan x="52.3" y="134.15" letter-spacing="0.01em">sidan med hjälp </tspan><tspan x="161.62" y="134.15" letter-spacing="-0.01em">a</tspan><tspan x="169.15" y="134.15" letter-spacing="0.01em">v </tspan></tspan><tspan font-family="GothamRounded-Book, Gotham Rounded" letter-spacing="0.01em"><tspan x="0" y="150.17">QR-</tspan><tspan x="26.58" y="150.17" letter-spacing="-0.01em">k</tspan><tspan x="33.94" y="150.17" letter-spacing="0.01em">oden b</tspan><tspan x="80.75" y="150.17" letter-spacing="-0.01em">r</tspan><tspan x="85.94" y="150.17">edvid eller gå till </tspan></tspan><tspan font-family="GothamRounded-Book, Gotham Rounded" letter-spacing="-0.01em"><tspan x="0" y="166.19">w</tspan><tspan x="11.18" y="166.19" letter-spacing="0.01em">ebbpl</tspan><tspan x="49.47" y="166.19" letter-spacing="0.01em">a</tspan><tspan x="57.19" y="166.19" letter-spacing="0.01em">tsen nedan.</tspan></tspan></text>
    <line x1="933.73" y1="347.03" x2="1258.42" y2="347.03" fill="#fff" stroke="#fff" stroke-linecap="round" stroke-linejoin="round" stroke-width="25.51"/>
  </g>
</svg>
