<?xml version="1.0" encoding="UTF-8"?>
<svg xmlns="http://www.w3.org/2000/svg" xmlns:xlink="http://www.w3.org/1999/xlink" width="32px" height="32px" viewBox="0 0 32 32" version="1.1">
<g id="surface1">
<path style=" stroke:none;fill-rule:nonzero;fill:rgb(0%,47.843137%,78.823531%);fill-opacity:1;" d="M 0 3.960938 C 0 1.800781 1.800781 0 3.960938 0 L 27.960938 0 C 30.199219 0 32 1.800781 32 3.960938 L 32 27.960938 C 32 30.199219 30.199219 32 27.960938 32 L 3.960938 32 C 1.800781 32 0 30.199219 0 27.960938 Z M 0 3.960938 "/>
<path style=" stroke:none;fill-rule:nonzero;fill:rgb(100%,100%,100%);fill-opacity:1;" d="M 13.980469 9.878906 C 14.007812 9.941406 14.070312 10.007812 14.105469 10.03125 C 14.117188 10.039062 14.121094 10.042969 14.121094 10.042969 C 14.1875 10.0625 14.28125 10.125 14.316406 10.125 C 14.339844 10.125 14.347656 10.121094 14.355469 10.109375 C 14.363281 10.097656 14.363281 10.089844 14.359375 10.066406 C 14.351562 10.039062 14.304688 9.976562 14.21875 9.914062 C 14.21875 9.917969 14.214844 9.914062 14.203125 9.90625 C 14.191406 9.898438 14.171875 9.886719 14.148438 9.878906 C 14.105469 9.859375 14.054688 9.84375 14.007812 9.839844 C 14.003906 9.839844 13.996094 9.835938 13.992188 9.835938 C 13.984375 9.835938 13.976562 9.839844 13.96875 9.839844 C 13.96875 9.847656 13.972656 9.855469 13.972656 9.863281 C 13.976562 9.867188 13.976562 9.871094 13.980469 9.878906 "/>
<path style=" stroke:none;fill-rule:nonzero;fill:rgb(100%,100%,100%);fill-opacity:1;" d="M 14.230469 8.953125 C 14.246094 8.953125 14.246094 8.953125 14.246094 8.953125 C 14.324219 8.953125 14.371094 8.9375 14.390625 8.921875 C 14.410156 8.898438 14.40625 8.890625 14.398438 8.878906 C 14.390625 8.863281 14.382812 8.855469 14.339844 8.835938 C 14.300781 8.816406 14.234375 8.800781 14.160156 8.800781 L 14.144531 8.800781 C 14.132812 8.800781 14.117188 8.804688 14.101562 8.804688 C 14.066406 8.8125 14.027344 8.828125 14.011719 8.851562 C 14.003906 8.859375 13.996094 8.867188 13.996094 8.875 C 14.011719 8.882812 14.023438 8.894531 14.039062 8.898438 C 14.105469 8.9375 14.195312 8.953125 14.230469 8.953125 "/>
<path style=" stroke:none;fill-rule:nonzero;fill:rgb(100%,100%,100%);fill-opacity:1;" d="M 11.644531 9.851562 C 11.640625 9.84375 11.640625 9.835938 11.636719 9.828125 C 11.625 9.828125 11.617188 9.828125 11.605469 9.824219 C 11.601562 9.824219 11.597656 9.824219 11.59375 9.828125 C 11.519531 9.828125 11.460938 9.871094 11.4375 9.894531 C 11.429688 9.902344 11.429688 9.902344 11.429688 9.902344 C 11.375 9.964844 11.367188 10.027344 11.378906 10.058594 C 11.386719 10.082031 11.390625 10.089844 11.40625 10.101562 C 11.425781 10.109375 11.433594 10.113281 11.457031 10.113281 C 11.492188 10.117188 11.558594 10.09375 11.609375 10.035156 C 11.609375 10.035156 11.625 10.015625 11.636719 9.980469 C 11.648438 9.949219 11.65625 9.90625 11.648438 9.867188 C 11.648438 9.863281 11.644531 9.855469 11.644531 9.851562 "/>
<path style=" stroke:none;fill-rule:nonzero;fill:rgb(100%,100%,100%);fill-opacity:1;" d="M 11.304688 7.632812 C 11.304688 7.632812 11.304688 7.632812 11.316406 7.640625 C 11.324219 7.648438 11.339844 7.65625 11.359375 7.667969 C 11.394531 7.691406 11.445312 7.71875 11.496094 7.738281 C 11.511719 7.742188 11.527344 7.75 11.546875 7.753906 C 11.550781 7.746094 11.554688 7.742188 11.558594 7.738281 C 11.570312 7.710938 11.535156 7.660156 11.511719 7.640625 L 11.503906 7.632812 C 11.449219 7.589844 11.386719 7.554688 11.34375 7.539062 C 11.296875 7.523438 11.285156 7.523438 11.265625 7.523438 C 11.246094 7.523438 11.234375 7.523438 11.234375 7.539062 C 11.230469 7.554688 11.253906 7.589844 11.304688 7.632812 "/>
<path style=" stroke:none;fill-rule:nonzero;fill:rgb(100%,100%,100%);fill-opacity:1;" d="M 12.933594 8.035156 C 12.941406 8.039062 12.945312 8.046875 12.953125 8.050781 C 12.960938 8.050781 12.96875 8.054688 12.976562 8.054688 L 12.992188 8.054688 C 13.054688 8.050781 13.101562 8.019531 13.113281 8.007812 C 13.117188 8 13.113281 7.996094 13.113281 7.996094 C 13.140625 7.957031 13.121094 7.910156 13.101562 7.890625 C 13.085938 7.875 13.074219 7.871094 13.054688 7.863281 C 13.039062 7.855469 13.027344 7.855469 13.003906 7.855469 C 12.96875 7.855469 12.921875 7.867188 12.898438 7.910156 C 12.894531 7.910156 12.894531 7.914062 12.894531 7.914062 C 12.894531 7.921875 12.890625 7.933594 12.890625 7.941406 C 12.894531 7.964844 12.902344 7.992188 12.925781 8.023438 C 12.929688 8.027344 12.933594 8.03125 12.933594 8.035156 "/>
<path style=" stroke:none;fill-rule:nonzero;fill:rgb(100%,100%,100%);fill-opacity:1;" d="M 6.519531 7.640625 L 6.433594 7.640625 C 5.9375 7.640625 5.664062 7.214844 5.664062 6.875 C 5.664062 6.449219 6.011719 6.105469 6.433594 6.105469 L 18.574219 6.105469 C 18.972656 6.105469 19.253906 6.410156 19.292969 6.796875 C 19.867188 7.21875 20.457031 7.773438 20.960938 8.464844 L 20.960938 4.0625 L 4.054688 4.0625 L 4.054688 9.59375 L 8.601562 9.59375 C 7.980469 8.214844 7.171875 7.640625 6.519531 7.640625 "/>
<path style=" stroke:none;fill-rule:nonzero;fill:rgb(100%,100%,100%);fill-opacity:1;" d="M 13.105469 11.097656 C 12.953125 11.097656 12.792969 11.019531 12.675781 10.894531 C 12.574219 10.792969 12.507812 10.660156 12.46875 10.511719 C 12.449219 10.414062 12.445312 10.328125 12.460938 10.246094 C 12.320312 10.199219 12.214844 10.160156 12.078125 10.117188 C 12.058594 10.179688 12.03125 10.242188 11.988281 10.300781 L 11.980469 10.308594 C 11.867188 10.445312 11.710938 10.519531 11.539062 10.519531 C 11.410156 10.519531 11.277344 10.472656 11.171875 10.390625 C 11.0625 10.3125 10.980469 10.199219 10.949219 10.082031 C 10.902344 9.921875 10.941406 9.761719 11.050781 9.628906 C 11.097656 9.582031 11.144531 9.542969 11.199219 9.515625 C 11.117188 9.421875 11.046875 9.347656 10.945312 9.242188 C 10.871094 9.277344 10.777344 9.292969 10.679688 9.296875 C 10.519531 9.296875 10.367188 9.265625 10.226562 9.203125 C 10.070312 9.136719 9.9375 9.027344 9.875 8.910156 C 9.796875 8.765625 9.828125 8.609375 9.953125 8.523438 C 10.039062 8.460938 10.164062 8.433594 10.324219 8.433594 L 10.347656 8.433594 C 10.425781 8.433594 10.507812 8.445312 10.59375 8.464844 C 10.589844 8.421875 10.585938 8.382812 10.578125 8.34375 C 10.472656 8.320312 10.363281 8.289062 10.246094 8.242188 C 10.042969 8.15625 9.898438 8.070312 9.800781 7.976562 C 9.699219 7.878906 9.671875 7.757812 9.734375 7.667969 C 9.800781 7.574219 9.933594 7.554688 10.035156 7.554688 C 10.195312 7.554688 10.382812 7.59375 10.578125 7.660156 L 10.59375 7.667969 C 10.714844 7.710938 10.820312 7.765625 10.90625 7.824219 L 11.015625 7.789062 C 10.984375 7.773438 10.960938 7.753906 10.9375 7.734375 L 10.929688 7.730469 C 10.804688 7.628906 10.75 7.542969 10.746094 7.457031 C 10.746094 7.410156 10.765625 7.363281 10.800781 7.328125 C 10.851562 7.277344 10.9375 7.25 11.054688 7.25 C 11.191406 7.25 11.359375 7.28125 11.511719 7.339844 C 11.652344 7.390625 11.777344 7.460938 11.875 7.539062 C 11.945312 7.601562 11.988281 7.65625 12.011719 7.714844 C 12.175781 7.75 12.292969 7.773438 12.433594 7.804688 C 12.4375 7.78125 12.445312 7.757812 12.453125 7.734375 C 12.515625 7.613281 12.632812 7.558594 12.808594 7.554688 C 12.917969 7.554688 13.046875 7.578125 13.164062 7.625 C 13.292969 7.671875 13.402344 7.738281 13.472656 7.808594 C 13.589844 7.929688 13.617188 8.074219 13.546875 8.199219 C 13.53125 8.226562 13.507812 8.246094 13.484375 8.269531 C 13.574219 8.339844 13.652344 8.402344 13.769531 8.5 C 13.832031 8.46875 13.910156 8.453125 14.003906 8.453125 C 14.152344 8.453125 14.296875 8.480469 14.429688 8.535156 C 14.585938 8.597656 14.71875 8.707031 14.785156 8.816406 C 14.871094 8.957031 14.851562 9.117188 14.738281 9.210938 C 14.65625 9.28125 14.53125 9.320312 14.378906 9.320312 L 14.363281 9.320312 C 14.289062 9.316406 14.214844 9.304688 14.140625 9.285156 C 14.136719 9.351562 14.136719 9.410156 14.132812 9.488281 C 14.226562 9.515625 14.316406 9.558594 14.410156 9.617188 L 14.425781 9.625 C 14.597656 9.738281 14.714844 9.878906 14.765625 10.023438 C 14.808594 10.152344 14.792969 10.285156 14.71875 10.378906 C 14.648438 10.472656 14.527344 10.523438 14.394531 10.523438 C 14.234375 10.523438 14.0625 10.460938 13.894531 10.339844 L 13.878906 10.324219 C 13.847656 10.300781 13.757812 10.226562 13.675781 10.113281 L 13.417969 10.222656 C 13.464844 10.289062 13.496094 10.363281 13.519531 10.441406 C 13.5625 10.605469 13.550781 10.746094 13.488281 10.867188 C 13.421875 11.007812 13.273438 11.097656 13.109375 11.097656 Z M 14.65625 7.78125 C 14.671875 7.746094 14.707031 7.695312 14.828125 7.695312 L 15.730469 7.695312 C 16.480469 7.695312 17.058594 7.695312 17.988281 7.699219 C 18.132812 7.699219 18.335938 7.777344 18.449219 7.875 C 18.550781 7.964844 18.542969 8.035156 18.53125 8.070312 C 18.519531 8.101562 18.484375 8.15625 18.367188 8.15625 L 18.363281 8.15625 C 17.191406 8.148438 16.566406 8.144531 15.480469 8.144531 L 15.152344 8.144531 C 15.015625 8.144531 14.824219 8.0625 14.722656 7.960938 C 14.632812 7.878906 14.644531 7.8125 14.65625 7.78125 M 19.402344 8.867188 C 19.484375 8.96875 19.46875 9.042969 19.449219 9.078125 C 19.421875 9.140625 19.355469 9.175781 19.269531 9.175781 C 18.140625 9.164062 17.015625 9.15625 15.886719 9.152344 C 15.738281 9.148438 15.554688 9.046875 15.476562 8.917969 C 15.414062 8.820312 15.4375 8.75 15.453125 8.714844 C 15.472656 8.683594 15.519531 8.625 15.636719 8.625 L 15.710938 8.625 C 16.792969 8.632812 17.875 8.636719 18.957031 8.644531 C 19.109375 8.648438 19.304688 8.746094 19.402344 8.867188 M 19.75 9.761719 C 19.914062 9.761719 20.109375 9.875 20.191406 10.019531 C 20.238281 10.097656 20.242188 10.179688 20.207031 10.242188 C 20.171875 10.308594 20.101562 10.34375 20.007812 10.34375 C 18.816406 10.339844 17.628906 10.335938 16.4375 10.335938 C 16.277344 10.332031 16.101562 10.210938 16.039062 10.058594 C 16.007812 9.976562 16.011719 9.898438 16.054688 9.835938 C 16.097656 9.777344 16.164062 9.742188 16.25 9.742188 C 17.421875 9.746094 18.585938 9.753906 19.75 9.761719 M 22.472656 14.757812 C 22.285156 12.605469 21.726562 10.882812 20.964844 9.566406 L 20.964844 9.558594 C 20.953125 9.542969 20.945312 9.53125 20.9375 9.515625 C 20.679688 9.078125 20.402344 8.691406 20.109375 8.34375 C 20.101562 8.335938 20.09375 8.328125 20.085938 8.316406 C 19.9375 8.148438 19.789062 7.988281 19.636719 7.84375 C 19.628906 7.835938 19.625 7.832031 19.621094 7.824219 C 19.09375 7.324219 18.535156 6.945312 17.964844 6.695312 L 6.597656 6.695312 C 6.492188 6.695312 6.40625 6.78125 6.40625 6.886719 C 6.40625 6.964844 6.46875 7.074219 6.671875 7.074219 C 7.777344 7.074219 8.714844 8.191406 9.3125 9.523438 C 10.015625 11.070312 10.605469 13.308594 10.605469 16.363281 L 12.515625 16.363281 C 12.519531 16.011719 12.527344 15.65625 12.554688 15.316406 C 12.578125 15.003906 12.839844 14.757812 13.15625 14.757812 Z M 22.472656 14.757812 "/>
<path style=" stroke:none;fill-rule:nonzero;fill:rgb(100%,100%,100%);fill-opacity:1;" d="M 13.628906 8.898438 C 13.324219 8.621094 13.160156 8.488281 12.835938 8.253906 C 12.390625 8.148438 12.175781 8.101562 11.742188 8.011719 C 11.492188 8.097656 11.351562 8.144531 11.09375 8.234375 C 11.125 8.441406 11.132812 8.578125 11.128906 8.835938 C 11.417969 9.105469 11.5625 9.253906 11.832031 9.578125 C 12.253906 9.710938 12.464844 9.785156 12.855469 9.914062 L 13.609375 9.597656 C 13.636719 9.300781 13.636719 9.152344 13.628906 8.898438 "/>
<path style=" stroke:none;fill-rule:nonzero;fill:rgb(100%,100%,100%);fill-opacity:1;" d="M 10.640625 8.046875 C 10.648438 8.046875 10.65625 8.046875 10.667969 8.042969 C 10.664062 8.039062 10.65625 8.03125 10.652344 8.027344 C 10.652344 8.023438 10.648438 8.019531 10.644531 8.015625 C 10.601562 7.972656 10.511719 7.929688 10.464844 7.910156 C 10.453125 7.90625 10.449219 7.902344 10.449219 7.902344 C 10.339844 7.863281 10.253906 7.847656 10.21875 7.847656 C 10.195312 7.847656 10.1875 7.851562 10.183594 7.859375 C 10.179688 7.867188 10.179688 7.871094 10.191406 7.886719 C 10.210938 7.90625 10.277344 7.949219 10.386719 7.988281 C 10.386719 7.988281 10.390625 7.992188 10.402344 7.996094 C 10.421875 8.003906 10.441406 8.007812 10.464844 8.015625 C 10.515625 8.03125 10.574219 8.042969 10.621094 8.046875 C 10.628906 8.046875 10.636719 8.046875 10.640625 8.046875 "/>
<path style=" stroke:none;fill-rule:nonzero;fill:rgb(100%,100%,100%);fill-opacity:1;" d="M 10.484375 8.78125 C 10.46875 8.78125 10.464844 8.78125 10.464844 8.78125 C 10.386719 8.78125 10.328125 8.796875 10.308594 8.8125 C 10.289062 8.828125 10.289062 8.839844 10.292969 8.855469 C 10.304688 8.871094 10.3125 8.878906 10.355469 8.898438 C 10.394531 8.914062 10.464844 8.933594 10.550781 8.933594 L 10.566406 8.933594 C 10.578125 8.933594 10.597656 8.933594 10.617188 8.929688 C 10.652344 8.921875 10.695312 8.902344 10.71875 8.882812 C 10.726562 8.875 10.734375 8.867188 10.738281 8.859375 C 10.722656 8.847656 10.707031 8.839844 10.695312 8.832031 C 10.621094 8.796875 10.523438 8.78125 10.484375 8.78125 "/>
<path style=" stroke:none;fill-rule:nonzero;fill:rgb(100%,100%,100%);fill-opacity:1;" d="M 13.09375 10.46875 C 13.089844 10.457031 13.082031 10.4375 13.074219 10.421875 C 13.054688 10.378906 13.023438 10.335938 12.980469 10.300781 C 12.96875 10.292969 12.957031 10.28125 12.945312 10.273438 C 12.9375 10.28125 12.925781 10.292969 12.921875 10.300781 C 12.886719 10.351562 12.886719 10.433594 12.894531 10.46875 C 12.894531 10.480469 12.894531 10.484375 12.894531 10.484375 C 12.914062 10.558594 12.949219 10.617188 12.980469 10.648438 C 13.011719 10.679688 13.027344 10.679688 13.042969 10.683594 C 13.0625 10.683594 13.074219 10.679688 13.09375 10.648438 C 13.109375 10.617188 13.121094 10.558594 13.101562 10.480469 C 13.101562 10.480469 13.101562 10.476562 13.09375 10.46875 "/>
<path style=" stroke:none;fill-rule:nonzero;fill:rgb(100%,100%,100%);fill-opacity:1;" d="M 19.261719 20.074219 C 19.222656 20.050781 19.15625 20.03125 19.074219 20.03125 C 19.074219 20.03125 19.070312 20.03125 19.054688 20.03125 C 19.042969 20.03125 19.027344 20.035156 19.007812 20.039062 C 18.964844 20.050781 18.914062 20.070312 18.886719 20.101562 C 18.875 20.113281 18.867188 20.121094 18.863281 20.136719 C 18.875 20.148438 18.886719 20.160156 18.898438 20.167969 C 18.960938 20.214844 19.054688 20.234375 19.09375 20.238281 C 19.109375 20.238281 19.113281 20.238281 19.113281 20.238281 C 19.195312 20.238281 19.253906 20.214844 19.28125 20.191406 C 19.308594 20.164062 19.308594 20.152344 19.304688 20.132812 C 19.304688 20.117188 19.296875 20.101562 19.261719 20.074219 "/>
<path style=" stroke:none;fill-rule:nonzero;fill:rgb(100%,100%,100%);fill-opacity:1;" d="M 16.238281 21.394531 C 16.234375 21.386719 16.230469 21.375 16.226562 21.367188 C 16.214844 21.367188 16.207031 21.367188 16.195312 21.363281 C 16.191406 21.363281 16.183594 21.363281 16.179688 21.363281 C 16.109375 21.367188 16.046875 21.417969 16.027344 21.441406 C 16.023438 21.453125 16.019531 21.453125 16.019531 21.453125 C 15.972656 21.523438 15.972656 21.597656 15.988281 21.632812 C 15.996094 21.660156 16.007812 21.664062 16.023438 21.679688 C 16.039062 21.691406 16.050781 21.695312 16.074219 21.695312 C 16.113281 21.695312 16.175781 21.671875 16.21875 21.601562 C 16.21875 21.601562 16.234375 21.582031 16.242188 21.542969 C 16.253906 21.507812 16.257812 21.457031 16.242188 21.40625 C 16.242188 21.410156 16.242188 21.402344 16.238281 21.394531 "/>
<path style=" stroke:none;fill-rule:nonzero;fill:rgb(100%,100%,100%);fill-opacity:1;" d="M 15.175781 20.03125 C 15.160156 20.03125 15.160156 20.03125 15.160156 20.03125 L 15.15625 20.03125 C 15.078125 20.03125 15.019531 20.054688 14.988281 20.074219 C 14.960938 20.101562 14.960938 20.117188 14.964844 20.136719 C 14.96875 20.152344 14.972656 20.167969 15.011719 20.195312 C 15.046875 20.21875 15.113281 20.242188 15.199219 20.242188 C 15.199219 20.242188 15.203125 20.242188 15.214844 20.242188 C 15.226562 20.238281 15.246094 20.238281 15.265625 20.234375 C 15.304688 20.222656 15.355469 20.199219 15.382812 20.171875 C 15.394531 20.160156 15.402344 20.148438 15.40625 20.136719 C 15.398438 20.125 15.382812 20.113281 15.371094 20.105469 C 15.3125 20.054688 15.21875 20.035156 15.175781 20.03125 "/>
<path style=" stroke:none;fill-rule:nonzero;fill:rgb(100%,100%,100%);fill-opacity:1;" d="M 15.714844 18.679688 C 15.707031 18.671875 15.703125 18.664062 15.703125 18.664062 C 15.632812 18.59375 15.558594 18.566406 15.527344 18.570312 C 15.5 18.570312 15.492188 18.574219 15.480469 18.589844 C 15.464844 18.601562 15.460938 18.609375 15.460938 18.632812 C 15.460938 18.671875 15.480469 18.742188 15.554688 18.8125 C 15.554688 18.8125 15.554688 18.816406 15.566406 18.824219 C 15.578125 18.835938 15.59375 18.847656 15.613281 18.859375 C 15.648438 18.878906 15.703125 18.902344 15.746094 18.902344 L 15.765625 18.902344 C 15.773438 18.902344 15.78125 18.902344 15.792969 18.902344 C 15.792969 18.890625 15.792969 18.882812 15.792969 18.871094 C 15.792969 18.867188 15.792969 18.863281 15.792969 18.855469 C 15.789062 18.785156 15.738281 18.710938 15.714844 18.679688 "/>
<path style=" stroke:none;fill-rule:nonzero;fill:rgb(100%,100%,100%);fill-opacity:1;" d="M 16.984375 18.367188 C 16.996094 18.375 17.007812 18.386719 17.015625 18.394531 C 17.03125 18.386719 17.039062 18.378906 17.050781 18.367188 C 17.101562 18.3125 17.128906 18.222656 17.132812 18.183594 C 17.136719 18.171875 17.136719 18.167969 17.136719 18.167969 C 17.140625 18.085938 17.125 18.023438 17.105469 17.992188 C 17.085938 17.960938 17.070312 17.957031 17.050781 17.953125 C 17.03125 17.957031 17.019531 17.960938 16.988281 17.992188 C 16.964844 18.023438 16.933594 18.085938 16.925781 18.167969 L 16.925781 18.183594 C 16.929688 18.199219 16.929688 18.21875 16.933594 18.238281 C 16.941406 18.28125 16.957031 18.328125 16.984375 18.367188 "/>
<path style=" stroke:none;fill-rule:nonzero;fill:rgb(100%,100%,100%);fill-opacity:1;" d="M 18.546875 18.589844 C 18.535156 18.574219 18.527344 18.570312 18.5 18.570312 C 18.464844 18.570312 18.390625 18.59375 18.316406 18.664062 C 18.3125 18.667969 18.3125 18.671875 18.308594 18.679688 C 18.300781 18.6875 18.289062 18.703125 18.277344 18.722656 C 18.253906 18.761719 18.234375 18.808594 18.230469 18.859375 L 18.230469 18.875 C 18.230469 18.882812 18.230469 18.890625 18.234375 18.902344 C 18.242188 18.90625 18.253906 18.90625 18.261719 18.90625 L 18.277344 18.90625 C 18.347656 18.898438 18.425781 18.855469 18.453125 18.824219 C 18.464844 18.816406 18.464844 18.8125 18.464844 18.8125 C 18.539062 18.742188 18.5625 18.671875 18.5625 18.632812 C 18.5625 18.609375 18.558594 18.601562 18.546875 18.589844 "/>
<path style=" stroke:none;fill-rule:nonzero;fill:rgb(100%,100%,100%);fill-opacity:1;" d="M 25.296875 21.820312 C 25.253906 21.882812 25.179688 21.921875 25.09375 21.921875 L 21.320312 21.921875 C 21.144531 21.921875 20.953125 21.78125 20.894531 21.609375 C 20.863281 21.519531 20.871094 21.425781 20.917969 21.359375 C 20.964844 21.292969 21.042969 21.257812 21.132812 21.257812 L 24.902344 21.257812 C 25.074219 21.257812 25.261719 21.394531 25.320312 21.566406 C 25.355469 21.660156 25.347656 21.753906 25.296875 21.820312 M 20.503906 20.144531 C 20.484375 20.054688 20.507812 19.96875 20.5625 19.902344 C 20.617188 19.839844 20.699219 19.800781 20.789062 19.800781 L 24.558594 19.800781 C 24.738281 19.800781 24.902344 19.945312 24.933594 20.125 C 24.949219 20.21875 24.929688 20.308594 24.875 20.375 C 24.820312 20.4375 24.742188 20.472656 24.65625 20.472656 L 20.882812 20.472656 C 20.707031 20.472656 20.535156 20.324219 20.503906 20.144531 M 20.378906 18.671875 C 20.378906 18.488281 20.53125 18.34375 20.71875 18.34375 L 24.484375 18.34375 C 24.574219 18.34375 24.65625 18.375 24.714844 18.4375 C 24.777344 18.496094 24.808594 18.582031 24.808594 18.671875 C 24.808594 18.855469 24.660156 19.003906 24.480469 19.003906 L 20.710938 19.003906 C 20.621094 19.003906 20.539062 18.96875 20.472656 18.90625 C 20.410156 18.84375 20.375 18.761719 20.378906 18.671875 M 19.589844 20.550781 C 19.484375 20.640625 19.34375 20.6875 19.179688 20.6875 L 19.164062 20.6875 C 19.074219 20.683594 18.984375 20.664062 18.898438 20.632812 C 18.878906 20.742188 18.867188 20.839844 18.851562 20.96875 C 19.003906 21.019531 19.109375 21.097656 19.148438 21.125 L 19.15625 21.132812 C 19.335938 21.265625 19.457031 21.425781 19.519531 21.585938 C 19.570312 21.722656 19.5625 21.863281 19.503906 21.964844 C 19.4375 22.070312 19.3125 22.136719 19.171875 22.136719 C 19.003906 22.132812 18.8125 22.0625 18.628906 21.933594 L 18.609375 21.917969 C 18.554688 21.878906 18.453125 21.792969 18.367188 21.671875 C 18.269531 21.714844 18.195312 21.753906 18.105469 21.796875 C 18.164062 21.875 18.21875 21.957031 18.257812 22.042969 L 18.261719 22.054688 C 18.335938 22.21875 18.355469 22.363281 18.324219 22.484375 C 18.285156 22.640625 18.148438 22.742188 17.96875 22.742188 L 17.960938 22.742188 C 17.808594 22.742188 17.628906 22.667969 17.484375 22.550781 C 17.359375 22.441406 17.253906 22.304688 17.191406 22.152344 C 17.144531 22.042969 17.128906 21.9375 17.132812 21.84375 C 16.972656 21.785156 16.855469 21.742188 16.707031 21.6875 C 16.695312 21.757812 16.675781 21.820312 16.644531 21.882812 L 16.636719 21.898438 C 16.542969 22.050781 16.386719 22.136719 16.210938 22.136719 C 16.078125 22.136719 15.9375 22.09375 15.820312 22.007812 C 15.699219 21.925781 15.601562 21.796875 15.558594 21.675781 C 15.492188 21.496094 15.519531 21.316406 15.621094 21.164062 C 15.671875 21.097656 15.730469 21.042969 15.800781 21.007812 C 15.710938 20.878906 15.640625 20.773438 15.546875 20.628906 C 15.46875 20.664062 15.378906 20.6875 15.277344 20.691406 L 15.265625 20.691406 C 15.105469 20.691406 14.953125 20.644531 14.820312 20.566406 C 14.671875 20.472656 14.558594 20.316406 14.535156 20.160156 C 14.503906 19.992188 14.566406 19.824219 14.695312 19.71875 C 14.804688 19.632812 14.949219 19.589844 15.113281 19.585938 L 15.128906 19.585938 C 15.222656 19.589844 15.3125 19.605469 15.394531 19.640625 C 15.433594 19.515625 15.464844 19.410156 15.503906 19.289062 C 15.414062 19.257812 15.332031 19.203125 15.257812 19.136719 C 15.101562 18.984375 15.023438 18.816406 15.023438 18.640625 C 15.023438 18.511719 15.085938 18.375 15.179688 18.28125 C 15.277344 18.191406 15.410156 18.136719 15.542969 18.136719 C 15.714844 18.136719 15.882812 18.214844 16.019531 18.355469 L 16.03125 18.367188 C 16.09375 18.433594 16.140625 18.511719 16.171875 18.597656 C 16.300781 18.542969 16.398438 18.503906 16.527344 18.449219 C 16.5 18.363281 16.484375 18.273438 16.488281 18.175781 L 16.488281 18.164062 C 16.5 18 16.558594 17.855469 16.65625 17.742188 C 16.765625 17.613281 16.933594 17.53125 17.09375 17.53125 C 17.257812 17.53125 17.410156 17.617188 17.492188 17.757812 C 17.5625 17.871094 17.59375 18.019531 17.578125 18.179688 L 17.574219 18.195312 C 17.5625 18.285156 17.539062 18.375 17.503906 18.453125 C 17.628906 18.507812 17.722656 18.546875 17.847656 18.597656 C 17.882812 18.511719 17.9375 18.433594 18.007812 18.363281 C 18.160156 18.214844 18.328125 18.136719 18.507812 18.136719 C 18.640625 18.136719 18.769531 18.191406 18.863281 18.285156 C 18.953125 18.378906 19.003906 18.511719 19 18.644531 C 18.996094 18.816406 18.921875 18.984375 18.789062 19.125 C 18.714844 19.195312 18.640625 19.246094 18.558594 19.285156 C 18.621094 19.414062 18.671875 19.515625 18.738281 19.644531 C 18.820312 19.609375 18.914062 19.589844 19.011719 19.585938 L 19.023438 19.585938 C 19.1875 19.585938 19.335938 19.628906 19.460938 19.710938 C 19.601562 19.800781 19.707031 19.957031 19.734375 20.113281 C 19.765625 20.28125 19.707031 20.449219 19.589844 20.550781 M 25.824219 16.734375 C 25.824219 16.273438 25.84375 15.816406 25.875 15.367188 L 13.15625 15.367188 C 13.125 15.816406 13.109375 16.273438 13.109375 16.734375 C 13.109375 21.847656 14.054688 25.054688 15.726562 28.011719 L 29.144531 28.007812 C 27.078125 25.222656 25.824219 21.007812 25.824219 16.734375 "/>
<path style=" stroke:none;fill-rule:nonzero;fill:rgb(100%,100%,100%);fill-opacity:1;" d="M 17.011719 18.800781 C 16.644531 18.953125 16.449219 19.035156 16.089844 19.1875 C 15.957031 19.554688 15.902344 19.746094 15.8125 20.125 C 16.035156 20.507812 16.160156 20.703125 16.429688 21.074219 C 16.851562 21.230469 17.074219 21.3125 17.503906 21.46875 C 17.8125 21.316406 17.980469 21.238281 18.296875 21.085938 C 18.339844 20.71875 18.371094 20.515625 18.457031 20.144531 C 18.238281 19.769531 18.132812 19.566406 17.957031 19.191406 C 17.578125 19.035156 17.382812 18.953125 17.011719 18.800781 "/>
<path style=" stroke:none;fill-rule:nonzero;fill:rgb(100%,100%,100%);fill-opacity:1;" d="M 17.820312 22.085938 C 17.8125 22.074219 17.804688 22.054688 17.789062 22.035156 C 17.765625 21.988281 17.722656 21.941406 17.675781 21.90625 C 17.660156 21.894531 17.644531 21.882812 17.628906 21.875 C 17.621094 21.886719 17.613281 21.894531 17.609375 21.90625 C 17.585938 21.957031 17.601562 22.046875 17.613281 22.089844 C 17.617188 22.101562 17.621094 22.105469 17.621094 22.105469 C 17.65625 22.1875 17.707031 22.25 17.742188 22.28125 C 17.785156 22.3125 17.796875 22.316406 17.820312 22.316406 C 17.839844 22.316406 17.851562 22.3125 17.863281 22.28125 C 17.871094 22.25 17.867188 22.1875 17.832031 22.105469 C 17.828125 22.101562 17.828125 22.101562 17.820312 22.085938 "/>
<path style=" stroke:none;fill-rule:nonzero;fill:rgb(100%,100%,100%);fill-opacity:1;" d="M 18.695312 21.367188 C 18.683594 21.367188 18.675781 21.367188 18.664062 21.367188 C 18.667969 21.378906 18.671875 21.386719 18.675781 21.398438 C 18.675781 21.402344 18.679688 21.410156 18.683594 21.414062 C 18.707031 21.484375 18.785156 21.5625 18.824219 21.59375 C 18.835938 21.605469 18.839844 21.605469 18.839844 21.605469 C 18.910156 21.660156 19.019531 21.703125 19.054688 21.699219 C 19.078125 21.699219 19.085938 21.695312 19.09375 21.683594 C 19.101562 21.671875 19.101562 21.660156 19.09375 21.636719 C 19.082031 21.601562 19.03125 21.527344 18.9375 21.457031 C 18.9375 21.460938 18.933594 21.457031 18.917969 21.445312 C 18.902344 21.4375 18.886719 21.429688 18.863281 21.414062 C 18.816406 21.390625 18.761719 21.371094 18.710938 21.367188 C 18.703125 21.367188 18.699219 21.367188 18.695312 21.367188 "/>
</g>
</svg>
