<?xml version="1.0" encoding="utf-8"?>
<!-- Generated by IcoMoon.io -->
<!DOCTYPE svg PUBLIC "-//W3C//DTD SVG 1.1//EN" "http://www.w3.org/Graphics/SVG/1.1/DTD/svg11.dtd">
<svg version="1.1" xmlns="http://www.w3.org/2000/svg" xmlns:xlink="http://www.w3.org/1999/xlink" viewBox="0 0 32 32">
<path fill="rgb(255, 255, 255)" d="M27.2 31.040h-22.4c-2.121 0-3.84-1.719-3.84-3.84v-22.4c0-2.121 1.719-3.84 3.84-3.84h22.4c2.121 0 3.84 1.719 3.84 3.84v22.4c-0 2.121-1.719 3.84-3.84 3.84z"></path>
<path fill="rgb(0, 185, 228)" d="M0.001 3.962c0-2.16 1.8-3.96 3.96-3.96h23.998c2.24 0 4.040 1.8 4.040 3.96v23.998c0 2.24-1.8 4.040-4.040 4.040h-23.998c-2.16 0-3.96-1.8-3.96-4.040v-23.998zM4.841 27.040c-0.4 0-0.76 0.32-0.76 0.76s0.36 0.76 0.76 0.76h22.318c0.44 0 0.8-0.32 0.8-0.76s-0.36-0.76-0.8-0.76h-22.318zM25.639 18.201c0 0-3.2-0.84-5.36-1.32-1.88-0.4-4.2-0.68-4.36-0.68s-2.44 0.28-4.36 0.68c-2.16 0.48-5.36 1.32-5.36 1.32l0.88 7.599h17.718l0.84-7.599zM11.56 15.361c1.92-0.4 4.24-0.68 4.36-0.72 0.12 0.040 2.44 0.32 4.36 0.72 1.48 0.32 2.32 0.52 3.4 0.8v-5.56c0-0.72 0.2-1.68-1.68-1.68h-3.48v-5.24c0-0.28-0.24-0.52-0.52-0.56h-4.16c-0.28 0.040-0.48 0.28-0.52 0.56v5.239h-3.48c-1.88 0-1.68 0.96-1.68 1.68v5.56l3.4-0.8zM13.44 11.842c0 0.84-0.64 1.48-1.48 1.48s-1.48-0.64-1.48-1.48c0-0.84 0.64-1.48 1.48-1.48s1.48 0.64 1.48 1.48zM17.4 11.842c0 0.84-0.64 1.48-1.48 1.48-0.8 0-1.48-0.64-1.48-1.48s0.68-1.48 1.48-1.48c0.84 0 1.48 0.64 1.48 1.48zM21.359 11.842c0 0.84-0.64 1.48-1.48 1.48-0.8 0-1.48-0.64-1.48-1.48s0.68-1.48 1.48-1.48c0.84 0 1.48 0.64 1.48 1.48z"></path>
</svg>
