<?xml version="1.0" encoding="utf-8"?>
<!-- Generated by IcoMoon.io -->
<!DOCTYPE svg PUBLIC "-//W3C//DTD SVG 1.1//EN" "http://www.w3.org/Graphics/SVG/1.1/DTD/svg11.dtd">
<svg version="1.1" xmlns="http://www.w3.org/2000/svg" xmlns:xlink="http://www.w3.org/1999/xlink" viewBox="0 0 32 32">
<path fill="rgb(255, 255, 255)" d="M27.2 31.040h-22.4c-2.121 0-3.84-1.719-3.84-3.84v-22.4c0-2.121 1.719-3.84 3.84-3.84h22.4c2.121 0 3.84 1.719 3.84 3.84v22.4c0 2.121-1.719 3.84-3.84 3.84z"></path>
<path fill="rgb(140, 71, 153)" d="M0.001 3.962c0-2.16 1.8-3.96 3.96-3.96h23.998c2.24 0 4.040 1.8 4.040 3.96v23.998c0 2.24-1.8 4.040-4.040 4.040h-23.998c-2.16 0-3.96-1.8-3.96-4.040v-23.998zM24.559 4.082c-0.88-0.8-4.68-1.72-8.559-1.72-3.76 0-7.639 0.92-8.479 1.72-0.6 0.52-1.2 1.72-1.92 3.24-0.6 1.32-1.080 2.56-1.080 3.28v11.559c0 0.92 0.32 1.32 1.56 2.28 0.92 0.72 1.32 1.040 2.72 1.040h2.64v1.72h9.239v-1.72h2.6c1.4 0 1.8-0.32 2.68-1.040 1.24-1 1.52-1.36 1.52-2.28v-11.559c0-0.72-0.48-1.96-1.040-3.28-0.72-1.52-1.28-2.72-1.88-3.24zM23.479 28.4v-1.68h-1.48v1.68h-11.919v-1.68h-1.52v1.68h-1.84c-0.44 0-0.8 0.36-0.8 0.76 0 0.44 0.36 0.8 0.8 0.8h18.638c0.44 0 0.76-0.36 0.76-0.8 0-0.4-0.32-0.76-0.76-0.76h-1.88zM22.639 18.201c-0.12 0.68-0.8 1.2-1.48 1.2h-10.239c-0.68 0-1.36-0.52-1.48-1.2l-1.88-7.959c-0.12-0.68 0.32-1.2 1-1.2h14.919c0.68 0 1.16 0.52 1 1.2l-1.84 7.959zM22.079 5.482v0.68c0 0.52-0.4 0.96-0.92 0.96h-10.239c-0.52 0-0.96-0.44-0.96-0.96v-0.68h12.119zM9.96 22.361c0-0.56 0.4-1 0.96-1s1.040 0.44 1.040 1-0.48 0.96-1.040 0.96c-0.56 0-0.96-0.4-0.96-0.96zM20.159 22.241c0-0.56 0.44-1 1-1s1 0.44 1 1-0.44 0.96-1 0.96c-0.56 0-1-0.4-1-0.96z"></path>
</svg>
