<svg xmlns="http://www.w3.org/2000/svg" viewBox="0 0 200 200"><defs><style>.cls-1{fill:#00b2a9;}.cls-2{fill:#fff;}</style></defs><g id="pikaratikka"><path class="cls-1" d="M25,0H175a25,25,0,0,1,25,25V175a25,25,0,0,1-25,25H25A25,25,0,0,1,0,175V25A25,25,0,0,1,25,0Z"/><path class="cls-2" d="M149.045,124.49,138.654,51.935a15.136,15.136,0,0,0-8.3-11.75,83.719,83.719,0,0,0-25.131-6.907v-8.8h18.384a4.933,4.933,0,0,0,0-9.866H76.679a4.933,4.933,0,1,0,0,9.866H95.091v8.8a83.632,83.632,0,0,0-25.16,6.907,15.117,15.117,0,0,0-8.279,11.75L51.262,124.49a35.463,35.463,0,0,0,1.491,16.23c1.031,3.086,2.955,9.307,4.126,12.344a14.05,14.05,0,0,0,9.639,8.411c7.727,2,19.257,3.739,33.626,3.739s25.9-1.734,33.626-3.739a14.051,14.051,0,0,0,9.64-8.411c1.17-3.037,3.095-9.258,4.126-12.344A35.469,35.469,0,0,0,149.045,124.49ZM139.7,134.661l-2.622,8.073a4.148,4.148,0,0,1-3.341,3.04c-3.647,1.1-19.067,3.722-33.591,3.831-14.525-.109-29.916-2.728-33.563-3.831a4.148,4.148,0,0,1-3.341-3.04l-2.623-8.073c-.6-1.823.907-3.114,2.946-2.561,6.292,1.7,13.287,3.133,19.1,4.274a5.9,5.9,0,0,1,4.173,3.015,5.717,5.717,0,0,0,4.643,3.24c2.648.168,5.733.265,8.663.265,3,0,6.013-.1,8.66-.265a5.717,5.717,0,0,0,4.644-3.24,5.9,5.9,0,0,1,4.173-3.015c5.816-1.141,12.839-2.57,19.131-4.274C138.794,131.547,140.3,132.838,139.7,134.661Zm-4.007-14.1a122.516,122.516,0,0,1-35.548,5.592,122.514,122.514,0,0,1-35.532-5.592,3.992,3.992,0,0,1-2.732-4.372l7.347-51.306a3.993,3.993,0,0,1,3.144-3.347,135.205,135.205,0,0,1,55.563,0,3.992,3.992,0,0,1,3.143,3.347l7.348,51.306A3.994,3.994,0,0,1,135.693,120.563Zm-7.142,49.522c-3.484.709-7.392,1.28-11.376,1.708,0,0,7.561,9,9.547,11.374,2.564,3.059,4.645,4.033,7.577,4.033,3.325,0,6.28-2.454,2.78-6.821C135.364,178.237,128.551,170.085,128.551,170.085Zm-56.8,0c3.483.709,7.39,1.28,11.376,1.708,0,0-7.562,9-9.548,11.374C71.017,186.226,68.936,187.2,66,187.2c-3.325,0-6.28-2.454-2.78-6.821C64.94,178.237,71.753,170.085,71.753,170.085Z"/></g></svg>