<?xml version="1.0" encoding="utf-8"?>
<!-- Generated by IcoMoon.io -->
<!DOCTYPE svg PUBLIC "-//W3C//DTD SVG 1.1//EN" "http://www.w3.org/Graphics/SVG/1.1/DTD/svg11.dtd">
<svg version="1.1" xmlns="http://www.w3.org/2000/svg" xmlns:xlink="http://www.w3.org/1999/xlink" width="32" height="32" viewBox="0 0 32 32">
<path fill="rgb(255, 255, 255)" d="M27.2 31.040h-22.4c-2.121 0-3.84-1.719-3.84-3.84v-22.4c0-2.121 1.719-3.84 3.84-3.84h22.4c2.121 0 3.84 1.719 3.84 3.84v22.4c0 2.121-1.719 3.84-3.84 3.84z"></path>
<path fill="rgb(0, 152, 95)" d="M0.001 3.962c0-2.16 1.8-3.96 3.96-3.96h23.998c2.24 0 4.040 1.8 4.040 3.96v23.998c0 2.24-1.8 4.040-4.040 4.040h-23.998c-2.16 0-3.96-1.8-3.96-4.040v-23.998zM22.359 6.842c-0.2-0.48-0.48-0.72-0.96-0.84-1.72-0.44-2.96-0.6-4.56-0.64v-1.4h2.96c0.4 0 0.72-0.36 0.72-0.76 0-0.48-0.32-0.84-0.72-0.84h-7.519c-0.48 0-0.84 0.36-0.84 0.84 0 0.4 0.36 0.76 0.84 0.76h2.92v1.4c-1.64 0.040-2.96 0.2-4.56 0.64-0.56 0.16-0.84 0.36-1.080 0.84l-0.68 1.64c-0.2 0.48-0.2 1.16-0.2 1.68v14.399c0 0.72 0.48 1.16 1.2 1.28 2.16 0.44 4.040 0.6 6.119 0.6 2 0 3.92-0.16 6.159-0.6 0.68-0.12 1.2-0.56 1.2-1.28v-14.399c0-0.52-0.12-1.2-0.32-1.68l-0.68-1.64zM20.359 28.4v-1.2l-1.48 0.2v1h-5.72v-1l-1.48-0.2v1.2h-1.2c-0.44 0-0.72 0.36-0.72 0.72 0 0.52 0.28 0.84 0.72 0.84h11.079c0.36 0 0.76-0.32 0.76-0.84 0-0.36-0.4-0.72-0.76-0.72h-1.2zM10.12 22.241c0-0.56 0.4-1 0.92-1 0.56 0 0.96 0.44 0.96 1 0 0.52-0.4 0.88-0.96 0.88-0.52 0-0.92-0.36-0.92-0.88zM10.16 9.842h11.639v9.719c-1.52 0.44-3.68 0.72-5.8 0.72-2.080 0-4.24-0.32-5.84-0.72v-9.719zM20.199 22.241c0-0.56 0.36-1 0.88-1 0.56 0 1 0.44 1 1 0 0.52-0.44 0.88-1 0.88-0.52 0-0.88-0.36-0.88-0.88z"></path>
</svg>
