<?xml version="1.0" encoding="utf-8"?>
<!-- Generated by IcoMoon.io -->
<!DOCTYPE svg PUBLIC "-//W3C//DTD SVG 1.1//EN" "http://www.w3.org/Graphics/SVG/1.1/DTD/svg11.dtd">
<svg version="1.1" xmlns="http://www.w3.org/2000/svg" xmlns:xlink="http://www.w3.org/1999/xlink" viewBox="0 0 32 32">
<path fill="rgb(255, 255, 255)" d="M27.325 31.040h-22.4c-2.121 0-3.84-1.719-3.84-3.84v-22.4c0-2.121 1.719-3.84 3.84-3.84h22.4c2.121 0 3.84 1.719 3.84 3.84v22.4c0 2.121-1.719 3.84-3.84 3.84z"></path>
<path fill="rgb(255, 99, 25)" d="M0.001 3.962c0-2.16 1.8-3.96 3.96-3.96h23.998c2.24 0 4.040 1.8 4.040 3.96v23.998c0 2.24-1.8 4.040-4.040 4.040h-23.998c-2.16 0-3.96-1.8-3.96-4.040v-23.998zM16.040 3.442c-3.32 0-6.2 0.16-9.359 0.6-0.96 0.12-1.52 0.68-1.52 1.52v18.718c0 0.6 0.44 1 0.84 1.12l1.2 0.2v2.52c0 0.28 0.24 0.48 0.56 0.48h1.92c0.24 0 0.48-0.2 0.48-0.48v-2.24c1.56 0.2 3.68 0.28 5.8 0.28 2.16 0 4.36-0.080 5.88-0.28v2.24c0 0.28 0.28 0.48 0.52 0.48h1.92c0.32 0 0.56-0.2 0.56-0.48v-2.52l1.2-0.2c0.44-0.12 0.84-0.48 0.84-1.12v-18.718c0-0.84-0.56-1.4-1.52-1.52-3.2-0.4-6.119-0.6-9.319-0.6zM24.319 19.401c-2.28 0.4-5.28 0.8-8.199 0.8-3.080 0-5.999-0.36-8.319-0.88-0.64-0.12-0.88-0.36-0.88-0.88v-11.679c0-0.52 0.24-0.88 0.88-0.88l16.518 0.080c0.64 0 0.84 0.36 0.84 0.88v11.679c0 0.52-0.2 0.8-0.84 0.88zM7.56 22.601c0.040-0.52 0.52-1 1.080-1s1.040 0.48 1.040 1c0 0.6-0.48 1.080-1.040 1.080-0.6-0.040-1.080-0.52-1.080-1.080zM22.199 22.601c0.040-0.52 0.52-1 1.040-1 0.56 0 1.040 0.48 1.040 1 0 0.6-0.48 1.080-1.040 1.080-0.56-0.040-1.040-0.52-1.040-1.080z"></path>
</svg>
