<?xml version="1.0" encoding="utf-8"?>
<!-- Generated by IcoMoon.io -->
<!DOCTYPE svg PUBLIC "-//W3C//DTD SVG 1.1//EN" "http://www.w3.org/Graphics/SVG/1.1/DTD/svg11.dtd">
<svg version="1.1" xmlns="http://www.w3.org/2000/svg" xmlns:xlink="http://www.w3.org/1999/xlink" width="32" height="32" viewBox="0 0 155.9 157.3">
<path fill="rgb(0, 122, 201)" stroke="rgb(255, 255, 255)" stroke-width="0.8504" stroke-miterlimit="10" d="M.4 136.5c0 10.8 8.7 19.5 19.4 19.5h116.5c10.6 0 19.2-8.7 19.2-19.5V19.7c0-10.6-8.7-19.3-19.2-19.3H19.9C9.1.4.4 9.1.4 19.7v116.8z"></path>
<path fill="rgb(255, 255, 255)" d="M123.2 20c-15.5-1.9-29.6-2.9-45.1-2.9-16.1 0-30.2.8-45.5 2.9-4.8.6-7.4 3.3-7.4 7.5v91c0 2.9 2.3 5 4.1 5.4l5.8 1v12.2c0 1.5 1.2 2.3 2.7 2.3h9.3c1.2 0 2.5-.8 2.5-2.3v-10.8c7.4.8 17.8 1.2 28.1 1.2s21.1-.4 28.5-1.2v10.8c0 1.5 1.2 2.3 2.5 2.3h9.3c1.4 0 2.7-.8 2.7-2.3v-12.2l5.8-1c2.3-.4 4.1-2.3 4.1-5.4v-91c.1-4.2-2.6-6.9-7.4-7.5m-81.1 95.6c-2.9-.2-5.2-2.5-5.2-5.2.2-2.7 2.5-5 5.2-5s5 2.3 5 5c0 2.9-2.3 5.2-5 5.2m71 0c-2.9-.2-5.2-2.5-5.2-5.2.2-2.7 2.5-5 5.2-5s5 2.3 5 5c0 2.9-2.3 5.2-5 5.2m9.3-25.5v.4c0 2.5-1 3.9-4.1 4.4-11.2 1.9-25.6 3.7-39.9 3.7-14.9 0-29-1.7-40.3-4.1-3.1-.6-4.1-1.9-4.1-4.4V33.3c0-2.5 1-4.4 4.1-4.4l80.3.4c3.1 0 4.1 1.9 4.1 4.4v56.4z"></path>
</svg>
