<?xml version="1.0" encoding="UTF-8"?>
        <svg
            width="36px"
            height="36px"
            viewBox="0 0 36 36"
            version="1.1"
            xmlns="http://www.w3.org/2000/svg"
            xlink="http://www.w3.org/1999/xlink"
        >
            <title>icon-Zone-E-v2</title>
            <desc>Created with Sketch.</desc>
            <defs />
            <g
                id="Page-1"
                stroke="none"
                strokeWidth="1"
                fill="none"
                fillRule="evenodd"
            >
                <g id="icon-Zone-E-v2">
                    <path
                        d="M36,18.00096 C36,27.94176 27.9408,36.00096 18,36.00096 C8.0592,36.00096 0,27.94176 0,18.00096 C0,8.05776 8.0592,0.00096 18,0.00096 C27.9408,0.00096 36,8.05776 36,18.00096"
                        id="Fill-1"
                        fill="#007AC9"
                    />
                    <path
                        d="M9.94704,8.85792 C9.94704,7.78992 10.77024,6.96672 11.83584,6.96672 L25.07184,6.96672 C26.07744,6.96672 26.87184,7.76112 26.87184,8.76672 C26.87184,9.77232 26.07744,10.56672 25.07184,10.56672 L13.69584,10.56672 L13.69584,16.06272 L23.68464,16.06272 C24.69024,16.06272 25.48464,16.85712 25.48464,17.86272 C25.48464,18.86832 24.69024,19.66272 23.68464,19.66272 L13.69584,19.66272 L13.69584,25.28592 L25.22544,25.28592 C26.23104,25.28592 27.02544,26.08032 27.02544,27.08592 C27.02544,28.09152 26.23104,28.88592 25.22544,28.88592 L11.83584,28.88592 C10.77024,28.88592 9.94704,28.06272 9.94704,26.99472 L9.94704,8.85792 Z"
                        id="Fill-4"
                        fill="#FFFFFF"
                    />
                </g>
            </g>
        </svg>
