<?xml version="1.0" encoding="utf-8"?>
<!-- Generated by IcoMoon.io -->
<!DOCTYPE svg PUBLIC "-//W3C//DTD SVG 1.1//EN" "http://www.w3.org/Graphics/SVG/1.1/DTD/svg11.dtd">
<svg version="1.1" xmlns="http://www.w3.org/2000/svg" xmlns:xlink="http://www.w3.org/1999/xlink" viewBox="0 0 433 433">
<path fill="rgb(255, 99, 25)" d="M0,378.9c0,29.8,24.4,54.2,54.1,54.2l324.8,0c29.8,0,54.2,-24.4,54.2,-54.2l0,-324.8C433.1,24.4,408.7,0,378.9,0L54.1,0C24.4,0,0,24.4,0,54.1Z"></path>
<path fill="rgb(255, 255, 255)" d="M252.7,378.9L314.1,168.2l0,-9.3c0,-0.6,0.8,-1.2,1.8,-0.8l0,220.8l67.5,0l0,-324.8l-99.3,0L221.8,276.2l-1.2,14.9c-0.6,0.3,-0.8,0.3,-1.4,0l-1.8,-14.9L155.1,54.1l-99.7,0l0,324.8l68.1,0l0,-220.8c0.8,-0.4,1.7,0.2,1.7,0.8l0,9.3l61,210.7l66.5,0Z"></path>
</svg>
