<?xml version="1.0" encoding="UTF-8"?>
<svg xmlns="http://www.w3.org/2000/svg" xmlns:xlink="http://www.w3.org/1999/xlink" viewBox="0 0 32 32" version="1.1">
<g id="surface1">
<path style=" stroke:none;fill-rule:evenodd;fill:rgb(0%,47.843137%,78.823531%);fill-opacity:1;" d="M 4.921875 0 L 27.078125 0 C 29.796875 0 32 2.203125 32 4.921875 L 32 27.078125 C 32 29.796875 29.796875 32 27.078125 32 L 4.921875 32 C 2.203125 32 0 29.796875 0 27.078125 L 0 4.921875 C 0 2.203125 2.203125 0 4.921875 0 Z M 4.921875 0 "/>
<path style=" stroke:none;fill-rule:evenodd;fill:rgb(100%,100%,100%);fill-opacity:1;" d="M 1.234375 27.039062 L 1.234375 4.875 C 1.234375 3.867188 1.59375 3 2.320312 2.296875 C 3.046875 1.585938 3.90625 1.234375 4.890625 1.234375 L 27.039062 1.234375 C 28.070312 1.234375 28.953125 1.585938 29.679688 2.296875 C 30.40625 3.007812 30.765625 3.867188 30.765625 4.875 L 30.765625 27.039062 C 30.765625 28.070312 30.40625 28.953125 29.679688 29.679688 C 28.984375 30.390625 28.03125 30.789062 27.039062 30.765625 L 4.890625 30.765625 C 3.882812 30.765625 3.015625 30.40625 2.304688 29.679688 C 1.601562 28.984375 1.210938 28.023438 1.234375 27.039062 Z M 5.289062 12.96875 L 7.179688 23.609375 C 7.234375 23.90625 7.398438 24.164062 7.679688 24.367188 C 7.960938 24.570312 8.257812 24.671875 8.570312 24.671875 L 23.429688 24.671875 C 23.75 24.671875 24.0625 24.570312 24.351562 24.359375 C 24.640625 24.148438 24.8125 23.898438 24.875 23.609375 L 26.75 12.96875 Z M 6.65625 14.070312 L 10.28125 14.070312 L 10.609375 18.398438 L 7.359375 18.398438 Z M 7.648438 19.5 L 10.789062 19.5 L 11.132812 23.609375 L 8.570312 23.609375 C 8.523438 23.609375 8.460938 23.578125 8.390625 23.507812 C 8.335938 23.460938 8.28125 23.40625 8.25 23.335938 Z M 8.429688 12.085938 L 9.726562 12.085938 L 11.023438 7.867188 L 11.382812 7.867188 C 11.382812 8.0625 11.460938 8.226562 11.609375 8.382812 C 11.742188 8.523438 11.929688 8.609375 12.125 8.609375 L 19.914062 8.609375 C 20.109375 8.609375 20.289062 8.53125 20.429688 8.390625 C 20.570312 8.257812 20.65625 8.0625 20.648438 7.867188 L 20.90625 7.867188 L 22.203125 12.085938 L 23.46875 12.085938 L 21.875 7.054688 C 21.851562 6.960938 21.789062 6.875 21.671875 6.804688 C 21.578125 6.734375 21.46875 6.703125 21.359375 6.695312 L 20.648438 6.695312 C 20.648438 6.5 20.570312 6.3125 20.429688 6.179688 C 20.296875 6.039062 20.109375 5.953125 19.914062 5.953125 L 12.125 5.953125 C 11.929688 5.953125 11.742188 6.03125 11.609375 6.171875 C 11.460938 6.304688 11.382812 6.492188 11.382812 6.695312 L 10.609375 6.695312 C 10.484375 6.695312 10.359375 6.734375 10.257812 6.804688 C 10.15625 6.859375 10.070312 6.953125 10.015625 7.054688 Z M 11.382812 14.070312 L 15.226562 14.070312 L 15.226562 18.398438 L 11.710938 18.398438 Z M 11.90625 19.5 L 15.226562 19.5 L 15.226562 23.609375 L 12.234375 23.609375 Z M 16.328125 23.609375 L 16.328125 19.5 L 19.804688 19.5 L 19.429688 23.609375 Z M 16.328125 18.398438 L 16.328125 14.070312 L 20.289062 14.070312 L 19.953125 18.398438 Z M 20.578125 23.609375 L 20.945312 19.5 L 24.382812 19.5 L 23.75 23.335938 C 23.71875 23.398438 23.679688 23.460938 23.625 23.507812 C 23.570312 23.578125 23.5 23.609375 23.429688 23.609375 Z M 21.070312 18.398438 L 21.429688 14.070312 L 25.34375 14.070312 L 24.671875 18.398438 Z M 21.070312 18.398438 "/>
</g>
</svg>
