<?xml version="1.0" encoding="utf-8"?>
<!-- Generated by IcoMoon.io -->
<!DOCTYPE svg PUBLIC "-//W3C//DTD SVG 1.1//EN" "http://www.w3.org/Graphics/SVG/1.1/DTD/svg11.dtd">
<svg version="1.1" xmlns="http://www.w3.org/2000/svg" xmlns:xlink="http://www.w3.org/1999/xlink" width="32" height="32" viewBox="0 0 32 32">
<path fill="rgb(255, 255, 255)" d="M27.22 31.040h-22.4c-2.121 0-3.84-1.719-3.84-3.84v-22.4c0-2.121 1.719-3.84 3.84-3.84h22.4c2.121 0 3.84 1.719 3.84 3.84v22.4c0 2.121-1.719 3.84-3.84 3.84z"></path>
<path fill="rgb(255, 99, 25)" d="M0.001 3.962c0-2.16 1.8-3.96 3.96-3.96h23.998c2.24 0 4.040 1.8 4.040 3.96v23.998c0 2.24-1.8 4.040-4.040 4.040h-23.998c-2.16 0-3.96-1.8-3.96-4.040v-23.998zM16 3.763c-3.8 0-6.959 0.36-9.559 0.84-1.080 0.12-1.8 0.92-1.8 2.080v15.679c0 1.12 0.68 2 1.8 2.16 2.6 0.44 5.759 0.84 9.559 0.84 3.84 0 6.999-0.36 9.599-0.84 1.040-0.16 1.76-0.96 1.76-2.080v-15.679c0-1.16-0.68-2.040-1.76-2.16-2.6-0.44-5.759-0.84-9.599-0.84zM6.161 21.161c0.040-0.52 0.52-1 1.080-1 0.52 0 1 0.48 1 1 0 0.6-0.48 1.080-1 1.080-0.6-0.040-1.080-0.52-1.080-1.080zM6.321 17.521v-10.119c0-0.56 0.32-0.96 0.8-0.96h17.718c0.52 0 0.88 0.44 0.88 0.96v10.119c0 0.56-0.28 0.92-0.8 0.92h-17.678c-0.52 0-0.92-0.4-0.92-0.92zM11.76 26.92c-0.4 0-0.8 0.44-0.8 0.88 0 0.4 0.4 0.8 0.8 0.8h8.639c0.4 0 0.8-0.4 0.8-0.8 0-0.44-0.4-0.88-0.8-0.88h-8.639zM23.799 21.161c0.040-0.52 0.52-1 1.040-1 0.56 0 1 0.48 1 1 0 0.6-0.44 1.080-1 1.080-0.6-0.040-1.040-0.52-1.040-1.080z"></path>
</svg>
