<svg xmlns="http://www.w3.org/2000/svg" viewBox="0 0 283.465 283.632">
	<path fill="#D91B53" d="M283.465 141.805c-.006 78.29-63.444 141.734-141.705 141.784C63.453 283.57.003 220.072 0 141.775-.046 63.52 63.458.066 141.747.044c78.297.006 141.72 63.514 141.718 141.76z"/>
	<path fill="#FFF" d="M67.265 176.99L127.76 62.173c1.983-5.03 9.34-7.796 13.948-7.82 4.69.042 11.396 2.203 13.853 6.316l59.17 115.27c4.462 7.192 6.395 9.595 6.393 16.46-.005 9.602-8.25 17.143-17.903 17.125-4.63.01-8.902-2.164-12.143-4.658L142.1 167.005 92.062 205.6c-3.595 2.882-7.515 4.265-11.802 4.285-10.03-.015-17.91-7.883-17.897-17.848-.025-6.503 2.3-10.033 4.902-15.047z"/>
</svg>