<svg xmlns="http://www.w3.org/2000/svg" viewBox="0 0 345.50399 128.75499">
  <g fill="#fff">
    <path d="M217.598 70.944c0-1.54 1.268-2.804 2.743-2.804 1.55 0 2.814 1.263 2.814 2.804V90.32h28.41V70.945c0-1.54 1.26-2.804 2.808-2.804 1.475 0 2.743 1.263 2.743 2.804v44.23c0 1.546-1.268 2.81-2.743 2.81-1.55 0-2.81-1.265-2.81-2.81V95.523h-28.408v19.653c0 1.545-1.264 2.81-2.813 2.81-1.474 0-2.742-1.266-2.742-2.81v-44.23zM285.675 93.554c7.384 0 12.652-3.794 12.652-10.112v-.14c0-6.035-4.634-9.688-12.583-9.688H270.56v19.94h15.115zm-20.67-22.26c0-1.54 1.26-2.805 2.745-2.805h18.414c6.05 0 10.9 1.826 13.994 4.913 2.396 2.393 3.797 5.825 3.797 9.688v.14c0 8.078-5.48 12.782-13.15 14.253l12.24 15.727c.564.634.91 1.264.91 2.035 0 1.475-1.4 2.74-2.808 2.74-1.124 0-1.97-.637-2.606-1.48l-13.846-17.964H270.56v16.635c0 1.545-1.268 2.81-2.81 2.81-1.485 0-2.745-1.266-2.745-2.81v-43.88zM323 73.613h-14.273c-1.412 0-2.603-1.123-2.603-2.525 0-1.407 1.19-2.6 2.603-2.6h34.167c1.412 0 2.606 1.194 2.606 2.6 0 1.403-1.195 2.525-2.606 2.525h-14.27v41.562c0 1.545-1.265 2.81-2.814 2.81-1.55 0-2.81-1.266-2.81-2.81V73.613zM216.548 16.455c0-3.017 2.39-5.408 5.412-5.408 3.023 0 5.416 2.39 5.416 5.408V30.92h19.97V16.454c0-3.017 2.39-5.408 5.408-5.408 3.03 0 5.42 2.39 5.42 5.408v39.173c0 3.02-2.39 5.406-5.42 5.406-3.02 0-5.408-2.385-5.408-5.406V40.884h-19.97v14.744c0 3.02-2.393 5.406-5.416 5.406-3.023 0-5.412-2.385-5.412-5.406V16.455zM266.692 55.418c-1.194-.837-2.042-2.383-2.042-4.07 0-2.81 2.252-4.986 5.065-4.986 1.408 0 2.39.488 3.093.98 3.724 2.74 7.8 4.423 12.59 4.423 4.427 0 7.093-1.75 7.093-4.632v-.136c0-2.74-1.684-4.144-9.912-6.25-9.913-2.53-16.313-5.263-16.313-15.025v-.138c0-8.92 7.174-14.815 17.23-14.815 5.977 0 11.183 1.542 15.61 4.353 1.198.7 2.392 2.175 2.392 4.28 0 2.81-2.256 4.988-5.062 4.988-1.058 0-1.906-.285-2.743-.773-3.587-2.11-6.964-3.3-10.34-3.3-4.145 0-6.324 1.895-6.324 4.284v.14c0 3.228 2.105 4.285 10.617 6.46 9.983 2.597 15.61 6.175 15.61 14.74v.14c0 9.765-7.455 15.237-18.073 15.237-6.464 0-13.008-1.967-18.49-5.9M309.707 16.455c0-3.017 2.392-5.408 5.416-5.408 3.023 0 5.416 2.39 5.416 5.408V50.79h20.04c2.746 0 4.924 2.168 4.924 4.91 0 2.735-2.18 4.912-4.925 4.912h-25.457c-3.023 0-5.416-2.387-5.416-5.408v-38.75zM116.616 68.736c-.218 0-4.995-.1-7.344-4.17 2.393-3.947 7.097-4.09 7.366-4.1 3.89.008 6.71 1.748 6.71 4.137 0 2.393-2.84 4.133-6.732 4.133m-10.67 37.363c-1.695 1.687-4.928.92-7.686-1.833-.155-.155-3.462-3.594-2.238-8.136 4.486-1.094 7.91 2.117 8.11 2.31 2.74 2.75 3.51 5.965 1.815 7.66m-41.702 17.053c-2.39 0-4.136-2.83-4.136-6.717 0-.218.1-4.988 4.176-7.33 3.96 2.394 4.1 7.083 4.1 7.356 0 3.878-1.734 6.69-4.14 6.69M30.368 103.96c-2.755 2.736-5.98 3.503-7.673 1.813-1.696-1.698-.933-4.916 1.818-7.662.162-.154 3.616-3.464 8.17-2.218 1.08 4.465-2.128 7.866-2.316 8.067M12.315 68.28c-3.89-.002-6.71-1.738-6.71-4.13 0-2.4 2.84-4.134 6.732-4.134.218 0 4.995.1 7.34 4.17-2.396 3.945-7.093 4.085-7.362 4.094M23 22.657c1.703-1.692 4.94-.922 7.69 1.827.155.153 3.462 3.598 2.238 8.138-4.483 1.093-7.91-2.12-8.11-2.312-2.747-2.746-3.507-5.964-1.818-7.653M64.706 5.59c2.393 0 4.136 2.837 4.136 6.724 0 .22-.1 4.982-4.18 7.323-3.953-2.385-4.09-7.073-4.097-7.344.01-3.884 1.74-6.703 4.14-6.703m33.88 19.202c2.746-2.74 5.976-3.502 7.672-1.812 1.692 1.694.93 4.914-1.825 7.66-.155.158-3.61 3.464-8.166 2.218-1.08-4.46 2.127-7.867 2.32-8.066m-6.887 66.96l-27.37 11.206-27.25-11.38-11.24-27.342L37.252 37l27.365-11.207 27.25 11.38 11.24 27.342L91.7 91.75zm24.923-36.878c-.287 0-5.685.063-9.814 3.897l-8.226-20.013c5.714-.11 9.614-3.963 9.828-4.173 5.032-5.04 5.792-11.58 1.803-15.56-3.99-3.986-10.558-3.218-15.61 1.824-.202.21-3.97 4.046-4.172 9.65l-19.966-8.327c3.945-4.11 3.978-9.57 3.978-9.864C74.445 5.176 70.353 0 64.705 0c-5.648 0-9.75 5.176-9.75 12.306 0 .29.07 5.674 3.907 9.8l-20.037 8.202c-.12-5.688-3.97-9.58-4.18-9.788-5.047-5.04-11.616-5.806-15.605-1.82-3.996 3.984-3.226 10.537 1.825 15.575.21.212 4.063 3.978 9.703 4.177l-8.357 19.94c-4.117-3.933-9.584-3.97-9.886-3.968C5.184 54.424 0 58.514 0 64.15c0 5.638 5.183 9.73 12.324 9.73.295 0 5.688-.063 9.82-3.9l8.226 20.018c-5.718.11-9.618 3.967-9.828 4.17-5.036 5.043-5.795 11.58-1.806 15.565 3.992 3.985 10.555 3.217 15.605-1.823.21-.208 3.975-4.05 4.185-9.657l19.963 8.335c-3.948 4.107-3.982 9.567-3.982 9.863 0 7.133 4.096 12.305 9.74 12.305s9.747-5.172 9.747-12.304c0-.296-.063-5.674-3.9-9.796l20.033-8.21c.122 5.696 3.967 9.58 4.18 9.792 5.052 5.04 11.614 5.806 15.61 1.82 3.993-3.984 3.222-10.54-1.828-15.582-.21-.203-4.062-3.97-9.7-4.177l8.355-19.937c4.118 3.937 9.59 3.972 9.884 3.972 7.14 0 12.328-4.09 12.328-9.727 0-5.64-5.19-9.73-12.332-9.73M163.808 2.805c0-1.545-1.26-2.805-2.813-2.805-1.475 0-2.743 1.26-2.743 2.805v123.14c0 1.545 1.268 2.808 2.743 2.808 1.552 0 2.813-1.263 2.813-2.81V2.806zM174.92 2.805c0-1.545-1.27-2.805-2.814-2.805-1.478 0-2.743 1.26-2.743 2.805v123.14c0 1.545 1.265 2.808 2.743 2.808 1.545 0 2.813-1.263 2.813-2.81V2.806z"/>
  </g>
</svg>
