<svg xmlns="http://www.w3.org/2000/svg" width="25" height="25" viewBox="0 0 25.000002 25.000002">
  <g transform="matrix(2.43544 0 0 2.43544 -1838.95 -4842.444)">
    <circle cx="760.217" cy="1993.462" r="3.624" fill="#dc1b54"/>
    <path d="M760.217 1990.338c1.723 0 3.124 1.4 3.124 3.124 0 1.723-1.4 3.124-3.123 3.124-1.722 0-3.124-1.4-3.124-3.124 0-1.723 1.4-3.124 3.124-3.124m0-1c-2.278 0-4.124 1.846-4.124 4.124 0 2.278 1.846 4.124 4.124 4.124 2.278 0 4.124-1.846 4.124-4.124 0-2.278-1.846-4.124-4.123-4.124z" fill="#fff"/>
    <path d="M760.217 1989.338c2.278 0 4.124 1.846 4.124 4.124 0 2.278-1.845 4.124-4.123 4.124-2.278 0-4.124-1.846-4.124-4.124 0-2.278 1.846-4.124 4.124-4.124m0-1c-2.825 0-5.124 2.3-5.124 5.124 0 2.825 2.3 5.124 5.124 5.124 2.825 0 5.124-2.3 5.124-5.124 0-2.825-2.298-5.124-5.123-5.124z" fill="#dc1b54"/>
  </g>
</svg>