<svg xmlns="http://www.w3.org/2000/svg" width="152247.47" height="152247.47" viewBox="0 0 142.732 142.732">
  <path d="M125.937 97.06h-93.06c-.83 0-1.5-.67-1.5-1.5V82.55c0-.827.67-1.5 1.5-1.5h93.06c.828 0 1.5.673 1.5 1.5v13.01c0 .83-.672 1.5-1.5 1.5zM26.446 97.06h-1.85c-.828 0-1.5-.67-1.5-1.5V82.55c0-.827.672-1.5 1.5-1.5h1.85c.828 0 1.5.673 1.5 1.5v13.01c0 .83-.672 1.5-1.5 1.5zM18.164 97.06h-1.85c-.828 0-1.5-.67-1.5-1.5V82.55c0-.827.672-1.5 1.5-1.5h1.85c.828 0 1.5.673 1.5 1.5v13.01c0 .83-.67 1.5-1.5 1.5zM21.3 76.192c-.214 0-.432-.027-.65-.084-1.374-.357-2.2-1.76-1.843-3.137.116-.446 2.992-11.004 15.753-15.704 4.09-1.507 7.686-2.32 10.858-3.04 4.905-1.112 8.78-1.99 12.438-4.917 4.942-3.954 4.936-8.296 4.928-13.792 0-1.543 0-3.14.117-4.762.71-9.455 4.825-12.86 5.292-13.216 1.13-.86 2.744-.648 3.607.48.862 1.13.647 2.744-.482 3.608 0 0-2.755 2.438-3.286 9.513-.107 1.428-.105 2.857-.103 4.37.01 5.773.016 12.316-6.86 17.817-4.582 3.666-9.185 4.71-14.516 5.917-3.167.718-6.44 1.46-10.218 2.85-10.264 3.78-12.53 12.087-12.55 12.17-.298 1.16-1.342 1.928-2.486 1.928z" fill="#fff"/>
  <path d="M2.27 130.48c1.72 4.61 5.372 8.263 9.98 9.98L140.46 12.253c-1.718-4.61-5.37-8.262-9.98-9.98L2.27 130.482z" fill="#dc1b54"/>
  <path stroke-miterlimit="10" d="M122.232 142.232H20.5c-11.046 0-20-8.954-20-20V20.5c0-11.046 8.954-20 20-20h101.732c11.046 0 20 8.954 20 20v101.732c0 11.046-8.954 20-20 20z" fill="none" stroke="#fff"/>
</svg>