<svg xmlns="http://www.w3.org/2000/svg" viewBox="0 0 283.465 283.632">
	<path fill="#FFF" d="M141.732 258.548C77.366 258.548 25 206.182 25 141.816S77.366 25.083 141.732 25.083 258.465 77.45 258.465 141.816 206.1 258.548 141.732 258.548z"/>
	<path fill="#00985F" d="M141.732 50.084c50.58 0 91.732 41.15 91.732 91.732s-41.15 91.732-91.732 91.732S50 192.398 50 141.816s41.15-91.732 91.732-91.732m0-50C63.456.084 0 63.54 0 141.816s63.456 141.732 141.732 141.732 141.732-63.456 141.732-141.732S220.01.084 141.732.084z"/>
</svg>