<svg xmlns="http://www.w3.org/2000/svg" viewBox="0 0 283.465 283.632">
	<path fill="#FFF" d="M141.733 258.548C77.367 258.548 25 206.182 25 141.816S77.367 25.083 141.733 25.083s116.73 52.367 116.73 116.733-52.364 116.732-116.73 116.732z"/>
	<path fill="#007AC9" d="M141.732 50.084c50.58 0 91.732 41.15 91.732 91.732s-41.15 91.732-91.732 91.732S50 192.398 50 141.816s41.15-91.732 91.732-91.732m0-50C63.456.084 0 63.54 0 141.816s63.456 141.732 141.732 141.732 141.732-63.456 141.732-141.732S220.01.084 141.732.084z"/>
</svg>
