<svg xmlns="http://www.w3.org/2000/svg" xmlns:xlink="http://www.w3.org/1999/xlink" viewBox="0 0 283.46 283.46"><defs><path id="a" d="M0 0h283.46v283.46H0z"/></defs><clipPath id="b"><use overflow="visible" xlink:href="#a"/></clipPath><path fill="#007ac9" d="M-.003 248.028c0 19.488 15.945 35.434 35.434 35.434h212.597c19.488 0 35.434-15.945 35.434-35.434V35.43c0-19.488-15.945-35.432-35.434-35.432H35.431C15.942-.002-.003 15.942-.003 35.43v212.598z" clip-path="url(#b)"/><g fill="#fff"><path d="M199.294 210.137c-16.953 11.848-36.858 18.11-57.564 18.11-20.706 0-40.609-6.262-57.561-18.109-13.726-9.592-24.726-22.246-32.225-36.975 3.819 18.834 13.476 36.036 27.793 49.218 16.925 15.583 38.943 24.188 61.995 24.232 23.053-.044 45.07-8.649 61.995-24.234 14.317-13.183 23.975-30.385 27.792-49.219-7.499 14.729-18.499 27.383-32.225 36.977z"/><path d="M173.541 42.566c-10.171-3.775-20.873-5.698-31.809-5.717-15.907.029-31.595 4.205-45.365 12.077-28.482 16.291-46.217 46.779-46.281 79.565v6.055c1.743 23.033 12.042 44.418 29.004 60.223 17.06 15.898 39.307 24.652 62.64 24.652 23.336 0 45.585-8.757 62.647-24.657 16.962-15.809 27.26-37.197 28.999-60.234v-6.041c-.073-38.136-24.118-72.667-59.835-85.923zM73.877 89.322a5.973 5.973 0 0 1 5.156-2.973c1.037 0 2.063.274 2.965.794l7.839 4.519c2.834 1.641 3.811 5.284 2.179 8.121a5.972 5.972 0 0 1-5.158 2.974 5.918 5.918 0 0 1-2.966-.796l-7.838-4.526a5.898 5.898 0 0 1-2.769-3.606 5.9 5.9 0 0 1 .592-4.507zm-10.493 39.172a5.951 5.951 0 0 1 5.943-5.946h9.051a5.95 5.95 0 0 1 5.941 5.946 5.95 5.95 0 0 1-5.941 5.945h-9.051a5.95 5.95 0 0 1-5.943-5.945zm29.222 33.207a5.887 5.887 0 0 1-2.771 3.605l-7.836 4.53a5.927 5.927 0 0 1-2.967.797 5.963 5.963 0 0 1-5.15-2.971 5.905 5.905 0 0 1-.595-4.52 5.89 5.89 0 0 1 2.774-3.602l7.836-4.523a5.936 5.936 0 0 1 2.966-.798 5.972 5.972 0 0 1 5.151 2.968 5.91 5.91 0 0 1 .592 4.514zm101.026-70.034l7.832-4.528a5.948 5.948 0 0 1 2.973-.8 5.958 5.958 0 0 1 5.15 2.97 5.917 5.917 0 0 1 .595 4.509 5.891 5.891 0 0 1-2.768 3.611l-7.837 4.526a5.923 5.923 0 0 1-2.972.802 5.972 5.972 0 0 1-5.149-2.97 5.95 5.95 0 0 1 2.176-8.12zm-78.436 94.664l-4.522 7.837a5.953 5.953 0 0 1-5.151 2.976 5.923 5.923 0 0 1-2.966-.798 5.886 5.886 0 0 1-2.768-3.605 5.918 5.918 0 0 1 .59-4.509l4.531-7.842a5.955 5.955 0 0 1 5.149-2.973c1.038 0 2.063.275 2.966.796a5.893 5.893 0 0 1 2.77 3.605 5.899 5.899 0 0 1-.599 4.513zm.598-111.166a5.902 5.902 0 0 1-2.77 3.608 5.967 5.967 0 0 1-2.965.795 5.951 5.951 0 0 1-5.153-2.978l-4.526-7.834a5.903 5.903 0 0 1-.591-4.516 5.89 5.89 0 0 1 2.772-3.601 5.91 5.91 0 0 1 2.962-.798 5.96 5.96 0 0 1 5.152 2.978l4.527 7.838a5.9 5.9 0 0 1 .592 4.508zm31.882 125.731a5.947 5.947 0 0 1-5.94 5.941 5.949 5.949 0 0 1-5.943-5.941v-9.055a5.949 5.949 0 0 1 5.943-5.941 5.947 5.947 0 0 1 5.94 5.941v9.055zm36.003-8.169a5.904 5.904 0 0 1-2.773 3.614 5.945 5.945 0 0 1-2.968.797 5.964 5.964 0 0 1-5.148-2.975l-4.521-7.839a5.896 5.896 0 0 1-.599-4.509 5.906 5.906 0 0 1 2.767-3.61 5.957 5.957 0 0 1 2.967-.794 5.959 5.959 0 0 1 5.152 2.972l4.528 7.841a5.897 5.897 0 0 1 .595 4.503zm-.594-123.97l-36.275 62.822s-.596.837-.903 1.14l-.108.097a5.795 5.795 0 0 1-1 .752s-.996.487-1.359.597c-1.442.504-3.089.286-4.429-.411-.087-.033-.8-.496-.963-.628-.258-.185-.771-.728-.771-.728a6.262 6.262 0 0 1-.957-1.471c-.053-.126-.168-.443-.168-.443a5.244 5.244 0 0 1-.206-.701c-.083-.341-.154-1.216-.154-1.294V56.084c0-3.233 2.705-5.942 5.938-5.942 3.235 0 5.945 2.706 5.945 5.942v50.233l25.113-43.5c1.553-2.688 5.04-3.735 7.817-2.342 3.011 1.51 4.17 5.362 2.48 8.282zm26.502 98.905a5.974 5.974 0 0 1-5.152 2.972 5.92 5.92 0 0 1-2.966-.798l-7.837-4.518c-2.834-1.634-3.815-5.275-2.186-8.119a5.98 5.98 0 0 1 5.159-2.975 5.93 5.93 0 0 1 2.959.792l7.846 4.526a5.887 5.887 0 0 1 2.769 3.601 5.902 5.902 0 0 1-.592 4.519zm4.553-33.223h-9.049a5.95 5.95 0 0 1-5.944-5.945 5.951 5.951 0 0 1 5.944-5.946h9.049a5.95 5.95 0 0 1 5.942 5.946 5.95 5.95 0 0 1-5.942 5.945z"/></g><path fill="none" d="M0 0h283.46v283.46H0z"/></svg>