<?xml version="1.0" encoding="UTF-8" standalone="no"?>
<!-- Generator: Adobe Illustrator 21.1.0, SVG Export Plug-In . SVG Version: 6.00 Build 0)  -->

<svg
   xmlns:dc="http://purl.org/dc/elements/1.1/"
   xmlns:cc="http://creativecommons.org/ns#"
   xmlns:rdf="http://www.w3.org/1999/02/22-rdf-syntax-ns#"
   xmlns:svg="http://www.w3.org/2000/svg"
   xmlns="http://www.w3.org/2000/svg"
   xmlns:sodipodi="http://sodipodi.sourceforge.net/DTD/sodipodi-0.dtd"
   xmlns:inkscape="http://www.inkscape.org/namespaces/inkscape"
   version="1.1"
   x="0px"
   y="0px"
   width="359.39999"
   height="133.89999"
   viewBox="0 0 359.39998 133.9"
   xml:space="preserve"
   id="svg509"
   sodipodi:docname="left.svg"
   inkscape:version="0.92.2 5c3e80d, 2017-08-06"><metadata
     id="metadata515"><rdf:RDF><cc:Work
         rdf:about=""><dc:format>image/svg+xml</dc:format><dc:type
           rdf:resource="http://purl.org/dc/dcmitype/StillImage" /><dc:title></dc:title></cc:Work></rdf:RDF></metadata><defs
     id="defs513" /><sodipodi:namedview
     pagecolor="#ffffff"
     bordercolor="#666666"
     borderopacity="1"
     objecttolerance="10"
     gridtolerance="10"
     guidetolerance="10"
     inkscape:pageopacity="0"
     inkscape:pageshadow="2"
     inkscape:window-width="1435"
     inkscape:window-height="981"
     id="namedview511"
     showgrid="false"
     fit-margin-top="0"
     fit-margin-left="0"
     fit-margin-right="0"
     fit-margin-bottom="0"
     inkscape:zoom="0.27522669"
     inkscape:cx="615.03733"
     inkscape:cy="139.10932"
     inkscape:window-x="329"
     inkscape:window-y="103"
     inkscape:window-maximized="0"
     inkscape:current-layer="svg509" /><style
     type="text/css"
     id="style2">
	.st0{fill:#007AC9;}
	.st1{fill:none;}
	.st2{fill:#FFFFFF;}
	.st3{font-family:'GothamRounded-Medium';}
	.st4{font-size:80px;}
	.st5{font-family:'GothamRounded-Book';}
	.st6{letter-spacing:-2;}
	.st7{font-size:38px;}
	.st8{display:none;fill:#007EC7;}
	.st9{font-size:24px;}
	.st10{font-size:18px;}
	.st11{letter-spacing:-1;}
	.st12{fill-rule:evenodd;clip-rule:evenodd;fill:#FFFFFF;}
	.st13{display:none;}
	.st14{display:inline;}
	.st15{fill:none;stroke:#FFFFFF;stroke-width:4.994;stroke-linecap:round;stroke-miterlimit:10;}
	.st16{fill:none;stroke:#FFFFFF;stroke-width:4.994;stroke-linecap:round;stroke-miterlimit:10;stroke-dasharray:0,9.9955;}
	.st17{fill:none;stroke:#FFFFFF;stroke-width:5.0203;stroke-linecap:round;stroke-miterlimit:10;}
	.st18{fill:none;stroke:#FFFFFF;stroke-width:5.0203;stroke-linecap:round;stroke-miterlimit:10;stroke-dasharray:0,10.2014;}
</style><rect
     style="display:none;fill:#007ec7"
     id="rect46"
     height="467.70001"
     width="2296.1001"
     class="st8"
     y="-150.8"
     x="-87.400002" /><g
     id="g66"
     transform="translate(-85.2,-3117.8)"><path
       style="fill:#ffffff"
       inkscape:connector-curvature="0"
       id="path48"
       d="m 311.5,3191.6 c 0,-1.6 1.3,-2.9 2.9,-2.9 1.6,0 2.9,1.3 2.9,2.9 v 20.2 h 29.6 v -20.2 c 0,-1.6 1.3,-2.9 2.9,-2.9 1.5,0 2.9,1.3 2.9,2.9 v 46 c 0,1.6 -1.3,2.9 -2.9,2.9 -1.6,0 -2.9,-1.3 -2.9,-2.9 v -20.5 h -29.6 v 20.5 c 0,1.6 -1.3,2.9 -2.9,2.9 -1.5,0 -2.9,-1.3 -2.9,-2.9 z"
       class="st2" /><path
       style="fill:#ffffff"
       inkscape:connector-curvature="0"
       id="path50"
       d="m 382.4,3215.2 c 7.7,0 13.2,-3.9 13.2,-10.5 v -0.1 c 0,-6.3 -4.8,-10.1 -13.1,-10.1 h -15.8 v 20.8 h 15.7 z M 360.9,3192 c 0,-1.6 1.3,-2.9 2.9,-2.9 H 383 c 6.3,0 11.3,1.9 14.6,5.1 2.5,2.5 4,6.1 4,10.1 v 0.1 c 0,8.4 -5.7,13.3 -13.7,14.8 l 12.7,16.4 c 0.6,0.7 1,1.3 1,2.1 0,1.5 -1.5,2.9 -2.9,2.9 -1.2,0 -2.1,-0.7 -2.7,-1.5 l -14.4,-18.7 h -14.7 v 17.3 c 0,1.6 -1.3,2.9 -2.9,2.9 -1.5,0 -2.9,-1.3 -2.9,-2.9 V 3192 Z"
       class="st2" /><path
       style="fill:#ffffff"
       inkscape:connector-curvature="0"
       id="path52"
       d="m 421.2,3194.4 h -14.9 c -1.5,0 -2.7,-1.2 -2.7,-2.6 0,-1.5 1.2,-2.7 2.7,-2.7 h 35.6 c 1.5,0 2.7,1.2 2.7,2.7 0,1.5 -1.2,2.6 -2.7,2.6 H 427 v 43.3 c 0,1.6 -1.3,2.9 -2.9,2.9 -1.6,0 -2.9,-1.3 -2.9,-2.9 z"
       class="st2" /><path
       style="fill:#ffffff"
       inkscape:connector-curvature="0"
       id="path54"
       d="m 310.4,3134.9 c 0,-3.1 2.5,-5.6 5.6,-5.6 3.1,0 5.6,2.5 5.6,5.6 v 15.1 h 20.8 v -15.1 c 0,-3.1 2.5,-5.6 5.6,-5.6 3.2,0 5.6,2.5 5.6,5.6 v 40.8 c 0,3.1 -2.5,5.6 -5.6,5.6 -3.1,0 -5.6,-2.5 -5.6,-5.6 v -15.3 h -20.8 v 15.3 c 0,3.1 -2.5,5.6 -5.6,5.6 -3.1,0 -5.6,-2.5 -5.6,-5.6 z"
       class="st2" /><path
       style="fill:#ffffff"
       inkscape:connector-curvature="0"
       id="path56"
       d="m 362.6,3175.5 c -1.2,-0.9 -2.1,-2.5 -2.1,-4.2 0,-2.9 2.3,-5.2 5.3,-5.2 1.5,0 2.5,0.5 3.2,1 3.9,2.9 8.1,4.6 13.1,4.6 4.6,0 7.4,-1.8 7.4,-4.8 v -0.1 c 0,-2.8 -1.8,-4.3 -10.3,-6.5 -10.3,-2.6 -17,-5.5 -17,-15.6 v -0.1 c 0,-9.3 7.5,-15.4 17.9,-15.4 6.2,0 11.6,1.6 16.2,4.5 1.2,0.7 2.5,2.3 2.5,4.5 0,2.9 -2.3,5.2 -5.3,5.2 -1.1,0 -2,-0.3 -2.9,-0.8 -3.7,-2.2 -7.2,-3.4 -10.8,-3.4 -4.3,0 -6.6,2 -6.6,4.5 v 0.1 c 0,3.4 2.2,4.5 11.1,6.7 10.4,2.7 16.2,6.4 16.2,15.3 v 0.1 c 0,10.2 -7.8,15.9 -18.8,15.9 -6.6,-0.2 -13.4,-2.2 -19.1,-6.3"
       class="st2" /><path
       style="fill:#ffffff"
       inkscape:connector-curvature="0"
       id="path58"
       d="m 407.4,3134.9 c 0,-3.1 2.5,-5.6 5.6,-5.6 3.1,0 5.6,2.5 5.6,5.6 v 35.7 h 20.9 c 2.9,0 5.1,2.3 5.1,5.1 0,2.8 -2.3,5.1 -5.1,5.1 H 413 c -3.1,0 -5.6,-2.5 -5.6,-5.6 z"
       class="st2" /><path
       style="fill:#ffffff"
       inkscape:connector-curvature="0"
       id="path60"
       d="m 206.4,3189.3 c -0.2,0 -5.2,-0.1 -7.6,-4.3 2.5,-4.1 7.4,-4.3 7.7,-4.3 4,0 7,1.8 7,4.3 -0.1,2.5 -3,4.3 -7.1,4.3 m -11.1,38.9 c -1.8,1.8 -5.1,1 -8,-1.9 -0.2,-0.2 -3.6,-3.7 -2.3,-8.5 4.7,-1.1 8.2,2.2 8.4,2.4 2.9,2.9 3.7,6.3 1.9,8 m -43.4,17.8 c -2.5,0 -4.3,-2.9 -4.3,-7 0,-0.2 0.1,-5.2 4.3,-7.6 4.1,2.5 4.3,7.4 4.3,7.7 0,4 -1.8,6.9 -4.3,6.9 m -35.2,-20 c -2.9,2.8 -6.2,3.6 -8,1.9 -1.8,-1.8 -1,-5.1 1.9,-8 0.2,-0.2 3.8,-3.6 8.5,-2.3 1.1,4.7 -2.2,8.2 -2.4,8.4 m -18.8,-37.1 c -4,0 -7,-1.8 -7,-4.3 0,-2.5 3,-4.3 7,-4.3 0.2,0 5.2,0.1 7.6,4.3 -2.4,4.1 -7.3,4.3 -7.6,4.3 m 11.1,-47.5 c 1.8,-1.8 5.1,-1 8,1.9 0.2,0.2 3.6,3.7 2.3,8.5 -4.7,1.1 -8.2,-2.2 -8.4,-2.4 -2.8,-2.9 -3.6,-6.3 -1.9,-8 m 43.4,-17.8 c 2.5,0 4.3,3 4.3,7 0,0.2 -0.1,5.2 -4.3,7.6 -4.1,-2.5 -4.3,-7.4 -4.3,-7.6 0,-4 1.8,-7 4.3,-7 m 35.3,20 c 2.9,-2.9 6.2,-3.6 8,-1.9 1.8,1.8 1,5.1 -1.9,8 -0.2,0.2 -3.8,3.6 -8.5,2.3 -1.2,-4.6 2.2,-8.2 2.4,-8.4 m -7.2,69.7 -28.5,11.7 -28.4,-11.8 -11.7,-28.5 11.9,-28.3 28.5,-11.7 28.4,11.8 11.7,28.5 z m 26,-38.4 c -0.3,0 -5.9,0.1 -10.2,4.1 l -8.6,-20.8 c 5.9,-0.1 10,-4.1 10.2,-4.3 5.2,-5.2 6,-12 1.9,-16.2 -4.2,-4.1 -11,-3.4 -16.2,1.9 -0.2,0.2 -4.1,4.2 -4.4,10 l -20.8,-8.7 c 4.1,-4.3 4.1,-10 4.1,-10.3 0,-7.4 -4.3,-12.8 -10.1,-12.8 -5.9,0 -10.1,5.4 -10.1,12.8 0,0.3 0.1,5.9 4.1,10.2 l -20.8,8.5 c -0.1,-5.9 -4.1,-10 -4.4,-10.2 -5.3,-5.2 -12.1,-6 -16.2,-1.9 -4.2,4.1 -3.4,11 1.9,16.2 0.2,0.2 4.2,4.1 10.1,4.3 l -8.7,20.8 c -4.3,-4.1 -10,-4.1 -10.3,-4.1 -7.4,0 -12.8,4.3 -12.8,10.1 0,5.9 5.4,10.1 12.8,10.1 0.3,0 5.9,-0.1 10.2,-4.1 l 8.6,20.8 c -5.9,0.1 -10,4.1 -10.2,4.3 -5.2,5.2 -6,12.1 -1.9,16.2 4.2,4.2 11,3.4 16.2,-1.9 0.2,-0.2 4.1,-4.2 4.4,-10 l 20.8,8.7 c -4.1,4.3 -4.1,10 -4.1,10.3 0,7.4 4.3,12.8 10.1,12.8 5.9,0 10.1,-5.4 10.1,-12.8 0,-0.3 -0.1,-5.9 -4.1,-10.2 l 20.8,-8.5 c 0.1,5.9 4.1,10 4.4,10.2 5.3,5.2 12.1,6 16.2,1.9 4.2,-4.1 3.4,-11 -1.9,-16.2 -0.2,-0.2 -4.2,-4.1 -10.1,-4.3 l 8.7,-20.7 c 4.3,4.1 10,4.1 10.3,4.1 7.4,0 12.8,-4.3 12.8,-10.1 0,-5.9 -5.4,-10.2 -12.8,-10.2"
       class="st2" /><path
       style="fill:#ffffff"
       inkscape:connector-curvature="0"
       id="path62"
       d="m 255.6,3120.7 c 0,-1.6 -1.3,-2.9 -2.9,-2.9 -1.5,0 -2.9,1.3 -2.9,2.9 v 128.1 c 0,1.6 1.3,2.9 2.9,2.9 1.6,0 2.9,-1.3 2.9,-2.9 z"
       class="st2" /><path
       style="fill:#ffffff"
       inkscape:connector-curvature="0"
       id="path64"
       d="m 267.1,3120.7 c 0,-1.6 -1.3,-2.9 -2.9,-2.9 -1.5,0 -2.9,1.3 -2.9,2.9 v 128.1 c 0,1.6 1.3,2.9 2.9,2.9 1.6,0 2.9,-1.3 2.9,-2.9 z"
       class="st2" /></g><g
     style="display:none"
     id="g486"
     class="st13"
     transform="translate(-85.2,-3117.8)"><g
       style="display:inline"
       id="g484"
       class="st14"><line
         style="fill:none;stroke:#ffffff;stroke-width:4.99399996;stroke-linecap:round;stroke-miterlimit:10"
         id="line478"
         y2="3090.6001"
         x2="51.299999"
         y1="3090.6001"
         x1="51.299999"
         class="st15" /><line
         style="fill:none;stroke:#ffffff;stroke-width:4.99399996;stroke-linecap:round;stroke-miterlimit:10;stroke-dasharray:0, 9.9955"
         id="line480"
         y2="3090.6001"
         x2="2235.3"
         y1="3090.6001"
         x1="61.299999"
         class="st16" /><line
         style="fill:none;stroke:#ffffff;stroke-width:4.99399996;stroke-linecap:round;stroke-miterlimit:10"
         id="line482"
         y2="3090.6001"
         x2="2240.3"
         y1="3090.6001"
         x1="2240.3"
         class="st15" /></g></g></svg>