<svg id="aab31597-643f-4b46-8b7d-27782d45a0c4" data-name="Layer 1" xmlns="http://www.w3.org/2000/svg" viewBox="0 0 456.38 382.68">
  <title>Customer_service_xx x 382,68px_konv_5.12</title>
  <g id="5c316f70-1d4c-4b8d-a3d3-a0026c742e3e" data-name="Footer">
    <path d="M133.6,135.87a1.48,1.48,0,0,0,3,0v-5.75h8v5.75a1.48,1.48,0,0,0,3,0V121.73a1.48,1.48,0,0,0-3,0v5.65h-8v-5.65a1.48,1.48,0,0,0-3,0Z" fill="#fff"/>
    <path d="M157.88,137.46c3.53,0,6-1.88,6-5v-.05c0-2.79-1.83-4.06-5.38-4.93-3.25-.77-4-1.34-4-2.64v0c0-1.11,1-2,2.74-2A7,7,0,0,1,161.1,124a1.46,1.46,0,0,0,.77.21,1.37,1.37,0,0,0,1.39-1.37,1.33,1.33,0,0,0-.64-1.17,9.22,9.22,0,0,0-5.34-1.57c-3.34,0-5.75,2-5.75,4.88v0c0,3.1,2,4.16,5.6,5,3.13.72,3.8,1.37,3.8,2.57v.05c0,1.25-1.15,2.12-3,2.12a7.28,7.28,0,0,1-4.71-1.74,1.4,1.4,0,0,0-.87-.26,1.38,1.38,0,0,0-.81,2.5A10.43,10.43,0,0,0,157.88,137.46Z" fill="#fff"/>
    <path d="M167.47,135.73a1.47,1.47,0,0,0,1.49,1.49h9.09a1.35,1.35,0,0,0,0-2.7h-7.63V121.73a1.48,1.48,0,0,0-2.95,0Z" fill="#fff"/>
    <path d="M193.7,130.53l3-6.8,3,6.8ZM188.41,136a1.35,1.35,0,0,0,1.37,1.37,1.42,1.42,0,0,0,1.37-.94l1.42-3.25h8.18l1.37,3.15a1.51,1.51,0,0,0,1.44,1,1.39,1.39,0,0,0,1.39-1.42,1.31,1.31,0,0,0-.16-.63l-6.26-13.95a1.84,1.84,0,0,0-1.75-1.2h-.14a1.87,1.87,0,0,0-1.78,1.2l-6.25,13.95A1.55,1.55,0,0,0,188.41,136Z" fill="#fff"/>
    <path d="M212.4,137.46c2.64,0,4.71-1.33,4.71-4v0c0-2.29-2.09-3.13-3.94-3.71-1.49-.48-2.87-.86-2.87-1.8v0c0-.72.65-1.25,1.78-1.25a6.9,6.9,0,0,1,3,.87,1.24,1.24,0,0,0,.58.14,1.17,1.17,0,0,0,1.2-1.18,1.21,1.21,0,0,0-.69-1.1,8.75,8.75,0,0,0-4-1c-2.53,0-4.52,1.47-4.52,3.87v.05c0,2.43,2.09,3.2,4,3.73,1.49.46,2.84.79,2.84,1.78v.05c0,.84-.72,1.37-2,1.37a6.7,6.7,0,0,1-3.66-1.23,1.29,1.29,0,0,0-.62-.17,1.17,1.17,0,0,0-1.18,1.18,1.12,1.12,0,0,0,.55,1A8.71,8.71,0,0,0,212.4,137.46Z" fill="#fff"/>
    <path d="M220.14,135.89a1.46,1.46,0,0,0,2.91,0v-10a1.46,1.46,0,0,0-1.46-1.47,1.44,1.44,0,0,0-1.45,1.47Zm-.21-14.64a1.68,1.68,0,0,0,3.32,0v-.15a1.68,1.68,0,0,0-3.32,0Z" fill="#fff"/>
    <path d="M231.23,135.36c-1.39,0-2.48-.69-2.48-1.92v-.05c0-1.32,1.11-2.11,3-2.11a8.06,8.06,0,0,1,2.89.5v.87C234.62,134.26,233.15,135.36,231.23,135.36Zm-.82,2.12a5.18,5.18,0,0,0,4.14-1.85v.48a1.31,1.31,0,0,0,1.42,1.23,1.38,1.38,0,0,0,1.41-1.4v-6.25a5.25,5.25,0,0,0-1.37-3.92,5.68,5.68,0,0,0-4.2-1.42,10.82,10.82,0,0,0-4.09.75,1.26,1.26,0,0,0-.79,1.15,1.21,1.21,0,0,0,1.22,1.2,1.56,1.56,0,0,0,.46-.07,7.59,7.59,0,0,1,2.81-.5c2.05,0,3.15,1,3.15,2.76V130a10.61,10.61,0,0,0-3.41-.53c-3.1,0-5.24,1.35-5.24,4.09v.05C225.92,136.11,228,137.48,230.41,137.48Z" fill="#fff"/>
    <path d="M240.9,135.89a1.46,1.46,0,0,0,2.91,0v-2.21l1.93-1.83,3.63,4.84a1.45,1.45,0,0,0,1.27.65A1.31,1.31,0,0,0,252,136a1.57,1.57,0,0,0-.38-1l-3.85-5,3.37-3.11a1.65,1.65,0,0,0,.64-1.22,1.28,1.28,0,0,0-1.27-1.33,1.7,1.7,0,0,0-1.25.63l-5.46,5.36V121a1.45,1.45,0,0,0-1.46-1.44A1.44,1.44,0,0,0,240.9,121Z" fill="#fff"/>
    <path d="M259.15,135.36c-1.39,0-2.48-.69-2.48-1.92v-.05c0-1.32,1.11-2.11,3-2.11a8,8,0,0,1,2.88.5v.87C262.54,134.26,261.07,135.36,259.15,135.36Zm-.82,2.12a5.18,5.18,0,0,0,4.14-1.85v.48a1.31,1.31,0,0,0,1.42,1.23,1.38,1.38,0,0,0,1.41-1.4v-6.25a5.25,5.25,0,0,0-1.37-3.92,5.68,5.68,0,0,0-4.2-1.42,10.82,10.82,0,0,0-4.09.75,1.26,1.26,0,0,0-.79,1.15,1.21,1.21,0,0,0,1.22,1.2,1.56,1.56,0,0,0,.46-.07,7.59,7.59,0,0,1,2.81-.5c2.05,0,3.15,1,3.15,2.76V130a10.61,10.61,0,0,0-3.41-.53c-3.1,0-5.24,1.35-5.24,4.09v.05C253.84,136.11,256,137.48,258.33,137.48Z" fill="#fff"/>
    <path d="M273.17,137.46c2.64,0,4.71-1.33,4.71-4v0c0-2.29-2.09-3.13-3.95-3.71-1.49-.48-2.86-.86-2.86-1.8v0c0-.72.65-1.25,1.78-1.25a6.9,6.9,0,0,1,3,.87,1.24,1.24,0,0,0,.58.14,1.17,1.17,0,0,0,1.2-1.18,1.23,1.23,0,0,0-.69-1.1,8.75,8.75,0,0,0-4-1c-2.53,0-4.52,1.47-4.52,3.87v.05c0,2.43,2.09,3.2,4,3.73,1.49.46,2.84.79,2.84,1.78v.05c0,.84-.72,1.37-2,1.37a6.7,6.7,0,0,1-3.66-1.23,1.29,1.29,0,0,0-.62-.17,1.17,1.17,0,0,0-1.18,1.18,1.12,1.12,0,0,0,.55,1A8.71,8.71,0,0,0,273.17,137.46Z" fill="#fff"/>
    <path d="M287.45,135a3.83,3.83,0,0,1-3.71-4.07v0a3.82,3.82,0,0,1,3.71-4.06,3.76,3.76,0,0,1,3.63,4.06v0C291.08,133.39,289.44,135,287.45,135Zm-6.54,4.78a1.46,1.46,0,0,0,2.91,0v-4.5a5.16,5.16,0,0,0,4.32,2.24c3,0,5.89-2.38,5.89-6.59v0c0-4.23-2.91-6.59-5.89-6.59a5,5,0,0,0-4.32,2.39v-.8a1.46,1.46,0,0,0-1.47-1.47,1.43,1.43,0,0,0-1.44,1.47Z" fill="#fff"/>
    <path d="M301.4,135.36c-1.4,0-2.48-.69-2.48-1.92v-.05c0-1.32,1.11-2.11,3-2.11a8.06,8.06,0,0,1,2.89.5v.87C304.79,134.26,303.32,135.36,301.4,135.36Zm-.82,2.12a5.15,5.15,0,0,0,4.13-1.85v.48a1.32,1.32,0,0,0,1.42,1.23,1.38,1.38,0,0,0,1.42-1.4v-6.25a5.25,5.25,0,0,0-1.37-3.92,5.71,5.71,0,0,0-4.21-1.42,10.76,10.76,0,0,0-4.08.75,1.25,1.25,0,0,0-.8,1.15,1.22,1.22,0,0,0,1.23,1.2,1.61,1.61,0,0,0,.46-.07,7.55,7.55,0,0,1,2.81-.5c2,0,3.15,1,3.15,2.76V130a10.73,10.73,0,0,0-3.42-.53c-3.1,0-5.24,1.35-5.24,4.09v.05C296.08,136.11,298.2,137.48,300.58,137.48Z" fill="#fff"/>
    <path d="M311.15,135.89a1.46,1.46,0,0,0,2.91,0V121a1.45,1.45,0,0,0-1.47-1.44,1.43,1.43,0,0,0-1.44,1.44Z" fill="#fff"/>
    <path d="M324.36,136.18l4.23-9.71a1.84,1.84,0,0,0,.17-.7,1.4,1.4,0,0,0-1.42-1.4,1.46,1.46,0,0,0-1.37,1l-3.32,8.47-3.27-8.42a1.47,1.47,0,0,0-2.88.34,2.11,2.11,0,0,0,.17.72l4.23,9.69a1.8,1.8,0,0,0,1.66,1.28h.14A1.85,1.85,0,0,0,324.36,136.18Z" fill="#fff"/>
    <path d="M341.27,135.82a1.25,1.25,0,0,0,.39-.89,1.15,1.15,0,0,0-1.16-1.18,1.06,1.06,0,0,0-.74.27,4.58,4.58,0,0,1-3,1.1,3.54,3.54,0,0,1-3.65-3.22h8a1.36,1.36,0,0,0,1.37-1.39,6,6,0,0,0-6-6.26,6.31,6.31,0,0,0-6.2,6.62v0a6.34,6.34,0,0,0,6.51,6.59A6.48,6.48,0,0,0,341.27,135.82Zm-8.2-5.84c.27-2,1.52-3.34,3.3-3.34s3,1.46,3.22,3.34Z" fill="#fff"/>
    <path d="M345.45,135.89a1.46,1.46,0,0,0,2.91,0V121a1.45,1.45,0,0,0-1.47-1.44,1.43,1.43,0,0,0-1.44,1.44Z" fill="#fff"/>
    <path d="M363.37,125.84a1.47,1.47,0,0,0-1.47-1.47,1.46,1.46,0,0,0-1.46,1.47v5.85a2.8,2.8,0,0,1-2.86,3.12c-1.74,0-2.72-1.1-2.72-3.08v-5.89a1.46,1.46,0,1,0-2.91,0v6.76c0,3,1.66,4.88,4.52,4.88a4.57,4.57,0,0,0,4-2.24v.65a1.47,1.47,0,0,0,2.93,0Z" fill="#fff"/>
    <path d="M133.22,158.23a.71.71,0,1,0,1.42,0v-5h7.29v5a.71.71,0,1,0,1.42,0V146.87a.71.71,0,1,0-1.42,0v5h-7.29v-5a.71.71,0,1,0-1.42,0Z" fill="#fff"/>
    <path d="M148.5,152.68v-5.13h3.89c2,0,3.23.94,3.23,2.49v0c0,1.62-1.35,2.6-3.25,2.6Zm-1.43,5.55a.72.72,0,1,0,1.43,0V154h3.62l3.55,4.62a.85.85,0,0,0,.67.37.74.74,0,0,0,.72-.7.77.77,0,0,0-.23-.52l-3.14-4c2-.38,3.37-1.59,3.37-3.66v0a3.5,3.5,0,0,0-1-2.49,5,5,0,0,0-3.59-1.26h-4.72a.72.72,0,0,0-.71.72Z" fill="#fff"/>
    <path d="M163.09,158.23a.72.72,0,0,0,1.44,0V147.55h3.66a.66.66,0,0,0,.67-.64.68.68,0,0,0-.67-.67h-8.76a.68.68,0,0,0-.67.67.66.66,0,0,0,.67.64h3.66Z" fill="#fff"/>
    <path d="M176.86,158.23a.71.71,0,1,0,1.42,0v-2.74l2.72-2.72,4.71,5.86a.69.69,0,0,0,.58.32.74.74,0,0,0,.72-.72.77.77,0,0,0-.2-.52l-4.8-5.92,4.47-4.43a.7.7,0,0,0,.24-.51.71.71,0,0,0-.69-.7.81.81,0,0,0-.55.25l-7.2,7.38v-6.91a.71.71,0,1,0-1.42,0Z" fill="#fff"/>
    <path d="M197,150.15a.69.69,0,1,0-1.37,0v4.73a2.75,2.75,0,0,1-2.79,2.92c-1.64,0-2.58-1.08-2.58-2.81v-4.84a.71.71,0,0,0-.7-.7.68.68,0,0,0-.69.7v5.18a3.4,3.4,0,0,0,3.57,3.73,3.54,3.54,0,0,0,3.19-1.82v1a.69.69,0,1,0,1.37,0Z" fill="#fff"/>
    <path d="M200.06,158.25a.69.69,0,0,0,.71.7.67.67,0,0,0,.68-.7v-4.73a2.75,2.75,0,0,1,2.8-2.92c1.64,0,2.58,1.08,2.58,2.82v4.83a.69.69,0,1,0,1.38,0v-5.18a3.4,3.4,0,0,0-3.57-3.73,3.54,3.54,0,0,0-3.19,1.82v-1a.69.69,0,0,0-.7-.7.7.7,0,0,0-.69.7Z" fill="#fff"/>
    <path d="M215.29,150.58a3.47,3.47,0,0,1,3.37,3.59v0a3.48,3.48,0,0,1-3.37,3.61,3.37,3.37,0,0,1-3.28-3.61v0A3.29,3.29,0,0,1,215.29,150.58Zm4.71-4.27a.69.69,0,0,0-.71-.7.67.67,0,0,0-.68.7v5a4.22,4.22,0,0,0-3.57-2,4.57,4.57,0,0,0-4.46,4.85v0a4.55,4.55,0,0,0,4.46,4.83,4.19,4.19,0,0,0,3.57-2.07v1.26a.7.7,0,1,0,1.39,0Z" fill="#fff"/>
    <path d="M226.14,159c1.86,0,3.32-1,3.32-2.79v0c0-1.68-1.55-2.23-3-2.67-1.24-.38-2.39-.72-2.39-1.6v0c0-.77.7-1.35,1.8-1.35a5,5,0,0,1,2.43.72.68.68,0,0,0,.31.07.6.6,0,0,0,.61-.59.68.68,0,0,0-.34-.58,6.44,6.44,0,0,0-3-.79c-1.83,0-3.17,1.06-3.17,2.67v0c0,1.72,1.62,2.22,3.08,2.64,1.23.34,2.33.7,2.33,1.64v0c0,.9-.81,1.48-1.93,1.48a5.25,5.25,0,0,1-3-1,.55.55,0,0,0-.34-.11.6.6,0,0,0-.61.6.64.64,0,0,0,.25.5A6.45,6.45,0,0,0,226.14,159Z" fill="#fff"/>
    <path d="M239.46,157.67a.58.58,0,0,0,.22-.45.6.6,0,0,0-1-.43,3.82,3.82,0,0,1-2.69,1.08,3.25,3.25,0,0,1-3.28-3.15h6.74a.65.65,0,0,0,.65-.65c0-2.48-1.56-4.73-4.32-4.73a4.59,4.59,0,0,0-4.47,4.85v0a4.63,4.63,0,0,0,4.65,4.85A4.72,4.72,0,0,0,239.46,157.67Zm-6.76-4a3.22,3.22,0,0,1,3-3.18c1.86,0,2.83,1.48,3,3.18Z" fill="#fff"/>
    <path d="M242.5,158.25a.7.7,0,1,0,1.39,0v-3.17c0-2.69,1.48-4,3.28-4.26a.69.69,0,0,0,.61-.7.67.67,0,0,0-.68-.71,3.86,3.86,0,0,0-3.21,2.49v-1.75a.7.7,0,1,0-1.39,0Z" fill="#fff"/>
    <path d="M254.59,158.41l3.52-7.93a1.14,1.14,0,0,0,.07-.35.69.69,0,0,0-.69-.68.66.66,0,0,0-.65.5l-3.06,7.33-3-7.29a.71.71,0,0,0-.71-.54.7.7,0,0,0-.7.68,1.62,1.62,0,0,0,.09.38l3.5,7.9a.86.86,0,0,0,.79.6h.08A.85.85,0,0,0,254.59,158.41Z" fill="#fff"/>
    <path d="M260.36,158.25a.69.69,0,0,0,.7.7.68.68,0,0,0,.69-.7v-8.1a.7.7,0,1,0-1.39,0Zm-.13-11.4a.82.82,0,0,0,1.64,0v-.23a.82.82,0,0,0-1.64,0Z" fill="#fff"/>
    <path d="M269,159.08a4.69,4.69,0,0,0,3.52-1.5.62.62,0,0,0,.18-.43.65.65,0,0,0-.63-.63.56.56,0,0,0-.4.18,3.71,3.71,0,0,1-2.6,1.14,3.49,3.49,0,0,1-3.42-3.63v0a3.43,3.43,0,0,1,3.33-3.6,3.62,3.62,0,0,1,2.55,1.11.65.65,0,0,0,.45.17.66.66,0,0,0,.66-.67.64.64,0,0,0-.21-.49,4.86,4.86,0,0,0-3.43-1.35,4.81,4.81,0,0,0-4.78,4.87v0A4.79,4.79,0,0,0,269,159.08Z" fill="#fff"/>
    <path d="M282.47,157.67a.58.58,0,0,0-.4-1,.58.58,0,0,0-.39.16,3.84,3.84,0,0,1-2.69,1.08,3.25,3.25,0,0,1-3.28-3.15h6.74a.66.66,0,0,0,.65-.65c0-2.48-1.57-4.73-4.33-4.73a4.6,4.6,0,0,0-4.47,4.85v0a4.63,4.63,0,0,0,4.65,4.85A4.73,4.73,0,0,0,282.47,157.67Zm-6.76-4a3.22,3.22,0,0,1,3-3.18c1.85,0,2.83,1.48,3,3.18Z" fill="#fff"/>
    <path d="M133.22,179.88a.71.71,0,1,0,1.42,0v-5h7.29v5a.71.71,0,1,0,1.42,0V168.52a.71.71,0,1,0-1.42,0v5h-7.29v-5a.71.71,0,1,0-1.42,0Z" fill="#fff"/>
    <path d="M151.32,180.69c2.51,0,4.31-1.41,4.31-3.57v0c0-1.93-1.3-3-4.11-3.57s-3.43-1.26-3.43-2.45v0c0-1.13,1-2,2.69-2a5.24,5.24,0,0,1,3.26,1.1.69.69,0,0,0,.42.12.67.67,0,0,0,.68-.68.75.75,0,0,0-.3-.58,6.46,6.46,0,0,0-4-1.25c-2.4,0-4.15,1.47-4.15,3.45v0c0,2.07,1.33,3,4.24,3.64,2.65.56,3.28,1.23,3.28,2.4v0c0,1.25-1.12,2.15-2.82,2.15a5.74,5.74,0,0,1-4-1.5.62.62,0,0,0-.43-.16.69.69,0,0,0-.69.7.66.66,0,0,0,.27.55A7.42,7.42,0,0,0,151.32,180.69Z" fill="#fff"/>
    <path d="M158.61,179.79a.72.72,0,0,0,.71.72h7.26a.65.65,0,0,0,.65-.65.67.67,0,0,0-.65-.67H160V168.52a.72.72,0,1,0-1.43,0Z" fill="#fff"/>
    <path d="M181,180.73a6.44,6.44,0,0,0,4.69-1.86.67.67,0,0,0,.24-.51.71.71,0,0,0-.69-.68.65.65,0,0,0-.45.2,5.17,5.17,0,0,1-3.75,1.53,5,5,0,0,1-4.89-5.21v0A5,5,0,0,1,181,169a5.13,5.13,0,0,1,3.62,1.44.87.87,0,0,0,.47.16.73.73,0,0,0,.72-.7.79.79,0,0,0-.28-.58,6.56,6.56,0,0,0-4.51-1.64,6.36,6.36,0,0,0-6.38,6.53v0A6.29,6.29,0,0,0,181,180.73Z" fill="#fff"/>
    <path d="M196.13,171.8a.69.69,0,0,0-.68-.7.68.68,0,0,0-.69.7v4.72a2.76,2.76,0,0,1-2.79,2.93c-1.65,0-2.58-1.09-2.58-2.82V171.8a.7.7,0,0,0-.71-.7.67.67,0,0,0-.68.7V177a3.41,3.41,0,0,0,3.57,3.73,3.55,3.55,0,0,0,3.19-1.82v1a.69.69,0,0,0,.69.7.69.69,0,0,0,.68-.7Z" fill="#fff"/>
    <path d="M202.23,180.69c1.85,0,3.31-1,3.31-2.79v0c0-1.68-1.55-2.24-3-2.67-1.24-.38-2.4-.72-2.4-1.61v0c0-.78.71-1.35,1.81-1.35a5,5,0,0,1,2.43.72.79.79,0,0,0,.31.07.6.6,0,0,0,.61-.6.66.66,0,0,0-.34-.57,6.48,6.48,0,0,0-3-.8c-1.84,0-3.17,1.07-3.17,2.67v0c0,1.71,1.62,2.22,3.08,2.63,1.23.34,2.33.71,2.33,1.64v0c0,.9-.81,1.48-1.93,1.48a5.25,5.25,0,0,1-3-1,.5.5,0,0,0-.34-.11.6.6,0,0,0-.61.59.62.62,0,0,0,.25.51A6.45,6.45,0,0,0,202.23,180.69Z" fill="#fff"/>
    <path d="M211.23,180.67a3.56,3.56,0,0,0,1.37-.25.59.59,0,0,0,.4-.54.61.61,0,0,0-.6-.6,3.84,3.84,0,0,1-.85.13,1.38,1.38,0,0,1-1.57-1.55v-5.45h2.42a.62.62,0,0,0,.63-.61.63.63,0,0,0-.63-.61H210V169a.72.72,0,0,0-.7-.71.69.69,0,0,0-.68.71v2.2h-.76a.61.61,0,0,0-.61.61.63.63,0,0,0,.61.61h.76V178A2.37,2.37,0,0,0,211.23,180.67Z" fill="#fff"/>
    <path d="M219,179.48a3.49,3.49,0,0,1-3.44-3.62v0a3.45,3.45,0,0,1,3.41-3.61,3.54,3.54,0,0,1,3.46,3.65v0A3.44,3.44,0,0,1,219,179.48Zm0,1.25a4.84,4.84,0,0,0,4.88-4.87v0a4.86,4.86,0,0,0-9.72,0v0A4.78,4.78,0,0,0,219,180.73Z" fill="#fff"/>
    <path d="M226.3,179.9a.7.7,0,0,0,.71.7.68.68,0,0,0,.68-.7v-4.71a2.71,2.71,0,0,1,2.6-2.94c1.48,0,2.39,1,2.39,2.78v4.87a.7.7,0,1,0,1.39,0v-4.76a2.6,2.6,0,0,1,2.56-2.89c1.52,0,2.42,1,2.42,2.81v4.84a.7.7,0,1,0,1.39,0v-5.16c0-2.31-1.32-3.75-3.46-3.75a3.72,3.72,0,0,0-3.29,1.86,3.15,3.15,0,0,0-3-1.86,3.39,3.39,0,0,0-3,1.76v-.95a.69.69,0,0,0-.7-.7.7.7,0,0,0-.69.7Z" fill="#fff"/>
    <path d="M250.89,179.32a.59.59,0,0,0,.22-.45.6.6,0,0,0-.61-.6.61.61,0,0,0-.4.17,3.82,3.82,0,0,1-2.69,1.08,3.26,3.26,0,0,1-3.28-3.16h6.74a.64.64,0,0,0,.65-.65c0-2.47-1.57-4.72-4.32-4.72a4.6,4.6,0,0,0-4.48,4.85v0a4.64,4.64,0,0,0,4.66,4.85A4.72,4.72,0,0,0,250.89,179.32Zm-6.76-4a3.21,3.21,0,0,1,3-3.17c1.86,0,2.83,1.48,3,3.17Z" fill="#fff"/>
    <path d="M254.05,179.9a.7.7,0,0,0,.71.7.69.69,0,0,0,.68-.7v-3.18c0-2.68,1.48-4,3.28-4.25a.7.7,0,0,0,.61-.71.67.67,0,0,0-.68-.7,3.87,3.87,0,0,0-3.21,2.49V171.8a.69.69,0,0,0-.7-.7.7.7,0,0,0-.69.7Z" fill="#fff"/>
    <path d="M271.33,180.69c2.5,0,4.31-1.41,4.31-3.57v0c0-1.93-1.3-3-4.12-3.57s-3.42-1.26-3.42-2.45v0c0-1.13,1-2,2.69-2a5.24,5.24,0,0,1,3.26,1.1.66.66,0,0,0,.41.12.68.68,0,0,0,.69-.68.73.73,0,0,0-.31-.58,6.42,6.42,0,0,0-4-1.25c-2.4,0-4.15,1.47-4.15,3.45v0c0,2.07,1.34,3,4.24,3.64,2.65.56,3.28,1.23,3.28,2.4v0c0,1.25-1.11,2.15-2.81,2.15a5.74,5.74,0,0,1-4-1.5.65.65,0,0,0-.44-.16.69.69,0,0,0-.68.7.66.66,0,0,0,.27.55A7.4,7.4,0,0,0,271.33,180.69Z" fill="#fff"/>
    <path d="M285.88,179.32a.61.61,0,0,0,.21-.45.6.6,0,0,0-.61-.6.63.63,0,0,0-.4.17,3.8,3.8,0,0,1-2.68,1.08,3.27,3.27,0,0,1-3.29-3.16h6.75a.65.65,0,0,0,.65-.65c0-2.47-1.57-4.72-4.33-4.72a4.59,4.59,0,0,0-4.47,4.85v0a4.63,4.63,0,0,0,4.65,4.85A4.75,4.75,0,0,0,285.88,179.32Zm-6.77-4a3.22,3.22,0,0,1,3-3.17c1.86,0,2.83,1.48,3,3.17Z" fill="#fff"/>
    <path d="M288.92,179.9a.7.7,0,0,0,.71.7.69.69,0,0,0,.68-.7v-3.18c0-2.68,1.48-4,3.28-4.25a.7.7,0,0,0,.62-.71.67.67,0,0,0-.69-.7,3.87,3.87,0,0,0-3.21,2.49V171.8a.68.68,0,0,0-.7-.7.7.7,0,0,0-.69.7Z" fill="#fff"/>
    <path d="M301,180.06l3.52-7.94a.86.86,0,0,0,.07-.34.67.67,0,0,0-.68-.68.66.66,0,0,0-.65.5l-3.07,7.32-3-7.28a.7.7,0,0,0-.7-.54.69.69,0,0,0-.7.68,1.31,1.31,0,0,0,.09.38l3.49,7.9a.87.87,0,0,0,.8.59h.07A.83.83,0,0,0,301,180.06Z" fill="#fff"/>
    <path d="M306.78,179.9a.7.7,0,0,0,.71.7.68.68,0,0,0,.68-.7v-8.1a.69.69,0,0,0-.7-.7.7.7,0,0,0-.69.7Zm-.12-11.4a.82.82,0,0,0,1.64,0v-.24a.82.82,0,0,0-1.64,0Z" fill="#fff"/>
    <path d="M315.4,180.73a4.7,4.7,0,0,0,3.51-1.5.62.62,0,0,0,.18-.43.65.65,0,0,0-.63-.63.56.56,0,0,0-.4.18,3.7,3.7,0,0,1-2.59,1.13,3.48,3.48,0,0,1-3.43-3.62v0a3.44,3.44,0,0,1,3.34-3.61,3.6,3.6,0,0,1,2.54,1.12.72.72,0,0,0,.45.16.66.66,0,0,0,.67-.66.65.65,0,0,0-.22-.49,4.84,4.84,0,0,0-8.2,3.52v0A4.79,4.79,0,0,0,315.4,180.73Z" fill="#fff"/>
    <path d="M328.89,179.32a.59.59,0,0,0,.22-.45.6.6,0,0,0-.61-.6.61.61,0,0,0-.4.17,3.8,3.8,0,0,1-2.69,1.08,3.26,3.26,0,0,1-3.28-3.16h6.75a.64.64,0,0,0,.64-.65c0-2.47-1.56-4.72-4.32-4.72a4.59,4.59,0,0,0-4.47,4.85v0a4.63,4.63,0,0,0,4.65,4.85A4.72,4.72,0,0,0,328.89,179.32Zm-6.76-4a3.21,3.21,0,0,1,3-3.17c1.86,0,2.83,1.48,3,3.17Z" fill="#fff"/>
    <path d="M140.16,213.26c-2.62,0-4.3-2.72-4.3-6v-.05c0-3.34,1.66-6,4.25-6s4.31,2.72,4.31,6v.05C144.42,210.56,142.78,213.26,140.16,213.26Zm0,2.67c4.43,0,7.36-3.9,7.36-8.71v-.05c0-4.81-2.91-8.66-7.31-8.66s-7.36,3.9-7.36,8.71v.05C132.8,212.08,135.69,215.93,140.11,215.93Z" fill="#fff"/>
    <path d="M156.56,207.24c-2.09,0-3.44-1.25-3.44-3v-.05a3.09,3.09,0,0,1,3.34-3.13c2.14,0,3.51,1.35,3.51,3.11v0A3.1,3.1,0,0,1,156.56,207.24Zm-.63,8.69c4.55,0,7.21-3.76,7.21-9.17v0c0-3.31-.79-5.17-2-6.42a6.18,6.18,0,0,0-4.69-1.78c-3.73,0-6.28,2.53-6.28,5.82v0c0,3.25,2.38,5.34,6,5.34a5,5,0,0,0,3.95-1.78c-.1,3.1-1.59,5.29-4.07,5.29a5,5,0,0,1-3.07-1,1.52,1.52,0,0,0-.82-.24,1.35,1.35,0,0,0-1.39,1.34,1.39,1.39,0,0,0,.67,1.23A7.73,7.73,0,0,0,155.93,215.93Z" fill="#fff"/>
    <path d="M176.1,209.43l5.53-6.66v6.66Zm5.53,4.93a1.42,1.42,0,0,0,2.84,0v-2.5h1.3a1.2,1.2,0,0,0,1.22-1.2,1.22,1.22,0,0,0-1.22-1.23h-1.3V200a1.43,1.43,0,0,0-1.45-1.42,2.11,2.11,0,0,0-1.8,1l-7.91,9.38a2.34,2.34,0,0,0-.65,1.57,1.39,1.39,0,0,0,1.45,1.39h7.52Z" fill="#fff"/>
    <path d="M190.1,214.43a1.38,1.38,0,0,0,1.51,1.33,1.58,1.58,0,0,0,1.42-1l7-13.23a3.23,3.23,0,0,0,.41-1.41,1.24,1.24,0,0,0-1.35-1.33h-9.44a1.3,1.3,0,0,0,0,2.6h7.28l-6.54,12.12A2.38,2.38,0,0,0,190.1,214.43Z" fill="#fff"/>
    <path d="M208.7,213.35c-2.09,0-3.49-1.3-3.49-3v0c0-1.61,1.32-3,3.42-3s3.43,1.25,3.43,2.93v0A3,3,0,0,1,208.7,213.35Zm.07,2.58c3.53,0,6.25-2.39,6.25-5.73v0c0-3.36-2.62-5.29-5.87-5.29a5.35,5.35,0,0,0-4,1.69c.14-3.08,1.53-5.34,4-5.34a4.87,4.87,0,0,1,2.89.94,1.58,1.58,0,0,0,.74.21A1.4,1.4,0,0,0,214.2,201a1.42,1.42,0,0,0-.74-1.27,7.31,7.31,0,0,0-4.21-1.21c-4.76,0-7.21,4-7.21,9.17v0c0,3.4.77,5.15,2,6.43A6.27,6.27,0,0,0,208.77,215.93Z" fill="#fff"/>
    <path d="M224.45,213.35c-2.1,0-3.49-1.3-3.49-3v0a3.1,3.1,0,0,1,3.41-3c2.1,0,3.44,1.25,3.44,2.93v0A3,3,0,0,1,224.45,213.35Zm.07,2.58c3.53,0,6.25-2.39,6.25-5.73v0c0-3.36-2.62-5.29-5.87-5.29a5.38,5.38,0,0,0-4,1.69c.15-3.08,1.54-5.34,4-5.34a4.89,4.89,0,0,1,2.89.94,1.55,1.55,0,0,0,.74.21A1.4,1.4,0,0,0,230,201a1.42,1.42,0,0,0-.74-1.27,7.31,7.31,0,0,0-4.21-1.21c-4.76,0-7.21,4-7.21,9.17v0c0,3.4.77,5.15,2,6.43A6.27,6.27,0,0,0,224.52,215.93Z" fill="#fff"/>
    <path d="M243.78,209.43l5.53-6.66v6.66Zm5.53,4.93a1.42,1.42,0,0,0,2.84,0v-2.5h1.3a1.2,1.2,0,0,0,1.22-1.2,1.22,1.22,0,0,0-1.22-1.23h-1.3V200a1.43,1.43,0,0,0-1.44-1.42,2.11,2.11,0,0,0-1.81,1L241,208.9a2.33,2.33,0,0,0-.64,1.57,1.39,1.39,0,0,0,1.44,1.39h7.52Z" fill="#fff"/>
    <path d="M264.4,213.26c-2.62,0-4.3-2.72-4.3-6v-.05c0-3.34,1.66-6,4.26-6s4.3,2.72,4.3,6v.05C268.66,210.56,267,213.26,264.4,213.26Zm0,2.67c4.42,0,7.35-3.9,7.35-8.71v-.05c0-4.81-2.91-8.66-7.31-8.66s-7.35,3.9-7.35,8.71v.05C257.05,212.08,259.93,215.93,264.36,215.93Z" fill="#fff"/>
    <path d="M281.4,213.26c-2.62,0-4.3-2.72-4.3-6v-.05c0-3.34,1.66-6,4.26-6s4.3,2.72,4.3,6v.05C285.66,210.56,284,213.26,281.4,213.26Zm0,2.67c4.42,0,7.35-3.9,7.35-8.71v-.05c0-4.81-2.91-8.66-7.31-8.66s-7.35,3.9-7.35,8.71v.05C274.05,212.08,276.93,215.93,281.36,215.93Z" fill="#fff"/>
    <path d="M299.35,213.26c-2.62,0-4.31-2.72-4.31-6v-.05c0-3.34,1.66-6,4.26-6s4.3,2.72,4.3,6v.05C303.6,210.56,302,213.26,299.35,213.26Zm-.05,2.67c4.42,0,7.35-3.9,7.35-8.71v-.05c0-4.81-2.9-8.66-7.3-8.66s-7.36,3.9-7.36,8.71v.05C292,212.08,294.88,215.93,299.3,215.93Z" fill="#fff"/>
    <path d="M133.06,245.31a1.06,1.06,0,0,0,1.08,1.08,1.08,1.08,0,0,0,1.1-1.08v-7.56l3.06,4.6a1.1,1.1,0,0,0,.92.58,1.08,1.08,0,0,0,.94-.58l3.08-4.63v7.57a1.12,1.12,0,0,0,1.1,1.1,1.1,1.1,0,0,0,1.12-1.1V234.72a1.11,1.11,0,0,0-1.12-1.11h-.23a1.1,1.1,0,0,0-1,.57l-3.84,6-3.82-6a1.17,1.17,0,0,0-1-.59h-.24a1.1,1.1,0,0,0-1.11,1.11Z" fill="#fff"/>
    <path d="M152,244.91c-1,0-1.86-.52-1.86-1.44v0c0-1,.83-1.59,2.23-1.59a6,6,0,0,1,2.17.38v.65C154.49,244.08,153.39,244.91,152,244.91Zm-.62,1.59a3.86,3.86,0,0,0,3.1-1.39v.36a1,1,0,0,0,1.07.92,1,1,0,0,0,1.06-1v-4.69a3.91,3.91,0,0,0-1-2.94,4.23,4.23,0,0,0-3.15-1.07,8.21,8.21,0,0,0-3.07.56,1,1,0,0,0-.59.87.91.91,0,0,0,.92.9,1.47,1.47,0,0,0,.34,0,5.56,5.56,0,0,1,2.11-.38c1.53,0,2.36.72,2.36,2.07v.24a7.77,7.77,0,0,0-2.56-.4c-2.32,0-3.93,1-3.93,3.07v0C148,245.47,149.55,246.5,151.33,246.5Z" fill="#fff"/>
    <path d="M159.92,241.85h3.39a1.08,1.08,0,0,0,0-2.15h-3.39a1.08,1.08,0,0,0,0,2.15Z" fill="#fff"/>
    <path d="M171.65,244.61a2.88,2.88,0,0,1-2.78-3.05v0a2.87,2.87,0,0,1,2.78-3,2.81,2.81,0,0,1,2.72,3v0A2.78,2.78,0,0,1,171.65,244.61Zm-4.91,3.59a1.1,1.1,0,0,0,2.19,0v-3.38a3.86,3.86,0,0,0,3.24,1.68c2.26,0,4.42-1.78,4.42-4.94v0c0-3.17-2.18-4.94-4.42-4.94a3.81,3.81,0,0,0-3.24,1.79v-.6a1.1,1.1,0,0,0-1.1-1.1,1.08,1.08,0,0,0-1.09,1.1Z" fill="#fff"/>
    <path d="M186.67,245.26a1,1,0,0,0,.28-.67.88.88,0,0,0-1.42-.69,3.38,3.38,0,0,1-2.25.83,2.65,2.65,0,0,1-2.74-2.41h6a1,1,0,0,0,1-1,4.51,4.51,0,0,0-4.52-4.69,4.73,4.73,0,0,0-4.66,5v0a4.75,4.75,0,0,0,4.89,4.94A4.93,4.93,0,0,0,186.67,245.26Zm-6.15-4.39a2.57,2.57,0,0,1,2.47-2.5,2.46,2.46,0,0,1,2.41,2.5Z" fill="#fff"/>
    <path d="M196.28,245.4a1,1,0,0,0,1.13,1,1.18,1.18,0,0,0,1.07-.74l5.22-9.92a2.46,2.46,0,0,0,.31-1.06.92.92,0,0,0-1-1h-7.08a1,1,0,1,0,0,1.95h5.46l-4.91,9.09A1.79,1.79,0,0,0,196.28,245.4Z" fill="#fff"/>
    <path d="M205.79,241.85h3.39a1.08,1.08,0,0,0,0-2.15h-3.39a1.08,1.08,0,0,0,0,2.15Z" fill="#fff"/>
    <path d="M213.64,245.29a1.1,1.1,0,1,0,2.19,0V234.62a1.07,1.07,0,0,0-1.1-1.1h0a4,4,0,0,0-1.08.19l-1.91.62a1,1,0,0,0-.74.95,1,1,0,0,0,1,.94,2,2,0,0,0,.4-.05l1.3-.4Z" fill="#fff"/>
    <path d="M223.47,240a2.31,2.31,0,0,1-2.58-2.26v0a2.32,2.32,0,0,1,2.51-2.35A2.39,2.39,0,0,1,226,237.7v0A2.34,2.34,0,0,1,223.47,240Zm-.47,6.51c3.41,0,5.41-2.81,5.41-6.87v0c0-2.49-.6-3.88-1.52-4.81a4.57,4.57,0,0,0-3.51-1.34,4.4,4.4,0,0,0-4.71,4.37v0c0,2.44,1.79,4,4.47,4a3.71,3.71,0,0,0,3-1.34c-.07,2.33-1.19,4-3,4a3.72,3.72,0,0,1-2.3-.78,1.25,1.25,0,0,0-.62-.18,1,1,0,0,0-1,1,1,1,0,0,0,.5.92A5.76,5.76,0,0,0,223,246.52Z" fill="#fff"/>
    <path d="M229.72,248.41a.5.5,0,0,0,.56.51,2.72,2.72,0,0,0,1.69-.78,3.56,3.56,0,0,0,.89-2.63v-.2c0-1-.49-1.59-1.3-1.59a1.18,1.18,0,0,0-1.23,1.21v.15a1.31,1.31,0,0,0,1,1.22,1.56,1.56,0,0,1-1.23,1.63A.49.49,0,0,0,229.72,248.41Z" fill="#fff"/>
    <path d="M240.94,245.31a1.1,1.1,0,0,0,2.19,0V234.13a1.09,1.09,0,0,0-1.1-1.08,1.07,1.07,0,0,0-1.09,1.08Z" fill="#fff"/>
    <path d="M249.32,244.91c-1,0-1.86-.52-1.86-1.44v0c0-1,.83-1.59,2.24-1.59a5.93,5.93,0,0,1,2.16.38v.65C251.86,244.08,250.76,244.91,249.32,244.91Zm-.61,1.59a3.86,3.86,0,0,0,3.1-1.39v.36a1,1,0,0,0,1.06.92,1,1,0,0,0,1.07-1v-4.69a4,4,0,0,0-1-2.94,4.26,4.26,0,0,0-3.16-1.07,8.19,8.19,0,0,0-3.06.56,1,1,0,0,0-.6.87.91.91,0,0,0,.92.9,1.55,1.55,0,0,0,.35,0,5.52,5.52,0,0,1,2.11-.38c1.53,0,2.36.72,2.36,2.07v.24a7.81,7.81,0,0,0-2.56-.4c-2.33,0-3.93,1-3.93,3.07v0C245.34,245.47,246.92,246.5,248.71,246.5Z" fill="#fff"/>
    <path d="M257.31,241.85h3.39a1.08,1.08,0,0,0,0-2.15h-3.39a1.08,1.08,0,0,0,0,2.15Z" fill="#fff"/>
    <path d="M267.24,246.48c2,0,3.54-1,3.54-3v0c0-1.71-1.57-2.34-3-2.77-1.12-.36-2.15-.65-2.15-1.36v0c0-.54.49-.94,1.34-.94a5.1,5.1,0,0,1,2.23.65.93.93,0,0,0,.44.11.88.88,0,0,0,.9-.89.94.94,0,0,0-.52-.83,6.65,6.65,0,0,0-3-.77c-1.89,0-3.39,1.1-3.39,2.9v0c0,1.82,1.57,2.4,3,2.79,1.12.35,2.13.6,2.13,1.34v0c0,.64-.55,1-1.48,1a5,5,0,0,1-2.74-.92,1,1,0,0,0-.47-.12.87.87,0,0,0-.89.88.84.84,0,0,0,.42.76A6.48,6.48,0,0,0,267.24,246.48Z" fill="#fff"/>
    <path d="M281.5,237.77a1.1,1.1,0,0,0-2.2,0v4.39a2.1,2.1,0,0,1-2.14,2.34c-1.3,0-2-.83-2-2.31v-4.42a1.09,1.09,0,1,0-2.18,0v5.07c0,2.22,1.24,3.66,3.39,3.66a3.4,3.4,0,0,0,3-1.68v.49a1.09,1.09,0,0,0,1.1,1.08,1.08,1.08,0,0,0,1.1-1.08Z" fill="#fff"/>
    <path d="M294.12,240a2.31,2.31,0,0,1-2.58-2.26v0a2.32,2.32,0,0,1,2.5-2.35,2.39,2.39,0,0,1,2.64,2.33v0A2.34,2.34,0,0,1,294.12,240Zm-.47,6.51c3.4,0,5.41-2.81,5.41-6.87v0c0-2.49-.6-3.88-1.52-4.81a4.57,4.57,0,0,0-3.51-1.34,4.4,4.4,0,0,0-4.71,4.37v0c0,2.44,1.78,4,4.47,4a3.72,3.72,0,0,0,3-1.34c-.07,2.33-1.19,4-3.05,4a3.77,3.77,0,0,1-2.31-.78,1.25,1.25,0,0,0-.61-.18,1,1,0,0,0-1,1,1,1,0,0,0,.51.92A5.74,5.74,0,0,0,293.65,246.52Z" fill="#fff"/>
    <path d="M302.52,241.85h3.39a1.08,1.08,0,0,0,0-2.15h-3.39a1.08,1.08,0,0,0,0,2.15Z" fill="#fff"/>
    <path d="M310.37,245.29a1.1,1.1,0,1,0,2.2,0V234.62a1.08,1.08,0,0,0-1.1-1.1h0a4,4,0,0,0-1.08.19l-1.91.62a1,1,0,0,0-.74.95,1,1,0,0,0,1,.94,2,2,0,0,0,.4-.05l1.3-.4Z" fill="#fff"/>
    <path d="M316.33,245.4a1,1,0,0,0,1.14,1,1.16,1.16,0,0,0,1.06-.74l5.23-9.92a2.46,2.46,0,0,0,.31-1.06.92.92,0,0,0-1-1H316a1,1,0,0,0,0,1.95h5.46l-4.9,9.09A1.65,1.65,0,0,0,316.33,245.4Z" fill="#fff"/>
    <path d="M133.22,267.34a.69.69,0,0,0,.68.7.7.7,0,0,0,.71-.7v-9.42l4,5.92a.69.69,0,0,0,1.21,0l4-5.94v9.42a.74.74,0,0,0,.73.72.72.72,0,0,0,.7-.72V256a.72.72,0,0,0-.7-.7h-.17a.76.76,0,0,0-.66.38l-4.51,6.78-4.51-6.78a.77.77,0,0,0-.67-.38h-.16a.72.72,0,0,0-.7.7Z" fill="#fff"/>
    <path d="M152.34,256.57a1.14,1.14,0,0,1-1.12-1.1v0a1.12,1.12,0,0,1,2.24,0v0A1.13,1.13,0,0,1,152.34,256.57Zm0,.68a1.87,1.87,0,0,0,1.88-1.78v0a1.88,1.88,0,0,0-3.75,0v0A1.86,1.86,0,0,0,152.34,257.25Zm-.61,9.8c-1.26,0-2.34-.69-2.34-1.86v0c0-1.17,1-1.93,2.72-1.93a9.71,9.71,0,0,1,2.74.4v.9C154.85,266,153.44,267.05,151.73,267.05Zm-.27,1.1a4.08,4.08,0,0,0,3.37-1.61v.85a.64.64,0,0,0,.67.65.65.65,0,0,0,.66-.68v-5.11a3.67,3.67,0,0,0-.95-2.72,4.09,4.09,0,0,0-3-1,7.31,7.31,0,0,0-3,.63.64.64,0,0,0-.38.58.62.62,0,0,0,.62.59.85.85,0,0,0,.25-.05,5.75,5.75,0,0,1,2.41-.52c1.75,0,2.78.86,2.78,2.54v.32a10.1,10.1,0,0,0-2.87-.39c-2.36,0-4,1-4,3v0C148,267.16,149.73,268.15,151.46,268.15Z" fill="#fff"/>
    <path d="M159.09,267.34a.7.7,0,0,0,.7.7.68.68,0,0,0,.69-.7v-4.73a2.74,2.74,0,0,1,2.79-2.92c1.64,0,2.58,1.08,2.58,2.81v4.84a.7.7,0,1,0,1.39,0v-5.18a3.4,3.4,0,0,0-3.57-3.73,3.53,3.53,0,0,0-3.19,1.82v-1a.69.69,0,0,0-.7-.7.7.7,0,0,0-.69.7Z" fill="#fff"/>
    <path d="M170.37,263.26h3.75a.73.73,0,0,0,0-1.46h-3.75a.73.73,0,0,0,0,1.46Z" fill="#fff"/>
    <path d="M177.52,267.34a.7.7,0,0,0,.7.7.68.68,0,0,0,.68-.7v-7.49h2.4a.61.61,0,0,0,.62-.59.6.6,0,0,0-.62-.6h-2.41v-.76c0-1.33.54-2,1.62-2a4.52,4.52,0,0,1,.76.09.59.59,0,0,0,.66-.59.61.61,0,0,0-.5-.6,4.85,4.85,0,0,0-1.1-.11,2.73,2.73,0,0,0-2,.72,3.28,3.28,0,0,0-.81,2.4v.81h-.76a.61.61,0,0,0,0,1.21h.76Z" fill="#fff"/>
    <path d="M183.68,267.34a.69.69,0,0,0,.7.7.68.68,0,0,0,.68-.7v-3.18c0-2.68,1.48-4,3.28-4.25a.7.7,0,0,0,.62-.71.67.67,0,0,0-.69-.7,3.87,3.87,0,0,0-3.21,2.49v-1.75a.68.68,0,0,0-.7-.7.69.69,0,0,0-.68.7Z" fill="#fff"/>
    <path d="M198.11,266.76a.61.61,0,0,0,.21-.45.6.6,0,0,0-.61-.6.63.63,0,0,0-.4.17,3.8,3.8,0,0,1-2.68,1.08,3.26,3.26,0,0,1-3.28-3.16h6.74a.65.65,0,0,0,.65-.65c0-2.47-1.57-4.72-4.33-4.72a4.59,4.59,0,0,0-4.47,4.85v0a4.63,4.63,0,0,0,4.65,4.85A4.75,4.75,0,0,0,198.11,266.76Zm-6.76-4a3.21,3.21,0,0,1,3-3.17c1.85,0,2.83,1.48,3,3.17Z" fill="#fff"/>
    <path d="M207.89,267.37a.69.69,0,0,0,.72.67.77.77,0,0,0,.68-.5l5.45-11a1.45,1.45,0,0,0,.2-.63.63.63,0,0,0-.69-.64h-7.39a.67.67,0,0,0-.67.65.65.65,0,0,0,.67.65h6.36L208,266.94A1.55,1.55,0,0,0,207.89,267.37Z" fill="#fff"/>
    <path d="M216.47,263.26h3.75a.73.73,0,0,0,0-1.46h-3.75a.73.73,0,1,0,0,1.46Z" fill="#fff"/>
    <path d="M224.43,267.32a.72.72,0,0,0,.71.72.71.71,0,0,0,.7-.72V255.88a.7.7,0,0,0-.7-.7h0a2.78,2.78,0,0,0-.78.16l-2.07.72a.64.64,0,0,0-.5.62.61.61,0,0,0,.61.61,1.24,1.24,0,0,0,.31-.05l1.76-.58Z" fill="#fff"/>
    <path d="M233.45,262.12a2.82,2.82,0,0,1-3.1-2.75v0a2.9,2.9,0,0,1,3-3,3,3,0,0,1,3.21,2.87v0A3,3,0,0,1,233.45,262.12Zm-.37,6.05c3.11,0,5.24-2.83,5.24-6.84v0c0-2.52-.61-3.93-1.57-4.88a4.45,4.45,0,0,0-3.31-1.3,4.3,4.3,0,0,0-4.55,4.29v0c0,2.27,1.81,3.91,4.4,3.91a4,4,0,0,0,3.57-2c.06,3.23-1.48,5.54-3.75,5.54a4.2,4.2,0,0,1-2.74-1.08.83.83,0,0,0-.45-.15.68.68,0,0,0-.68.69.67.67,0,0,0,.32.57A5.62,5.62,0,0,0,233.08,268.17Z" fill="#fff"/>
    <path d="M240,269.75a.34.34,0,0,0,.38.36,2.23,2.23,0,0,0,1.22-.64,2.92,2.92,0,0,0,.65-2.17V267a.89.89,0,0,0-.88-1,.8.8,0,0,0-.83.83v.28a.86.86,0,0,0,.7.87,1.41,1.41,0,0,1-1,1.48A.34.34,0,0,0,240,269.75Z" fill="#fff"/>
    <path d="M250.67,267.34a.7.7,0,0,0,.7.7.68.68,0,0,0,.69-.7V255.4a.7.7,0,1,0-1.39,0Z" fill="#fff"/>
    <path d="M259.42,266.92A3.5,3.5,0,0,1,256,263.3v0a3.44,3.44,0,0,1,3.41-3.61,3.53,3.53,0,0,1,3.46,3.65v0A3.44,3.44,0,0,1,259.42,266.92Zm0,1.25a4.85,4.85,0,0,0,4.89-4.87v0a4.86,4.86,0,0,0-9.72,0v0A4.77,4.77,0,0,0,259.38,268.17Zm-1.59-12.75a.82.82,0,0,0-.85.81v.27a.85.85,0,0,0,1.7,0v-.27A.82.82,0,0,0,257.79,255.42Zm3.21,0a.82.82,0,0,0-.85.81v.27a.85.85,0,0,0,1.7,0v-.27A.82.82,0,0,0,261,255.42Z" fill="#fff"/>
    <path d="M266.72,267.34a.7.7,0,0,0,.71.7.69.69,0,0,0,.68-.7v-3.18c0-2.68,1.48-4,3.28-4.25a.7.7,0,0,0,.62-.71.67.67,0,0,0-.69-.7,3.87,3.87,0,0,0-3.21,2.49v-1.75a.68.68,0,0,0-.7-.7.7.7,0,0,0-.69.7Z" fill="#fff"/>
    <path d="M272.83,263.26h3.75a.73.73,0,0,0,0-1.46h-3.75a.73.73,0,0,0,0,1.46Z" fill="#fff"/>
    <path d="M282.8,268.13c1.86,0,3.32-1,3.32-2.79v0c0-1.68-1.55-2.24-3-2.67-1.25-.38-2.4-.72-2.4-1.61v0c0-.78.7-1.35,1.8-1.35a5,5,0,0,1,2.43.72.89.89,0,0,0,.31.07.6.6,0,0,0,.61-.6.66.66,0,0,0-.34-.57,6.44,6.44,0,0,0-3-.8c-1.84,0-3.18,1.07-3.18,2.67v0c0,1.71,1.63,2.22,3.09,2.63,1.22.34,2.32.71,2.32,1.64v0c0,.9-.81,1.48-1.93,1.48a5.19,5.19,0,0,1-2.95-1,.52.52,0,0,0-.35-.11.6.6,0,0,0-.61.59.64.64,0,0,0,.25.51A6.48,6.48,0,0,0,282.8,268.13Z" fill="#fff"/>
    <path d="M292.81,266.92a3.5,3.5,0,0,1-3.45-3.62v0a3.44,3.44,0,0,1,3.41-3.61,3.53,3.53,0,0,1,3.46,3.65v0A3.44,3.44,0,0,1,292.81,266.92Zm0,1.25a4.85,4.85,0,0,0,4.89-4.87v0a4.86,4.86,0,0,0-9.72,0v0A4.77,4.77,0,0,0,292.77,268.17Zm-1.59-12.75a.82.82,0,0,0-.85.81v.27a.85.85,0,0,0,1.7,0v-.27A.82.82,0,0,0,291.18,255.42Zm3.21,0a.82.82,0,0,0-.85.81v.27a.85.85,0,0,0,1.7,0v-.27A.82.82,0,0,0,294.39,255.42Z" fill="#fff"/>
    <path d="M300.11,267.34a.7.7,0,0,0,.71.7.68.68,0,0,0,.68-.7v-4.73a2.74,2.74,0,0,1,2.8-2.92c1.64,0,2.58,1.08,2.58,2.81v4.84a.69.69,0,1,0,1.38,0v-5.18a3.4,3.4,0,0,0-3.57-3.73,3.54,3.54,0,0,0-3.19,1.82v-1a.68.68,0,0,0-.7-.7.7.7,0,0,0-.69.7Z" fill="#fff"/>
    <path d="M320.77,262.12a2.82,2.82,0,0,1-3.1-2.75v0a2.9,2.9,0,0,1,3-3,3,3,0,0,1,3.21,2.87v0A3,3,0,0,1,320.77,262.12Zm-.38,6.05c3.12,0,5.25-2.83,5.25-6.84v0c0-2.52-.61-3.93-1.57-4.88a4.46,4.46,0,0,0-3.32-1.3,4.3,4.3,0,0,0-4.54,4.29v0c0,2.27,1.8,3.91,4.4,3.91a4.05,4.05,0,0,0,3.57-2c.05,3.23-1.48,5.54-3.75,5.54a4.2,4.2,0,0,1-2.74-1.08.86.86,0,0,0-.45-.15.69.69,0,0,0-.69.69.68.68,0,0,0,.33.57A5.59,5.59,0,0,0,320.39,268.17Z" fill="#fff"/>
    <path d="M328.87,263.26h3.75a.73.73,0,0,0,0-1.46h-3.75a.73.73,0,0,0,0,1.46Z" fill="#fff"/>
    <path d="M336.83,267.32a.72.72,0,0,0,.71.72.71.71,0,0,0,.7-.72V255.88a.7.7,0,0,0-.7-.7h0a2.72,2.72,0,0,0-.77.16l-2.08.72a.66.66,0,0,0-.5.62.62.62,0,0,0,.61.61,1.24,1.24,0,0,0,.31-.05l1.76-.58Z" fill="#fff"/>
    <path d="M342.56,267.37a.69.69,0,0,0,.72.67.78.78,0,0,0,.69-.5l5.44-11a1.45,1.45,0,0,0,.2-.63.63.63,0,0,0-.69-.64h-7.39a.67.67,0,0,0-.67.65.65.65,0,0,0,.67.65h6.37l-5.23,10.32A1.3,1.3,0,0,0,342.56,267.37Z" fill="#fff"/>
    <path d="M133.22,289a.69.69,0,0,0,.68.71.7.7,0,0,0,.71-.71v-9.41l4,5.92a.69.69,0,0,0,1.21,0l4-5.94V289a.74.74,0,0,0,.73.72.73.73,0,0,0,.7-.72V277.62a.72.72,0,0,0-.7-.7h-.17a.74.74,0,0,0-.66.38l-4.51,6.78-4.51-6.78a.77.77,0,0,0-.67-.38h-.16a.71.71,0,0,0-.7.7Z" fill="#fff"/>
    <path d="M153,288.57a3.5,3.5,0,0,1-3.44-3.63v0a3.44,3.44,0,0,1,3.41-3.61,3.53,3.53,0,0,1,3.46,3.64v0A3.44,3.44,0,0,1,153,288.57Zm0,1.24a4.83,4.83,0,0,0,4.88-4.87v0a4.86,4.86,0,0,0-9.71,0v0A4.77,4.77,0,0,0,152.94,289.81Z" fill="#fff"/>
    <path d="M160.28,289a.7.7,0,0,0,.71.71.68.68,0,0,0,.68-.71v-4.72a2.74,2.74,0,0,1,2.8-2.92c1.64,0,2.57,1.08,2.57,2.81V289a.7.7,0,0,0,.71.71.69.69,0,0,0,.68-.71v-5.17a3.41,3.41,0,0,0-3.57-3.74,3.54,3.54,0,0,0-3.19,1.83v-1a.7.7,0,0,0-.7-.71.71.71,0,0,0-.69.71Z" fill="#fff"/>
    <path d="M171.56,284.91h3.75a.73.73,0,0,0,0-1.46h-3.75a.73.73,0,1,0,0,1.46Z" fill="#fff"/>
    <path d="M178.94,289a.72.72,0,1,0,1.43,0V284.1h6.27a.65.65,0,0,0,0-1.3h-6.27v-4.51h7.08a.67.67,0,0,0,.65-.67.65.65,0,0,0-.65-.65h-7.81a.73.73,0,0,0-.7.72Z" fill="#fff"/>
    <path d="M190,289a.69.69,0,1,0,1.38,0v-3.17c0-2.69,1.48-4,3.29-4.26a.68.68,0,0,0,.61-.7.66.66,0,0,0-.69-.7,3.85,3.85,0,0,0-3.21,2.49v-1.75a.69.69,0,0,0-.7-.71.7.7,0,0,0-.68.71Z" fill="#fff"/>
    <path d="M197.22,289a.69.69,0,0,0,.7.71.68.68,0,0,0,.68-.71v-8.09a.69.69,0,0,0-.7-.71.7.7,0,0,0-.68.71Zm-.13-11.39a.83.83,0,0,0,1.64,0v-.24a.82.82,0,0,0-1.64,0Z" fill="#fff"/>
    <path d="M208.52,289a.69.69,0,0,0,.72.67.75.75,0,0,0,.68-.51l5.45-10.95a1.37,1.37,0,0,0,.2-.63.63.63,0,0,0-.69-.63h-7.39a.67.67,0,0,0-.67.65.65.65,0,0,0,.67.65h6.36l-5.22,10.32A1.19,1.19,0,0,0,208.52,289Z" fill="#fff"/>
    <path d="M220.05,288.7c-1.26,0-2.34-.69-2.34-1.86v0c0-1.17,1-1.93,2.72-1.93a9.59,9.59,0,0,1,2.74.4v.9C223.17,287.65,221.77,288.7,220.05,288.7Zm-.27,1.1a4.08,4.08,0,0,0,3.37-1.61V289a.64.64,0,0,0,.67.65.66.66,0,0,0,.67-.69v-5.1a3.72,3.72,0,0,0-1-2.73,4.09,4.09,0,0,0-3-1,7.31,7.31,0,0,0-3.05.63.63.63,0,0,0-.37.57.61.61,0,0,0,.61.6.85.85,0,0,0,.25-.05,5.79,5.79,0,0,1,2.42-.53c1.75,0,2.77.87,2.77,2.55v.32a10,10,0,0,0-2.86-.4c-2.37,0-4,1.05-4,3v0C216.3,288.8,218.05,289.8,219.78,289.8Z" fill="#fff"/>
    <path d="M227.41,289a.7.7,0,0,0,.71.71.68.68,0,0,0,.68-.71v-4.7a2.7,2.7,0,0,1,2.6-2.94c1.48,0,2.4,1,2.4,2.77V289a.69.69,0,1,0,1.38,0v-4.76a2.6,2.6,0,0,1,2.57-2.88c1.51,0,2.41,1,2.41,2.81V289a.7.7,0,1,0,1.39,0v-5.15c0-2.31-1.32-3.76-3.46-3.76a3.69,3.69,0,0,0-3.28,1.86,3.19,3.19,0,0,0-3-1.86,3.41,3.41,0,0,0-3,1.77v-.95a.69.69,0,0,0-.7-.71.71.71,0,0,0-.69.71Z" fill="#fff"/>
    <path d="M244.74,284.91h3.75a.73.73,0,0,0,0-1.46h-3.75a.73.73,0,0,0,0,1.46Z" fill="#fff"/>
    <path d="M251.38,289a.69.69,0,0,0,.72.67.76.76,0,0,0,.68-.51l5.45-10.95a1.48,1.48,0,0,0,.19-.63.62.62,0,0,0-.68-.63h-7.39a.67.67,0,0,0-.67.65.65.65,0,0,0,.67.65h6.36l-5.23,10.32A1.41,1.41,0,0,0,251.38,289Z" fill="#fff"/>
    <path d="M264.75,288.55a3.47,3.47,0,0,1-3.37-3.61v0a3.48,3.48,0,0,1,3.37-3.59,3.36,3.36,0,0,1,3.28,3.61v0A3.29,3.29,0,0,1,264.75,288.55ZM260,291.87a.69.69,0,0,0,.71.7.67.67,0,0,0,.68-.7v-4.06a4.2,4.2,0,0,0,3.57,2,4.57,4.57,0,0,0,4.45-4.86v0a4.55,4.55,0,0,0-4.45-4.84,4.2,4.2,0,0,0-3.57,2.08v-1.26a.7.7,0,1,0-1.39,0Z" fill="#fff"/>
    <path d="M272,289a.7.7,0,0,0,.71.71.68.68,0,0,0,.68-.71v-4.7a2.7,2.7,0,0,1,2.6-2.94c1.48,0,2.4,1,2.4,2.77V289a.69.69,0,1,0,1.38,0v-4.76a2.6,2.6,0,0,1,2.57-2.88c1.51,0,2.41,1,2.41,2.81V289a.7.7,0,1,0,1.39,0v-5.15c0-2.31-1.32-3.76-3.46-3.76a3.7,3.7,0,0,0-3.28,1.86,3.19,3.19,0,0,0-3-1.86,3.41,3.41,0,0,0-3,1.77v-.95a.69.69,0,0,0-.7-.71.71.71,0,0,0-.69.71Z" fill="#fff"/>
    <path d="M288.43,291.4a.34.34,0,0,0,.37.36,2.21,2.21,0,0,0,1.23-.65,2.88,2.88,0,0,0,.65-2.16v-.34a.9.9,0,0,0-.88-1,.8.8,0,0,0-.83.83v.29a.86.86,0,0,0,.7.87,1.41,1.41,0,0,1-1,1.48A.34.34,0,0,0,288.43,291.4Z" fill="#fff"/>
    <path d="M303.55,289.78c2.51,0,4.31-1.41,4.31-3.57v0c0-1.93-1.29-3-4.11-3.57s-3.42-1.26-3.42-2.45v0c0-1.14,1-2,2.68-2a5.33,5.33,0,0,1,3.27,1.1.65.65,0,0,0,.41.13.69.69,0,0,0,.69-.69.72.72,0,0,0-.31-.57,6.42,6.42,0,0,0-4-1.25c-2.4,0-4.15,1.46-4.15,3.45v0c0,2.08,1.34,3,4.24,3.65,2.65.56,3.28,1.22,3.28,2.39v0c0,1.25-1.12,2.15-2.81,2.15a5.75,5.75,0,0,1-4-1.5.62.62,0,0,0-.43-.16.68.68,0,0,0-.68.7.62.62,0,0,0,.27.54A7.35,7.35,0,0,0,303.55,289.78Z" fill="#fff"/>
    <path d="M313.64,288.7c-1.26,0-2.34-.69-2.34-1.86v0c0-1.17,1-1.93,2.72-1.93a9.65,9.65,0,0,1,2.74.4v.9C316.76,287.65,315.35,288.7,313.64,288.7Zm-.27,1.1a4.08,4.08,0,0,0,3.37-1.61V289a.64.64,0,0,0,.67.65.66.66,0,0,0,.67-.69v-5.1a3.72,3.72,0,0,0-1-2.73,4.09,4.09,0,0,0-3-1,7.31,7.31,0,0,0-3.05.63.63.63,0,0,0-.38.57.62.62,0,0,0,.62.6.85.85,0,0,0,.25-.05,5.76,5.76,0,0,1,2.42-.53c1.74,0,2.77.87,2.77,2.55v.32a10,10,0,0,0-2.86-.4c-2.37,0-4,1.05-4,3v0C309.89,288.8,311.64,289.8,313.37,289.8Z" fill="#fff"/>
    <path d="M323.89,289.76a3.56,3.56,0,0,0,1.37-.25.58.58,0,0,0,.4-.54.6.6,0,0,0-.6-.6,3.83,3.83,0,0,1-.84.13,1.38,1.38,0,0,1-1.57-1.55V281.5h2.41a.62.62,0,0,0,.63-.61.63.63,0,0,0-.63-.62h-2.41v-2.2a.72.72,0,0,0-.71-.7.69.69,0,0,0-.68.7v2.2h-.76a.62.62,0,0,0-.61.62.63.63,0,0,0,.61.61h.76v5.63A2.37,2.37,0,0,0,323.89,289.76Z" fill="#fff"/>
    <path d="M326.86,284.91h3.76a.73.73,0,0,0,0-1.46h-3.76a.73.73,0,0,0,0,1.46Z" fill="#fff"/>
    <path d="M338,289.78c2.5,0,4.31-1.41,4.31-3.57v0c0-1.93-1.3-3-4.12-3.57s-3.42-1.26-3.42-2.45v0c0-1.14,1-2,2.69-2a5.3,5.3,0,0,1,3.26,1.1.67.67,0,0,0,.41.13.69.69,0,0,0,.38-1.26,6.42,6.42,0,0,0-4-1.25c-2.4,0-4.15,1.46-4.15,3.45v0c0,2.08,1.34,3,4.24,3.65,2.65.56,3.28,1.22,3.28,2.39v0c0,1.25-1.11,2.15-2.81,2.15a5.74,5.74,0,0,1-4-1.5.65.65,0,0,0-.44-.16.68.68,0,0,0-.68.7.64.64,0,0,0,.27.54A7.36,7.36,0,0,0,338,289.78Z" fill="#fff"/>
    <path d="M352.93,280.89a.69.69,0,1,0-1.37,0v4.72a2.75,2.75,0,0,1-2.79,2.92c-1.64,0-2.58-1.08-2.58-2.81v-4.83a.7.7,0,0,0-.7-.71.68.68,0,0,0-.69.71v5.17a3.41,3.41,0,0,0,3.57,3.74,3.55,3.55,0,0,0,3.19-1.83v1a.69.69,0,1,0,1.37,0Z" fill="#fff"/>
    <path d="M356,289a.69.69,0,0,0,.7.71.68.68,0,0,0,.68-.71v-4.72a2.74,2.74,0,0,1,2.8-2.92c1.64,0,2.58,1.08,2.58,2.81V289a.69.69,0,1,0,1.38,0v-5.17a3.41,3.41,0,0,0-3.57-3.74,3.55,3.55,0,0,0-3.19,1.83v-1a.69.69,0,0,0-.7-.71.7.7,0,0,0-.68.71Z" fill="#fff"/>
    <path d="M376.63,283.77a2.82,2.82,0,0,1-3.1-2.76v0a2.9,2.9,0,0,1,3-3,3,3,0,0,1,3.21,2.87v0A3,3,0,0,1,376.63,283.77Zm-.38,6c3.12,0,5.25-2.83,5.25-6.83v0c0-2.52-.61-3.93-1.57-4.89a4.45,4.45,0,0,0-3.32-1.29,4.3,4.3,0,0,0-4.54,4.29v0c0,2.28,1.8,3.92,4.4,3.92a4.05,4.05,0,0,0,3.57-2c0,3.23-1.48,5.54-3.75,5.54a4.21,4.21,0,0,1-2.74-1.09.85.85,0,0,0-.45-.14.69.69,0,0,0-.69.68.68.68,0,0,0,.33.58A5.65,5.65,0,0,0,376.25,289.81Z" fill="#fff"/>
    <path d="M387.23,288.7c-1.26,0-2.34-.69-2.34-1.86v0c0-1.17,1-1.93,2.72-1.93a9.59,9.59,0,0,1,2.74.4v.9C390.35,287.65,389,288.7,387.23,288.7Zm-.27,1.1a4.07,4.07,0,0,0,3.37-1.61V289a.64.64,0,0,0,.67.65.66.66,0,0,0,.67-.69v-5.1a3.72,3.72,0,0,0-1-2.73,4.09,4.09,0,0,0-3-1,7.31,7.31,0,0,0-3.05.63.63.63,0,0,0-.37.57.61.61,0,0,0,.61.6.85.85,0,0,0,.25-.05,5.79,5.79,0,0,1,2.42-.53c1.75,0,2.77.87,2.77,2.55v.32a9.94,9.94,0,0,0-2.86-.4c-2.36,0-4,1.05-4,3v0C383.48,288.8,385.23,289.8,387,289.8Z" fill="#fff"/>
    <path d="M394.59,289a.7.7,0,0,0,.71.71A.68.68,0,0,0,396,289v-4.7a2.7,2.7,0,0,1,2.6-2.94c1.48,0,2.4,1,2.4,2.77V289a.69.69,0,0,0,.68.71.7.7,0,0,0,.71-.71v-4.76a2.59,2.59,0,0,1,2.56-2.88c1.51,0,2.41,1,2.41,2.81V289a.7.7,0,1,0,1.39,0v-5.15c0-2.31-1.32-3.76-3.46-3.76a3.7,3.7,0,0,0-3.28,1.86,3.19,3.19,0,0,0-3-1.86,3.42,3.42,0,0,0-3,1.77v-.95a.69.69,0,0,0-.7-.71.71.71,0,0,0-.69.71Z" fill="#fff"/>
    <path d="M411.92,284.91h3.75a.73.73,0,0,0,0-1.46h-3.75a.73.73,0,0,0,0,1.46Z" fill="#fff"/>
    <path d="M422.61,289.81a4.16,4.16,0,0,0,4.49-4.14v0c0-2.42-1.91-3.86-4.37-3.86a5.6,5.6,0,0,0-2.48.56l.27-4H426a.66.66,0,0,0,0-1.32H419.9a.67.67,0,0,0-.68.69l-.29,4.94a.82.82,0,0,0,.31.77,1.23,1.23,0,0,0,.72.28,7.66,7.66,0,0,1,2.56-.62c1.84,0,3.14,1.07,3.14,2.65v0a2.81,2.81,0,0,1-3,2.8,4.83,4.83,0,0,1-3.25-1.43.76.76,0,0,0-.49-.18.7.7,0,0,0-.39,1.26A6.23,6.23,0,0,0,422.61,289.81Z" fill="#fff"/>
    <path d="M434.45,288.55a3.47,3.47,0,0,1-3.37-3.61v0a3.48,3.48,0,0,1,3.37-3.59,3.36,3.36,0,0,1,3.29,3.61v0A3.29,3.29,0,0,1,434.45,288.55Zm-4.7,3.32a.68.68,0,0,0,.7.7.68.68,0,0,0,.69-.7v-4.06a4.2,4.2,0,0,0,3.57,2,4.57,4.57,0,0,0,4.45-4.86v0a4.55,4.55,0,0,0-4.45-4.84,4.17,4.17,0,0,0-3.57,2.08v-1.26a.7.7,0,0,0-.71-.71.69.69,0,0,0-.68.71Z" fill="#fff"/>
    <path d="M441.67,289a.7.7,0,0,0,.7.71.68.68,0,0,0,.69-.71v-4.7a2.7,2.7,0,0,1,2.59-2.94c1.48,0,2.4,1,2.4,2.77V289a.7.7,0,1,0,1.39,0v-4.76a2.59,2.59,0,0,1,2.56-2.88c1.52,0,2.42,1,2.42,2.81V289a.7.7,0,1,0,1.39,0v-5.15c0-2.31-1.32-3.76-3.47-3.76a3.72,3.72,0,0,0-3.28,1.86,3.17,3.17,0,0,0-3-1.86,3.4,3.4,0,0,0-3,1.77v-.95a.7.7,0,1,0-1.39,0Z" fill="#fff"/>
    <path d="M132.8,344.83a1.1,1.1,0,0,0,2.19,0v-4.39a2.12,2.12,0,0,1,2.14-2.36c1.3,0,2,.85,2,2.33v4.42a1.08,1.08,0,0,0,1.1,1.08,1.06,1.06,0,0,0,1.08-1.08v-5.09c0-2.2-1.24-3.64-3.39-3.64a3.42,3.42,0,0,0-3,1.66v-4.12a1.09,1.09,0,0,0-1.1-1.08,1.08,1.08,0,0,0-1.09,1.08Z" fill="#fff"/>
    <path d="M147.34,346c2,0,3.53-1,3.53-3v0c0-1.71-1.57-2.34-3-2.78-1.11-.36-2.14-.65-2.14-1.35v0c0-.54.49-.93,1.33-.93a5.29,5.29,0,0,1,2.24.64.77.77,0,0,0,.43.11.87.87,0,0,0,.9-.88.91.91,0,0,0-.52-.83,6.5,6.5,0,0,0-3-.78c-1.9,0-3.39,1.1-3.39,2.91v0c0,1.83,1.57,2.4,3,2.8,1.12.34,2.13.59,2.13,1.33v0c0,.63-.54,1-1.48,1a5.06,5.06,0,0,1-2.74-.92,1,1,0,0,0-.47-.13.88.88,0,0,0-.88.89.82.82,0,0,0,.41.75A6.5,6.5,0,0,0,147.34,346Z" fill="#fff"/>
    <path d="M153.24,344.83a1.07,1.07,0,0,0,1.08,1.08,1.08,1.08,0,0,0,1.1-1.08V333.64a1.09,1.09,0,0,0-1.1-1.08,1.08,1.08,0,0,0-1.08,1.08Z" fill="#fff"/>
    <path d="M158.11,344.48v.19a1.28,1.28,0,0,0,2.55,0v-.19a1.28,1.28,0,0,0-2.55,0Z" fill="#fff"/>
    <path d="M163.48,344.83a1.1,1.1,0,0,0,2.19,0v-6.66h1.66a.9.9,0,1,0,0-1.8h-1.7v-.52c0-1,.43-1.45,1.26-1.45a3,3,0,0,1,.45,0,.89.89,0,0,0,.92-.9.91.91,0,0,0-.75-.91,6.78,6.78,0,0,0-1.1-.09,2.92,2.92,0,0,0-2.15.76,3.26,3.26,0,0,0-.78,2.35v.7h-.37a.92.92,0,0,0-.92.92.9.9,0,0,0,.92.9h.37Zm6.42,0a1.1,1.1,0,0,0,2.19,0v-7.54a1.1,1.1,0,0,0-1.1-1.1,1.08,1.08,0,0,0-1.09,1.1Zm-.16-11a1.26,1.26,0,0,0,2.49,0v-.1a1.26,1.26,0,0,0-2.49,0Z" fill="#fff"/>
    <path d="M136.55,12.48V6.83h4.31c2.18,0,3.48,1,3.48,2.79v.05c0,1.71-1.34,2.81-3.46,2.81Zm-3,7.15a1.48,1.48,0,0,0,3,0V15.11h3.73l4.09,5.21a1.67,1.67,0,0,0,1.44.77,1.39,1.39,0,0,0,1.42-1.37,1.72,1.72,0,0,0-.48-1.13l-3.22-4.06a5,5,0,0,0,3.82-5V9.45A5.11,5.11,0,0,0,146,5.82a6.8,6.8,0,0,0-4.85-1.68h-6a1.47,1.47,0,0,0-1.49,1.49Z" fill="#fff"/>
    <path d="M160.16,19.58a1.27,1.27,0,0,0,.39-.89,1.15,1.15,0,0,0-1.15-1.18,1.09,1.09,0,0,0-.75.27,4.58,4.58,0,0,1-3,1.1A3.54,3.54,0,0,1,152,15.66h8a1.37,1.37,0,0,0,1.37-1.4,6,6,0,0,0-6-6.25,6.3,6.3,0,0,0-6.2,6.62v0a6.34,6.34,0,0,0,6.52,6.59A6.51,6.51,0,0,0,160.16,19.58ZM152,13.74c.26-2,1.51-3.35,3.29-3.35s3,1.47,3.22,3.35Z" fill="#fff"/>
    <path d="M165,19.65a1.45,1.45,0,0,0,2.9,0V9.6a1.45,1.45,0,0,0-1.46-1.47A1.43,1.43,0,0,0,165,9.6ZM164.78,5a1.68,1.68,0,0,0,3.32,0V4.86a1.68,1.68,0,0,0-3.32,0Z" fill="#fff"/>
    <path d="M175.71,21.19a5.74,5.74,0,0,0,2-.34,1.21,1.21,0,0,0-.46-2.33,6.74,6.74,0,0,1-.72.07A1.38,1.38,0,0,1,175,17V10.78h2.28a1.25,1.25,0,1,0,0-2.5H175V6.11a1.46,1.46,0,0,0-2.91,0V8.28h-.48a1.25,1.25,0,0,0,0,2.5h.48v6.68C172.06,20.25,173.57,21.19,175.71,21.19Z" fill="#fff"/>
    <path d="M181.06,19.65a1.46,1.46,0,0,0,2.91,0V9.6a1.46,1.46,0,0,0-1.46-1.47,1.44,1.44,0,0,0-1.45,1.47ZM180.85,5a1.68,1.68,0,0,0,3.32,0V4.86a1.68,1.68,0,0,0-3.32,0Z" fill="#fff"/>
    <path d="M191.78,21.19a5.74,5.74,0,0,0,2-.34,1.21,1.21,0,0,0-.46-2.33,6.74,6.74,0,0,1-.72.07A1.38,1.38,0,0,1,191,17V10.78h2.28a1.25,1.25,0,1,0,0-2.5H191V6.11a1.46,1.46,0,0,0-2.91,0V8.28h-.48a1.25,1.25,0,0,0,0,2.5h.48v6.68C188.13,20.25,189.64,21.19,191.78,21.19Z" fill="#fff"/>
    <path d="M204.58,5a1.68,1.68,0,0,0,3.32,0V4.86a1.68,1.68,0,0,0-3.32,0Zm-.38,19.88c2.14,0,3.51-1.17,3.51-3.75V9.6a1.46,1.46,0,0,0-1.47-1.47A1.43,1.43,0,0,0,204.8,9.6V21.14c0,1-.44,1.37-1.08,1.37l-.17,0a1.15,1.15,0,0,0-1.16,1.2c0,.8.68,1.18,1.59,1.2Z" fill="#fff"/>
    <path d="M215.87,19.12c-1.39,0-2.47-.7-2.47-1.92v-.05c0-1.32,1.1-2.12,3-2.12a8,8,0,0,1,2.88.51v.86C219.26,18,217.8,19.12,215.87,19.12Zm-.81,2.12a5.18,5.18,0,0,0,4.13-1.85v.48a1.31,1.31,0,0,0,1.42,1.22A1.39,1.39,0,0,0,222,19.7V13.45a5.29,5.29,0,0,0-1.37-3.92,5.67,5.67,0,0,0-4.21-1.42,11,11,0,0,0-4.09.74,1.28,1.28,0,0,0-.79,1.16,1.21,1.21,0,0,0,1.23,1.2,1.55,1.55,0,0,0,.45-.07,7.62,7.62,0,0,1,2.81-.51c2.05,0,3.15,1,3.15,2.77v.31a10.61,10.61,0,0,0-3.41-.53c-3.1,0-5.24,1.35-5.24,4.09v.05C210.56,19.87,212.68,21.24,215.06,21.24Z" fill="#fff"/>
    <path d="M237.19,19.12c-1.39,0-2.48-.7-2.48-1.92v-.05c0-1.32,1.11-2.12,3-2.12a8,8,0,0,1,2.88.51v.86C240.58,18,239.11,19.12,237.19,19.12Zm-.82,2.12a5.18,5.18,0,0,0,4.14-1.85v.48a1.31,1.31,0,0,0,1.42,1.22,1.39,1.39,0,0,0,1.42-1.39V13.45A5.26,5.26,0,0,0,242,9.53a5.63,5.63,0,0,0-4.2-1.42,11,11,0,0,0-4.09.74,1.28,1.28,0,0,0-.79,1.16,1.21,1.21,0,0,0,1.22,1.2,1.56,1.56,0,0,0,.46-.07,7.58,7.58,0,0,1,2.81-.51c2.05,0,3.15,1,3.15,2.77v.31a10.61,10.61,0,0,0-3.41-.53c-3.1,0-5.24,1.35-5.24,4.09v.05C231.88,19.87,234,21.24,236.37,21.24Z" fill="#fff"/>
    <path d="M246.88,19.65a1.46,1.46,0,0,0,2.91,0V9.6a1.46,1.46,0,0,0-1.46-1.47,1.44,1.44,0,0,0-1.45,1.47ZM246.67,5A1.67,1.67,0,0,0,250,5V4.86a1.67,1.67,0,0,0-3.31,0Z" fill="#fff"/>
    <path d="M253.48,19.65a1.46,1.46,0,0,0,2.91,0V17.44l1.92-1.83,3.63,4.84a1.45,1.45,0,0,0,1.27.64,1.31,1.31,0,0,0,1.37-1.32,1.57,1.57,0,0,0-.38-1l-3.85-5,3.37-3.1a1.63,1.63,0,0,0,.65-1.23,1.28,1.28,0,0,0-1.28-1.32,1.71,1.71,0,0,0-1.25.63l-5.45,5.36V4.74a1.45,1.45,0,0,0-1.47-1.44,1.43,1.43,0,0,0-1.44,1.44Z" fill="#fff"/>
    <path d="M271.72,19.12c-1.39,0-2.47-.7-2.47-1.92v-.05c0-1.32,1.1-2.12,3-2.12a8,8,0,0,1,2.88.51v.86C275.11,18,273.65,19.12,271.72,19.12Zm-.81,2.12A5.16,5.16,0,0,0,275,19.39v.48a1.31,1.31,0,0,0,1.42,1.22,1.39,1.39,0,0,0,1.42-1.39V13.45a5.29,5.29,0,0,0-1.37-3.92,5.67,5.67,0,0,0-4.21-1.42,11.06,11.06,0,0,0-4.09.74,1.28,1.28,0,0,0-.79,1.16,1.21,1.21,0,0,0,1.23,1.2,1.55,1.55,0,0,0,.45-.07,7.64,7.64,0,0,1,2.82-.51c2,0,3.14,1,3.14,2.77v.31a10.61,10.61,0,0,0-3.41-.53c-3.1,0-5.24,1.35-5.24,4.09v.05C266.41,19.87,268.53,21.24,270.91,21.24Z" fill="#fff"/>
    <path d="M285.39,21.19a5.74,5.74,0,0,0,2-.34,1.21,1.21,0,0,0-.46-2.33,7.06,7.06,0,0,1-.72.07A1.38,1.38,0,0,1,284.65,17V10.78h2.28a1.25,1.25,0,1,0,0-2.5h-2.28V6.11a1.46,1.46,0,0,0-2.91,0V8.28h-.48a1.25,1.25,0,0,0,0,2.5h.48v6.68C281.74,20.25,283.25,21.19,285.39,21.19Z" fill="#fff"/>
    <path d="M295.32,19.12c-1.4,0-2.48-.7-2.48-1.92v-.05c0-1.32,1.11-2.12,3-2.12a8.09,8.09,0,0,1,2.89.51v.86C298.71,18,297.24,19.12,295.32,19.12Zm-.82,2.12a5.15,5.15,0,0,0,4.13-1.85v.48a1.31,1.31,0,0,0,1.42,1.22,1.39,1.39,0,0,0,1.42-1.39V13.45a5.25,5.25,0,0,0-1.37-3.92,5.67,5.67,0,0,0-4.21-1.42,11,11,0,0,0-4.08.74A1.27,1.27,0,0,0,291,10a1.22,1.22,0,0,0,1.23,1.2,1.61,1.61,0,0,0,.46-.07,7.54,7.54,0,0,1,2.81-.51c2,0,3.15,1,3.15,2.77v.31a10.73,10.73,0,0,0-3.42-.53c-3.1,0-5.24,1.35-5.24,4.09v.05C290,19.87,292.12,21.24,294.5,21.24Z" fill="#fff"/>
    <path d="M316.24,9.6a1.47,1.47,0,1,0-2.93,0v5.84a2.81,2.81,0,0,1-2.86,3.13c-1.73,0-2.72-1.11-2.72-3.08V9.6a1.45,1.45,0,1,0-2.9,0v6.76c0,2.95,1.65,4.88,4.51,4.88a4.57,4.57,0,0,0,4-2.24v.65a1.47,1.47,0,0,0,2.93,0Z" fill="#fff"/>
    <path d="M320,19.65a1.46,1.46,0,0,0,2.91,0V4.74a1.45,1.45,0,0,0-1.46-1.44A1.44,1.44,0,0,0,320,4.74Z" fill="#fff"/>
    <path d="M337.9,9.6a1.47,1.47,0,1,0-2.93,0v5.84a2.81,2.81,0,0,1-2.86,3.13c-1.73,0-2.72-1.11-2.72-3.08V9.6a1.46,1.46,0,1,0-2.91,0v6.76c0,2.95,1.66,4.88,4.52,4.88A4.59,4.59,0,0,0,335,19v.65a1.47,1.47,0,0,0,2.93,0Z" fill="#fff"/>
    <path d="M345.68,21.19a5.74,5.74,0,0,0,2-.34,1.25,1.25,0,0,0,.76-1.13,1.22,1.22,0,0,0-1.22-1.2c-.1,0-.39.07-.72.07A1.38,1.38,0,0,1,344.93,17V10.78h2.29a1.25,1.25,0,1,0,0-2.5h-2.29V6.11a1.45,1.45,0,0,0-2.9,0V8.28h-.48a1.25,1.25,0,0,0,0,2.5H342v6.68C342,20.25,343.54,21.19,345.68,21.19Z" fill="#fff"/>
    <g>
      <path d="M132.8,85.74a1.1,1.1,0,0,0,2.19,0V82.93c0-2.26,1.06-3.45,2.61-3.72a1,1,0,0,0,.87-1,1,1,0,0,0-1.09-1.08A3,3,0,0,0,135,79.17v-1a1.1,1.1,0,0,0-1.1-1.1,1.08,1.08,0,0,0-1.09,1.1Z" fill="#fff"/>
      <path d="M147.72,85.69A1,1,0,0,0,148,85a.87.87,0,0,0-1.42-.69,3.38,3.38,0,0,1-2.25.83,2.65,2.65,0,0,1-2.74-2.41h6a1,1,0,0,0,1-1A4.51,4.51,0,0,0,144.06,77a4.73,4.73,0,0,0-4.66,5v0A4.75,4.75,0,0,0,144.29,87,4.93,4.93,0,0,0,147.72,85.69Zm-6.15-4.39A2.57,2.57,0,0,1,144,78.8a2.46,2.46,0,0,1,2.41,2.5Z" fill="#fff"/>
      <path d="M150.85,85.74a1.09,1.09,0,0,0,2.18,0V78.2a1.09,1.09,0,1,0-2.18,0Zm-.16-11a1.26,1.26,0,0,0,2.49,0v-.11a1.26,1.26,0,0,0-2.49,0Z" fill="#fff"/>
      <path d="M158.94,86.89a4.39,4.39,0,0,0,1.49-.25.93.93,0,0,0,.58-.85.92.92,0,0,0-.92-.9,4.65,4.65,0,0,1-.54.06,1,1,0,0,1-1.17-1.19V79.08h1.71a.94.94,0,1,0,0-1.87h-1.71V75.59a1.09,1.09,0,1,0-2.18,0v1.62h-.36a.94.94,0,1,0,0,1.87h.36v5C156.2,86.19,157.33,86.89,158.94,86.89Z" fill="#fff"/>
      <path d="M166.51,86.89a4.41,4.41,0,0,0,1.5-.25.94.94,0,0,0,.57-.85.92.92,0,0,0-.92-.9,4.38,4.38,0,0,1-.54.06A1,1,0,0,1,166,83.76V79.08h1.71a.94.94,0,1,0,0-1.87H166V75.59a1.09,1.09,0,1,0-2.18,0v1.62h-.36a.94.94,0,1,0,0,1.87h.36v5C163.77,86.19,164.91,86.89,166.51,86.89Z" fill="#fff"/>
      <path d="M170.56,85.74a1.07,1.07,0,0,0,1.08,1.08,1.08,1.08,0,0,0,1.1-1.08V78.2a1.1,1.1,0,0,0-1.1-1.1,1.08,1.08,0,0,0-1.08,1.1Zm-.16-11a1.25,1.25,0,0,0,2.48,0v-.11a1.25,1.25,0,0,0-2.48,0Z" fill="#fff"/>
      <path d="M180.06,85a2.94,2.94,0,0,1-2.9-3.05v0a2.86,2.86,0,0,1,2.87-3A3,3,0,0,1,183,82v0A2.86,2.86,0,0,1,180.06,85ZM180,87a5,5,0,0,0,5.1-5v0A5.08,5.08,0,0,0,175,82v0A4.92,4.92,0,0,0,180,87Z" fill="#fff"/>
      <path d="M192.28,85A2.88,2.88,0,0,1,189.5,82v0a2.88,2.88,0,0,1,2.78-3A2.82,2.82,0,0,1,195,82v0A2.8,2.8,0,0,1,192.28,85Zm-4.91,3.59a1.09,1.09,0,0,0,2.18,0V85.25a3.88,3.88,0,0,0,3.25,1.68c2.25,0,4.42-1.78,4.42-4.94v0c0-3.17-2.19-4.94-4.42-4.94a3.81,3.81,0,0,0-3.25,1.79v-.6a1.09,1.09,0,1,0-2.18,0Z" fill="#fff"/>
      <path d="M202.78,85.34c-1.05,0-1.86-.52-1.86-1.44v0c0-1,.83-1.58,2.24-1.58a6,6,0,0,1,2.16.38v.65C205.32,84.51,204.22,85.34,202.78,85.34Zm-.62,1.59a3.88,3.88,0,0,0,3.11-1.39v.36a1,1,0,0,0,1.06.92,1,1,0,0,0,1.06-1V81.09a4,4,0,0,0-1-2.94,4.27,4.27,0,0,0-3.16-1.07,8.29,8.29,0,0,0-3.07.56,1,1,0,0,0-.59.87.91.91,0,0,0,.92.9,1.4,1.4,0,0,0,.34,0,5.56,5.56,0,0,1,2.11-.38c1.53,0,2.36.72,2.36,2.07v.24a7.77,7.77,0,0,0-2.56-.4c-2.32,0-3.93,1-3.93,3.06v0C198.79,85.9,200.38,86.93,202.16,86.93Z" fill="#fff"/>
      <path d="M213.33,86.91c2,0,3.53-1,3.53-3v0c0-1.71-1.57-2.34-3-2.78-1.11-.36-2.14-.64-2.14-1.35v0c0-.55.48-.94,1.33-.94a5.17,5.17,0,0,1,2.24.65.86.86,0,0,0,.43.11.88.88,0,0,0,.9-.89.91.91,0,0,0-.52-.83,6.61,6.61,0,0,0-3-.77c-1.9,0-3.39,1.1-3.39,2.9v0c0,1.82,1.56,2.4,3,2.79,1.12.34,2.13.6,2.13,1.34v0c0,.63-.54,1-1.48,1a5,5,0,0,1-2.74-.92,1,1,0,0,0-.47-.13.88.88,0,0,0-.88.89.85.85,0,0,0,.41.76A6.57,6.57,0,0,0,213.33,86.91Z" fill="#fff"/>
      <path d="M219.06,85.4v.18a1.28,1.28,0,0,0,2.55,0V85.4a1.28,1.28,0,0,0-2.55,0Z" fill="#fff"/>
      <path d="M224.42,85.74a1.1,1.1,0,0,0,2.19,0V79.08h1.66a.9.9,0,1,0,0-1.8h-1.7v-.52c0-1,.43-1.44,1.26-1.44a3.09,3.09,0,0,1,.45,0,.91.91,0,0,0,.17-1.8,5.81,5.81,0,0,0-1.1-.09,2.9,2.9,0,0,0-2.15.75,3.26,3.26,0,0,0-.78,2.35v.7h-.37a.92.92,0,0,0-.92.92.9.9,0,0,0,.92.9h.37Zm6.42,0a1.1,1.1,0,0,0,2.19,0V78.2a1.1,1.1,0,0,0-1.1-1.1,1.08,1.08,0,0,0-1.09,1.1Zm-.16-11a1.26,1.26,0,0,0,2.49,0v-.11a1.26,1.26,0,0,0-2.49,0Z" fill="#fff"/>
    </g>
    <path d="M82.13,132.44c0-2.16-1-3.31-2.22-3.31s-2.22,1.15-2.22,3.31,1,3.29,2.22,3.29,2.22-1.15,2.22-3.29m-4.37,12.85a.94.94,0,0,0-1.3,0,6,6,0,0,1-8.43,0,.87.87,0,0,0-.65-.26.84.84,0,0,0-.64.26.82.82,0,0,0,0,1.3,7.8,7.8,0,0,0,11,0,.83.83,0,0,0,0-1.3M66.84,132.44c0-2.16-1-3.31-2.23-3.31s-2.22,1.15-2.22,3.31,1,3.29,2.22,3.29,2.23-1.15,2.23-3.29m24.54,3.91A19.17,19.17,0,0,1,77,155a6.85,6.85,0,0,0-8.93.13,19.17,19.17,0,0,1-11.78-29.27A11.06,11.06,0,0,0,65,118.72c3,3.59,11.25,7.5,21.65,7.2a4.49,4.49,0,0,0,1.54-.26,18.68,18.68,0,0,1,3.28,10.73m5.37-9.19h-4.5a21.41,21.41,0,0,1,1.16,15.26h1.36a22.23,22.23,0,0,1-15.6,16,6.76,6.76,0,0,1,.09,3,26.5,26.5,0,0,0,18.57-19.26,3.35,3.35,0,0,0,2.57-3.49v-7.94c0-2.42-1.22-3.64-3.65-3.66m-24.16,29c-2.67,0-4,1.33-4,4s1.34,4,4,4,4-1.34,4-4-1.33-4-4-4M51,142.47H47.66q-3.64,0-3.65-3.66v-7.94q0-3.65,3.65-3.66h4.49A21.41,21.41,0,0,0,51,142.47" fill="#fff"/>
    <path d="M83.46,51.22,80.33,50a11.25,11.25,0,0,0,.8-5.47l3.36-.33a14.64,14.64,0,0,1-1,7M73,60.13l-.81-3.23A11.56,11.56,0,0,0,78,53.53L80.5,55.8A14.92,14.92,0,0,1,73,60.13m-5.51.33a15,15,0,0,1-7.2-2.84l2-2.66a11.6,11.6,0,0,0,5.59,2.2ZM80.79,39a8.81,8.81,0,0,1,2.8-8.28L86.09,33a6.51,6.51,0,0,0-1.94,5.74Zm15.52-7a6.62,6.62,0,0,0-5.24-1.43,8.35,8.35,0,0,0-1,.17l-.76-3.24a14.11,14.11,0,0,1,1.45-.23,9.84,9.84,0,0,1,7.59,2.08Zm6.08-16.9c-2.46,0-3.67-1.29-3.65-3.75s1.27-3.68,3.73-3.66,3.69,1.25,3.69,3.7-1.28,3.73-3.77,3.71m0-12a8.09,8.09,0,0,0-6,2.41,8,8,0,0,0-2.5,5.91c0,4.61,8.46,16.67,8.46,16.67s8.47-12,8.47-16.67a8.08,8.08,0,0,0-2.51-5.91,8.09,8.09,0,0,0-6-2.41m-45,28.71a6.33,6.33,0,0,1-6.24-6.4A6.33,6.33,0,1,1,61.92,30a6.15,6.15,0,0,1-4.52,1.84m0-20.5a13.84,13.84,0,0,0-10.2,4.11,13.82,13.82,0,0,0-4.29,10.12C42.93,33.38,57.4,54,57.4,54S71.86,33.38,71.86,25.52a13.83,13.83,0,0,0-4.28-10.11A13.84,13.84,0,0,0,57.4,11.29" fill="#fff" fill-rule="evenodd"/>
    <line x1="4.63" y1="5.36" x2="4.63" y2="5.36" fill="#fff" stroke="#fff" stroke-linecap="round" stroke-miterlimit="10" stroke-width="5.03"/>
    <path d="M7.14,334.09a2.22,2.22,0,0,1-2.51,2.52,2.52,2.52,0,1,1,0-5A2.22,2.22,0,0,1,7.14,334.09Zm0-10a2.22,2.22,0,0,1-2.51,2.52,2.52,2.52,0,1,1,0-5A2.22,2.22,0,0,1,7.14,324.13Zm0-10a2.22,2.22,0,0,1-2.51,2.52,2.52,2.52,0,1,1,0-5A2.22,2.22,0,0,1,7.14,314.17Zm0-10a2.22,2.22,0,0,1-2.51,2.51,2.52,2.52,0,1,1,0-5A2.22,2.22,0,0,1,7.14,304.21Zm0-10a2.22,2.22,0,0,1-2.51,2.51,2.52,2.52,0,1,1,0-5A2.22,2.22,0,0,1,7.14,294.25Zm0-10a2.22,2.22,0,0,1-2.51,2.51,2.52,2.52,0,1,1,0-5A2.22,2.22,0,0,1,7.14,284.29Zm0-10a2.22,2.22,0,0,1-2.51,2.52,2.52,2.52,0,1,1,0-5A2.22,2.22,0,0,1,7.14,274.32Zm0-10a2.22,2.22,0,0,1-2.51,2.52,2.52,2.52,0,1,1,0-5A2.22,2.22,0,0,1,7.14,264.36Zm0-10a2.22,2.22,0,0,1-2.51,2.52,2.52,2.52,0,1,1,0-5A2.22,2.22,0,0,1,7.14,254.4Zm0-10A2.22,2.22,0,0,1,4.63,247a2.52,2.52,0,1,1,0-5A2.22,2.22,0,0,1,7.14,244.44Zm0-10A2.22,2.22,0,0,1,4.63,237a2.52,2.52,0,1,1,0-5A2.22,2.22,0,0,1,7.14,234.48Zm0-10A2.22,2.22,0,0,1,4.63,227a2.52,2.52,0,1,1,0-5A2.22,2.22,0,0,1,7.14,224.52Zm0-10a2.22,2.22,0,0,1-2.51,2.52,2.52,2.52,0,1,1,0-5A2.22,2.22,0,0,1,7.14,214.55Zm0-10a2.22,2.22,0,0,1-2.51,2.52,2.52,2.52,0,1,1,0-5A2.22,2.22,0,0,1,7.14,204.59Zm0-10a2.22,2.22,0,0,1-2.51,2.52,2.52,2.52,0,1,1,0-5A2.22,2.22,0,0,1,7.14,194.63Zm0-10a2.22,2.22,0,0,1-2.51,2.51,2.52,2.52,0,1,1,0-5A2.22,2.22,0,0,1,7.14,184.67Zm0-10a2.22,2.22,0,0,1-2.51,2.51,2.52,2.52,0,1,1,0-5A2.22,2.22,0,0,1,7.14,174.71Zm0-10a2.22,2.22,0,0,1-2.51,2.51,2.52,2.52,0,1,1,0-5A2.22,2.22,0,0,1,7.14,164.75Zm0-10a2.22,2.22,0,0,1-2.51,2.52,2.52,2.52,0,1,1,0-5A2.22,2.22,0,0,1,7.14,154.78Zm0-10a2.22,2.22,0,0,1-2.51,2.52,2.52,2.52,0,1,1,0-5A2.22,2.22,0,0,1,7.14,144.82Zm0-10a2.22,2.22,0,0,1-2.51,2.52,2.52,2.52,0,1,1,0-5A2.22,2.22,0,0,1,7.14,134.86Zm0-10a2.22,2.22,0,0,1-2.51,2.52,2.52,2.52,0,1,1,0-5A2.22,2.22,0,0,1,7.14,124.9Zm0-10a2.22,2.22,0,0,1-2.51,2.51,2.52,2.52,0,1,1,0-5A2.22,2.22,0,0,1,7.14,114.94Zm0-10a2.22,2.22,0,0,1-2.51,2.51,2.52,2.52,0,1,1,0-5A2.22,2.22,0,0,1,7.14,105Zm0-10a2.22,2.22,0,0,1-2.51,2.52,2.52,2.52,0,1,1,0-5A2.22,2.22,0,0,1,7.14,95Zm0-10a2.22,2.22,0,0,1-2.51,2.52,2.52,2.52,0,1,1,0-5A2.22,2.22,0,0,1,7.14,85.05Zm0-10a2.22,2.22,0,0,1-2.51,2.52,2.52,2.52,0,1,1,0-5A2.22,2.22,0,0,1,7.14,75.09Zm0-10a2.22,2.22,0,0,1-2.51,2.52,2.52,2.52,0,0,1,0-5A2.22,2.22,0,0,1,7.14,65.13Zm0-10a2.22,2.22,0,0,1-2.51,2.51,2.22,2.22,0,0,1-2.52-2.51,2.23,2.23,0,0,1,2.52-2.52A2.22,2.22,0,0,1,7.14,55.17Zm0-10a2.22,2.22,0,0,1-2.51,2.51,2.22,2.22,0,0,1-2.52-2.51,2.23,2.23,0,0,1,2.52-2.52A2.22,2.22,0,0,1,7.14,45.21Zm0-10a2.22,2.22,0,0,1-2.51,2.52,2.23,2.23,0,0,1-2.52-2.52,2.22,2.22,0,0,1,2.52-2.51A2.22,2.22,0,0,1,7.14,35.24Zm0-10A2.22,2.22,0,0,1,4.63,27.8a2.23,2.23,0,0,1-2.52-2.52,2.22,2.22,0,0,1,2.52-2.51A2.22,2.22,0,0,1,7.14,25.28Zm0-10a2.22,2.22,0,0,1-2.51,2.52,2.23,2.23,0,0,1-2.52-2.52,2.22,2.22,0,0,1,2.52-2.51A2.22,2.22,0,0,1,7.14,15.32Z" fill="#fff"/>
    <line x1="4.63" y1="343.97" x2="4.63" y2="343.97" fill="#fff" stroke="#fff" stroke-linecap="round" stroke-miterlimit="10" stroke-width="5.03"/>
    <g>
      <path d="M134.28,30.46a.71.71,0,0,1,.7-.72h4.72A5,5,0,0,1,143.28,31a3.5,3.5,0,0,1,1,2.49v0c0,2.07-1.4,3.28-3.36,3.66l3.13,4a.77.77,0,0,1,.23.52.74.74,0,0,1-.72.7.83.83,0,0,1-.66-.37l-3.55-4.61H135.7v4.26a.71.71,0,1,1-1.42,0Zm5.29,5.71c1.89,0,3.24-1,3.24-2.59v0c0-1.55-1.18-2.49-3.22-2.49H135.7v5.12Z" fill="#fff"/>
      <path d="M154.85,41.73a.68.68,0,1,1-1.36,0v-1a3.55,3.55,0,0,1-3.19,1.82,3.4,3.4,0,0,1-3.57-3.73V33.65a.68.68,0,0,1,.69-.7.7.7,0,0,1,.7.7v4.82c0,1.73.94,2.81,2.58,2.81a2.75,2.75,0,0,0,2.79-2.92V33.65a.67.67,0,0,1,.68-.7.68.68,0,0,1,.68.7Z" fill="#fff"/>
      <path d="M158.27,39.88V34.26h-.75a.63.63,0,0,1-.62-.61.61.61,0,0,1,.62-.61h.75v-2.2a.69.69,0,0,1,.69-.7.72.72,0,0,1,.7.7V33h2.41a.63.63,0,0,1,.63.61.62.62,0,0,1-.63.61h-2.41V39.7a1.38,1.38,0,0,0,1.57,1.55,3.83,3.83,0,0,0,.84-.13.6.6,0,0,1,.6.59.58.58,0,0,1-.4.54,3.38,3.38,0,0,1-1.37.26A2.37,2.37,0,0,1,158.27,39.88Z" fill="#fff"/>
      <path d="M165.36,39.88V34.26h-.75a.63.63,0,0,1-.61-.61.61.61,0,0,1,.61-.61h.75v-2.2a.69.69,0,0,1,.69-.7.71.71,0,0,1,.7.7V33h2.41a.62.62,0,0,1,.63.61.62.62,0,0,1-.63.61h-2.41V39.7a1.38,1.38,0,0,0,1.57,1.55,3.7,3.7,0,0,0,.84-.13.6.6,0,0,1,.6.59.57.57,0,0,1-.4.54,3.35,3.35,0,0,1-1.37.26A2.37,2.37,0,0,1,165.36,39.88Z" fill="#fff"/>
      <path d="M175.77,42.56a4.63,4.63,0,0,1-4.65-4.84v0a4.6,4.6,0,0,1,4.47-4.84c2.75,0,4.32,2.25,4.32,4.71a.65.65,0,0,1-.65.65h-6.73a3.25,3.25,0,0,0,3.28,3.15,3.81,3.81,0,0,0,2.68-1.08.6.6,0,0,1,.39-.16.61.61,0,0,1,.62.6.63.63,0,0,1-.22.45A4.75,4.75,0,0,1,175.77,42.56Zm2.75-5.38c-.14-1.7-1.11-3.17-3-3.17a3.21,3.21,0,0,0-3,3.17Z" fill="#fff"/>
      <path d="M182.18,33.65a.69.69,0,0,1,.68-.7.68.68,0,0,1,.7.7v1.74a3.86,3.86,0,0,1,3.21-2.48.66.66,0,0,1,.68.7.68.68,0,0,1-.61.7c-1.8.22-3.28,1.57-3.28,4.25v3.17a.69.69,0,1,1-1.38,0Z" fill="#fff"/>
      <path d="M193.93,37.73v0a4.85,4.85,0,0,1,9.7,0v0a4.83,4.83,0,0,1-4.87,4.86A4.77,4.77,0,0,1,193.93,37.73Zm8.28,0v0a3.52,3.52,0,0,0-3.45-3.64,3.44,3.44,0,0,0-3.41,3.6v0a3.49,3.49,0,0,0,3.44,3.62A3.43,3.43,0,0,0,202.21,37.73Z" fill="#fff"/>
      <path d="M205.38,37.73v0a4.84,4.84,0,0,1,8.19-3.51.64.64,0,0,1,.22.48.67.67,0,0,1-.67.67.72.72,0,0,1-.45-.16,3.6,3.6,0,0,0-2.54-1.12,3.43,3.43,0,0,0-3.33,3.6v0a3.48,3.48,0,0,0,3.42,3.62,3.71,3.71,0,0,0,2.59-1.14.56.56,0,0,1,.4-.18.65.65,0,0,1,.63.63.65.65,0,0,1-.18.44,4.68,4.68,0,0,1-3.51,1.49A4.78,4.78,0,0,1,205.38,37.73Z" fill="#fff"/>
      <path d="M216.05,29.81a.7.7,0,1,1,1.39,0v4.85a3.52,3.52,0,0,1,3.19-1.82,3.39,3.39,0,0,1,3.56,3.72v5.17a.7.7,0,1,1-1.39,0V36.91c0-1.73-.93-2.81-2.57-2.81A2.74,2.74,0,0,0,217.44,37v4.72a.68.68,0,0,1-.69.7.69.69,0,0,1-.7-.7Z" fill="#fff"/>
      <path d="M232.66,39.88V34.26h-.75a.63.63,0,0,1-.61-.61.61.61,0,0,1,.61-.61h.75v-2.2a.69.69,0,0,1,.69-.7.71.71,0,0,1,.7.7V33h2.41a.62.62,0,0,1,.63.61.62.62,0,0,1-.63.61h-2.41V39.7a1.38,1.38,0,0,0,1.57,1.55,3.7,3.7,0,0,0,.84-.13.6.6,0,0,1,.6.59.57.57,0,0,1-.4.54,3.35,3.35,0,0,1-1.37.26A2.37,2.37,0,0,1,232.66,39.88Z" fill="#fff"/>
      <path d="M239.27,30.12a.82.82,0,0,1,1.64,0v.23a.82.82,0,0,1-1.64,0Zm.13,3.53a.69.69,0,0,1,.68-.7.68.68,0,0,1,.7.7v8.08a.67.67,0,0,1-.68.7.68.68,0,0,1-.7-.7Z" fill="#fff"/>
      <path d="M252.68,41.73a.69.69,0,1,1-1.38,0V40.47a4.19,4.19,0,0,1-3.57,2.07,4.54,4.54,0,0,1-4.45-4.82v0a4.57,4.57,0,0,1,4.45-4.84,4.19,4.19,0,0,1,3.57,2v-5a.67.67,0,0,1,.68-.7.69.69,0,0,1,.7.7Zm-8-4.07v0A3.36,3.36,0,0,0,248,41.3a3.48,3.48,0,0,0,3.37-3.6v0A3.46,3.46,0,0,0,248,34.08,3.28,3.28,0,0,0,244.71,37.66Z" fill="#fff"/>
      <path d="M256.08,39.88V34.26h-.75a.63.63,0,0,1-.62-.61.61.61,0,0,1,.62-.61h.75v-2.2a.69.69,0,0,1,.69-.7.71.71,0,0,1,.7.7V33h2.41a.63.63,0,0,1,.63.61.62.62,0,0,1-.63.61h-2.41V39.7A1.38,1.38,0,0,0,259,41.25a3.83,3.83,0,0,0,.84-.13.6.6,0,0,1,.6.59.58.58,0,0,1-.4.54,3.38,3.38,0,0,1-1.37.26A2.37,2.37,0,0,1,256.08,39.88Z" fill="#fff"/>
      <path d="M262,39.64v0c0-2,1.62-3,4-3a9.73,9.73,0,0,1,2.87.4v-.33c0-1.67-1-2.54-2.78-2.54a5.78,5.78,0,0,0-2.41.53.85.85,0,0,1-.25.05.62.62,0,0,1-.61-.59.64.64,0,0,1,.38-.58,7.23,7.23,0,0,1,3-.63,4.09,4.09,0,0,1,3,1,3.66,3.66,0,0,1,1,2.71v5.1a.65.65,0,0,1-.67.68.63.63,0,0,1-.66-.64v-.85a4.07,4.07,0,0,1-3.37,1.6C263.73,42.54,262,41.55,262,39.64Zm6.86-.72V38a9.75,9.75,0,0,0-2.74-.39c-1.75,0-2.72.75-2.72,1.92v0c0,1.17,1.08,1.85,2.34,1.85C267.44,41.44,268.85,40.4,268.85,38.92Z" fill="#fff"/>
      <path d="M272.93,29.81a.7.7,0,1,1,1.39,0v5.1a4.16,4.16,0,0,1,3.56-2.07,4.54,4.54,0,0,1,4.45,4.82v0a4.56,4.56,0,0,1-4.45,4.84,4.17,4.17,0,0,1-3.56-2v1.17a.69.69,0,0,1-.69.7.7.7,0,0,1-.7-.7Zm8,7.91v0a3.35,3.35,0,0,0-3.28-3.6,3.47,3.47,0,0,0-3.37,3.58v0a3.47,3.47,0,0,0,3.37,3.6A3.29,3.29,0,0,0,280.91,37.72Z" fill="#fff"/>
      <path d="M288.77,42.56a4.62,4.62,0,0,1-4.64-4.84v0a4.59,4.59,0,0,1,4.46-4.84c2.76,0,4.32,2.25,4.32,4.71a.64.64,0,0,1-.65.65h-6.73a3.25,3.25,0,0,0,3.28,3.15,3.8,3.8,0,0,0,2.68-1.08.6.6,0,0,1,1,.44.59.59,0,0,1-.22.45A4.74,4.74,0,0,1,288.77,42.56Zm2.76-5.38c-.15-1.7-1.12-3.17-3-3.17a3.21,3.21,0,0,0-3,3.17Z" fill="#fff"/>
      <path d="M295.3,29.81a.7.7,0,1,1,1.39,0V41.73a.67.67,0,0,1-.68.7.69.69,0,0,1-.71-.7Z" fill="#fff"/>
      <path d="M299.86,29.81a.69.69,0,1,1,1.38,0V41.73a.67.67,0,0,1-.68.7.68.68,0,0,1-.7-.7Z" fill="#fff"/>
      <path d="M308.35,42.56a4.62,4.62,0,0,1-4.64-4.84v0a4.59,4.59,0,0,1,4.46-4.84c2.76,0,4.33,2.25,4.33,4.71a.65.65,0,0,1-.65.65h-6.74a3.25,3.25,0,0,0,3.28,3.15,3.8,3.8,0,0,0,2.68-1.08.62.62,0,0,1,.4-.16.6.6,0,0,1,.61.6.61.61,0,0,1-.21.45A4.78,4.78,0,0,1,308.35,42.56Zm2.76-5.38c-.14-1.7-1.12-3.17-3-3.17a3.21,3.21,0,0,0-3,3.17Z" fill="#fff"/>
      <path d="M314.76,33.65a.7.7,0,1,1,1.39,0v1.74a3.83,3.83,0,0,1,3.2-2.48.66.66,0,0,1,.69.7.69.69,0,0,1-.62.7c-1.8.22-3.27,1.57-3.27,4.25v3.17a.7.7,0,1,1-1.39,0Z" fill="#fff"/>
      <path d="M134.28,52.46a.71.71,0,0,1,.7-.72h4.72A5,5,0,0,1,143.28,53a3.5,3.5,0,0,1,1,2.49v0c0,2.07-1.4,3.28-3.36,3.66l3.13,4a.77.77,0,0,1,.23.52.74.74,0,0,1-.72.7.83.83,0,0,1-.66-.37l-3.55-4.61H135.7v4.26a.71.71,0,1,1-1.42,0Zm5.29,5.71c1.89,0,3.24-1,3.24-2.59v0c0-1.55-1.18-2.49-3.22-2.49H135.7v5.12Z" fill="#fff"/>
      <path d="M146.12,59.73v0a4.86,4.86,0,0,1,9.71,0v0A4.83,4.83,0,0,1,151,64.56,4.78,4.78,0,0,1,146.12,59.73Zm8.29,0v0A3.53,3.53,0,0,0,151,56.06a3.43,3.43,0,0,0-3.4,3.6v0A3.49,3.49,0,0,0,151,63.32,3.44,3.44,0,0,0,154.41,59.73Z" fill="#fff"/>
      <path d="M166.12,63.73a.69.69,0,1,1-1.37,0v-1a3.54,3.54,0,0,1-3.18,1.82A3.4,3.4,0,0,1,158,60.81V55.65a.68.68,0,0,1,.69-.7.7.7,0,0,1,.7.7v4.82c0,1.73.94,2.81,2.57,2.81a2.75,2.75,0,0,0,2.79-2.92V55.65a.69.69,0,1,1,1.37,0Z" fill="#fff"/>
      <path d="M169.54,61.88V56.26h-.76a.63.63,0,0,1-.61-.61.61.61,0,0,1,.61-.61h.76v-2.2a.69.69,0,0,1,.69-.7.72.72,0,0,1,.7.7V55h2.41a.63.63,0,0,1,.63.61.62.62,0,0,1-.63.61h-2.41V61.7a1.38,1.38,0,0,0,1.56,1.55,3.84,3.84,0,0,0,.85-.13.6.6,0,0,1,.59.59.57.57,0,0,1-.39.54,3.38,3.38,0,0,1-1.37.26A2.37,2.37,0,0,1,169.54,61.88Z" fill="#fff"/>
      <path d="M179.94,64.56a4.62,4.62,0,0,1-4.64-4.84v0a4.59,4.59,0,0,1,4.47-4.84c2.75,0,4.32,2.25,4.32,4.71a.65.65,0,0,1-.65.65H176.7A3.25,3.25,0,0,0,180,63.35a3.8,3.8,0,0,0,2.68-1.08.62.62,0,0,1,.4-.16.6.6,0,0,1,.61.6.61.61,0,0,1-.21.45A4.78,4.78,0,0,1,179.94,64.56Zm2.76-5.38c-.14-1.7-1.12-3.17-3-3.17a3.21,3.21,0,0,0-3,3.17Z" fill="#fff"/>
      <path d="M185.85,63.35a.61.61,0,0,1,.36-1.1.58.58,0,0,1,.34.11,5.19,5.19,0,0,0,2.95,1c1.12,0,1.93-.57,1.93-1.47v0c0-.94-1.1-1.3-2.32-1.64-1.46-.41-3.08-.92-3.08-2.63v0c0-1.6,1.33-2.67,3.17-2.67a6.44,6.44,0,0,1,3,.8.65.65,0,0,1,.34.57.6.6,0,0,1-.61.6.64.64,0,0,1-.31-.08,5,5,0,0,0-2.43-.72c-1.1,0-1.8.58-1.8,1.35v0c0,.88,1.15,1.22,2.39,1.6,1.44.43,3,1,3,2.67v0c0,1.77-1.46,2.79-3.31,2.79A6.45,6.45,0,0,1,185.85,63.35Z" fill="#fff"/>
      <path d="M199.65,61.64v0c0-2,1.62-3,4-3a9.73,9.73,0,0,1,2.87.4v-.33c0-1.67-1-2.54-2.78-2.54a5.74,5.74,0,0,0-2.41.53.85.85,0,0,1-.25.05.61.61,0,0,1-.61-.59.63.63,0,0,1,.37-.58,7.31,7.31,0,0,1,3.05-.63,4,4,0,0,1,3,1,3.67,3.67,0,0,1,1,2.71v5.1a.65.65,0,0,1-.67.68.63.63,0,0,1-.66-.64v-.85a4.07,4.07,0,0,1-3.37,1.6C201.4,64.54,199.65,63.55,199.65,61.64Zm6.86-.72V60a9.61,9.61,0,0,0-2.73-.39c-1.75,0-2.72.75-2.72,1.92v0c0,1.17,1.08,1.85,2.34,1.85C205.11,63.44,206.51,62.4,206.51,60.92Z" fill="#fff"/>
      <path d="M210.6,55.65a.69.69,0,0,1,.68-.7.68.68,0,0,1,.7.7v1a3.54,3.54,0,0,1,3.19-1.82,3.39,3.39,0,0,1,3.56,3.72v5.17a.69.69,0,1,1-1.38,0V58.91c0-1.73-.94-2.81-2.58-2.81A2.74,2.74,0,0,0,212,59v4.72a.67.67,0,0,1-.68.7.68.68,0,0,1-.7-.7Z" fill="#fff"/>
      <path d="M230.36,63.73a.69.69,0,1,1-1.38,0V62.47a4.19,4.19,0,0,1-3.57,2.07A4.54,4.54,0,0,1,221,59.72v0a4.57,4.57,0,0,1,4.45-4.84,4.19,4.19,0,0,1,3.57,2v-5a.68.68,0,0,1,.68-.7.69.69,0,0,1,.7.7Zm-8-4.07v0a3.36,3.36,0,0,0,3.27,3.6A3.48,3.48,0,0,0,229,59.7v0a3.46,3.46,0,0,0-3.37-3.58A3.28,3.28,0,0,0,222.39,59.66Z" fill="#fff"/>
      <path d="M239,61.88V56.26h-.75a.63.63,0,0,1-.62-.61.61.61,0,0,1,.62-.61H239v-2.2a.69.69,0,0,1,.69-.7.72.72,0,0,1,.7.7V55h2.41a.63.63,0,0,1,.63.61.62.62,0,0,1-.63.61h-2.41V61.7a1.38,1.38,0,0,0,1.57,1.55,3.83,3.83,0,0,0,.84-.13.6.6,0,0,1,.6.59.58.58,0,0,1-.4.54,3.38,3.38,0,0,1-1.37.26A2.37,2.37,0,0,1,239,61.88Z" fill="#fff"/>
      <path d="M245.59,52.12a.82.82,0,0,1,1.64,0v.23a.82.82,0,0,1-1.64,0Zm.12,3.53a.7.7,0,0,1,.69-.7.69.69,0,0,1,.7.7v8.08a.67.67,0,0,1-.68.7.69.69,0,0,1-.71-.7Z" fill="#fff"/>
      <path d="M250.14,55.65a.7.7,0,0,1,.69-.7.69.69,0,0,1,.7.7v1a3.39,3.39,0,0,1,3-1.76,3.16,3.16,0,0,1,3,1.85,3.73,3.73,0,0,1,3.28-1.85c2.14,0,3.46,1.44,3.46,3.74v5.15a.7.7,0,1,1-1.39,0V58.91c0-1.8-.9-2.81-2.41-2.81A2.59,2.59,0,0,0,257.9,59v4.75a.69.69,0,1,1-1.38,0V58.87c0-1.75-.92-2.77-2.4-2.77A2.69,2.69,0,0,0,251.53,59v4.7a.68.68,0,0,1-.69.7.69.69,0,0,1-.7-.7Z" fill="#fff"/>
      <path d="M271.15,64.56a4.63,4.63,0,0,1-4.65-4.84v0A4.6,4.6,0,0,1,271,54.84c2.75,0,4.32,2.25,4.32,4.71a.65.65,0,0,1-.65.65h-6.73a3.25,3.25,0,0,0,3.28,3.15,3.81,3.81,0,0,0,2.68-1.08.6.6,0,0,1,.39-.16.61.61,0,0,1,.62.6.63.63,0,0,1-.22.45A4.75,4.75,0,0,1,271.15,64.56Zm2.75-5.38c-.14-1.7-1.11-3.17-3-3.17a3.21,3.21,0,0,0-3,3.17Z" fill="#fff"/>
      <path d="M278,61.88V56.26h-.75a.63.63,0,0,1-.62-.61.61.61,0,0,1,.62-.61H278v-2.2a.69.69,0,0,1,.69-.7.72.72,0,0,1,.7.7V55h2.41a.63.63,0,0,1,.63.61.62.62,0,0,1-.63.61h-2.41V61.7A1.38,1.38,0,0,0,281,63.25a3.84,3.84,0,0,0,.85-.13.6.6,0,0,1,.6.59.58.58,0,0,1-.4.54,3.38,3.38,0,0,1-1.37.26A2.37,2.37,0,0,1,278,61.88Z" fill="#fff"/>
      <path d="M284,61.64v0c0-2,1.62-3,4-3a9.73,9.73,0,0,1,2.87.4v-.33c0-1.67-1-2.54-2.78-2.54a5.78,5.78,0,0,0-2.41.53.85.85,0,0,1-.25.05.62.62,0,0,1-.61-.59.64.64,0,0,1,.38-.58,7.23,7.23,0,0,1,3-.63,4.09,4.09,0,0,1,3,1,3.66,3.66,0,0,1,.95,2.71v5.1a.65.65,0,0,1-.67.68.63.63,0,0,1-.66-.64v-.85a4.07,4.07,0,0,1-3.37,1.6C285.69,64.54,284,63.55,284,61.64Zm6.86-.72V60a9.75,9.75,0,0,0-2.74-.39c-1.75,0-2.72.75-2.72,1.92v0c0,1.17,1.08,1.85,2.34,1.85C289.4,63.44,290.81,62.4,290.81,60.92Z" fill="#fff"/>
      <path d="M294.89,51.81a.7.7,0,1,1,1.39,0v5.1a4.16,4.16,0,0,1,3.56-2.07,4.54,4.54,0,0,1,4.45,4.82v0a4.56,4.56,0,0,1-4.45,4.84,4.17,4.17,0,0,1-3.56-2v1.17a.69.69,0,0,1-.69.7.7.7,0,0,1-.7-.7Zm8,7.91v0a3.35,3.35,0,0,0-3.28-3.6,3.47,3.47,0,0,0-3.37,3.58v0a3.47,3.47,0,0,0,3.37,3.6A3.29,3.29,0,0,0,302.87,59.72Z" fill="#fff"/>
      <path d="M306.79,51.81a.69.69,0,1,1,1.38,0V63.73a.67.67,0,0,1-.68.7.68.68,0,0,1-.7-.7Z" fill="#fff"/>
      <path d="M315.28,64.56a4.62,4.62,0,0,1-4.64-4.84v0a4.59,4.59,0,0,1,4.46-4.84c2.76,0,4.33,2.25,4.33,4.71a.65.65,0,0,1-.65.65H312a3.25,3.25,0,0,0,3.28,3.15A3.8,3.8,0,0,0,318,62.27a.62.62,0,0,1,.4-.16.6.6,0,0,1,.61.6.61.61,0,0,1-.21.45A4.78,4.78,0,0,1,315.28,64.56ZM318,59.18c-.14-1.7-1.12-3.17-3-3.17a3.21,3.21,0,0,0-3,3.17Z" fill="#fff"/>
      <path d="M321.19,63.35a.61.61,0,0,1,.36-1.1.58.58,0,0,1,.34.11,5.19,5.19,0,0,0,2.95,1c1.12,0,1.93-.57,1.93-1.47v0c0-.94-1.1-1.3-2.32-1.64-1.46-.41-3.08-.92-3.08-2.63v0c0-1.6,1.33-2.67,3.17-2.67a6.44,6.44,0,0,1,3,.8.65.65,0,0,1,.34.57.6.6,0,0,1-.61.6.64.64,0,0,1-.31-.08A5,5,0,0,0,324.5,56c-1.1,0-1.8.58-1.8,1.35v0c0,.88,1.15,1.22,2.39,1.6,1.44.43,3,1,3,2.67v0c0,1.77-1.46,2.79-3.31,2.79A6.45,6.45,0,0,1,321.19,63.35Z" fill="#fff"/>
    </g>
  </g>
</svg>
