<svg id="a8491bc8-c16a-4467-96fc-83b1d6f4ecff" data-name="Layer 1" xmlns="http://www.w3.org/2000/svg" viewBox="0 0 403.4 343.64">
  <title>Customer_service_456,38x382,68px_4.2.2020_konv</title>
  <g id="a2644f73-bacd-4b3e-8876-3c1fb05dc33f" data-name="Footer">
    <path d="M139.27,133a1.48,1.48,0,0,0,2.95,0v-5.75h8V133a1.48,1.48,0,0,0,3,0V118.89a1.48,1.48,0,0,0-3,0v5.66h-8v-5.66a1.48,1.48,0,0,0-2.95,0Z" transform="translate(-2.11 -2.85)" fill="#fff"/>
    <path d="M163.55,134.62c3.53,0,6-1.87,6-5v0c0-2.79-1.83-4.07-5.39-4.93-3.24-.77-4-1.35-4-2.65v0c0-1.1,1-2,2.74-2a7,7,0,0,1,3.87,1.27,1.41,1.41,0,0,0,2.16-1.15,1.34,1.34,0,0,0-.64-1.18,9.29,9.29,0,0,0-5.34-1.56c-3.34,0-5.75,2-5.75,4.88v0c0,3.1,2,4.16,5.6,5,3.13.72,3.8,1.37,3.8,2.58v0c0,1.26-1.15,2.12-3,2.12a7.25,7.25,0,0,1-4.71-1.73A1.4,1.4,0,0,0,158,130a1.38,1.38,0,0,0-.81,2.5A10.49,10.49,0,0,0,163.55,134.62Z" transform="translate(-2.11 -2.85)" fill="#fff"/>
    <path d="M173.14,132.89a1.47,1.47,0,0,0,1.49,1.49h9.08a1.35,1.35,0,1,0,0-2.69h-7.62v-12.8a1.48,1.48,0,0,0-3,0Z" transform="translate(-2.11 -2.85)" fill="#fff"/>
    <path d="M199.37,127.7l3-6.81,3,6.81Zm-5.29,5.43a1.35,1.35,0,0,0,1.37,1.37,1.41,1.41,0,0,0,1.37-.94l1.42-3.24h8.18l1.37,3.15a1.52,1.52,0,0,0,1.44,1,1.38,1.38,0,0,0,1.39-1.42,1.26,1.26,0,0,0-.17-.62l-6.25-14a1.82,1.82,0,0,0-1.75-1.2h-.15a1.85,1.85,0,0,0-1.77,1.2l-6.25,14A1.51,1.51,0,0,0,194.08,133.13Z" transform="translate(-2.11 -2.85)" fill="#fff"/>
    <path d="M218.07,134.62c2.64,0,4.71-1.32,4.71-4v0c0-2.28-2.09-3.12-3.95-3.7-1.49-.48-2.86-.87-2.86-1.8v0c0-.72.65-1.25,1.78-1.25a6.87,6.87,0,0,1,3,.86,1.14,1.14,0,0,0,.58.15,1.17,1.17,0,0,0,1.2-1.18,1.25,1.25,0,0,0-.69-1.11,8.74,8.74,0,0,0-4-1c-2.53,0-4.52,1.46-4.52,3.87v0c0,2.43,2.09,3.2,4,3.73,1.49.45,2.84.79,2.84,1.77v.05c0,.84-.72,1.37-2,1.37a6.76,6.76,0,0,1-3.66-1.22,1.19,1.19,0,0,0-.62-.17,1.17,1.17,0,0,0-1.18,1.18,1.12,1.12,0,0,0,.55,1A8.68,8.68,0,0,0,218.07,134.62Z" transform="translate(-2.11 -2.85)" fill="#fff"/>
    <path d="M225.81,133.06a1.46,1.46,0,0,0,2.91,0V123a1.46,1.46,0,0,0-1.46-1.47,1.44,1.44,0,0,0-1.45,1.47Zm-.21-14.65a1.68,1.68,0,0,0,3.32,0v-.14a1.68,1.68,0,0,0-3.32,0Z" transform="translate(-2.11 -2.85)" fill="#fff"/>
    <path d="M236.9,132.53c-1.39,0-2.48-.7-2.48-1.92v-.05c0-1.32,1.11-2.12,3-2.12a8,8,0,0,1,2.89.51v.86C240.29,131.42,238.82,132.53,236.9,132.53Zm-.82,2.12a5.16,5.16,0,0,0,4.14-1.86v.49a1.31,1.31,0,0,0,1.42,1.22,1.38,1.38,0,0,0,1.41-1.39v-6.26a5.28,5.28,0,0,0-1.37-3.92,5.68,5.68,0,0,0-4.2-1.41,10.83,10.83,0,0,0-4.09.74,1.28,1.28,0,0,0-.79,1.16,1.21,1.21,0,0,0,1.22,1.2,2,2,0,0,0,.46-.07,7.38,7.38,0,0,1,2.81-.51c2,0,3.15,1,3.15,2.77v.31a10.61,10.61,0,0,0-3.41-.53c-3.1,0-5.24,1.35-5.24,4.09v0C231.59,133.28,233.7,134.65,236.08,134.65Z" transform="translate(-2.11 -2.85)" fill="#fff"/>
    <path d="M246.57,133.06a1.46,1.46,0,0,0,2.91,0v-2.21l1.93-1.83,3.63,4.83a1.43,1.43,0,0,0,1.27.65,1.31,1.31,0,0,0,1.37-1.32,1.55,1.55,0,0,0-.38-1l-3.85-5,3.36-3.1a1.67,1.67,0,0,0,.65-1.23,1.28,1.28,0,0,0-1.27-1.32,1.68,1.68,0,0,0-1.25.63l-5.46,5.36v-9.38a1.45,1.45,0,0,0-1.46-1.44,1.44,1.44,0,0,0-1.45,1.44Z" transform="translate(-2.11 -2.85)" fill="#fff"/>
    <path d="M264.82,132.53c-1.39,0-2.48-.7-2.48-1.92v-.05c0-1.32,1.11-2.12,3-2.12a8,8,0,0,1,2.89.51v.86C268.21,131.42,266.74,132.53,264.82,132.53Zm-.82,2.12a5.16,5.16,0,0,0,4.14-1.86v.49a1.31,1.31,0,0,0,1.42,1.22,1.38,1.38,0,0,0,1.41-1.39v-6.26a5.28,5.28,0,0,0-1.37-3.92,5.68,5.68,0,0,0-4.2-1.41,10.83,10.83,0,0,0-4.09.74,1.28,1.28,0,0,0-.79,1.16,1.21,1.21,0,0,0,1.22,1.2,2,2,0,0,0,.46-.07A7.38,7.38,0,0,1,265,124c2.05,0,3.15,1,3.15,2.77v.31a10.61,10.61,0,0,0-3.41-.53c-3.1,0-5.24,1.35-5.24,4.09v0C259.51,133.28,261.62,134.65,264,134.65Z" transform="translate(-2.11 -2.85)" fill="#fff"/>
    <path d="M278.83,134.62c2.65,0,4.72-1.32,4.72-4v0c0-2.28-2.09-3.12-3.95-3.7-1.49-.48-2.86-.87-2.86-1.8v0c0-.72.65-1.25,1.78-1.25a6.87,6.87,0,0,1,3,.86,1.14,1.14,0,0,0,.58.15,1.17,1.17,0,0,0,1.2-1.18,1.25,1.25,0,0,0-.69-1.11,8.75,8.75,0,0,0-4-1c-2.52,0-4.51,1.46-4.51,3.87v0c0,2.43,2.09,3.2,4,3.73,1.49.45,2.84.79,2.84,1.77v.05c0,.84-.72,1.37-2,1.37a6.76,6.76,0,0,1-3.66-1.22,1.22,1.22,0,0,0-.62-.17,1.16,1.16,0,0,0-1.18,1.18,1.12,1.12,0,0,0,.55,1A8.67,8.67,0,0,0,278.83,134.62Z" transform="translate(-2.11 -2.85)" fill="#fff"/>
    <path d="M293.11,132.12a3.82,3.82,0,0,1-3.7-4.06V128a3.83,3.83,0,0,1,3.7-4.07,3.76,3.76,0,0,1,3.63,4.07v.05C296.74,130.56,295.11,132.12,293.11,132.12Zm-6.53,4.79a1.45,1.45,0,0,0,2.9,0v-4.5a5.2,5.2,0,0,0,4.33,2.24c3,0,5.89-2.38,5.89-6.59V128c0-4.23-2.91-6.59-5.89-6.59a5.09,5.09,0,0,0-4.33,2.38V123a1.45,1.45,0,0,0-1.46-1.47,1.43,1.43,0,0,0-1.44,1.47Z" transform="translate(-2.11 -2.85)" fill="#fff"/>
    <path d="M307.07,132.53c-1.4,0-2.48-.7-2.48-1.92v-.05c0-1.32,1.11-2.12,3-2.12a8.09,8.09,0,0,1,2.89.51v.86C310.46,131.42,309,132.53,307.07,132.53Zm-.82,2.12a5.12,5.12,0,0,0,4.13-1.86v.49a1.31,1.31,0,0,0,1.42,1.22,1.39,1.39,0,0,0,1.42-1.39v-6.26a5.28,5.28,0,0,0-1.37-3.92,5.71,5.71,0,0,0-4.21-1.41,10.77,10.77,0,0,0-4.08.74,1.27,1.27,0,0,0-.8,1.16,1.22,1.22,0,0,0,1.23,1.2,2.06,2.06,0,0,0,.46-.07,7.35,7.35,0,0,1,2.81-.51c2,0,3.15,1,3.15,2.77v.31a10.73,10.73,0,0,0-3.42-.53c-3.1,0-5.24,1.35-5.24,4.09v0C301.75,133.28,303.87,134.65,306.25,134.65Z" transform="translate(-2.11 -2.85)" fill="#fff"/>
    <path d="M316.82,133.06a1.46,1.46,0,0,0,2.91,0V118.15a1.45,1.45,0,0,0-1.47-1.44,1.43,1.43,0,0,0-1.44,1.44Z" transform="translate(-2.11 -2.85)" fill="#fff"/>
    <path d="M330,133.35l4.23-9.72a1.75,1.75,0,0,0,.17-.7,1.39,1.39,0,0,0-1.42-1.39,1.44,1.44,0,0,0-1.37,1L328.32,131l-3.27-8.42a1.47,1.47,0,0,0-1.44-1.06,1.45,1.45,0,0,0-1.44,1.39,2.11,2.11,0,0,0,.17.73l4.23,9.69a1.79,1.79,0,0,0,1.66,1.27h.14A1.85,1.85,0,0,0,330,133.35Z" transform="translate(-2.11 -2.85)" fill="#fff"/>
    <path d="M346.94,133a1.27,1.27,0,0,0,.39-.89,1.15,1.15,0,0,0-1.16-1.18,1.09,1.09,0,0,0-.74.26,4.54,4.54,0,0,1-3,1.11,3.54,3.54,0,0,1-3.65-3.22h8a1.36,1.36,0,0,0,1.37-1.4,6,6,0,0,0-6-6.25,6.3,6.3,0,0,0-6.2,6.61v.05a6.34,6.34,0,0,0,6.51,6.59A6.53,6.53,0,0,0,346.94,133Zm-8.2-5.85c.27-2,1.52-3.34,3.3-3.34s3,1.47,3.22,3.34Z" transform="translate(-2.11 -2.85)" fill="#fff"/>
    <path d="M351.12,133.06a1.46,1.46,0,0,0,2.91,0V118.15a1.45,1.45,0,0,0-1.47-1.44,1.43,1.43,0,0,0-1.44,1.44Z" transform="translate(-2.11 -2.85)" fill="#fff"/>
    <path d="M369,123a1.47,1.47,0,0,0-1.47-1.47,1.45,1.45,0,0,0-1.46,1.47v5.84a2.81,2.81,0,0,1-2.87,3.13c-1.73,0-2.71-1.11-2.71-3.08V123a1.46,1.46,0,1,0-2.91,0v6.75c0,3,1.66,4.89,4.52,4.89a4.59,4.59,0,0,0,4-2.24v.65a1.47,1.47,0,0,0,2.93,0Z" transform="translate(-2.11 -2.85)" fill="#fff"/>
    <path d="M138.89,155.4a.71.71,0,1,0,1.42,0v-5.05h7.29v5.05a.71.71,0,1,0,1.42,0V144a.71.71,0,1,0-1.42,0v5h-7.29v-5a.71.71,0,1,0-1.42,0Z" transform="translate(-2.11 -2.85)" fill="#fff"/>
    <path d="M154.17,149.84v-5.12h3.89c2,0,3.23.94,3.23,2.49v0c0,1.62-1.35,2.59-3.25,2.59Zm-1.43,5.56a.72.72,0,1,0,1.43,0v-4.28h3.62l3.55,4.62a.84.84,0,0,0,.67.38.75.75,0,0,0,.72-.7.8.8,0,0,0-.23-.53l-3.14-4c2-.38,3.37-1.58,3.37-3.66v0a3.47,3.47,0,0,0-1-2.48,5,5,0,0,0-3.59-1.27h-4.72a.73.73,0,0,0-.71.72Z" transform="translate(-2.11 -2.85)" fill="#fff"/>
    <path d="M168.76,155.4a.72.72,0,0,0,1.44,0V144.72h3.66a.67.67,0,0,0,.67-.65.68.68,0,0,0-.67-.67H165.1a.68.68,0,0,0-.67.67.67.67,0,0,0,.67.65h3.66Z" transform="translate(-2.11 -2.85)" fill="#fff"/>
    <path d="M182.53,155.4a.71.71,0,1,0,1.42,0v-2.74l2.72-2.73,4.71,5.86a.7.7,0,0,0,.58.33.74.74,0,0,0,.72-.72.79.79,0,0,0-.2-.53l-4.8-5.91,4.47-4.44a.68.68,0,0,0,.24-.5.72.72,0,0,0-.69-.71.82.82,0,0,0-.56.26L184,150.94V144a.71.71,0,1,0-1.42,0Z" transform="translate(-2.11 -2.85)" fill="#fff"/>
    <path d="M202.7,147.32a.69.69,0,1,0-1.37,0V152a2.75,2.75,0,0,1-2.79,2.92c-1.64,0-2.58-1.08-2.58-2.81v-4.83a.71.71,0,0,0-.7-.71.68.68,0,0,0-.69.71v5.17a3.41,3.41,0,0,0,3.57,3.74,3.55,3.55,0,0,0,3.19-1.82v1a.69.69,0,1,0,1.37,0Z" transform="translate(-2.11 -2.85)" fill="#fff"/>
    <path d="M205.73,155.42a.7.7,0,0,0,.71.7.68.68,0,0,0,.68-.7v-4.73a2.74,2.74,0,0,1,2.8-2.92c1.64,0,2.58,1.08,2.58,2.81v4.84a.69.69,0,1,0,1.38,0v-5.18a3.4,3.4,0,0,0-3.57-3.73,3.54,3.54,0,0,0-3.19,1.82v-1a.69.69,0,0,0-.7-.71.71.71,0,0,0-.69.71Z" transform="translate(-2.11 -2.85)" fill="#fff"/>
    <path d="M221,147.75a3.46,3.46,0,0,1,3.37,3.59v0A3.48,3.48,0,0,1,221,155a3.36,3.36,0,0,1-3.28-3.6v0A3.29,3.29,0,0,1,221,147.75Zm4.7-4.27a.69.69,0,0,0-.7-.71.68.68,0,0,0-.68.71v5a4.19,4.19,0,0,0-3.57-2,4.57,4.57,0,0,0-4.46,4.85v0a4.55,4.55,0,0,0,4.46,4.84,4.2,4.2,0,0,0,3.57-2.08v1.27a.69.69,0,1,0,1.38,0Z" transform="translate(-2.11 -2.85)" fill="#fff"/>
    <path d="M231.81,156.21c1.86,0,3.32-1,3.32-2.8v0c0-1.68-1.55-2.24-3-2.67-1.24-.38-2.39-.72-2.39-1.61v0c0-.78.7-1.36,1.8-1.36a5,5,0,0,1,2.43.73.79.79,0,0,0,.31.07.6.6,0,0,0,.61-.6.65.65,0,0,0-.34-.57,6.45,6.45,0,0,0-3-.8c-1.83,0-3.17,1.07-3.17,2.67v0c0,1.71,1.62,2.22,3.08,2.63,1.23.34,2.33.7,2.33,1.64v0c0,.9-.81,1.48-1.93,1.48a5.26,5.26,0,0,1-3-1,.55.55,0,0,0-.34-.1.6.6,0,0,0-.61.59.62.62,0,0,0,.25.51A6.45,6.45,0,0,0,231.81,156.21Z" transform="translate(-2.11 -2.85)" fill="#fff"/>
    <path d="M245.13,154.84a.59.59,0,0,0,.22-.45.6.6,0,0,0-1-.44,3.78,3.78,0,0,1-2.69,1.09,3.26,3.26,0,0,1-3.28-3.16h6.74a.64.64,0,0,0,.65-.65c0-2.47-1.57-4.72-4.32-4.72a4.6,4.6,0,0,0-4.48,4.85v0a4.65,4.65,0,0,0,4.66,4.86A4.72,4.72,0,0,0,245.13,154.84Zm-6.76-4a3.21,3.21,0,0,1,3-3.17c1.86,0,2.83,1.48,3,3.17Z" transform="translate(-2.11 -2.85)" fill="#fff"/>
    <path d="M248.17,155.42a.7.7,0,1,0,1.39,0v-3.18c0-2.69,1.48-4,3.28-4.26a.68.68,0,0,0,.61-.7.66.66,0,0,0-.68-.7,3.86,3.86,0,0,0-3.21,2.49v-1.75a.7.7,0,0,0-.7-.71.71.71,0,0,0-.69.71Z" transform="translate(-2.11 -2.85)" fill="#fff"/>
    <path d="M260.26,155.58l3.52-7.94a1.07,1.07,0,0,0,.07-.34.69.69,0,0,0-.69-.69.67.67,0,0,0-.65.51l-3.06,7.32-3-7.29a.72.72,0,0,0-.71-.54.71.71,0,0,0-.7.69,1.75,1.75,0,0,0,.09.38l3.5,7.9a.85.85,0,0,0,.79.59h.07A.84.84,0,0,0,260.26,155.58Z" transform="translate(-2.11 -2.85)" fill="#fff"/>
    <path d="M266,155.42a.7.7,0,0,0,.7.7.68.68,0,0,0,.69-.7v-8.1a.7.7,0,1,0-1.39,0ZM265.9,144a.82.82,0,0,0,1.64,0v-.24a.82.82,0,0,0-1.64,0Z" transform="translate(-2.11 -2.85)" fill="#fff"/>
    <path d="M274.65,156.25a4.72,4.72,0,0,0,3.52-1.5.62.62,0,0,0,.18-.43.66.66,0,0,0-.63-.64.56.56,0,0,0-.4.18,3.73,3.73,0,0,1-2.6,1.14,3.48,3.48,0,0,1-3.42-3.62v0a3.44,3.44,0,0,1,3.33-3.61,3.63,3.63,0,0,1,2.55,1.12.7.7,0,0,0,.45.16.66.66,0,0,0,.66-.66.64.64,0,0,0-.21-.49,4.85,4.85,0,0,0-8.21,3.52v0A4.79,4.79,0,0,0,274.65,156.25Z" transform="translate(-2.11 -2.85)" fill="#fff"/>
    <path d="M288.14,154.84a.63.63,0,0,0,.22-.45.61.61,0,0,0-.62-.6.58.58,0,0,0-.39.16,3.8,3.8,0,0,1-2.69,1.09,3.26,3.26,0,0,1-3.28-3.16h6.74a.65.65,0,0,0,.65-.65c0-2.47-1.57-4.72-4.33-4.72a4.59,4.59,0,0,0-4.47,4.85v0a4.64,4.64,0,0,0,4.65,4.86A4.73,4.73,0,0,0,288.14,154.84Zm-6.76-4a3.21,3.21,0,0,1,3-3.17c1.85,0,2.83,1.48,3,3.17Z" transform="translate(-2.11 -2.85)" fill="#fff"/>
    <path d="M138.89,177a.71.71,0,1,0,1.42,0v-5h7.29v5a.71.71,0,1,0,1.42,0V165.68a.71.71,0,1,0-1.42,0v5h-7.29v-5a.71.71,0,1,0-1.42,0Z" transform="translate(-2.11 -2.85)" fill="#fff"/>
    <path d="M157,177.86c2.51,0,4.31-1.41,4.31-3.57v0c0-1.93-1.3-3-4.11-3.57s-3.43-1.26-3.43-2.46v0c0-1.14,1.05-2,2.69-2a5.3,5.3,0,0,1,3.26,1.1.7.7,0,0,0,1.1-.56.75.75,0,0,0-.3-.58,6.47,6.47,0,0,0-4-1.24c-2.39,0-4.14,1.46-4.14,3.44v0c0,2.08,1.33,3,4.24,3.64,2.65.56,3.28,1.23,3.28,2.4v0c0,1.24-1.12,2.15-2.82,2.15a5.74,5.74,0,0,1-4-1.5.62.62,0,0,0-.43-.16.69.69,0,0,0-.69.7.65.65,0,0,0,.27.54A7.38,7.38,0,0,0,157,177.86Z" transform="translate(-2.11 -2.85)" fill="#fff"/>
    <path d="M164.28,177a.73.73,0,0,0,.71.73h7.26a.65.65,0,0,0,.65-.65.67.67,0,0,0-.65-.67h-6.54V165.68a.72.72,0,1,0-1.43,0Z" transform="translate(-2.11 -2.85)" fill="#fff"/>
    <path d="M186.62,177.89a6.44,6.44,0,0,0,4.69-1.86.64.64,0,0,0,.24-.5.72.72,0,0,0-.69-.69.65.65,0,0,0-.45.2,5.18,5.18,0,0,1-3.75,1.54,5,5,0,0,1-4.89-5.22v0a5,5,0,0,1,4.89-5.18,5.17,5.17,0,0,1,3.62,1.44.8.8,0,0,0,.47.17.71.71,0,0,0,.43-1.28,6.49,6.49,0,0,0-4.5-1.65,6.36,6.36,0,0,0-6.39,6.53v0A6.3,6.3,0,0,0,186.62,177.89Z" transform="translate(-2.11 -2.85)" fill="#fff"/>
    <path d="M201.8,169a.69.69,0,0,0-.69-.7.68.68,0,0,0-.68.7v4.73a2.75,2.75,0,0,1-2.8,2.92c-1.64,0-2.57-1.08-2.57-2.81V169a.71.71,0,0,0-.71-.7.68.68,0,0,0-.68.7v5.18a3.4,3.4,0,0,0,3.57,3.73,3.55,3.55,0,0,0,3.19-1.82v1a.69.69,0,1,0,1.37,0Z" transform="translate(-2.11 -2.85)" fill="#fff"/>
    <path d="M207.9,177.86c1.85,0,3.31-1,3.31-2.8v0c0-1.67-1.55-2.23-3-2.66-1.24-.38-2.4-.73-2.4-1.61v0c0-.77.71-1.35,1.81-1.35a5,5,0,0,1,2.43.72.65.65,0,0,0,.31.07.6.6,0,0,0,.61-.59.68.68,0,0,0-.34-.58,6.63,6.63,0,0,0-3-.79c-1.84,0-3.17,1.06-3.17,2.67v0c0,1.72,1.62,2.22,3.08,2.64,1.23.34,2.33.7,2.33,1.64v0c0,.91-.81,1.48-1.93,1.48a5.25,5.25,0,0,1-3-1,.58.58,0,0,0-.34-.11.6.6,0,0,0-.61.6.61.61,0,0,0,.25.5A6.39,6.39,0,0,0,207.9,177.86Z" transform="translate(-2.11 -2.85)" fill="#fff"/>
    <path d="M216.9,177.84a3.56,3.56,0,0,0,1.37-.25.58.58,0,0,0,.39-.55.6.6,0,0,0-.59-.59,3.84,3.84,0,0,1-.85.13,1.38,1.38,0,0,1-1.57-1.56v-5.44h2.42a.63.63,0,0,0,.63-.62.64.64,0,0,0-.63-.61h-2.42v-2.2a.71.71,0,0,0-.7-.7.68.68,0,0,0-.68.7v2.2h-.76a.61.61,0,0,0-.61.61.63.63,0,0,0,.61.62h.76v5.62A2.37,2.37,0,0,0,216.9,177.84Z" transform="translate(-2.11 -2.85)" fill="#fff"/>
    <path d="M224.66,176.65a3.5,3.5,0,0,1-3.44-3.63v0a3.44,3.44,0,0,1,3.41-3.61,3.53,3.53,0,0,1,3.46,3.64v0A3.45,3.45,0,0,1,224.66,176.65Zm0,1.24a4.83,4.83,0,0,0,4.88-4.87v0a4.86,4.86,0,0,0-9.72,0v0A4.78,4.78,0,0,0,224.63,177.89Z" transform="translate(-2.11 -2.85)" fill="#fff"/>
    <path d="M232,177.06a.7.7,0,0,0,.7.71.68.68,0,0,0,.69-.71v-4.7a2.7,2.7,0,0,1,2.6-2.94c1.47,0,2.39,1,2.39,2.77v4.87a.7.7,0,1,0,1.39,0V172.3a2.6,2.6,0,0,1,2.56-2.88c1.52,0,2.42,1,2.42,2.81v4.83a.7.7,0,1,0,1.39,0V171.9c0-2.3-1.32-3.75-3.46-3.75a3.72,3.72,0,0,0-3.29,1.86,3.16,3.16,0,0,0-3-1.86,3.4,3.4,0,0,0-3,1.77v-1a.7.7,0,0,0-.7-.7.71.71,0,0,0-.69.7Z" transform="translate(-2.11 -2.85)" fill="#fff"/>
    <path d="M256.56,176.49a.6.6,0,0,0,.22-.46.6.6,0,0,0-1-.43,3.82,3.82,0,0,1-2.69,1.08,3.25,3.25,0,0,1-3.28-3.15h6.74a.64.64,0,0,0,.65-.65c0-2.47-1.57-4.73-4.32-4.73a4.61,4.61,0,0,0-4.48,4.85v0a4.64,4.64,0,0,0,4.66,4.85A4.75,4.75,0,0,0,256.56,176.49Zm-6.76-4a3.22,3.22,0,0,1,3-3.18c1.86,0,2.83,1.48,3,3.18Z" transform="translate(-2.11 -2.85)" fill="#fff"/>
    <path d="M259.72,177.06a.7.7,0,1,0,1.39,0v-3.17c0-2.69,1.48-4,3.28-4.26a.68.68,0,0,0,.61-.7.67.67,0,0,0-.68-.71,3.86,3.86,0,0,0-3.21,2.49V169a.7.7,0,0,0-.7-.7.71.71,0,0,0-.69.7Z" transform="translate(-2.11 -2.85)" fill="#fff"/>
    <path d="M277,177.86c2.5,0,4.3-1.41,4.3-3.57v0c0-1.93-1.29-3-4.11-3.57s-3.42-1.26-3.42-2.46v0c0-1.14,1-2,2.68-2a5.33,5.33,0,0,1,3.27,1.1.65.65,0,0,0,.41.13.69.69,0,0,0,.69-.69.73.73,0,0,0-.31-.58,6.42,6.42,0,0,0-4-1.24c-2.4,0-4.15,1.46-4.15,3.44v0c0,2.08,1.34,3,4.24,3.64,2.65.56,3.28,1.23,3.28,2.4v0c0,1.24-1.12,2.15-2.81,2.15a5.74,5.74,0,0,1-4-1.5.65.65,0,0,0-.44-.16.68.68,0,0,0-.68.7.65.65,0,0,0,.27.54A7.36,7.36,0,0,0,277,177.86Z" transform="translate(-2.11 -2.85)" fill="#fff"/>
    <path d="M291.55,176.49a.62.62,0,0,0,.21-.46.6.6,0,0,0-.61-.59.62.62,0,0,0-.4.16,3.8,3.8,0,0,1-2.68,1.08,3.26,3.26,0,0,1-3.29-3.15h6.75a.65.65,0,0,0,.65-.65c0-2.47-1.57-4.73-4.33-4.73a4.6,4.6,0,0,0-4.47,4.85v0a4.63,4.63,0,0,0,4.65,4.85A4.78,4.78,0,0,0,291.55,176.49Zm-6.77-4a3.22,3.22,0,0,1,3-3.18c1.86,0,2.83,1.48,3,3.18Z" transform="translate(-2.11 -2.85)" fill="#fff"/>
    <path d="M294.59,177.06a.7.7,0,1,0,1.39,0v-3.17c0-2.69,1.48-4,3.28-4.26a.69.69,0,0,0,.62-.7.67.67,0,0,0-.69-.71,3.87,3.87,0,0,0-3.21,2.49V169a.69.69,0,0,0-.7-.7.71.71,0,0,0-.69.7Z" transform="translate(-2.11 -2.85)" fill="#fff"/>
    <path d="M306.67,177.23l3.52-7.94a1.14,1.14,0,0,0,.07-.34.69.69,0,0,0-.68-.69.67.67,0,0,0-.65.51l-3.07,7.32-3-7.29a.72.72,0,0,0-1.41.15,1.66,1.66,0,0,0,.09.37l3.5,7.91a.86.86,0,0,0,.8.59h.07A.83.83,0,0,0,306.67,177.23Z" transform="translate(-2.11 -2.85)" fill="#fff"/>
    <path d="M312.45,177.06a.7.7,0,0,0,.71.71.68.68,0,0,0,.68-.71V169a.7.7,0,0,0-.7-.7.71.71,0,0,0-.69.7Zm-.12-11.4a.82.82,0,0,0,1.64,0v-.23a.82.82,0,0,0-1.64,0Z" transform="translate(-2.11 -2.85)" fill="#fff"/>
    <path d="M321.06,177.89a4.7,4.7,0,0,0,3.52-1.49.65.65,0,0,0,.18-.44.65.65,0,0,0-.63-.63.56.56,0,0,0-.4.18,3.71,3.71,0,0,1-2.59,1.14,3.49,3.49,0,0,1-3.43-3.63v0a3.44,3.44,0,0,1,3.34-3.61,3.58,3.58,0,0,1,2.54,1.12.72.72,0,0,0,.45.16.67.67,0,0,0,.67-.67.64.64,0,0,0-.22-.48,4.84,4.84,0,0,0-8.2,3.51v0A4.78,4.78,0,0,0,321.06,177.89Z" transform="translate(-2.11 -2.85)" fill="#fff"/>
    <path d="M334.56,176.49a.6.6,0,0,0,.22-.46.6.6,0,0,0-1-.43,3.82,3.82,0,0,1-2.69,1.08,3.25,3.25,0,0,1-3.28-3.15h6.74a.64.64,0,0,0,.65-.65c0-2.47-1.56-4.73-4.32-4.73A4.6,4.6,0,0,0,326.4,173v0a4.63,4.63,0,0,0,4.65,4.85A4.75,4.75,0,0,0,334.56,176.49Zm-6.76-4a3.22,3.22,0,0,1,3-3.18c1.86,0,2.83,1.48,3,3.18Z" transform="translate(-2.11 -2.85)" fill="#fff"/>
    <path d="M145.83,210.42c-2.62,0-4.3-2.72-4.3-6v0c0-3.35,1.65-6,4.25-6s4.3,2.72,4.3,6v0C150.08,207.73,148.45,210.42,145.83,210.42Zm-.05,2.67c4.42,0,7.36-3.9,7.36-8.7v0c0-4.81-2.91-8.66-7.31-8.66s-7.36,3.9-7.36,8.71v0C138.47,209.24,141.36,213.09,145.78,213.09Z" transform="translate(-2.11 -2.85)" fill="#fff"/>
    <path d="M162.23,204.41c-2.09,0-3.44-1.25-3.44-3v-.05a3.09,3.09,0,0,1,3.34-3.12c2.14,0,3.51,1.35,3.51,3.1v0A3.11,3.11,0,0,1,162.23,204.41Zm-.63,8.68c4.55,0,7.21-3.75,7.21-9.16v-.05c0-3.32-.79-5.17-2-6.42a6.1,6.1,0,0,0-4.68-1.78c-3.73,0-6.28,2.52-6.28,5.82v.05c0,3.24,2.38,5.34,6,5.34a5,5,0,0,0,4-1.78c-.1,3.1-1.59,5.29-4.07,5.29a5,5,0,0,1-3.07-1,1.61,1.61,0,0,0-.82-.24,1.35,1.35,0,0,0-1.39,1.35,1.42,1.42,0,0,0,.67,1.23A7.72,7.72,0,0,0,161.6,213.09Z" transform="translate(-2.11 -2.85)" fill="#fff"/>
    <path d="M181.77,206.6l5.53-6.66v6.66Zm5.53,4.93a1.42,1.42,0,0,0,2.84,0V209h1.29a1.2,1.2,0,0,0,1.23-1.21,1.21,1.21,0,0,0-1.23-1.22h-1.29v-9.45a1.43,1.43,0,0,0-1.45-1.42,2.08,2.08,0,0,0-1.8,1L179,206.07a2.3,2.3,0,0,0-.65,1.56,1.4,1.4,0,0,0,1.45,1.4h7.52Z" transform="translate(-2.11 -2.85)" fill="#fff"/>
    <path d="M195.77,211.6a1.38,1.38,0,0,0,1.51,1.32,1.56,1.56,0,0,0,1.42-1l7-13.23a3.31,3.31,0,0,0,.41-1.42,1.23,1.23,0,0,0-1.35-1.32h-9.44a1.3,1.3,0,0,0,0,2.6h7.28L196,210.69A2.33,2.33,0,0,0,195.77,211.6Z" transform="translate(-2.11 -2.85)" fill="#fff"/>
    <path d="M214.37,210.52c-2.09,0-3.49-1.3-3.49-3v0c0-1.61,1.32-3,3.41-3s3.44,1.25,3.44,2.93v.05A3,3,0,0,1,214.37,210.52Zm.07,2.57c3.53,0,6.25-2.38,6.25-5.72v-.05c0-3.37-2.62-5.29-5.87-5.29a5.41,5.41,0,0,0-4,1.68c.15-3.08,1.54-5.34,4-5.34a5,5,0,0,1,2.89.94,1.56,1.56,0,0,0,.74.22,1.4,1.4,0,0,0,1.42-1.37,1.44,1.44,0,0,0-.74-1.28,7.38,7.38,0,0,0-4.21-1.2c-4.76,0-7.21,4-7.21,9.16v0c0,3.39.77,5.15,2,6.42A6.27,6.27,0,0,0,214.44,213.09Z" transform="translate(-2.11 -2.85)" fill="#fff"/>
    <path d="M230.12,210.52c-2.1,0-3.49-1.3-3.49-3v0c0-1.61,1.32-3,3.41-3s3.44,1.25,3.44,2.93v.05A3,3,0,0,1,230.12,210.52Zm.07,2.57c3.53,0,6.25-2.38,6.25-5.72v-.05c0-3.37-2.62-5.29-5.87-5.29a5.41,5.41,0,0,0-4,1.68c.15-3.08,1.54-5.34,4-5.34a5,5,0,0,1,2.89.94,1.56,1.56,0,0,0,.74.22,1.4,1.4,0,0,0,1.42-1.37,1.43,1.43,0,0,0-.75-1.28,7.32,7.32,0,0,0-4.2-1.2c-4.76,0-7.21,4-7.21,9.16v0c0,3.39.77,5.15,2,6.42A6.27,6.27,0,0,0,230.19,213.09Z" transform="translate(-2.11 -2.85)" fill="#fff"/>
    <path d="M249.45,206.6l5.53-6.66v6.66Zm5.53,4.93a1.42,1.42,0,0,0,2.84,0V209h1.3a1.2,1.2,0,0,0,1.22-1.21,1.21,1.21,0,0,0-1.22-1.22h-1.3v-9.45a1.42,1.42,0,0,0-1.44-1.42,2.09,2.09,0,0,0-1.81,1l-7.91,9.38a2.3,2.3,0,0,0-.65,1.56,1.4,1.4,0,0,0,1.45,1.4H255Z" transform="translate(-2.11 -2.85)" fill="#fff"/>
    <path d="M270.07,210.42c-2.62,0-4.3-2.72-4.3-6v0c0-3.35,1.66-6,4.25-6s4.31,2.72,4.31,6v0C274.33,207.73,272.69,210.42,270.07,210.42Zm-.05,2.67c4.43,0,7.36-3.9,7.36-8.7v0c0-4.81-2.91-8.66-7.31-8.66s-7.35,3.9-7.35,8.71v0C262.72,209.24,265.6,213.09,270,213.09Z" transform="translate(-2.11 -2.85)" fill="#fff"/>
    <path d="M287.07,210.42c-2.62,0-4.3-2.72-4.3-6v0c0-3.35,1.66-6,4.25-6s4.31,2.72,4.31,6v0C291.33,207.73,289.69,210.42,287.07,210.42Zm-.05,2.67c4.43,0,7.36-3.9,7.36-8.7v0c0-4.81-2.91-8.66-7.31-8.66s-7.35,3.9-7.35,8.71v0C279.72,209.24,282.6,213.09,287,213.09Z" transform="translate(-2.11 -2.85)" fill="#fff"/>
    <path d="M305,210.42c-2.62,0-4.31-2.72-4.31-6v0c0-3.35,1.66-6,4.26-6s4.3,2.72,4.3,6v0C309.27,207.73,307.64,210.42,305,210.42Zm0,2.67c4.42,0,7.35-3.9,7.35-8.7v0c0-4.81-2.9-8.66-7.3-8.66s-7.36,3.9-7.36,8.71v0C297.66,209.24,300.54,213.09,305,213.09Z" transform="translate(-2.11 -2.85)" fill="#fff"/>
    <path d="M138.47,344.83a1.09,1.09,0,0,0,2.18,0v-4.39a2.12,2.12,0,0,1,2.15-2.36c1.3,0,2,.85,2,2.33v4.42a1.07,1.07,0,0,0,1.1,1.08,1.06,1.06,0,0,0,1.08-1.08v-5.09c0-2.2-1.24-3.64-3.39-3.64a3.45,3.45,0,0,0-3,1.66v-4.12a1.09,1.09,0,0,0-1.1-1.08,1.08,1.08,0,0,0-1.08,1.08Z" transform="translate(-2.11 -2.85)" fill="#fff"/>
    <path d="M153,346c2,0,3.53-1,3.53-3v0c0-1.71-1.57-2.34-3-2.78-1.11-.36-2.14-.65-2.14-1.35v0c0-.54.48-.93,1.33-.93a5.29,5.29,0,0,1,2.24.64.77.77,0,0,0,.43.11.87.87,0,0,0,.9-.88.91.91,0,0,0-.52-.83,6.5,6.5,0,0,0-3-.78c-1.9,0-3.39,1.1-3.39,2.91v0c0,1.83,1.57,2.4,3,2.8,1.12.34,2.13.59,2.13,1.33v0c0,.63-.54,1-1.48,1a5.06,5.06,0,0,1-2.74-.92,1,1,0,0,0-.47-.13.88.88,0,0,0-.88.89.82.82,0,0,0,.41.75A6.5,6.5,0,0,0,153,346Z" transform="translate(-2.11 -2.85)" fill="#fff"/>
    <path d="M158.91,344.83a1.07,1.07,0,0,0,1.08,1.08,1.08,1.08,0,0,0,1.1-1.08V333.64a1.09,1.09,0,0,0-1.1-1.08,1.07,1.07,0,0,0-1.08,1.08Z" transform="translate(-2.11 -2.85)" fill="#fff"/>
    <path d="M163.78,344.48v.19a1.27,1.27,0,0,0,2.54,0v-.19a1.27,1.27,0,0,0-2.54,0Z" transform="translate(-2.11 -2.85)" fill="#fff"/>
    <path d="M169.15,344.83a1.1,1.1,0,0,0,2.19,0v-6.66H173a.9.9,0,1,0,0-1.8H171.3v-.52c0-1,.43-1.45,1.26-1.45a3,3,0,0,1,.45,0,.89.89,0,0,0,.92-.9.91.91,0,0,0-.76-.91,6.55,6.55,0,0,0-1.09-.09,2.9,2.9,0,0,0-2.15.76,3.21,3.21,0,0,0-.78,2.35v.7h-.37a.92.92,0,0,0-.92.92.9.9,0,0,0,.92.9h.37Zm6.42,0a1.09,1.09,0,0,0,2.18,0v-7.54a1.09,1.09,0,1,0-2.18,0Zm-.16-11a1.26,1.26,0,0,0,2.49,0v-.1a1.26,1.26,0,0,0-2.49,0Z" transform="translate(-2.11 -2.85)" fill="#fff"/>
    <path d="M142.22,12.48V6.83h4.31c2.18,0,3.48,1,3.48,2.79v.05c0,1.71-1.34,2.81-3.46,2.81Zm-2.95,7.15a1.48,1.48,0,0,0,2.95,0V15.11H146L150,20.32a1.67,1.67,0,0,0,1.44.77,1.39,1.39,0,0,0,1.42-1.37,1.77,1.77,0,0,0-.48-1.13l-3.23-4.06a5,5,0,0,0,3.83-5V9.45a5.11,5.11,0,0,0-1.4-3.63,6.8,6.8,0,0,0-4.85-1.68h-6a1.47,1.47,0,0,0-1.49,1.49Z" transform="translate(-2.11 -2.85)" fill="#fff"/>
    <path d="M165.83,19.58a1.27,1.27,0,0,0,.39-.89,1.15,1.15,0,0,0-1.16-1.18,1.08,1.08,0,0,0-.74.27,4.58,4.58,0,0,1-3,1.1,3.54,3.54,0,0,1-3.65-3.22h8a1.37,1.37,0,0,0,1.37-1.4A6,6,0,0,0,161,8a6.3,6.3,0,0,0-6.2,6.62v0a6.34,6.34,0,0,0,6.52,6.59A6.51,6.51,0,0,0,165.83,19.58Zm-8.19-5.84c.26-2,1.51-3.35,3.29-3.35s3,1.47,3.22,3.35Z" transform="translate(-2.11 -2.85)" fill="#fff"/>
    <path d="M170.66,19.65a1.46,1.46,0,0,0,2.91,0V9.6a1.46,1.46,0,0,0-1.46-1.47,1.44,1.44,0,0,0-1.45,1.47ZM170.45,5a1.68,1.68,0,0,0,3.32,0V4.86a1.68,1.68,0,0,0-3.32,0Z" transform="translate(-2.11 -2.85)" fill="#fff"/>
    <path d="M181.38,21.19a5.74,5.74,0,0,0,2-.34,1.21,1.21,0,0,0-.46-2.33,6.74,6.74,0,0,1-.72.07A1.38,1.38,0,0,1,180.64,17V10.78h2.28a1.25,1.25,0,1,0,0-2.5h-2.28V6.11a1.46,1.46,0,0,0-2.91,0V8.28h-.48a1.25,1.25,0,0,0,0,2.5h.48v6.68C177.73,20.25,179.24,21.19,181.38,21.19Z" transform="translate(-2.11 -2.85)" fill="#fff"/>
    <path d="M186.73,19.65a1.46,1.46,0,0,0,2.91,0V9.6a1.46,1.46,0,0,0-1.46-1.47,1.44,1.44,0,0,0-1.45,1.47ZM186.52,5a1.67,1.67,0,0,0,3.31,0V4.86a1.67,1.67,0,0,0-3.31,0Z" transform="translate(-2.11 -2.85)" fill="#fff"/>
    <path d="M197.45,21.19a5.74,5.74,0,0,0,2-.34,1.21,1.21,0,0,0-.46-2.33,6.74,6.74,0,0,1-.72.07A1.38,1.38,0,0,1,196.71,17V10.78H199a1.25,1.25,0,1,0,0-2.5h-2.28V6.11a1.46,1.46,0,0,0-2.91,0V8.28h-.48a1.25,1.25,0,0,0,0,2.5h.48v6.68C193.8,20.25,195.31,21.19,197.45,21.19Z" transform="translate(-2.11 -2.85)" fill="#fff"/>
    <path d="M210.25,5a1.68,1.68,0,0,0,3.32,0V4.86a1.68,1.68,0,0,0-3.32,0Zm-.38,19.88c2.14,0,3.51-1.17,3.51-3.75V9.6a1.46,1.46,0,0,0-1.47-1.47,1.43,1.43,0,0,0-1.44,1.47V21.14c0,1-.44,1.37-1.09,1.37l-.16,0a1.15,1.15,0,0,0-1.16,1.2c0,.8.68,1.18,1.59,1.2Z" transform="translate(-2.11 -2.85)" fill="#fff"/>
    <path d="M221.54,19.12c-1.39,0-2.47-.7-2.47-1.92v-.05c0-1.32,1.1-2.12,3-2.12a8,8,0,0,1,2.88.51v.86C224.93,18,223.47,19.12,221.54,19.12Zm-.82,2.12a5.18,5.18,0,0,0,4.14-1.85v.48a1.31,1.31,0,0,0,1.42,1.22,1.39,1.39,0,0,0,1.42-1.39V13.45a5.29,5.29,0,0,0-1.37-3.92,5.67,5.67,0,0,0-4.21-1.42,11,11,0,0,0-4.09.74,1.28,1.28,0,0,0-.79,1.16,1.21,1.21,0,0,0,1.22,1.2,1.56,1.56,0,0,0,.46-.07,7.58,7.58,0,0,1,2.81-.51c2.05,0,3.15,1,3.15,2.77v.31a10.61,10.61,0,0,0-3.41-.53c-3.1,0-5.24,1.35-5.24,4.09v.05C216.23,19.87,218.34,21.24,220.72,21.24Z" transform="translate(-2.11 -2.85)" fill="#fff"/>
    <path d="M242.86,19.12c-1.39,0-2.48-.7-2.48-1.92v-.05c0-1.32,1.11-2.12,3-2.12a8,8,0,0,1,2.89.51v.86C246.25,18,244.78,19.12,242.86,19.12ZM242,21.24a5.18,5.18,0,0,0,4.14-1.85v.48a1.31,1.31,0,0,0,1.42,1.22A1.38,1.38,0,0,0,249,19.7V13.45a5.25,5.25,0,0,0-1.37-3.92,5.64,5.64,0,0,0-4.2-1.42,11,11,0,0,0-4.09.74,1.28,1.28,0,0,0-.79,1.16,1.21,1.21,0,0,0,1.22,1.2,1.56,1.56,0,0,0,.46-.07,7.58,7.58,0,0,1,2.81-.51c2,0,3.15,1,3.15,2.77v.31a10.61,10.61,0,0,0-3.41-.53c-3.1,0-5.24,1.35-5.24,4.09v.05C237.55,19.87,239.66,21.24,242,21.24Z" transform="translate(-2.11 -2.85)" fill="#fff"/>
    <path d="M252.55,19.65a1.46,1.46,0,0,0,2.91,0V9.6A1.46,1.46,0,0,0,254,8.13a1.44,1.44,0,0,0-1.44,1.47ZM252.34,5a1.67,1.67,0,0,0,3.31,0V4.86a1.67,1.67,0,0,0-3.31,0Z" transform="translate(-2.11 -2.85)" fill="#fff"/>
    <path d="M259.15,19.65a1.45,1.45,0,0,0,2.9,0V17.44L264,15.61l3.63,4.84a1.45,1.45,0,0,0,1.27.64,1.31,1.31,0,0,0,1.37-1.32,1.57,1.57,0,0,0-.38-1l-3.85-5,3.37-3.1A1.63,1.63,0,0,0,270,9.45a1.28,1.28,0,0,0-1.28-1.32,1.71,1.71,0,0,0-1.25.63l-5.46,5.36V4.74a1.44,1.44,0,0,0-1.46-1.44,1.43,1.43,0,0,0-1.44,1.44Z" transform="translate(-2.11 -2.85)" fill="#fff"/>
    <path d="M277.39,19.12c-1.39,0-2.47-.7-2.47-1.92v-.05c0-1.32,1.1-2.12,3-2.12a8,8,0,0,1,2.88.51v.86C280.78,18,279.32,19.12,277.39,19.12Zm-.81,2.12a5.18,5.18,0,0,0,4.13-1.85v.48a1.31,1.31,0,0,0,1.42,1.22,1.39,1.39,0,0,0,1.42-1.39V13.45a5.29,5.29,0,0,0-1.37-3.92A5.67,5.67,0,0,0,278,8.11a11,11,0,0,0-4.09.74,1.28,1.28,0,0,0-.79,1.16,1.21,1.21,0,0,0,1.23,1.2,1.55,1.55,0,0,0,.45-.07,7.62,7.62,0,0,1,2.81-.51c2.05,0,3.15,1,3.15,2.77v.31a10.61,10.61,0,0,0-3.41-.53c-3.1,0-5.24,1.35-5.24,4.09v.05C272.08,19.87,274.2,21.24,276.58,21.24Z" transform="translate(-2.11 -2.85)" fill="#fff"/>
    <path d="M291.06,21.19a5.74,5.74,0,0,0,2-.34,1.21,1.21,0,0,0-.46-2.33,7.06,7.06,0,0,1-.72.07A1.38,1.38,0,0,1,290.32,17V10.78h2.28a1.25,1.25,0,1,0,0-2.5h-2.28V6.11a1.46,1.46,0,0,0-2.91,0V8.28h-.48a1.25,1.25,0,0,0,0,2.5h.48v6.68C287.41,20.25,288.92,21.19,291.06,21.19Z" transform="translate(-2.11 -2.85)" fill="#fff"/>
    <path d="M301,19.12c-1.39,0-2.47-.7-2.47-1.92v-.05c0-1.32,1.1-2.12,3-2.12a8,8,0,0,1,2.88.51v.86C304.37,18,302.91,19.12,301,19.12Zm-.81,2.12a5.16,5.16,0,0,0,4.13-1.85v.48a1.31,1.31,0,0,0,1.42,1.22,1.39,1.39,0,0,0,1.42-1.39V13.45a5.25,5.25,0,0,0-1.37-3.92,5.67,5.67,0,0,0-4.21-1.42,11.06,11.06,0,0,0-4.09.74,1.28,1.28,0,0,0-.79,1.16,1.21,1.21,0,0,0,1.23,1.2,1.5,1.5,0,0,0,.45-.07,7.64,7.64,0,0,1,2.82-.51c2,0,3.15,1,3.15,2.77v.31a10.73,10.73,0,0,0-3.42-.53c-3.1,0-5.24,1.35-5.24,4.09v.05C295.67,19.87,297.79,21.24,300.17,21.24Z" transform="translate(-2.11 -2.85)" fill="#fff"/>
    <path d="M321.91,9.6a1.47,1.47,0,1,0-2.93,0v5.84a2.81,2.81,0,0,1-2.86,3.13c-1.73,0-2.72-1.11-2.72-3.08V9.6a1.46,1.46,0,1,0-2.91,0v6.76c0,2.95,1.66,4.88,4.52,4.88A4.57,4.57,0,0,0,319,19v.65a1.47,1.47,0,0,0,2.93,0Z" transform="translate(-2.11 -2.85)" fill="#fff"/>
    <path d="M325.64,19.65a1.46,1.46,0,0,0,2.91,0V4.74a1.45,1.45,0,0,0-1.46-1.44,1.44,1.44,0,0,0-1.45,1.44Z" transform="translate(-2.11 -2.85)" fill="#fff"/>
    <path d="M343.57,9.6a1.47,1.47,0,1,0-2.93,0v5.84a2.81,2.81,0,0,1-2.86,3.13c-1.73,0-2.72-1.11-2.72-3.08V9.6a1.46,1.46,0,1,0-2.91,0v6.76c0,2.95,1.66,4.88,4.52,4.88a4.59,4.59,0,0,0,4-2.24v.65a1.47,1.47,0,0,0,2.93,0Z" transform="translate(-2.11 -2.85)" fill="#fff"/>
    <path d="M351.35,21.19a5.65,5.65,0,0,0,2-.34,1.24,1.24,0,0,0,.77-1.13,1.22,1.22,0,0,0-1.22-1.2c-.1,0-.39.07-.72.07A1.38,1.38,0,0,1,350.6,17V10.78h2.29a1.25,1.25,0,1,0,0-2.5H350.6V6.11a1.45,1.45,0,0,0-2.9,0V8.28h-.49a1.25,1.25,0,0,0,0,2.5h.49v6.68C347.7,20.25,349.21,21.19,351.35,21.19Z" transform="translate(-2.11 -2.85)" fill="#fff"/>
    <g>
      <path d="M138.47,85.74a1.09,1.09,0,0,0,2.18,0V82.93c0-2.26,1.07-3.45,2.62-3.72a1,1,0,0,0,.86-1,1,1,0,0,0-1.08-1.08,3,3,0,0,0-2.4,2.09v-1a1.09,1.09,0,1,0-2.18,0Z" transform="translate(-2.11 -2.85)" fill="#fff"/>
      <path d="M153.38,85.69a.94.94,0,0,0,.29-.67.86.86,0,0,0-.86-.89.85.85,0,0,0-.56.2,3.4,3.4,0,0,1-2.25.83,2.66,2.66,0,0,1-2.75-2.41h6a1,1,0,0,0,1-1A4.51,4.51,0,0,0,149.72,77a4.73,4.73,0,0,0-4.65,5v0A4.75,4.75,0,0,0,150,87,4.88,4.88,0,0,0,153.38,85.69Zm-6.14-4.39a2.56,2.56,0,0,1,2.47-2.5,2.46,2.46,0,0,1,2.41,2.5Z" transform="translate(-2.11 -2.85)" fill="#fff"/>
      <path d="M156.52,85.74a1.09,1.09,0,0,0,2.18,0V78.2a1.09,1.09,0,1,0-2.18,0Zm-.16-11a1.26,1.26,0,0,0,2.49,0v-.11a1.26,1.26,0,0,0-2.49,0Z" transform="translate(-2.11 -2.85)" fill="#fff"/>
      <path d="M164.61,86.89a4.39,4.39,0,0,0,1.49-.25.93.93,0,0,0,.58-.85.92.92,0,0,0-.92-.9,4.65,4.65,0,0,1-.54.06,1,1,0,0,1-1.17-1.19V79.08h1.71a.94.94,0,1,0,0-1.87h-1.71V75.59a1.09,1.09,0,0,0-2.18,0v1.62h-.37a.94.94,0,0,0,0,1.87h.37v5C161.87,86.19,163,86.89,164.61,86.89Z" transform="translate(-2.11 -2.85)" fill="#fff"/>
      <path d="M172.18,86.89a4.41,4.41,0,0,0,1.5-.25.94.94,0,0,0,.57-.85.92.92,0,0,0-.92-.9,4.65,4.65,0,0,1-.54.06,1,1,0,0,1-1.17-1.19V79.08h1.71a.94.94,0,1,0,0-1.87h-1.71V75.59a1.09,1.09,0,1,0-2.18,0v1.62h-.36a.94.94,0,1,0,0,1.87h.36v5C169.44,86.19,170.57,86.89,172.18,86.89Z" transform="translate(-2.11 -2.85)" fill="#fff"/>
      <path d="M176.23,85.74a1.07,1.07,0,0,0,1.08,1.08,1.08,1.08,0,0,0,1.1-1.08V78.2a1.1,1.1,0,0,0-1.1-1.1,1.08,1.08,0,0,0-1.08,1.1Zm-.17-11a1.26,1.26,0,0,0,2.49,0v-.11a1.26,1.26,0,0,0-2.49,0Z" transform="translate(-2.11 -2.85)" fill="#fff"/>
      <path d="M185.73,85a2.94,2.94,0,0,1-2.9-3.05v0a2.86,2.86,0,0,1,2.87-3A3,3,0,0,1,188.62,82v0A2.86,2.86,0,0,1,185.73,85Zm0,1.91a5,5,0,0,0,5.1-5v0a5.08,5.08,0,0,0-10.15,0v0A4.92,4.92,0,0,0,185.7,87Z" transform="translate(-2.11 -2.85)" fill="#fff"/>
      <path d="M198,85A2.88,2.88,0,0,1,195.17,82v0a2.88,2.88,0,0,1,2.78-3,2.82,2.82,0,0,1,2.72,3v0A2.8,2.8,0,0,1,198,85ZM193,88.63a1.09,1.09,0,0,0,2.18,0V85.25a3.88,3.88,0,0,0,3.25,1.68c2.25,0,4.42-1.78,4.42-4.94v0c0-3.17-2.19-4.94-4.42-4.94a3.81,3.81,0,0,0-3.25,1.79v-.6a1.09,1.09,0,1,0-2.18,0Z" transform="translate(-2.11 -2.85)" fill="#fff"/>
      <path d="M208.45,85.34c-1,0-1.86-.52-1.86-1.44v0c0-1,.83-1.58,2.24-1.58a6,6,0,0,1,2.16.38v.65C211,84.51,209.89,85.34,208.45,85.34Zm-.62,1.59a3.84,3.84,0,0,0,3.1-1.39v.36a1,1,0,0,0,1.07.92,1,1,0,0,0,1.06-1V81.09a3.91,3.91,0,0,0-1-2.94,4.23,4.23,0,0,0-3.15-1.07,8.29,8.29,0,0,0-3.07.56,1,1,0,0,0-.59.87.91.91,0,0,0,.92.9,1.47,1.47,0,0,0,.34,0,5.56,5.56,0,0,1,2.11-.38c1.53,0,2.36.72,2.36,2.07v.24a7.77,7.77,0,0,0-2.56-.4c-2.32,0-3.93,1-3.93,3.06v0C204.46,85.9,206.05,86.93,207.83,86.93Z" transform="translate(-2.11 -2.85)" fill="#fff"/>
      <path d="M219,86.91c2,0,3.53-1,3.53-3v0c0-1.71-1.57-2.34-3-2.78-1.12-.36-2.14-.64-2.14-1.35v0c0-.55.48-.94,1.33-.94a5.17,5.17,0,0,1,2.24.65.86.86,0,0,0,.43.11.88.88,0,0,0,.9-.89.93.93,0,0,0-.52-.83,6.65,6.65,0,0,0-3-.77c-1.9,0-3.39,1.1-3.39,2.9v0c0,1.82,1.56,2.4,3,2.79,1.12.34,2.13.6,2.13,1.34v0c0,.63-.54,1-1.48,1a5,5,0,0,1-2.74-.92,1,1,0,0,0-.47-.13A.88.88,0,0,0,215,85a.85.85,0,0,0,.41.76A6.57,6.57,0,0,0,219,86.91Z" transform="translate(-2.11 -2.85)" fill="#fff"/>
      <path d="M224.73,85.4v.18a1.27,1.27,0,0,0,2.54,0V85.4a1.27,1.27,0,0,0-2.54,0Z" transform="translate(-2.11 -2.85)" fill="#fff"/>
      <path d="M230.09,85.74a1.1,1.1,0,0,0,2.19,0V79.08h1.65a.9.9,0,1,0,0-1.8h-1.69v-.52c0-1,.43-1.44,1.26-1.44a3.09,3.09,0,0,1,.45,0,.91.91,0,0,0,.16-1.8,5.67,5.67,0,0,0-1.1-.09,2.89,2.89,0,0,0-2.14.75,3.21,3.21,0,0,0-.78,2.35v.7h-.37a.92.92,0,0,0-.92.92.9.9,0,0,0,.92.9h.37Zm6.42,0a1.09,1.09,0,0,0,2.18,0V78.2a1.09,1.09,0,1,0-2.18,0Zm-.16-11a1.26,1.26,0,0,0,2.49,0v-.11a1.26,1.26,0,0,0-2.49,0Z" transform="translate(-2.11 -2.85)" fill="#fff"/>
    </g>
    <path d="M82.13,129.6c0-2.15-1-3.31-2.22-3.31s-2.22,1.16-2.22,3.31,1,3.3,2.22,3.3,2.22-1.15,2.22-3.3m-4.37,12.86a.92.92,0,0,0-1.3,0,6,6,0,0,1-8.43,0,.88.88,0,0,0-.65-.27.85.85,0,0,0-.64.27.81.81,0,0,0,0,1.29,7.77,7.77,0,0,0,11,0,.82.82,0,0,0,0-1.29M66.84,129.6c0-2.15-1-3.31-2.23-3.31s-2.22,1.16-2.22,3.31,1,3.3,2.22,3.3,2.23-1.15,2.23-3.3m24.54,3.92A19.17,19.17,0,0,1,77,152.13a6.88,6.88,0,0,0-8.93.13A19.16,19.16,0,0,1,56.29,123,11.05,11.05,0,0,0,65,115.88c3,3.6,11.25,7.51,21.65,7.21a4.74,4.74,0,0,0,1.54-.26,18.68,18.68,0,0,1,3.28,10.73m5.37-9.19h-4.5a21.39,21.39,0,0,1,1.16,15.25h1.36a22.25,22.25,0,0,1-15.6,16,7,7,0,0,1,.22,1.71,7.18,7.18,0,0,1-.13,1.31,26.5,26.5,0,0,0,18.57-19.26,3.34,3.34,0,0,0,2.57-3.48V128c0-2.43-1.22-3.65-3.65-3.66m-24.16,29q-4,0-4,4t4,4q4,0,4-4t-4-4M51,139.63H47.66Q44,139.63,44,136V128q0-3.64,3.65-3.66h4.49A21.38,21.38,0,0,0,51,139.63" transform="translate(-2.11 -2.85)" fill="#fff"/>
    <path d="M83.46,51.22,80.33,50a11.25,11.25,0,0,0,.8-5.47l3.36-.33a14.64,14.64,0,0,1-1,7M73,60.13l-.81-3.23A11.56,11.56,0,0,0,78,53.53L80.5,55.8A14.92,14.92,0,0,1,73,60.13m-5.51.33a15,15,0,0,1-7.2-2.84l2-2.66a11.6,11.6,0,0,0,5.59,2.2ZM80.79,39a8.81,8.81,0,0,1,2.8-8.28L86.09,33a6.51,6.51,0,0,0-1.94,5.74Zm15.52-7a6.62,6.62,0,0,0-5.24-1.43,8.35,8.35,0,0,0-1,.17l-.76-3.24a14.11,14.11,0,0,1,1.45-.23,9.84,9.84,0,0,1,7.59,2.08Zm6.08-16.9c-2.46,0-3.67-1.29-3.65-3.75s1.27-3.68,3.73-3.66,3.69,1.25,3.69,3.7-1.28,3.73-3.77,3.71m0-12a8.09,8.09,0,0,0-6,2.41,8,8,0,0,0-2.5,5.91c0,4.61,8.46,16.67,8.46,16.67s8.47-12,8.47-16.67a8.08,8.08,0,0,0-2.51-5.91,8.09,8.09,0,0,0-6-2.41m-45,28.71a6.33,6.33,0,0,1-6.24-6.4A6.33,6.33,0,1,1,61.92,30a6.15,6.15,0,0,1-4.52,1.84m0-20.5a13.84,13.84,0,0,0-10.2,4.11,13.82,13.82,0,0,0-4.29,10.12C42.93,33.38,57.4,54,57.4,54S71.86,33.38,71.86,25.52a13.83,13.83,0,0,0-4.28-10.11A13.84,13.84,0,0,0,57.4,11.29" transform="translate(-2.11 -2.85)" fill="#fff" fill-rule="evenodd"/>
    <line x1="2.51" y1="2.51" x2="2.51" y2="2.51" fill="#fff" stroke="#fff" stroke-linecap="round" stroke-miterlimit="10" stroke-width="5.03"/>
    <path d="M7.14,334.09a2.22,2.22,0,0,1-2.51,2.52,2.52,2.52,0,1,1,0-5A2.22,2.22,0,0,1,7.14,334.09Zm0-10a2.22,2.22,0,0,1-2.51,2.52,2.52,2.52,0,1,1,0-5A2.22,2.22,0,0,1,7.14,324.13Zm0-10a2.22,2.22,0,0,1-2.51,2.52,2.52,2.52,0,1,1,0-5A2.22,2.22,0,0,1,7.14,314.17Zm0-10a2.22,2.22,0,0,1-2.51,2.51,2.52,2.52,0,1,1,0-5A2.22,2.22,0,0,1,7.14,304.21Zm0-10a2.22,2.22,0,0,1-2.51,2.51,2.52,2.52,0,1,1,0-5A2.22,2.22,0,0,1,7.14,294.25Zm0-10a2.22,2.22,0,0,1-2.51,2.51,2.52,2.52,0,1,1,0-5A2.22,2.22,0,0,1,7.14,284.29Zm0-10a2.22,2.22,0,0,1-2.51,2.52,2.52,2.52,0,1,1,0-5A2.22,2.22,0,0,1,7.14,274.32Zm0-10a2.22,2.22,0,0,1-2.51,2.52,2.52,2.52,0,1,1,0-5A2.22,2.22,0,0,1,7.14,264.36Zm0-10a2.22,2.22,0,0,1-2.51,2.52,2.52,2.52,0,1,1,0-5A2.22,2.22,0,0,1,7.14,254.4Zm0-10A2.22,2.22,0,0,1,4.63,247a2.52,2.52,0,1,1,0-5A2.22,2.22,0,0,1,7.14,244.44Zm0-10A2.22,2.22,0,0,1,4.63,237a2.52,2.52,0,1,1,0-5A2.22,2.22,0,0,1,7.14,234.48Zm0-10A2.22,2.22,0,0,1,4.63,227a2.52,2.52,0,1,1,0-5A2.22,2.22,0,0,1,7.14,224.52Zm0-10a2.22,2.22,0,0,1-2.51,2.52,2.52,2.52,0,1,1,0-5A2.22,2.22,0,0,1,7.14,214.55Zm0-10a2.22,2.22,0,0,1-2.51,2.52,2.52,2.52,0,1,1,0-5A2.22,2.22,0,0,1,7.14,204.59Zm0-10a2.22,2.22,0,0,1-2.51,2.52,2.52,2.52,0,1,1,0-5A2.22,2.22,0,0,1,7.14,194.63Zm0-10a2.22,2.22,0,0,1-2.51,2.51,2.52,2.52,0,1,1,0-5A2.22,2.22,0,0,1,7.14,184.67Zm0-10a2.22,2.22,0,0,1-2.51,2.51,2.52,2.52,0,1,1,0-5A2.22,2.22,0,0,1,7.14,174.71Zm0-10a2.22,2.22,0,0,1-2.51,2.51,2.52,2.52,0,1,1,0-5A2.22,2.22,0,0,1,7.14,164.75Zm0-10a2.22,2.22,0,0,1-2.51,2.52,2.52,2.52,0,1,1,0-5A2.22,2.22,0,0,1,7.14,154.78Zm0-10a2.22,2.22,0,0,1-2.51,2.52,2.52,2.52,0,1,1,0-5A2.22,2.22,0,0,1,7.14,144.82Zm0-10a2.22,2.22,0,0,1-2.51,2.52,2.52,2.52,0,1,1,0-5A2.22,2.22,0,0,1,7.14,134.86Zm0-10a2.22,2.22,0,0,1-2.51,2.52,2.52,2.52,0,1,1,0-5A2.22,2.22,0,0,1,7.14,124.9Zm0-10a2.22,2.22,0,0,1-2.51,2.51,2.52,2.52,0,1,1,0-5A2.22,2.22,0,0,1,7.14,114.94Zm0-10a2.22,2.22,0,0,1-2.51,2.51,2.52,2.52,0,1,1,0-5A2.22,2.22,0,0,1,7.14,105Zm0-10a2.22,2.22,0,0,1-2.51,2.52,2.52,2.52,0,1,1,0-5A2.22,2.22,0,0,1,7.14,95Zm0-10a2.22,2.22,0,0,1-2.51,2.52,2.52,2.52,0,1,1,0-5A2.22,2.22,0,0,1,7.14,85.05Zm0-10a2.22,2.22,0,0,1-2.51,2.52,2.52,2.52,0,1,1,0-5A2.22,2.22,0,0,1,7.14,75.09Zm0-10a2.22,2.22,0,0,1-2.51,2.52,2.52,2.52,0,0,1,0-5A2.22,2.22,0,0,1,7.14,65.13Zm0-10a2.22,2.22,0,0,1-2.51,2.51,2.22,2.22,0,0,1-2.52-2.51,2.23,2.23,0,0,1,2.52-2.52A2.22,2.22,0,0,1,7.14,55.17Zm0-10a2.22,2.22,0,0,1-2.51,2.51,2.22,2.22,0,0,1-2.52-2.51,2.23,2.23,0,0,1,2.52-2.52A2.22,2.22,0,0,1,7.14,45.21Zm0-10a2.22,2.22,0,0,1-2.51,2.52,2.23,2.23,0,0,1-2.52-2.52,2.22,2.22,0,0,1,2.52-2.51A2.22,2.22,0,0,1,7.14,35.24Zm0-10A2.22,2.22,0,0,1,4.63,27.8a2.23,2.23,0,0,1-2.52-2.52,2.22,2.22,0,0,1,2.52-2.51A2.22,2.22,0,0,1,7.14,25.28Zm0-10a2.22,2.22,0,0,1-2.51,2.52,2.23,2.23,0,0,1-2.52-2.52,2.22,2.22,0,0,1,2.52-2.51A2.22,2.22,0,0,1,7.14,15.32Z" transform="translate(-2.11 -2.85)" fill="#fff"/>
    <line x1="2.51" y1="341.12" x2="2.51" y2="341.12" fill="#fff" stroke="#fff" stroke-linecap="round" stroke-miterlimit="10" stroke-width="5.03"/>
    <g>
      <path d="M140,30.46a.71.71,0,0,1,.7-.72h4.72A5,5,0,0,1,149,31a3.5,3.5,0,0,1,1,2.49v0c0,2.07-1.4,3.28-3.36,3.66l3.13,4a.77.77,0,0,1,.23.52.74.74,0,0,1-.72.7.83.83,0,0,1-.66-.37L145,37.45h-3.62v4.26a.71.71,0,1,1-1.42,0Zm5.29,5.71c1.89,0,3.24-1,3.24-2.59v0c0-1.55-1.19-2.49-3.22-2.49h-3.89v5.12Z" transform="translate(-2.11 -2.85)" fill="#fff"/>
      <path d="M160.52,41.73a.68.68,0,1,1-1.36,0v-1A3.55,3.55,0,0,1,156,42.54a3.4,3.4,0,0,1-3.57-3.73V33.65a.68.68,0,0,1,.69-.7.7.7,0,0,1,.7.7v4.82c0,1.73.94,2.81,2.58,2.81a2.75,2.75,0,0,0,2.79-2.92V33.65a.67.67,0,0,1,.68-.7.68.68,0,0,1,.68.7Z" transform="translate(-2.11 -2.85)" fill="#fff"/>
      <path d="M163.94,39.88V34.26h-.75a.63.63,0,0,1-.62-.61.61.61,0,0,1,.62-.61h.75v-2.2a.69.69,0,0,1,.69-.7.72.72,0,0,1,.7.7V33h2.41a.63.63,0,0,1,.63.61.62.62,0,0,1-.63.61h-2.41V39.7a1.38,1.38,0,0,0,1.56,1.55,3.84,3.84,0,0,0,.85-.13.59.59,0,0,1,.59.59.57.57,0,0,1-.39.54,3.38,3.38,0,0,1-1.37.26A2.37,2.37,0,0,1,163.94,39.88Z" transform="translate(-2.11 -2.85)" fill="#fff"/>
      <path d="M171,39.88V34.26h-.75a.63.63,0,0,1-.61-.61.61.61,0,0,1,.61-.61H171v-2.2a.69.69,0,0,1,.69-.7.71.71,0,0,1,.7.7V33h2.41a.63.63,0,0,1,.63.61.62.62,0,0,1-.63.61h-2.41V39.7A1.38,1.38,0,0,0,174,41.25a3.83,3.83,0,0,0,.84-.13.6.6,0,0,1,.6.59.58.58,0,0,1-.4.54,3.38,3.38,0,0,1-1.37.26A2.37,2.37,0,0,1,171,39.88Z" transform="translate(-2.11 -2.85)" fill="#fff"/>
      <path d="M181.44,42.56a4.63,4.63,0,0,1-4.65-4.84v0a4.59,4.59,0,0,1,4.47-4.84c2.75,0,4.32,2.25,4.32,4.71a.65.65,0,0,1-.65.65H178.2a3.25,3.25,0,0,0,3.27,3.15,3.82,3.82,0,0,0,2.69-1.08.6.6,0,0,1,.39-.16.61.61,0,0,1,.62.6.63.63,0,0,1-.22.45A4.75,4.75,0,0,1,181.44,42.56Zm2.75-5.38c-.14-1.7-1.11-3.17-3-3.17a3.21,3.21,0,0,0-3,3.17Z" transform="translate(-2.11 -2.85)" fill="#fff"/>
      <path d="M187.85,33.65a.69.69,0,0,1,.68-.7.68.68,0,0,1,.7.7v1.74a3.86,3.86,0,0,1,3.21-2.48.66.66,0,0,1,.68.7.68.68,0,0,1-.61.7c-1.8.22-3.28,1.57-3.28,4.25v3.17a.69.69,0,1,1-1.38,0Z" transform="translate(-2.11 -2.85)" fill="#fff"/>
      <path d="M199.6,37.73v0a4.85,4.85,0,0,1,9.7,0v0a4.83,4.83,0,0,1-4.88,4.86A4.77,4.77,0,0,1,199.6,37.73Zm8.28,0v0a3.52,3.52,0,0,0-3.46-3.64,3.44,3.44,0,0,0-3.4,3.6v0a3.49,3.49,0,0,0,3.44,3.62A3.43,3.43,0,0,0,207.88,37.73Z" transform="translate(-2.11 -2.85)" fill="#fff"/>
      <path d="M211.05,37.73v0a4.84,4.84,0,0,1,8.19-3.51.64.64,0,0,1,.22.48.67.67,0,0,1-.67.67.72.72,0,0,1-.45-.16,3.6,3.6,0,0,0-2.54-1.12,3.43,3.43,0,0,0-3.33,3.6v0a3.48,3.48,0,0,0,3.42,3.62,3.71,3.71,0,0,0,2.59-1.14.56.56,0,0,1,.4-.18.65.65,0,0,1,.63.63.65.65,0,0,1-.18.44,4.69,4.69,0,0,1-3.51,1.49A4.78,4.78,0,0,1,211.05,37.73Z" transform="translate(-2.11 -2.85)" fill="#fff"/>
      <path d="M221.72,29.81a.7.7,0,1,1,1.39,0v4.85a3.51,3.51,0,0,1,3.18-1.82,3.4,3.4,0,0,1,3.57,3.72v5.17a.7.7,0,1,1-1.39,0V36.91c0-1.73-.93-2.81-2.57-2.81A2.74,2.74,0,0,0,223.11,37v4.72a.68.68,0,0,1-.69.7.69.69,0,0,1-.7-.7Z" transform="translate(-2.11 -2.85)" fill="#fff"/>
      <path d="M238.33,39.88V34.26h-.75a.63.63,0,0,1-.61-.61.61.61,0,0,1,.61-.61h.75v-2.2a.69.69,0,0,1,.69-.7.71.71,0,0,1,.7.7V33h2.41a.62.62,0,0,1,.63.61.62.62,0,0,1-.63.61h-2.41V39.7a1.38,1.38,0,0,0,1.57,1.55,3.7,3.7,0,0,0,.84-.13.6.6,0,0,1,.6.59.57.57,0,0,1-.4.54,3.35,3.35,0,0,1-1.37.26A2.37,2.37,0,0,1,238.33,39.88Z" transform="translate(-2.11 -2.85)" fill="#fff"/>
      <path d="M244.94,30.12a.82.82,0,0,1,1.64,0v.23a.82.82,0,0,1-1.64,0Zm.13,3.53a.69.69,0,0,1,.68-.7.68.68,0,0,1,.7.7v8.08a.67.67,0,0,1-.68.7.68.68,0,0,1-.7-.7Z" transform="translate(-2.11 -2.85)" fill="#fff"/>
      <path d="M258.35,41.73a.69.69,0,1,1-1.38,0V40.47a4.19,4.19,0,0,1-3.57,2.07A4.54,4.54,0,0,1,249,37.72v0a4.57,4.57,0,0,1,4.45-4.84,4.19,4.19,0,0,1,3.57,2v-5a.67.67,0,0,1,.68-.7.69.69,0,0,1,.7.7Zm-8-4.07v0a3.36,3.36,0,0,0,3.27,3.6A3.48,3.48,0,0,0,257,37.7v0a3.46,3.46,0,0,0-3.37-3.58A3.28,3.28,0,0,0,250.38,37.66Z" transform="translate(-2.11 -2.85)" fill="#fff"/>
      <path d="M261.75,39.88V34.26H261a.63.63,0,0,1-.62-.61A.61.61,0,0,1,261,33h.75v-2.2a.69.69,0,0,1,.69-.7.72.72,0,0,1,.7.7V33h2.41a.63.63,0,0,1,.63.61.62.62,0,0,1-.63.61h-2.41V39.7a1.38,1.38,0,0,0,1.57,1.55,3.83,3.83,0,0,0,.84-.13.6.6,0,0,1,.6.59.58.58,0,0,1-.4.54,3.38,3.38,0,0,1-1.37.26A2.37,2.37,0,0,1,261.75,39.88Z" transform="translate(-2.11 -2.85)" fill="#fff"/>
      <path d="M267.66,39.64v0c0-2,1.62-3,4-3a9.73,9.73,0,0,1,2.87.4v-.33c0-1.67-1-2.54-2.78-2.54a5.78,5.78,0,0,0-2.41.53.85.85,0,0,1-.25.05.62.62,0,0,1-.61-.59.64.64,0,0,1,.38-.58,7.23,7.23,0,0,1,3-.63,4.09,4.09,0,0,1,3,1,3.71,3.71,0,0,1,.95,2.71v5.1a.65.65,0,0,1-.67.68.63.63,0,0,1-.66-.64v-.85a4.07,4.07,0,0,1-3.37,1.6C269.4,42.54,267.66,41.55,267.66,39.64Zm6.85-.72V38a9.61,9.61,0,0,0-2.73-.39c-1.75,0-2.72.75-2.72,1.92v0c0,1.17,1.08,1.85,2.34,1.85C273.11,41.44,274.51,40.4,274.51,38.92Z" transform="translate(-2.11 -2.85)" fill="#fff"/>
      <path d="M278.6,29.81a.7.7,0,1,1,1.39,0v5.1a4.16,4.16,0,0,1,3.56-2.07A4.54,4.54,0,0,1,288,37.66v0a4.56,4.56,0,0,1-4.45,4.84,4.17,4.17,0,0,1-3.56-2v1.17a.69.69,0,0,1-.69.7.7.7,0,0,1-.7-.7Zm8,7.91v0a3.35,3.35,0,0,0-3.28-3.6,3.47,3.47,0,0,0-3.37,3.58v0a3.47,3.47,0,0,0,3.37,3.6A3.29,3.29,0,0,0,286.58,37.72Z" transform="translate(-2.11 -2.85)" fill="#fff"/>
      <path d="M294.44,42.56a4.62,4.62,0,0,1-4.64-4.84v0a4.59,4.59,0,0,1,4.46-4.84c2.76,0,4.32,2.25,4.32,4.71a.64.64,0,0,1-.65.65H291.2a3.25,3.25,0,0,0,3.28,3.15,3.8,3.8,0,0,0,2.68-1.08.6.6,0,0,1,1,.44.59.59,0,0,1-.22.45A4.74,4.74,0,0,1,294.44,42.56Zm2.76-5.38c-.15-1.7-1.12-3.17-3-3.17a3.21,3.21,0,0,0-3,3.17Z" transform="translate(-2.11 -2.85)" fill="#fff"/>
      <path d="M301,29.81a.7.7,0,1,1,1.39,0V41.73a.67.67,0,0,1-.68.7.69.69,0,0,1-.71-.7Z" transform="translate(-2.11 -2.85)" fill="#fff"/>
      <path d="M305.53,29.81a.69.69,0,1,1,1.38,0V41.73a.67.67,0,0,1-.68.7.68.68,0,0,1-.7-.7Z" transform="translate(-2.11 -2.85)" fill="#fff"/>
      <path d="M314,42.56a4.62,4.62,0,0,1-4.64-4.84v0a4.59,4.59,0,0,1,4.46-4.84c2.76,0,4.33,2.25,4.33,4.71a.65.65,0,0,1-.65.65h-6.74a3.25,3.25,0,0,0,3.28,3.15,3.8,3.8,0,0,0,2.68-1.08.62.62,0,0,1,.4-.16.6.6,0,0,1,.61.6.61.61,0,0,1-.21.45A4.78,4.78,0,0,1,314,42.56Zm2.76-5.38c-.15-1.7-1.12-3.17-3-3.17a3.21,3.21,0,0,0-3,3.17Z" transform="translate(-2.11 -2.85)" fill="#fff"/>
      <path d="M320.43,33.65a.7.7,0,1,1,1.39,0v1.74a3.83,3.83,0,0,1,3.2-2.48.66.66,0,0,1,.69.7.69.69,0,0,1-.62.7c-1.8.22-3.27,1.57-3.27,4.25v3.17a.7.7,0,1,1-1.39,0Z" transform="translate(-2.11 -2.85)" fill="#fff"/>
      <path d="M140,52.46a.71.71,0,0,1,.7-.72h4.72A5,5,0,0,1,149,53a3.5,3.5,0,0,1,1,2.49v0c0,2.07-1.4,3.28-3.36,3.66l3.13,4a.77.77,0,0,1,.23.52.74.74,0,0,1-.72.7.83.83,0,0,1-.66-.37L145,59.45h-3.62v4.26a.71.71,0,1,1-1.42,0Zm5.29,5.71c1.89,0,3.24-1,3.24-2.59v0c0-1.55-1.19-2.49-3.22-2.49h-3.89v5.12Z" transform="translate(-2.11 -2.85)" fill="#fff"/>
      <path d="M151.79,59.73v0a4.86,4.86,0,0,1,9.71,0v0a4.83,4.83,0,0,1-4.88,4.86A4.78,4.78,0,0,1,151.79,59.73Zm8.29,0v0a3.53,3.53,0,0,0-3.46-3.64,3.44,3.44,0,0,0-3.41,3.6v0a3.49,3.49,0,0,0,3.44,3.62A3.44,3.44,0,0,0,160.08,59.73Z" transform="translate(-2.11 -2.85)" fill="#fff"/>
      <path d="M171.79,63.73a.69.69,0,1,1-1.37,0v-1a3.54,3.54,0,0,1-3.18,1.82,3.4,3.4,0,0,1-3.57-3.73V55.65a.68.68,0,0,1,.69-.7.7.7,0,0,1,.7.7v4.82c0,1.73.94,2.81,2.57,2.81a2.75,2.75,0,0,0,2.79-2.92V55.65a.69.69,0,1,1,1.37,0Z" transform="translate(-2.11 -2.85)" fill="#fff"/>
      <path d="M175.21,61.88V56.26h-.76a.63.63,0,0,1-.61-.61.61.61,0,0,1,.61-.61h.76v-2.2a.69.69,0,0,1,.68-.7.72.72,0,0,1,.71.7V55H179a.63.63,0,0,1,.63.61.62.62,0,0,1-.63.61H176.6V61.7a1.38,1.38,0,0,0,1.56,1.55,3.84,3.84,0,0,0,.85-.13.6.6,0,0,1,.59.59.57.57,0,0,1-.39.54,3.38,3.38,0,0,1-1.37.26A2.37,2.37,0,0,1,175.21,61.88Z" transform="translate(-2.11 -2.85)" fill="#fff"/>
      <path d="M185.61,64.56A4.62,4.62,0,0,1,181,59.72v0a4.59,4.59,0,0,1,4.46-4.84c2.76,0,4.33,2.25,4.33,4.71a.65.65,0,0,1-.65.65h-6.74a3.25,3.25,0,0,0,3.28,3.15,3.8,3.8,0,0,0,2.68-1.08.62.62,0,0,1,.4-.16.6.6,0,0,1,.61.6.61.61,0,0,1-.21.45A4.78,4.78,0,0,1,185.61,64.56Zm2.76-5.38c-.14-1.7-1.12-3.17-3-3.17a3.21,3.21,0,0,0-3,3.17Z" transform="translate(-2.11 -2.85)" fill="#fff"/>
      <path d="M191.52,63.35a.6.6,0,0,1,.36-1.1.58.58,0,0,1,.34.11,5.19,5.19,0,0,0,2.95,1c1.12,0,1.93-.57,1.93-1.47v0c0-.94-1.1-1.3-2.32-1.64-1.46-.41-3.08-.92-3.08-2.63v0c0-1.6,1.33-2.67,3.17-2.67a6.44,6.44,0,0,1,3,.8.65.65,0,0,1,.34.57.6.6,0,0,1-.61.6.64.64,0,0,1-.31-.08,5,5,0,0,0-2.43-.72c-1.1,0-1.8.58-1.8,1.35v0c0,.88,1.15,1.22,2.39,1.6,1.44.43,3,1,3,2.67v0c0,1.77-1.46,2.79-3.31,2.79A6.45,6.45,0,0,1,191.52,63.35Z" transform="translate(-2.11 -2.85)" fill="#fff"/>
      <path d="M205.32,61.64v0c0-2,1.62-3,4-3a9.73,9.73,0,0,1,2.87.4v-.33c0-1.67-1-2.54-2.78-2.54a5.74,5.74,0,0,0-2.41.53.85.85,0,0,1-.25.05.61.61,0,0,1-.61-.59.63.63,0,0,1,.37-.58,7.31,7.31,0,0,1,3-.63,4,4,0,0,1,3,1,3.67,3.67,0,0,1,1,2.71v5.1a.65.65,0,0,1-.67.68.63.63,0,0,1-.66-.64v-.85a4.07,4.07,0,0,1-3.37,1.6C207.07,64.54,205.32,63.55,205.32,61.64Zm6.86-.72V60a9.61,9.61,0,0,0-2.73-.39c-1.75,0-2.72.75-2.72,1.92v0c0,1.17,1.08,1.85,2.34,1.85C210.78,63.44,212.18,62.4,212.18,60.92Z" transform="translate(-2.11 -2.85)" fill="#fff"/>
      <path d="M216.27,55.65A.69.69,0,0,1,217,55a.68.68,0,0,1,.7.7v1a3.53,3.53,0,0,1,3.19-1.82,3.39,3.39,0,0,1,3.56,3.72v5.17a.69.69,0,1,1-1.38,0V58.91c0-1.73-.94-2.81-2.58-2.81A2.74,2.74,0,0,0,217.65,59v4.72a.67.67,0,0,1-.68.7.68.68,0,0,1-.7-.7Z" transform="translate(-2.11 -2.85)" fill="#fff"/>
      <path d="M236,63.73a.69.69,0,1,1-1.38,0V62.47a4.19,4.19,0,0,1-3.57,2.07,4.54,4.54,0,0,1-4.45-4.82v0a4.57,4.57,0,0,1,4.45-4.84,4.19,4.19,0,0,1,3.57,2v-5a.67.67,0,0,1,.68-.7.69.69,0,0,1,.7.7Zm-8-4.07v0a3.36,3.36,0,0,0,3.27,3.6,3.48,3.48,0,0,0,3.37-3.6v0a3.46,3.46,0,0,0-3.37-3.58A3.28,3.28,0,0,0,228.06,59.66Z" transform="translate(-2.11 -2.85)" fill="#fff"/>
      <path d="M244.65,61.88V56.26h-.75a.63.63,0,0,1-.62-.61.61.61,0,0,1,.62-.61h.75v-2.2a.69.69,0,0,1,.69-.7.72.72,0,0,1,.7.7V55h2.41a.63.63,0,0,1,.63.61.62.62,0,0,1-.63.61H246V61.7a1.38,1.38,0,0,0,1.56,1.55,3.84,3.84,0,0,0,.85-.13.59.59,0,0,1,.59.59.57.57,0,0,1-.39.54,3.38,3.38,0,0,1-1.37.26A2.37,2.37,0,0,1,244.65,61.88Z" transform="translate(-2.11 -2.85)" fill="#fff"/>
      <path d="M251.26,52.12a.82.82,0,0,1,1.64,0v.23a.82.82,0,0,1-1.64,0Zm.12,3.53a.7.7,0,0,1,.69-.7.69.69,0,0,1,.7.7v8.08a.67.67,0,0,1-.68.7.69.69,0,0,1-.71-.7Z" transform="translate(-2.11 -2.85)" fill="#fff"/>
      <path d="M255.81,55.65a.7.7,0,0,1,.69-.7.69.69,0,0,1,.7.7v1a3.39,3.39,0,0,1,3-1.76,3.16,3.16,0,0,1,3,1.85,3.73,3.73,0,0,1,3.28-1.85c2.14,0,3.46,1.44,3.46,3.74v5.15a.7.7,0,1,1-1.39,0V58.91c0-1.8-.9-2.81-2.41-2.81A2.59,2.59,0,0,0,263.57,59v4.75a.7.7,0,1,1-1.39,0V58.87c0-1.75-.91-2.77-2.39-2.77A2.69,2.69,0,0,0,257.2,59v4.7a.68.68,0,0,1-.69.7.69.69,0,0,1-.7-.7Z" transform="translate(-2.11 -2.85)" fill="#fff"/>
      <path d="M276.82,64.56a4.63,4.63,0,0,1-4.65-4.84v0a4.59,4.59,0,0,1,4.47-4.84c2.75,0,4.32,2.25,4.32,4.71a.65.65,0,0,1-.65.65h-6.73a3.25,3.25,0,0,0,3.27,3.15,3.82,3.82,0,0,0,2.69-1.08.6.6,0,0,1,.39-.16.61.61,0,0,1,.62.6.63.63,0,0,1-.22.45A4.75,4.75,0,0,1,276.82,64.56Zm2.75-5.38c-.14-1.7-1.11-3.17-3-3.17a3.21,3.21,0,0,0-3,3.17Z" transform="translate(-2.11 -2.85)" fill="#fff"/>
      <path d="M283.71,61.88V56.26H283a.63.63,0,0,1-.62-.61A.61.61,0,0,1,283,55h.75v-2.2a.69.69,0,0,1,.69-.7.72.72,0,0,1,.7.7V55h2.41a.63.63,0,0,1,.63.61.62.62,0,0,1-.63.61H285.1V61.7a1.38,1.38,0,0,0,1.56,1.55,3.84,3.84,0,0,0,.85-.13.6.6,0,0,1,.59.59.57.57,0,0,1-.39.54,3.38,3.38,0,0,1-1.37.26A2.37,2.37,0,0,1,283.71,61.88Z" transform="translate(-2.11 -2.85)" fill="#fff"/>
      <path d="M289.62,61.64v0c0-2,1.62-3,4-3a9.73,9.73,0,0,1,2.87.4v-.33c0-1.67-1-2.54-2.78-2.54a5.78,5.78,0,0,0-2.41.53.85.85,0,0,1-.25.05.62.62,0,0,1-.61-.59.64.64,0,0,1,.38-.58,7.23,7.23,0,0,1,3-.63,4,4,0,0,1,3,1,3.67,3.67,0,0,1,1,2.71v5.1a.65.65,0,0,1-.67.68.63.63,0,0,1-.66-.64v-.85a4.07,4.07,0,0,1-3.37,1.6C291.36,64.54,289.62,63.55,289.62,61.64Zm6.85-.72V60a9.61,9.61,0,0,0-2.73-.39c-1.75,0-2.72.75-2.72,1.92v0c0,1.17,1.08,1.85,2.34,1.85C295.07,63.44,296.47,62.4,296.47,60.92Z" transform="translate(-2.11 -2.85)" fill="#fff"/>
      <path d="M300.56,51.81a.7.7,0,1,1,1.39,0v5.1a4.16,4.16,0,0,1,3.56-2.07A4.54,4.54,0,0,1,310,59.66v0a4.56,4.56,0,0,1-4.45,4.84,4.17,4.17,0,0,1-3.56-2v1.17a.69.69,0,0,1-.69.7.7.7,0,0,1-.7-.7Zm8,7.91v0a3.35,3.35,0,0,0-3.28-3.6,3.47,3.47,0,0,0-3.37,3.58v0a3.47,3.47,0,0,0,3.37,3.6A3.29,3.29,0,0,0,308.54,59.72Z" transform="translate(-2.11 -2.85)" fill="#fff"/>
      <path d="M312.46,51.81a.69.69,0,1,1,1.38,0V63.73a.67.67,0,0,1-.68.7.68.68,0,0,1-.7-.7Z" transform="translate(-2.11 -2.85)" fill="#fff"/>
      <path d="M321,64.56a4.62,4.62,0,0,1-4.64-4.84v0a4.59,4.59,0,0,1,4.46-4.84c2.76,0,4.32,2.25,4.32,4.71a.64.64,0,0,1-.64.65h-6.74A3.25,3.25,0,0,0,321,63.35a3.8,3.8,0,0,0,2.68-1.08.62.62,0,0,1,.4-.16.6.6,0,0,1,.61.6.59.59,0,0,1-.22.45A4.74,4.74,0,0,1,321,64.56Zm2.76-5.38c-.15-1.7-1.12-3.17-3-3.17a3.21,3.21,0,0,0-3,3.17Z" transform="translate(-2.11 -2.85)" fill="#fff"/>
      <path d="M326.86,63.35a.6.6,0,0,1,.36-1.1.58.58,0,0,1,.34.11,5.19,5.19,0,0,0,2.95,1c1.12,0,1.93-.57,1.93-1.47v0c0-.94-1.1-1.3-2.32-1.64-1.46-.41-3.08-.92-3.08-2.63v0c0-1.6,1.33-2.67,3.17-2.67a6.44,6.44,0,0,1,3,.8.65.65,0,0,1,.34.57.6.6,0,0,1-.61.6.64.64,0,0,1-.31-.08,5,5,0,0,0-2.43-.72c-1.1,0-1.8.58-1.8,1.35v0c0,.88,1.15,1.22,2.39,1.6,1.44.43,3,1,3,2.67v0c0,1.77-1.46,2.79-3.31,2.79A6.45,6.45,0,0,1,326.86,63.35Z" transform="translate(-2.11 -2.85)" fill="#fff"/>
    </g>
  </g>
  <g>
    <path d="M138.9,274.83a.71.71,0,0,1,.7-.7h.16a.78.78,0,0,1,.67.38l4.5,6.77,4.5-6.77a.75.75,0,0,1,.67-.38h.16a.71.71,0,0,1,.7.7v11.33a.72.72,0,0,1-.7.72.74.74,0,0,1-.72-.72v-9.4l-4,5.92a.69.69,0,0,1-1.21,0l-4-5.91v9.4a.69.69,0,1,1-1.38,0Z" transform="translate(-2.11 -2.85)" fill="#fff"/>
    <path d="M153.44,282.18v0a4.86,4.86,0,0,1,9.71,0v0a4.83,4.83,0,0,1-4.88,4.86A4.77,4.77,0,0,1,153.44,282.18Zm8.28,0v0a3.52,3.52,0,0,0-3.45-3.64,3.44,3.44,0,0,0-3.41,3.6v0a3.49,3.49,0,0,0,3.44,3.62A3.43,3.43,0,0,0,161.72,282.18Z" transform="translate(-2.11 -2.85)" fill="#fff"/>
    <path d="M165.38,278.09a.69.69,0,0,1,.68-.7.68.68,0,0,1,.7.7v1a3.53,3.53,0,0,1,3.19-1.82,3.4,3.4,0,0,1,3.56,3.73v5.16a.69.69,0,1,1-1.38,0v-4.82c0-1.73-.94-2.81-2.58-2.81a2.74,2.74,0,0,0-2.79,2.92v4.71a.68.68,0,0,1-.68.71.69.69,0,0,1-.7-.71Z" transform="translate(-2.11 -2.85)" fill="#fff"/>
    <path d="M175.73,281.37a.73.73,0,0,1,.72-.72h3.74a.73.73,0,0,1,0,1.45h-3.74A.73.73,0,0,1,175.73,281.37Z" transform="translate(-2.11 -2.85)" fill="#fff"/>
    <path d="M183.5,274.9a.73.73,0,0,1,.7-.72H192a.65.65,0,0,1,.65.65.67.67,0,0,1-.65.67h-7.08V280h6.27a.65.65,0,0,1,.65.65.64.64,0,0,1-.65.64h-6.27v4.87a.71.71,0,1,1-1.42,0Z" transform="translate(-2.11 -2.85)" fill="#fff"/>
    <path d="M194.8,278.09a.7.7,0,0,1,.69-.7.68.68,0,0,1,.7.7v1.75a3.87,3.87,0,0,1,3.21-2.49.67.67,0,0,1,.68.7.7.7,0,0,1-.61.71c-1.8.21-3.28,1.56-3.28,4.24v3.17a.7.7,0,1,1-1.39,0Z" transform="translate(-2.11 -2.85)" fill="#fff"/>
    <path d="M201.82,274.56a.82.82,0,0,1,1.64,0v.23a.82.82,0,0,1-1.64,0Zm.13,3.53a.7.7,0,0,1,.69-.7.69.69,0,0,1,.7.7v8.08a.68.68,0,0,1-.69.71.7.7,0,0,1-.7-.71Z" transform="translate(-2.11 -2.85)" fill="#fff"/>
    <path d="M212.81,285.78l5.22-10.3h-6.36a.65.65,0,0,1-.67-.65.67.67,0,0,1,.67-.65h7.38a.63.63,0,0,1,.69.63,1.41,1.41,0,0,1-.2.63l-5.44,10.93a.76.76,0,0,1-.68.51.69.69,0,0,1-.72-.67A1.19,1.19,0,0,1,212.81,285.78Z" transform="translate(-2.11 -2.85)" fill="#fff"/>
    <path d="M220.74,284.81a.82.82,0,0,1,.85.84V286a.86.86,0,1,1-1.71,0v-.36A.83.83,0,0,1,220.74,284.81Z" transform="translate(-2.11 -2.85)" fill="#fff"/>
    <path d="M223.88,285.09a.77.77,0,0,1-.24-.5.71.71,0,0,1,.7-.7.74.74,0,0,1,.53.21,4.29,4.29,0,0,0,3.42,1.61,2.53,2.53,0,0,0,2.75-2.45v0c0-1.57-1.46-2.43-3.53-2.43h-.45a.62.62,0,0,1-.63-.61.81.81,0,0,1,.29-.56l3.67-4.16h-5.58a.64.64,0,0,1-.66-.63.66.66,0,0,1,.66-.65h6.88a.62.62,0,0,1,.68.61,1,1,0,0,1-.34.71l-3.71,4.12c2.2.18,4.16,1.24,4.16,3.55v0a3.92,3.92,0,0,1-4.21,3.8A5.64,5.64,0,0,1,223.88,285.09Z" transform="translate(-2.11 -2.85)" fill="#fff"/>
    <path d="M234.55,280.52v0c0-3.53,2.11-6.51,5.35-6.51s5.29,2.95,5.29,6.48v0c0,3.53-2.09,6.52-5.33,6.52S234.55,284.05,234.55,280.52Zm9.16,0v0c0-2.75-1.51-5.22-3.85-5.22s-3.84,2.41-3.84,5.19v0c0,2.76,1.52,5.23,3.88,5.23S243.71,283.27,243.71,280.52Z" transform="translate(-2.11 -2.85)" fill="#fff"/>
    <path d="M246.88,284.08v0c0-2,1.62-3,4-3a9.65,9.65,0,0,1,2.86.4v-.33c0-1.67-1-2.53-2.77-2.53a5.71,5.71,0,0,0-2.41.52,1,1,0,0,1-.26,0,.62.62,0,0,1-.61-.59.64.64,0,0,1,.38-.58,7.27,7.27,0,0,1,3-.63,4.07,4.07,0,0,1,3,1,3.67,3.67,0,0,1,1,2.72v5.09a.66.66,0,0,1-.66.69.64.64,0,0,1-.67-.65v-.85a4.07,4.07,0,0,1-3.37,1.6C248.63,287,246.88,286,246.88,284.08Zm6.86-.72v-.9a10.07,10.07,0,0,0-2.74-.39c-1.74,0-2.72.75-2.72,1.92v0c0,1.17,1.08,1.86,2.34,1.86C252.33,285.89,253.74,284.84,253.74,283.36Z" transform="translate(-2.11 -2.85)" fill="#fff"/>
    <path d="M257.73,278.09a.7.7,0,0,1,.69-.7.69.69,0,0,1,.7.7v1a3.41,3.41,0,0,1,3-1.76,3.18,3.18,0,0,1,3,1.85,3.7,3.7,0,0,1,3.27-1.85c2.14,0,3.46,1.44,3.46,3.74v5.15a.7.7,0,1,1-1.39,0v-4.82c0-1.8-.9-2.81-2.41-2.81a2.6,2.6,0,0,0-2.56,2.88v4.75a.69.69,0,1,1-1.38,0v-4.86c0-1.74-.92-2.77-2.4-2.77a2.7,2.7,0,0,0-2.59,2.93v4.7a.68.68,0,0,1-.68.71.7.7,0,0,1-.71-.71Z" transform="translate(-2.11 -2.85)" fill="#fff"/>
    <path d="M274.11,281.37a.74.74,0,0,1,.72-.72h3.75a.73.73,0,0,1,0,1.45h-3.75A.74.74,0,0,1,274.11,281.37Z" transform="translate(-2.11 -2.85)" fill="#fff"/>
    <path d="M282.32,285.78l5.22-10.3h-6.35a.65.65,0,0,1-.67-.65.67.67,0,0,1,.67-.65h7.38a.62.62,0,0,1,.68.63,1.52,1.52,0,0,1-.19.63l-5.44,10.93a.78.78,0,0,1-.69.51.69.69,0,0,1-.72-.67A1.44,1.44,0,0,1,282.32,285.78Z" transform="translate(-2.11 -2.85)" fill="#fff"/>
    <path d="M291.39,278.09a.7.7,0,1,1,1.39,0v1.26a4.17,4.17,0,0,1,3.56-2.07,4.53,4.53,0,0,1,4.45,4.82v0a4.56,4.56,0,0,1-4.45,4.84,4.19,4.19,0,0,1-3.56-2v4.05a.68.68,0,0,1-.69.71.7.7,0,0,1-.7-.71Zm8,4.07v0a3.35,3.35,0,0,0-3.28-3.6,3.46,3.46,0,0,0-3.36,3.58v0a3.46,3.46,0,0,0,3.36,3.6A3.29,3.29,0,0,0,299.37,282.16Z" transform="translate(-2.11 -2.85)" fill="#fff"/>
    <path d="M303.07,278.09a.7.7,0,0,1,.69-.7.69.69,0,0,1,.7.7v1a3.41,3.41,0,0,1,3-1.76,3.18,3.18,0,0,1,3,1.85,3.7,3.7,0,0,1,3.27-1.85c2.15,0,3.46,1.44,3.46,3.74v5.15a.7.7,0,1,1-1.39,0v-4.82c0-1.8-.9-2.81-2.41-2.81a2.6,2.6,0,0,0-2.56,2.88v4.75a.69.69,0,1,1-1.38,0v-4.86c0-1.74-.92-2.77-2.4-2.77a2.7,2.7,0,0,0-2.59,2.93v4.7a.68.68,0,0,1-.68.71.7.7,0,0,1-.71-.71Z" transform="translate(-2.11 -2.85)" fill="#fff"/>
    <path d="M319.42,288.26a1.4,1.4,0,0,0,1-1.47.87.87,0,0,1-.71-.87v-.29a.81.81,0,0,1,.83-.82.89.89,0,0,1,.88,1v.34a2.94,2.94,0,0,1-.64,2.16,2.21,2.21,0,0,1-1.23.65.36.36,0,0,1-.14-.69Z" transform="translate(-2.11 -2.85)" fill="#fff"/>
    <path d="M138.45,306.87a.64.64,0,0,1-.27-.54.69.69,0,0,1,.68-.7.62.62,0,0,1,.43.16,5.74,5.74,0,0,0,4,1.5c1.7,0,2.81-.9,2.81-2.15v0c0-1.17-.63-1.84-3.27-2.4-2.9-.63-4.24-1.56-4.24-3.63v0c0-2,1.75-3.44,4.14-3.44a6.48,6.48,0,0,1,4,1.24.76.76,0,0,1,.31.58.68.68,0,0,1-.69.68.64.64,0,0,1-.41-.12,5.24,5.24,0,0,0-3.26-1.1c-1.64,0-2.68.9-2.68,2v0c0,1.19.64,1.86,3.42,2.45s4.1,1.64,4.1,3.56v0c0,2.16-1.8,3.57-4.3,3.57A7.33,7.33,0,0,1,138.45,306.87Z" transform="translate(-2.11 -2.85)" fill="#fff"/>
    <path d="M149.21,305.68v0c0-2,1.62-3,4-3a9.6,9.6,0,0,1,2.86.4v-.33c0-1.67-1-2.54-2.77-2.54a5.71,5.71,0,0,0-2.41.53.85.85,0,0,1-.25.05.62.62,0,0,1-.62-.59.64.64,0,0,1,.38-.58,7.3,7.3,0,0,1,3-.63,4.05,4.05,0,0,1,3,1,3.68,3.68,0,0,1,1,2.72v5.09a.66.66,0,0,1-.67.69.64.64,0,0,1-.67-.65V307a4,4,0,0,1-3.36,1.6C151,308.58,149.21,307.59,149.21,305.68Zm6.86-.72v-.9a10,10,0,0,0-2.74-.39c-1.74,0-2.71.75-2.71,1.92v0c0,1.17,1.08,1.85,2.34,1.85C154.67,307.48,156.07,306.44,156.07,305Z" transform="translate(-2.11 -2.85)" fill="#fff"/>
    <path d="M160.46,305.92V300.3h-.75a.63.63,0,0,1-.62-.61.62.62,0,0,1,.62-.61h.75v-2.2a.69.69,0,0,1,.69-.7.72.72,0,0,1,.7.7v2.2h2.41a.63.63,0,0,1,.63.61.62.62,0,0,1-.63.61h-2.41v5.44a1.38,1.38,0,0,0,1.56,1.55,3.84,3.84,0,0,0,.85-.13.6.6,0,0,1,.59.59.58.58,0,0,1-.39.55,3.56,3.56,0,0,1-1.37.25A2.37,2.37,0,0,1,160.46,305.92Z" transform="translate(-2.11 -2.85)" fill="#fff"/>
    <path d="M166.51,303a.73.73,0,0,1,.72-.72H171a.73.73,0,0,1,0,1.45h-3.75A.73.73,0,0,1,166.51,303Z" transform="translate(-2.11 -2.85)" fill="#fff"/>
    <path d="M173.84,306.87a.62.62,0,0,1-.27-.54.69.69,0,0,1,.68-.7.62.62,0,0,1,.43.16,5.74,5.74,0,0,0,4,1.5c1.69,0,2.81-.9,2.81-2.15v0c0-1.17-.63-1.84-3.28-2.4-2.9-.63-4.23-1.56-4.23-3.63v0c0-2,1.75-3.44,4.14-3.44a6.48,6.48,0,0,1,4,1.24.75.75,0,0,1,.3.58.67.67,0,0,1-.68.68.64.64,0,0,1-.41-.12,5.26,5.26,0,0,0-3.26-1.1c-1.64,0-2.69.9-2.69,2v0c0,1.19.65,1.86,3.42,2.45s4.11,1.64,4.11,3.56v0c0,2.16-1.8,3.57-4.3,3.57A7.33,7.33,0,0,1,173.84,306.87Z" transform="translate(-2.11 -2.85)" fill="#fff"/>
    <path d="M193.28,307.77a.69.69,0,1,1-1.37,0v-1a3.55,3.55,0,0,1-3.19,1.82,3.39,3.39,0,0,1-3.56-3.72v-5.17a.67.67,0,0,1,.68-.7.7.7,0,0,1,.7.7v4.82c0,1.73.94,2.81,2.58,2.81a2.75,2.75,0,0,0,2.79-2.91v-4.72a.67.67,0,0,1,.68-.7.69.69,0,0,1,.69.7Z" transform="translate(-2.11 -2.85)" fill="#fff"/>
    <path d="M196.12,299.69a.7.7,0,1,1,1.39,0v1a3.51,3.51,0,0,1,3.18-1.82,3.4,3.4,0,0,1,3.57,3.73v5.16a.7.7,0,1,1-1.39,0V303c0-1.73-.93-2.81-2.57-2.81a2.73,2.73,0,0,0-2.79,2.92v4.71a.68.68,0,0,1-.69.71.7.7,0,0,1-.7-.71Z" transform="translate(-2.11 -2.85)" fill="#fff"/>
    <path d="M212.32,307.34a.67.67,0,0,1-.32-.58.68.68,0,0,1,.68-.68.82.82,0,0,1,.45.14,4.21,4.21,0,0,0,2.74,1.09c2.26,0,3.8-2.31,3.74-5.53a4,4,0,0,1-3.56,2c-2.6,0-4.4-1.63-4.4-3.9v0a4.29,4.29,0,0,1,4.54-4.28,4.45,4.45,0,0,1,3.31,1.29c1,1,1.57,2.36,1.57,4.88v0c0,4-2.13,6.82-5.24,6.82A5.65,5.65,0,0,1,212.32,307.34Zm7-7.62v0a3,3,0,0,0-3.2-2.86,2.89,2.89,0,0,0-3,2.95v0a2.82,2.82,0,0,0,3.1,2.76A3,3,0,0,0,219.34,299.72Z" transform="translate(-2.11 -2.85)" fill="#fff"/>
    <path d="M223.93,306.4a.83.83,0,0,1,.85.85v.36a.86.86,0,1,1-1.71,0v-.36A.83.83,0,0,1,223.93,306.4Z" transform="translate(-2.11 -2.85)" fill="#fff"/>
    <path d="M227.06,306.69a.76.76,0,0,1-.23-.5.71.71,0,0,1,.7-.7.74.74,0,0,1,.52.21,4.31,4.31,0,0,0,3.42,1.61,2.54,2.54,0,0,0,2.76-2.45v0c0-1.57-1.46-2.43-3.53-2.43h-.45a.62.62,0,0,1-.63-.61.81.81,0,0,1,.29-.56l3.67-4.16H228a.65.65,0,0,1-.67-.63.67.67,0,0,1,.67-.65h6.88a.62.62,0,0,1,.68.61,1,1,0,0,1-.34.71l-3.71,4.12c2.2.18,4.16,1.24,4.16,3.55v0a3.92,3.92,0,0,1-4.22,3.8A5.67,5.67,0,0,1,227.06,306.69Z" transform="translate(-2.11 -2.85)" fill="#fff"/>
    <path d="M237.73,302.12v0c0-3.53,2.11-6.51,5.35-6.51s5.3,2.95,5.3,6.48v0c0,3.53-2.09,6.52-5.33,6.52S237.73,305.65,237.73,302.12Zm9.17,0v0c0-2.75-1.51-5.22-3.85-5.22s-3.84,2.41-3.84,5.19v0c0,2.76,1.51,5.23,3.87,5.23S246.9,304.87,246.9,302.12Z" transform="translate(-2.11 -2.85)" fill="#fff"/>
    <path d="M250.06,305.68v0c0-2,1.63-3,4-3a9.73,9.73,0,0,1,2.87.4v-.33c0-1.67-1-2.54-2.78-2.54a5.78,5.78,0,0,0-2.41.53.85.85,0,0,1-.25.05.62.62,0,0,1-.61-.59.64.64,0,0,1,.38-.58,7.23,7.23,0,0,1,3-.63,4.09,4.09,0,0,1,3,1,3.67,3.67,0,0,1,.95,2.72v5.09a.66.66,0,0,1-.67.69.64.64,0,0,1-.66-.65V307a4.07,4.07,0,0,1-3.37,1.6C251.81,308.58,250.06,307.59,250.06,305.68Zm6.87-.72v-.9a10.13,10.13,0,0,0-2.74-.39c-1.75,0-2.72.75-2.72,1.92v0c0,1.17,1.08,1.85,2.34,1.85C255.52,307.48,256.93,306.44,256.93,305Z" transform="translate(-2.11 -2.85)" fill="#fff"/>
    <path d="M260.92,299.69a.7.7,0,1,1,1.39,0v.95a3.39,3.39,0,0,1,3-1.76,3.16,3.16,0,0,1,3,1.85,3.73,3.73,0,0,1,3.28-1.85c2.14,0,3.46,1.44,3.46,3.74v5.15a.7.7,0,1,1-1.39,0V303c0-1.8-.9-2.81-2.41-2.81a2.59,2.59,0,0,0-2.56,2.88v4.75a.7.7,0,1,1-1.39,0v-4.86c0-1.74-.91-2.77-2.39-2.77a2.69,2.69,0,0,0-2.59,2.93v4.7a.68.68,0,0,1-.69.71.7.7,0,0,1-.7-.71Z" transform="translate(-2.11 -2.85)" fill="#fff"/>
    <path d="M277.3,303a.73.73,0,0,1,.72-.72h3.74a.73.73,0,0,1,0,1.45H278A.73.73,0,0,1,277.3,303Z" transform="translate(-2.11 -2.85)" fill="#fff"/>
    <path d="M284.66,307a.69.69,0,0,1,.4-1.26.73.73,0,0,1,.48.18,4.83,4.83,0,0,0,3.24,1.43,2.81,2.81,0,0,0,3-2.8v0c0-1.59-1.3-2.65-3.13-2.65a7.76,7.76,0,0,0-2.56.61,1.22,1.22,0,0,1-.72-.27.86.86,0,0,1-.31-.77l.29-4.93a.68.68,0,0,1,.69-.69h6.05a.66.66,0,0,1,0,1.32h-5.44l-.27,4a5.74,5.74,0,0,1,2.48-.56c2.45,0,4.36,1.44,4.36,3.85v0a4.15,4.15,0,0,1-4.48,4.14A6.23,6.23,0,0,1,284.66,307Z" transform="translate(-2.11 -2.85)" fill="#fff"/>
    <path d="M295.59,299.69a.69.69,0,1,1,1.38,0V301a4.19,4.19,0,0,1,3.57-2.07A4.54,4.54,0,0,1,305,303.7v0a4.56,4.56,0,0,1-4.45,4.84,4.19,4.19,0,0,1-3.57-2v4a.68.68,0,0,1-.68.71.69.69,0,0,1-.7-.71Zm8,4.07v0a3.35,3.35,0,0,0-3.27-3.6,3.47,3.47,0,0,0-3.37,3.58v0a3.47,3.47,0,0,0,3.37,3.6A3.28,3.28,0,0,0,303.56,303.76Z" transform="translate(-2.11 -2.85)" fill="#fff"/>
    <path d="M307.27,299.69a.7.7,0,1,1,1.39,0v.95a3.39,3.39,0,0,1,3-1.76,3.17,3.17,0,0,1,3,1.85,3.73,3.73,0,0,1,3.28-1.85c2.14,0,3.45,1.44,3.45,3.74v5.15a.69.69,0,1,1-1.38,0V303c0-1.8-.9-2.81-2.41-2.81A2.59,2.59,0,0,0,315,303v4.75a.7.7,0,1,1-1.39,0v-4.86c0-1.74-.92-2.77-2.39-2.77a2.69,2.69,0,0,0-2.59,2.93v4.7a.68.68,0,0,1-.69.71.69.69,0,0,1-.7-.71Z" transform="translate(-2.11 -2.85)" fill="#fff"/>
  </g>
  <g>
    <path d="M138.74,231.87a1.1,1.1,0,0,1,1.11-1.11h.24a1.16,1.16,0,0,1,1,.59l3.82,6,3.83-6a1.13,1.13,0,0,1,1-.57H150a1.1,1.1,0,0,1,1.11,1.11v10.55a1.09,1.09,0,0,1-1.11,1.1,1.11,1.11,0,0,1-1.1-1.1v-7.56l-3.08,4.63a1,1,0,0,1-1.85,0l-3.07-4.59v7.54a1.07,1.07,0,0,1-1.09,1.08,1.06,1.06,0,0,1-1.08-1.08Z" transform="translate(-2.11 -2.85)" fill="#fff"/>
    <path d="M153.21,240.7v0c0-2,1.6-3.06,3.92-3.06a7.81,7.81,0,0,1,2.56.4v-.24c0-1.35-.83-2.07-2.36-2.07a5.56,5.56,0,0,0-2.11.38,1.4,1.4,0,0,1-.34.05.91.91,0,0,1-.92-.9.94.94,0,0,1,.6-.86,8.19,8.19,0,0,1,3.06-.56,4.28,4.28,0,0,1,3.15,1.06,4,4,0,0,1,1,2.94v4.68a1,1,0,0,1-1.07,1,1,1,0,0,1-1.06-.92v-.36a3.86,3.86,0,0,1-3.1,1.39C154.79,243.63,153.21,242.6,153.21,240.7Zm6.52-.69v-.65a6.23,6.23,0,0,0-2.17-.37c-1.4,0-2.23.59-2.23,1.58v0c0,.91.81,1.44,1.86,1.44C158.63,242.05,159.73,241.22,159.73,240Z" transform="translate(-2.11 -2.85)" fill="#fff"/>
    <path d="M163.68,237.92a1.09,1.09,0,0,1,1.07-1.08h3.38a1.08,1.08,0,0,1,0,2.15h-3.38A1.08,1.08,0,0,1,163.68,237.92Z" transform="translate(-2.11 -2.85)" fill="#fff"/>
    <path d="M171.21,234.92a1.07,1.07,0,0,1,1.08-1.1,1.09,1.09,0,0,1,1.1,1.1v.59a3.8,3.8,0,0,1,3.24-1.78c2.23,0,4.41,1.76,4.41,4.93v0c0,3.15-2.16,4.93-4.41,4.93a3.87,3.87,0,0,1-3.24-1.67v3.36a1.07,1.07,0,0,1-1.1,1.08,1.06,1.06,0,0,1-1.08-1.08Zm7.61,3.78v0a2.81,2.81,0,0,0-2.72-3,2.86,2.86,0,0,0-2.77,3v0a2.86,2.86,0,0,0,2.77,3A2.78,2.78,0,0,0,178.82,238.7Z" transform="translate(-2.11 -2.85)" fill="#fff"/>
    <path d="M187.37,243.65a4.75,4.75,0,0,1-4.88-4.93v0a4.72,4.72,0,0,1,4.65-5,4.5,4.5,0,0,1,4.52,4.68,1,1,0,0,1-1,1h-6a2.66,2.66,0,0,0,2.74,2.42,3.43,3.43,0,0,0,2.25-.83.78.78,0,0,1,.56-.2.86.86,0,0,1,.86.88.93.93,0,0,1-.29.67A4.88,4.88,0,0,1,187.37,243.65Zm2.16-5.64a2.46,2.46,0,0,0-2.41-2.5,2.58,2.58,0,0,0-2.47,2.5Z" transform="translate(-2.11 -2.85)" fill="#fff"/>
    <path d="M200,241.85l4.9-9.08h-5.46a1,1,0,0,1,0-1.94h7.08a.92.92,0,0,1,1,1,2.46,2.46,0,0,1-.31,1.06l-5.22,9.9a1.16,1.16,0,0,1-1.06.74,1,1,0,0,1-1.14-1A1.69,1.69,0,0,1,200,241.85Z" transform="translate(-2.11 -2.85)" fill="#fff"/>
    <path d="M208.7,240.86A1.23,1.23,0,0,1,210,242.1v.18a1.27,1.27,0,0,1-2.54,0v-.18A1.23,1.23,0,0,1,208.7,240.86Z" transform="translate(-2.11 -2.85)" fill="#fff"/>
    <path d="M212.17,242a1.09,1.09,0,0,1-.36-.79,1.08,1.08,0,0,1,1.07-1.06,1.05,1.05,0,0,1,.73.28,3.84,3.84,0,0,0,2.87,1.21,2,2,0,0,0,2.18-1.91v0c0-1.25-1.14-2-2.9-2h-.45a1,1,0,0,1-1-.95,1.26,1.26,0,0,1,.47-.9l3-3.15H213.2a1,1,0,1,1,0-1.93h6.45a1,1,0,0,1,1.09,1,1.62,1.62,0,0,1-.63,1.21l-3,3.08c1.91.23,3.71,1.2,3.71,3.53v0c0,2.32-1.78,4-4.41,4A5.93,5.93,0,0,1,212.17,242Z" transform="translate(-2.11 -2.85)" fill="#fff"/>
    <path d="M222.72,237.17v0c0-3.6,2.2-6.52,5.51-6.52s5.48,2.88,5.48,6.48v0c0,3.6-2.2,6.52-5.51,6.52S222.72,240.77,222.72,237.17Zm8.7,0v0c0-2.48-1.28-4.52-3.22-4.52s-3.19,2-3.19,4.48v0c0,2.49,1.26,4.52,3.22,4.52S231.42,239.63,231.42,237.17Z" transform="translate(-2.11 -2.85)" fill="#fff"/>
    <path d="M235.38,237.92a1.08,1.08,0,0,1,1.06-1.08h3.38a1.08,1.08,0,0,1,0,2.15h-3.38A1.08,1.08,0,0,1,235.38,237.92Z" transform="translate(-2.11 -2.85)" fill="#fff"/>
    <path d="M244.2,232.92l-1.3.39a1.49,1.49,0,0,1-.4.06,1,1,0,0,1-1-.94,1,1,0,0,1,.74-1l1.91-.62a4,4,0,0,1,1.08-.19h0a1.08,1.08,0,0,1,1.1,1.1v10.65a1.1,1.1,0,1,1-2.19,0Z" transform="translate(-2.11 -2.85)" fill="#fff"/>
    <path d="M249.83,242.6a1,1,0,0,1-.5-.91,1,1,0,0,1,1-1,1.15,1.15,0,0,1,.61.18,3.8,3.8,0,0,0,2.31.77c1.85,0,3-1.64,3-4a3.7,3.7,0,0,1-2.95,1.33c-2.69,0-4.47-1.56-4.47-4v0a4.39,4.39,0,0,1,4.7-4.36,4.55,4.55,0,0,1,3.51,1.34c.92.93,1.51,2.32,1.51,4.8v0c0,4.05-2,6.86-5.4,6.86A5.8,5.8,0,0,1,249.83,242.6Zm6.43-7.72v0a2.38,2.38,0,0,0-2.63-2.32,2.31,2.31,0,0,0-2.5,2.34v0a2.3,2.3,0,0,0,2.57,2.25A2.34,2.34,0,0,0,256.26,234.88Z" transform="translate(-2.11 -2.85)" fill="#fff"/>
    <path d="M260.16,245.05a1.57,1.57,0,0,0,1.23-1.62,1.29,1.29,0,0,1-1-1.22v-.15a1.17,1.17,0,0,1,1.22-1.2c.81,0,1.3.61,1.3,1.58v.2a3.59,3.59,0,0,1-.88,2.63,2.73,2.73,0,0,1-1.69.77.5.5,0,0,1-.56-.5A.51.51,0,0,1,260.16,245.05Z" transform="translate(-2.11 -2.85)" fill="#fff"/>
    <path d="M270.4,231.28a1.07,1.07,0,0,1,1.08-1.08,1.08,1.08,0,0,1,1.1,1.08v11.16a1.09,1.09,0,0,1-2.18,0Z" transform="translate(-2.11 -2.85)" fill="#fff"/>
    <path d="M274.53,240.7v0c0-2,1.6-3.06,3.92-3.06a7.81,7.81,0,0,1,2.56.4v-.24c0-1.35-.83-2.07-2.36-2.07a5.56,5.56,0,0,0-2.11.38,1.4,1.4,0,0,1-.34.05.91.91,0,0,1-.92-.9.94.94,0,0,1,.6-.86,8.15,8.15,0,0,1,3.06-.56,4.28,4.28,0,0,1,3.15,1.06,4,4,0,0,1,1,2.94v4.68a1,1,0,0,1-1.06,1,1,1,0,0,1-1.06-.92v-.36a3.86,3.86,0,0,1-3.1,1.39C276.11,243.63,274.53,242.6,274.53,240.7ZM281,240v-.65a6.17,6.17,0,0,0-2.16-.37c-1.4,0-2.23.59-2.23,1.58v0c0,.91.81,1.44,1.85,1.44C279.94,242.05,281,241.22,281,240Z" transform="translate(-2.11 -2.85)" fill="#fff"/>
    <path d="M285,237.92a1.08,1.08,0,0,1,1.06-1.08h3.39a1.08,1.08,0,0,1,0,2.15h-3.39A1.08,1.08,0,0,1,285,237.92Z" transform="translate(-2.11 -2.85)" fill="#fff"/>
    <path d="M292.17,242.48a.84.84,0,0,1-.42-.76.89.89,0,0,1,1.35-.75,5,5,0,0,0,2.74.91c.93,0,1.47-.39,1.47-1v0c0-.74-1-1-2.12-1.33-1.4-.4-3-1-3-2.79v0c0-1.8,1.49-2.9,3.38-2.9a6.5,6.5,0,0,1,3,.78.92.92,0,0,1,.53.83.91.91,0,0,1-1.34.77,5.1,5.1,0,0,0-2.23-.65c-.85,0-1.33.4-1.33.94v0c0,.71,1,1,2.14,1.35,1.39.44,2.95,1.07,2.95,2.78v0c0,2-1.55,3-3.53,3A6.51,6.51,0,0,1,292.17,242.48Z" transform="translate(-2.11 -2.85)" fill="#fff"/>
    <path d="M309.72,242.44a1.1,1.1,0,0,1-2.2,0V242a3.41,3.41,0,0,1-3,1.67c-2.14,0-3.38-1.44-3.38-3.65v-5.06a1.09,1.09,0,1,1,2.17,0v4.41c0,1.47.74,2.3,2,2.3a2.1,2.1,0,0,0,2.14-2.34v-4.37a1.09,1.09,0,0,1,1.1-1.1,1.1,1.1,0,0,1,1.1,1.1Z" transform="translate(-2.11 -2.85)" fill="#fff"/>
    <path d="M317.91,242.6a1,1,0,0,1-.51-.91,1,1,0,0,1,1.05-1,1.15,1.15,0,0,1,.61.18,3.79,3.79,0,0,0,2.3.77c1.86,0,3-1.64,3.05-4a3.73,3.73,0,0,1-3,1.33c-2.68,0-4.46-1.56-4.46-4v0a4.39,4.39,0,0,1,4.7-4.36A4.57,4.57,0,0,1,325.2,232c.92.93,1.51,2.32,1.51,4.8v0c0,4.05-2,6.86-5.4,6.86A5.77,5.77,0,0,1,317.91,242.6Zm6.42-7.72v0a2.38,2.38,0,0,0-2.63-2.32,2.32,2.32,0,0,0-2.5,2.34v0a2.59,2.59,0,0,0,5.13,0Z" transform="translate(-2.11 -2.85)" fill="#fff"/>
    <path d="M329.71,240.86A1.23,1.23,0,0,1,331,242.1v.18a1.27,1.27,0,0,1-2.54,0v-.18A1.23,1.23,0,0,1,329.71,240.86Z" transform="translate(-2.11 -2.85)" fill="#fff"/>
    <path d="M333.19,242a1.06,1.06,0,0,1-.36-.79,1.07,1.07,0,0,1,1.06-1.06,1.08,1.08,0,0,1,.74.28,3.8,3.8,0,0,0,2.86,1.21,2,2,0,0,0,2.18-1.91v0c0-1.25-1.14-2-2.9-2h-.45a1,1,0,0,1-.95-.95,1.24,1.24,0,0,1,.46-.9l3-3.15h-4.58a1,1,0,1,1,0-1.93h6.45a1,1,0,0,1,1.1,1,1.65,1.65,0,0,1-.63,1.21l-3,3.08c1.9.23,3.7,1.2,3.7,3.53v0c0,2.32-1.78,4-4.41,4A5.89,5.89,0,0,1,333.19,242Z" transform="translate(-2.11 -2.85)" fill="#fff"/>
    <path d="M343.73,237.17v0c0-3.6,2.2-6.52,5.51-6.52s5.48,2.88,5.48,6.48v0c0,3.6-2.2,6.52-5.51,6.52S343.73,240.77,343.73,237.17Zm8.7,0v0c0-2.48-1.28-4.52-3.22-4.52s-3.19,2-3.19,4.48v0c0,2.49,1.26,4.52,3.22,4.52S352.43,239.63,352.43,237.17Z" transform="translate(-2.11 -2.85)" fill="#fff"/>
    <path d="M356.39,237.92a1.08,1.08,0,0,1,1.06-1.08h3.39a1.08,1.08,0,0,1,0,2.15h-3.39A1.08,1.08,0,0,1,356.39,237.92Z" transform="translate(-2.11 -2.85)" fill="#fff"/>
    <path d="M365.21,232.92l-1.3.39a1.43,1.43,0,0,1-.39.06,1,1,0,0,1-1-.94,1,1,0,0,1,.74-1l1.91-.62a4,4,0,0,1,1.08-.19h0a1.07,1.07,0,0,1,1.09,1.1v10.65a1.08,1.08,0,0,1-1.09,1.1,1.1,1.1,0,0,1-1.1-1.1Z" transform="translate(-2.11 -2.85)" fill="#fff"/>
    <path d="M371.53,241.85l4.89-9.08H371a1,1,0,0,1,0-1.94H378a.92.92,0,0,1,1,1,2.44,2.44,0,0,1-.3,1.06l-5.23,9.9a1.16,1.16,0,0,1-1.06.74,1,1,0,0,1-1.13-1A1.69,1.69,0,0,1,371.53,241.85Z" transform="translate(-2.11 -2.85)" fill="#fff"/>
    <path d="M138.9,253.08a.72.72,0,0,1,.7-.71h.16a.8.8,0,0,1,.67.38l4.5,6.77,4.5-6.77a.77.77,0,0,1,.67-.38h.16a.72.72,0,0,1,.7.71V264.4a.71.71,0,0,1-.7.72.73.73,0,0,1-.72-.72V255l-4,5.93a.69.69,0,0,1-1.21,0l-4-5.91v9.4a.69.69,0,1,1-1.38,0Z" transform="translate(-2.11 -2.85)" fill="#fff"/>
    <path d="M153.32,262.33v0c0-2,1.62-3,4-3a10.1,10.1,0,0,1,2.87.39v-.32c0-1.67-1-2.54-2.78-2.54a5.94,5.94,0,0,0-2.41.52.65.65,0,0,1-.25.06.62.62,0,0,1-.61-.6.63.63,0,0,1,.38-.57,7.23,7.23,0,0,1,3-.63,4.12,4.12,0,0,1,3,1,3.67,3.67,0,0,1,1,2.72v5.1a.66.66,0,0,1-.67.68.64.64,0,0,1-.66-.65v-.84a4.1,4.1,0,0,1-3.37,1.6C155.06,265.23,153.32,264.24,153.32,262.33Zm6.86-.72v-.9a9.71,9.71,0,0,0-2.74-.4c-1.75,0-2.72.76-2.72,1.93v0c0,1.17,1.08,1.85,2.34,1.85C158.77,264.13,160.18,263.09,160.18,261.61Zm-4.38-9v0a1.88,1.88,0,0,1,3.75,0v0a1.88,1.88,0,0,1-3.75,0Zm3,0v0a1.12,1.12,0,0,0-2.23,0v0a1.12,1.12,0,0,0,2.23,0Z" transform="translate(-2.11 -2.85)" fill="#fff"/>
    <path d="M164.17,256.34a.7.7,0,1,1,1.39,0v1a3.52,3.52,0,0,1,3.18-1.81,3.4,3.4,0,0,1,3.57,3.72v5.17a.7.7,0,1,1-1.39,0v-4.83c0-1.72-.93-2.8-2.57-2.8a2.73,2.73,0,0,0-2.79,2.91v4.72a.68.68,0,0,1-.69.7.69.69,0,0,1-.7-.7Z" transform="translate(-2.11 -2.85)" fill="#fff"/>
    <path d="M174.52,259.61a.73.73,0,0,1,.72-.72H179a.73.73,0,0,1,0,1.46h-3.74A.73.73,0,0,1,174.52,259.61Z" transform="translate(-2.11 -2.85)" fill="#fff"/>
    <path d="M182.58,257h-.75a.59.59,0,0,1-.6-.61.6.6,0,0,1,.6-.6h.75v-.81a3.28,3.28,0,0,1,.81-2.39,2.75,2.75,0,0,1,2-.72,4.91,4.91,0,0,1,1.1.1.62.62,0,0,1,.5.6.59.59,0,0,1-.66.59,5.86,5.86,0,0,0-.76-.09c-1.08,0-1.62.65-1.62,2v.76h2.41a.59.59,0,0,1,.62.59.61.61,0,0,1-.62.6H184v7.47a.69.69,0,0,1-.68.7.7.7,0,0,1-.71-.7Z" transform="translate(-2.11 -2.85)" fill="#fff"/>
    <path d="M188.4,256.34a.7.7,0,0,1,.68-.71.69.69,0,0,1,.7.71v1.74A3.86,3.86,0,0,1,193,255.6a.66.66,0,0,1,.68.7.68.68,0,0,1-.61.7c-1.8.22-3.28,1.57-3.28,4.25v3.17a.69.69,0,1,1-1.38,0Z" transform="translate(-2.11 -2.85)" fill="#fff"/>
    <path d="M199.09,265.25a4.63,4.63,0,0,1-4.65-4.85v0a4.6,4.6,0,0,1,4.47-4.84c2.76,0,4.32,2.25,4.32,4.71a.64.64,0,0,1-.65.65h-6.73a3.25,3.25,0,0,0,3.28,3.15,3.8,3.8,0,0,0,2.68-1.08.6.6,0,0,1,1,.43.56.56,0,0,1-.22.45A4.72,4.72,0,0,1,199.09,265.25Zm2.76-5.39c-.15-1.69-1.12-3.16-3-3.16a3.2,3.2,0,0,0-3,3.16Z" transform="translate(-2.11 -2.85)" fill="#fff"/>
    <path d="M211.92,264l5.22-10.3h-6.35a.65.65,0,0,1-.67-.64.67.67,0,0,1,.67-.65h7.38a.61.61,0,0,1,.68.63,1.39,1.39,0,0,1-.19.63l-5.44,10.93a.77.77,0,0,1-.68.5.7.7,0,0,1-.73-.66A1.57,1.57,0,0,1,211.92,264Z" transform="translate(-2.11 -2.85)" fill="#fff"/>
    <path d="M219.86,263.05a.83.83,0,0,1,.85.85v.36a.86.86,0,1,1-1.71,0v-.36A.83.83,0,0,1,219.86,263.05Z" transform="translate(-2.11 -2.85)" fill="#fff"/>
    <path d="M223,263.34a.78.78,0,0,1-.23-.5.72.72,0,0,1,.7-.71.74.74,0,0,1,.52.22,4.33,4.33,0,0,0,3.42,1.6,2.54,2.54,0,0,0,2.76-2.45v0c0-1.57-1.46-2.43-3.53-2.43h-.45a.63.63,0,0,1-.63-.62.77.77,0,0,1,.29-.55l3.67-4.16h-5.58a.65.65,0,0,1-.67-.63.67.67,0,0,1,.67-.65h6.88a.62.62,0,0,1,.68.61,1,1,0,0,1-.34.7l-3.71,4.13c2.2.18,4.16,1.24,4.16,3.54v0a3.92,3.92,0,0,1-4.21,3.8A5.71,5.71,0,0,1,223,263.34Z" transform="translate(-2.11 -2.85)" fill="#fff"/>
    <path d="M233.67,258.77v0c0-3.53,2.1-6.52,5.34-6.52s5.3,3,5.3,6.48v0c0,3.53-2.09,6.52-5.33,6.52S233.67,262.3,233.67,258.77Zm9.16,0v0c0-2.75-1.51-5.22-3.85-5.22s-3.84,2.41-3.84,5.18v0c0,2.76,1.51,5.22,3.87,5.22S242.83,261.52,242.83,258.77Z" transform="translate(-2.11 -2.85)" fill="#fff"/>
    <path d="M246.23,259.61a.73.73,0,0,1,.72-.72h3.75a.73.73,0,0,1,0,1.46H247A.73.73,0,0,1,246.23,259.61Z" transform="translate(-2.11 -2.85)" fill="#fff"/>
    <path d="M254.91,253.76l-1.77.58a1.17,1.17,0,0,1-.3,0,.62.62,0,0,1-.62-.61.63.63,0,0,1,.51-.61l2.07-.72a2.76,2.76,0,0,1,.77-.17h0a.7.7,0,0,1,.7.71V264.4a.7.7,0,0,1-.7.72.71.71,0,0,1-.7-.72Z" transform="translate(-2.11 -2.85)" fill="#fff"/>
    <path d="M259.66,264a.71.71,0,0,1-.33-.58.68.68,0,0,1,.69-.68.82.82,0,0,1,.45.14,4.2,4.2,0,0,0,2.74,1.08c2.26,0,3.8-2.3,3.74-5.53a4,4,0,0,1-3.56,2c-2.6,0-4.4-1.64-4.4-3.91v0a4.3,4.3,0,0,1,4.54-4.29,4.45,4.45,0,0,1,3.31,1.3c1,1,1.57,2.36,1.57,4.88v0c0,4-2.13,6.83-5.24,6.83A5.65,5.65,0,0,1,259.66,264Zm7-7.62v0a3,3,0,0,0-3.2-2.87,2.9,2.9,0,0,0-3,3v0a2.82,2.82,0,0,0,3.1,2.76A3,3,0,0,0,266.68,256.37Z" transform="translate(-2.11 -2.85)" fill="#fff"/>
    <path d="M270.1,266.51a1.42,1.42,0,0,0,1-1.48.87.87,0,0,1-.71-.86v-.29a.81.81,0,0,1,.83-.83.9.9,0,0,1,.89,1v.34a2.92,2.92,0,0,1-.65,2.16,2.21,2.21,0,0,1-1.23.65.35.35,0,0,1-.38-.36A.34.34,0,0,1,270.1,266.51Z" transform="translate(-2.11 -2.85)" fill="#fff"/>
    <path d="M280,252.5a.69.69,0,1,1,1.38,0v11.92a.67.67,0,0,1-.68.7.68.68,0,0,1-.7-.7Z" transform="translate(-2.11 -2.85)" fill="#fff"/>
    <path d="M283.76,260.42v0a4.85,4.85,0,0,1,9.7,0v0a4.83,4.83,0,0,1-4.87,4.86A4.77,4.77,0,0,1,283.76,260.42Zm8.28,0v0a3.52,3.52,0,0,0-3.45-3.64,3.44,3.44,0,0,0-3.41,3.6v0a3.49,3.49,0,0,0,3.44,3.62A3.43,3.43,0,0,0,292,260.42Zm-4.19-7.09v.27a.85.85,0,0,1-1.7,0v-.27a.85.85,0,0,1,1.7,0Zm3.2,0v.27a.85.85,0,0,1-1.69,0v-.27a.85.85,0,0,1,1.69,0Z" transform="translate(-2.11 -2.85)" fill="#fff"/>
    <path d="M295.69,256.34a.71.71,0,0,1,.69-.71.7.7,0,0,1,.7.71v1.74a3.84,3.84,0,0,1,3.21-2.48.66.66,0,0,1,.68.7.68.68,0,0,1-.61.7c-1.8.22-3.28,1.57-3.28,4.25v3.17a.7.7,0,1,1-1.39,0Z" transform="translate(-2.11 -2.85)" fill="#fff"/>
    <path d="M302.25,259.61a.73.73,0,0,1,.72-.72h3.74a.73.73,0,0,1,0,1.46H303A.73.73,0,0,1,302.25,259.61Z" transform="translate(-2.11 -2.85)" fill="#fff"/>
    <path d="M309.28,264a.64.64,0,0,1-.25-.5.6.6,0,0,1,.61-.6.58.58,0,0,1,.35.11,5.19,5.19,0,0,0,2.95,1c1.12,0,1.93-.57,1.93-1.47v0c0-.94-1.1-1.3-2.33-1.64-1.46-.41-3.08-.92-3.08-2.63v0c0-1.61,1.34-2.67,3.17-2.67a6.56,6.56,0,0,1,3,.79.69.69,0,0,1,.35.58.6.6,0,0,1-.62.59.63.63,0,0,1-.3-.07,5.07,5.07,0,0,0-2.43-.72c-1.1,0-1.8.58-1.8,1.35v0c0,.88,1.15,1.22,2.39,1.6,1.44.43,3,1,3,2.67v0c0,1.77-1.46,2.79-3.31,2.79A6.45,6.45,0,0,1,309.28,264Z" transform="translate(-2.11 -2.85)" fill="#fff"/>
    <path d="M317.91,260.42v0a4.85,4.85,0,0,1,9.7,0v0a4.83,4.83,0,0,1-4.88,4.86A4.77,4.77,0,0,1,317.91,260.42Zm8.28,0v0a3.53,3.53,0,0,0-3.46-3.64,3.43,3.43,0,0,0-3.4,3.6v0a3.49,3.49,0,0,0,3.44,3.62A3.44,3.44,0,0,0,326.19,260.42Zm-4.2-7.09v.27a.85.85,0,0,1-1.69,0v-.27a.85.85,0,0,1,1.69,0Zm3.21,0v.27a.85.85,0,0,1-1.7,0v-.27a.85.85,0,0,1,1.7,0Z" transform="translate(-2.11 -2.85)" fill="#fff"/>
    <path d="M329.84,256.34a.7.7,0,1,1,1.39,0v1a3.52,3.52,0,0,1,3.18-1.81,3.4,3.4,0,0,1,3.57,3.72v5.17a.7.7,0,1,1-1.39,0v-4.83c0-1.72-.93-2.8-2.57-2.8a2.73,2.73,0,0,0-2.79,2.91v4.72a.68.68,0,0,1-.69.7.69.69,0,0,1-.7-.7Z" transform="translate(-2.11 -2.85)" fill="#fff"/>
    <path d="M346,264a.7.7,0,0,1-.32-.58.67.67,0,0,1,.68-.68.82.82,0,0,1,.45.14,4.2,4.2,0,0,0,2.74,1.08c2.26,0,3.8-2.3,3.74-5.53a4,4,0,0,1-3.56,2c-2.6,0-4.4-1.64-4.4-3.91v0a4.3,4.3,0,0,1,4.54-4.29,4.45,4.45,0,0,1,3.31,1.3c1,1,1.57,2.36,1.57,4.88v0c0,4-2.12,6.83-5.24,6.83A5.65,5.65,0,0,1,346,264Zm7-7.62v0a3,3,0,0,0-3.2-2.87,2.9,2.9,0,0,0-3,3v0a2.82,2.82,0,0,0,3.1,2.76A3,3,0,0,0,353.06,256.37Z" transform="translate(-2.11 -2.85)" fill="#fff"/>
    <path d="M357.65,263.05a.83.83,0,0,1,.85.85v.36a.86.86,0,1,1-1.71,0v-.36A.83.83,0,0,1,357.65,263.05Z" transform="translate(-2.11 -2.85)" fill="#fff"/>
    <path d="M360.78,263.34a.78.78,0,0,1-.23-.5.72.72,0,0,1,.7-.71.74.74,0,0,1,.52.22,4.33,4.33,0,0,0,3.42,1.6A2.54,2.54,0,0,0,368,261.5v0c0-1.57-1.46-2.43-3.53-2.43H364a.63.63,0,0,1-.63-.62.77.77,0,0,1,.29-.55l3.67-4.16h-5.58a.65.65,0,0,1-.67-.63.67.67,0,0,1,.67-.65h6.88a.62.62,0,0,1,.68.61,1,1,0,0,1-.34.7l-3.71,4.13c2.2.18,4.16,1.24,4.16,3.54v0a3.92,3.92,0,0,1-4.22,3.8A5.7,5.7,0,0,1,360.78,263.34Z" transform="translate(-2.11 -2.85)" fill="#fff"/>
    <path d="M371.46,258.77v0c0-3.53,2.1-6.52,5.34-6.52s5.3,3,5.3,6.48v0c0,3.53-2.09,6.52-5.33,6.52S371.46,262.3,371.46,258.77Zm9.16,0v0c0-2.75-1.51-5.22-3.85-5.22s-3.84,2.41-3.84,5.18v0c0,2.76,1.51,5.22,3.87,5.22S380.62,261.52,380.62,258.77Z" transform="translate(-2.11 -2.85)" fill="#fff"/>
    <path d="M384,259.61a.73.73,0,0,1,.72-.72h3.74a.73.73,0,0,1,0,1.46h-3.74A.73.73,0,0,1,384,259.61Z" transform="translate(-2.11 -2.85)" fill="#fff"/>
    <path d="M392.7,253.76l-1.77.58a1.25,1.25,0,0,1-.3,0,.62.62,0,0,1-.62-.61.63.63,0,0,1,.51-.61l2.07-.72a2.76,2.76,0,0,1,.77-.17h0a.7.7,0,0,1,.7.71V264.4a.7.7,0,1,1-1.4,0Z" transform="translate(-2.11 -2.85)" fill="#fff"/>
    <path d="M398.58,264l5.22-10.3h-6.35a.65.65,0,0,1-.67-.64.67.67,0,0,1,.67-.65h7.38a.61.61,0,0,1,.68.63,1.52,1.52,0,0,1-.19.63l-5.44,10.93a.78.78,0,0,1-.69.5.69.69,0,0,1-.72-.66A1.57,1.57,0,0,1,398.58,264Z" transform="translate(-2.11 -2.85)" fill="#fff"/>
  </g>
</svg>
