<svg version="1.2" xmlns="http://www.w3.org/2000/svg" viewBox="0 0 404 344" width="176" height="150">
	<title>customer_service-svg</title>
	<style>
		.s0 { fill: #ffffff } 
		.s1 { fill: #ffffff;stroke: #ffffff;stroke-linecap: round;stroke-miterlimit:10;stroke-width: 5 } 
	</style>
	<g id="a2644f73-bacd-4b3e-8876-3c1fb05dc33f">
		<path id="Layer" class="s0" d="m137.2 130.2c0 0.3 0.2 0.7 0.4 0.9 0.3 0.3 0.7 0.4 1 0.4 0.4 0 0.8-0.1 1-0.4 0.3-0.2 0.5-0.6 0.5-0.9v-5.8h8v5.8c0 0.3 0.2 0.7 0.5 1 0.2 0.3 0.6 0.4 1 0.4 0.4 0 0.8-0.1 1.1-0.4 0.2-0.3 0.4-0.7 0.4-1v-14.2c0-0.4-0.2-0.7-0.4-1-0.3-0.3-0.7-0.4-1.1-0.4-0.4 0-0.8 0.1-1 0.4-0.3 0.3-0.5 0.6-0.5 1v5.7h-8v-5.7c0-0.3-0.2-0.7-0.5-0.9-0.2-0.3-0.6-0.4-1-0.4-0.3 0-0.7 0.1-1 0.4-0.2 0.2-0.4 0.6-0.4 0.9z"/>
		<path id="Layer" class="s0" d="m161.4 131.8c3.6 0 6-1.9 6-5 0-2.8-1.8-4.1-5.3-5-3.3-0.7-4-1.3-4-2.6 0-1.1 1-2 2.7-2q0.5 0 1 0.1 0.5 0.1 1 0.2 0.5 0.2 1 0.4 0.4 0.3 0.9 0.6 0.3 0.2 0.7 0.2 0.3 0 0.7-0.2 0.3-0.2 0.5-0.5 0.2-0.3 0.2-0.7 0-0.2 0-0.3-0.1-0.2-0.1-0.4-0.1-0.1-0.2-0.2-0.2-0.2-0.3-0.3-0.6-0.4-1.2-0.7-0.7-0.3-1.4-0.5-0.6-0.2-1.4-0.3-0.7 0-1.4 0c-3.3 0-5.7 2-5.7 4.8 0 3.1 2 4.2 5.6 5 3.1 0.8 3.8 1.4 3.8 2.6 0 1.3-1.2 2.1-3 2.1q-0.7 0.1-1.3-0.1-0.6-0.1-1.2-0.3-0.6-0.2-1.2-0.5-0.5-0.4-1-0.8-0.1-0.1-0.2-0.1-0.1-0.1-0.2-0.1-0.2 0-0.3 0-0.1-0.1-0.2-0.1-0.5 0.1-0.8 0.3-0.4 0.3-0.5 0.7-0.2 0.4 0 0.9 0.1 0.4 0.5 0.6 0.7 0.6 1.4 1 0.8 0.4 1.6 0.6 0.8 0.3 1.6 0.4 0.9 0.2 1.7 0.2z"/>
		<path id="Layer" class="s0" d="m171 130q0 0.3 0.1 0.6 0.2 0.3 0.4 0.5 0.2 0.2 0.4 0.3 0.3 0.1 0.6 0.1h9.1c0.4 0.1 0.8-0.1 1-0.3 0.3-0.3 0.5-0.6 0.5-1 0-0.4-0.2-0.8-0.5-1-0.2-0.3-0.6-0.4-1-0.4h-7.6v-12.8c0-0.4-0.2-0.7-0.5-1-0.3-0.3-0.6-0.4-1-0.4-0.4 0-0.8 0.1-1.1 0.4-0.2 0.3-0.4 0.6-0.4 1z"/>
		<path id="Layer" fill-rule="evenodd" class="s0" d="m192 130.1q0-0.1 0-0.2 0.1-0.1 0.1-0.2 0 0 0.1-0.1l6.2-14q0.1-0.3 0.3-0.5 0.2-0.2 0.4-0.4 0.3-0.2 0.5-0.2 0.3-0.1 0.6-0.1h0.1q0.3 0 0.6 0.1 0.3 0 0.5 0.2 0.2 0.2 0.4 0.4 0.2 0.2 0.3 0.5l6.2 14q0.1 0.1 0.1 0.1 0 0.1 0.1 0.2 0 0.1 0 0.1 0 0.1 0 0.2 0 0.3-0.1 0.5-0.1 0.3-0.3 0.5-0.2 0.2-0.4 0.3-0.3 0.1-0.6 0.1-0.2 0-0.4 0-0.3-0.1-0.5-0.3-0.2-0.1-0.3-0.3-0.1-0.2-0.2-0.4l-1.4-3.1h-8.2l-1.4 3.2q-0.1 0.2-0.2 0.4-0.1 0.2-0.3 0.3-0.2 0.1-0.4 0.2-0.2 0.1-0.5 0.1-0.2 0-0.5-0.1-0.2-0.2-0.4-0.3-0.2-0.2-0.3-0.5-0.1-0.2-0.1-0.5 0-0.1 0-0.2zm11.3-5.2l-3-6.9-3 6.9z"/>
		<path id="Layer" class="s0" d="m216 131.8c2.6 0 4.7-1.3 4.7-4 0-2.3-2.1-3.2-4-3.7-1.5-0.5-2.8-0.9-2.8-1.8 0-0.7 0.6-1.3 1.7-1.3q0.4 0 0.8 0.1 0.4 0.1 0.8 0.2 0.4 0.1 0.7 0.2 0.4 0.2 0.7 0.4 0.1 0 0.2 0 0 0.1 0.1 0.1 0.1 0 0.2 0 0 0 0.1 0 0.3 0 0.5-0.1 0.2 0 0.4-0.2 0.1-0.2 0.2-0.4 0.1-0.2 0.1-0.5 0-0.1 0-0.3-0.1-0.2-0.2-0.3-0.1-0.1-0.2-0.3-0.1-0.1-0.3-0.2-0.4-0.2-0.9-0.4-0.5-0.2-1-0.3-0.5-0.1-1-0.2-0.5-0.1-1.1-0.1c-2.5 0-4.5 1.5-4.5 3.9 0 2.4 2.1 3.2 4 3.7 1.5 0.5 2.8 0.8 2.8 1.8v0.1c0 0.8-0.7 1.3-2 1.3q-0.4 0-0.9-0.1-0.5-0.1-1-0.2-0.4-0.2-0.9-0.4-0.4-0.2-0.8-0.5-0.1 0-0.2-0.1 0 0-0.1 0-0.1 0-0.2 0 0-0.1-0.1-0.1-0.3 0-0.5 0.1-0.2 0.1-0.4 0.3-0.1 0.1-0.2 0.4-0.1 0.2-0.1 0.4 0 0.2 0 0.3 0.1 0.2 0.1 0.3 0.1 0.1 0.2 0.2 0.1 0.1 0.2 0.2 0.6 0.4 1.2 0.6 0.5 0.3 1.1 0.5 0.7 0.2 1.3 0.3 0.6 0.1 1.3 0.1z"/>
		<path id="Layer" class="s0" d="m223.7 130.2c0 0.4 0.2 0.7 0.5 1 0.2 0.2 0.6 0.3 1 0.3 0.3 0 0.7-0.1 0.9-0.3 0.3-0.3 0.5-0.6 0.5-1v-10q0-0.3-0.1-0.6-0.1-0.3-0.3-0.5-0.2-0.2-0.5-0.3-0.3-0.1-0.6-0.1-0.2 0-0.5 0.1-0.3 0.1-0.5 0.3-0.2 0.2-0.3 0.5-0.1 0.3-0.1 0.6zm-0.2-14.7c0.1 0.4 0.3 0.8 0.6 1 0.3 0.3 0.6 0.4 1 0.4 0.5 0 0.8-0.1 1.1-0.4 0.3-0.2 0.5-0.6 0.6-1v-0.1c-0.1-0.4-0.3-0.8-0.6-1.1-0.3-0.2-0.6-0.4-1.1-0.4-0.4 0-0.7 0.2-1 0.4-0.3 0.3-0.5 0.7-0.6 1.1z"/>
		<path id="Layer" fill-rule="evenodd" class="s0" d="m229.5 127.8c0-2.7 2.1-4.1 5.2-4.1q0.5 0 0.9 0.1 0.4 0 0.8 0.1 0.5 0 0.9 0.1 0.4 0.1 0.8 0.3v-0.3c0-1.8-1.1-2.8-3.1-2.8q-0.4 0-0.7 0-0.4 0-0.7 0.1-0.4 0.1-0.7 0.2-0.4 0.1-0.7 0.2-0.1 0-0.1 0-0.1 0-0.2 0 0 0.1-0.1 0.1 0 0-0.1 0-0.2 0-0.5-0.1-0.2-0.1-0.3-0.3-0.2-0.1-0.3-0.4-0.1-0.2-0.1-0.4 0-0.2 0-0.4 0.1-0.2 0.2-0.3 0.1-0.2 0.3-0.3 0.1-0.1 0.3-0.2 0.5-0.2 1-0.3 0.5-0.2 1-0.3 0.5-0.1 1-0.1 0.5 0 1.1 0 0.5-0.1 1.1 0 0.6 0.1 1.1 0.2 0.6 0.2 1 0.5 0.5 0.3 1 0.7 0.3 0.4 0.6 0.8 0.3 0.5 0.5 1 0.1 0.5 0.2 1 0.1 0.6 0 1.1v6.3q0 0.2-0.1 0.5-0.1 0.3-0.3 0.5-0.2 0.1-0.4 0.3-0.3 0.1-0.6 0-0.2 0.1-0.5 0-0.2-0.1-0.4-0.3-0.2-0.1-0.4-0.4-0.1-0.2-0.1-0.5v-0.5q-0.4 0.5-0.8 0.9-0.5 0.3-1 0.5-0.6 0.3-1.2 0.4-0.5 0.1-1.1 0.1c-2.4 0-4.5-1.4-4.5-4zm8.7-0.8v-0.9q-0.3-0.1-0.7-0.2-0.4-0.1-0.7-0.2-0.4-0.1-0.8-0.1-0.3 0-0.7 0c-1.9 0-3 0.8-3 2.1v0.1c0 1.2 1.1 1.9 2.5 1.9 1.9 0 3.4-1.1 3.4-2.7z"/>
		<path id="Layer" class="s0" d="m244.5 130.2c0 0.4 0.2 0.7 0.4 1 0.3 0.2 0.6 0.3 1 0.3 0.4 0 0.7-0.1 1-0.3 0.3-0.3 0.4-0.6 0.5-1v-2.2l1.9-1.8 3.6 4.8q0.1 0.2 0.3 0.3 0.1 0.1 0.3 0.2 0.1 0.1 0.3 0.1 0.2 0.1 0.4 0.1 0.3 0 0.5-0.1 0.3-0.1 0.5-0.3 0.2-0.2 0.3-0.5 0.1-0.2 0.1-0.5 0-0.1-0.1-0.2 0-0.2 0-0.3-0.1-0.1-0.1-0.2-0.1-0.2-0.2-0.3l-3.9-5 3.4-3.1q0.1-0.1 0.3-0.2 0.1-0.2 0.2-0.3 0-0.2 0.1-0.3 0-0.2 0-0.4 0.1-0.3 0-0.5-0.1-0.2-0.3-0.4-0.2-0.2-0.4-0.3-0.3-0.1-0.5-0.1-0.2 0-0.4 0-0.2 0.1-0.3 0.2-0.2 0-0.3 0.2-0.2 0.1-0.3 0.2l-5.4 5.4v-9.4q0-0.3-0.1-0.6-0.2-0.2-0.4-0.4-0.2-0.2-0.4-0.3-0.3-0.2-0.6-0.1-0.3-0.1-0.5 0.1-0.3 0.1-0.5 0.3-0.2 0.2-0.3 0.4-0.1 0.3-0.1 0.6z"/>
		<path id="Layer" fill-rule="evenodd" class="s0" d="m257.4 127.8c0-2.8 2.1-4.1 5.2-4.1q0.5 0 0.9 0 0.4 0.1 0.9 0.1 0.4 0.1 0.8 0.2 0.4 0.1 0.8 0.2v-0.3c0-1.7-1.1-2.7-3.1-2.8q-0.4 0-0.7 0.1-0.4 0-0.7 0.1-0.4 0.1-0.7 0.2-0.4 0.1-0.7 0.2-0.1 0-0.1 0-0.1 0-0.1 0-0.1 0.1-0.2 0.1 0 0-0.1 0-0.2 0-0.4-0.1-0.3-0.1-0.4-0.3-0.2-0.1-0.3-0.4-0.1-0.2-0.1-0.4 0-0.2 0.1-0.4 0-0.2 0.1-0.3 0.1-0.2 0.3-0.3 0.1-0.1 0.3-0.2 0.5-0.2 1-0.3 0.5-0.2 1-0.3 0.5-0.1 1-0.1 0.6 0 1.1 0 0.6-0.1 1.1 0 0.6 0.1 1.1 0.2 0.6 0.2 1.1 0.5 0.5 0.3 0.9 0.7 0.4 0.4 0.6 0.8 0.3 0.5 0.5 1 0.2 0.5 0.2 1 0.1 0.6 0.1 1.1v6.3q0 0.2-0.1 0.5-0.2 0.3-0.4 0.5-0.2 0.1-0.4 0.3-0.3 0.1-0.5 0-0.3 0.1-0.6 0-0.2-0.1-0.4-0.3-0.2-0.1-0.3-0.4-0.2-0.2-0.2-0.5v-0.5q-0.3 0.5-0.8 0.9-0.5 0.3-1 0.5-0.6 0.3-1.1 0.4-0.6 0.1-1.2 0.1c-2.4 0-4.5-1.4-4.5-4zm8.7-0.8v-0.9q-0.3-0.1-0.7-0.2-0.3-0.1-0.7-0.2-0.4-0.1-0.7-0.1-0.4 0-0.8 0c-1.9 0-3 0.8-3 2.1v0.1c0 1.2 1.1 1.9 2.5 1.9 1.9 0 3.4-1.1 3.4-2.7z"/>
		<path id="Layer" class="s0" d="m276.7 131.8c2.7 0 4.7-1.3 4.7-4 0-2.3-2-3.2-3.9-3.7-1.5-0.5-2.9-0.9-2.9-1.8 0-0.7 0.7-1.3 1.8-1.3q0.4 0 0.8 0.1 0.4 0.1 0.8 0.2 0.3 0.1 0.7 0.2 0.4 0.2 0.7 0.4 0.1 0 0.1 0 0.1 0.1 0.2 0.1 0.1 0 0.1 0 0.1 0 0.2 0 0.2 0 0.4-0.1 0.3 0 0.4-0.2 0.2-0.2 0.3-0.4 0.1-0.2 0.1-0.5 0-0.1-0.1-0.3 0-0.2-0.1-0.3-0.1-0.1-0.2-0.3-0.1-0.1-0.3-0.2-0.5-0.2-0.9-0.4-0.5-0.2-1-0.3-0.5-0.1-1.1-0.2-0.5-0.1-1-0.1c-2.5 0-4.5 1.5-4.5 3.9 0 2.4 2.1 3.2 4 3.7 1.5 0.5 2.8 0.8 2.8 1.8v0.1c0 0.8-0.7 1.3-2 1.3q-0.5 0-0.9-0.1-0.5-0.1-1-0.2-0.5-0.2-0.9-0.4-0.4-0.2-0.8-0.5-0.1 0-0.2-0.1-0.1 0-0.1 0-0.1 0-0.2 0-0.1-0.1-0.2-0.1-0.2 0-0.4 0.1-0.2 0.1-0.4 0.3-0.2 0.1-0.2 0.4-0.1 0.2-0.1 0.4 0 0.2 0 0.3 0 0.2 0.1 0.3 0.1 0.1 0.2 0.2 0.1 0.1 0.2 0.2 0.6 0.4 1.1 0.6 0.6 0.3 1.2 0.5 0.6 0.2 1.3 0.3 0.6 0.1 1.2 0.1z"/>
		<path id="Layer" fill-rule="evenodd" class="s0" d="m284.5 120.2q0-0.3 0.1-0.6 0.1-0.3 0.3-0.5 0.2-0.2 0.5-0.3 0.2-0.1 0.5-0.1 0.3 0 0.6 0.1 0.2 0.1 0.4 0.3 0.3 0.2 0.4 0.5 0.1 0.3 0.1 0.6v0.7q0.3-0.5 0.8-1 0.5-0.4 1-0.7 0.6-0.3 1.2-0.5 0.7-0.1 1.3-0.1c3 0 5.9 2.3 5.9 6.6 0 4.2-2.9 6.6-5.9 6.6q-0.6 0-1.3-0.1-0.6-0.2-1.1-0.5-0.6-0.3-1.1-0.7-0.5-0.4-0.8-0.9v4.5c0 0.3-0.2 0.7-0.5 1-0.2 0.3-0.6 0.4-1 0.4-0.4 0-0.7-0.1-1-0.4-0.3-0.3-0.4-0.7-0.4-1zm10.1 5q0.1-0.8-0.2-1.5-0.2-0.8-0.7-1.4-0.5-0.5-1.2-0.9-0.7-0.3-1.5-0.3-0.8 0-1.5 0.3-0.7 0.4-1.2 0.9-0.5 0.6-0.8 1.4-0.2 0.7-0.2 1.5 0 0.8 0.2 1.5 0.3 0.8 0.8 1.3 0.5 0.6 1.2 0.9 0.7 0.4 1.5 0.4c2 0 3.6-1.6 3.6-4.1z"/>
		<path id="Layer" fill-rule="evenodd" class="s0" d="m299.6 127.8c0-2.7 2.2-4.1 5.3-4.1q0.4 0 0.8 0.1 0.5 0 0.9 0.1 0.4 0 0.9 0.1 0.4 0.1 0.8 0.3v-0.3c0-1.8-1.1-2.8-3.1-2.8q-0.4 0-0.8 0-0.3 0-0.7 0.1-0.3 0.1-0.7 0.2-0.3 0.1-0.7 0.2 0 0-0.1 0 0 0-0.1 0 0 0.1-0.1 0.1-0.1 0-0.1 0-0.3 0-0.5-0.1-0.2-0.1-0.4-0.3-0.2-0.1-0.3-0.4 0-0.2 0-0.4 0-0.2 0-0.4 0.1-0.2 0.2-0.3 0.1-0.2 0.2-0.3 0.2-0.1 0.4-0.2 0.4-0.2 0.9-0.3 0.5-0.2 1.1-0.3 0.5-0.1 1-0.1 0.5 0 1 0 0.6-0.1 1.2 0 0.5 0.1 1.1 0.2 0.5 0.2 1 0.5 0.5 0.3 0.9 0.7 0.4 0.4 0.7 0.8 0.2 0.5 0.4 1 0.2 0.5 0.3 1 0 0.6 0 1.1v6.3q0 0.2-0.1 0.5-0.1 0.3-0.3 0.5-0.2 0.1-0.5 0.3-0.2 0.1-0.5 0-0.3 0.1-0.5 0-0.3-0.1-0.5-0.3-0.2-0.1-0.3-0.4-0.1-0.2-0.1-0.5v-0.5q-0.4 0.5-0.9 0.9-0.4 0.3-1 0.6-0.5 0.2-1.1 0.3-0.6 0.1-1.2 0.1c-2.3 0-4.5-1.4-4.5-4zm8.8-0.8v-0.9q-0.4-0.1-0.7-0.2-0.4-0.1-0.8-0.2-0.3-0.1-0.7-0.1-0.4 0-0.7 0c-1.9 0-3 0.8-3 2.1v0.1c0 1.2 1.1 1.9 2.5 1.9 1.9 0 3.3-1.1 3.4-2.7z"/>
		<path id="Layer" class="s0" d="m314.7 130.2c0 0.4 0.2 0.7 0.5 1 0.2 0.2 0.6 0.3 1 0.3 0.3 0 0.7-0.1 1-0.3 0.2-0.3 0.4-0.6 0.4-1v-14.9q0-0.3-0.1-0.6-0.1-0.2-0.3-0.4-0.2-0.2-0.5-0.3-0.3-0.1-0.5-0.1-0.3 0-0.6 0.1-0.3 0.1-0.5 0.3-0.2 0.2-0.3 0.4-0.1 0.3-0.1 0.6z"/>
		<path id="Layer" class="s0" d="m327.9 130.5l4.2-9.7q0.1-0.1 0.1-0.2 0-0.1 0-0.2 0.1 0 0.1-0.1 0-0.1 0-0.2 0-0.3-0.1-0.6-0.1-0.2-0.3-0.4-0.2-0.2-0.5-0.3-0.2-0.1-0.5-0.1-0.3 0-0.5 0.1-0.2 0-0.4 0.2-0.2 0.1-0.3 0.3-0.1 0.2-0.2 0.4l-3.3 8.5-3.3-8.5q0-0.2-0.2-0.4-0.1-0.2-0.3-0.3-0.2-0.2-0.4-0.3-0.3 0-0.5 0-0.3 0-0.5 0.1-0.3 0.1-0.5 0.3-0.2 0.2-0.3 0.4-0.1 0.3-0.1 0.6 0 0.1 0 0.1 0 0.1 0 0.2 0 0.1 0.1 0.2 0 0.1 0 0.2l4.3 9.7q0 0.2 0.2 0.5 0.2 0.2 0.4 0.4 0.2 0.2 0.5 0.2 0.2 0.1 0.5 0.2h0.2q0.2-0.1 0.5-0.2 0.2-0.1 0.5-0.2 0.2-0.2 0.3-0.4 0.2-0.2 0.3-0.5z"/>
		<path id="Layer" fill-rule="evenodd" class="s0" d="m343.8 130.9q-0.5 0.3-1.1 0.5-0.5 0.2-1.1 0.3-0.6 0.1-1.3 0.1-1.3 0.1-2.5-0.4-1.2-0.5-2.1-1.5-1-0.9-1.4-2.1-0.5-1.2-0.5-2.6 0-1.3 0.4-2.5 0.5-1.2 1.3-2.1 0.9-1 2.1-1.5 1.2-0.5 2.4-0.5 1.3 0 2.4 0.5 1.1 0.4 2 1.3 0.8 0.9 1.3 2.1 0.4 1.1 0.3 2.3 0 0.3-0.1 0.6-0.1 0.2-0.2 0.4-0.2 0.2-0.5 0.3-0.3 0.1-0.5 0.1h-8q0 0.7 0.3 1.3 0.3 0.6 0.9 1.1 0.5 0.4 1.1 0.6 0.6 0.3 1.3 0.3 0.4 0 0.8-0.1 0.4-0.1 0.8-0.2 0.4-0.2 0.8-0.4 0.3-0.2 0.6-0.5 0.1 0 0.2-0.1 0.1 0 0.2-0.1 0.1 0 0.2 0 0.1 0 0.2 0 0.2 0 0.4 0.1 0.2 0.1 0.4 0.2 0.2 0.2 0.2 0.4 0.1 0.2 0.1 0.5 0 0.1 0 0.2 0 0.1-0.1 0.2 0 0.2-0.1 0.3-0.1 0.1-0.2 0.2-0.4 0.4-1 0.7zm-0.6-6.6c-0.3-1.9-1.5-3.3-3.3-3.3-1.8 0-3 1.3-3.3 3.3z"/>
		<path id="Layer" class="s0" d="m349 130.2c0 0.4 0.2 0.7 0.5 1 0.2 0.2 0.6 0.3 1 0.3 0.3 0 0.7-0.1 1-0.3 0.2-0.3 0.4-0.6 0.4-1v-14.9q0-0.3-0.1-0.6-0.1-0.2-0.3-0.4-0.2-0.2-0.5-0.3-0.3-0.1-0.5-0.1-0.3 0-0.6 0.1-0.3 0.1-0.5 0.3-0.2 0.2-0.3 0.4-0.1 0.3-0.1 0.6z"/>
		<path id="Layer" class="s0" d="m366.9 120.2q0-0.3-0.1-0.6-0.1-0.3-0.3-0.5-0.2-0.2-0.5-0.3-0.3-0.1-0.6-0.1-0.3 0-0.5 0.1-0.3 0.1-0.5 0.3-0.2 0.2-0.3 0.5-0.1 0.3-0.1 0.6v5.8q0 0.6-0.2 1.2-0.1 0.6-0.6 1-0.4 0.5-0.9 0.7-0.6 0.2-1.2 0.2c-1.7 0-2.7-1.1-2.7-3.1v-5.8c0-0.5-0.1-0.9-0.4-1.2-0.3-0.3-0.7-0.4-1.1-0.4-0.4 0-0.8 0.1-1 0.4-0.3 0.3-0.5 0.7-0.4 1.2v6.7c0 3 1.6 4.9 4.5 4.9q0.6 0 1.2-0.2 0.6-0.1 1.1-0.4 0.5-0.3 0.9-0.7 0.5-0.4 0.8-1v0.7c0 0.4 0.2 0.7 0.5 1 0.2 0.2 0.6 0.3 1 0.3 0.3 0 0.7-0.1 1-0.3 0.2-0.3 0.4-0.6 0.4-1z"/>
		<path id="Layer" class="s0" d="m136.8 152.6q0 0.2 0.2 0.5 0.2 0.2 0.5 0.2 0.3 0 0.5-0.2 0.2-0.3 0.2-0.5v-5.1h7.3v5.1q0 0.2 0.2 0.5 0.2 0.2 0.5 0.2 0.3 0 0.5-0.2 0.2-0.3 0.2-0.5v-11.4q0-0.3-0.2-0.6-0.2-0.2-0.5-0.2-0.3 0-0.5 0.2-0.2 0.3-0.2 0.5v5.1h-7.3v-5q0-0.3-0.2-0.6-0.2-0.2-0.5-0.2-0.3 0-0.5 0.2-0.2 0.3-0.2 0.5z"/>
		<path id="Layer" fill-rule="evenodd" class="s0" d="m150.6 141.4q0-0.2 0.1-0.3 0-0.2 0.1-0.3 0.1-0.1 0.2-0.1 0.2-0.1 0.3-0.1h4.7q0.5 0 1 0.1 0.5 0 1 0.2 0.4 0.2 0.8 0.4 0.5 0.3 0.8 0.6 0.3 0.2 0.5 0.5 0.1 0.3 0.3 0.6 0.1 0.4 0.2 0.7 0 0.3 0 0.7c0 2.1-1.3 3.3-3.3 3.6l3.1 4q0 0.1 0.1 0.2 0 0 0.1 0.1 0 0.1 0 0.1 0 0.1 0 0.2 0 0.1 0 0.2-0.1 0.2-0.2 0.3-0.1 0.1-0.2 0.1-0.2 0.1-0.3 0.1-0.1 0-0.2-0.1-0.1 0-0.2 0-0.1-0.1-0.1-0.2-0.1 0-0.2-0.1l-3.5-4.6h-3.6v4.3q0 0.3-0.2 0.5-0.2 0.2-0.6 0.3-0.3-0.1-0.5-0.3-0.2-0.2-0.2-0.5zm5.4 5.5c1.9 0 3.2-0.9 3.2-2.5 0-1.6-1.2-2.5-3.2-2.5h-3.9v5.1z"/>
		<path id="Layer" class="s0" d="m166.6 152.6q0.1 0.2 0.3 0.5 0.2 0.2 0.5 0.2 0.3 0 0.5-0.2 0.2-0.3 0.2-0.6v-10.6h3.6q0.2 0 0.3-0.1 0.1 0 0.2-0.1 0.1-0.1 0.2-0.2 0-0.1 0-0.3 0-0.1 0-0.2-0.1-0.2-0.2-0.3-0.1 0-0.2-0.1-0.1 0-0.3 0h-8.7q-0.1 0-0.3 0-0.1 0.1-0.2 0.1-0.1 0.1-0.1 0.3-0.1 0.1-0.1 0.2 0 0.2 0.1 0.3 0 0.1 0.1 0.2 0.1 0.1 0.2 0.1 0.2 0.1 0.3 0.1h3.6z"/>
		<path id="Layer" class="s0" d="m180.4 152.6q0 0.2 0.2 0.5 0.2 0.2 0.5 0.2 0.3 0 0.5-0.2 0.2-0.3 0.2-0.5v-2.8l2.8-2.7 4.7 5.8q0 0.1 0.1 0.2 0 0 0.1 0.1 0.1 0 0.2 0 0.1 0.1 0.2 0.1 0.1 0 0.2-0.1 0.2 0 0.3-0.1 0.1-0.1 0.1-0.3 0.1-0.1 0.1-0.2 0-0.1 0-0.2-0.1-0.1-0.1-0.1 0-0.1 0-0.2-0.1 0-0.1-0.1l-4.8-5.9 4.4-4.4q0.1-0.1 0.1-0.1 0.1-0.1 0.1-0.2 0 0 0.1-0.1 0-0.1 0-0.1 0-0.2-0.1-0.3 0-0.1-0.1-0.2-0.1-0.1-0.2-0.2-0.2 0-0.3 0-0.1 0-0.2 0 0 0-0.1 0-0.1 0.1-0.2 0.1 0 0.1-0.1 0.1l-7.1 7.4v-6.9q0-0.3-0.2-0.6-0.2-0.2-0.5-0.2-0.3 0-0.5 0.2-0.2 0.3-0.2 0.5z"/>
		<path id="Layer" class="s0" d="m200.6 144.5q0-0.3-0.2-0.6-0.2-0.2-0.5-0.2-0.3 0-0.5 0.2-0.2 0.3-0.2 0.6v4.7q0.1 0.5-0.1 1.1-0.2 0.5-0.6 0.9-0.4 0.4-1 0.7-0.5 0.2-1.1 0.2c-1.6 0-2.6-1.1-2.6-2.8v-4.9q0-0.1 0-0.2-0.1-0.2-0.2-0.3-0.1-0.1-0.2-0.1-0.1-0.1-0.3-0.1-0.1 0-0.2 0.1-0.2 0-0.2 0.1-0.1 0.1-0.2 0.3 0 0.1 0 0.2v5.2q-0.1 0.7 0.1 1.4 0.3 0.7 0.8 1.3 0.5 0.5 1.2 0.8 0.7 0.3 1.4 0.2 0.5 0.1 1-0.1 0.5-0.1 0.9-0.3 0.4-0.3 0.7-0.6 0.4-0.4 0.6-0.8v1q0 0.3 0.2 0.6 0.2 0.2 0.5 0.2 0.3 0 0.5-0.2 0.2-0.3 0.2-0.6z"/>
		<path id="Layer" class="s0" d="m203.6 152.6q0 0.1 0.1 0.2 0 0.2 0.1 0.3 0.1 0.1 0.3 0.1 0.1 0.1 0.2 0.1 0.2 0 0.3-0.1 0.1 0 0.2-0.1 0.1-0.1 0.2-0.3 0-0.1 0-0.2v-4.8q0-0.5 0.2-1.1 0.2-0.5 0.6-0.9 0.4-0.5 0.9-0.7 0.5-0.2 1.1-0.2c1.6 0 2.6 1.1 2.6 2.8v4.9q0 0.3 0.2 0.5 0.2 0.2 0.5 0.2 0.3 0 0.5-0.2 0.2-0.2 0.2-0.5v-5.2q0-0.8-0.2-1.5-0.2-0.7-0.8-1.2-0.5-0.5-1.2-0.8-0.7-0.3-1.4-0.2-0.5-0.1-1 0.1-0.4 0.1-0.8 0.3-0.5 0.3-0.8 0.6-0.4 0.4-0.6 0.8v-1q0-0.2 0-0.3-0.1-0.1-0.2-0.2-0.1-0.1-0.2-0.2-0.1 0-0.3 0-0.1 0-0.3 0-0.1 0.1-0.2 0.2-0.1 0.1-0.1 0.2-0.1 0.1-0.1 0.3z"/>
		<path id="Layer" fill-rule="evenodd" class="s0" d="m223.6 152.5q0 0.3-0.2 0.5-0.2 0.2-0.5 0.2-0.3 0-0.5-0.2-0.2-0.2-0.2-0.5v-1.3q-0.3 0.5-0.6 0.9-0.4 0.4-0.9 0.6-0.5 0.3-1 0.5-0.5 0.1-1.1 0.1-0.9 0-1.7-0.4-0.9-0.4-1.5-1-0.7-0.7-1-1.6-0.3-0.9-0.2-1.8-0.1-1 0.2-1.8 0.3-0.9 1-1.6 0.6-0.7 1.5-1.1 0.8-0.3 1.7-0.4 0.6 0 1.1 0.2 0.5 0.1 1 0.4 0.5 0.2 0.8 0.6 0.4 0.4 0.7 0.8v-5q0-0.1 0.1-0.2 0-0.2 0.1-0.3 0.1-0.1 0.2-0.1 0.2-0.1 0.3-0.1 0.1 0 0.3 0.1 0.1 0 0.2 0.1 0.1 0.1 0.1 0.3 0.1 0.1 0.1 0.2zm-6.1-7.3q-0.6 0.3-1.1 0.8-0.4 0.5-0.7 1.2-0.2 0.7-0.1 1.4 0 0.7 0.2 1.3 0.2 0.7 0.7 1.2 0.4 0.5 1.1 0.8 0.6 0.3 1.3 0.3 0.7-0.1 1.3-0.3 0.7-0.3 1.1-0.9 0.5-0.5 0.8-1.1 0.2-0.7 0.2-1.4 0-0.7-0.3-1.3-0.2-0.7-0.7-1.2-0.5-0.5-1.1-0.8-0.6-0.3-1.3-0.3-0.7 0-1.4 0.3z"/>
		<path id="Layer" class="s0" d="m229.7 153.4c1.9 0 3.3-1 3.3-2.8 0-1.7-1.5-2.3-3-2.7-1.2-0.4-2.4-0.7-2.4-1.6 0-0.8 0.7-1.4 1.8-1.4q0.4 0 0.7 0.1 0.3 0 0.6 0.1 0.3 0.1 0.6 0.3 0.3 0.1 0.6 0.3 0.1 0 0.1 0 0.1 0 0.1 0 0 0 0.1 0 0.1 0 0.2 0 0.1-0.1 0.2-0.2 0.1 0 0.1-0.1 0.1-0.2 0.1-0.3 0-0.1 0-0.2-0.1 0-0.1-0.1-0.1-0.1-0.1-0.1-0.1-0.1-0.2-0.2-0.3-0.1-0.7-0.3-0.3-0.1-0.7-0.2-0.4-0.1-0.8-0.2-0.4 0-0.8-0.1c-1.8 0-3.1 1.1-3.1 2.7 0 1.7 1.6 2.2 3.1 2.6 1.2 0.4 2.3 0.7 2.3 1.7 0 0.9-0.8 1.5-1.9 1.5q-0.5 0-0.8-0.1-0.4-0.1-0.8-0.2-0.4-0.1-0.8-0.3-0.3-0.2-0.6-0.4-0.1-0.1-0.1-0.1-0.1 0-0.1 0-0.1 0-0.1 0 0 0-0.1 0-0.1 0-0.2 0-0.1 0.1-0.2 0.1-0.1 0.1-0.2 0.2 0 0.1 0 0.3 0 0 0 0.1 0 0.1 0.1 0.1 0 0.1 0 0.2 0.1 0 0.2 0.1 0.3 0.3 0.8 0.5 0.4 0.2 0.9 0.3 0.4 0.2 0.9 0.3 0.5 0.1 1 0.1z"/>
		<path id="Layer" fill-rule="evenodd" class="s0" d="m242.3 152.6q-0.4 0.3-0.9 0.4-0.4 0.2-0.9 0.3-0.5 0.1-1 0.1-0.9 0-1.8-0.4-0.9-0.4-1.6-1.1-0.6-0.7-0.9-1.5-0.4-0.9-0.3-1.9-0.1-0.9 0.2-1.8 0.3-0.9 1-1.6 0.6-0.6 1.5-1 0.8-0.4 1.7-0.4c2.8 0 4.4 2.2 4.4 4.7q0 0.1-0.1 0.2 0 0.2-0.1 0.2-0.1 0.1-0.2 0.2-0.2 0-0.3 0h-6.7q0 0.7 0.2 1.3 0.3 0.5 0.8 1 0.4 0.4 1 0.7 0.6 0.2 1.2 0.2 0.4 0 0.8-0.1 0.4 0 0.7-0.2 0.3-0.1 0.7-0.3 0.3-0.2 0.5-0.5 0.2-0.1 0.3-0.1 0.2-0.1 0.4 0 0.1 0.1 0.2 0.2 0.1 0.2 0.1 0.3 0 0.1 0 0.2 0 0 0 0.1 0 0-0.1 0.1 0 0-0.1 0.1-0.3 0.3-0.7 0.6zm0-4.6c-0.2-1.7-1.2-3.2-3-3.2q-0.6 0.1-1.2 0.3-0.5 0.3-1 0.7-0.4 0.5-0.6 1-0.2 0.6-0.2 1.2z"/>
		<path id="Layer" class="s0" d="m246.1 152.6q-0.1 0.3 0.1 0.5 0.2 0.2 0.6 0.3 0.3-0.1 0.5-0.3 0.2-0.2 0.1-0.5v-3.2c0-2.7 1.5-4 3.3-4.3q0.2 0 0.3 0 0.1-0.1 0.2-0.2 0.1-0.1 0.1-0.2 0-0.1 0-0.3 0-0.1 0-0.2 0-0.2-0.1-0.3-0.1-0.1-0.3-0.1-0.1-0.1-0.2-0.1-0.6 0.1-1.1 0.3-0.5 0.2-0.9 0.5-0.4 0.3-0.7 0.8-0.4 0.4-0.6 0.9v-1.7q0.1-0.2 0-0.3-0.1-0.1-0.2-0.2-0.1-0.1-0.2-0.2-0.1 0-0.3 0-0.1 0-0.2 0-0.1 0.1-0.2 0.2-0.1 0.1-0.2 0.2 0 0.1 0 0.3z"/>
		<path id="Layer" class="s0" d="m258.1 152.7l3.6-7.9q0-0.1 0-0.1 0 0 0-0.1 0 0 0-0.1 0-0.2 0-0.3-0.1-0.1-0.2-0.2-0.1-0.1-0.2-0.2-0.1 0-0.3 0-0.1 0-0.2 0-0.1 0-0.2 0.1-0.1 0.1-0.1 0.2-0.1 0.1-0.1 0.2l-3.1 7.3-3-7.3q0-0.1-0.1-0.2 0-0.1-0.1-0.2-0.1-0.1-0.2-0.1-0.1 0-0.3 0-0.1 0-0.2 0-0.2 0.1-0.3 0.2-0.1 0.1-0.1 0.2-0.1 0.1-0.1 0.3 0.1 0.1 0.1 0.1 0 0.1 0 0.1 0 0.1 0 0.1l3.5 7.9q0.1 0.2 0.1 0.3 0.1 0.1 0.2 0.2 0.1 0 0.3 0.1 0.1 0 0.2 0h0.1q0.1 0 0.2 0 0.2-0.1 0.3-0.2 0.1 0 0.1-0.1 0.1-0.1 0.1-0.3z"/>
		<path id="Layer" class="s0" d="m263.9 152.6q0 0.1 0 0.2 0.1 0.2 0.2 0.3 0.1 0.1 0.2 0.1 0.2 0.1 0.3 0.1 0.1 0 0.3-0.1 0.1 0 0.2-0.1 0.1-0.1 0.1-0.3 0.1-0.1 0.1-0.2v-8.1q0-0.3-0.2-0.6-0.2-0.2-0.5-0.2-0.3 0-0.5 0.2-0.2 0.3-0.2 0.6zm-0.1-11.4q0 0.3 0.2 0.5 0.3 0.3 0.6 0.3 0.3 0 0.6-0.3 0.2-0.2 0.2-0.6v-0.2q0-0.3-0.2-0.6-0.3-0.2-0.6-0.2-0.3 0-0.6 0.2-0.2 0.3-0.2 0.6z"/>
		<path id="Layer" class="s0" d="m272.5 153.4q0.5 0 1-0.1 0.5-0.1 1-0.3 0.4-0.2 0.8-0.5 0.4-0.2 0.8-0.6 0 0 0-0.1 0.1 0 0.1-0.1 0-0.1 0-0.1 0-0.1 0-0.1 0-0.2 0-0.3-0.1-0.1-0.1-0.2-0.1-0.1-0.3-0.1-0.1-0.1-0.2-0.1 0 0-0.1 0-0.1 0.1-0.1 0.1-0.1 0-0.1 0-0.1 0.1-0.1 0.1-0.2 0.3-0.5 0.5-0.3 0.2-0.7 0.3-0.3 0.2-0.7 0.3-0.3 0-0.7 0.1-0.7-0.1-1.3-0.3-0.7-0.3-1.2-0.8-0.4-0.6-0.7-1.2-0.2-0.7-0.2-1.4 0-0.7 0.2-1.3 0.2-0.7 0.7-1.2 0.5-0.5 1.1-0.8 0.6-0.3 1.3-0.3 0.4 0 0.7 0.1 0.4 0.1 0.7 0.2 0.3 0.2 0.6 0.4 0.3 0.2 0.6 0.4 0 0.1 0.1 0.1 0 0 0.1 0.1 0 0 0.1 0 0.1 0 0.1 0 0.2 0 0.3-0.1 0.1 0 0.2-0.1 0.1-0.1 0.1-0.2 0.1-0.1 0.1-0.3 0 0 0-0.1 0-0.1-0.1-0.1 0-0.1 0-0.1-0.1-0.1-0.1-0.2c-0.7-0.6-1.6-1.1-2.5-1.2-1-0.2-1.9-0.1-2.8 0.3q-1.3 0.6-2.1 1.8c-0.6 0.8-0.8 1.7-0.8 2.7q0 0.9 0.3 1.8 0.4 0.9 1 1.6 0.7 0.7 1.6 1 0.9 0.4 1.8 0.4z"/>
		<path id="Layer" fill-rule="evenodd" class="s0" d="m285.3 152.6q-0.4 0.3-0.9 0.4-0.4 0.2-0.9 0.3-0.5 0.1-1 0.1-0.9 0-1.8-0.4-0.9-0.4-1.6-1.1-0.6-0.7-1-1.5-0.3-0.9-0.2-1.9-0.1-0.9 0.2-1.8 0.3-0.9 1-1.6 0.6-0.6 1.4-1 0.9-0.4 1.8-0.4c2.8 0 4.4 2.2 4.4 4.7q0 0.1-0.1 0.2 0 0.1-0.1 0.2-0.1 0.1-0.2 0.2-0.2 0-0.3 0h-6.7q0 0.7 0.2 1.3 0.3 0.5 0.8 1 0.4 0.4 1 0.7 0.6 0.2 1.2 0.2 0.4 0 0.8-0.1 0.4 0 0.7-0.2 0.3-0.1 0.7-0.3 0.3-0.2 0.5-0.5 0.1 0 0.1-0.1 0.1 0 0.1 0 0.1 0 0.1 0 0.1-0.1 0.1-0.1 0.2 0 0.3 0.1 0.1 0 0.2 0.1 0.1 0.1 0.1 0.2 0 0.1 0 0.2 0 0.1 0 0.2 0 0 0 0.1 0 0-0.1 0.1 0 0-0.1 0.1-0.3 0.3-0.7 0.6zm0-4.6c-0.2-1.7-1.2-3.2-3-3.2q-0.6 0.1-1.2 0.3-0.5 0.3-1 0.7-0.4 0.5-0.6 1-0.2 0.6-0.2 1.2z"/>
		<path id="Layer" class="s0" d="m136.8 174.2q0 0.2 0.2 0.5 0.2 0.2 0.5 0.2 0.3 0 0.5-0.2 0.2-0.3 0.2-0.5v-5h7.3v5q0 0.2 0.2 0.5 0.2 0.2 0.5 0.2 0.3 0 0.5-0.2 0.2-0.3 0.2-0.5v-11.4q0-0.3-0.2-0.5-0.2-0.2-0.5-0.2-0.3 0-0.5 0.2-0.2 0.2-0.2 0.5v5h-7.3v-5q0-0.3-0.2-0.5-0.2-0.2-0.5-0.2-0.3 0-0.5 0.2-0.2 0.2-0.2 0.5z"/>
		<path id="Layer" class="s0" d="m154.9 175c2.5 0 4.3-1.4 4.3-3.6 0-1.9-1.3-3-4.1-3.5-2.8-0.6-3.4-1.3-3.4-2.5 0-1.1 1-2 2.6-2q0.5 0 0.9 0.1 0.5 0 0.9 0.2 0.4 0.1 0.8 0.3 0.4 0.2 0.7 0.5 0.2 0.1 0.4 0.1 0.2 0 0.3 0 0.2-0.1 0.3-0.3 0.1-0.2 0.1-0.3 0-0.1 0-0.2 0-0.1-0.1-0.2 0 0-0.1-0.1 0-0.1-0.1-0.1-0.4-0.3-0.9-0.6-0.5-0.2-1-0.4-0.5-0.1-1-0.2-0.6-0.1-1.1-0.1c-2.4 0-4.1 1.5-4.1 3.5 0 2.1 1.3 3 4.2 3.6 2.7 0.6 3.3 1.2 3.3 2.4 0 1.2-1.1 2.2-2.8 2.2q-0.6 0-1.1-0.1-0.6-0.1-1.1-0.3-0.5-0.2-1-0.5-0.4-0.3-0.8-0.6-0.1-0.1-0.1-0.1-0.1 0-0.1-0.1-0.1 0-0.1 0-0.1 0-0.2 0-0.1 0-0.2 0.1-0.2 0-0.3 0.1 0 0.1-0.1 0.2-0.1 0.2-0.1 0.3 0 0.1 0.1 0.2 0 0 0 0.1 0.1 0.1 0.1 0.1 0.1 0.1 0.1 0.1 0.5 0.4 1.1 0.8 0.5 0.3 1.2 0.5 0.6 0.2 1.2 0.3 0.6 0.1 1.3 0.1z"/>
		<path id="Layer" class="s0" d="m162.2 174.2q0 0.1 0 0.2 0.1 0.2 0.2 0.3 0.1 0.1 0.2 0.1 0.1 0.1 0.3 0.1h7.2q0.2 0 0.3-0.1 0.1 0 0.2-0.1 0.1-0.1 0.1-0.2 0.1-0.1 0.1-0.3 0-0.1-0.1-0.2 0-0.1-0.1-0.2-0.1-0.1-0.2-0.2-0.1 0-0.3 0h-6.5v-10.8q0-0.3-0.2-0.5-0.2-0.3-0.5-0.3-0.3 0-0.6 0.3-0.2 0.2-0.1 0.5z"/>
		<path id="Layer" class="s0" d="m184.5 175q0.7 0.1 1.3-0.1 0.6-0.1 1.2-0.3 0.6-0.3 1.2-0.6 0.5-0.4 1-0.8 0.1-0.1 0.1-0.1 0-0.1 0.1-0.1 0-0.1 0-0.2 0 0 0-0.1 0-0.2 0-0.3-0.1-0.1-0.2-0.2-0.1-0.1-0.2-0.2-0.1 0-0.2 0-0.1 0-0.2 0 0 0-0.1 0-0.1 0.1-0.1 0.1-0.1 0-0.1 0.1-0.4 0.4-0.8 0.7-0.4 0.2-0.9 0.4-0.5 0.2-1 0.3-0.5 0.1-1 0.1-1.1 0-2-0.4-0.9-0.4-1.6-1.2-0.7-0.7-1-1.6-0.4-1-0.3-2-0.1-1 0.3-1.9 0.3-1 1-1.7 0.7-0.7 1.6-1.1 0.9-0.4 1.9-0.5 0.6 0 1 0.1 0.5 0.1 1 0.3 0.5 0.2 0.9 0.5 0.4 0.2 0.8 0.6 0 0 0.1 0 0 0.1 0.1 0.1 0.1 0 0.1 0 0.1 0 0.1 0 0.3 0 0.5-0.1 0.1-0.1 0.2-0.3 0.1-0.3 0-0.5 0-0.2-0.2-0.3-0.5-0.5-1-0.8-0.5-0.3-1.1-0.5-0.6-0.2-1.2-0.3-0.6-0.1-1.2-0.1-1.3 0-2.5 0.5-1.2 0.5-2.1 1.4-0.9 0.9-1.4 2.1-0.5 1.2-0.4 2.5-0.1 1.3 0.4 2.5 0.5 1.2 1.4 2.1 0.9 1 2 1.5 1.2 0.4 2.5 0.4z"/>
		<path id="Layer" class="s0" d="m199.7 166.2q0-0.2-0.1-0.3 0-0.1-0.1-0.2-0.1-0.1-0.2-0.2-0.2 0-0.3 0-0.1 0-0.3 0-0.1 0.1-0.2 0.2-0.1 0.1-0.1 0.2-0.1 0.1-0.1 0.3v4.7q0.1 0.6-0.1 1.1-0.2 0.5-0.6 1-0.4 0.4-1 0.6-0.5 0.2-1.1 0.2c-1.6 0-2.5-1.1-2.5-2.8v-4.8q-0.1-0.2-0.1-0.3-0.1-0.1-0.2-0.2-0.1-0.1-0.2-0.2-0.1 0-0.3 0-0.1 0-0.2 0-0.2 0.1-0.2 0.2-0.1 0.1-0.2 0.2 0 0.1 0 0.3v5.1q-0.1 0.8 0.1 1.5 0.3 0.7 0.8 1.2 0.5 0.6 1.2 0.8 0.7 0.3 1.4 0.3 0.5 0 1-0.1 0.5-0.2 0.9-0.4 0.4-0.2 0.7-0.6 0.4-0.3 0.6-0.8v1q0 0.3 0.2 0.6 0.2 0.2 0.5 0.2 0.3 0 0.5-0.2 0.2-0.3 0.2-0.6z"/>
		<path id="Layer" class="s0" d="m205.8 175c1.8 0 3.3-1 3.3-2.8 0-1.7-1.6-2.2-3-2.6-1.2-0.4-2.4-0.8-2.4-1.7 0-0.7 0.7-1.3 1.8-1.3q0.3 0 0.6 0.1 0.4 0 0.7 0.1 0.3 0.1 0.6 0.2 0.3 0.1 0.5 0.3 0.1 0 0.1 0 0.1 0.1 0.1 0.1 0 0 0.1 0 0.2 0 0.3-0.1 0.1 0 0.2-0.1 0.1-0.1 0.1-0.2 0.1-0.1 0.1-0.2 0-0.1-0.1-0.2 0-0.1 0-0.1-0.1-0.1-0.1-0.2-0.1 0-0.2-0.1-0.3-0.2-0.7-0.3-0.4-0.2-0.7-0.3-0.4-0.1-0.8-0.1-0.4-0.1-0.8-0.1c-1.8 0-3.1 1.1-3.1 2.7 0 1.7 1.6 2.2 3 2.6 1.3 0.4 2.4 0.7 2.4 1.7 0 0.9-0.8 1.4-2 1.4q-0.4 0-0.8 0-0.4-0.1-0.7-0.2-0.4-0.1-0.8-0.3-0.3-0.2-0.7-0.5-0.1 0-0.1 0-0.1 0-0.1-0.1-0.1 0-0.1 0-0.1 0-0.2 0.1-0.2 0-0.2 0.1-0.1 0.1-0.2 0.2 0 0.1 0 0.2 0 0.1 0 0.2 0 0.1 0 0.1 0.1 0.1 0.1 0.1 0.1 0.1 0.1 0.1 0.4 0.3 0.9 0.5 0.4 0.3 0.9 0.4 0.4 0.2 0.9 0.2 0.5 0.1 1 0.1z"/>
		<path id="Layer" class="s0" d="m214.8 175q0.2 0 0.3 0 0.2 0 0.4-0.1 0.2 0 0.3 0 0.2-0.1 0.4-0.2 0 0 0.1 0 0.1-0.1 0.1-0.2 0.1 0 0.1-0.1 0.1-0.1 0-0.2 0-0.1 0-0.2 0-0.1-0.1-0.2-0.1-0.1-0.2-0.2-0.1 0-0.2 0-0.1 0-0.2 0.1-0.2 0-0.3 0-0.1 0-0.2 0-0.1 0-0.2 0-0.3 0.1-0.6 0-0.3-0.1-0.6-0.4-0.2-0.2-0.3-0.5-0.1-0.3-0.1-0.6v-5.5h2.5q0.1 0 0.2 0 0.1-0.1 0.2-0.2 0.1 0 0.1-0.2 0.1-0.1 0.1-0.2 0-0.1-0.1-0.2 0-0.1-0.1-0.2-0.1-0.1-0.2-0.2-0.1 0-0.2 0h-2.5v-2.2q0-0.1 0-0.3-0.1-0.1-0.2-0.2-0.1-0.1-0.2-0.1-0.1-0.1-0.3-0.1-0.1 0-0.2 0.1-0.2 0-0.2 0.1-0.1 0.1-0.2 0.2 0 0.2 0 0.3v2.2h-0.8q-0.1 0-0.2 0-0.1 0.1-0.2 0.2-0.1 0.1-0.2 0.2 0 0.1 0 0.2 0 0.1 0 0.2 0.1 0.2 0.2 0.2 0.1 0.1 0.2 0.2 0.1 0 0.2 0h0.8v5.6q-0.1 0.6 0.1 1.1 0.2 0.5 0.5 0.9 0.4 0.4 0.9 0.6 0.5 0.2 1.1 0.1z"/>
		<path id="Layer" fill-rule="evenodd" class="s0" d="m222.5 175q-0.9 0-1.8-0.3-0.9-0.4-1.6-1.1-0.7-0.7-1-1.6-0.4-0.9-0.4-1.8c0-1.3 0.5-2.6 1.4-3.5 0.9-0.9 2.2-1.4 3.5-1.4 1.3 0 2.5 0.5 3.4 1.4 0.9 0.9 1.4 2.2 1.4 3.5q0 0.9-0.3 1.8-0.4 0.9-1.1 1.6-0.7 0.7-1.6 1.1-0.9 0.3-1.9 0.3zm1.4-1.5q0.7-0.3 1.2-0.8 0.4-0.5 0.7-1.1 0.2-0.7 0.2-1.4 0-0.7-0.2-1.4-0.3-0.6-0.8-1.1-0.4-0.6-1.1-0.8-0.6-0.3-1.4-0.3-0.7 0-1.3 0.2-0.6 0.3-1.1 0.8-0.5 0.5-0.8 1.2-0.2 0.7-0.2 1.4 0 0.7 0.3 1.3 0.2 0.7 0.7 1.2 0.5 0.5 1.1 0.8 0.7 0.3 1.4 0.3 0.7 0 1.3-0.3z"/>
		<path id="Layer" class="s0" d="m229.9 174.2q0 0.2 0 0.3 0.1 0.1 0.2 0.2 0.1 0.1 0.2 0.2 0.1 0 0.3 0 0.1 0 0.3 0 0.1-0.1 0.2-0.2 0.1-0.1 0.1-0.2 0.1-0.1 0.1-0.3v-4.7q-0.1-0.5 0.1-1.1 0.2-0.5 0.5-0.9 0.4-0.4 0.9-0.7 0.5-0.2 1.1-0.2c1.4 0 2.4 1 2.4 2.7v4.9q-0.1 0.3 0.1 0.6 0.3 0.2 0.6 0.2 0.3 0 0.5-0.2 0.2-0.3 0.2-0.6v-4.7q-0.1-0.6 0.1-1.1 0.1-0.5 0.5-1 0.4-0.4 0.9-0.6 0.5-0.2 1-0.2c1.5 0 2.4 1 2.4 2.8v4.8q0 0.3 0.2 0.6 0.2 0.2 0.5 0.2 0.3 0 0.6-0.2 0.2-0.3 0.1-0.6v-5.1c0-2.3-1.3-3.8-3.4-3.8q-0.5 0-1 0.1-0.5 0.1-0.9 0.4-0.5 0.2-0.8 0.6-0.4 0.3-0.6 0.8-0.2-0.5-0.5-0.8-0.3-0.4-0.7-0.6-0.4-0.3-0.9-0.4-0.4-0.1-0.9-0.1-0.5 0-0.9 0.1-0.5 0.1-0.9 0.4-0.4 0.2-0.7 0.5-0.3 0.4-0.5 0.8v-1q0-0.2-0.1-0.3 0-0.1-0.1-0.2-0.1-0.1-0.3-0.2-0.1 0-0.2 0-0.2 0-0.3 0-0.1 0.1-0.2 0.2-0.1 0.1-0.2 0.2 0 0.1 0 0.3z"/>
		<path id="Layer" fill-rule="evenodd" class="s0" d="m253.7 174.2q-0.4 0.3-0.9 0.5-0.4 0.2-0.9 0.2-0.5 0.1-0.9 0.1-1 0-1.9-0.4-0.9-0.3-1.5-1-0.7-0.7-1-1.6-0.4-0.9-0.3-1.8-0.1-1 0.3-1.9 0.3-0.8 0.9-1.5 0.6-0.7 1.5-1.1 0.8-0.4 1.8-0.4c2.7 0 4.3 2.3 4.3 4.7q0 0.2-0.1 0.3 0 0.1-0.1 0.2-0.1 0.1-0.2 0.1-0.1 0.1-0.3 0.1h-6.7q0 0.6 0.3 1.2 0.2 0.6 0.7 1 0.5 0.5 1 0.7 0.6 0.2 1.3 0.2 0.4 0 0.7 0 0.4-0.1 0.7-0.2 0.4-0.2 0.7-0.4 0.3-0.2 0.6-0.4 0.1-0.2 0.3-0.2 0.1 0 0.3 0 0.2 0.1 0.3 0.3 0.1 0.1 0.1 0.3 0 0 0 0.1-0.1 0.1-0.1 0.1 0 0.1-0.1 0.1 0 0.1 0 0.1-0.4 0.4-0.8 0.6zm0-4.6c-0.2-1.7-1.1-3.1-3-3.1q-0.6 0-1.2 0.3-0.5 0.2-0.9 0.7-0.4 0.4-0.7 1-0.2 0.5-0.2 1.1z"/>
		<path id="Layer" class="s0" d="m257.6 174.2q0 0.3 0.2 0.6 0.2 0.2 0.5 0.2 0.3 0 0.5-0.2 0.2-0.3 0.2-0.6v-3.2c0-2.6 1.5-4 3.3-4.2q0.1 0 0.2-0.1 0.1-0.1 0.2-0.1 0.1-0.1 0.2-0.3 0-0.1 0-0.2 0-0.2 0-0.3-0.1-0.1-0.2-0.2-0.1-0.1-0.2-0.2-0.2 0-0.3 0-0.5 0-1 0.2-0.5 0.2-0.9 0.6-0.5 0.3-0.8 0.7-0.3 0.5-0.5 1v-1.7q0-0.2-0.1-0.3 0-0.1-0.1-0.2-0.1-0.1-0.2-0.2-0.2 0-0.3 0-0.1 0-0.3 0-0.1 0.1-0.2 0.2-0.1 0.1-0.1 0.2-0.1 0.1-0.1 0.3z"/>
		<path id="Layer" class="s0" d="m274.9 175c2.5 0 4.3-1.4 4.3-3.6 0-1.9-1.3-3-4.1-3.5-2.8-0.6-3.4-1.3-3.4-2.5 0-1.1 1-2 2.6-2q0.5 0 0.9 0.1 0.4 0 0.9 0.2 0.4 0.1 0.8 0.3 0.4 0.2 0.7 0.5 0.1 0 0.1 0.1 0.1 0 0.1 0 0.1 0 0.1 0 0.1 0 0.1 0 0.2 0 0.3 0 0.1-0.1 0.2-0.2 0.1-0.1 0.2-0.2 0-0.1 0-0.2 0-0.1 0-0.2 0-0.1-0.1-0.2 0-0.1-0.1-0.1 0-0.1-0.1-0.1-0.4-0.3-0.9-0.6-0.5-0.2-1-0.4-0.5-0.1-1-0.2-0.6-0.1-1.1-0.1c-2.4 0-4.1 1.5-4.1 3.5 0 2.1 1.3 3 4.2 3.6 2.6 0.6 3.3 1.2 3.3 2.4 0 1.2-1.2 2.2-2.8 2.2q-0.6 0-1.1-0.1-0.6-0.1-1.1-0.3-0.5-0.2-1-0.5-0.4-0.3-0.8-0.6-0.1-0.1-0.1-0.1-0.1 0-0.1-0.1-0.1 0-0.2 0 0 0-0.1 0-0.1 0-0.2 0.1-0.2 0-0.3 0.1-0.1 0.1-0.1 0.2-0.1 0.2-0.1 0.3 0 0.1 0.1 0.2 0 0 0 0.1 0 0.1 0.1 0.1 0 0.1 0.1 0.1 0.5 0.5 1.1 0.8 0.5 0.3 1.2 0.5 0.6 0.2 1.2 0.3 0.6 0.1 1.3 0.1z"/>
		<path id="Layer" fill-rule="evenodd" class="s0" d="m288.7 174.2q-0.4 0.3-0.9 0.5-0.4 0.2-0.9 0.2-0.5 0.1-1 0.1-0.9 0-1.8-0.4-0.9-0.3-1.5-1-0.7-0.7-1-1.6-0.4-0.9-0.3-1.9-0.1-0.9 0.2-1.8 0.4-0.8 1-1.5 0.6-0.7 1.5-1.1 0.8-0.4 1.7-0.4c2.8 0 4.4 2.3 4.4 4.7q0 0.2-0.1 0.3 0 0.1-0.1 0.2-0.1 0.1-0.2 0.1-0.2 0.1-0.3 0.1h-6.7q0 0.6 0.3 1.2 0.2 0.6 0.7 1 0.4 0.5 1 0.7 0.6 0.2 1.3 0.2 0.3 0 0.7 0 0.4-0.1 0.7-0.2 0.4-0.2 0.7-0.4 0.3-0.2 0.5-0.5 0.1 0 0.1 0 0.1 0 0.1-0.1 0.1 0 0.1 0 0.1 0 0.1 0 0.2 0 0.3 0 0.1 0.1 0.2 0.2 0.1 0 0.1 0.2 0 0.1 0 0.2 0 0 0 0.1 0 0.1 0 0.1 0 0.1-0.1 0.1 0 0.1-0.1 0.1-0.3 0.4-0.7 0.6zm0-4.6c-0.2-1.7-1.2-3.1-3-3.1q-0.6 0-1.2 0.3-0.5 0.2-1 0.7-0.4 0.4-0.6 1-0.2 0.5-0.2 1.1z"/>
		<path id="Layer" class="s0" d="m292.5 174.2q-0.1 0.3 0.2 0.6 0.2 0.2 0.5 0.2 0.3 0 0.5-0.2 0.2-0.3 0.2-0.6v-3.2c0-2.6 1.4-4 3.2-4.2q0.2 0 0.3-0.1 0.1-0.1 0.2-0.1 0.1-0.1 0.1-0.3 0.1-0.1 0.1-0.2 0-0.2-0.1-0.3 0-0.1-0.1-0.2-0.1-0.1-0.2-0.2-0.2 0-0.3 0-0.6 0-1.1 0.2-0.5 0.2-0.9 0.6-0.4 0.3-0.7 0.7-0.3 0.5-0.5 1v-1.7q0-0.2-0.1-0.3 0-0.1-0.1-0.2-0.1-0.1-0.3-0.2-0.1-0.1-0.2 0-0.2 0-0.3 0-0.1 0.1-0.2 0.2-0.1 0.1-0.2 0.2 0 0.1 0 0.3z"/>
		<path id="Layer" class="s0" d="m304.6 174.4l3.5-8q0-0.1 0-0.1 0-0.1 0-0.1 0-0.1 0-0.1 0-0.1 0-0.3-0.1-0.1-0.1-0.2-0.1-0.1-0.3-0.1-0.1-0.1-0.2-0.1-0.1 0-0.2 0-0.2 0.1-0.2 0.2-0.1 0-0.2 0.1-0.1 0.1-0.1 0.2l-3.1 7.3-3-7.3q0-0.2-0.2-0.3-0.3-0.2-0.5-0.2-0.3 0.1-0.5 0.3-0.1 0.1-0.2 0.4 0 0 0.1 0.1 0 0 0 0.1 0 0 0 0.1 0 0 0 0.1l3.5 7.9q0.1 0.1 0.2 0.2 0 0.1 0.1 0.2 0.1 0.1 0.3 0.1 0.1 0.1 0.2 0.1h0.1q0.1 0 0.3-0.1 0.1 0 0.2-0.1 0.1-0.1 0.1-0.2 0.1-0.1 0.2-0.2z"/>
		<path id="Layer" class="s0" d="m310.3 174.2q0 0.2 0.1 0.3 0 0.1 0.1 0.2 0.1 0.1 0.3 0.2 0.1 0 0.2 0 0.2 0 0.3 0 0.1-0.1 0.2-0.2 0.1-0.1 0.2-0.2 0-0.2 0-0.3v-8q0-0.2 0-0.3-0.1-0.1-0.2-0.2-0.1-0.1-0.2-0.2-0.1 0-0.3 0-0.1 0-0.2 0-0.2 0.1-0.3 0.2-0.1 0.1-0.1 0.2-0.1 0.1-0.1 0.3zm-0.1-11.4q0 0.3 0.3 0.5 0.2 0.3 0.5 0.3 0.4 0 0.6-0.3 0.3-0.2 0.3-0.6v-0.2q0-0.3-0.3-0.6-0.2-0.2-0.6-0.2-0.3 0-0.5 0.2-0.3 0.3-0.3 0.6z"/>
		<path id="Layer" class="s0" d="m318.9 175q0.5 0 1 0 0.5-0.1 1-0.3 0.4-0.2 0.8-0.5 0.4-0.3 0.8-0.7 0.1-0.1 0.1-0.2 0 0 0-0.1 0 0 0-0.1 0-0.1 0-0.2-0.1-0.1-0.1-0.2-0.1-0.1-0.2-0.2-0.2 0-0.3 0 0 0-0.1 0 0 0-0.1 0 0 0.1-0.1 0.1 0 0-0.1 0.1-0.2 0.2-0.5 0.4-0.3 0.2-0.7 0.4-0.3 0.1-0.7 0.2-0.3 0.1-0.7 0.1-0.7 0-1.3-0.3-0.7-0.3-1.1-0.8-0.5-0.5-0.8-1.2-0.2-0.6-0.2-1.3 0-0.7 0.2-1.4 0.2-0.6 0.7-1.1 0.5-0.5 1.1-0.8 0.6-0.3 1.3-0.3 0.4 0 0.7 0 0.4 0.1 0.7 0.3 0.4 0.1 0.6 0.3 0.3 0.2 0.6 0.5 0 0 0.1 0 0 0.1 0.1 0.1 0 0 0.1 0 0.1 0 0.1 0 0.2 0 0.3 0 0.1-0.1 0.2-0.2 0.1-0.1 0.1-0.2 0.1-0.1 0.1-0.2 0-0.1 0-0.2 0 0-0.1-0.1 0-0.1 0-0.1-0.1-0.1-0.1-0.1c-0.7-0.7-1.6-1.1-2.5-1.3-0.9-0.2-1.9-0.1-2.8 0.3q-1.3 0.6-2.1 1.8c-0.5 0.8-0.8 1.7-0.8 2.7q0 1 0.3 1.8 0.4 0.9 1.1 1.6 0.6 0.7 1.5 1.1 0.9 0.3 1.9 0.3z"/>
		<path id="Layer" fill-rule="evenodd" class="s0" d="m331.7 174.2q-0.4 0.3-0.9 0.5-0.4 0.2-0.9 0.2-0.5 0.1-1 0.1-0.9 0-1.8-0.4-0.9-0.3-1.5-1-0.7-0.7-1-1.6-0.4-0.9-0.3-1.8-0.1-1 0.3-1.9 0.3-0.8 0.9-1.5 0.6-0.7 1.5-1.1 0.8-0.4 1.8-0.4c2.7 0 4.3 2.3 4.3 4.7q0 0.2-0.1 0.3 0 0.1-0.1 0.2-0.1 0.1-0.2 0.1-0.1 0.1-0.3 0.1h-6.7q0 0.6 0.3 1.2 0.2 0.6 0.7 1 0.5 0.5 1 0.7 0.6 0.2 1.3 0.2 0.4 0 0.7 0 0.4-0.1 0.7-0.2 0.4-0.2 0.7-0.4 0.3-0.2 0.6-0.4 0.1-0.2 0.3-0.2 0.1 0 0.3 0 0.2 0.1 0.3 0.3 0.1 0.1 0.1 0.3 0 0 0 0.1-0.1 0.1-0.1 0.1 0 0.1-0.1 0.1 0 0.1 0 0.1-0.4 0.4-0.8 0.6zm0-4.6c-0.2-1.7-1.1-3.1-3-3.1q-0.6 0-1.2 0.3-0.5 0.2-0.9 0.7-0.4 0.4-0.7 1-0.2 0.5-0.2 1.1z"/>
		<path id="Layer" fill-rule="evenodd" class="s0" d="m136.4 201.6c0-4.8 2.9-8.7 7.3-8.7 4.4 0 7.3 3.8 7.3 8.6 0 4.8-2.9 8.7-7.3 8.7-4.5 0-7.3-3.8-7.3-8.6zm11.6 0c0-3.3-1.7-6-4.3-6-2.6 0-4.3 2.6-4.3 6 0 3.3 1.7 6 4.3 6 2.6 0 4.3-2.7 4.3-6z"/>
		<path id="Layer" fill-rule="evenodd" class="s0" d="m158.3 210.2q-0.6-0.1-1.1-0.3-0.6-0.2-1.1-0.4-0.6-0.3-1-0.6-0.2-0.1-0.3-0.2-0.1-0.2-0.2-0.3-0.1-0.2-0.2-0.4 0-0.2 0-0.3 0-0.3 0.1-0.6 0.1-0.2 0.3-0.4 0.2-0.2 0.5-0.3 0.2-0.1 0.5-0.1 0.1 0 0.2 0 0.1 0 0.2 0.1 0.1 0 0.2 0 0.1 0.1 0.2 0.2 0.3 0.2 0.7 0.4 0.4 0.2 0.8 0.3 0.3 0.1 0.8 0.2 0.4 0.1 0.8 0.1c2.4 0 3.9-2.2 4-5.3q-0.3 0.4-0.8 0.7-0.4 0.4-1 0.6-0.5 0.2-1 0.4-0.6 0.1-1.2 0c-3.6 0-6-2.1-6-5.3 0-3.3 2.6-5.9 6.3-5.9q0.7 0 1.3 0.1 0.6 0.1 1.3 0.3 0.6 0.2 1.1 0.6 0.5 0.4 1 0.8c1.2 1.3 2 3.1 2 6.4v0.1c0 5.4-2.7 9.1-7.2 9.1q-0.6 0-1.2 0zm3.1-8.8q0.6-0.2 1.1-0.6 0.5-0.5 0.8-1.1 0.2-0.6 0.2-1.2c0-1.8-1.3-3.1-3.5-3.1q-0.6-0.1-1.2 0.2-0.7 0.2-1.1 0.6-0.5 0.5-0.8 1.1-0.2 0.6-0.2 1.2v0.1c0 1.7 1.3 3 3.4 3q0.7 0 1.3-0.2z"/>
		<path id="Layer" fill-rule="evenodd" class="s0" d="m185.2 206.2h-7.5q-0.3 0-0.6-0.1-0.2-0.1-0.4-0.3-0.2-0.2-0.3-0.5-0.2-0.2-0.2-0.5 0-0.2 0.1-0.4 0-0.3 0.1-0.5 0.1-0.2 0.2-0.3 0.1-0.2 0.3-0.4l7.9-9.3q0.1-0.3 0.3-0.5 0.2-0.2 0.4-0.3 0.3-0.1 0.5-0.2 0.3-0.1 0.6 0 0.3-0.1 0.5 0.1 0.3 0.1 0.5 0.3 0.2 0.2 0.3 0.4 0.1 0.3 0.1 0.6v9.4h1.3q0.3 0 0.5 0.1 0.2 0.1 0.4 0.3 0.2 0.1 0.3 0.4 0.1 0.2 0 0.4 0.1 0.3 0 0.5-0.1 0.2-0.3 0.4-0.2 0.2-0.4 0.3-0.2 0.1-0.5 0.1h-1.3v2.5c0 0.4-0.1 0.7-0.4 1-0.3 0.3-0.6 0.4-1 0.4-0.4 0-0.7-0.1-1-0.4-0.3-0.3-0.4-0.6-0.4-1zm0-2.4v-6.7l-5.6 6.7z"/>
		<path id="Layer" class="s0" d="m193.7 208.8q0 0.2 0.1 0.5 0.1 0.2 0.3 0.4 0.2 0.2 0.5 0.3 0.3 0.1 0.6 0.1 0.2 0 0.4-0.1 0.2-0.1 0.4-0.2 0.2-0.1 0.4-0.3 0.1-0.2 0.2-0.4l7-13.3q0.1-0.1 0.2-0.3 0-0.2 0.1-0.3 0-0.2 0.1-0.4 0-0.2 0-0.4 0-0.3-0.1-0.5-0.1-0.3-0.3-0.5-0.2-0.1-0.4-0.2-0.3-0.1-0.6-0.1h-9.4c-0.3 0-0.7 0.1-0.9 0.4-0.3 0.2-0.4 0.6-0.4 0.9 0 0.3 0.1 0.7 0.4 0.9 0.2 0.3 0.6 0.4 0.9 0.4h7.3l-6.6 12.1q-0.1 0.1-0.1 0.3 0 0.1-0.1 0.2 0 0.1 0 0.2 0 0.1 0 0.2z"/>
		<path id="Layer" fill-rule="evenodd" class="s0" d="m211 210.2q-0.6-0.1-1.2-0.4-0.6-0.2-1.2-0.6-0.5-0.3-1-0.8c-1.2-1.3-2-3-2-6.4 0-5.2 2.4-9.2 7.2-9.2q0.6 0 1.1 0.1 0.6 0.1 1.1 0.2 0.5 0.2 1 0.4 0.6 0.2 1 0.5 0.2 0.1 0.3 0.3 0.2 0.1 0.3 0.3 0.1 0.1 0.1 0.3 0.1 0.2 0.1 0.4 0 0.3-0.2 0.5-0.1 0.3-0.3 0.5-0.2 0.2-0.4 0.3-0.3 0.1-0.6 0.1-0.1 0-0.2 0-0.1-0.1-0.1-0.1-0.1 0-0.2-0.1-0.1 0-0.2 0-0.3-0.3-0.7-0.4-0.3-0.2-0.7-0.3-0.3-0.2-0.7-0.2-0.4-0.1-0.8-0.1c-2.5 0-3.8 2.3-4 5.4q0.4-0.4 0.9-0.8 0.4-0.3 0.9-0.5 0.6-0.2 1.1-0.3 0.6-0.1 1.1-0.1c3.3 0 5.9 1.9 5.9 5.3 0 3.4-2.7 5.7-6.3 5.7q-0.6 0.1-1.3 0zm2.5-2.6q0.6-0.2 1.1-0.7 0.5-0.4 0.8-1 0.2-0.6 0.2-1.2v-0.1c0-1.7-1.3-2.9-3.4-2.9-2.1 0-3.4 1.4-3.4 3 0 1.7 1.4 3 3.5 3q0.6 0 1.2-0.1z"/>
		<path id="Layer" fill-rule="evenodd" class="s0" d="m226.8 210.2q-0.7-0.1-1.3-0.4-0.6-0.2-1.1-0.6-0.6-0.3-1.1-0.8c-1.2-1.3-2-3-2-6.4 0-5.2 2.5-9.2 7.3-9.2q0.5 0 1.1 0.1 0.5 0.1 1.1 0.2 0.5 0.2 1 0.4 0.5 0.2 1 0.5 0.1 0.1 0.3 0.3 0.1 0.1 0.2 0.3 0.1 0.1 0.2 0.3 0 0.2 0 0.4 0 0.3-0.1 0.5-0.1 0.3-0.3 0.5-0.2 0.2-0.5 0.3-0.2 0.1-0.5 0.1-0.1 0-0.2 0-0.1-0.1-0.2-0.1-0.1 0-0.2-0.1-0.1 0-0.2 0-0.3-0.3-0.6-0.4-0.4-0.2-0.7-0.3-0.4-0.2-0.8-0.2-0.4-0.1-0.7-0.1c-2.5 0-3.9 2.3-4 5.4q0.3-0.4 0.8-0.8 0.5-0.3 1-0.5 0.5-0.2 1.1-0.3 0.5-0.1 1.1-0.1c3.2 0 5.8 1.9 5.8 5.3 0 3.4-2.7 5.7-6.2 5.7q-0.7 0.1-1.3 0zm2.5-2.6q0.6-0.2 1.1-0.7 0.5-0.4 0.7-1 0.3-0.6 0.3-1.2v-0.1c0-1.7-1.4-2.9-3.5-2.9-2.1 0-3.4 1.4-3.4 3 0 1.7 1.4 3 3.5 3q0.7 0 1.3-0.1z"/>
		<path id="Layer" fill-rule="evenodd" class="s0" d="m252.9 206.2h-7.6q-0.2 0-0.5-0.1-0.3-0.1-0.5-0.3-0.2-0.2-0.3-0.5-0.1-0.2-0.1-0.5 0-0.2 0-0.4 0.1-0.3 0.2-0.5 0.1-0.2 0.2-0.3 0.1-0.2 0.2-0.4l8-9.3q0.1-0.3 0.3-0.5 0.2-0.2 0.4-0.3 0.3-0.1 0.5-0.2 0.3-0.1 0.6 0 0.3-0.1 0.5 0.1 0.3 0.1 0.5 0.3 0.2 0.2 0.3 0.4 0.1 0.3 0.1 0.6v9.4h1.3q0.3 0 0.5 0.1 0.2 0.1 0.4 0.3 0.1 0.1 0.2 0.4 0.1 0.2 0.1 0.4 0 0.3-0.1 0.5-0.1 0.2-0.2 0.4-0.2 0.2-0.4 0.3-0.2 0.1-0.5 0.1h-1.3v2.5c0 0.4-0.1 0.7-0.4 1-0.3 0.3-0.6 0.4-1 0.4-0.4 0-0.7-0.1-1-0.4-0.3-0.3-0.4-0.6-0.4-1zm-0.1-2.5v-6.6l-5.5 6.6z"/>
		<path id="Layer" fill-rule="evenodd" class="s0" d="m267.9 210.2c-4.4 0-7.3-3.8-7.3-8.6 0-4.8 3-8.7 7.4-8.7 4.4 0 7.3 3.8 7.3 8.6 0 4.8-3 8.7-7.4 8.7zm4.3-8.6c0-3.3-1.7-6-4.3-6-2.6 0-4.2 2.6-4.2 6 0 3.2 1.7 6 4.3 6 2.6 0 4.2-2.7 4.2-6z"/>
		<path id="Layer" fill-rule="evenodd" class="s0" d="m284.9 210.2c-4.4 0-7.3-3.8-7.3-8.6 0-4.8 3-8.7 7.4-8.7 4.4 0 7.3 3.8 7.3 8.6 0 4.8-3 8.7-7.4 8.7zm4.3-8.6c0-3.3-1.7-6-4.3-6-2.6 0-4.2 2.6-4.2 6 0 3.2 1.7 6 4.3 6 2.6 0 4.2-2.7 4.2-6z"/>
		<path id="Layer" fill-rule="evenodd" class="s0" d="m295.6 201.6c0-4.8 2.9-8.7 7.3-8.7 4.4 0 7.3 3.8 7.3 8.6 0 4.8-2.9 8.7-7.3 8.7-4.5 0-7.4-3.8-7.3-8.6zm11.5 0c0-3.3-1.7-6-4.3-6-2.6 0-4.2 2.6-4.2 6 0 3.3 1.7 6 4.3 6 2.6 0 4.3-2.7 4.2-6z"/>
		<path id="Layer" class="s0" d="m138.4 239c0 0.3 0.1 0.5 0.3 0.8 0.2 0.2 0.5 0.3 0.7 0.3 0.3 0 0.6-0.1 0.8-0.3 0.2-0.3 0.3-0.5 0.3-0.8v-4.4q0-0.5 0.1-0.9 0.2-0.4 0.5-0.8 0.3-0.3 0.7-0.5 0.4-0.2 0.9-0.2c1.3 0 2 0.9 2 2.4v4.4q0 0.2 0.1 0.4 0.1 0.2 0.2 0.4 0.2 0.1 0.4 0.2 0.2 0.1 0.4 0.1 0.2 0 0.4-0.1 0.2-0.1 0.4-0.3 0.1-0.1 0.2-0.3 0.1-0.2 0.1-0.4v-5.1c0-2.2-1.3-3.7-3.4-3.7q-0.5 0-0.9 0.2-0.4 0.1-0.8 0.3-0.4 0.2-0.8 0.5-0.3 0.3-0.5 0.7v-4.1q0-0.2-0.1-0.4-0.1-0.2-0.2-0.4-0.2-0.1-0.4-0.2-0.2-0.1-0.4-0.1-0.2 0-0.4 0.1-0.2 0.1-0.4 0.2-0.1 0.2-0.2 0.4-0.1 0.2-0.1 0.4z"/>
		<path id="Layer" class="s0" d="m152.9 240.1c2 0 3.5-1 3.5-3 0-1.7-1.6-2.3-3-2.7-1.1-0.4-2.1-0.7-2.1-1.4 0-0.5 0.5-0.9 1.3-0.9q0.3 0 0.6 0.1 0.3 0 0.6 0.1 0.2 0.1 0.5 0.2 0.3 0.1 0.6 0.2 0 0.1 0.1 0.1 0 0 0.1 0 0 0 0.1 0 0 0 0.1 0 0.2 0 0.3 0 0.2-0.1 0.3-0.2 0.1-0.1 0.2-0.3 0.1-0.2 0.1-0.3 0-0.2-0.1-0.3 0-0.1-0.1-0.2 0-0.1-0.1-0.2-0.1-0.1-0.2-0.2-0.4-0.2-0.7-0.3-0.4-0.1-0.8-0.2-0.4-0.1-0.8-0.2-0.3 0-0.7 0c-1.9 0-3.4 1.1-3.4 2.9 0 1.8 1.5 2.4 3 2.8 1.1 0.3 2.1 0.6 2.1 1.3 0 0.6-0.5 1-1.5 1q-0.3 0-0.7-0.1-0.4-0.1-0.7-0.2-0.4-0.1-0.7-0.3-0.3-0.1-0.6-0.3-0.1-0.1-0.1-0.1-0.1 0-0.1 0-0.1 0-0.2 0 0-0.1-0.1-0.1-0.2 0-0.3 0.1-0.2 0.1-0.3 0.2-0.1 0.1-0.2 0.3-0.1 0.2-0.1 0.3 0 0.1 0 0.3 0.1 0.1 0.1 0.2 0.1 0.1 0.2 0.1 0 0.1 0.1 0.2 0.4 0.3 0.9 0.5 0.4 0.2 0.9 0.3 0.4 0.2 0.9 0.3 0.5 0 1 0z"/>
		<path id="Layer" class="s0" d="m158.8 239q0 0.2 0.1 0.4 0.1 0.2 0.2 0.3 0.2 0.2 0.4 0.3 0.2 0.1 0.4 0.1 0.2 0 0.4-0.1 0.2-0.1 0.4-0.2 0.1-0.2 0.2-0.4 0.1-0.2 0.1-0.4v-11.2q0-0.2-0.1-0.4-0.1-0.2-0.2-0.4-0.2-0.1-0.4-0.2-0.2-0.1-0.4-0.1-0.2 0-0.4 0.1-0.2 0.1-0.4 0.2-0.1 0.2-0.2 0.4-0.1 0.2-0.1 0.4z"/>
		<path id="Layer" class="s0" d="m163.7 238.6v0.2q0 0.6 0.3 0.9c0.3 0.3 0.6 0.4 0.9 0.4 0.4 0 0.7-0.1 0.9-0.4 0.3-0.2 0.4-0.5 0.4-0.9v-0.2c0-0.3-0.1-0.6-0.4-0.9q-0.3-0.3-0.9-0.3-0.5 0-0.9 0.3-0.3 0.4-0.3 0.9z"/>
		<path id="Layer" class="s0" d="m169 239q0.1 0.4 0.4 0.7 0.3 0.3 0.7 0.3 0.5 0 0.8-0.3 0.3-0.3 0.3-0.7v-6.7h1.7q0.4 0 0.6-0.2 0.3-0.3 0.3-0.7 0-0.4-0.3-0.6-0.2-0.3-0.6-0.3h-1.7v-0.5q0-1.5 1.2-1.5 0.1 0 0.2 0 0 0 0.1 0 0 0 0.1 0 0 0 0.1 0 0.2 0.1 0.4 0 0.1-0.1 0.3-0.2 0.1-0.1 0.2-0.3 0-0.2 0-0.4 0-0.1 0-0.3-0.1-0.1-0.2-0.2-0.1-0.2-0.2-0.3-0.2 0-0.3-0.1-0.2 0-0.3 0-0.1 0-0.3 0-0.1 0-0.3 0-0.1-0.1-0.2-0.1-0.3 0-0.6 0.1-0.3 0-0.6 0.1-0.3 0.1-0.5 0.3-0.3 0.1-0.5 0.3-0.2 0.3-0.3 0.5-0.2 0.3-0.3 0.6-0.1 0.3-0.1 0.6-0.1 0.3-0.1 0.7v0.7h-0.3q-0.2 0-0.4 0-0.2 0.1-0.3 0.2-0.1 0.2-0.2 0.3 0 0.2-0.1 0.4 0.1 0.2 0.1 0.3 0.1 0.2 0.2 0.3 0.2 0.2 0.3 0.2 0.2 0.1 0.4 0.1h0.3zm6.5 0c0 0.3 0.1 0.5 0.3 0.8 0.2 0.2 0.5 0.3 0.7 0.3 0.3 0 0.6-0.1 0.8-0.3 0.2-0.3 0.3-0.5 0.3-0.8v-7.6c0-0.2-0.1-0.5-0.3-0.7-0.2-0.2-0.5-0.4-0.8-0.4-0.2 0-0.5 0.2-0.7 0.4-0.2 0.2-0.3 0.5-0.3 0.7zm-0.2-11q0.1 0.5 0.4 0.8 0.4 0.3 0.8 0.3 0.5 0 0.9-0.3 0.3-0.3 0.4-0.8v-0.1q-0.1-0.4-0.4-0.7-0.4-0.3-0.9-0.3-0.4 0-0.8 0.3-0.3 0.3-0.4 0.7z"/>
		<path id="Layer" fill-rule="evenodd" class="s0" d="m137.1 2.8q0-0.3 0.1-0.6 0.2-0.3 0.4-0.5 0.2-0.2 0.4-0.3 0.3-0.1 0.6-0.1c0.5 0 6.9 0 7.3 0q0.7 0.1 1.3 0.4 0.6 0.2 1.2 0.5 0.6 0.3 1.1 0.8 0.3 0.3 0.6 0.8 0.2 0.4 0.4 0.8 0.2 0.5 0.3 1 0.1 0.5 0.1 1v0.1q0 0.8-0.3 1.7-0.2 0.8-0.8 1.5-0.5 0.6-1.2 1.1-0.7 0.5-1.6 0.7l3.3 4q0.1 0.2 0.2 0.3 0 0.1 0.1 0.3 0.1 0.1 0.1 0.3 0 0.1 0 0.3 0 0.2-0.1 0.5-0.1 0.3-0.3 0.5-0.2 0.1-0.4 0.2-0.3 0.1-0.6 0.1-0.2 0-0.4 0-0.2-0.1-0.4-0.2-0.2-0.1-0.3-0.2-0.2-0.1-0.3-0.3l-4-5.2h-3.8v4.5c0 0.4-0.2 0.7-0.5 0.9-0.2 0.3-0.6 0.4-1 0.4-0.3 0-0.7-0.1-1-0.4-0.2-0.2-0.4-0.5-0.4-0.9zm7.3 6.8c2.1 0 3.4-1.1 3.4-2.8 0-1.8-1.3-2.8-3.5-2.8h-4.3v5.6z"/>
		<path id="Layer" fill-rule="evenodd" class="s0" d="m162.7 17.5q-0.5 0.3-1.1 0.5-0.6 0.2-1.2 0.3-0.6 0.1-1.2 0.1-1.3 0-2.5-0.5-1.3-0.5-2.2-1.4-0.9-1-1.4-2.2-0.5-1.2-0.4-2.5-0.1-1.3 0.4-2.5 0.4-1.2 1.3-2.2 0.9-0.9 2-1.4 1.2-0.5 2.5-0.5 1.2-0.1 2.4 0.4 1.1 0.5 2 1.4 0.8 0.9 1.2 2 0.5 1.2 0.4 2.4 0 0.3-0.1 0.5-0.1 0.3-0.3 0.5-0.2 0.2-0.4 0.3-0.3 0.1-0.5 0.1h-8q0 0.7 0.3 1.3 0.3 0.6 0.8 1 0.6 0.5 1.2 0.7 0.6 0.3 1.3 0.2 0.4 0 0.8 0 0.4-0.1 0.8-0.2 0.4-0.2 0.7-0.4 0.4-0.2 0.7-0.5 0.1 0 0.2-0.1 0.1 0 0.2-0.1 0 0 0.1 0 0.1 0 0.2 0 0.3 0 0.5 0 0.2 0.1 0.4 0.3 0.1 0.2 0.2 0.4 0.1 0.2 0.1 0.4 0 0.2 0 0.3 0 0.1-0.1 0.2 0 0.1-0.1 0.2-0.1 0.1-0.2 0.2-0.4 0.4-1 0.8zm-0.7-6.6c-0.2-1.9-1.4-3.4-3.2-3.4-1.8 0-3 1.4-3.3 3.4z"/>
		<path id="Layer" class="s0" d="m168.5 16.8c0.1 0.4 0.2 0.7 0.5 1 0.3 0.2 0.6 0.3 1 0.3 0.4 0 0.7-0.1 1-0.3 0.3-0.3 0.4-0.6 0.5-1v-10.1q0-0.2-0.1-0.5-0.2-0.3-0.4-0.5-0.2-0.2-0.4-0.3-0.3-0.1-0.6-0.1-0.3 0-0.6 0.1-0.2 0.1-0.4 0.3-0.2 0.2-0.3 0.5-0.2 0.3-0.2 0.5zm-0.2-14.6c0.1 0.4 0.3 0.8 0.6 1 0.3 0.3 0.7 0.4 1.1 0.4 0.4 0 0.8-0.1 1.1-0.4 0.3-0.2 0.5-0.6 0.6-1v-0.1c-0.1-0.4-0.3-0.8-0.6-1.1-0.3-0.2-0.7-0.4-1.1-0.4-0.4 0-0.8 0.2-1.1 0.4-0.3 0.3-0.5 0.7-0.6 1.1z"/>
		<path id="Layer" class="s0" d="m179.3 18.3q0.2 0 0.5 0 0.2 0 0.5 0 0.2-0.1 0.5-0.1 0.2-0.1 0.5-0.2 0.4-0.2 0.6-0.5 0.2-0.4 0.1-0.9-0.1-0.4-0.4-0.7-0.4-0.2-0.8-0.2-0.1 0-0.2 0-0.1 0-0.1 0-0.1 0-0.2 0-0.1 0-0.2 0-0.3 0.1-0.6 0-0.4-0.1-0.6-0.4-0.2-0.2-0.3-0.5-0.1-0.3-0.1-0.7v-6.2h2.3c0.3 0 0.7-0.1 0.9-0.3 0.2-0.3 0.4-0.6 0.4-0.9 0-0.4-0.2-0.7-0.4-0.9-0.2-0.2-0.6-0.4-0.9-0.4h-2.3v-2.1c0-0.4-0.2-0.7-0.4-1-0.3-0.2-0.7-0.4-1-0.4-0.4 0-0.7 0.2-1 0.4-0.3 0.3-0.4 0.6-0.5 1v2.1h-0.5c-0.3 0-0.6 0.2-0.8 0.4-0.3 0.2-0.4 0.5-0.4 0.9 0 0.3 0.1 0.6 0.4 0.9 0.2 0.2 0.5 0.3 0.8 0.3h0.5v6.7c0 2.8 1.5 3.7 3.7 3.7z"/>
		<path id="Layer" class="s0" d="m184.6 16.8c0.1 0.4 0.2 0.7 0.5 1 0.3 0.2 0.6 0.3 1 0.3 0.3 0 0.7-0.1 1-0.3 0.2-0.3 0.4-0.6 0.4-1v-10.1q0-0.2-0.1-0.5-0.1-0.3-0.3-0.5-0.2-0.2-0.5-0.3-0.2-0.1-0.5-0.1-0.3 0-0.6 0.1-0.3 0.1-0.5 0.3-0.2 0.2-0.3 0.5-0.1 0.3-0.1 0.5zm-0.2-14.6c0.1 0.4 0.3 0.8 0.6 1 0.3 0.3 0.7 0.4 1.1 0.4 0.4 0 0.8-0.1 1.1-0.4 0.3-0.2 0.5-0.6 0.5-1v-0.1c0-0.4-0.2-0.8-0.5-1.1-0.3-0.2-0.7-0.4-1.1-0.4-0.4 0-0.8 0.2-1.1 0.4-0.3 0.3-0.5 0.7-0.6 1.1z"/>
		<path id="Layer" class="s0" d="m195.3 18.3q0.3 0 0.5 0 0.3 0 0.6 0 0.2-0.1 0.5-0.1 0.2-0.1 0.4-0.2 0.4-0.2 0.6-0.5 0.2-0.4 0.2-0.9-0.1-0.4-0.5-0.7-0.3-0.2-0.7-0.2-0.1 0-0.2 0-0.1 0-0.2 0-0.1 0-0.2 0 0 0-0.1 0-0.4 0.1-0.7 0-0.3-0.1-0.5-0.4-0.3-0.2-0.4-0.5-0.1-0.3 0-0.7v-6.2h2.3q0.5 0 0.9-0.3 0.3-0.4 0.3-0.9 0-0.6-0.3-0.9c-0.3-0.2-0.6-0.4-0.9-0.4h-2.3v-2.1c0-0.4-0.2-0.7-0.5-1-0.2-0.2-0.6-0.4-0.9-0.4-0.4 0-0.8 0.2-1 0.4-0.3 0.3-0.5 0.6-0.5 1v2.1h-0.5c-0.3 0-0.6 0.2-0.9 0.4q-0.3 0.3-0.3 0.9 0 0.5 0.3 0.9 0.5 0.3 0.9 0.3h0.5v6.7c0 2.8 1.5 3.7 3.6 3.7z"/>
		<path id="Layer" class="s0" d="m208.1 2.1c0.1 0.4 0.3 0.8 0.6 1.1 0.3 0.2 0.7 0.4 1.1 0.4 0.4 0 0.8-0.2 1.1-0.4 0.3-0.3 0.5-0.7 0.6-1.1v-0.1c-0.1-0.4-0.3-0.7-0.6-1-0.3-0.3-0.7-0.4-1.1-0.4-0.4 0-0.8 0.1-1.1 0.4-0.3 0.3-0.5 0.6-0.6 1zm-0.3 19.9c2.1 0 3.5-1.2 3.5-3.8v-11.5q0-0.3-0.1-0.6-0.2-0.2-0.4-0.4-0.2-0.2-0.4-0.4-0.3-0.1-0.6-0.1-0.3 0-0.6 0.1-0.2 0.2-0.4 0.4-0.2 0.2-0.3 0.4-0.1 0.3-0.1 0.6v11.6c0 1-0.5 1.3-1.1 1.3h-0.2q-0.2 0-0.4 0.1-0.3 0.1-0.4 0.3-0.2 0.1-0.3 0.4-0.1 0.2-0.1 0.4c0 0.8 0.7 1.2 1.6 1.2z"/>
		<path id="Layer" fill-rule="evenodd" class="s0" d="m214.1 14.5v-0.1c0-2.7 2.2-4.1 5.3-4.1q0.4 0 0.8 0.1 0.5 0 0.9 0.1 0.4 0 0.8 0.1 0.5 0.1 0.9 0.3v-0.4c0-1.7-1.1-2.7-3.2-2.7q-0.3 0-0.7 0-0.4 0-0.7 0.1-0.4 0.1-0.7 0.2-0.4 0.1-0.7 0.2 0 0-0.1 0-0.1 0-0.1 0-0.1 0.1-0.1 0.1-0.1 0-0.2 0-0.2 0-0.4-0.1-0.2-0.1-0.4-0.3-0.2-0.2-0.3-0.4-0.1-0.2-0.1-0.4 0-0.2 0.1-0.4 0-0.2 0.2-0.3 0.1-0.2 0.2-0.3 0.1-0.1 0.3-0.2 0.5-0.2 1-0.3 0.5-0.2 1-0.3 0.5-0.1 1.1-0.1 0.5 0 1 0 0.6-0.1 1.1 0 0.6 0.1 1.2 0.2 0.5 0.2 1 0.5 0.5 0.3 0.9 0.7 0.4 0.4 0.7 0.8 0.2 0.5 0.4 1 0.2 0.5 0.3 1 0 0.6 0 1.1v6.2q0 0.3-0.1 0.6-0.1 0.2-0.3 0.4-0.2 0.2-0.5 0.3-0.2 0.1-0.5 0.1-0.3 0.1-0.5 0-0.3-0.1-0.5-0.3-0.2-0.1-0.3-0.4-0.1-0.2-0.2-0.5v-0.5q-0.3 0.5-0.8 0.8-0.5 0.4-1 0.6-0.5 0.3-1.1 0.4-0.6 0.1-1.2 0.1c-2.4 0-4.5-1.4-4.5-3.9zm8.7-0.9v-0.9q-0.3-0.1-0.7-0.2-0.3-0.1-0.7-0.2-0.3-0.1-0.7-0.1-0.4 0-0.7 0c-1.9 0-3 0.8-3 2.1v0.1c0 1.2 1 1.9 2.4 1.9 2 0 3.4-1.2 3.4-2.7z"/>
		<path id="Layer" fill-rule="evenodd" class="s0" d="m235.4 14.5v-0.1c0-2.7 2.2-4.1 5.3-4.1q0.4 0 0.8 0.1 0.5 0 0.9 0.1 0.4 0 0.8 0.1 0.5 0.1 0.9 0.3v-0.4c0-1.7-1.2-2.7-3.2-2.7q-0.3 0-0.7 0-0.3 0-0.7 0.1-0.4 0.1-0.7 0.2-0.3 0.1-0.7 0.2 0 0-0.1 0 0 0-0.1 0-0.1 0.1-0.1 0.1-0.1 0-0.1 0-0.3 0-0.5-0.1-0.2-0.1-0.4-0.3-0.2-0.2-0.3-0.4-0.1-0.2-0.1-0.4 0-0.2 0.1-0.4 0.1-0.2 0.2-0.3 0.1-0.2 0.2-0.3 0.2-0.1 0.3-0.2 0.5-0.2 1-0.3 0.5-0.2 1-0.3 0.6-0.1 1.1-0.1 0.5 0 1 0 0.6-0.1 1.2 0 0.5 0.1 1.1 0.2 0.5 0.2 1 0.5 0.5 0.3 0.9 0.7 0.4 0.4 0.7 0.8 0.2 0.5 0.4 1 0.2 0.5 0.3 1 0 0.6 0 1.1v6.2q0 0.3-0.1 0.6-0.1 0.3-0.3 0.5-0.2 0.2-0.5 0.3-0.3 0.1-0.6 0-0.2 0.1-0.5 0-0.2-0.1-0.4-0.3-0.2-0.1-0.3-0.4-0.2-0.2-0.2-0.5v-0.5q-0.3 0.5-0.8 0.8-0.5 0.4-1 0.6-0.6 0.3-1.1 0.4-0.6 0.1-1.2 0.1c-2.4 0-4.5-1.4-4.5-3.9zm8.8-0.9v-0.9q-0.4-0.1-0.7-0.2-0.4-0.1-0.8-0.2-0.3-0.1-0.7-0.1-0.4 0-0.7 0c-1.9 0-3 0.8-3 2.1v0.1c0 1.2 1.1 1.9 2.4 1.9 2 0 3.4-1.2 3.5-2.7z"/>
		<path id="Layer" class="s0" d="m250.4 16.8c0.1 0.4 0.2 0.7 0.5 1 0.3 0.2 0.6 0.3 1 0.3 0.4 0 0.7-0.1 1-0.3 0.3-0.3 0.4-0.6 0.4-1v-10.1q0.1-0.2-0.1-0.5-0.1-0.3-0.3-0.5-0.2-0.2-0.4-0.3-0.3-0.1-0.6-0.1-0.3 0-0.6 0.1-0.2 0.1-0.4 0.3-0.2 0.2-0.3 0.5-0.2 0.3-0.2 0.6zm-0.2-14.7c0.1 0.4 0.3 0.8 0.6 1 0.3 0.3 0.7 0.4 1.1 0.4 0.4 0 0.8-0.1 1.1-0.4 0.3-0.2 0.5-0.6 0.5-1v-0.1c0-0.4-0.2-0.8-0.5-1.1-0.3-0.2-0.7-0.4-1.1-0.4-0.4 0-0.8 0.2-1.1 0.4-0.3 0.3-0.5 0.7-0.6 1.1z"/>
		<path id="Layer" class="s0" d="m257 16.8c0 0.4 0.2 0.8 0.5 1 0.2 0.3 0.6 0.4 1 0.4 0.4 0 0.7-0.1 1-0.4 0.3-0.2 0.4-0.6 0.4-1v-2.2l2-1.8 3.6 4.8q0.1 0.2 0.3 0.3 0.1 0.1 0.3 0.2 0.1 0.1 0.3 0.1 0.2 0 0.4 0 0.3 0.1 0.5 0 0.3-0.1 0.5-0.3 0.2-0.2 0.3-0.5 0.1-0.2 0.1-0.5 0-0.1-0.1-0.3 0-0.1 0-0.2-0.1-0.1-0.2-0.3 0-0.1-0.1-0.2l-3.9-5 3.4-3.1q0.1-0.1 0.2-0.2 0.2-0.2 0.2-0.3 0.1-0.2 0.1-0.4 0.1-0.1 0.1-0.3 0-0.3-0.1-0.5-0.1-0.2-0.3-0.4-0.2-0.2-0.4-0.3-0.2-0.1-0.5-0.1-0.2 0-0.3 0-0.2 0.1-0.4 0.2-0.1 0-0.3 0.2-0.1 0.1-0.2 0.2l-5.5 5.4v-9.4q0-0.3-0.1-0.6-0.1-0.2-0.3-0.4-0.2-0.2-0.5-0.3-0.3-0.2-0.6-0.1-0.2-0.1-0.5 0.1-0.3 0.1-0.5 0.3-0.2 0.2-0.3 0.4-0.1 0.3-0.1 0.6z"/>
		<path id="Layer" fill-rule="evenodd" class="s0" d="m270 14.5v-0.1c0-2.7 2.1-4.1 5.2-4.1q0.5 0 0.9 0.1 0.4 0 0.9 0.1 0.4 0 0.8 0.1 0.4 0.1 0.8 0.3v-0.4c0-1.7-1-2.7-3.1-2.7q-0.4 0-0.7 0-0.4 0-0.7 0.1-0.4 0.1-0.7 0.2-0.4 0.1-0.7 0.2-0.1 0-0.1 0-0.1 0-0.1 0-0.1 0.1-0.1 0.1-0.1 0-0.2 0-0.2 0-0.4-0.1-0.3-0.1-0.4-0.3-0.2-0.2-0.3-0.4-0.1-0.2-0.1-0.4 0-0.2 0.1-0.4 0-0.2 0.1-0.3 0.1-0.2 0.3-0.3 0.1-0.1 0.3-0.2 0.5-0.2 1-0.3 0.5-0.2 1-0.3 0.5-0.1 1-0.1 0.6 0 1.1 0 0.6-0.1 1.1 0 0.6 0.1 1.1 0.2 0.6 0.2 1.1 0.5 0.4 0.3 0.9 0.7 0.3 0.4 0.6 0.8 0.3 0.5 0.5 1 0.1 0.5 0.2 1 0.1 0.6 0 1.1v6.2q0 0.3-0.1 0.6-0.1 0.2-0.3 0.4-0.2 0.2-0.4 0.3-0.3 0.1-0.6 0.1-0.2 0.1-0.5 0-0.2-0.1-0.4-0.3-0.2-0.1-0.4-0.4-0.1-0.2-0.1-0.5v-0.5q-0.4 0.5-0.8 0.8-0.5 0.4-1.1 0.6-0.5 0.3-1.1 0.4-0.5 0.1-1.1 0.1c-2.4 0-4.5-1.4-4.5-3.9zm8.7-0.9v-0.9q-0.4-0.1-0.7-0.2-0.4-0.1-0.7-0.2-0.4-0.1-0.8-0.1-0.3 0-0.7 0c-1.9 0-3 0.8-3 2.1v0.1c0 1.2 1.1 1.9 2.5 1.9 1.9 0 3.4-1.2 3.4-2.7z"/>
		<path id="Layer" class="s0" d="m288.9 18.3q0.3 0 0.6 0 0.2 0 0.5 0 0.2-0.1 0.5-0.1 0.2-0.1 0.5-0.2 0.3-0.2 0.6-0.5 0.2-0.4 0.1-0.9-0.1-0.4-0.4-0.7-0.4-0.2-0.8-0.2-0.1 0-0.2 0-0.1 0-0.2 0-0.1 0-0.1 0-0.1 0-0.2 0-0.4 0.1-0.7 0-0.3-0.1-0.5-0.4-0.2-0.2-0.3-0.5-0.1-0.3-0.1-0.7v-6.2h2.3q0.5 0 0.9-0.3 0.3-0.4 0.3-0.9 0-0.6-0.3-0.9c-0.3-0.2-0.6-0.4-0.9-0.4h-2.3v-2.1c0-0.4-0.2-0.7-0.5-1-0.2-0.2-0.6-0.4-0.9-0.4-0.4 0-0.8 0.2-1 0.4-0.3 0.3-0.5 0.6-0.5 1v2.1h-0.5c-0.3 0-0.6 0.2-0.9 0.4q-0.3 0.3-0.3 0.9 0 0.5 0.3 0.9 0.5 0.3 0.9 0.3h0.5v6.7c0 2.8 1.5 3.7 3.7 3.7z"/>
		<path id="Layer" fill-rule="evenodd" class="s0" d="m298.1 18.4c-2.4 0-4.5-1.4-4.5-3.9v-0.1c0-2.7 2.1-4.1 5.2-4.1q0.5 0 0.9 0.1 0.4 0 0.9 0.1 0.4 0 0.8 0.1 0.4 0.1 0.8 0.3v-0.4c0-1.7-1.1-2.7-3.1-2.7q-0.4 0-0.7 0-0.4 0-0.7 0.1-0.4 0.1-0.7 0.2-0.4 0.1-0.7 0.2-0.1 0-0.1 0-0.1 0-0.2 0 0 0.1-0.1 0.1 0 0-0.1 0-0.2 0-0.4-0.1-0.3-0.1-0.4-0.3-0.2-0.2-0.3-0.4-0.1-0.2-0.1-0.4 0-0.2 0-0.4 0.1-0.2 0.2-0.3 0.1-0.2 0.3-0.3 0.1-0.1 0.3-0.2 0.5-0.2 1-0.3 0.5-0.2 1-0.3 0.5-0.1 1-0.1 0.5 0 1.1 0 0.5-0.1 1.1 0 0.6 0.1 1.1 0.2 0.6 0.2 1.1 0.5 0.5 0.3 0.9 0.7 0.3 0.4 0.6 0.8 0.3 0.5 0.5 1 0.1 0.5 0.2 1 0.1 0.6 0 1.1l0.1 6.2q-0.1 0.3-0.2 0.6-0.1 0.2-0.3 0.4-0.2 0.2-0.4 0.3-0.3 0.1-0.6 0.1-0.2 0.1-0.5 0-0.2-0.1-0.4-0.3-0.2-0.1-0.4-0.4-0.1-0.2-0.1-0.5v-0.5q-0.4 0.5-0.8 0.8-0.5 0.4-1 0.6-0.6 0.3-1.2 0.4-0.5 0.1-1.1 0.1zm4.2-4.8v-0.9q-0.3-0.1-0.7-0.2-0.3-0.1-0.7-0.2-0.4-0.1-0.7-0.1-0.4 0-0.8 0c-1.9 0-3 0.8-3 2.1v0.1c0 1.2 1.1 1.9 2.5 1.9 1.9 0 3.4-1.1 3.4-2.7z"/>
		<path id="Layer" class="s0" d="m319.8 6.8c0-0.5-0.1-0.9-0.4-1.2-0.3-0.3-0.7-0.4-1.1-0.4-0.4 0-0.8 0.1-1 0.4-0.3 0.3-0.5 0.7-0.4 1.2v5.8q0 0.6-0.1 1.2-0.2 0.6-0.6 1-0.5 0.5-1 0.7-0.6 0.2-1.2 0.2c-1.7 0-2.7-1.1-2.7-3.1v-5.8c0-0.5-0.1-0.9-0.4-1.2-0.3-0.3-0.7-0.4-1.1-0.4-0.4 0-0.8 0.1-1 0.4-0.3 0.3-0.5 0.7-0.4 1.2v6.7c0 3 1.6 4.9 4.5 4.9q0.6 0 1.2-0.2 0.6-0.1 1.1-0.4 0.5-0.3 1-0.7 0.4-0.4 0.7-1v0.7c0 0.4 0.2 0.7 0.5 1 0.2 0.2 0.6 0.3 1 0.3 0.3 0 0.7-0.1 1-0.3 0.2-0.3 0.4-0.6 0.4-1z"/>
		<path id="Layer" class="s0" d="m323.5 16.8c0.1 0.4 0.2 0.7 0.5 1 0.3 0.2 0.6 0.3 1 0.3 0.4 0 0.7-0.1 1-0.3 0.2-0.3 0.4-0.6 0.4-1v-14.9q0-0.3-0.1-0.6-0.1-0.2-0.3-0.4-0.2-0.2-0.5-0.3-0.2-0.2-0.5-0.1-0.3-0.1-0.6 0.1-0.2 0.1-0.4 0.3-0.2 0.2-0.4 0.4-0.1 0.3-0.1 0.6z"/>
		<path id="Layer" class="s0" d="m341.5 6.8c0-0.5-0.1-0.9-0.4-1.2-0.3-0.3-0.7-0.4-1.1-0.4-0.4 0-0.8 0.1-1.1 0.4-0.3 0.3-0.4 0.7-0.4 1.2v5.8q0.1 0.6-0.1 1.2-0.2 0.6-0.6 1-0.4 0.5-1 0.7-0.5 0.2-1.1 0.2c-1.8 0-2.8-1.1-2.8-3.1v-5.8c0.1-0.5-0.1-0.9-0.3-1.2-0.3-0.3-0.7-0.4-1.1-0.4-0.4 0-0.8 0.1-1.1 0.4-0.3 0.3-0.4 0.7-0.4 1.2v6.7c0 3 1.7 4.9 4.6 4.9q0.6 0 1.1-0.2 0.6-0.1 1.2-0.4 0.5-0.3 0.9-0.7 0.5-0.4 0.8-1v0.7c0 0.4 0.2 0.7 0.4 1 0.3 0.2 0.7 0.3 1 0.3 0.4 0 0.7-0.1 1-0.3 0.3-0.3 0.5-0.6 0.5-1z"/>
		<path id="Layer" class="s0" d="m349.2 18.3q0.3 0 0.5 0 0.3 0 0.6 0 0.2-0.1 0.5-0.1 0.2-0.1 0.4-0.2 0.2-0.1 0.4-0.2 0.1-0.1 0.2-0.2 0.1-0.2 0.2-0.4 0-0.1 0-0.3 0-0.3-0.1-0.5-0.1-0.2-0.3-0.4-0.1-0.1-0.3-0.2-0.3-0.1-0.5-0.1c-0.1 0-0.4 0-0.7 0q-0.4 0.1-0.7 0-0.3-0.1-0.5-0.3-0.3-0.3-0.4-0.6-0.1-0.3 0-0.6v-6.3h2.3q0.5 0 0.9-0.3 0.3-0.4 0.3-0.9 0-0.6-0.3-0.9c-0.3-0.2-0.6-0.4-0.9-0.4h-2.3v-2.1c0-0.4-0.2-0.8-0.4-1.1-0.3-0.2-0.7-0.4-1.1-0.4-0.3 0-0.7 0.2-1 0.4-0.3 0.3-0.4 0.7-0.4 1.1v2.1h-0.5c-0.3 0-0.6 0.2-0.9 0.4q-0.3 0.3-0.3 0.9 0 0.5 0.3 0.9 0.5 0.3 0.9 0.3h0.5v6.7c0 2.8 1.5 3.7 3.6 3.7z"/>
		<g id="Layer">
			<path id="Layer" class="s0" d="m136.4 82.9c0 0.3 0.1 0.6 0.3 0.8 0.2 0.2 0.5 0.3 0.7 0.3 0.3 0 0.6-0.1 0.8-0.3 0.2-0.2 0.3-0.5 0.3-0.8v-2.8c0-2.3 1.1-3.5 2.7-3.7q0.1-0.1 0.3-0.2 0.2 0 0.3-0.2 0.1-0.1 0.2-0.3 0-0.2 0-0.3 0-0.3 0-0.5-0.1-0.2-0.3-0.3-0.1-0.2-0.3-0.3-0.2 0-0.5 0-0.4 0-0.8 0.2-0.3 0.2-0.7 0.5-0.3 0.3-0.5 0.6-0.2 0.4-0.4 0.8v-1c0-0.3-0.1-0.6-0.3-0.8-0.2-0.2-0.5-0.3-0.8-0.3-0.2 0-0.5 0.1-0.7 0.3-0.2 0.2-0.3 0.5-0.3 0.8z"/>
			<path id="Layer" fill-rule="evenodd" class="s0" d="m150.5 83.4q-0.4 0.3-0.8 0.4-0.4 0.2-0.9 0.3-0.4 0.1-0.9 0-1 0.1-1.9-0.3-1-0.3-1.7-1.1-0.7-0.7-1-1.6-0.4-0.9-0.3-1.9-0.1-1 0.2-1.9 0.4-0.9 1-1.6 0.7-0.7 1.6-1.1 0.8-0.4 1.8-0.4 0.9-0.1 1.8 0.3 0.9 0.4 1.5 1 0.6 0.7 1 1.6 0.3 0.9 0.2 1.8 0 0.2 0 0.4-0.1 0.2-0.3 0.3-0.1 0.1-0.3 0.2-0.2 0.1-0.4 0.1h-6q0.1 0.5 0.3 1 0.3 0.4 0.6 0.8 0.4 0.3 0.9 0.5 0.5 0.1 1 0.1 0.3 0 0.6 0 0.3-0.1 0.6-0.2 0.3-0.1 0.5-0.3 0.3-0.1 0.5-0.3 0.1-0.1 0.2-0.1 0 0 0.1-0.1 0.1 0 0.1 0 0.1 0 0.2 0 0.2 0 0.3 0 0.2 0.1 0.3 0.2 0.1 0.2 0.2 0.3 0.1 0.2 0.1 0.4 0 0.1-0.1 0.2 0 0 0 0.1-0.1 0.1-0.1 0.2-0.1 0.1-0.1 0.1-0.4 0.4-0.8 0.6zm-0.5-5q0-0.4-0.2-0.9-0.1-0.4-0.5-0.8-0.3-0.3-0.8-0.5-0.4-0.2-0.9-0.3-0.5 0.1-0.9 0.3-0.5 0.2-0.8 0.5-0.4 0.4-0.6 0.8-0.2 0.5-0.2 0.9z"/>
			<path id="Layer" class="s0" d="m154.4 82.9c0 0.3 0.1 0.6 0.3 0.8 0.2 0.2 0.5 0.3 0.8 0.3 0.3 0 0.6-0.1 0.8-0.3 0.2-0.2 0.3-0.5 0.3-0.8v-7.5c0-0.3-0.1-0.6-0.3-0.8-0.2-0.2-0.5-0.3-0.8-0.3-0.3 0-0.6 0.1-0.8 0.3-0.2 0.2-0.3 0.5-0.3 0.8zm-0.2-11q0.1 0.4 0.5 0.7 0.3 0.3 0.8 0.3 0.5 0 0.8-0.3 0.4-0.3 0.4-0.7v-0.2q0-0.4-0.4-0.7-0.3-0.3-0.8-0.3-0.5 0-0.8 0.3-0.4 0.3-0.5 0.7z"/>
			<path id="Layer" class="s0" d="m162.5 84q0.2 0 0.4 0 0.2 0 0.4 0 0.1-0.1 0.3-0.1 0.2 0 0.4-0.1 0.1-0.1 0.2-0.1 0.1-0.1 0.2-0.2 0.1-0.2 0.1-0.3 0.1-0.1 0.1-0.3 0-0.1-0.1-0.3-0.1-0.2-0.2-0.3-0.1-0.1-0.3-0.2-0.2-0.1-0.3-0.1-0.1 0.1-0.2 0.1-0.1 0-0.1 0-0.1 0-0.2 0 0 0-0.1 0-0.2 0-0.5 0-0.2-0.1-0.4-0.3-0.2-0.2-0.2-0.4-0.1-0.2-0.1-0.5v-4.7h1.8c0.2 0.1 0.5 0 0.7-0.2 0.2-0.2 0.3-0.4 0.3-0.7 0-0.3-0.1-0.5-0.3-0.7-0.2-0.2-0.5-0.3-0.7-0.2h-1.8v-1.7c0-0.2-0.1-0.5-0.3-0.7-0.2-0.2-0.5-0.3-0.7-0.3-0.3 0-0.6 0.1-0.8 0.3-0.2 0.2-0.3 0.5-0.3 0.7v1.7h-0.4q-0.4 0-0.6 0.3-0.2 0.2-0.3 0.6 0.1 0.4 0.3 0.6 0.2 0.3 0.6 0.3h0.4v5c0 2.1 1.1 2.8 2.7 2.8z"/>
			<path id="Layer" class="s0" d="m170.1 84q0.2 0 0.4 0 0.1 0 0.3 0 0.2-0.1 0.4-0.1 0.2 0 0.4-0.1 0.1-0.1 0.2-0.2 0.1 0 0.2-0.2 0.1-0.1 0.1-0.2 0-0.1 0-0.3 0-0.1 0-0.3-0.1-0.2-0.2-0.3-0.2-0.1-0.3-0.2-0.2-0.1-0.4-0.1 0 0.1-0.1 0.1-0.1 0-0.1 0-0.1 0-0.2 0-0.1 0-0.1 0-0.3 0-0.5 0-0.2-0.1-0.4-0.3-0.2-0.2-0.3-0.4 0-0.2 0-0.5v-4.7h1.7c0.3 0.1 0.5 0 0.7-0.2 0.2-0.2 0.4-0.4 0.4-0.7 0-0.3-0.2-0.5-0.4-0.7-0.2-0.2-0.4-0.3-0.7-0.2h-1.7v-1.7c0-0.2-0.1-0.5-0.3-0.7-0.2-0.2-0.5-0.3-0.8-0.3-0.3 0-0.5 0.1-0.8 0.3-0.2 0.2-0.3 0.5-0.3 0.7v1.7h-0.3c-0.3-0.1-0.6 0-0.8 0.2-0.2 0.2-0.3 0.4-0.3 0.7 0 0.3 0.1 0.5 0.3 0.7 0.2 0.2 0.5 0.3 0.8 0.2h0.3v5c0 2.1 1.2 2.8 2.8 2.8z"/>
			<path id="Layer" class="s0" d="m174.1 82.9q0 0.2 0.1 0.4 0.1 0.2 0.2 0.4 0.2 0.1 0.4 0.2 0.2 0.1 0.4 0.1 0.2 0 0.4-0.1 0.2-0.1 0.4-0.2 0.1-0.2 0.2-0.4 0.1-0.2 0.1-0.4v-7.5q0-0.3-0.1-0.5-0.1-0.2-0.2-0.3-0.2-0.2-0.4-0.3-0.2 0-0.4 0-0.2 0-0.4 0-0.2 0.1-0.4 0.3-0.1 0.1-0.2 0.3-0.1 0.2-0.1 0.5zm-0.2-11q0.1 0.4 0.5 0.7 0.3 0.3 0.8 0.3 0.5 0 0.8-0.3 0.4-0.3 0.4-0.7v-0.2q0-0.4-0.4-0.7-0.3-0.3-0.8-0.3-0.5 0-0.8 0.3-0.4 0.3-0.5 0.7z"/>
			<path id="Layer" fill-rule="evenodd" class="s0" d="m183.6 84.2q-1 0-2-0.4-0.9-0.4-1.6-1.1-0.7-0.7-1.1-1.7-0.4-0.9-0.3-1.9c0-1.3 0.6-2.6 1.5-3.5 1-0.9 2.2-1.4 3.5-1.4 1.4 0 2.6 0.5 3.6 1.4 0.9 0.9 1.5 2.2 1.5 3.5q0 1-0.4 1.9-0.4 0.9-1.1 1.6-0.7 0.7-1.6 1.1-1 0.4-2 0.4zm1.2-2.3q0.5-0.2 0.9-0.6 0.5-0.4 0.7-1 0.2-0.5 0.1-1.1 0-0.6-0.2-1.2-0.2-0.5-0.6-1-0.4-0.4-0.9-0.6-0.6-0.3-1.2-0.3-0.6 0-1.1 0.2-0.6 0.3-1 0.7-0.4 0.4-0.6 1-0.2 0.5-0.2 1.1 0 0.6 0.2 1.2 0.2 0.5 0.7 0.9 0.4 0.5 0.9 0.7 0.6 0.3 1.1 0.3 0.6 0 1.2-0.3z"/>
			<path id="Layer" fill-rule="evenodd" class="s0" d="m190.9 75.4c0-0.3 0.1-0.6 0.3-0.8 0.2-0.2 0.5-0.3 0.8-0.3 0.3 0 0.5 0.1 0.8 0.3 0.2 0.2 0.3 0.5 0.3 0.8v0.6q0.2-0.4 0.6-0.8 0.3-0.3 0.8-0.5 0.4-0.3 0.9-0.4 0.4-0.1 0.9-0.1c2.2 0 4.4 1.8 4.4 4.9 0 3.2-2.1 5-4.4 5q-0.5 0-0.9-0.1-0.5-0.1-0.9-0.4-0.4-0.2-0.8-0.5-0.4-0.3-0.6-0.7v3.4c0 0.3-0.1 0.5-0.3 0.8-0.3 0.2-0.5 0.3-0.8 0.3-0.3 0-0.6-0.1-0.8-0.3-0.2-0.3-0.3-0.5-0.3-0.8zm6.1 6.5q0.5-0.3 0.9-0.7 0.3-0.4 0.5-1 0.2-0.5 0.2-1.1 0-0.5-0.2-1.1-0.2-0.5-0.6-0.9-0.4-0.5-0.9-0.7-0.5-0.2-1.1-0.3-0.5 0.1-1.1 0.3-0.5 0.2-0.9 0.7-0.4 0.4-0.6 0.9-0.2 0.6-0.1 1.1-0.1 0.6 0.1 1.2 0.2 0.5 0.6 0.9 0.4 0.5 1 0.7 0.5 0.2 1.1 0.2 0.6 0 1.1-0.2z"/>
			<path id="Layer" fill-rule="evenodd" class="s0" d="m202.4 81.2c0-2.1 1.6-3.1 3.9-3.1q0.3 0 0.7 0 0.3 0 0.6 0.1 0.3 0 0.6 0.1 0.4 0.1 0.7 0.2v-0.2c0-1.4-0.9-2.1-2.4-2.1q-0.3 0-0.5 0-0.3 0-0.6 0.1-0.2 0-0.5 0.1-0.2 0.1-0.5 0.2 0 0-0.1 0 0 0-0.1 0 0 0-0.1 0-0.2 0-0.4-0.1-0.2-0.1-0.3-0.2-0.1-0.1-0.2-0.3-0.1-0.2-0.1-0.3 0-0.2 0.1-0.3 0-0.1 0.1-0.3 0.1-0.1 0.2-0.2 0.1-0.1 0.2-0.1 0.4-0.2 0.8-0.3 0.4-0.1 0.7-0.1 0.4-0.1 0.8-0.1 0.4-0.1 0.8-0.1 0.4 0 0.9 0.1 0.4 0 0.8 0.1 0.4 0.2 0.8 0.4 0.3 0.2 0.6 0.5 0.3 0.3 0.5 0.6 0.2 0.4 0.4 0.8 0.1 0.3 0.1 0.7 0.1 0.4 0 0.8c0 0.1 0 5.1 0 5.2q-0.1 0.2-0.3 0.3-0.1 0.1-0.3 0.2-0.2 0.1-0.4 0.1-0.2 0-0.4-0.1-0.2 0-0.3-0.2-0.2-0.1-0.3-0.3-0.1-0.2-0.1-0.3v-0.4q-0.3 0.3-0.6 0.6-0.4 0.3-0.8 0.4-0.4 0.2-0.8 0.3-0.4 0.1-0.9 0.1c-1.8 0-3.4-1-3.3-2.9zm6.5-0.7v-0.6q-0.3-0.1-0.5-0.2-0.3-0.1-0.6-0.1-0.3-0.1-0.5-0.1-0.3 0-0.6 0c-1.4 0-2.2 0.6-2.2 1.6 0 0.9 0.8 1.4 1.8 1.4 1.5 0 2.6-0.8 2.6-2z"/>
			<path id="Layer" class="s0" d="m216.9 84.1c2 0 3.5-1 3.5-3 0-1.7-1.6-2.4-3-2.8-1.1-0.4-2.1-0.7-2.1-1.4 0-0.5 0.5-0.9 1.3-0.9q0.3 0 0.6 0.1 0.3 0 0.6 0.1 0.2 0.1 0.5 0.2 0.3 0.1 0.6 0.2 0 0.1 0.1 0.1 0 0 0.1 0 0 0 0.1 0 0 0.1 0.1 0.1 0.2 0 0.3-0.1 0.2-0.1 0.3-0.2 0.1-0.1 0.2-0.3 0.1-0.2 0.1-0.3 0-0.2-0.1-0.3 0-0.1-0.1-0.2 0-0.1-0.1-0.2-0.1-0.1-0.2-0.2-0.4-0.2-0.8-0.3-0.3-0.1-0.7-0.2-0.4-0.1-0.8-0.2-0.3 0-0.7 0c-1.9 0-3.4 1.1-3.4 2.9 0 1.8 1.5 2.4 3 2.8 1.1 0.3 2.1 0.6 2.1 1.3 0 0.6-0.5 1-1.5 1q-0.3 0-0.7-0.1-0.4-0.1-0.7-0.2-0.4-0.1-0.7-0.3-0.3-0.1-0.6-0.3-0.1-0.1-0.1-0.1-0.1 0-0.1 0-0.1 0-0.2 0 0-0.1-0.1-0.1-0.2 0.1-0.3 0.1-0.2 0.1-0.3 0.2-0.1 0.2-0.2 0.3 0 0.2 0 0.4 0 0.1 0 0.2 0 0.1 0.1 0.2 0 0.1 0.1 0.2 0.1 0.1 0.2 0.1 0.4 0.3 0.8 0.5 0.5 0.2 0.9 0.3 0.5 0.2 0.9 0.3 0.5 0.1 1 0.1z"/>
			<path id="Layer" class="s0" d="m222.6 82.6v0.1c0 0.4 0.2 0.7 0.4 0.9 0.2 0.3 0.6 0.4 0.9 0.4 0.3 0 0.6-0.1 0.9-0.4 0.2-0.2 0.4-0.5 0.4-0.9v-0.1c0-0.4-0.2-0.7-0.4-0.9-0.3-0.3-0.6-0.4-0.9-0.4-0.3 0-0.7 0.1-0.9 0.4-0.2 0.2-0.4 0.5-0.4 0.9z"/>
			<path id="Layer" class="s0" d="m228 82.9q0 0.4 0.3 0.7 0.4 0.3 0.8 0.3 0.4 0 0.7-0.3 0.3-0.3 0.4-0.7v-6.7h1.6q0.4 0 0.7-0.2 0.2-0.3 0.2-0.7 0-0.3-0.2-0.6-0.3-0.3-0.7-0.3h-1.7v-0.5c0-1 0.5-1.4 1.3-1.4q0 0 0.1 0 0.1 0 0.1 0 0.1 0 0.1 0 0.1 0 0.1 0 0.4 0 0.6-0.3 0.3-0.2 0.3-0.6 0-0.3-0.2-0.6-0.2-0.3-0.5-0.3-0.1-0.1-0.3-0.1-0.1 0-0.2 0-0.2 0-0.3 0-0.2 0-0.3 0-0.3 0-0.6 0-0.3 0-0.5 0.1-0.3 0.1-0.6 0.3-0.2 0.1-0.4 0.3-0.2 0.3-0.4 0.5-0.2 0.3-0.3 0.6-0.1 0.3-0.1 0.6 0 0.4 0 0.7v0.7h-0.4q-0.2 0-0.3 0.1-0.2 0-0.3 0.1-0.2 0.2-0.2 0.3-0.1 0.2-0.1 0.4 0 0.2 0.1 0.3 0 0.2 0.2 0.3 0.1 0.2 0.3 0.2 0.1 0.1 0.3 0.1h0.4zm6.4 0c0 0.3 0.1 0.6 0.3 0.8 0.2 0.2 0.5 0.3 0.8 0.3 0.3 0 0.6-0.1 0.8-0.3 0.2-0.2 0.3-0.5 0.3-0.8v-7.5c0-0.3-0.1-0.6-0.3-0.8-0.2-0.2-0.5-0.3-0.8-0.3-0.3 0-0.6 0.1-0.8 0.3-0.2 0.2-0.3 0.5-0.3 0.8zm-0.2-11q0.1 0.4 0.5 0.7 0.3 0.3 0.8 0.3 0.4 0 0.8-0.3 0.4-0.3 0.4-0.7v-0.1q0-0.5-0.4-0.8-0.4-0.3-0.8-0.3-0.5 0-0.8 0.3-0.4 0.3-0.5 0.8z"/>
		</g>
		<path id="Layer" fill-rule="evenodd" class="s0" d="m89.3 130.7c0 2.1-0.4 4.2-1 6.2-0.7 2-1.7 3.9-3 5.5-1.3 1.7-2.9 3.2-4.7 4.3-1.7 1.2-3.7 2.1-5.7 2.6q-1-0.8-2.1-1.2-1.2-0.4-2.4-0.4-1.2 0-2.4 0.5-1.1 0.4-2 1.2c-3.1-0.7-5.9-2.1-8.2-4.1-2.4-2-4.3-4.5-5.4-7.4-1.2-2.9-1.6-6-1.3-9.1 0.3-3.1 1.4-6.1 3.1-8.6q1.4-0.3 2.8-0.9 1.4-0.6 2.5-1.5 1.2-1 2-2.2 0.9-1.2 1.4-2.6c3 3.6 11.2 7.5 21.6 7.2q0.2 0 0.4 0 0.2 0 0.4 0 0.2-0.1 0.4-0.1 0.2-0.1 0.4-0.1 0.8 1.2 1.4 2.4 0.6 1.3 1 2.7 0.5 1.4 0.7 2.8 0.2 1.4 0.2 2.8m-13.8 8.9q-0.1-0.1-0.2-0.2-0.2-0.1-0.4-0.1-0.2 0-0.4 0.1-0.1 0.1-0.3 0.2-0.8 0.8-1.9 1.3-1.1 0.4-2.3 0.4-1.1 0-2.2-0.4-1.1-0.5-2-1.3 0-0.1-0.1-0.1-0.1-0.1-0.2-0.1-0.1 0-0.1 0-0.1-0.1-0.2-0.1-0.1 0-0.2 0.1-0.1 0-0.2 0-0.1 0-0.1 0.1-0.1 0-0.2 0.1-0.1 0.1-0.2 0.3-0.1 0.2-0.1 0.4 0 0.1 0.1 0.3 0.1 0.2 0.2 0.3 1.1 1.1 2.6 1.7 1.4 0.6 2.9 0.6 1.6 0 3-0.6 1.4-0.6 2.5-1.7 0.2-0.1 0.3-0.3 0-0.2 0-0.3 0-0.2 0-0.4-0.1-0.2-0.3-0.3zm-10.9-12.8c0-2.2-1-3.4-2.2-3.4-1.2 0-2.2 1.2-2.2 3.4 0 2.1 1 3.3 2.2 3.3 1.2 0 2.2-1.2 2.2-3.3zm15.3 0c0-2.2-1-3.4-2.2-3.4-1.2 0-2.2 1.2-2.2 3.4 0 2.1 1 3.3 2.2 3.3 1.2 0 2.2-1.2 2.2-3.3zm14.7-5.3q3.7 0 3.7 3.7v7.9q0 0.5-0.2 1.1-0.1 0.6-0.5 1.1-0.3 0.4-0.8 0.8-0.5 0.3-1.1 0.4-0.8 3.5-2.5 6.5-1.7 3.1-4.2 5.7-2.4 2.5-5.5 4.3-3 1.8-6.4 2.8 0.1-0.2 0.1-0.3 0-0.2 0-0.4 0-0.1 0-0.3 0-0.2 0.1-0.3-0.1-0.2-0.1-0.5 0-0.2 0-0.4 0-0.2-0.1-0.4 0-0.2-0.1-0.4 2.9-0.8 5.4-2.3 2.5-1.5 4.6-3.6 2-2.1 3.5-4.7 1.4-2.6 2.1-5.4h-1.3q0.5-1.9 0.7-3.9 0.2-1.9 0.1-3.9-0.1-1.9-0.7-3.8-0.5-1.9-1.3-3.7zm-20.1 33q0 4-4 4-4 0-4-4 0-4 4-4 4 0 4 4zm-25.7-17.7h-3.4q-3.6 0-3.6-3.6v-8q0-3.7 3.6-3.7h4.5q-0.8 1.8-1.3 3.7-0.5 1.9-0.7 3.9-0.1 1.9 0.1 3.9 0.2 1.9 0.8 3.8z"/>
		<path id="Layer" fill-rule="evenodd" class="s0" d="m81.3 48.4l-3.1-1.3q0.3-0.6 0.5-1.3 0.2-0.6 0.3-1.3 0.1-0.7 0.1-1.4 0-0.7-0.1-1.4l3.4-0.3q0.1 0.8 0.1 1.7-0.1 0.9-0.2 1.8-0.1 0.9-0.4 1.8-0.2 0.8-0.5 1.7m-10.5 8.9l-0.8-3.2q0.8-0.2 1.6-0.6 0.8-0.3 1.5-0.7 0.8-0.4 1.4-1 0.7-0.5 1.3-1.1l2.5 2.2q-0.8 0.9-1.6 1.5-0.9 0.7-1.8 1.3-1 0.5-2 0.9-1 0.4-2.1 0.7zm-5.5 0.3q-1-0.1-1.9-0.3-1-0.3-1.9-0.6-0.9-0.4-1.8-0.9-0.8-0.4-1.6-1l2-2.7q0.6 0.5 1.3 0.8 0.6 0.4 1.3 0.7 0.7 0.3 1.5 0.4 0.7 0.2 1.5 0.3zm13.3-21.4q-0.2-1.2-0.2-2.3 0.1-1.2 0.5-2.3 0.3-1.1 1-2 0.6-1 1.5-1.7l2.5 2.3q-0.6 0.5-1 1.2-0.5 0.6-0.7 1.4-0.3 0.7-0.3 1.5-0.1 0.8 0 1.6zm15.6-7q-0.6-0.5-1.2-0.8-0.6-0.3-1.3-0.5-0.7-0.2-1.4-0.2-0.7 0-1.4 0.1-0.1 0-0.2 0-0.2 0-0.3 0-0.1 0.1-0.2 0.1-0.2 0-0.3 0l-0.7-3.2q0.1 0 0.3-0.1 0.2 0 0.4 0 0.2-0.1 0.3-0.1 0.2 0 0.4 0 1-0.2 2-0.1 1 0 2 0.3 1 0.3 1.9 0.7 0.9 0.5 1.7 1.1zm6-28.9q0.9 0 1.7 0.2 0.8 0.1 1.6 0.4 0.7 0.3 1.4 0.8 0.7 0.5 1.3 1 0.6 0.6 1.1 1.3 0.5 0.7 0.8 1.4 0.3 0.8 0.5 1.6 0.1 0.8 0.1 1.7c0 4.6-8.5 16.6-8.5 16.6 0 0-8.4-12-8.4-16.6q0-0.9 0.1-1.7 0.2-0.8 0.5-1.6 0.3-0.7 0.8-1.4 0.5-0.7 1.1-1.2 0.6-0.6 1.3-1.1 0.7-0.5 1.4-0.8 0.8-0.3 1.6-0.4 0.8-0.2 1.6-0.2zm3.9 8.3q0-3.6-3.7-3.7-3.7 0-3.8 3.7c0 2.5 1.2 3.7 3.7 3.7 2.5 0.1 3.8-1.2 3.8-3.7zm-48.8-0.1q1.4 0 2.8 0.3 1.4 0.2 2.7 0.7 1.3 0.6 2.5 1.4 1.2 0.7 2.2 1.8 1 0.9 1.8 2.1 0.8 1.2 1.4 2.5 0.5 1.3 0.8 2.7 0.3 1.3 0.3 2.8c0 7.8-14.5 28.4-14.5 28.4 0 0-14.5-20.6-14.5-28.4q0-1.4 0.3-2.8 0.3-1.4 0.8-2.7 0.6-1.3 1.4-2.5 0.8-1.1 1.8-2.1 1-1 2.2-1.8 1.2-0.8 2.5-1.3 1.3-0.6 2.7-0.8 1.4-0.3 2.8-0.2zm0 20.5q0.6 0 1.2-0.1 0.7-0.1 1.3-0.3 0.5-0.3 1.1-0.6 0.5-0.4 0.9-0.8c1.5-1.5 2.1-3.6 1.7-5.7-0.4-2-1.8-3.8-3.7-4.6-2-0.8-4.2-0.6-5.9 0.5-1.8 1.2-2.9 3.1-2.9 5.2q0 1.3 0.4 2.4 0.5 1.2 1.4 2.1 0.8 0.9 2 1.4 1.2 0.5 2.4 0.5zm45-28.7q0 0-0.1 0z"/>
		<path id="Layer" class="s1" d=""/>
		<path id="Layer" class="s0" d="m5 331.2q0.1 0.6-0.1 1.1-0.1 0.5-0.5 0.8-0.4 0.4-0.9 0.6-0.5 0.1-1 0.1c-0.7 0.1-1.4-0.2-2-0.6-0.5-0.5-0.8-1.2-0.8-1.9 0-0.8 0.3-1.5 0.8-1.9 0.6-0.5 1.3-0.7 2-0.6q0.5-0.1 1 0.1 0.5 0.1 0.9 0.5 0.4 0.3 0.5 0.8 0.2 0.5 0.1 1zm0-10q0.1 0.6-0.1 1.1-0.1 0.5-0.5 0.8-0.4 0.4-0.9 0.6-0.5 0.1-1 0.1c-0.7 0.1-1.4-0.2-2-0.6-0.5-0.5-0.8-1.2-0.8-1.9 0-0.8 0.3-1.5 0.8-1.9 0.6-0.5 1.3-0.7 2-0.6q0.5-0.1 1 0.1 0.5 0.1 0.9 0.5 0.4 0.4 0.5 0.9 0.2 0.5 0.1 1zm0-10q0.1 0.5-0.1 1-0.1 0.5-0.5 0.9-0.4 0.3-0.9 0.5-0.5 0.2-1 0.1c-0.7 0.1-1.4-0.1-2-0.6-0.5-0.5-0.8-1.2-0.8-1.9 0-0.7 0.3-1.4 0.8-1.9 0.6-0.5 1.3-0.7 2-0.6q0.5-0.1 1 0.1 0.6 0.2 0.9 0.5 0.4 0.4 0.6 0.9 0.1 0.5 0 1.1zm0-10q0.1 0.5-0.1 1-0.1 0.5-0.5 0.8-0.4 0.4-0.9 0.6-0.5 0.1-1 0.1c-0.7 0.1-1.4-0.2-2-0.6-0.5-0.5-0.8-1.2-0.8-1.9 0-0.8 0.3-1.4 0.8-1.9 0.6-0.5 1.3-0.7 2-0.6q0.6-0.1 1.1 0.1 0.5 0.1 0.8 0.5 0.4 0.4 0.6 0.9 0.1 0.6 0 1.1zm0-10q0.1 0.5-0.1 1-0.1 0.5-0.5 0.9-0.4 0.3-0.9 0.5-0.5 0.2-1 0.1c-0.7 0.1-1.4-0.1-2-0.6-0.5-0.5-0.8-1.2-0.8-1.9 0-0.7 0.3-1.4 0.8-1.9 0.6-0.5 1.3-0.7 2-0.6q0.6-0.1 1.1 0.1 0.5 0.2 0.9 0.6 0.3 0.4 0.5 0.9 0.1 0.5 0 1zm0-10q0.1 0.6-0.1 1.1-0.1 0.5-0.5 0.8-0.4 0.4-0.9 0.6-0.5 0.1-1 0.1c-0.7 0-1.4-0.2-2-0.7-0.5-0.4-0.8-1.1-0.8-1.8 0-0.8 0.3-1.5 0.8-1.9 0.6-0.5 1.3-0.7 2-0.6q0.6-0.1 1.1 0 0.5 0.2 0.9 0.6 0.4 0.4 0.5 1 0.2 0.5 0 1zm0-10q0.1 0.6-0.1 1.1-0.1 0.5-0.5 0.8-0.4 0.4-0.9 0.6-0.5 0.1-1 0.1c-0.7 0.1-1.4-0.2-2-0.6-0.5-0.5-0.8-1.2-0.8-1.9 0-0.8 0.3-1.5 0.8-1.9 0.6-0.5 1.3-0.7 2-0.6q0.6-0.1 1.1 0.1 0.5 0.1 0.9 0.5 0.4 0.5 0.5 1 0.2 0.5 0 1.1zm0-10q0.1 0.5-0.1 1-0.1 0.5-0.5 0.9-0.4 0.3-0.9 0.5-0.5 0.2-1 0.1c-0.7 0.1-1.4-0.1-2-0.6-0.5-0.5-0.8-1.2-0.8-1.9 0-0.7 0.3-1.4 0.8-1.9 0.6-0.5 1.3-0.7 2-0.6q0.6-0.1 1.1 0.1 0.5 0.2 0.9 0.6 0.4 0.4 0.5 0.9 0.2 0.6 0 1.1zm0-10q0.1 0.6-0.1 1.1-0.1 0.5-0.5 0.8-0.4 0.4-0.9 0.6-0.5 0.1-1 0.1c-0.7 0.1-1.4-0.2-2-0.6-0.5-0.5-0.8-1.2-0.8-1.9 0-0.8 0.3-1.5 0.8-1.9 0.6-0.5 1.3-0.7 2-0.6q0.6-0.1 1.1 0.1 0.6 0.1 0.9 0.6 0.4 0.4 0.6 0.9 0.1 0.6-0.1 1.2zm0-10q0.2 0.5 0.1 1.1-0.1 0.6-0.5 1-0.4 0.5-0.9 0.7-0.6 0.2-1.2 0.1c-0.7 0.1-1.4-0.2-2-0.6-0.5-0.5-0.8-1.2-0.8-1.9 0-0.8 0.3-1.5 0.8-1.9 0.6-0.5 1.3-0.7 2-0.6q0.5-0.1 1 0 0.5 0.2 0.9 0.6 0.3 0.3 0.5 0.8 0.2 0.5 0.1 1zm0-10q0.2 0.6 0.1 1.1-0.1 0.6-0.5 1.1-0.4 0.4-0.9 0.6-0.6 0.2-1.2 0.1c-0.7 0.1-1.4-0.1-2-0.6-0.5-0.5-0.8-1.2-0.8-1.9 0-0.7 0.3-1.4 0.8-1.9 0.6-0.5 1.3-0.7 2-0.6q0.5-0.1 1 0.1 0.5 0.2 0.9 0.5 0.4 0.4 0.5 0.9 0.2 0.5 0.1 1zm0-10q0.2 0.6 0.1 1.1-0.1 0.6-0.5 1.1-0.4 0.4-0.9 0.6-0.6 0.2-1.2 0.1c-0.7 0.1-1.4-0.1-2-0.6-0.5-0.5-0.8-1.2-0.8-1.9 0-0.7 0.3-1.4 0.8-1.9 0.6-0.5 1.3-0.7 2-0.6q0.5-0.1 1 0.1 0.5 0.2 0.9 0.5 0.4 0.4 0.5 0.9 0.2 0.5 0.1 1zm0-10q0.1 0.5-0.1 1-0.1 0.5-0.5 0.9-0.4 0.4-0.9 0.5-0.5 0.2-1 0.1c-0.7 0.1-1.4-0.1-2-0.6-0.5-0.4-0.8-1.1-0.8-1.9 0-0.7 0.3-1.4 0.8-1.9 0.6-0.4 1.3-0.7 2-0.6q0.6-0.1 1.2 0.1 0.5 0.2 0.9 0.7 0.4 0.4 0.5 1 0.1 0.6-0.1 1.2zm0-10q0.1 0.5-0.1 1-0.1 0.5-0.5 0.9-0.4 0.3-0.9 0.5-0.5 0.2-1 0.1c-0.7 0.1-1.4-0.1-2-0.6-0.5-0.5-0.8-1.2-0.8-1.9 0-0.7 0.3-1.4 0.8-1.9 0.6-0.5 1.3-0.7 2-0.6q0.6-0.1 1.2 0.1 0.6 0.2 1 0.6 0.3 0.5 0.5 1.1 0 0.6-0.2 1.2zm0-10q0.1 0.5-0.1 1-0.1 0.5-0.5 0.9-0.4 0.3-0.9 0.5-0.5 0.2-1 0.1c-0.7 0.1-1.4-0.1-2-0.6-0.5-0.5-0.8-1.2-0.8-1.9 0-0.7 0.3-1.4 0.8-1.9 0.6-0.5 1.3-0.7 2-0.6q0.6-0.1 1.2 0.1 0.6 0.2 1 0.7 0.4 0.4 0.5 1 0.1 0.6-0.2 1.2zm0-10q0.1 0.5-0.1 1-0.1 0.5-0.5 0.9-0.4 0.4-0.9 0.5-0.5 0.2-1 0.1c-0.7 0.1-1.4-0.1-2-0.6-0.5-0.5-0.8-1.1-0.8-1.9 0-0.7 0.3-1.4 0.8-1.9 0.6-0.4 1.3-0.7 2-0.6q0.6-0.1 1.2 0.1 0.6 0.2 1 0.7 0.4 0.5 0.5 1.1 0.1 0.6-0.2 1.2zm0-10q0.1 0.5-0.1 1-0.1 0.5-0.5 0.9-0.4 0.4-0.9 0.5-0.5 0.2-1 0.1c-0.7 0.1-1.4-0.1-2-0.6-0.5-0.5-0.8-1.2-0.8-1.9 0-0.7 0.3-1.4 0.8-1.9 0.6-0.5 1.3-0.7 2-0.6q0.6-0.1 1.2 0.1 0.6 0.2 1 0.7 0.4 0.5 0.5 1.1 0.1 0.6-0.2 1.2zm0-10q0.1 0.5-0.1 1-0.1 0.5-0.5 0.9-0.4 0.4-0.9 0.5-0.5 0.2-1 0.1c-0.7 0.1-1.4-0.1-2-0.6-0.5-0.5-0.8-1.1-0.8-1.9 0-0.7 0.3-1.4 0.8-1.9 0.6-0.4 1.3-0.7 2-0.6q0.6-0.1 1.3 0.1 0.6 0.2 1 0.7 0.4 0.5 0.5 1.2 0 0.6-0.3 1.2zm0-10q0.1 0.5-0.1 1-0.1 0.5-0.5 0.9-0.4 0.3-0.9 0.5-0.5 0.2-1 0.1c-0.7 0.1-1.4-0.1-2-0.6-0.5-0.5-0.8-1.2-0.8-1.9 0-0.7 0.3-1.4 0.8-1.9 0.6-0.5 1.3-0.7 2-0.6q0.7-0.2 1.3 0.1 0.6 0.2 1 0.7 0.4 0.5 0.5 1.1 0 0.7-0.3 1.3zm0-10q0.1 0.5-0.1 1-0.1 0.5-0.5 0.9-0.4 0.3-0.9 0.5-0.5 0.2-1 0.1c-0.7 0.1-1.4-0.1-2-0.6-0.5-0.5-0.8-1.2-0.8-1.9 0-0.7 0.3-1.4 0.8-1.9 0.6-0.5 1.3-0.7 2-0.6q0.7-0.2 1.3 0 0.6 0.3 1 0.8 0.4 0.5 0.5 1.2 0 0.6-0.3 1.2zm0-10q0.1 0.5-0.1 1-0.1 0.5-0.5 0.9-0.4 0.4-0.9 0.5-0.5 0.2-1 0.1c-0.7 0.1-1.4-0.1-2-0.6-0.5-0.5-0.8-1.2-0.8-1.9 0-0.7 0.3-1.4 0.8-1.9 0.6-0.4 1.3-0.7 2-0.6q0.7-0.2 1.3 0.1 0.6 0.2 1.1 0.7 0.4 0.5 0.4 1.2 0.1 0.7-0.3 1.3zm0-10q0.1 0.5-0.1 1-0.1 0.5-0.5 0.9-0.4 0.3-0.9 0.5-0.5 0.2-1 0.1c-0.7 0.1-1.4-0.1-2-0.6-0.5-0.5-0.8-1.2-0.8-1.9 0-0.7 0.3-1.4 0.8-1.9 0.6-0.5 1.3-0.7 2-0.6q0.7-0.2 1.3 0 0.7 0.2 1.1 0.8 0.4 0.5 0.5 1.2 0 0.7-0.4 1.3zm0-10q0.1 0.5-0.1 1-0.1 0.5-0.5 0.9-0.4 0.3-0.9 0.5-0.5 0.2-1 0.1c-0.7 0.1-1.4-0.1-2-0.6-0.5-0.5-0.8-1.2-0.8-1.9 0-0.7 0.3-1.4 0.8-1.9 0.6-0.5 1.3-0.7 2-0.6 0.5-0.1 0.9-0.1 1.4 0 0.4 0.1 0.8 0.4 1 0.8 0.3 0.3 0.5 0.8 0.5 1.2 0 0.5-0.1 0.9-0.4 1.3zm0-10q0.1 0.5-0.1 1-0.1 0.5-0.5 0.9-0.4 0.4-0.9 0.5-0.5 0.2-1 0.1c-0.7 0.1-1.4-0.1-2-0.6-0.5-0.4-0.8-1.1-0.8-1.9 0-0.7 0.3-1.4 0.8-1.9 0.6-0.4 1.3-0.7 2-0.6 0.5-0.1 0.9-0.1 1.4 0 0.4 0.2 0.8 0.4 1.1 0.8 0.3 0.4 0.4 0.9 0.4 1.3 0.1 0.5-0.1 1-0.4 1.3zm0-10q0.1 0.6-0.1 1.1-0.1 0.5-0.5 0.8-0.4 0.4-0.9 0.6-0.5 0.1-1 0.1c-0.7 0.1-1.4-0.2-2-0.6-0.5-0.5-0.8-1.2-0.8-1.9 0-0.8 0.3-1.5 0.8-1.9 0.6-0.5 1.3-0.7 2-0.6 0.5-0.2 0.9-0.2 1.4 0 0.4 0.1 0.8 0.4 1.1 0.7 0.3 0.4 0.4 0.9 0.4 1.3 0 0.5-0.1 1-0.4 1.4zm0-10q0.1 0.5-0.1 1-0.1 0.5-0.5 0.8-0.4 0.4-0.9 0.6-0.5 0.1-1 0.1c-0.7 0.1-1.4-0.2-2-0.6-0.5-0.5-0.8-1.2-0.8-1.9 0-0.8 0.3-1.4 0.8-1.9 0.6-0.5 1.3-0.7 2-0.6 0.5-0.2 1-0.2 1.4-0.1q0.8 0.3 1.2 0.9c0.2 0.3 0.4 0.8 0.4 1.3 0 0.5-0.2 0.9-0.5 1.3zm0-10q0.1 0.5-0.1 1-0.1 0.5-0.5 0.9-0.4 0.4-0.9 0.5-0.5 0.2-1 0.1c-0.7 0.1-1.4-0.1-2-0.6-0.5-0.5-0.8-1.1-0.8-1.9 0-0.7 0.3-1.4 0.8-1.9 0.6-0.4 1.3-0.7 2-0.6 0.5-0.1 1-0.2 1.4 0 0.5 0.1 0.9 0.4 1.2 0.8 0.3 0.4 0.4 0.9 0.4 1.4 0 0.5-0.2 0.9-0.5 1.3zm0-10q0.1 0.5-0.1 1-0.1 0.5-0.5 0.9-0.4 0.4-0.9 0.5-0.5 0.2-1 0.1c-0.6 0-1.1-0.3-1.6-0.8-0.4-0.5-0.6-1.1-0.6-1.7 0-0.6 0.2-1.2 0.6-1.6 0.5-0.5 1-0.8 1.6-0.9q0.8-0.3 1.5 0c0.5 0.1 0.9 0.4 1.2 0.8 0.3 0.4 0.4 0.9 0.4 1.4 0 0.5-0.2 1-0.6 1.4zm0-10q0.1 0.5-0.1 1-0.1 0.5-0.5 0.8-0.4 0.4-0.9 0.6-0.5 0.1-1 0.1-0.5 0-1-0.1-0.5-0.2-0.9-0.6-0.3-0.3-0.5-0.8-0.2-0.5-0.1-1-0.1-0.6 0.1-1.1 0.2-0.5 0.5-0.8 0.4-0.4 0.9-0.6 0.5-0.1 1-0.1c0.5-0.2 1-0.3 1.6-0.1q0.8 0.2 1.2 0.9c0.3 0.4 0.5 0.9 0.4 1.4 0 0.6-0.3 1.1-0.7 1.4zm0-10q0.1 0.5-0.1 1-0.1 0.5-0.5 0.9-0.4 0.4-0.9 0.5-0.5 0.2-1 0.1-0.5 0.1-1 0-0.5-0.2-0.9-0.6-0.3-0.4-0.5-0.9-0.2-0.5-0.1-1-0.1-0.5 0.1-1 0.2-0.5 0.5-0.9 0.4-0.3 0.9-0.5 0.5-0.2 1-0.1c0.5-0.3 1.1-0.3 1.6-0.2 0.5 0.1 1 0.4 1.3 0.9 0.4 0.4 0.5 1 0.4 1.5-0.1 0.6-0.3 1.1-0.8 1.5zm0-10q0.1 0.5-0.1 1-0.1 0.5-0.5 0.8-0.4 0.4-0.9 0.6-0.5 0.1-1 0.1-0.5 0-1-0.1-0.5-0.2-0.9-0.6-0.3-0.3-0.5-0.8-0.2-0.5-0.1-1-0.1-0.6 0.1-1.1 0.2-0.5 0.5-0.8 0.4-0.4 0.9-0.6 0.5-0.1 1-0.1c0.5-0.3 1.1-0.4 1.7-0.3 0.5 0.1 1 0.5 1.4 1 0.3 0.4 0.4 1 0.3 1.6-0.1 0.6-0.4 1.1-0.9 1.4zm0-10c0.5 0.3 0.8 0.9 1 1.4 0.1 0.6-0.1 1.2-0.4 1.7-0.3 0.5-0.8 0.8-1.4 0.9-0.6 0.1-1.2 0-1.7-0.3q-0.5 0.1-1-0.1-0.5-0.2-0.9-0.5-0.3-0.4-0.5-0.9-0.2-0.5-0.1-1-0.1-0.5 0.1-1 0.2-0.5 0.5-0.9 0.4-0.4 0.9-0.5 0.5-0.2 1-0.1 0.5-0.1 1 0.1 0.5 0.1 0.9 0.5 0.4 0.4 0.5 0.9 0.2 0.5 0.1 1zm0-10q0.1 0.5-0.1 1-0.1 0.5-0.5 0.9-0.4 0.3-0.9 0.5-0.5 0.2-1 0.1-0.5 0.1-1-0.1-0.5-0.2-0.9-0.5-0.3-0.4-0.5-0.9-0.2-0.5-0.1-1-0.1-0.5 0.1-1 0.2-0.5 0.5-0.9 0.4-0.4 0.9-0.5 0.5-0.2 1-0.1c0.5-0.3 1.1-0.4 1.7-0.3 0.6 0.1 1.1 0.4 1.4 0.9 0.3 0.5 0.5 1.1 0.4 1.7-0.2 0.6-0.5 1.1-1 1.4z"/>
		<path id="Layer" class="s1" d=""/>
		<g id="Layer">
			<path id="Layer" fill-rule="evenodd" class="s0" d="m137.9 27.6q0-0.1 0-0.3 0.1-0.1 0.2-0.2 0.1-0.1 0.2-0.2 0.1 0 0.3 0c0.3 0 5.4 0 5.7 0q0.5 0.1 0.9 0.3 0.5 0.1 0.9 0.4 0.4 0.2 0.8 0.5 0.2 0.3 0.4 0.6 0.2 0.3 0.3 0.6 0.2 0.3 0.2 0.7 0.1 0.3 0.1 0.6c0 2.1-1.4 3.3-3.4 3.7l3.2 4q0 0.1 0.1 0.1 0 0.1 0 0.1 0.1 0.1 0.1 0.2 0 0 0 0.1 0 0.2-0.1 0.3 0 0.1-0.1 0.2-0.1 0.1-0.3 0.2-0.1 0-0.2 0-0.1 0-0.2 0-0.1 0-0.2-0.1-0.1 0-0.2-0.1 0-0.1-0.1-0.1l-3.6-4.6h-3.6v4.3q0 0.3-0.2 0.5-0.2 0.2-0.5 0.2-0.3 0-0.5-0.2-0.2-0.2-0.3-0.5zm5.3 5.7c1.9 0 3.3-1 3.3-2.6 0-1.6-1.2-2.5-3.2-2.5h-3.9v5.1z"/>
			<path id="Layer" class="s0" d="m158.4 38.9q0 0.3-0.2 0.5-0.2 0.2-0.5 0.2-0.3 0-0.5-0.2-0.1-0.2-0.2-0.5v-1q-0.2 0.4-0.5 0.7-0.4 0.4-0.8 0.6-0.4 0.3-0.9 0.4-0.4 0.1-0.9 0.1-0.8 0-1.4-0.2-0.7-0.3-1.3-0.9-0.5-0.5-0.7-1.2-0.3-0.7-0.2-1.4v-5.2q0-0.1 0.1-0.3 0-0.1 0.1-0.2 0.1-0.1 0.2-0.1 0.2-0.1 0.3-0.1 0.1 0 0.3 0.1 0.1 0 0.2 0.1 0.1 0.1 0.2 0.2 0 0.2 0 0.3v4.8c0 1.7 0.9 2.8 2.6 2.8q0.6 0 1.1-0.2 0.5-0.2 0.9-0.6 0.4-0.4 0.6-1 0.2-0.5 0.2-1.1v-4.7q0-0.1 0-0.3 0.1-0.1 0.2-0.2 0.1-0.1 0.2-0.1 0.1-0.1 0.3-0.1 0.1 0 0.2 0.1 0.2 0 0.2 0.1 0.1 0.1 0.2 0.2 0 0.2 0 0.3z"/>
			<path id="Layer" class="s0" d="m161.8 37v-5.6h-0.7q-0.1 0-0.3 0-0.1-0.1-0.2-0.2 0-0.1-0.1-0.2 0-0.1 0-0.2 0-0.1 0-0.2 0.1-0.1 0.1-0.2 0.1-0.1 0.2-0.2 0.2 0 0.3 0h0.7v-2.2q0-0.1 0.1-0.3 0-0.1 0.1-0.2 0.1-0.1 0.3-0.2 0.1 0 0.2 0 0.2 0 0.3 0 0.1 0.1 0.2 0.2 0.1 0.1 0.2 0.2 0 0.2 0 0.3v2.1h2.4q0.2 0.1 0.3 0.1 0.1 0 0.2 0.1 0.1 0.1 0.1 0.2 0.1 0.1 0.1 0.3 0 0.1-0.1 0.2 0 0.1-0.1 0.2-0.1 0.1-0.2 0.1-0.1 0.1-0.3 0.1h-2.4v5.5q0 0.3 0.1 0.6 0.1 0.3 0.3 0.5 0.2 0.2 0.6 0.3 0.3 0.1 0.6 0.1 0.1 0 0.2 0 0.1 0 0.2 0 0.1-0.1 0.2-0.1 0.1 0 0.2 0 0.1 0 0.3 0 0.1 0.1 0.1 0.1 0.1 0.1 0.2 0.2 0 0.1 0 0.3 0 0 0 0.1 0 0.1-0.1 0.2 0 0.1-0.1 0.1-0.1 0.1-0.2 0.1-0.1 0.1-0.3 0.1-0.2 0.1-0.3 0.1-0.2 0-0.4 0-0.2 0.1-0.3 0.1-0.6 0-1.1-0.2-0.5-0.1-0.9-0.5-0.4-0.4-0.6-0.9-0.1-0.5-0.1-1.1z"/>
			<path id="Layer" class="s0" d="m168.9 37v-5.6h-0.8q-0.1 0-0.2 0-0.1-0.1-0.2-0.2-0.1-0.1-0.1-0.2-0.1-0.1-0.1-0.2 0-0.1 0.1-0.2 0-0.1 0.1-0.2 0.1-0.1 0.2-0.2 0.1 0 0.2 0h0.8v-2.2q0-0.1 0-0.3 0.1-0.1 0.2-0.2 0.1-0.1 0.2-0.2 0.1 0 0.3 0 0.1 0 0.2 0 0.2 0.1 0.3 0.2 0.1 0.1 0.1 0.2 0.1 0.2 0.1 0.3v2.1h2.4q0.1 0.1 0.2 0.1 0.1 0 0.2 0.1 0.1 0.1 0.2 0.2 0 0.1 0 0.3 0 0.1 0 0.2-0.1 0.1-0.2 0.2-0.1 0.1-0.2 0.1-0.1 0.1-0.2 0.1h-2.4v5.5q-0.1 0.3 0 0.6 0.2 0.3 0.4 0.5 0.2 0.3 0.5 0.4 0.4 0.1 0.7 0 0.1 0 0.2 0 0.1 0 0.2 0 0.1-0.1 0.2-0.1 0.1 0 0.2 0 0.1 0 0.3 0 0.1 0.1 0.2 0.1 0 0.1 0.1 0.2 0 0.1 0 0.3 0 0.1 0 0.1 0 0.1-0.1 0.2 0 0.1-0.1 0.1-0.1 0.1-0.2 0.1-0.1 0.1-0.3 0.1-0.2 0.1-0.3 0.1-0.2 0-0.4 0-0.2 0.1-0.3 0.1-0.6 0-1.1-0.1-0.5-0.2-0.9-0.6-0.4-0.4-0.6-0.9-0.2-0.5-0.1-1.1z"/>
			<path id="Layer" fill-rule="evenodd" class="s0" d="m179.3 39.7q-0.9 0-1.8-0.4-0.9-0.3-1.5-1-0.7-0.7-1-1.6-0.4-0.9-0.3-1.8-0.1-1 0.2-1.8 0.4-0.9 1-1.6 0.6-0.7 1.5-1.1 0.8-0.3 1.7-0.4c2.8 0 4.4 2.3 4.4 4.7q0 0.2-0.1 0.3 0 0.1-0.1 0.2-0.1 0.1-0.2 0.1-0.2 0.1-0.3 0.1h-6.7q0 0.6 0.3 1.2 0.2 0.6 0.7 1 0.4 0.5 1 0.7 0.6 0.2 1.3 0.2 0.3 0 0.7 0 0.4-0.1 0.7-0.2 0.4-0.2 0.7-0.4 0.3-0.2 0.5-0.4 0.1-0.1 0.1-0.1 0.1 0 0.1-0.1 0.1 0 0.1 0 0.1 0 0.1 0 0.2 0 0.3 0 0.1 0.1 0.2 0.2 0.1 0.1 0.1 0.2 0.1 0.1 0.1 0.2 0 0.1-0.1 0.1 0 0.1 0 0.1 0 0.1-0.1 0.2 0 0-0.1 0-0.3 0.4-0.7 0.7-0.4 0.2-0.9 0.4-0.4 0.2-0.9 0.2-0.5 0.1-1 0.1zm2.8-5.4c-0.2-1.7-1.1-3.1-3-3.1q-0.6 0-1.2 0.3-0.5 0.2-0.9 0.7-0.5 0.4-0.7 1-0.2 0.5-0.2 1.1z"/>
			<path id="Layer" class="s0" d="m185.7 30.8q0-0.1 0.1-0.3 0-0.1 0.1-0.2 0.1-0.1 0.3-0.1 0.1-0.1 0.2-0.1 0.2 0 0.3 0 0.1 0.1 0.2 0.2 0.1 0.1 0.2 0.2 0 0.2 0 0.3v1.7q0.2-0.5 0.5-0.9 0.3-0.4 0.8-0.8 0.4-0.3 0.9-0.5 0.5-0.2 1-0.2 0.2 0 0.3 0 0.1 0.1 0.2 0.2 0.1 0.1 0.2 0.2 0 0.1 0 0.3 0 0.1 0 0.2-0.1 0.1-0.2 0.2 0 0.1-0.2 0.2-0.1 0-0.2 0.1c-1.8 0.2-3.3 1.5-3.3 4.2v3.2q0 0.3-0.2 0.5-0.2 0.2-0.5 0.2-0.3 0-0.5-0.2-0.2-0.2-0.2-0.5z"/>
			<path id="Layer" fill-rule="evenodd" class="s0" d="m197.5 34.9c0-1.3 0.5-2.5 1.4-3.4 0.9-1 2.2-1.5 3.4-1.5 1.3 0 2.6 0.5 3.5 1.5 0.9 0.9 1.4 2.1 1.4 3.4q0 1-0.4 1.8-0.3 0.9-1 1.6-0.7 0.7-1.6 1.1-0.9 0.3-1.9 0.3-1 0-1.9-0.3-0.8-0.4-1.5-1.1-0.7-0.7-1.1-1.6-0.3-0.9-0.3-1.8zm8.3 0q0-0.7-0.3-1.4-0.2-0.7-0.7-1.2-0.5-0.5-1.1-0.8-0.7-0.2-1.4-0.3-0.7 0-1.3 0.3-0.7 0.3-1.2 0.8-0.4 0.5-0.7 1.2-0.2 0.6-0.2 1.3 0 0.7 0.2 1.4 0.3 0.7 0.8 1.2 0.5 0.5 1.1 0.8 0.6 0.2 1.3 0.3 0.8 0 1.4-0.3 0.6-0.3 1.1-0.8 0.5-0.5 0.8-1.2 0.2-0.6 0.2-1.3z"/>
			<path id="Layer" class="s0" d="m208.9 34.9c0-1 0.3-1.9 0.8-2.7 0.6-0.8 1.3-1.4 2.2-1.8 0.8-0.4 1.8-0.5 2.7-0.3 1 0.2 1.8 0.6 2.5 1.3q0.1 0 0.1 0.1 0.1 0 0.1 0.1 0 0 0 0.1 0 0.1 0 0.1 0 0.2 0 0.3-0.1 0.1-0.1 0.2-0.1 0.1-0.3 0.2-0.1 0-0.2 0-0.1 0-0.1 0-0.1 0-0.2 0 0 0-0.1-0.1 0 0-0.1 0-0.2-0.3-0.5-0.5-0.3-0.2-0.6-0.4-0.4-0.1-0.7-0.2-0.4-0.1-0.7-0.1-0.7 0.1-1.3 0.3-0.7 0.3-1.1 0.8-0.5 0.5-0.7 1.2-0.3 0.6-0.2 1.3-0.1 0.7 0.2 1.4 0.2 0.7 0.7 1.2 0.5 0.5 1.1 0.8 0.7 0.2 1.4 0.3 0.3 0 0.7-0.1 0.4-0.1 0.7-0.3 0.3-0.1 0.6-0.3 0.3-0.2 0.6-0.5 0 0 0.1-0.1 0 0 0.1 0 0 0 0.1 0 0-0.1 0.1-0.1 0.1 0 0.2 0.1 0.1 0 0.2 0.1 0.1 0.1 0.1 0.2 0.1 0.1 0.1 0.3 0 0 0 0.1 0 0.1 0 0.1-0.1 0.1-0.1 0.1 0 0.1-0.1 0.1-0.3 0.4-0.7 0.7-0.4 0.2-0.9 0.4-0.4 0.2-0.9 0.3-0.5 0.1-1 0.1-0.9 0-1.8-0.4-0.9-0.3-1.6-1-0.6-0.7-1-1.6-0.4-0.9-0.4-1.8z"/>
			<path id="Layer" class="s0" d="m219.6 27q0-0.4 0.2-0.6 0.2-0.2 0.5-0.2 0.3 0 0.5 0.2 0.2 0.2 0.2 0.6v4.8q0.2-0.4 0.6-0.8 0.3-0.3 0.7-0.5 0.5-0.3 0.9-0.4 0.5-0.1 1-0.1 0.7 0 1.4 0.2 0.7 0.3 1.2 0.8 0.5 0.6 0.8 1.3 0.2 0.7 0.1 1.4v5.2q0.1 0.3-0.1 0.5-0.2 0.3-0.5 0.3-0.4 0-0.6-0.3-0.2-0.2-0.1-0.5v-4.8c0-1.8-1-2.9-2.6-2.9q-0.6 0-1.1 0.3-0.5 0.2-0.9 0.6-0.4 0.4-0.6 0.9-0.2 0.6-0.2 1.1v4.8q0 0.1 0 0.2-0.1 0.2-0.2 0.3-0.1 0.1-0.2 0.1-0.2 0.1-0.3 0.1-0.1 0-0.3-0.1-0.1 0-0.2-0.1-0.1-0.1-0.1-0.3-0.1-0.1-0.1-0.2z"/>
			<path id="Layer" class="s0" d="m236.2 37v-5.6h-0.7q-0.2 0-0.3 0-0.1-0.1-0.2-0.2 0-0.1-0.1-0.2 0-0.1 0-0.2 0-0.1 0-0.2 0.1-0.1 0.1-0.2 0.1-0.1 0.2-0.2 0.1 0 0.3 0h0.7v-2.2q0-0.1 0.1-0.3 0-0.1 0.1-0.2 0.1-0.1 0.2-0.2 0.2 0 0.3 0 0.1 0 0.3 0 0.1 0.1 0.2 0.2 0.1 0.1 0.2 0.2 0 0.2 0 0.3v2.1h2.4q0.1 0 0.3 0.1 0.1 0 0.2 0.1 0 0.1 0.1 0.2 0 0.1 0 0.3 0 0.1 0 0.2-0.1 0.1-0.1 0.2-0.1 0.1-0.2 0.1-0.2 0.1-0.3 0.1h-2.4v5.5q0 0.3 0.1 0.6 0.1 0.3 0.3 0.5 0.2 0.2 0.5 0.3 0.4 0.1 0.7 0.1 0.1 0 0.2 0 0.1 0 0.2 0 0.1-0.1 0.2-0.1 0.1 0 0.2 0 0.1 0 0.2 0 0.2 0.1 0.2 0.1 0.1 0.1 0.2 0.2 0 0.1 0 0.3 0 0.1 0 0.1 0 0.1-0.1 0.2 0 0.1-0.1 0.1-0.1 0.1-0.2 0.1-0.1 0.1-0.3 0.1-0.2 0.1-0.4 0.1-0.1 0-0.3 0-0.2 0.1-0.4 0.1-0.5 0-1-0.2-0.5-0.1-0.9-0.5-0.4-0.4-0.6-0.9-0.1-0.5-0.1-1.1z"/>
			<path id="Layer" class="s0" d="m242.8 27.3q0-0.4 0.3-0.6 0.2-0.2 0.5-0.2 0.4 0 0.6 0.2 0.3 0.2 0.3 0.6v0.2q0 0.3-0.3 0.6-0.2 0.2-0.5 0.2-0.4 0-0.6-0.2-0.3-0.3-0.3-0.6zm0.2 3.5q0-0.1 0-0.2 0.1-0.2 0.2-0.3 0.1-0.1 0.2-0.1 0.1-0.1 0.2-0.1 0.2 0 0.3 0.1 0.1 0 0.2 0.1 0.1 0.1 0.2 0.3 0 0.1 0 0.2v8.1q0 0.1 0 0.3-0.1 0.1-0.1 0.2-0.1 0.1-0.3 0.2-0.1 0-0.2 0-0.2 0-0.3 0-0.1-0.1-0.2-0.2-0.1-0.1-0.2-0.2 0-0.1 0-0.3z"/>
			<path id="Layer" fill-rule="evenodd" class="s0" d="m256.2 38.9q0 0.3-0.2 0.5-0.2 0.2-0.4 0.2-0.3 0-0.5-0.2-0.2-0.2-0.2-0.5v-1.3q-0.3 0.5-0.7 0.9-0.4 0.4-0.9 0.6-0.4 0.3-0.9 0.4-0.6 0.2-1.1 0.2-0.9 0-1.8-0.4-0.8-0.4-1.4-1.1-0.7-0.7-1-1.5-0.3-0.9-0.2-1.8-0.1-1 0.2-1.8 0.4-0.9 1-1.6 0.6-0.7 1.5-1.1 0.8-0.3 1.7-0.4 0.6 0 1.1 0.2 0.5 0.1 1 0.4 0.5 0.2 0.8 0.6 0.4 0.4 0.7 0.8v-5q0-0.1 0.1-0.2 0-0.2 0.1-0.3 0.1-0.1 0.2-0.1 0.2-0.1 0.3-0.1 0.1 0 0.3 0.1 0.1 0 0.2 0.1 0.1 0.1 0.1 0.3 0.1 0.1 0.1 0.2zm-8-4q-0.1 0.6 0.2 1.3 0.2 0.6 0.7 1.2 0.4 0.5 1 0.8 0.7 0.2 1.4 0.3 0.6-0.1 1.3-0.3 0.6-0.3 1.1-0.8 0.5-0.5 0.7-1.2 0.3-0.6 0.2-1.3 0.1-0.7-0.2-1.3-0.2-0.7-0.7-1.2-0.5-0.5-1.1-0.8-0.6-0.3-1.3-0.3-0.7 0-1.3 0.3-0.7 0.3-1.1 0.8-0.5 0.5-0.7 1.1-0.2 0.7-0.2 1.4z"/>
			<path id="Layer" class="s0" d="m259.6 37v-5.6h-0.7q-0.1 0-0.2 0-0.2-0.1-0.2-0.2-0.1-0.1-0.2-0.2 0-0.1 0-0.2 0-0.1 0-0.2 0-0.2 0.1-0.3 0.1-0.1 0.2-0.1 0.2-0.1 0.3 0l0.7-0.1v-2.2q0-0.1 0.1-0.2 0-0.1 0.1-0.2 0.1-0.1 0.3-0.2 0.1 0 0.2 0 0.2 0 0.3 0 0.1 0.1 0.2 0.2 0.1 0.1 0.2 0.2 0 0.1 0 0.2v2.2h2.4q0.2 0.1 0.3 0.1 0.1 0 0.2 0.1 0.1 0.1 0.1 0.2 0.1 0.1 0.1 0.3 0 0.1-0.1 0.2 0 0.1-0.1 0.2-0.1 0.1-0.2 0.1-0.1 0.1-0.3 0.1h-2.4v5.5q0 0.3 0.1 0.6 0.1 0.3 0.3 0.5 0.3 0.2 0.6 0.3 0.3 0.1 0.6 0.1 0.1 0 0.2 0 0.1 0 0.2 0 0.1-0.1 0.2-0.1 0.1 0 0.2 0 0.2 0 0.3 0 0.1 0.1 0.2 0.1 0 0.1 0.1 0.2 0 0.1 0 0.3 0 0.1 0 0.1 0 0.1-0.1 0.2 0 0.1-0.1 0.1-0.1 0.1-0.2 0.1-0.1 0.1-0.3 0.1-0.2 0.1-0.3 0.1-0.2 0-0.4 0-0.2 0.1-0.3 0.1-0.6 0-1.1-0.2-0.5-0.1-0.9-0.5-0.4-0.4-0.5-0.9-0.2-0.5-0.2-1.1z"/>
			<path id="Layer" fill-rule="evenodd" class="s0" d="m265.6 36.8c-0.1-2 1.6-3 3.9-3q0.4 0 0.8 0 0.3 0 0.7 0.1 0.4 0 0.7 0.1 0.4 0.1 0.7 0.2v-0.3c0-1.7-1-2.6-2.8-2.6q-0.3 0-0.6 0.1-0.3 0-0.6 0.1-0.3 0-0.6 0.1-0.3 0.1-0.6 0.3-0.1 0-0.1 0 0 0-0.1 0-0.1 0-0.2 0-0.2-0.1-0.2-0.2-0.1-0.1-0.2-0.2 0-0.1 0-0.2 0-0.1 0-0.2 0-0.1 0.1-0.1 0-0.1 0.1-0.2 0.1 0 0.1-0.1 0.4-0.1 0.8-0.2 0.3-0.2 0.7-0.2 0.4-0.1 0.8-0.2 0.4 0 0.7 0 0.5 0 0.9 0 0.4 0.1 0.8 0.2 0.3 0.1 0.7 0.3 0.3 0.2 0.6 0.5 0.3 0.3 0.5 0.6 0.2 0.3 0.3 0.7 0.1 0.3 0.2 0.7 0 0.3 0 0.7c0 0.1 0 5.3 0 5.4q-0.1 0.1-0.2 0.2-0.1 0.1-0.2 0.1-0.1 0.1-0.3 0.1-0.1 0-0.2 0-0.1-0.1-0.2-0.2-0.1-0.1-0.2-0.2 0-0.1 0-0.3v-0.8q-0.3 0.4-0.7 0.7-0.4 0.3-0.8 0.5-0.5 0.2-0.9 0.3-0.5 0.1-1 0.1c-1.7 0-3.5-1-3.5-2.9zm6.9-0.7v-0.9q-0.3-0.1-0.7-0.2-0.3-0.1-0.7-0.1-0.3-0.1-0.6-0.1-0.4 0-0.7 0c-1.8 0-2.8 0.7-2.8 1.9 0 1.2 1.1 1.8 2.4 1.8 1.7 0.1 3.1-0.9 3.1-2.4z"/>
			<path id="Layer" fill-rule="evenodd" class="s0" d="m276.5 27q0-0.4 0.2-0.6 0.2-0.2 0.5-0.2 0.3 0 0.5 0.2 0.2 0.2 0.2 0.6v5.1q0.3-0.5 0.6-0.9 0.4-0.4 0.9-0.6 0.5-0.3 1-0.5 0.5-0.1 1-0.1 1 0 1.8 0.4 0.9 0.4 1.5 1 0.6 0.7 0.9 1.6 0.3 0.9 0.3 1.8 0 0.9-0.3 1.8-0.3 0.9-0.9 1.6-0.6 0.7-1.5 1-0.8 0.4-1.8 0.4-0.5 0-1-0.1-0.5-0.1-1-0.4-0.5-0.2-0.9-0.6-0.3-0.4-0.6-0.9v1.2q0 0.2-0.1 0.3 0 0.1-0.1 0.2-0.1 0.1-0.2 0.2-0.2 0-0.3 0-0.1 0-0.3 0-0.1-0.1-0.2-0.2-0.1-0.1-0.2-0.2 0-0.1 0-0.3zm8 7.9q0-0.7-0.2-1.3-0.2-0.7-0.7-1.2-0.4-0.5-1.1-0.8-0.6-0.3-1.3-0.3-0.7 0.1-1.3 0.3-0.6 0.3-1.1 0.8-0.5 0.5-0.7 1.2-0.3 0.6-0.3 1.3 0 0.7 0.3 1.4 0.2 0.6 0.7 1.1 0.4 0.5 1.1 0.8 0.6 0.3 1.3 0.3 0.7 0 1.3-0.3 0.7-0.3 1.1-0.8 0.5-0.5 0.7-1.1 0.2-0.7 0.2-1.4z"/>
			<path id="Layer" fill-rule="evenodd" class="s0" d="m292.3 39.7q-0.9 0-1.8-0.4-0.9-0.3-1.5-1-0.7-0.7-1-1.6-0.4-0.9-0.3-1.8-0.1-1 0.3-1.8 0.3-0.9 0.9-1.6 0.6-0.7 1.5-1.1 0.8-0.3 1.7-0.4c2.8 0 4.4 2.3 4.4 4.7q0 0.2-0.1 0.3 0 0.1-0.1 0.2-0.1 0.1-0.2 0.1-0.2 0.1-0.3 0.1h-6.7q0 0.6 0.3 1.2 0.2 0.6 0.7 1 0.4 0.5 1 0.7 0.6 0.2 1.3 0.2 0.3 0 0.7 0 0.4-0.1 0.7-0.2 0.4-0.2 0.7-0.4 0.3-0.2 0.5-0.4 0.2-0.2 0.4-0.2 0.1 0 0.3 0.1 0.2 0 0.3 0.2 0 0.1 0 0.3 0 0.1 0 0.1 0 0.1 0 0.1 0 0.1-0.1 0.2 0 0-0.1 0-0.3 0.4-0.7 0.7-0.4 0.2-0.9 0.4-0.4 0.2-0.9 0.2-0.5 0.1-1 0.1zm2.8-5.4c-0.2-1.7-1.1-3.1-3-3.1q-0.6 0-1.2 0.3-0.5 0.2-0.9 0.7-0.4 0.4-0.7 1-0.2 0.5-0.2 1.1z"/>
			<path id="Layer" class="s0" d="m298.9 27q0-0.4 0.2-0.6 0.2-0.2 0.5-0.2 0.3 0 0.5 0.2 0.2 0.2 0.2 0.6v11.9q0 0.1-0.1 0.2 0 0.2-0.1 0.3-0.1 0.1-0.2 0.1-0.2 0.1-0.3 0.1-0.1 0-0.3-0.1-0.1 0-0.2-0.1-0.1-0.1-0.2-0.2 0-0.2 0-0.3z"/>
			<path id="Layer" class="s0" d="m303.4 27q0-0.3 0.2-0.5 0.2-0.2 0.5-0.2 0.3 0 0.5 0.2 0.2 0.2 0.2 0.5v11.9q0 0.1 0 0.2-0.1 0.2-0.2 0.3-0.1 0.1-0.2 0.1-0.1 0.1-0.3 0.1-0.1 0-0.3-0.1-0.1 0-0.2-0.1-0.1-0.1-0.1-0.2-0.1-0.2-0.1-0.3z"/>
			<path id="Layer" fill-rule="evenodd" class="s0" d="m311.9 39.7q-1 0-1.8-0.4-0.9-0.3-1.6-1-0.6-0.7-1-1.6-0.3-0.9-0.2-1.8-0.1-1 0.2-1.8 0.3-0.9 1-1.6 0.6-0.7 1.4-1.1 0.9-0.3 1.8-0.4c2.8 0 4.3 2.3 4.3 4.7q0 0.2 0 0.3-0.1 0.1-0.2 0.2 0 0.1-0.2 0.1-0.1 0.1-0.2 0.1h-6.8q0.1 0.6 0.3 1.2 0.3 0.6 0.7 1 0.5 0.5 1.1 0.7 0.6 0.2 1.2 0.2 0.4 0 0.8 0 0.3-0.1 0.7-0.2 0.3-0.2 0.6-0.4 0.3-0.2 0.6-0.4 0.1-0.1 0.1-0.1 0 0 0.1-0.1 0 0 0.1 0 0.1 0 0.1 0 0.1 0 0.2 0 0.2 0.1 0.2 0.2 0.1 0.1 0.2 0.2 0 0.1 0 0.2 0 0.1 0 0.1 0 0.1 0 0.1-0.1 0.1-0.1 0.2 0 0-0.1 0-0.3 0.4-0.7 0.7-0.5 0.2-0.9 0.4-0.5 0.2-0.9 0.2-0.5 0.1-1 0.1zm2.8-5.4c-0.2-1.7-1.2-3.1-3-3.1q-0.7 0-1.2 0.3-0.6 0.2-1 0.7-0.4 0.4-0.6 1-0.2 0.5-0.2 1.1z"/>
			<path id="Layer" class="s0" d="m318.3 30.8q0-0.3 0.2-0.5 0.2-0.3 0.5-0.3 0.3 0 0.5 0.3 0.2 0.2 0.2 0.5v1.7q0.2-0.5 0.5-0.9 0.3-0.4 0.8-0.8 0.4-0.3 0.9-0.5 0.5-0.2 1-0.2 0.2 0 0.3 0 0.1 0.1 0.2 0.2 0.1 0.1 0.2 0.2 0 0.1 0 0.3 0 0.1 0 0.2-0.1 0.1-0.2 0.2-0.1 0.1-0.2 0.2-0.1 0-0.2 0.1c-1.8 0.2-3.3 1.5-3.3 4.2v3.2q0 0.3-0.2 0.5-0.2 0.3-0.5 0.3-0.3 0-0.5-0.3-0.2-0.2-0.2-0.5z"/>
			<path id="Layer" fill-rule="evenodd" class="s0" d="m137.9 49.6q0-0.1 0-0.3 0.1-0.1 0.2-0.2 0.1-0.1 0.2-0.2 0.1 0 0.3 0c0.3 0 5.4 0 5.7 0q0.5 0.1 0.9 0.3 0.5 0.1 0.9 0.4 0.4 0.2 0.8 0.5 0.2 0.3 0.4 0.6 0.2 0.3 0.3 0.6 0.2 0.3 0.2 0.7 0.1 0.3 0.1 0.6c0 2.1-1.4 3.3-3.4 3.7l3.2 4q0 0.1 0.1 0.1 0 0.1 0 0.1 0.1 0.1 0.1 0.2 0 0 0 0.1 0 0.2-0.1 0.3 0 0.1-0.1 0.2-0.1 0.1-0.3 0.2-0.1 0-0.2 0-0.1 0-0.2 0-0.1 0-0.2-0.1-0.1 0-0.2-0.1 0-0.1-0.1-0.2l-3.6-4.5h-3.6v4.3q0 0.3-0.2 0.5-0.2 0.2-0.5 0.2-0.3 0-0.5-0.2-0.2-0.2-0.3-0.5zm5.3 5.7c1.9 0 3.3-1 3.3-2.6 0-1.6-1.2-2.5-3.2-2.5h-3.9v5.1z"/>
			<path id="Layer" fill-rule="evenodd" class="s0" d="m149.7 56.9c0-1.3 0.6-2.4 1.5-3.3 0.9-0.9 2.1-1.4 3.3-1.4 1.3 0 2.5 0.5 3.4 1.4q1.4 1.4 1.5 3.3 0 1-0.4 1.8-0.3 0.9-1 1.6-0.7 0.7-1.6 1.1-0.9 0.3-1.9 0.3-1 0-1.9-0.3-0.8-0.4-1.5-1.1-0.7-0.7-1.1-1.6-0.3-0.9-0.3-1.8zm8.3 0q0-0.7-0.3-1.4-0.2-0.6-0.7-1.2-0.5-0.5-1.1-0.8-0.7-0.2-1.4-0.3-0.7 0-1.3 0.3-0.7 0.3-1.2 0.8-0.4 0.5-0.7 1.2-0.2 0.6-0.2 1.3 0 0.7 0.2 1.4 0.3 0.7 0.8 1.2 0.4 0.5 1.1 0.8 0.6 0.2 1.3 0.3 0.7 0 1.4-0.3 0.6-0.3 1.1-0.8 0.5-0.5 0.8-1.2 0.2-0.6 0.2-1.3z"/>
			<path id="Layer" class="s0" d="m169.7 60.9q0 0.3-0.2 0.5-0.2 0.2-0.5 0.3-0.3-0.1-0.5-0.3-0.2-0.2-0.2-0.5v-1q-0.2 0.4-0.6 0.7-0.3 0.4-0.7 0.6-0.4 0.3-0.9 0.4-0.5 0.1-1 0.1-0.7 0-1.4-0.2-0.7-0.3-1.2-0.8-0.5-0.6-0.8-1.3-0.2-0.7-0.1-1.4v-5.2q0-0.1 0-0.3 0.1-0.1 0.2-0.2 0.1-0.1 0.2-0.1 0.1-0.1 0.2-0.1 0.2 0 0.3 0.1 0.1 0 0.2 0.1 0.1 0.1 0.2 0.2 0 0.2 0 0.3v4.8c0 1.7 1 2.8 2.6 2.8q0.6 0 1.1-0.2 0.6-0.2 1-0.6 0.3-0.4 0.5-1 0.2-0.5 0.2-1.1v-4.7q0-0.3 0.2-0.5 0.2-0.3 0.5-0.3 0.3 0 0.5 0.3 0.2 0.2 0.2 0.5z"/>
			<path id="Layer" class="s0" d="m173.1 59v-5.6h-0.8q-0.1 0-0.2 0-0.1-0.1-0.2-0.2-0.1-0.1-0.1-0.2-0.1-0.1-0.1-0.2 0-0.1 0.1-0.2 0-0.1 0.1-0.2 0.1-0.1 0.2-0.2 0.1 0 0.2 0h0.8v-2.2q0-0.1 0-0.3 0.1-0.1 0.2-0.2 0.1-0.1 0.2-0.2 0.1 0 0.3 0 0.1 0 0.2 0 0.2 0.1 0.3 0.2 0.1 0.1 0.1 0.2 0.1 0.2 0.1 0.3v2.1h2.4q0.1 0.1 0.2 0.1 0.1 0 0.2 0.1 0.1 0.1 0.2 0.2 0 0.1 0 0.3 0 0.1 0 0.2-0.1 0.1-0.2 0.2-0.1 0.1-0.2 0.1-0.1 0.1-0.2 0.1h-2.4v5.5q-0.1 0.3 0.1 0.6 0.1 0.3 0.3 0.5 0.2 0.2 0.5 0.3 0.3 0.1 0.6 0.1 0.2 0 0.3 0 0.1 0 0.2 0 0.1-0.1 0.2-0.1 0.1 0 0.2 0 0.1 0 0.2 0 0.1 0.1 0.2 0.1 0.1 0.1 0.1 0.2 0.1 0.1 0.1 0.3 0 0 0 0.1-0.1 0.1-0.1 0.2-0.1 0.1-0.1 0.1-0.1 0.1-0.2 0.1-0.2 0.1-0.3 0.1-0.2 0.1-0.4 0.1-0.1 0-0.3 0-0.2 0.1-0.4 0.1-0.5 0-1-0.2-0.5-0.1-0.9-0.5-0.4-0.4-0.6-0.9-0.2-0.5-0.1-1.1z"/>
			<path id="Layer" fill-rule="evenodd" class="s0" d="m183.5 61.7q-0.9 0-1.8-0.4-0.9-0.3-1.5-1-0.7-0.7-1-1.6-0.4-0.9-0.3-1.8-0.1-1 0.3-1.8 0.3-0.9 0.9-1.6 0.6-0.7 1.5-1.1 0.8-0.3 1.8-0.4c2.7 0 4.3 2.3 4.3 4.7q0 0.2-0.1 0.3 0 0.1-0.1 0.2-0.1 0.1-0.2 0.1-0.1 0.1-0.3 0.1h-6.7q0 0.6 0.3 1.2 0.2 0.6 0.7 1 0.4 0.5 1 0.7 0.6 0.2 1.3 0.2 0.3 0 0.7 0 0.4-0.1 0.7-0.2 0.4-0.2 0.7-0.4 0.3-0.2 0.6-0.4 0-0.1 0-0.1 0.1 0 0.1-0.1 0.1 0 0.1 0 0.1 0 0.2 0 0.1 0 0.2 0 0.1 0.1 0.2 0.2 0.1 0.1 0.1 0.2 0.1 0.1 0.1 0.2 0 0.1-0.1 0.1 0 0.1 0 0.1 0 0.1-0.1 0.2-0.4 0.4-0.8 0.7-0.4 0.2-0.9 0.4-0.4 0.2-0.9 0.3-0.5 0-1 0zm2.8-5.4c-0.2-1.7-1.2-3.1-3-3.1q-0.6 0-1.2 0.3-0.5 0.2-1 0.7-0.4 0.4-0.6 1-0.2 0.5-0.2 1.1z"/>
			<path id="Layer" class="s0" d="m189.4 60.5q-0.2-0.1-0.2-0.3-0.1-0.2 0-0.4 0-0.2 0.2-0.3 0.2-0.1 0.4-0.1 0 0 0.1 0 0.1 0 0.1 0.1 0.1 0 0.1 0 0.3 0.2 0.7 0.4 0.3 0.2 0.7 0.3 0.4 0.2 0.8 0.2 0.4 0.1 0.8 0.1c1.1 0 1.9-0.6 1.9-1.5 0-0.9-1.1-1.3-2.3-1.6-1.5-0.4-3.1-0.9-3.1-2.6 0-1.6 1.3-2.7 3.2-2.7q0.4 0 0.7 0.1 0.4 0 0.8 0.1 0.4 0.1 0.8 0.3 0.3 0.1 0.7 0.3 0 0 0.1 0.1 0.1 0.1 0.1 0.1 0.1 0.1 0.1 0.2 0 0.1 0 0.2 0 0.1 0 0.2-0.1 0.1-0.2 0.2-0.1 0.1-0.2 0.1-0.1 0.1-0.2 0.1-0.1 0-0.1 0 0 0-0.1-0.1-0.1 0-0.1 0-0.3-0.2-0.6-0.3-0.3-0.1-0.6-0.2-0.3-0.1-0.6-0.2-0.3 0-0.7 0c-1.1 0-1.8 0.5-1.8 1.3 0 0.9 1.2 1.2 2.4 1.6 1.5 0.4 3 1 3 2.7 0 1.8-1.4 2.8-3.3 2.8q-0.5 0-0.9-0.1-0.5-0.1-1-0.2-0.4-0.2-0.9-0.4-0.4-0.2-0.8-0.5z"/>
			<path id="Layer" fill-rule="evenodd" class="s0" d="m203.2 58.8c0-2 1.6-3 4-3q0.4 0 0.7 0 0.4 0 0.8 0.1 0.3 0 0.7 0.1 0.3 0.1 0.7 0.2v-0.3c0-1.7-1-2.6-2.8-2.6q-0.3 0-0.6 0.1-0.3 0-0.6 0.1-0.3 0-0.6 0.1-0.3 0.1-0.6 0.3 0 0-0.1 0-0.1 0-0.1 0 0 0-0.1 0-0.1 0-0.2 0-0.1-0.1-0.2-0.2-0.1-0.1-0.1-0.2-0.1-0.1-0.1-0.2 0-0.1 0.1-0.2 0-0.1 0-0.1 0.1-0.1 0.1-0.2 0.1 0 0.2-0.1 0.4-0.1 0.7-0.2 0.4-0.2 0.8-0.2 0.3-0.1 0.7-0.2 0.4 0 0.8 0 0.4 0 0.8 0 0.4 0.1 0.8 0.2 0.4 0.1 0.7 0.3 0.4 0.2 0.7 0.5 0.3 0.3 0.5 0.6 0.1 0.3 0.3 0.7 0.1 0.3 0.2 0.7 0 0.3 0 0.7c0 0.1 0 5.3 0 5.4q-0.1 0.1-0.2 0.2-0.1 0.1-0.2 0.1-0.1 0.1-0.3 0.1-0.1 0-0.2 0-0.1-0.1-0.2-0.2-0.1-0.1-0.2-0.2 0-0.1 0-0.2v-0.9q-0.3 0.4-0.7 0.7-0.4 0.3-0.8 0.5-0.5 0.2-0.9 0.3-0.5 0.1-1 0.1c-1.7 0-3.5-1-3.5-2.9zm6.9-0.7v-0.9q-0.4-0.1-0.7-0.2-0.3-0.1-0.7-0.1-0.3-0.1-0.7-0.1-0.3 0-0.7 0c-1.7 0-2.7 0.7-2.7 1.9 0 1.2 1.1 1.8 2.4 1.8 1.7 0.1 3.1-0.9 3.1-2.4z"/>
			<path id="Layer" class="s0" d="m214.2 52.8q0-0.1 0-0.3 0.1-0.1 0.2-0.2 0.1-0.1 0.2-0.1 0.2-0.1 0.3 0 0.1-0.1 0.3 0 0.1 0 0.2 0.1 0.1 0.1 0.1 0.3 0.1 0.1 0.1 0.3v1q0.2-0.5 0.6-0.8 0.3-0.4 0.7-0.6 0.5-0.2 0.9-0.4 0.5-0.1 1-0.1 0.7 0 1.4 0.3 0.7 0.2 1.2 0.8 0.5 0.5 0.8 1.2 0.2 0.7 0.1 1.5v5.1q0 0.3-0.2 0.5-0.2 0.2-0.5 0.2-0.2 0-0.4-0.2-0.2-0.2-0.2-0.5v-4.8c0-1.8-1-2.9-2.6-2.9q-0.6 0-1.1 0.2-0.6 0.3-1 0.7-0.4 0.4-0.6 0.9-0.2 0.6-0.2 1.2v4.7q0 0.1 0 0.2-0.1 0.2-0.1 0.3-0.1 0.1-0.3 0.1-0.1 0.1-0.2 0.1-0.2 0-0.3-0.1-0.1 0-0.2-0.1-0.1-0.1-0.2-0.3 0-0.1 0-0.2z"/>
			<path id="Layer" fill-rule="evenodd" class="s0" d="m233.9 60.9q0 0.3-0.2 0.5-0.2 0.2-0.5 0.2-0.3 0-0.5-0.2-0.2-0.2-0.2-0.5v-1.3q-0.3 0.5-0.6 0.9-0.4 0.4-0.9 0.6-0.5 0.3-1 0.4-0.5 0.2-1.1 0.2-0.9 0-1.7-0.4-0.9-0.4-1.5-1.1-0.6-0.7-1-1.5-0.3-0.9-0.2-1.8-0.1-1 0.2-1.8 0.4-0.9 1-1.6 0.6-0.7 1.5-1.1 0.8-0.3 1.7-0.4 0.6 0 1.1 0.2 0.5 0.1 1 0.4 0.5 0.2 0.8 0.6 0.4 0.4 0.7 0.8v-5q0-0.1 0.1-0.2 0-0.2 0.1-0.3 0.1-0.1 0.2-0.1 0.2-0.1 0.3-0.1 0.1 0 0.3 0.1 0.1 0 0.2 0.1 0.1 0.1 0.1 0.3 0.1 0.1 0.1 0.2zm-8-4q-0.1 0.6 0.2 1.3 0.2 0.6 0.7 1.2 0.4 0.5 1 0.8 0.7 0.2 1.4 0.3 0.7-0.1 1.3-0.3 0.6-0.3 1.1-0.8 0.5-0.5 0.7-1.2 0.3-0.6 0.2-1.3 0.1-0.7-0.2-1.4-0.2-0.6-0.7-1.1-0.5-0.5-1.1-0.8-0.6-0.3-1.3-0.3-0.7 0-1.3 0.3-0.7 0.3-1.1 0.8-0.5 0.5-0.7 1.1-0.2 0.7-0.2 1.4z"/>
			<path id="Layer" class="s0" d="m242.5 59v-5.6h-0.7q-0.1 0-0.2 0-0.2-0.1-0.2-0.2-0.1-0.1-0.2-0.2 0-0.1 0-0.2 0-0.1 0-0.2 0.1-0.1 0.2-0.2 0-0.1 0.2-0.2 0.1 0 0.2 0h0.7v-2.2q0-0.1 0.1-0.3 0-0.1 0.1-0.2 0.1-0.1 0.3-0.2 0.1 0 0.2 0 0.2 0 0.3 0 0.1 0.1 0.2 0.2 0.1 0.1 0.2 0.2 0 0.2 0 0.3v2.1h2.4q0.2 0.1 0.3 0.1 0.1 0 0.2 0.1 0.1 0.1 0.1 0.2 0.1 0.1 0.1 0.3 0 0.1-0.1 0.2 0 0.1-0.1 0.2-0.1 0.1-0.2 0.1-0.1 0.1-0.3 0.1h-2.4v5.5q-0.1 0.3 0.1 0.6 0.1 0.3 0.3 0.5 0.2 0.2 0.5 0.3 0.3 0.1 0.6 0.1 0.2 0 0.3 0 0.1 0 0.2 0 0.1-0.1 0.2-0.1 0.1 0 0.2 0 0.1 0 0.2 0 0.1 0.1 0.2 0.1 0.1 0.1 0.1 0.2 0.1 0.1 0.1 0.3 0 0 0 0.1-0.1 0.1-0.1 0.2-0.1 0.1-0.1 0.1-0.1 0.1-0.2 0.1-0.2 0.1-0.3 0.1-0.2 0.1-0.4 0.1-0.1 0-0.3 0-0.2 0.1-0.4 0.1-0.5 0-1-0.2-0.5-0.2-0.9-0.5-0.4-0.4-0.5-0.9-0.2-0.5-0.2-1.1z"/>
			<path id="Layer" class="s0" d="m249.1 49.3q0.1-0.4 0.3-0.6 0.2-0.2 0.6-0.2 0.3 0 0.5 0.2 0.3 0.2 0.3 0.6v0.2q0 0.3-0.3 0.6-0.2 0.2-0.5 0.2-0.4 0-0.6-0.2-0.2-0.3-0.3-0.6zm0.2 3.5q0-0.1 0-0.2 0.1-0.2 0.2-0.3 0.1-0.1 0.2-0.1 0.1-0.1 0.3-0.1 0.1 0 0.2 0.1 0.2 0 0.3 0.1 0.1 0.1 0.1 0.3 0.1 0.1 0.1 0.2v8.1q0 0.1-0.1 0.3 0 0.1-0.1 0.2-0.1 0.1-0.3 0.2-0.1 0-0.2 0-0.2 0-0.3 0-0.1-0.1-0.2-0.2-0.1-0.1-0.2-0.2 0-0.1 0-0.3z"/>
			<path id="Layer" class="s0" d="m253.7 52.8q0-0.1 0.1-0.3 0-0.1 0.1-0.2 0.1-0.1 0.2-0.1 0.2-0.1 0.3-0.1 0.1 0 0.3 0.1 0.1 0 0.2 0.1 0.1 0.1 0.1 0.2 0.1 0.2 0.1 0.3v1q0.2-0.4 0.5-0.7 0.4-0.4 0.7-0.6 0.4-0.2 0.9-0.3 0.4-0.2 0.9-0.2 0.5 0 0.9 0.1 0.5 0.2 0.9 0.4 0.4 0.3 0.7 0.6 0.3 0.4 0.5 0.8 0.2-0.4 0.6-0.8 0.3-0.3 0.8-0.6 0.4-0.2 0.9-0.3 0.5-0.2 1-0.2c2.1 0 3.4 1.5 3.4 3.8v5.1q0.1 0.3-0.1 0.6-0.3 0.2-0.6 0.2-0.3 0-0.5-0.2-0.2-0.3-0.2-0.6v-4.8c0-1.8-0.9-2.9-2.4-2.9q-0.5 0.1-1 0.3-0.5 0.2-0.9 0.6-0.4 0.4-0.5 1-0.2 0.5-0.1 1.1v4.7q0 0.3-0.2 0.5-0.2 0.3-0.5 0.3-0.3 0-0.6-0.3-0.2-0.2-0.1-0.5v-4.9c0-1.7-0.9-2.8-2.4-2.8q-0.6 0.1-1.1 0.3-0.5 0.2-0.8 0.6-0.4 0.5-0.6 1-0.2 0.5-0.1 1.1v4.7q0 0.1-0.1 0.2 0 0.1-0.1 0.2-0.1 0.1-0.2 0.2-0.2 0.1-0.3 0.1-0.1 0-0.3-0.1-0.1-0.1-0.2-0.2-0.1-0.1-0.1-0.2-0.1-0.1-0.1-0.2z"/>
			<path id="Layer" fill-rule="evenodd" class="s0" d="m274.7 61.7q-0.9 0-1.8-0.4-0.9-0.3-1.6-1-0.6-0.7-0.9-1.6-0.4-0.9-0.3-1.8-0.1-1 0.2-1.8 0.3-0.9 1-1.6 0.6-0.7 1.5-1.1 0.8-0.3 1.7-0.4c2.8 0 4.4 2.3 4.4 4.7q-0.1 0.2-0.1 0.3 0 0.1-0.1 0.2-0.1 0.1-0.3 0.1-0.1 0.1-0.2 0.1h-6.7q0 0.6 0.2 1.2 0.3 0.6 0.8 1 0.4 0.5 1 0.7 0.6 0.2 1.2 0.2 0.4 0 0.8 0 0.3-0.1 0.7-0.2 0.3-0.2 0.6-0.4 0.4-0.2 0.6-0.4 0.1-0.1 0.1-0.1 0.1 0 0.1-0.1 0.1 0 0.1 0 0.1 0 0.1 0 0.1 0 0.3 0 0.1 0.1 0.2 0.2 0 0.1 0.1 0.2 0 0.1 0 0.2 0 0.1 0 0.1 0 0.1 0 0.1-0.1 0.1-0.1 0.2 0 0-0.1 0-0.3 0.4-0.7 0.7-0.4 0.2-0.9 0.4-0.4 0.2-0.9 0.2-0.5 0.1-1 0.1zm2.8-5.4c-0.2-1.7-1.2-3.1-3-3.1q-0.6 0-1.2 0.3-0.5 0.2-1 0.7-0.4 0.4-0.6 1-0.2 0.5-0.2 1.1z"/>
			<path id="Layer" class="s0" d="m281.6 59v-5.6h-0.7q-0.1 0-0.2 0-0.2-0.1-0.2-0.2-0.1-0.1-0.2-0.2 0-0.1 0-0.2 0-0.1 0-0.2 0-0.2 0.1-0.3 0.1-0.1 0.2-0.1 0.2-0.1 0.3 0l0.7-0.1v-2.2q0-0.1 0.1-0.2 0-0.1 0.1-0.2 0.1-0.1 0.3-0.2 0.1 0 0.2-0.1 0.2 0.1 0.3 0.1 0.1 0.1 0.2 0.2 0.1 0.1 0.2 0.2 0 0.1 0 0.2v2.2h2.4q0.2 0.1 0.3 0.1 0.1 0 0.2 0.1 0.1 0.1 0.1 0.2 0.1 0.1 0.1 0.3 0 0.1-0.1 0.2 0 0.1-0.1 0.2-0.1 0.1-0.2 0.1-0.1 0.1-0.3 0.1h-2.4v5.5q-0.1 0.3 0.1 0.6 0.1 0.3 0.3 0.5 0.2 0.2 0.5 0.3 0.3 0.1 0.6 0.1 0.2 0 0.3 0 0.1 0 0.2 0 0.1-0.1 0.2-0.1 0.1 0 0.2 0 0.1 0 0.2 0 0.1 0.1 0.2 0.1 0.1 0.1 0.1 0.2 0.1 0.1 0.1 0.3 0 0 0 0.1-0.1 0.1-0.1 0.2-0.1 0.1-0.1 0.1-0.1 0.1-0.2 0.1-0.2 0.1-0.3 0.1-0.2 0.1-0.4 0.1-0.1 0-0.3 0-0.2 0.1-0.4 0.1-0.5 0-1-0.2-0.5-0.1-0.9-0.5-0.4-0.4-0.6-0.9-0.2-0.5-0.1-1.1z"/>
			<path id="Layer" fill-rule="evenodd" class="s0" d="m287.5 58.8c0-2 1.6-3 4-3q0.4 0 0.7 0 0.4 0 0.8 0.1 0.3 0 0.7 0.1 0.3 0.1 0.7 0.2v-0.3c0-1.7-1-2.6-2.8-2.6q-0.3 0-0.6 0.1-0.3 0-0.6 0.1-0.3 0-0.6 0.1-0.3 0.1-0.6 0.3 0 0-0.1 0-0.1 0-0.1 0 0 0-0.1 0-0.1 0-0.2 0-0.1-0.1-0.2-0.2-0.1-0.1-0.1-0.2-0.1-0.1-0.1-0.2 0-0.1 0.1-0.2 0-0.1 0-0.1 0.1-0.1 0.2-0.2 0 0 0.1-0.1 0.4-0.1 0.7-0.2 0.4-0.2 0.8-0.2 0.4-0.1 0.7-0.2 0.4 0 0.8 0 0.4 0 0.8 0 0.4 0.1 0.8 0.2 0.4 0.1 0.8 0.3 0.3 0.2 0.6 0.5 0.3 0.3 0.5 0.6 0.2 0.3 0.3 0.7 0.1 0.3 0.2 0.7 0 0.3 0 0.7c0 0.1 0 5.3 0 5.4q-0.1 0.1-0.2 0.2-0.1 0.1-0.2 0.1-0.1 0.1-0.3 0.1-0.1 0-0.2 0-0.1-0.1-0.2-0.2-0.1-0.1-0.2-0.2 0-0.1 0-0.2v-0.9q-0.3 0.4-0.7 0.7-0.4 0.3-0.8 0.5-0.5 0.2-0.9 0.3-0.5 0.1-1 0.1c-1.8 0-3.5-1-3.5-2.9zm6.9-0.7v-0.9q-0.4-0.1-0.7-0.2-0.3-0.1-0.7-0.1-0.3-0.1-0.7-0.1-0.3 0-0.7 0c-1.7 0-2.7 0.7-2.7 1.9 0 1.2 1.1 1.8 2.3 1.8 1.8 0.1 3.2-0.9 3.2-2.4z"/>
			<path id="Layer" fill-rule="evenodd" class="s0" d="m298.4 49q0-0.4 0.2-0.6 0.2-0.2 0.5-0.2 0.4 0 0.6 0.2 0.2 0.2 0.1 0.6v5.1q0.3-0.5 0.7-0.9 0.4-0.4 0.8-0.6 0.5-0.3 1-0.5 0.6-0.1 1.1-0.1 0.9 0 1.8 0.4 0.8 0.4 1.5 1 0.6 0.7 0.9 1.6 0.3 0.9 0.3 1.8 0 0.9-0.3 1.8-0.3 0.9-0.9 1.6-0.6 0.7-1.5 1-0.8 0.4-1.8 0.4-0.5 0-1-0.1-0.5-0.1-1-0.4-0.5-0.2-0.9-0.6-0.3-0.4-0.6-0.9v1.2q0 0.2-0.1 0.3 0 0.1-0.1 0.2-0.1 0.1-0.2 0.2-0.2 0-0.3 0-0.1 0-0.3 0-0.1-0.1-0.2-0.2-0.1-0.1-0.2-0.2 0-0.1 0-0.3zm8 7.9q0-0.7-0.2-1.3-0.2-0.7-0.7-1.2-0.4-0.5-1.1-0.8-0.6-0.3-1.3-0.3-0.7 0.1-1.3 0.3-0.6 0.3-1.1 0.8-0.5 0.5-0.7 1.2-0.3 0.6-0.3 1.3 0 0.7 0.3 1.4 0.2 0.6 0.7 1.1 0.4 0.5 1.1 0.8 0.6 0.3 1.3 0.3 0.7 0 1.3-0.3 0.7-0.3 1.1-0.8 0.5-0.5 0.7-1.1 0.2-0.7 0.2-1.4z"/>
			<path id="Layer" class="s0" d="m310.3 49q0.1-0.3 0.3-0.5 0.2-0.2 0.4-0.2 0.3 0 0.5 0.2 0.2 0.2 0.2 0.5v11.9q0 0.1 0 0.2-0.1 0.2-0.2 0.3-0.1 0.1-0.2 0.1-0.1 0.1-0.3 0.1-0.1 0-0.2-0.1-0.2 0-0.3-0.1-0.1-0.1-0.1-0.2-0.1-0.2-0.1-0.3z"/>
			<path id="Layer" fill-rule="evenodd" class="s0" d="m318.9 61.7q-1 0-1.8-0.4-0.9-0.3-1.6-1-0.6-0.7-1-1.6-0.3-0.9-0.2-1.8-0.1-1 0.2-1.8 0.3-0.9 1-1.6 0.6-0.7 1.4-1.1 0.9-0.3 1.8-0.4c2.8 0 4.3 2.3 4.3 4.7q0 0.2 0 0.3-0.1 0.1-0.2 0.2 0 0.1-0.2 0.1-0.1 0.1-0.2 0.1h-6.8q0.1 0.6 0.3 1.2 0.3 0.6 0.7 1 0.5 0.4 1.1 0.7 0.6 0.2 1.2 0.2 0.4 0 0.7-0.1 0.4 0 0.7-0.2 0.4-0.1 0.7-0.3 0.3-0.2 0.6-0.5 0 0 0.1 0 0-0.1 0.1-0.1 0 0 0.1 0 0 0 0.1 0 0.1 0 0.2 0 0.1 0 0.2 0.1 0.1 0.1 0.1 0.2 0.1 0.1 0.1 0.3 0 0 0 0.1-0.1 0.1-0.1 0.1 0 0.1 0 0.1-0.1 0.1-0.1 0.1-0.4 0.4-0.8 0.6-0.4 0.3-0.8 0.5-0.5 0.1-1 0.2-0.4 0.1-0.9 0.1zm2.8-5.4c-0.2-1.7-1.2-3.1-3-3.1q-0.7 0-1.2 0.3-0.6 0.2-1 0.7-0.4 0.4-0.6 1-0.2 0.5-0.2 1.1z"/>
			<path id="Layer" class="s0" d="m324.8 60.5q-0.2-0.1-0.3-0.3-0.1-0.2 0-0.4 0.1-0.2 0.2-0.3 0.2-0.1 0.4-0.1 0.1 0 0.1 0 0 0 0.1 0 0 0 0.1 0.1 0.4 0.2 0.7 0.4 0.4 0.2 0.7 0.3 0.4 0.2 0.8 0.2 0.4 0.1 0.8 0.1c1.1 0 1.9-0.6 1.9-1.5 0-0.9-1.1-1.3-2.3-1.6-1.5-0.4-3.1-0.9-3.1-2.6 0-1.6 1.4-2.7 3.2-2.7q0.4 0 0.8 0.1 0.4 0 0.7 0.1 0.4 0.1 0.8 0.3 0.4 0.1 0.7 0.3 0.1 0 0.1 0.1 0.1 0.1 0.1 0.1 0.1 0.1 0.1 0.2 0 0.1 0 0.2 0 0.1 0 0.2-0.1 0.1-0.1 0.2-0.1 0.1-0.2 0.1-0.1 0.1-0.3 0.1 0 0-0.1 0 0 0 0-0.1-0.1 0-0.1 0 0 0-0.1 0-0.3-0.2-0.5-0.3-0.3-0.1-0.6-0.2-0.4-0.1-0.7-0.2-0.3 0-0.6 0c-1.1 0-1.8 0.5-1.8 1.3 0 0.9 1.1 1.2 2.4 1.6 1.4 0.4 3 1 3 2.7 0 1.8-1.5 2.8-3.3 2.8q-0.5 0-1-0.1-0.5-0.1-0.9-0.2-0.5-0.2-0.9-0.4-0.5-0.2-0.9-0.5z"/>
		</g>
	</g>
</svg>