<svg id="5cdd5904-c688-45bc-88ee-1ad9ef4d99c9" data-name="Layer 1" xmlns="http://www.w3.org/2000/svg" viewBox="0 0 456.38 382.68">
  <title>HSL asiakaspalvelu info_160x135mm</title>
  <g>
    <text transform="translate(132.25 136.38)" font-size="24" fill="#fff" font-family="GothamRounded-Medium, Gotham Rounded"><tspan letter-spacing="0.01em">H</tspan><tspan x="18.36" y="0" letter-spacing="0em">S</tspan><tspan x="33.81" y="0">L </tspan><tspan x="55.87" y="0" letter-spacing="0.01em">A</tspan><tspan x="74.65" y="0" letter-spacing="0em">s</tspan><tspan x="86.56" y="0" letter-spacing="0em">i</tspan><tspan x="93.33" y="0" letter-spacing="0em">a</tspan><tspan x="107.45" y="0" letter-spacing="-0.01em">k</tspan><tspan x="121.2" y="0" letter-spacing="0em">a</tspan><tspan x="135.31" y="0" letter-spacing="0em">s</tspan><tspan x="147.38" y="0" letter-spacing="0em">p</tspan><tspan x="163.37" y="0" letter-spacing="0em">a</tspan><tspan x="177.4" y="0" letter-spacing="-0.02em">l</tspan><tspan x="183.82" y="0" letter-spacing="-0.03em">v</tspan><tspan x="197.27" y="0" letter-spacing="-0.01em">e</tspan><tspan x="211.64" y="0" letter-spacing="0em">l</tspan><tspan x="218.44" y="0">u</tspan><tspan font-size="18" font-family="GothamRounded-Book, Gotham Rounded"><tspan x="0" y="21.6" letter-spacing="0.01em">H</tspan><tspan x="13.83" y="21.6" letter-spacing="-0.02em">R</tspan><tspan x="26.49" y="21.6">T </tspan><tspan x="43.56" y="21.6" letter-spacing="-0.03em">K</tspan><tspan x="55.96" y="21.6" letter-spacing="0em">u</tspan><tspan x="66.96" y="21.6" letter-spacing="0em">n</tspan><tspan x="78" y="21.6" letter-spacing="0em">d</tspan><tspan x="89.91" y="21.6" letter-spacing="-0.01em">s</tspan><tspan x="98.71" y="21.6" letter-spacing="0em">e</tspan><tspan x="109.32" y="21.6" letter-spacing="0.01em">r</tspan><tspan x="116.87" y="21.6" letter-spacing="-0.02em">v</tspan><tspan x="127.02" y="21.6" letter-spacing="-0.01em">i</tspan><tspan x="131.56" y="21.6" letter-spacing="-0.01em">c</tspan><tspan x="141.64" y="21.6">e</tspan><tspan x="0" y="43.2" letter-spacing="0em">H</tspan><tspan x="13.75" y="43.2" letter-spacing="0em">S</tspan><tspan x="25.35" y="43.2" letter-spacing="0em">L </tspan><tspan x="41.89" y="43.2" letter-spacing="-0.01em">C</tspan><tspan x="55.06" y="43.2" letter-spacing="0em">us</tspan><tspan x="74.99" y="43.2" letter-spacing="-0.04em">t</tspan><tspan x="81.57" y="43.2" letter-spacing="0em">o</tspan><tspan x="93.15" y="43.2" letter-spacing="0em">me</tspan><tspan x="120.85" y="43.2">r </tspan><tspan x="133.54" y="43.2" letter-spacing="0em">S</tspan><tspan x="145.04" y="43.2" letter-spacing="0em">e</tspan><tspan x="155.66" y="43.2" letter-spacing="0.01em">r</tspan><tspan x="163.2" y="43.2" letter-spacing="-0.02em">v</tspan><tspan x="173.36" y="43.2" letter-spacing="-0.01em">i</tspan><tspan x="177.89" y="43.2" letter-spacing="-0.01em">c</tspan><tspan x="187.98" y="43.2">e</tspan></tspan><tspan x="0" y="78.25" letter-spacing="0em">0</tspan><tspan x="17.28" y="78.25" letter-spacing="0em">9 </tspan><tspan x="40.22" y="78.25" letter-spacing="-0.06em">4</tspan><tspan x="55.27" y="78.25" letter-spacing="-0.03em">7</tspan><tspan x="69.11" y="78.25" letter-spacing="0em">6</tspan><tspan x="84.83" y="78.25" letter-spacing="0em">6 </tspan><tspan x="107.78" y="78.25" letter-spacing="-0.01em">4</tspan><tspan x="124.02" y="78.25" letter-spacing="0em">00</tspan><tspan x="158.9" y="78.25">0</tspan><tspan font-size="18"><tspan x="0" y="108.85" letter-spacing="0.01em">M</tspan><tspan x="15.76" y="108.85" letter-spacing="0.01em">a</tspan><tspan x="26.46" y="108.85" letter-spacing="0em">-</tspan><tspan x="33.88" y="108.85" letter-spacing="0em">p</tspan><tspan x="45.99" y="108.85">e </tspan><tspan x="62.26" y="108.85" letter-spacing="-0.06em">7</tspan><tspan x="72.24" y="108.85" letter-spacing="-0.04em">-</tspan><tspan x="78.85" y="108.85" letter-spacing="0em">1</tspan><tspan x="86.02" y="108.85" letter-spacing="-0.01em">9</tspan><tspan x="97.57" y="108.85" letter-spacing="0em">, </tspan><tspan x="107.82" y="108.85" letter-spacing="0em">l</tspan><tspan x="112.96" y="108.85" letter-spacing="0.01em">a</tspan><tspan x="123.67" y="108.85" letter-spacing="0em">-</tspan><tspan x="130.94" y="108.85" letter-spacing="0em">s</tspan><tspan x="139.99" y="108.85">u </tspan><tspan x="156.54" y="108.85" letter-spacing="0.02em">9</tspan><tspan x="168.8" y="108.85" letter-spacing="-0.04em">-</tspan><tspan x="175.41" y="108.85" letter-spacing="-0.02em">1</tspan><tspan x="182.1" y="108.85">7</tspan></tspan><tspan font-size="18" font-family="GothamRounded-Book, Gotham Rounded"><tspan x="0" y="130.45" letter-spacing="0em">M</tspan><tspan x="15.67" y="130.45" letter-spacing="0em">รฅ</tspan><tspan x="26.06" y="130.45" letter-spacing="0em">n</tspan><tspan x="37.07" y="130.45" letter-spacing="-0.03em">-</tspan><tspan x="43.93" y="130.45" letter-spacing="0em">f</tspan><tspan x="50.6" y="130.45" letter-spacing="-0.03em">r</tspan><tspan x="57.43" y="130.45">e </tspan><tspan x="73.49" y="130.45" letter-spacing="-0.06em">7</tspan><tspan x="83.08" y="130.45" letter-spacing="-0.05em">-</tspan><tspan x="89.61" y="130.45" letter-spacing="0.01em">1</tspan><tspan x="96.15" y="130.45" letter-spacing="-0.01em">9</tspan><tspan x="107.54" y="130.45" letter-spacing="0em">, </tspan><tspan x="117.35" y="130.45" letter-spacing="-0.01em">l</tspan><tspan x="121.92" y="130.45" letter-spacing="0em">รถ</tspan><tspan x="133.5" y="130.45" letter-spacing="-0.08em">r</tspan><tspan x="139.34" y="130.45" letter-spacing="-0.01em">-</tspan><tspan x="146.47" y="130.45" letter-spacing="-0.01em">s</tspan><tspan x="155.25" y="130.45" letter-spacing="0em">รถ</tspan><tspan x="166.83" y="130.45">n </tspan><tspan x="183.31" y="130.45" letter-spacing="0.02em">9</tspan><tspan x="195.28" y="130.45" letter-spacing="-0.05em">-</tspan><tspan x="201.81" y="130.45" letter-spacing="-0.02em">1</tspan><tspan x="207.92" y="130.45">7</tspan><tspan x="0" y="152.05" letter-spacing="0em">M</tspan><tspan x="15.67" y="152.05" letter-spacing="0em">o</tspan><tspan x="27.25" y="152.05" letter-spacing="0em">n</tspan><tspan x="38.25" y="152.05" letter-spacing="0em">-</tspan><tspan x="45.64" y="152.05" letter-spacing="-0.03em">F</tspan><tspan x="56.86" y="152.05" letter-spacing="-0.01em">r</tspan><tspan x="63.99" y="152.05" letter-spacing="0em">i </tspan><tspan x="74.12" y="152.05" letter-spacing="-0.05em">7</tspan><tspan x="83.87" y="152.05" letter-spacing="0em">a</tspan><tspan x="94.26" y="152.05" letter-spacing="0em">m</tspan><tspan x="111.3" y="152.05" letter-spacing="-0.1em">-</tspan><tspan x="116.9" y="152.05" letter-spacing="-0.04em">7</tspan><tspan x="126.83" y="152.05" letter-spacing="0em">p</tspan><tspan x="138.73" y="152.05" letter-spacing="0em">m</tspan><tspan x="155.9" y="152.05">, </tspan><tspan x="165.71" y="152.05" letter-spacing="0em">S</tspan><tspan x="177.29" y="152.05" letter-spacing="-0.01em">a</tspan><tspan x="187.45" y="152.05" letter-spacing="-0.08em">t</tspan><tspan x="193.28" y="152.05" letter-spacing="-0.03em">-</tspan><tspan x="200.08" y="152.05" letter-spacing="0em">S</tspan><tspan x="211.58" y="152.05" letter-spacing="0em">u</tspan><tspan x="222.58" y="152.05">n </tspan><tspan x="239.07" y="152.05" letter-spacing="0em">9</tspan><tspan x="250.75" y="152.05" letter-spacing="0em">a</tspan><tspan x="261.14" y="152.05" letter-spacing="0em">m</tspan><tspan x="278.18" y="152.05" letter-spacing="-0.02em">-</tspan><tspan x="285.18" y="152.05" letter-spacing="0em">5</tspan><tspan x="296.23" y="152.05" letter-spacing="0em">p</tspan><tspan x="308.13" y="152.05" letter-spacing="0em">m</tspan></tspan><tspan font-size="18"><tspan x="0" y="208.15" letter-spacing="0em">h</tspan><tspan x="11.25" y="208.15">s</tspan><tspan x="20.27" y="208.15" letter-spacing="0em">l</tspan><tspan x="25.48" y="208.15" letter-spacing="-0.01em">.</tspan><tspan x="30.14" y="208.15">fi</tspan><tspan x="0" y="236.2"> </tspan></tspan></text>
    <text transform="translate(132.25 20.4)" font-size="24" fill="#fff" font-family="GothamRounded-Medium, Gotham Rounded"><tspan letter-spacing="-0.01em">Re</tspan><tspan x="31.51" y="0" letter-spacing="-0.01em">i</tspan><tspan x="38.13" y="0" letter-spacing="-0.02em">t</tspan><tspan x="47.55" y="0" letter-spacing="-0.01em">i</tspan><tspan x="54.17" y="0">t </tspan><tspan x="71.24" y="0" letter-spacing="0em">j</tspan><tspan x="78" y="0">a </tspan><tspan x="99.28" y="0" letter-spacing="-0.01em">a</tspan><tspan x="113.25" y="0" letter-spacing="0em">i</tspan><tspan x="120" y="0" letter-spacing="-0.01em">k</tspan><tspan x="133.75" y="0" letter-spacing="-0.01em">a</tspan><tspan x="147.61" y="0" letter-spacing="-0.01em">t</tspan><tspan x="157.3" y="0" letter-spacing="0em">a</tspan><tspan x="171.4" y="0" letter-spacing="0em">u</tspan><tspan x="186.21" y="0" letter-spacing="0em">l</tspan><tspan x="193.02" y="0" letter-spacing="0em">u</tspan><tspan x="207.79" y="0" letter-spacing="0em">t</tspan><tspan font-size="18"><tspan x="0" y="21.6" letter-spacing="0em">R</tspan><tspan x="13.07" y="21.6" letter-spacing="0em">u</tspan><tspan x="24.19" y="21.6" letter-spacing="0.01em">t</tspan><tspan x="31.75" y="21.6" letter-spacing="-0.02em">t</tspan><tspan x="38.71" y="21.6" letter-spacing="0em">er </tspan><tspan x="62.41" y="21.6" letter-spacing="0em">o</tspan><tspan x="74.2" y="21.6" letter-spacing="0em">c</tspan><tspan x="84.54" y="21.6" letter-spacing="0em">h </tspan><tspan x="101.1" y="21.6" letter-spacing="-0.02em">t</tspan><tspan x="108.2" y="21.6" letter-spacing="0em">i</tspan><tspan x="113.27" y="21.6">d</tspan><tspan x="125.35" y="21.6" letter-spacing="-0.01em">t</tspan><tspan x="132.65" y="21.6" letter-spacing="0em">a</tspan><tspan x="143.28" y="21.6" letter-spacing="0em">b</tspan><tspan x="155.39" y="21.6" letter-spacing="0em">e</tspan><tspan x="166.2" y="21.6" letter-spacing="-0.01em">l</tspan><tspan x="171.26" y="21.6" letter-spacing="0em">l</tspan><tspan x="176.37" y="21.6">er</tspan><tspan x="0" y="49.65" letter-spacing="-0.02em">r</tspan><tspan x="7.11" y="49.65" letter-spacing="0em">e</tspan><tspan x="17.89" y="49.65" letter-spacing="-0.01em">i</tspan><tspan x="22.9" y="49.65" letter-spacing="0.01em">t</tspan><tspan x="30.46" y="49.65" letter-spacing="-0.02em">t</tspan><tspan x="37.56" y="49.65" letter-spacing="-0.01em">i</tspan><tspan x="42.62" y="49.65" letter-spacing="0em">o</tspan><tspan x="54.47" y="49.65" letter-spacing="0em">p</tspan><tspan x="66.5" y="49.65" letter-spacing="0em">a</tspan><tspan x="77.12" y="49.65" letter-spacing="0.01em">s</tspan><tspan x="86.32" y="49.65" letter-spacing="-0.01em">.</tspan><tspan x="90.97" y="49.65">fi</tspan></tspan></text>
    <path d="M52,141.62H48.62A3.66,3.66,0,0,1,45,138v-7.92a3.66,3.66,0,0,1,3.64-3.65h4.49A22,22,0,0,0,52,141.62m21.59,13.7a4,4,0,1,0,4,4,4,4,0,0,0-4-4M97.66,126.4H93.18a22,22,0,0,1,1.15,15.22h1.36a23.53,23.53,0,0,1-15.57,16,6.77,6.77,0,0,1,.22,1.7,7,7,0,0,1-.13,1.31,26.39,26.39,0,0,0,18.53-19.21,3.67,3.67,0,0,0,2.57-3.49v-7.92a3.66,3.66,0,0,0-3.65-3.65m-5.4,9.17a19.12,19.12,0,0,1-14.4,18.53,6.83,6.83,0,0,0-8.9.12A19.1,19.1,0,0,1,57.2,125a11.71,11.71,0,0,0,8.64-7.11c3,3.59,11.23,7.5,21.61,7.19a4.85,4.85,0,0,0,1.53-.25,19,19,0,0,1,3.28,10.71m-24.53-4c0-2.15-1-3.3-2.22-3.3s-2.22,1.15-2.22,3.3,1,3.29,2.22,3.29,2.22-1.15,2.22-3.29m10.89,12.83a.92.92,0,0,0-1.29,0,5.93,5.93,0,0,1-8.41,0,.92.92,0,0,0-1.29,0,.91.91,0,0,0,0,1.29,7.76,7.76,0,0,0,11,0,.91.91,0,0,0,0-1.29M83,131.61c0-2.15-1-3.3-2.22-3.3s-2.22,1.15-2.22,3.3,1,3.29,2.22,3.29S83,133.75,83,131.61" fill="#fff"/>
    <path d="M58.36,10.73a14.32,14.32,0,0,0-14.43,14.2c0,7.84,14.43,28.4,14.43,28.4s14.43-20.56,14.43-28.4a14.32,14.32,0,0,0-14.43-14.2m0,20.46a6.32,6.32,0,1,1,6.42-6.32,6.37,6.37,0,0,1-6.42,6.32M103.28,2.53a8.38,8.38,0,0,0-8.45,8.31c0,4.6,8.45,16.64,8.45,16.64s8.45-12,8.45-16.64a8.38,8.38,0,0,0-8.45-8.31m0,12a3.7,3.7,0,1,1,3.75-3.7,3.73,3.73,0,0,1-3.75,3.7M97.19,31.35A6.89,6.89,0,0,0,92,29.92a8.51,8.51,0,0,0-1,.17l-.77-3.23a11.85,11.85,0,0,1,1.45-.24,10.2,10.2,0,0,1,7.59,2.09Zm-15.5,7a9.33,9.33,0,0,1,2.8-8.27L87,32.34a6.78,6.78,0,0,0-1.93,5.73ZM68.45,59.79A15.35,15.35,0,0,1,61.27,57l2-2.67a11.89,11.89,0,0,0,5.59,2.2ZM74,59.45l-.81-3.21a11.8,11.8,0,0,0,5.78-3.37l2.47,2.26A15.07,15.07,0,0,1,74,59.45m10.4-8.89-3.13-1.24a11.18,11.18,0,0,0,.8-5.46l3.36-.31a14.84,14.84,0,0,1-1,7" fill="#fff" fill-rule="evenodd"/>
    <g>
      <line x1="5.67" y1="4.82" x2="5.67" y2="4.82" fill="none" stroke="#fff" stroke-linecap="round" stroke-miterlimit="10" stroke-width="5.02"/>
      <line x1="5.67" y1="14.75" x2="5.67" y2="337.72" fill="none" stroke="#fff" stroke-linecap="round" stroke-miterlimit="10" stroke-width="5.02" stroke-dasharray="0 9.94"/>
      <line x1="5.67" y1="342.69" x2="5.67" y2="342.69" fill="none" stroke="#fff" stroke-linecap="round" stroke-miterlimit="10" stroke-width="5.02"/>
    </g>
  </g>
</svg>
