<svg id="e5747414-48ba-4c91-83ec-8df13ad9ca52" data-name="tausta" xmlns="http://www.w3.org/2000/svg" viewBox="0 0 453.54 382.68">
  <title>HSL logo_160x135mm</title>
  <g>
    <path d="M226.46,73.83a2.89,2.89,0,1,1,5.77,0V94H261.8V73.83a2.89,2.89,0,1,1,5.78,0v46a2.89,2.89,0,1,1-5.78,0V99.41H232.23v20.45a2.89,2.89,0,1,1-5.77,0Z" fill="#fff"/>
    <path d="M297.3,97.36c7.69,0,13.17-4,13.17-10.52v-.15c0-6.28-4.83-10.08-13.09-10.08H281.57V97.36ZM275.79,74.2a2.91,2.91,0,0,1,2.85-2.92h19.17c6.3,0,11.35,1.9,14.57,5.11a14.11,14.11,0,0,1,3.95,10.08v.15c0,8.4-5.71,13.3-13.69,14.83l12.74,16.37a3.15,3.15,0,0,1,.95,2.12,3,3,0,0,1-2.92,2.85,3.4,3.4,0,0,1-2.72-1.54l-14.41-18.7H281.57v17.31a2.89,2.89,0,1,1-5.78,0Z" fill="#fff"/>
    <path d="M336.14,76.61H321.29A2.68,2.68,0,0,1,318.58,74a2.74,2.74,0,0,1,2.71-2.7h35.56a2.74,2.74,0,0,1,2.71,2.7,2.68,2.68,0,0,1-2.71,2.63H342v43.25a2.93,2.93,0,1,1-5.86,0Z" fill="#fff"/>
    <path d="M225.36,17.13a5.64,5.64,0,0,1,11.27,0V32.18h20.78v-15a5.64,5.64,0,0,1,11.27,0V57.89a5.64,5.64,0,0,1-11.27,0V42.55H236.63V57.89a5.64,5.64,0,0,1-11.27,0Z" fill="#fff"/>
    <path d="M277.55,57.67a5.22,5.22,0,0,1,3.14-9.42,5.42,5.42,0,0,1,3.22,1,21.62,21.62,0,0,0,13.1,4.6c4.61,0,7.39-1.82,7.39-4.82v-.14c0-2.85-1.76-4.31-10.32-6.51-10.32-2.63-17-5.47-17-15.63v-.15c0-9.28,7.47-15.41,17.93-15.41a29.72,29.72,0,0,1,16.25,4.53,5.12,5.12,0,0,1,2.49,4.45,5.18,5.18,0,0,1-5.27,5.19,5.44,5.44,0,0,1-2.86-.8c-3.73-2.2-7.24-3.44-10.75-3.44-4.32,0-6.59,2-6.59,4.46v.15c0,3.36,2.2,4.45,11.05,6.72,10.39,2.7,16.25,6.43,16.25,15.34V48c0,10.16-7.76,15.85-18.81,15.85a33.08,33.08,0,0,1-19.24-6.14" fill="#fff"/>
    <path d="M322.31,17.13a5.64,5.64,0,0,1,11.27,0V52.85h20.86a5.12,5.12,0,1,1,0,10.23H328a5.59,5.59,0,0,1-5.64-5.63Z" fill="#fff"/>
    <path d="M121.36,71.54c-.22,0-5.2-.11-7.64-4.35,2.49-4.1,7.38-4.25,7.66-4.26,4.05,0,7,1.82,7,4.3s-3,4.31-7,4.31m-11.1,38.88c-1.77,1.75-5.13,1-8-1.91-.16-.16-3.6-3.74-2.33-8.47,4.67-1.14,8.23,2.21,8.44,2.4,2.86,2.87,3.65,6.22,1.89,8m-43.4,17.75c-2.49,0-4.3-2.95-4.3-7,0-.23.1-5.19,4.34-7.63,4.12,2.49,4.27,7.37,4.27,7.65,0,4-1.81,7-4.31,7m-35.25-20c-2.87,2.85-6.23,3.65-8,1.89s-1-5.12,1.9-8c.16-.16,3.76-3.6,8.5-2.31,1.12,4.65-2.22,8.19-2.41,8.4M12.82,71.06c-4.05,0-7-1.81-7-4.3s3-4.3,7-4.3c.23,0,5.2.1,7.64,4.34-2.49,4.11-7.38,4.25-7.66,4.26M23.94,23.58c1.77-1.76,5.14-1,8,1.9.16.16,3.6,3.75,2.33,8.47-4.67,1.14-8.23-2.21-8.44-2.41-2.86-2.85-3.65-6.2-1.89-8M67.34,5.82c2.49,0,4.3,2.95,4.3,7,0,.23-.1,5.18-4.34,7.62C63.18,18,63,13.08,63,12.79c0-4,1.81-7,4.31-7m35.26,20c2.86-2.85,6.22-3.64,8-1.88s1,5.11-1.9,8c-.16.16-3.75,3.6-8.5,2.31-1.12-4.65,2.22-8.19,2.42-8.4M95.43,95.49,67,107.15,38.59,95.31,26.89,66.85,38.77,38.51,67.25,26.84,95.61,38.68l11.7,28.46Zm25.94-38.38a16.26,16.26,0,0,0-10.21,4L102.6,40.33A15.92,15.92,0,0,0,112.82,36c5.24-5.24,6-12,1.88-16.19s-11-3.35-16.24,1.9a16.22,16.22,0,0,0-4.35,10L73.33,23.07a16,16,0,0,0,4.15-10.26C77.48,5.39,73.21,0,67.34,0S57.19,5.39,57.19,12.81A16.24,16.24,0,0,0,61.26,23L40.41,31.54a15.92,15.92,0,0,0-4.35-10.18c-5.26-5.25-12.09-6-16.24-1.9s-3.36,11,1.9,16.21A16.18,16.18,0,0,0,31.81,40L23.12,60.77a16,16,0,0,0-10.29-4.13C5.4,56.64,0,60.89,0,66.76S5.4,76.89,12.83,76.89a16.35,16.35,0,0,0,10.22-4.06l8.56,20.83A16,16,0,0,0,21.38,98c-5.24,5.24-6,12-1.89,16.19s11,3.35,16.25-1.89a16.21,16.21,0,0,0,4.35-10l20.77,8.67a16,16,0,0,0-4.14,10.27c0,7.42,4.27,12.8,10.14,12.8S77,128.61,77,121.19A16.24,16.24,0,0,0,72.94,111l20.85-8.54a15.9,15.9,0,0,0,4.36,10.19c5.25,5.25,12.08,6,16.24,1.89s3.35-11-1.9-16.21A16.31,16.31,0,0,0,102.39,94l8.7-20.75a16,16,0,0,0,10.28,4.13c7.43,0,12.83-4.25,12.83-10.12s-5.4-10.12-12.83-10.12" fill="#fff"/>
    <path d="M170.47,2.92a2.89,2.89,0,1,0-5.78,0V131.07a2.89,2.89,0,1,0,5.78,0Z" fill="#fff"/>
    <path d="M182,2.92a2.89,2.89,0,1,0-5.78,0V131.07a2.89,2.89,0,1,0,5.78,0Z" fill="#fff"/>
  </g>
</svg>
