<svg id="c074b8dd-f11d-4fa4-9c29-ca6c53cbb2d0" data-name="Layer 1" xmlns="http://www.w3.org/2000/svg"
     viewBox="0 0 411.02 357.17">
    <title>Reaaliaikainen info_145x126mm</title>
    <rect width="411.02" height="357.17" rx="25.42" ry="25.42" fill="#bee4f8"/>
    <line x1="33" y1="318.2" x2="378.68" y2="318.2" fill="#fff" stroke="#fff" stroke-linecap="round"
          stroke-linejoin="round" stroke-width="25.45"
          class="dynamic-area" data-area-type="url-display" data-area-data="stopinfo"/>
    <rect x="267.87" y="91.11" width="133.39" height="133.39" fill="#fff" class="dynamic-area" data-area-type="qr-code"
          data-area-data="stopinfo"/>
    <text transform="translate(30.35 46.62)" font-size="24" fill="#007ac9"
          font-family="GothamRounded-Medium, Gotham Rounded" letter-spacing="-0.02em">R
        <tspan x="16.94" y="0" letter-spacing="-0.02em">e</tspan>
        <tspan x="31.02" y="0" letter-spacing="-0.01em">a</tspan>
        <tspan x="44.85" y="0" letter-spacing="-0.01em">a</tspan>
        <tspan x="58.65" y="0" letter-spacing="-0.02em">l</tspan>
        <tspan x="65.08" y="0" letter-spacing="-0.01em">i</tspan>
        <tspan x="71.6" y="0" letter-spacing="-0.01em">a</tspan>
        <tspan x="85.33" y="0" letter-spacing="-0.01em">i</tspan>
        <tspan x="91.84" y="0" letter-spacing="-0.02em">k</tspan>
        <tspan x="105.35" y="0" letter-spacing="-0.01em">a</tspan>
        <tspan x="119.08" y="0" letter-spacing="-0.01em">i</tspan>
        <tspan x="125.59" y="0" letter-spacing="-0.01em">n</tspan>
        <tspan x="140.23" y="0" letter-spacing="-0.01em">e</tspan>
        <tspan x="154.45" y="0" letter-spacing="-0.01em">n</tspan>
        <tspan x="176.04" y="0" letter-spacing="-0.01em">i</tspan>
        <tspan x="182.56" y="0" letter-spacing="-0.02em">n</tspan>
        <tspan x="197" y="0" letter-spacing="-0.03em">f</tspan>
        <tspan x="205.37" y="0" letter-spacing="-0.01em">o</tspan>
        <tspan font-family="GothamRounded-Book, Gotham Rounded" letter-spacing="-0.02em">
            <tspan x="0" y="25">R</tspan>
            <tspan x="16.76" y="25" letter-spacing="-0.02em">e</tspan>
            <tspan x="30.47" y="25" letter-spacing="-0.02em">a</tspan>
            <tspan x="43.95" y="25" letter-spacing="-0.03em">l</tspan>
            <tspan x="49.6" y="25" letter-spacing="-0.03em">t</tspan>
            <tspan x="58.55" y="25" letter-spacing="-0.02em">i</tspan>
            <tspan x="64.33" y="25" letter-spacing="-0.01em">d</tspan>
            <tspan x="79.92" y="25" letter-spacing="-0.02em">s</tspan>
            <tspan x="91.3" y="25" letter-spacing="-0.02em">i</tspan>
            <tspan x="97.1" y="25" letter-spacing="-0.03em">n</tspan>
            <tspan x="111.27" y="25" letter-spacing="-0.03em">f</tspan>
            <tspan x="119.29" y="25" letter-spacing="-0.02em">o</tspan>
            <tspan x="134.43" y="25" letter-spacing="-0.02em">r</tspan>
            <tspan x="143.72" y="25" letter-spacing="-0.02em">m</tspan>
            <tspan x="166.15" y="25" letter-spacing="-0.03em">a</tspan>
            <tspan x="179.39" y="25" letter-spacing="-0.03em">t</tspan>
            <tspan x="188.34" y="25" letter-spacing="-0.02em">i</tspan>
            <tspan x="194.1" y="25" letter-spacing="-0.02em">o</tspan>
            <tspan x="209.24" y="25" letter-spacing="-0.01em">n</tspan>
        </tspan>
    </text>
    <text transform="translate(32.16 102.35)" font-size="13.22" fill="#007ac9"
          font-family="GothamRounded-Medium, Gotham Rounded" letter-spacing="-0.02em">T
        <tspan x="8.3" y="0" letter-spacing="0.01em">ä</tspan>
        <tspan x="16.26" y="0" letter-spacing="0.02em">m</tspan>
        <tspan x="29.02" y="0" letter-spacing="0.01em">ä</tspan>
        <tspan x="36.97" y="0" letter-spacing="0.01em">n</tspan>
        <tspan x="49.39" y="0" letter-spacing="-0.01em">p</tspan>
        <tspan x="58.12" y="0" letter-spacing="0em">y</tspan>
        <tspan x="65.88" y="0" letter-spacing="0.01em">s</tspan>
        <tspan x="72.69" y="0" letter-spacing="0.01em">ä</tspan>
        <tspan x="80.65" y="0" letter-spacing="0em">k</tspan>
        <tspan x="88.32" y="0" letter-spacing="0.01em">i</tspan>
        <tspan x="92.22" y="0" letter-spacing="0.01em">n</tspan>
        <tspan x="104.64" y="0" letter-spacing="0.01em">l</tspan>
        <tspan x="108.5" y="0" letter-spacing="0.01em">i</tspan>
        <tspan x="112.34" y="0" letter-spacing="0.01em">i</tspan>
        <tspan x="116.24" y="0" letter-spacing="-0.01em">k</tspan>
        <tspan x="123.83" y="0" letter-spacing="0.01em">e</tspan>
        <tspan x="131.97" y="0" letter-spacing="0.02em">n</tspan>
        <tspan x="140.36" y="0" letter-spacing="0.01em">n</tspan>
        <tspan x="148.73" y="0" letter-spacing="-0.01em">e</tspan>
        <tspan x="156.59" y="0" letter-spacing="0em">v</tspan>
        <tspan x="164.27" y="0" letter-spacing="0.01em">ä</tspan>
        <tspan x="172.18" y="0" letter-spacing="0.01em">l</tspan>
        <tspan x="176.04" y="0" letter-spacing="0.01em">i</tspan>
        <tspan x="179.94" y="0" letter-spacing="0.01em">n</tspan>
        <tspan x="188.31" y="0" letter-spacing="0.01em">e</tspan>
        <tspan x="196.38" y="0" letter-spacing="0.01em">i</tspan>
        <tspan x="200.26" y="0" letter-spacing="0.01em">d</tspan>
        <tspan x="209.31" y="0" letter-spacing="0.01em">e</tspan>
        <tspan x="217.45" y="0" letter-spacing="0.01em">n</tspan>
        <tspan letter-spacing="-0.01em">
            <tspan x="0" y="16.02">r</tspan>
            <tspan x="5.37" y="16.02" letter-spacing="0.01em">e</tspan>
            <tspan x="13.44" y="16.02" letter-spacing="0.01em">a</tspan>
            <tspan x="21.36" y="16.02" letter-spacing="0.01em">a</tspan>
            <tspan x="29.27" y="16.02" letter-spacing="0.01em">l</tspan>
            <tspan x="33.13" y="16.02" letter-spacing="0.01em">i</tspan>
            <tspan x="37.03" y="16.02" letter-spacing="0.01em">a</tspan>
            <tspan x="44.9" y="16.02" letter-spacing="0.01em">i</tspan>
            <tspan x="48.8" y="16.02" letter-spacing="0.01em">k</tspan>
            <tspan x="56.55" y="16.02" letter-spacing="0.01em">a</tspan>
            <tspan x="64.42" y="16.02" letter-spacing="0.01em">i</tspan>
            <tspan x="68.35" y="16.02" letter-spacing="0.01em">s</tspan>
            <tspan x="75.08" y="16.02" letter-spacing="0em">e</tspan>
            <tspan x="83.07" y="16.02" letter-spacing="0.01em">t</tspan>
            <tspan x="92.73" y="16.02" letter-spacing="0em">k</tspan>
            <tspan x="100.43" y="16.02" letter-spacing="0.01em">u</tspan>
            <tspan x="108.76" y="16.02" letter-spacing="0.01em">l</tspan>
            <tspan x="112.68" y="16.02" letter-spacing="0em">k</tspan>
            <tspan x="120.38" y="16.02" letter-spacing="0.01em">u</tspan>
            <tspan x="128.69" y="16.02" letter-spacing="0em">t</tspan>
            <tspan x="134.06" y="16.02" letter-spacing="0.01em">i</tspan>
            <tspan x="137.92" y="16.02" letter-spacing="0.01em">e</tspan>
            <tspan x="146.04" y="16.02" letter-spacing="0.01em">d</tspan>
            <tspan x="155.07" y="16.02" letter-spacing="0em">o</tspan>
            <tspan x="163.77" y="16.02" letter-spacing="0.01em">t</tspan>
            <tspan x="173.43" y="16.02" letter-spacing="0.01em">s</tspan>
            <tspan x="180.24" y="16.02" letter-spacing="0.01em">a</tspan>
            <tspan x="188.17" y="16.02" letter-spacing="0em">a</tspan>
            <tspan x="195.98" y="16.02" letter-spacing="0.01em">t</tspan>
        </tspan>
        <tspan letter-spacing="0.01em">
            <tspan x="0" y="32.04">Re</tspan>
            <tspan x="17.72" y="32.04" letter-spacing="0em">i</tspan>
            <tspan x="21.54" y="32.04" letter-spacing="0.02em">t</tspan>
            <tspan x="27.25" y="32.04" letter-spacing="0em">t</tspan>
            <tspan x="32.62" y="32.04" letter-spacing="0.01em">i</tspan>
            <tspan x="36.48" y="32.04" letter-spacing="0.01em">o</tspan>
            <tspan x="45.33" y="32.04" letter-spacing="0.01em">p</tspan>
            <tspan x="54.37" y="32.04" letter-spacing="0.01em">p</tspan>
            <tspan x="63.36" y="32.04" letter-spacing="0.01em">a</tspan>
            <tspan x="71.29" y="32.04" letter-spacing="0.01em">a</tspan>
            <tspan x="79.24" y="32.04" letter-spacing="0.01em">s</tspan>
            <tspan x="86.01" y="32.04" letter-spacing="0.01em">t</tspan>
            <tspan x="91.53" y="32.04" letter-spacing="0.01em">a</tspan>
            <tspan x="103.51" y="32.04" letter-spacing="-0.04em">(</tspan>
            <tspan x="108.77" y="32.04" letter-spacing="-0.01em">r</tspan>
            <tspan x="114.15" y="32.04">e</tspan>
            <tspan x="122.22" y="32.04" letter-spacing="0em">i</tspan>
            <tspan x="126.05" y="32.04" letter-spacing="0.02em">t</tspan>
            <tspan x="131.75" y="32.04" letter-spacing="0em">t</tspan>
            <tspan x="137.12" y="32.04" letter-spacing="0.01em">i</tspan>
            <tspan x="140.98" y="32.04" letter-spacing="0.01em">o</tspan>
            <tspan x="149.83" y="32.04" letter-spacing="0.01em">p</tspan>
            <tspan x="158.82" y="32.04" letter-spacing="0.01em">a</tspan>
            <tspan x="166.77" y="32.04" letter-spacing="0.02em">s</tspan>
            <tspan x="173.67" y="32.04" letter-spacing="0em">.</tspan>
            <tspan x="177.25" y="32.04" letter-spacing="0.01em">fi</tspan>
            <tspan x="186.09" y="32.04" letter-spacing="0.01em">)</tspan>
        </tspan>
        <tspan letter-spacing="0em">
            <tspan x="0" y="48.06">v</tspan>
            <tspan x="7.69" y="48.06" letter-spacing="0.01em">i</tspan>
            <tspan x="11.55" y="48.06" letter-spacing="0.01em">e</tspan>
            <tspan x="19.68" y="48.06" letter-spacing="-0.01em">r</tspan>
            <tspan x="25.06" y="48.06" letter-spacing="0.01em">e</tspan>
            <tspan x="33.17" y="48.06" letter-spacing="0.01em">s</tspan>
            <tspan x="39.97" y="48.06" letter-spacing="0.01em">s</tspan>
            <tspan x="46.78" y="48.06" letter-spacing="0.01em">ä</tspan>
            <tspan x="58.77" y="48.06" letter-spacing="0.01em">o</tspan>
            <tspan x="67.57" y="48.06" letter-spacing="0.01em">l</tspan>
            <tspan x="71.48" y="48.06" letter-spacing="-0.01em">e</tspan>
            <tspan x="79.34" y="48.06" letter-spacing="0em">v</tspan>
            <tspan x="87.03" y="48.06" letter-spacing="0.01em">a</tspan>
            <tspan x="94.98" y="48.06" letter-spacing="0.01em">n</tspan>
            <tspan x="107.41" y="48.06" letter-spacing="0.02em">Q</tspan>
            <tspan x="118.95" y="48.06" letter-spacing="0em">R</tspan>
            <tspan x="128.49" y="48.06" letter-spacing="0.02em">-</tspan>
            <tspan x="134.09" y="48.06" letter-spacing="-0.01em">k</tspan>
            <tspan x="141.68" y="48.06" letter-spacing="0.01em">o</tspan>
            <tspan x="150.49" y="48.06" letter-spacing="0.01em">o</tspan>
            <tspan x="159.32" y="48.06" letter-spacing="0.01em">d</tspan>
            <tspan x="168.32" y="48.06" letter-spacing="0.01em">i</tspan>
            <tspan x="172.22" y="48.06" letter-spacing="0.01em">n</tspan>
            <tspan x="184.64" y="48.06" letter-spacing="-0.01em">a</tspan>
            <tspan x="192.28" y="48.06" letter-spacing="0em">v</tspan>
            <tspan x="200.06" y="48.06" letter-spacing="0.01em">u</tspan>
            <tspan x="208.39" y="48.06" letter-spacing="0.01em">l</tspan>
            <tspan x="212.25" y="48.06" letter-spacing="0.01em">l</tspan>
            <tspan x="216.18" y="48.06" letter-spacing="0.01em">a</tspan>
        </tspan>
        <tspan letter-spacing="0.01em">
            <tspan x="0" y="64.08">t</tspan>
            <tspan x="5.51" y="64.08" letter-spacing="0.01em">a</tspan>
            <tspan x="13.38" y="64.08" letter-spacing="0.01em">i</tspan>
            <tspan x="21.39" y="64.08" letter-spacing="0.01em">m</tspan>
            <tspan x="34.14" y="64.08" letter-spacing="0.01em">e</tspan>
            <tspan x="42.27" y="64.08" letter-spacing="0.01em">n</tspan>
            <tspan x="50.64" y="64.08" letter-spacing="0.01em">e</tspan>
            <tspan x="58.78" y="64.08" letter-spacing="0.02em">m</tspan>
            <tspan x="71.54" y="64.08" letter-spacing="0.01em">ä</tspan>
            <tspan x="79.44" y="64.08" letter-spacing="0.01em">l</tspan>
            <tspan x="83.31" y="64.08" letter-spacing="0.01em">l</tspan>
            <tspan x="87.23" y="64.08" letter-spacing="0.01em">ä</tspan>
            <tspan x="99.22" y="64.08" letter-spacing="-0.01em">v</tspan>
            <tspan x="106.81" y="64.08" letter-spacing="0.01em">e</tspan>
            <tspan x="114.95" y="64.08">r</tspan>
            <tspan x="120.49" y="64.08" letter-spacing="0.01em">k</tspan>
            <tspan x="128.24" y="64.08" letter-spacing="-0.01em">k</tspan>
            <tspan x="135.83" y="64.08" letter-spacing="0.03em">o</tspan>
            <tspan x="144.87" y="64.08" letter-spacing="0.03em">-</tspan>
            <tspan x="150.61" y="64.08" letter-spacing="0.01em">o</tspan>
            <tspan x="159.4" y="64.08" letter-spacing="0.01em">so</tspan>
            <tspan x="174.86" y="64.08" letter-spacing="0em">i</tspan>
            <tspan x="178.69" y="64.08" letter-spacing="0.02em">t</tspan>
            <tspan x="184.39" y="64.08" letter-spacing="-0.01em">t</tspan>
            <tspan x="189.66" y="64.08" letter-spacing="0.01em">e</tspan>
            <tspan x="197.75" y="64.08" letter-spacing="0.02em">e</tspan>
            <tspan x="206.05" y="64.08" letter-spacing="0.01em">-</tspan>
        </tspan>
        <tspan letter-spacing="0.01em">
            <tspan x="0" y="80.1">se</tspan>
            <tspan x="14.83" y="80.1" letter-spacing="0.01em">e</tspan>
            <tspan x="22.97" y="80.1" letter-spacing="0.02em">n</tspan>
            <tspan x="31.46" y="80.1" letter-spacing="0.01em">.</tspan>
        </tspan>
        <tspan font-family="GothamRounded-Book, Gotham Rounded" letter-spacing="0em">
            <tspan x="0" y="102.13">R</tspan>
            <tspan x="9.55" y="102.13" letter-spacing="0em">e</tspan>
            <tspan x="17.41" y="102.13" letter-spacing="0.01em">a</tspan>
            <tspan x="25.15" y="102.13" letter-spacing="0em">l</tspan>
            <tspan x="28.58" y="102.13" letter-spacing="-0.01em">t</tspan>
            <tspan x="33.82" y="102.13" letter-spacing="0em">i</tspan>
            <tspan x="37.32" y="102.13" letter-spacing="0.01em">d</tspan>
            <tspan x="46.22" y="102.13" letter-spacing="0em">s</tspan>
            <tspan x="52.8" y="102.13" letter-spacing="0em">i</tspan>
            <tspan x="56.31" y="102.13" letter-spacing="0em">n</tspan>
            <tspan x="64.43" y="102.13" letter-spacing="-0.01em">f</tspan>
            <tspan x="69.17" y="102.13" letter-spacing="0.01em">o</tspan>
            <tspan x="77.82" y="102.13" letter-spacing="0.01em">r</tspan>
            <tspan x="83.25" y="102.13" letter-spacing="0.01em">m</tspan>
            <tspan x="95.91" y="102.13" letter-spacing="0em">a</tspan>
            <tspan x="103.52" y="102.13" letter-spacing="-0.01em">t</tspan>
            <tspan x="108.76" y="102.13" letter-spacing="0em">i</tspan>
            <tspan x="112.25" y="102.13" letter-spacing="0.01em">o</tspan>
            <tspan x="120.9" y="102.13" letter-spacing="0.01em">n</tspan>
            <tspan x="133.27" y="102.13" letter-spacing="0.01em">o</tspan>
            <tspan x="141.92" y="102.13" letter-spacing="0.01em">m de</tspan>
            <tspan x="179.68" y="102.13" letter-spacing="0em">l</tspan>
            <tspan x="183.14" y="102.13" letter-spacing="0em">i</tspan>
            <tspan x="186.65" y="102.13" letter-spacing="0.01em">n</tspan>
            <tspan x="194.87" y="102.13" letter-spacing="0em">j</tspan>
            <tspan x="198.38" y="102.13" letter-spacing="0.01em">e</tspan>
            <tspan x="206.33" y="102.13" letter-spacing="0.01em">r</tspan>
        </tspan>
        <tspan font-family="GothamRounded-Book, Gotham Rounded" letter-spacing="0em">
            <tspan x="0" y="118.15">s</tspan>
            <tspan x="6.61" y="118.15" letter-spacing="0.01em">o</tspan>
            <tspan x="15.26" y="118.15" letter-spacing="0.01em">m a</tspan>
            <tspan x="39.84" y="118.15" letter-spacing="-0.02em">n</tspan>
            <tspan x="47.76" y="118.15" letter-spacing="-0.01em">v</tspan>
            <tspan x="55.38" y="118.15" letter-spacing="0.01em">ä</tspan>
            <tspan x="63.17" y="118.15" letter-spacing="0.01em">n</tspan>
            <tspan x="71.42" y="118.15" letter-spacing="0.01em">d</tspan>
            <tspan x="80.33" y="118.15" letter-spacing="0.01em">e</tspan>
            <tspan x="88.28" y="118.15" letter-spacing="0.01em">r d</tspan>
            <tspan x="106.77" y="118.15" letter-spacing="0.01em">e</tspan>
            <tspan x="114.72" y="118.15" letter-spacing="0.01em">n</tspan>
            <tspan x="122.99" y="118.15" letter-spacing="0.01em">n</tspan>
            <tspan x="131.22" y="118.15" letter-spacing="0.01em">a</tspan>
            <tspan x="143.11" y="118.15" letter-spacing="0.01em">h</tspan>
            <tspan x="151.34" y="118.15" letter-spacing="0.01em">å</tspan>
            <tspan x="159.08" y="118.15" letter-spacing="0em">l</tspan>
            <tspan x="162.55" y="118.15" letter-spacing="0em">l</tspan>
            <tspan x="166.07" y="118.15" letter-spacing="0.01em">p</tspan>
            <tspan x="174.91" y="118.15" letter-spacing="0em">l</tspan>
            <tspan x="178.42" y="118.15" letter-spacing="0em">a</tspan>
            <tspan x="186.03" y="118.15" letter-spacing="0.01em">t</tspan>
            <tspan x="191.55" y="118.15" letter-spacing="0.01em">s</tspan>
        </tspan>
        <tspan font-family="GothamRounded-Book, Gotham Rounded" letter-spacing="0em">
            <tspan x="0" y="134.17">h</tspan>
            <tspan x="8.2" y="134.17" letter-spacing="0em">i</tspan>
            <tspan x="11.63" y="134.17" letter-spacing="0.02em">t</tspan>
            <tspan x="17.25" y="134.17" letter-spacing="0em">t</tspan>
            <tspan x="22.61" y="134.17" letter-spacing="0.01em">ar du i</tspan>
            <tspan x="68.97" y="134.17" letter-spacing="0em">R</tspan>
            <tspan x="78.51" y="134.17" letter-spacing="0.01em">e</tspan>
            <tspan x="86.44" y="134.17" letter-spacing="0em">s</tspan>
            <tspan x="93.05" y="134.17" letter-spacing="0.01em">e</tspan>
            <tspan x="101" y="134.17" letter-spacing="0.01em">p</tspan>
            <tspan x="109.84" y="134.17" letter-spacing="0em">l</tspan>
            <tspan x="113.36" y="134.17" letter-spacing="0.01em">ane</tspan>
            <tspan x="137.36" y="134.17" letter-spacing="0em">r</tspan>
            <tspan x="142.75" y="134.17" letter-spacing="0.01em">a</tspan>
            <tspan x="150.54" y="134.17" letter-spacing="-0.01em">r</tspan>
            <tspan x="155.71" y="134.17" letter-spacing="0.01em">e</tspan>
            <tspan x="163.66" y="134.17" letter-spacing="0.01em">n</tspan>
        </tspan>
        <tspan font-family="GothamRounded-Book, Gotham Rounded" letter-spacing="-0.06em">
            <tspan x="0" y="150.19">(</tspan>
            <tspan x="4.98" y="150.19" letter-spacing="-0.01em">r</tspan>
            <tspan x="10.15" y="150.19" letter-spacing="0.01em">e</tspan>
            <tspan x="18.05" y="150.19" letter-spacing="0em">i</tspan>
            <tspan x="21.48" y="150.19" letter-spacing="0.02em">t</tspan>
            <tspan x="27.1" y="150.19" letter-spacing="-0.01em">t</tspan>
            <tspan x="32.34" y="150.19" letter-spacing="0em">i</tspan>
            <tspan x="35.83" y="150.19" letter-spacing="0.01em">o</tspan>
            <tspan x="44.48" y="150.19" letter-spacing="0.01em">p</tspan>
            <tspan x="53.35" y="150.19" letter-spacing="0.01em">a</tspan>
            <tspan x="61.12" y="150.19" letter-spacing="0.02em">s</tspan>
            <tspan x="67.92" y="150.19" letter-spacing="-0.01em">.</tspan>
            <tspan x="70.99" y="150.19" letter-spacing="0.01em">fi</tspan>
            <tspan x="79.42" y="150.19" letter-spacing="-0.05em">/</tspan>
            <tspan x="85.43" y="150.19" letter-spacing="0em">s</tspan>
            <tspan x="92.05" y="150.19" letter-spacing="-0.07em">v</tspan>
            <tspan x="98.91" y="150.19" letter-spacing="0.01em">)</tspan>
            <tspan x="108.87" y="150.19" letter-spacing="0.01em">me</tspan>
            <tspan x="129.52" y="150.19" letter-spacing="0.01em">d</tspan>
            <tspan x="142.52" y="150.19" letter-spacing="0.02em">Q</tspan>
            <tspan x="154.04" y="150.19" letter-spacing="-0.02em">R</tspan>
            <tspan x="163.35" y="150.19" letter-spacing="0em">-</tspan>
            <tspan x="168.78" y="150.19" letter-spacing="-0.02em">k</tspan>
            <tspan x="176.08" y="150.19" letter-spacing="0.01em">o</tspan>
            <tspan x="184.73" y="150.19" letter-spacing="0.01em">d</tspan>
            <tspan x="193.64" y="150.19" letter-spacing="0.01em">e</tspan>
            <tspan x="201.59" y="150.19" letter-spacing="0.01em">n</tspan>
        </tspan>
        <tspan font-family="GothamRounded-Book, Gotham Rounded" letter-spacing="0em">
            <tspan x="0" y="166.21">s</tspan>
            <tspan x="6.61" y="166.21" letter-spacing="0.01em">o</tspan>
            <tspan x="15.26" y="166.21" letter-spacing="0.01em">m fin</tspan>
            <tspan x="48.8" y="166.21" letter-spacing="0.01em">n</tspan>
            <tspan x="57.05" y="166.21" letter-spacing="0.01em">s</tspan>
            <tspan x="67.86" y="166.21" letter-spacing="0.01em">h</tspan>
            <tspan x="76.1" y="166.21" letter-spacing="0.01em">är</tspan>
            <tspan x="93.46" y="166.21" letter-spacing="0.01em">b</tspan>
            <tspan x="102.35" y="166.21" letter-spacing="-0.01em">r</tspan>
            <tspan x="107.53" y="166.21" letter-spacing="0.01em">e</tspan>
            <tspan x="115.48" y="166.21" letter-spacing="0em">d</tspan>
            <tspan x="124.2" y="166.21" letter-spacing="-0.01em">v</tspan>
            <tspan x="131.81" y="166.21" letter-spacing="0em">i</tspan>
            <tspan x="135.31" y="166.21" letter-spacing="0.01em">d</tspan>
            <tspan x="148.32" y="166.21" letter-spacing="0.01em">e</tspan>
            <tspan x="156.22" y="166.21" letter-spacing="0em">l</tspan>
            <tspan x="159.69" y="166.21" letter-spacing="0em">l</tspan>
            <tspan x="163.23" y="166.21" letter-spacing="0.01em">e</tspan>
            <tspan x="171.18" y="166.21" letter-spacing="0.01em">r</tspan>
        </tspan>
        <tspan font-family="GothamRounded-Book, Gotham Rounded" letter-spacing="0.01em">
            <tspan x="0" y="182.23">g</tspan>
            <tspan x="8.91" y="182.23" letter-spacing="0.01em">en</tspan>
            <tspan x="25.12" y="182.23" letter-spacing="0.01em">o</tspan>
            <tspan x="33.77" y="182.23">m</tspan>
            <tspan x="50.57" y="182.23" letter-spacing="0em">a</tspan>
            <tspan x="58.18" y="182.23" letter-spacing="0.02em">t</tspan>
            <tspan x="63.8" y="182.23">t</tspan>
            <tspan x="73.37" y="182.23" letter-spacing="0.01em">s</tspan>
            <tspan x="80.03" y="182.23" letter-spacing="-0.01em">k</tspan>
            <tspan x="87.47" y="182.23" letter-spacing="0em">r</tspan>
            <tspan x="92.85" y="182.23" letter-spacing="-0.01em">i</tspan>
            <tspan x="96.22" y="182.23" letter-spacing="-0.01em">v</tspan>
            <tspan x="103.84" y="182.23">a</tspan>
            <tspan x="115.72" y="182.23" letter-spacing="-0.01em">w</tspan>
            <tspan x="126.91" y="182.23" letter-spacing="0.01em">e</tspan>
            <tspan x="134.86" y="182.23" letter-spacing="0.01em">b</tspan>
            <tspan x="143.75" y="182.23" letter-spacing="0.01em">b</tspan>
            <tspan x="152.62" y="182.23" letter-spacing="0.01em">a</tspan>
            <tspan x="160.39" y="182.23" letter-spacing="0.01em">d</tspan>
            <tspan x="169.27" y="182.23" letter-spacing="-0.01em">r</tspan>
            <tspan x="174.44" y="182.23" letter-spacing="0.01em">e</tspan>
            <tspan x="182.37" y="182.23">s</tspan>
            <tspan x="189.08" y="182.23" letter-spacing="0em">s</tspan>
            <tspan x="195.69" y="182.23" letter-spacing="0.01em">e</tspan>
            <tspan x="203.64" y="182.23" letter-spacing="0.02em">n</tspan>
            <tspan x="212.02" y="182.23">.</tspan>
        </tspan>
    </text>
</svg>
