<svg id="10cacdb9-9b98-4e3f-8c2e-0e250fbed255" data-name="Layer 1" xmlns="http://www.w3.org/2000/svg" xmlns:xlink="http://www.w3.org/1999/xlink" viewBox="0 0 391.18 357.17">
  <defs>
    <clipPath id="d3bddcb7-0240-471b-a564-5d7f7c36af6d">
      <rect x="29.7" y="266.18" width="59.53" height="59.53" fill="none"/>
    </clipPath>
  </defs>
  <title>Pysäkkipalaute-vikailmoitus_runkolinjat_138x126mm</title>
  <rect width="391.18" height="357.17" rx="24.8" ry="24.8" fill="#fff"/>
  <text transform="translate(29.7 46.62)" font-size="24" fill="#007ac9" font-family="GothamRounded-Medium, Gotham Rounded" letter-spacing="0em">P<tspan x="16.06" y="0" letter-spacing="-0.02em">y</tspan><tspan x="29.59" y="0" letter-spacing="-0.01em">s</tspan><tspan x="41.39" y="0" letter-spacing="-0.01em">ä</tspan><tspan x="55.28" y="0" letter-spacing="-0.02em">k</tspan><tspan x="68.79" y="0" letter-spacing="-0.02em">k</tspan><tspan x="82.15" y="0" letter-spacing="-0.01em">ip</tspan><tspan x="104.41" y="0" letter-spacing="-0.01em">al</tspan><tspan x="124.79" y="0" letter-spacing="-0.01em">a</tspan><tspan x="138.65" y="0" letter-spacing="-0.01em">u</tspan><tspan x="153.18" y="0" letter-spacing="-0.04em">t</tspan><tspan x="162.17" y="0" letter-spacing="-0.01em">e </tspan><tspan font-family="GothamRounded-Book, Gotham Rounded" letter-spacing="-0.01em"><tspan x="0" y="25">H</tspan><tspan x="17.99" y="25" letter-spacing="-0.02em">å</tspan><tspan x="31.47" y="25" letter-spacing="-0.02em">l</tspan><tspan x="37.2" y="25" letter-spacing="-0.02em">l</tspan><tspan x="43.02" y="25" letter-spacing="-0.02em">p</tspan><tspan x="58.51" y="25" letter-spacing="-0.02em">l</tspan><tspan x="64.31" y="25" letter-spacing="-0.03em">a</tspan><tspan x="77.56" y="25" letter-spacing="-0.01em">t</tspan><tspan x="87.01" y="25" letter-spacing="-0.02em">s</tspan><tspan x="98.5" y="25" letter-spacing="-0.04em">r</tspan><tspan x="107.31" y="25" letter-spacing="-0.02em">e</tspan><tspan x="121.13" y="25" letter-spacing="-0.02em">s</tspan><tspan x="132.65" y="25" letter-spacing="-0.02em">p</tspan><tspan x="148.21" y="25" letter-spacing="-0.02em">on</tspan><tspan x="177.77" y="25" letter-spacing="-0.01em">s</tspan></tspan></text>
  <text transform="translate(29.7 102.35)" font-size="13.22" fill="#007ac9" font-family="GothamRounded-Medium, Gotham Rounded"><tspan letter-spacing="0.01em">On<tspan x="19.7" y="0" letter-spacing="0em">k</tspan><tspan x="27.3" y="0">o </tspan><tspan x="40.21" y="0" letter-spacing="-0.01em">p</tspan><tspan x="49.02" y="0" letter-spacing="0em">y</tspan><tspan x="56.74" y="0">säkki epä</tspan><tspan x="120.01" y="0" letter-spacing="0em">k</tspan><tspan x="127.72" y="0" letter-spacing="0.01em">unno</tspan><tspan x="161.52" y="0" letter-spacing="0em">s</tspan><tspan x="168.14" y="0" letter-spacing="0.01em">s</tspan><tspan x="174.9" y="0" letter-spacing="-0.02em">a</tspan><tspan x="182.33" y="0" letter-spacing="0.01em">? On</tspan><tspan x="213.41" y="0" letter-spacing="0em">k</tspan><tspan x="221.01" y="0" letter-spacing="0.01em">o </tspan><tspan x="233.93" y="0" letter-spacing="-0.01em">p</tspan><tspan x="242.73" y="0" letter-spacing="0em">y</tspan><tspan x="250.45" y="0" letter-spacing="0.01em">säkillä </tspan><tspan x="0" y="16.02">muita puut</tspan><tspan x="73.71" y="16.02" letter-spacing="0em">t</tspan><tspan x="79.08" y="16.02">eit</tspan><tspan x="96.68" y="16.02" letter-spacing="-0.02em">a</tspan><tspan x="104.11" y="16.02">? </tspan><tspan x="115.49" y="16.02" letter-spacing="-0.1em">T</tspan><tspan x="122.68" y="16.02">ee vi</tspan><tspan x="154.8" y="16.02" letter-spacing="0em">k</tspan><tspan x="162.47" y="16.02" letter-spacing="0.01em">ailmoitus HSL:n </tspan></tspan><tspan letter-spacing="-0.01em"><tspan x="0" y="32.04">v</tspan><tspan x="7.59" y="32.04" letter-spacing="0.01em">erk</tspan><tspan x="29.1" y="32.04" letter-spacing="0em">k</tspan><tspan x="36.7" y="32.04" letter-spacing="0.01em">osivuilla!</tspan></tspan><tspan font-family="GothamRounded-Book, Gotham Rounded"><tspan x="0" y="54.04" letter-spacing="0.01em">Sönderslagen bu</tspan><tspan x="112.43" y="54.04">s</tspan><tspan x="119.02" y="54.04" letter-spacing="0.01em">s</tspan><tspan x="125.73" y="54.04" letter-spacing="0em">k</tspan><tspan x="133.26" y="54.04" letter-spacing="0.01em">ur? Något ann</tspan><tspan x="228.2" y="54.04" letter-spacing="0.01em">a</tspan><tspan x="235.92" y="54.04" letter-spacing="0.01em">t beh</tspan><tspan x="270.64" y="54.04" letter-spacing="-0.02em">öv</tspan><tspan x="286.45" y="54.04" letter-spacing="0.01em">er </tspan></tspan><tspan font-family="GothamRounded-Book, Gotham Rounded" letter-spacing="0.01em"><tspan x="0" y="70.06">å</tspan><tspan x="7.72" y="70.06" letter-spacing="-0.01em">t</tspan><tspan x="13" y="70.06" letter-spacing="0.01em">gä</tspan><tspan x="29.69" y="70.06" letter-spacing="-0.01em">r</tspan><tspan x="34.9" y="70.06" letter-spacing="0.01em">das på hållpl</tspan><tspan x="119" y="70.06">a</tspan><tspan x="126.72" y="70.06" letter-spacing="0.01em">tse</tspan><tspan x="146.87" y="70.06" letter-spacing="-0.02em">n</tspan><tspan x="154.75" y="70.06" letter-spacing="0.01em">? Ge </tspan><tspan x="188.63" y="70.06" letter-spacing="-0.01em">r</tspan><tspan x="193.83" y="70.06" letter-spacing="0.01em">espons på H</tspan><tspan x="276.15" y="70.06" letter-spacing="0em">R</tspan><tspan x="285.75" y="70.06" letter-spacing="-0.03em">T</tspan><tspan x="293.93" y="70.06" letter-spacing="0.01em">:s </tspan></tspan><tspan font-family="GothamRounded-Book, Gotham Rounded" letter-spacing="-0.01em"><tspan x="0" y="86.08">w</tspan><tspan x="11.18" y="86.08" letter-spacing="0.01em">ebbpl</tspan><tspan x="49.48" y="86.08" letter-spacing="0.01em">a</tspan><tspan x="57.2" y="86.08" letter-spacing="0.01em">ts!</tspan></tspan></text>
  <text transform="translate(113.07 290.6)" font-size="18" fill="#007ac9" font-family="GothamRounded-Medium, Gotham Rounded" letter-spacing="0.01em">hsl<tspan x="25.87" y="0" letter-spacing="0em">.</tspan><tspan x="30.62" y="0">fi</tspan><tspan x="42.71" y="0" letter-spacing="-0.04em">/</tspan><tspan x="51.37" y="0" letter-spacing="0.01em">palau</tspan><tspan x="101.79" y="0" letter-spacing="0em">t</tspan><tspan x="109.1" y="0">e</tspan><tspan font-family="GothamRounded-Book, Gotham Rounded" letter-spacing="0.01em"><tspan x="0" y="21.6">hsl</tspan><tspan x="25.33" y="21.6" letter-spacing="0em">.</tspan><tspan x="29.65" y="21.6" letter-spacing="0.01em">fi</tspan><tspan x="41.18" y="21.6" letter-spacing="-0.07em">/</tspan><tspan x="48.98" y="21.6" letter-spacing="-0.01em">s</tspan><tspan x="57.81" y="21.6" letter-spacing="-0.06em">v</tspan><tspan x="67.25" y="21.6" letter-spacing="-0.04em">/</tspan><tspan x="75.67" y="21.6" letter-spacing="-0.01em">r</tspan><tspan x="82.75" y="21.6" letter-spacing="0.01em">espons</tspan></tspan></text>
  <g>
    <g clip-path="url(#d3bddcb7-0240-471b-a564-5d7f7c36af6d)">
      <rect x="29.7" y="266.18" width="59.53" height="59.53" rx="7.44" ry="7.44" fill="#007ec7"/>
    </g>
    <g clip-path="url(#d3bddcb7-0240-471b-a564-5d7f7c36af6d)">
      <path d="M79.23,279.45H40.14A2.6,2.6,0,0,0,37.55,282v22.59a2.6,2.6,0,0,0,2.59,2.59h6v7.54a1.28,1.28,0,0,0,1.29,1.4,2,2,0,0,0,1.29-.5l8.65-8.44H79.23a2.59,2.59,0,0,0,2.59-2.59V282a2.59,2.59,0,0,0-2.59-2.59" fill="#fff"/>
    </g>
  </g>
</svg>
